# Blender 5.2.0 LTS
# www.blender.org
mtllib bossEnemy_body.mtl
o 立方体.006
v 0.000000 0.120852 0.042234
v -0.029864 0.120852 0.029864
v 0.029864 0.120852 0.029864
v 0.000000 0.084625 0.062777
v 0.044390 0.084625 0.044390
v -0.044390 0.084625 0.044390
v -0.059154 0.062723 0.059154
v -0.062777 0.084625 0.000000
v -0.083656 0.062723 0.000000
v -0.066121 0.032104 0.000000
v -0.059154 0.062723 -0.059154
v -0.044390 0.084625 -0.044390
v -0.046755 0.032104 -0.046755
v -0.046755 0.032104 0.046755
v -0.038270 0.002643 0.038270
v 0.000000 0.032104 0.066122
v 0.000000 0.002643 0.054122
v 0.000000 -0.016201 0.046599
v 0.038270 0.002643 0.038270
v 0.046755 0.032104 0.046755
v 0.059154 0.062723 0.059154
v 0.066122 0.032104 0.000000
v 0.083656 0.062723 0.000000
v 0.062777 0.084625 0.000000
v 0.059154 0.062723 -0.059154
v 0.044390 0.084625 -0.044390
v 0.046755 0.032104 -0.046755
v 0.038270 0.002643 -0.038270
v 0.000000 0.032104 -0.066122
v 0.000000 0.002643 -0.054122
v 0.000000 -0.016201 -0.046599
v -0.038270 0.002643 -0.038270
v -0.032951 -0.016201 -0.032951
v -0.054121 0.002643 0.000000
v -0.046599 -0.016201 0.000000
v -0.032951 -0.016201 0.032951
v -0.031525 -0.038822 0.031525
v 0.000000 -0.038822 0.044583
v -0.000000 -0.367823 0.010954
v 0.031525 -0.038822 0.031525
v 0.032951 -0.016201 0.032951
v 0.046599 -0.016201 0.000000
v 0.054122 0.002643 0.000000
v 0.032951 -0.016201 -0.032951
v 0.031525 -0.038822 -0.031525
v 0.000000 -0.038822 -0.044583
v -0.000000 -0.367823 -0.010954
v -0.031525 -0.038822 -0.031525
v -0.007745 -0.367823 -0.007745
v -0.044583 -0.038822 0.000000
v -0.010954 -0.367823 0.000000
v -0.007745 -0.367823 0.007745
v 0.007745 -0.367823 0.007745
v 0.010954 -0.367823 0.000000
v 0.007745 -0.367823 -0.007745
v 0.044583 -0.038822 0.000000
v 0.000000 0.062723 -0.083656
v 0.000000 0.084625 -0.062777
v 0.000000 0.120852 -0.042234
v -0.029864 0.120852 -0.029864
v 0.029864 0.120852 -0.029864
v 0.042234 0.120852 0.000000
v -0.042234 0.120852 0.000000
v 0.000000 0.062723 0.083656
v 0.064117 0.154632 0.000000
v 0.203295 1.078338 0.000000
v 0.000000 0.961000 0.000000
v 0.000000 0.067567 0.000000
v 0.487402 0.741731 0.000000
v 0.398485 0.982735 0.000000
v 0.294215 0.466439 0.000000
v -0.064117 0.154632 0.000000
v -0.203295 1.078338 0.000000
v -0.487401 0.741731 0.000000
v -0.398485 0.982735 0.000000
v -0.294215 0.466439 0.000000
v 0.065928 0.159156 -0.025917
v 0.201985 1.072325 0.056787
v 0.065928 0.159156 0.025917
v 0.201985 1.072325 -0.056787
v 0.000000 0.957831 0.076966
v 0.000000 0.957831 -0.076966
v 0.101485 1.011441 0.000000
v 0.000000 0.074856 0.018099
v 0.000000 0.074856 -0.018099
v 0.016220 0.084051 0.000000
v 0.477247 0.739578 0.053257
v 0.477247 0.739578 -0.053257
v 0.164436 0.296597 0.000000
v 0.471882 0.868757 0.000000
v 0.304419 1.064555 0.000000
v 0.390183 0.977887 -0.059515
v 0.390183 0.977887 0.059515
v 0.417164 0.611951 0.000000
v 0.288086 0.465158 -0.045169
v 0.288086 0.465158 0.045169
v -0.065928 0.159156 -0.025917
v -0.201985 1.072325 0.056787
v -0.065928 0.159156 0.025917
v -0.201985 1.072325 -0.056787
v -0.101484 1.011441 0.000000
v -0.016220 0.084051 0.000000
v -0.477247 0.739578 0.053257
v -0.477247 0.739578 -0.053257
v -0.164436 0.296597 0.000000
v -0.471882 0.868757 0.000000
v -0.304419 1.064555 0.000000
v -0.390183 0.977887 -0.059515
v -0.390183 0.977887 0.059515
v -0.417164 0.611951 0.000000
v -0.288086 0.465158 -0.045169
v -0.288086 0.465158 0.045169
v 0.298631 1.058810 0.057685
v 0.018604 0.091123 0.018819
v 0.102760 1.007825 0.065181
v 0.102760 1.007825 -0.065181
v 0.018604 0.091123 -0.018819
v 0.408473 0.610564 0.053004
v 0.408473 0.610564 -0.053004
v 0.298631 1.058810 -0.057685
v 0.462051 0.865241 -0.054037
v 0.462051 0.865241 0.054037
v 0.161669 0.296293 -0.037019
v 0.161669 0.296293 0.037019
v -0.298631 1.058810 0.057685
v -0.018604 0.091123 0.018819
v -0.102760 1.007825 0.065181
v -0.102760 1.007825 -0.065181
v -0.018604 0.091123 -0.018819
v -0.408473 0.610564 0.053004
v -0.408473 0.610564 -0.053004
v -0.298631 1.058810 -0.057685
v -0.462051 0.865241 -0.054037
v -0.462051 0.865241 0.054037
v -0.161668 0.296293 -0.037019
v -0.161668 0.296293 0.037019
v 0.000000 0.930930 -0.120271
v 0.116273 0.979652 -0.103170
v 0.196230 1.036371 -0.086951
v 0.241215 0.457291 -0.063212
v 0.135336 0.293515 -0.052003
v 0.069359 0.185386 -0.037311
v 0.060852 0.163999 -0.025160
v 0.203137 1.064992 0.054054
v 0.196230 1.036371 0.086951
v 0.241215 0.457291 0.063212
v 0.135336 0.293515 0.052003
v 0.069359 0.185386 0.037311
v 0.000000 0.130736 0.030920
v 0.032583 0.145832 0.031763
v 0.032583 0.145832 -0.031763
v 0.000000 0.130736 -0.030920
v 0.327758 0.941686 -0.099155
v 0.388164 0.840808 -0.091879
v 0.401520 0.726880 -0.091542
v 0.060852 0.163999 0.025160
v 0.203137 1.064992 -0.054054
v 0.327758 0.941686 0.099155
v 0.388164 0.840808 0.091879
v 0.401520 0.726880 0.091542
v 0.116273 0.979652 0.103170
v 0.000000 0.930930 0.120271
v 0.000000 0.950199 0.075441
v 0.000000 0.950199 -0.075441
v 0.000000 0.080456 0.016485
v 0.000000 0.080456 -0.016485
v 0.231979 0.693573 0.137397
v 0.000000 0.606847 0.175969
v 0.000000 0.407484 0.106960
v 0.000000 0.251708 0.058896
v 0.000000 0.826099 0.165193
v 0.000000 0.732680 0.159014
v 0.471246 0.741775 0.051013
v 0.471246 0.741775 -0.051013
v 0.000000 0.606847 -0.175969
v 0.231979 0.693573 -0.137397
v 0.000000 0.407484 -0.106960
v 0.000000 0.251708 -0.058896
v 0.000000 0.826099 -0.165193
v 0.000000 0.732680 -0.159014
v 0.254353 1.014608 -0.094770
v 0.254353 1.014608 0.094770
v 0.000000 0.886334 0.146118
v 0.000000 0.886334 -0.146118
v 0.384973 0.973746 -0.056561
v 0.189205 0.871761 0.124795
v 0.384973 0.973746 0.056561
v 0.189205 0.871761 -0.124795
v 0.343667 0.603354 -0.085910
v 0.343667 0.603354 0.085910
v 0.000000 0.537598 0.155101
v 0.000000 0.537598 -0.155101
v 0.139329 0.427244 -0.083700
v 0.283123 0.470203 -0.044255
v 0.283123 0.470203 0.044255
v 0.139329 0.427244 0.083700
v -0.116273 0.979652 -0.103170
v -0.196230 1.036371 -0.086951
v -0.241215 0.457291 -0.063212
v -0.135336 0.293515 -0.052003
v -0.069359 0.185386 -0.037311
v -0.060852 0.163999 -0.025160
v -0.203137 1.064992 0.054054
v -0.196230 1.036371 0.086951
v -0.241215 0.457291 0.063212
v -0.135336 0.293515 0.052003
v -0.069359 0.185386 0.037311
v -0.032583 0.145832 0.031763
v -0.032583 0.145832 -0.031763
v -0.327758 0.941686 -0.099155
v -0.388164 0.840808 -0.091879
v -0.401520 0.726880 -0.091542
v -0.060852 0.163999 0.025160
v -0.203137 1.064992 -0.054054
v -0.327758 0.941686 0.099155
v -0.388164 0.840808 0.091879
v -0.401520 0.726880 0.091542
v -0.116273 0.979652 0.103170
v -0.231979 0.693573 0.137397
v -0.471246 0.741775 0.051013
v -0.471246 0.741775 -0.051013
v -0.231979 0.693573 -0.137397
v -0.254353 1.014608 -0.094770
v -0.254353 1.014608 0.094770
v -0.384973 0.973746 -0.056561
v -0.189205 0.871761 0.124795
v -0.384973 0.973746 0.056561
v -0.189205 0.871761 -0.124795
v -0.343667 0.603354 -0.085910
v -0.343667 0.603354 0.085910
v -0.139329 0.427244 -0.083700
v -0.283123 0.470203 -0.044255
v -0.283123 0.470203 0.044255
v -0.139329 0.427244 0.083700
v 0.147887 0.936693 -0.118922
v 0.295749 1.052272 0.054780
v 0.015356 0.096342 0.017445
v 0.105825 1.001043 0.062827
v 0.105825 1.001043 -0.062827
v 0.015356 0.096342 -0.017445
v 0.198391 0.577470 0.112146
v 0.147887 0.936693 0.118922
v 0.403391 0.615202 0.051674
v 0.403391 0.615202 -0.051674
v 0.295749 1.052272 -0.054780
v 0.198391 0.577470 -0.112146
v 0.455911 0.863888 -0.051421
v 0.169015 0.784432 0.124578
v 0.455911 0.863888 0.051421
v 0.169015 0.784432 -0.124578
v 0.077727 0.266830 -0.058279
v 0.156387 0.301033 -0.036663
v 0.156387 0.301033 0.036663
v 0.077727 0.266830 0.058279
v -0.147887 0.936693 -0.118922
v -0.295749 1.052272 0.054780
v -0.015356 0.096342 0.017445
v -0.105825 1.001043 0.062827
v -0.105825 1.001043 -0.062827
v -0.015356 0.096342 -0.017445
v -0.198391 0.577470 0.112146
v -0.147887 0.936693 0.118922
v -0.403391 0.615202 0.051674
v -0.403391 0.615202 -0.051674
v -0.295749 1.052272 -0.054780
v -0.198391 0.577470 -0.112146
v -0.455911 0.863888 -0.051421
v -0.169015 0.784432 0.124578
v -0.455911 0.863888 0.051421
v -0.169015 0.784432 -0.124578
v -0.077727 0.266830 -0.058279
v -0.156387 0.301033 -0.036663
v -0.156387 0.301033 0.036663
v -0.077727 0.266830 0.058279
v 0.000000 0.648960 0.159093
v -0.110283 0.723938 0.131774
v 0.110268 0.723938 0.131774
v 0.000000 0.686862 0.142369
v 0.000000 0.425606 0.081369
v -0.086824 0.515648 0.114148
v 0.088407 0.515889 0.114224
v -0.171193 0.665977 0.127274
v 0.171398 0.666015 0.127303
v 0.000000 0.648960 -0.159093
v 0.000000 0.425606 -0.081369
v 0.110268 0.723938 -0.131783
v -0.110283 0.723938 -0.131783
v 0.000000 0.686862 -0.142378
v -0.083374 0.515313 -0.114052
v 0.170643 0.665924 -0.127243
v -0.170751 0.665924 -0.127243
v 0.082477 0.515313 -0.114053
vn -0.3390 0.4641 0.8184
vn -0.0000 1.0000 -0.0000
vn 0.3390 0.4641 0.8184
vn -0.8184 0.4641 0.3390
vn -0.2872 0.6609 0.6933
vn -0.6933 0.6609 0.2872
vn -0.8166 -0.4677 0.3383
vn -0.8166 -0.4677 -0.3383
vn -0.6933 0.6609 -0.2872
vn -0.3582 -0.3522 0.8647
vn -0.8647 -0.3522 0.3582
vn -0.3383 -0.4677 0.8166
vn 0.3582 -0.3522 0.8647
vn 0.3590 -0.3460 0.8668
vn -0.3590 -0.3460 0.8668
vn 0.8647 -0.3522 0.3582
vn 0.8166 -0.4677 0.3383
vn 0.3383 -0.4677 0.8166
vn 0.8166 -0.4677 -0.3383
vn 0.6933 0.6609 -0.2872
vn 0.6933 0.6609 0.2872
vn 0.3582 -0.3522 -0.8647
vn 0.8647 -0.3522 -0.3582
vn 0.3383 -0.4677 -0.8166
vn -0.3590 -0.3460 -0.8668
vn 0.3590 -0.3460 -0.8668
vn -0.3582 -0.3522 -0.8647
vn -0.8668 -0.3460 -0.3590
vn -0.8647 -0.3522 -0.3582
vn -0.8668 -0.3460 0.3590
vn -0.3814 -0.0821 0.9208
vn -0.9208 -0.0821 0.3814
vn 0.3810 -0.0940 0.9198
vn -0.3810 -0.0940 0.9198
vn 0.3814 -0.0821 0.9208
vn 0.9208 -0.0821 0.3814
vn 0.8668 -0.3460 0.3590
vn 0.8668 -0.3460 -0.3590
vn 0.3814 -0.0821 -0.9208
vn 0.9208 -0.0821 -0.3814
vn -0.3810 -0.0940 -0.9198
vn 0.3810 -0.0940 -0.9198
vn -0.3814 -0.0821 -0.9208
vn -0.9198 -0.0940 -0.3810
vn -0.9208 -0.0821 -0.3814
vn -0.9198 -0.0940 0.3810
vn -0.0000 -1.0000 -0.0000
vn 0.9198 -0.0940 -0.3810
vn 0.9198 -0.0940 0.3810
vn -0.3383 -0.4677 -0.8166
vn -0.2872 0.6609 -0.6933
vn 0.2872 0.6609 -0.6933
vn -0.3390 0.4641 -0.8184
vn 0.3390 0.4641 -0.8184
vn 0.8184 0.4641 -0.3390
vn -0.8184 0.4641 -0.3390
vn 0.8184 0.4641 0.3390
vn 0.2872 0.6609 0.6933
vn 0.6529 0.7421 0.1515
vn 0.1366 0.9843 0.1117
vn 0.6859 -0.6750 0.2718
vn 0.8228 -0.5584 0.1056
vn -0.5476 0.8333 0.0756
vn -0.4443 0.8940 0.0583
vn -0.4443 0.8940 -0.0583
vn -0.5476 0.8333 -0.0756
vn 0.8228 -0.5584 -0.1056
vn 0.6859 -0.6750 -0.2718
vn 0.7611 -0.6431 0.0850
vn 0.8747 -0.4665 0.1312
vn 0.8747 -0.4665 -0.1312
vn 0.7611 -0.6431 -0.0850
vn 0.1366 0.9843 -0.1117
vn 0.6529 0.7421 -0.1515
vn 0.8263 0.5321 -0.1849
vn 0.9744 0.1190 -0.1906
vn 0.9744 0.1190 0.1906
vn 0.8263 0.5321 0.1849
vn 0.7934 -0.6063 -0.0544
vn 0.8159 -0.5766 -0.0436
vn 0.8159 -0.5766 0.0436
vn 0.7934 -0.6063 0.0544
vn -0.6499 0.7471 0.1396
vn -0.1343 0.9851 0.1074
vn -0.6859 -0.6750 0.2718
vn -0.8228 -0.5584 0.1056
vn 0.5476 0.8333 0.0756
vn -0.0643 0.0034 0.9979
vn 0.2271 -0.2261 -0.9473
vn 0.4443 0.8940 0.0583
vn 0.0563 -0.3565 0.9326
vn 0.5407 0.8393 -0.0571
vn 0.4337 0.9003 -0.0371
vn -0.3658 -0.0500 0.9294
vn -0.0620 -0.3822 0.9220
vn -0.6409 -0.7417 -0.1976
vn -0.8181 -0.5735 -0.0429
vn 0.1736 0.0909 0.9806
vn 0.0858 -0.0207 0.9961
vn -0.2227 -0.2283 -0.9478
vn -0.0858 -0.0207 -0.9961
vn 0.3205 -0.2489 0.9140
vn 0.2034 -0.1918 -0.9601
vn 0.2719 -0.2881 0.9182
vn -0.3305 -0.2559 0.9084
vn -0.2719 -0.2881 -0.9182
vn -0.7611 -0.6431 0.0850
vn 0.0643 0.0034 -0.9979
vn -0.2776 -0.2970 -0.9136
vn -0.8699 -0.4708 0.1468
vn -0.1311 0.0503 -0.9901
vn -0.7628 -0.6374 -0.1084
vn -0.8747 -0.4665 -0.1312
vn 0.3818 -0.0510 0.9228
vn 0.2776 -0.2970 0.9136
vn -0.6529 0.7421 -0.1515
vn -0.1366 0.9843 -0.1117
vn 0.0620 -0.3822 -0.9220
vn -0.0563 -0.3565 -0.9326
vn 0.1364 0.0120 -0.9906
vn -0.2034 -0.1918 0.9601
vn 0.2227 -0.2283 0.9478
vn 0.2811 -0.2974 -0.9125
vn -0.9757 0.1168 -0.1851
vn -0.8358 0.5255 -0.1594
vn -0.1736 0.0909 -0.9806
vn -0.2271 -0.2261 0.9473
vn -0.2691 0.2667 0.9254
vn -0.3818 -0.0510 -0.9228
vn 0.1692 0.0958 -0.9809
vn -0.9744 0.1190 0.1906
vn -0.2954 0.1556 -0.9426
vn -0.1979 0.1326 -0.9712
vn -0.8263 0.5321 0.1849
vn 0.1479 -0.0003 0.9890
vn 0.3305 -0.2559 -0.9084
vn -0.2789 0.0784 0.9571
vn -0.3205 -0.2489 -0.9140
vn 0.1268 0.0545 -0.9904
vn -0.1268 0.0545 0.9904
vn 0.2789 0.0784 -0.9571
vn -0.1364 0.0120 0.9906
vn -0.1479 -0.0003 -0.9890
vn -0.8165 -0.5746 -0.0563
vn -0.7951 -0.5996 -0.0909
vn 0.1979 0.1326 0.9712
vn -0.8159 -0.5766 0.0436
vn 0.3658 -0.0500 -0.9294
vn -0.2811 -0.2974 0.9125
vn -0.7934 -0.6063 0.0544
vn 0.2954 0.1556 0.9426
vn 0.1311 0.0503 0.9901
vn -0.1692 0.0958 0.9809
vn 0.2691 0.2667 -0.9254
vn 0.1296 0.2994 -0.9453
vn -0.0116 0.5014 -0.8651
vn -0.0255 0.3276 -0.9445
vn 0.1007 0.1604 -0.9819
vn 0.1401 0.6443 0.7518
vn 0.3743 0.4263 0.8236
vn 0.4383 -0.3873 0.8111
vn 0.2199 -0.2692 0.9377
vn -0.3233 0.7988 0.5073
vn -0.4274 0.7246 0.5407
vn -0.4274 0.7246 -0.5407
vn -0.3233 0.7988 -0.5073
vn 0.2199 -0.2692 -0.9377
vn 0.4383 -0.3873 -0.8111
vn 0.2679 -0.2799 0.9219
vn 0.2171 -0.2670 0.9389
vn 0.0966 -0.1393 0.9855
vn 0.1944 -0.2557 0.9470
vn 0.1007 0.1604 0.9819
vn -0.0255 0.3276 0.9445
vn -0.0116 0.5014 0.8651
vn 0.1296 0.2994 0.9453
vn 0.5186 -0.2797 0.8079
vn 0.4795 -0.4531 0.7515
vn 0.4795 -0.4531 -0.7515
vn 0.5186 -0.2797 -0.8079
vn 0.3743 0.4263 -0.8236
vn 0.1401 0.6443 -0.7518
vn 0.1944 -0.2557 -0.9470
vn 0.3625 -0.2898 -0.8858
vn 0.2171 -0.2670 -0.9389
vn 0.2679 -0.2799 -0.9219
vn 0.4929 0.0552 -0.8683
vn 0.4358 0.2409 -0.8672
vn 0.2011 0.2721 0.9410
vn 0.1438 0.0148 0.9895
vn 0.2181 -0.0644 0.9738
vn -0.1728 0.0192 0.9848
vn 0.4358 0.2409 0.8672
vn 0.4929 0.0552 0.8683
vn 0.2302 -0.1084 -0.9671
vn 0.2181 -0.0644 -0.9738
vn 0.1438 0.0148 -0.9895
vn 0.2011 0.2721 -0.9410
vn 0.0789 -0.2246 -0.9712
vn 0.0412 -0.1718 -0.9843
vn 0.2106 -0.2314 -0.9498
vn 0.1355 -0.2600 -0.9560
vn 0.7173 -0.5373 -0.4436
vn 0.6255 -0.4481 -0.6388
vn 0.6255 -0.4481 0.6388
vn 0.7173 -0.5373 0.4436
vn 0.1355 -0.2600 0.9560
vn 0.2106 -0.2314 0.9498
vn 0.0412 -0.1718 0.9843
vn 0.0789 -0.2246 0.9712
vn -0.1296 0.2994 -0.9453
vn -0.1076 0.1573 -0.9817
vn 0.0255 0.3276 -0.9445
vn 0.0116 0.5014 -0.8651
vn -0.3771 0.4469 0.8112
vn -0.0965 0.7408 0.6648
vn -0.2199 -0.2692 0.9377
vn -0.4383 -0.3873 0.8111
vn 0.4274 0.7246 0.5407
vn 0.3233 0.7988 0.5073
vn 0.4277 0.7481 -0.5074
vn 0.3107 0.8733 -0.3753
vn -0.1214 -0.3146 -0.9414
vn -0.5154 -0.5690 -0.6408
vn -0.2209 -0.2992 0.9282
vn -0.1944 -0.2557 0.9470
vn 0.0764 -0.1908 0.9787
vn -0.2894 -0.1784 0.9404
vn -0.1007 0.1604 0.9819
vn -0.1231 0.1668 0.9783
vn 0.0047 0.3412 0.9400
vn 0.0172 0.2972 0.9547
vn -0.5086 -0.4591 0.7284
vn -0.5264 -0.2780 0.8035
vn -0.4795 -0.4531 -0.7515
vn -0.5186 -0.2797 -0.8079
vn -0.3743 0.4263 -0.8236
vn -0.1401 0.6443 -0.7518
vn -0.1944 -0.2557 -0.9470
vn -0.2679 -0.2799 -0.9219
vn -0.2171 -0.2670 -0.9389
vn -0.3495 -0.2703 -0.8971
vn -0.4929 0.0552 -0.8683
vn -0.4925 0.2345 -0.8381
vn -0.1440 0.0140 0.9895
vn 0.1727 0.0192 0.9848
vn -0.2208 -0.0535 0.9738
vn -0.1438 0.0148 0.9895
vn -0.4968 0.0595 0.8658
vn -0.4358 0.2409 0.8672
vn -0.2211 0.1551 -0.9628
vn -0.2011 0.2721 -0.9410
vn -0.2061 -0.0501 -0.9772
vn -0.2181 -0.0644 -0.9738
vn -0.0789 -0.2246 -0.9712
vn -0.1355 -0.2600 -0.9560
vn -0.2106 -0.2314 -0.9498
vn -0.1974 -0.2890 -0.9368
vn -0.6237 -0.4659 -0.6276
vn -0.6255 -0.4481 -0.6388
vn -0.7173 -0.5373 0.4436
vn -0.4767 -0.3924 0.7866
vn -0.2247 -0.2645 0.9378
vn -0.0530 -0.2326 0.9711
vn -0.0412 -0.1718 0.9843
vn -0.2566 -0.2302 0.9387
vn 0.0416 0.3868 0.9212
vn -0.0972 -0.1435 0.9849
vn 0.2009 -0.3345 0.9207
vn -0.7235 0.5633 0.3989
vn 0.0976 0.0237 -0.9949
vn 0.0415 0.3867 -0.9213
vn 0.0866 -0.1312 -0.9876
vn -0.0884 -0.1333 -0.9871
vn -0.2303 -0.1085 0.9671
vn 0.3484 -0.2708 0.8974
vn -0.2470 -0.5328 0.8093
vn -0.3487 -0.2704 0.8974
vn -0.2199 0.1563 0.9629
vn 0.2192 0.1570 0.9630
vn 0.2436 -0.5333 0.8101
vn -0.2302 -0.1083 -0.9671
vn -0.0415 0.3867 -0.9213
vn 0.2213 0.1549 -0.9628
vn 0.0761 -0.1908 -0.9787
vn -0.0975 0.0238 -0.9949
vn 0.2581 -0.5313 -0.8069
vn -0.2555 -0.5316 -0.8075
vn 0.0911 -0.1397 -0.9860
vn 0.6499 0.7471 0.1396
vn 0.1343 0.9851 0.1074
vn 0.6409 -0.7417 0.1976
vn 0.8181 -0.5735 0.0429
vn -0.5407 0.8393 0.0571
vn -0.4337 0.9003 0.0371
vn -0.4337 0.9003 -0.0371
vn -0.5407 0.8393 -0.0571
vn 0.8181 -0.5735 -0.0429
vn 0.6409 -0.7417 -0.1976
vn 0.7628 -0.6374 0.1084
vn 0.8699 -0.4708 0.1468
vn 0.8699 -0.4708 -0.1468
vn 0.7628 -0.6374 -0.1084
vn 0.1343 0.9851 -0.1074
vn 0.6499 0.7471 -0.1396
vn 0.8358 0.5255 -0.1594
vn 0.9757 0.1168 -0.1851
vn 0.9757 0.1168 0.1851
vn 0.8358 0.5255 0.1594
vn 0.7951 -0.5996 -0.0909
vn 0.8165 -0.5746 -0.0563
vn 0.8165 -0.5746 0.0563
vn 0.7951 -0.5996 0.0909
vn -0.6529 0.7421 0.1515
vn -0.1366 0.9843 0.1117
vn -0.6409 -0.7417 0.1976
vn -0.8181 -0.5735 0.0429
vn 0.5407 0.8393 0.0571
vn -0.1311 0.0503 0.9901
vn 0.2776 -0.2970 -0.9136
vn 0.4337 0.9003 0.0371
vn 0.0620 -0.3822 0.9220
vn 0.5476 0.8333 -0.0756
vn 0.4443 0.8940 -0.0583
vn -0.3818 -0.0510 0.9228
vn -0.0563 -0.3565 0.9326
vn -0.6859 -0.6750 -0.2718
vn -0.8228 -0.5584 -0.1056
vn 0.1268 0.0545 0.9904
vn 0.1364 0.0120 0.9906
vn -0.2034 -0.1918 -0.9601
vn -0.1364 0.0120 -0.9906
vn 0.3305 -0.2559 0.9084
vn 0.2227 -0.2283 -0.9478
vn 0.2811 -0.2974 0.9125
vn -0.3205 -0.2489 0.9140
vn -0.2811 -0.2974 -0.9125
vn -0.7628 -0.6374 0.1084
vn 0.1311 0.0503 -0.9901
vn -0.2271 -0.2261 -0.9473
vn -0.8747 -0.4665 0.1312
vn -0.0643 0.0034 -0.9979
vn -0.7611 -0.6431 -0.0850
vn -0.8699 -0.4708 -0.1468
vn 0.3658 -0.0500 0.9294
vn 0.2271 -0.2261 0.9473
vn -0.6499 0.7471 -0.1396
vn -0.1343 0.9851 -0.1074
vn 0.0563 -0.3565 -0.9326
vn -0.0620 -0.3822 -0.9220
vn 0.0858 -0.0207 -0.9961
vn -0.2227 -0.2283 0.9478
vn 0.2034 -0.1918 0.9601
vn 0.2719 -0.2881 -0.9182
vn -0.9744 0.1190 -0.1906
vn -0.8263 0.5321 -0.1849
vn -0.1268 0.0545 -0.9904
vn -0.2776 -0.2970 0.9136
vn -0.1979 0.1326 0.9712
vn -0.3658 -0.0500 -0.9294
vn 0.2954 0.1556 -0.9426
vn -0.9757 0.1168 0.1851
vn -0.1692 0.0958 -0.9809
vn -0.2691 0.2667 -0.9254
vn -0.8358 0.5255 0.1594
vn 0.2789 0.0784 0.9571
vn 0.3205 -0.2489 -0.9140
vn -0.1479 -0.0003 0.9890
vn -0.3305 -0.2559 -0.9084
vn 0.1736 0.0909 -0.9806
vn -0.1736 0.0909 0.9806
vn 0.1479 -0.0003 -0.9890
vn -0.0858 -0.0207 0.9961
vn -0.2789 0.0784 -0.9571
vn -0.8159 -0.5766 -0.0436
vn -0.7934 -0.6063 -0.0544
vn 0.2691 0.2667 0.9254
vn -0.8165 -0.5746 0.0563
vn 0.3818 -0.0510 -0.9228
vn -0.2719 -0.2881 0.9182
vn -0.7951 -0.5996 0.0909
vn 0.1692 0.0958 0.9809
vn 0.0643 0.0034 0.9979
vn -0.2954 0.1556 0.9426
vn 0.1979 0.1326 -0.9712
vn 0.1231 0.1668 -0.9783
vn -0.0047 0.3412 -0.9400
vn -0.0172 0.2972 -0.9547
vn 0.1076 0.1573 -0.9817
vn 0.0965 0.7408 0.6648
vn 0.3771 0.4469 0.8112
vn 0.5154 -0.5690 0.6408
vn 0.1214 -0.3146 0.9414
vn -0.3107 0.8733 0.3753
vn -0.4277 0.7481 0.5074
vn -0.4277 0.7481 -0.5074
vn -0.3107 0.8733 -0.3753
vn 0.1214 -0.3146 -0.9414
vn 0.5154 -0.5690 -0.6408
vn 0.2209 -0.2992 0.9282
vn 0.2894 -0.1784 0.9404
vn -0.0763 -0.1908 0.9787
vn 0.1076 0.1573 0.9817
vn -0.0172 0.2972 0.9547
vn -0.0047 0.3412 0.9400
vn 0.1231 0.1668 0.9783
vn 0.5264 -0.2780 0.8035
vn 0.5086 -0.4591 0.7284
vn 0.5086 -0.4591 -0.7284
vn 0.5264 -0.2780 -0.8035
vn 0.3771 0.4469 -0.8112
vn 0.0965 0.7408 -0.6648
vn 0.3497 -0.2703 -0.8970
vn 0.2894 -0.1784 -0.9404
vn 0.2209 -0.2992 -0.9282
vn 0.4968 0.0595 -0.8658
vn 0.4925 0.2345 -0.8381
vn 0.1440 0.0140 0.9895
vn 0.2061 -0.0501 0.9772
vn 0.2208 -0.0535 0.9738
vn 0.0963 0.0248 0.9950
vn 0.4925 0.2345 0.8381
vn 0.4968 0.0595 0.8658
vn 0.2009 -0.3343 -0.9208
vn 0.2208 -0.0535 -0.9738
vn 0.2061 -0.0501 -0.9772
vn 0.1440 0.0140 -0.9895
vn 0.0530 -0.2326 -0.9711
vn 0.1974 -0.2890 -0.9368
vn 0.2566 -0.2302 -0.9387
vn 0.2247 -0.2645 -0.9378
vn 0.6237 -0.4659 -0.6276
vn 0.4767 -0.3924 -0.7866
vn 0.4767 -0.3924 0.7866
vn 0.6237 -0.4659 0.6276
vn 0.2247 -0.2645 0.9378
vn 0.2566 -0.2302 0.9387
vn 0.1974 -0.2890 0.9368
vn 0.0530 -0.2326 0.9711
vn -0.1231 0.1668 -0.9783
vn -0.1007 0.1604 -0.9819
vn 0.0172 0.2972 -0.9547
vn 0.0047 0.3412 -0.9400
vn -0.3743 0.4263 0.8236
vn -0.1401 0.6443 0.7518
vn -0.1214 -0.3146 0.9414
vn -0.5154 -0.5690 0.6408
vn 0.4277 0.7481 0.5074
vn 0.3107 0.8733 0.3753
vn 0.4274 0.7246 -0.5407
vn 0.3233 0.7988 -0.5073
vn -0.2199 -0.2692 -0.9377
vn -0.4383 -0.3873 -0.8111
vn -0.2679 -0.2799 0.9219
vn -0.0949 -0.1393 0.9857
vn -0.2171 -0.2670 0.9389
vn -0.1076 0.1573 0.9817
vn -0.1296 0.2994 0.9453
vn 0.0116 0.5014 0.8651
vn 0.0255 0.3276 0.9445
vn -0.4795 -0.4531 0.7515
vn -0.5186 -0.2797 0.8079
vn -0.5086 -0.4591 -0.7284
vn -0.5264 -0.2780 -0.8035
vn -0.3771 0.4469 -0.8112
vn -0.0965 0.7408 -0.6648
vn -0.2209 -0.2992 -0.9282
vn -0.2894 -0.1784 -0.9404
vn -0.3604 -0.2868 -0.8876
vn -0.4968 0.0595 -0.8658
vn -0.4358 0.2409 -0.8672
vn -0.2011 0.2721 0.9410
vn -0.0968 0.0244 0.9950
vn -0.2181 -0.0644 0.9738
vn -0.2061 -0.0501 0.9772
vn -0.4929 0.0552 0.8683
vn -0.4925 0.2345 0.8381
vn -0.1440 0.0140 -0.9895
vn -0.1438 0.0148 -0.9895
vn -0.2208 -0.0535 -0.9738
vn -0.0530 -0.2326 -0.9711
vn -0.2247 -0.2645 -0.9378
vn -0.2566 -0.2302 -0.9387
vn -0.0412 -0.1718 -0.9843
vn -0.7173 -0.5373 -0.4436
vn -0.4767 -0.3924 -0.7866
vn -0.6237 -0.4659 0.6276
vn -0.6255 -0.4481 0.6388
vn -0.1355 -0.2600 0.9560
vn -0.0789 -0.2246 0.9712
vn -0.1974 -0.2890 0.9368
vn -0.2106 -0.2314 0.9498
vn -1.0000 -0.0000 -0.0000
vn 0.7289 0.5588 0.3957
vn 0.2303 -0.1086 0.9670
vn 0.1021 -0.1492 0.9835
vn -0.0416 0.3868 0.9212
vn -0.1720 0.0198 -0.9849
vn -0.7449 0.5444 -0.3855
vn 0.7413 0.5477 -0.3879
vn -0.2009 -0.3345 0.9207
vn 0.3482 -0.2705 0.8975
vn -0.3522 -0.2757 0.8944
vn -0.2009 -0.3343 -0.9208
vn -0.0918 -0.1396 -0.9859
vn 0.1722 0.0196 -0.9849
vn -0.0760 -0.1909 -0.9787
vt 0.544952 0.456310
vt 0.544757 0.456242
vt 0.544741 0.455985
vt 0.545098 0.456507
vt 0.568047 0.144969
vt 0.568631 0.144295
vt 0.568549 0.144937
vt 0.567885 0.144343
vt 0.545057 0.456019
vt 0.109342 0.286221
vt 0.108758 0.285548
vt 0.109504 0.285594
vt 0.544715 0.455806
vt 0.108663 0.285087
vt 0.109656 0.285150
vt 0.108801 0.284556
vt 0.109586 0.284605
vt 0.544373 0.455911
vt 0.543875 0.455936
vt 0.544266 0.455708
vt 0.544209 0.456281
vt 0.544454 0.456075
vt 0.544061 0.456129
vt 0.544675 0.455585
vt 0.544615 0.455292
vt 0.545117 0.455214
vt 0.109546 0.284112
vt 0.545119 0.455553
vt 0.568588 0.143304
vt 0.567803 0.143354
vt 0.567843 0.142861
vt 0.568485 0.142820
vt 0.567868 0.142546
vt 0.545093 0.454934
vt 0.546339 0.455818
vt 0.545642 0.455623
vt 0.545697 0.455195
vt 0.546166 0.456332
vt 0.545530 0.455947
vt 0.568726 0.143835
vt 0.456218 0.459857
vt 0.456288 0.459313
vt 0.457073 0.459263
vt 0.457116 0.460255
vt 0.456370 0.460301
vt 0.545399 0.456206
vt 0.545763 0.456630
vt 0.457211 0.459794
vt 0.542994 0.456860
vt 0.542586 0.456405
vt 0.543182 0.455959
vt 0.456971 0.458779
vt 0.543485 0.457204
vt 0.543471 0.456296
vt 0.891879 0.096356
vt 0.891236 0.096397
vt 0.891261 0.096082
vt 0.542984 0.455654
vt 0.891981 0.096840
vt 0.891196 0.096889
vt 0.544148 0.455430
vt 0.543684 0.455647
vt 0.543548 0.455396
vt 0.891814 0.096047
vt 0.108903 0.284072
vt 0.108968 0.283763
vt 0.109521 0.283798
vt 0.544057 0.455196
vt 0.544560 0.455047
vt 0.544481 0.454720
vt 0.545035 0.454569
vt 0.109531 0.283445
vt 0.568387 0.142160
vt 0.567857 0.142193
vt 0.567732 0.137054
vt 0.542335 0.447747
vt 0.568421 0.142511
vt 0.546418 0.454762
vt 0.545695 0.454844
vt 0.545641 0.454399
vt 0.546423 0.455237
vt 0.456328 0.458820
vt 0.456353 0.458505
vt 0.456906 0.458470
vt 0.542308 0.455976
vt 0.542066 0.455403
vt 0.542786 0.455236
vt 0.456872 0.458119
vt 0.891780 0.095696
vt 0.891251 0.095729
vt 0.891126 0.090590
vt 0.542110 0.447664
vt 0.543946 0.454879
vt 0.543397 0.455055
vt 0.542140 0.447690
vt 0.891256 0.090581
vt 0.109002 0.283412
vt 0.109526 0.278298
vt 0.109656 0.278306
vt 0.542199 0.447764
vt 0.542272 0.447776
vt 0.542365 0.447680
vt 0.542354 0.447591
vt 0.542066 0.447626
vt 0.456343 0.458153
vt 0.456218 0.453013
vt 0.456348 0.453005
vt 0.546329 0.454167
vt 0.567863 0.137046
vt 0.892119 0.097370
vt 0.891126 0.097433
vt 0.543781 0.456497
vt 0.891278 0.097878
vt 0.544030 0.456639
vt 0.891440 0.098505
vt 0.892024 0.097831
vt 0.544429 0.456751
vt 0.543987 0.457211
vt 0.544605 0.457011
vt 0.544448 0.456476
vt 0.891942 0.098473
vt 0.457034 0.460897
vt 0.456532 0.460928
vt 0.545133 0.456842
vt 0.544579 0.456305
vt 0.108840 0.286189
vt 0.567732 0.143898
vt 0.545092 0.455809
vt 0.962745 0.835097
vt 0.957770 0.837638
vt 0.957945 0.835593
vt 0.962500 0.838537
vt 0.956921 0.839239
vt 0.939908 0.826944
vt 0.940380 0.828533
vt 0.939262 0.827413
vt 0.942012 0.826245
vt 0.940758 0.828423
vt 0.959652 0.844310
vt 0.961490 0.841405
vt 0.957531 0.846685
vt 0.954851 0.840739
vt 0.944878 0.944265
vt 0.939007 0.941751
vt 0.941398 0.939702
vt 0.946151 0.942338
vt 0.944264 0.938021
vt 0.956275 0.959534
vt 0.958431 0.958280
vt 0.957744 0.960376
vt 0.956159 0.959904
vt 0.957277 0.961023
vt 0.956391 0.826579
vt 0.951010 0.829872
vt 0.951569 0.825692
vt 0.956835 0.831773
vt 0.954631 0.830859
vt 0.953075 0.943209
vt 0.958273 0.943922
vt 0.953868 0.945522
vt 0.954811 0.949234
vt 0.959028 0.948749
vt 0.947068 0.937215
vt 0.947655 0.941720
vt 0.950361 0.937206
vt 0.949547 0.941745
vt 0.951618 0.942025
vt 0.953763 0.938221
vt 0.956628 0.940245
vt 0.961931 0.831488
vt 0.960023 0.828418
vt 0.957874 0.833374
vt 0.955451 0.953875
vt 0.958979 0.954033
vt 0.956061 0.957692
vt 0.946268 0.825692
vt 0.942613 0.828616
vt 0.946408 0.829211
vt 0.946177 0.851230
vt 0.948884 0.846717
vt 0.949470 0.851222
vt 0.950387 0.846099
vt 0.952274 0.850416
vt 0.938794 0.828060
vt 0.940263 0.828903
vt 0.938108 0.830156
vt 0.955140 0.848735
vt 0.950867 0.830173
vt 0.946361 0.829439
vt 0.945178 0.944386
vt 0.951661 0.844172
vt 0.948887 0.846563
vt 0.950336 0.845931
vt 0.939617 0.949198
vt 0.936886 0.944127
vt 0.941687 0.947698
vt 0.943912 0.946521
vt 0.956707 0.831794
vt 0.957629 0.837653
vt 0.956631 0.961493
vt 0.955780 0.960014
vt 0.954526 0.962191
vt 0.953925 0.959821
vt 0.941727 0.839202
vt 0.942766 0.842768
vt 0.942670 0.842915
vt 0.940477 0.830744
vt 0.941313 0.834525
vt 0.941088 0.834562
vt 0.943987 0.946554
vt 0.941853 0.948002
vt 0.955225 0.953912
vt 0.944921 0.846412
vt 0.947018 0.846581
vt 0.946992 0.846691
vt 0.957844 0.835618
vt 0.957693 0.833430
vt 0.949521 0.941856
vt 0.947652 0.941873
vt 0.938265 0.844514
vt 0.937510 0.839688
vt 0.950131 0.959225
vt 0.945672 0.958263
vt 0.950177 0.958998
vt 0.939837 0.949325
vt 0.943464 0.845228
vt 0.939910 0.848192
vt 0.954510 0.949366
vt 0.945528 0.958565
vt 0.940147 0.961858
vt 0.941907 0.957577
vt 0.939704 0.956663
vt 0.943512 0.845097
vt 0.945000 0.846226
vt 0.954685 0.840435
vt 0.956701 0.839112
vt 0.933793 0.953339
vt 0.938768 0.950799
vt 0.938593 0.952844
vt 0.934038 0.949899
vt 0.938909 0.950783
vt 0.946203 0.942506
vt 0.953934 0.959632
vt 0.952551 0.841883
vt 0.952626 0.841915
vt 0.938695 0.952818
vt 0.934607 0.956949
vt 0.938664 0.955063
vt 0.953772 0.945668
vt 0.951360 0.844051
vt 0.940446 0.828600
vt 0.953027 0.943340
vt 0.951538 0.942211
vt 0.939832 0.956643
vt 0.942059 0.957518
vt 0.942775 0.850216
vt 0.956093 0.959837
vt 0.956157 0.959503
vt 0.940665 0.830730
vt 0.938845 0.955006
vt 0.942605 0.828805
vt 0.940786 0.828552
vt 0.954480 0.830918
vt 0.955752 0.959885
vt 0.955873 0.957707
vt 0.950271 0.962745
vt 0.944970 0.962745
vt 0.940381 0.828934
vt 0.937559 0.834404
vt 0.942028 0.839071
vt 0.951619 0.098402
vt 0.954234 0.101100
vt 0.950807 0.099233
vt 0.952974 0.097016
vt 0.954917 0.099561
vt 0.956047 0.098080
vt 0.958415 0.100505
vt 0.957969 0.102738
vt 0.296351 0.929291
vt 0.294614 0.925263
vt 0.296136 0.924964
vt 0.299819 0.928927
vt 0.298358 0.924464
vt 0.308424 0.906210
vt 0.307431 0.905634
vt 0.308524 0.903923
vt 0.307011 0.904763
vt 0.308405 0.903335
vt 0.289441 0.922763
vt 0.293655 0.922656
vt 0.291105 0.925986
vt 0.293495 0.928586
vt 0.958677 0.098976
vt 0.959316 0.095450
vt 0.961972 0.097778
vt 0.956054 0.093863
vt 0.938486 0.111842
vt 0.937682 0.113373
vt 0.937092 0.113268
vt 0.939366 0.112241
vt 0.939965 0.113220
vt 0.306262 0.915496
vt 0.301166 0.916849
vt 0.303523 0.913560
vt 0.304166 0.919714
vt 0.299399 0.918549
vt 0.299033 0.917441
vt 0.299977 0.914380
vt 0.300138 0.911804
vt 0.296630 0.920771
vt 0.295108 0.921491
vt 0.292519 0.919610
vt 0.293872 0.918224
vt 0.294683 0.917393
vt 0.307811 0.921553
vt 0.302762 0.922407
vt 0.308524 0.916335
vt 0.953363 0.108657
vt 0.950088 0.113089
vt 0.949198 0.110847
vt 0.956020 0.107191
vt 0.955286 0.112256
vt 0.962464 0.104092
vt 0.962745 0.100616
vt 0.945369 0.104798
vt 0.950435 0.105731
vt 0.947201 0.108152
vt 0.947994 0.102109
vt 0.950957 0.103580
vt 0.947855 0.104554
vt 0.952086 0.103926
vt 0.957654 0.105366
vt 0.959543 0.110978
vt 0.961773 0.107924
vt 0.297626 0.919367
vt 0.300978 0.924086
vt 0.295442 0.916616
vt 0.303634 0.928144
vt 0.306634 0.925841
vt 0.951089 0.101997
vt 0.950047 0.100011
vt 0.952854 0.102132
vt 0.941388 0.108873
vt 0.943016 0.110144
vt 0.944287 0.111394
vt 0.940856 0.112146
vt 0.944464 0.113104
vt 0.308412 0.910712
vt 0.306698 0.910574
vt 0.307371 0.907126
vt 0.305418 0.909333
vt 0.304110 0.907734
vt 0.948862 0.095851
vt 0.949360 0.091658
vt 0.950384 0.095132
vt 0.951839 0.093968
vt 0.283026 0.912537
vt 0.287078 0.916123
vt 0.282747 0.916014
vt 0.286816 0.917652
vt 0.283521 0.918851
vt 0.307815 0.903230
vt 0.306130 0.904364
vt 0.305530 0.903385
vt 0.286178 0.921178
vt 0.289446 0.918548
vt 0.950882 0.091360
vt 0.954392 0.090640
vt 0.936973 0.112681
vt 0.938067 0.110971
vt 0.937075 0.110395
vt 0.938127 0.109479
vt 0.296297 0.905769
vt 0.295067 0.910896
vt 0.292131 0.907967
vt 0.298299 0.908461
vt 0.294531 0.913045
vt 0.293411 0.912704
vt 0.289473 0.909435
vt 0.291258 0.915527
vt 0.287523 0.913889
vt 0.290575 0.917066
vt 0.295404 0.903527
vt 0.290204 0.904366
vt 0.285945 0.905648
vt 0.936973 0.100273
vt 0.941328 0.096896
vt 0.939234 0.101111
vt 0.937686 0.095058
vt 0.942732 0.094207
vt 0.945680 0.087693
vt 0.947138 0.092155
vt 0.949149 0.087332
vt 0.941975 0.103045
vt 0.944321 0.099756
vt 0.946087 0.098064
vt 0.946458 0.099183
vt 0.948655 0.101433
vt 0.938865 0.090773
vt 0.944518 0.092531
vt 0.292638 0.914497
vt 0.287837 0.911261
vt 0.283716 0.908703
vt 0.948038 0.099015
vt 0.947863 0.097254
vt 0.940080 0.107274
vt 0.938801 0.106032
vt 0.937087 0.105895
vt 0.304639 0.904459
vt 0.301029 0.903504
vt 0.302480 0.906464
vt 0.301208 0.905215
vt 0.296834 0.915195
vt 0.296041 0.916003
vt 0.294401 0.914632
vt 0.297589 0.912036
vt 0.297448 0.917609
vt 0.299722 0.912230
vt 0.949448 0.100624
vt 0.945549 0.102297
vt 0.297494 0.914519
vt 0.945777 0.104380
vt 0.935049 0.947032
vt 0.936516 0.960019
vt 0.952003 0.088038
vt 0.941866 0.088473
vt 0.296524 0.915509
vt 0.948964 0.101118
s 0
usemtl Enemy
f 1/1/1 2/2/1 6/3/1
f 2/2/2 1/1/2 3/4/2
f 1/5/3 5/6/3 3/7/3
f 1/5/3 4/8/3 5/6/3
f 1/1/1 6/3/1 4/9/1
f 2/10/4 8/11/4 6/12/4
f 4/9/5 6/3/5 7/13/5
f 6/12/6 9/14/6 7/15/6
f 6/12/6 8/11/6 9/14/6
f 9/14/7 10/16/7 14/17/7
f 9/18/8 13/19/8 10/20/8
f 12/21/9 9/18/9 8/22/9
f 9/18/8 11/23/8 13/19/8
f 12/21/9 11/23/9 9/18/9
f 9/14/7 14/17/7 7/15/7
f 14/24/10 15/25/10 17/26/10
f 10/16/11 15/27/11 14/17/11
f 7/13/12 14/24/12 16/28/12
f 14/24/10 17/26/10 16/28/10
f 20/29/13 16/30/13 17/31/13
f 19/32/14 17/31/14 18/33/14
f 15/25/15 18/34/15 17/26/15
f 20/29/13 17/31/13 19/32/13
f 22/35/16 20/36/16 19/37/16
f 23/38/17 21/39/17 20/36/17
f 21/40/18 16/30/18 20/29/18
f 23/38/17 20/36/17 22/35/17
f 23/41/19 22/42/19 27/43/19
f 26/44/20 24/45/20 23/41/20
f 5/46/21 23/38/21 24/47/21
f 5/46/21 21/39/21 23/38/21
f 23/41/19 27/43/19 25/48/19
f 26/44/20 23/41/20 25/48/20
f 27/49/22 28/50/22 30/51/22
f 22/42/23 28/52/23 27/43/23
f 25/53/24 27/49/24 29/54/24
f 27/49/22 30/51/22 29/54/22
f 32/55/25 30/56/25 31/57/25
f 28/50/26 31/58/26 30/51/26
f 13/59/27 29/60/27 30/56/27
f 13/59/27 30/56/27 32/55/27
f 34/61/28 32/62/28 33/63/28
f 32/55/25 31/57/25 33/64/25
f 10/20/29 13/19/29 32/62/29
f 10/20/29 32/62/29 34/61/29
f 34/65/30 35/66/30 36/67/30
f 34/61/28 33/63/28 35/68/28
f 10/16/11 34/65/11 15/27/11
f 34/65/30 36/67/30 15/27/30
f 36/69/31 37/70/31 38/71/31
f 35/66/32 37/72/32 36/67/32
f 15/25/15 36/69/15 18/34/15
f 36/69/31 38/71/31 18/34/31
f 40/73/33 38/74/33 39/75/33
f 37/70/34 39/76/34 38/71/34
f 41/77/35 18/33/35 38/74/35
f 41/77/35 38/74/35 40/73/35
f 42/78/36 41/79/36 40/80/36
f 43/81/37 19/37/37 41/79/37
f 19/32/14 18/33/14 41/77/14
f 43/81/37 41/79/37 42/78/37
f 43/82/38 42/83/38 44/84/38
f 22/42/23 43/82/23 28/52/23
f 22/35/16 19/37/16 43/81/16
f 43/82/38 44/84/38 28/52/38
f 44/85/39 45/86/39 46/87/39
f 42/83/40 45/88/40 44/84/40
f 28/50/26 44/85/26 31/58/26
f 44/85/39 46/87/39 31/58/39
f 48/89/41 46/90/41 47/91/41
f 45/86/42 47/92/42 46/87/42
f 33/64/43 31/57/43 46/90/43
f 33/64/43 46/90/43 48/89/43
f 50/93/44 48/94/44 49/95/44
f 48/89/41 47/91/41 49/96/41
f 35/68/45 33/63/45 48/94/45
f 35/68/45 48/94/45 50/93/45
f 50/97/46 51/98/46 52/99/46
f 50/93/44 49/95/44 51/100/44
f 35/66/32 50/97/32 37/72/32
f 50/97/46 52/99/46 37/72/46
f 39/76/47 52/101/47 53/102/47
f 37/70/34 52/101/34 39/76/34
f 52/101/47 51/100/47 54/103/47
f 54/103/47 53/102/47 52/101/47
f 54/103/47 49/95/47 55/104/47
f 56/105/48 54/106/48 55/107/48
f 56/108/49 53/102/49 54/103/49
f 51/100/47 49/95/47 54/103/47
f 42/83/40 56/105/40 45/88/40
f 42/78/36 40/80/36 56/108/36
f 56/108/49 40/80/49 53/102/49
f 56/105/48 55/107/48 45/88/48
f 49/95/47 47/92/47 55/104/47
f 45/86/42 55/104/42 47/92/42
f 40/73/33 39/75/33 53/109/33
f 11/110/50 57/111/50 29/60/50
f 25/53/24 29/54/24 57/112/24
f 11/110/50 29/60/50 13/59/50
f 58/113/51 57/111/51 11/110/51
f 58/114/52 25/53/52 57/112/52
f 59/115/53 58/113/53 12/116/53
f 59/117/54 26/118/54 58/114/54
f 58/114/52 26/118/52 25/53/52
f 58/113/51 11/110/51 12/116/51
f 61/119/2 59/117/2 60/120/2
f 59/115/53 12/116/53 60/121/53
f 59/117/54 61/119/54 26/118/54
f 61/122/55 24/45/55 26/44/55
f 61/122/55 62/123/55 24/45/55
f 62/124/2 61/119/2 63/125/2
f 60/120/2 63/125/2 61/119/2
f 2/10/4 63/126/4 8/11/4
f 2/2/2 62/124/2 63/125/2
f 60/120/56 8/22/56 63/125/56
f 3/4/57 24/47/57 62/124/57
f 3/4/2 62/124/2 2/2/2
f 60/120/56 12/21/56 8/22/56
f 3/4/57 5/46/57 24/47/57
f 4/8/58 21/40/58 5/6/58
f 21/40/18 64/127/18 16/30/18
f 4/8/58 64/127/58 21/40/58
f 4/9/5 7/13/5 64/128/5
f 7/13/12 16/28/12 64/128/12
f 70/129/59 113/130/59 93/131/59
f 91/132/60 78/133/60 113/130/60
f 86/134/61 84/135/61 68/136/61
f 65/137/62 114/138/62 86/134/62
f 83/139/63 78/133/63 66/140/63
f 67/141/64 115/142/64 83/139/64
f 116/143/65 67/144/65 83/145/65
f 80/146/66 83/145/66 66/147/66
f 117/148/67 65/149/67 86/150/67
f 85/151/68 86/150/68 68/152/68
f 94/153/69 96/154/69 71/155/69
f 94/153/70 87/156/70 118/157/70
f 88/158/71 94/159/71 119/160/71
f 95/161/72 94/159/72 71/162/72
f 80/146/73 91/163/73 120/164/73
f 120/164/74 70/165/74 92/166/74
f 121/167/75 70/165/75 90/168/75
f 88/158/76 90/168/76 69/169/76
f 90/170/77 87/156/77 69/171/77
f 70/129/78 122/172/78 90/170/78
f 123/173/79 71/162/79 89/174/79
f 77/175/80 89/174/80 65/149/80
f 89/176/81 79/177/81 65/137/81
f 71/155/82 124/178/82 89/176/82
f 75/179/83 125/180/83 107/181/83
f 107/181/84 98/182/84 73/183/84
f 84/135/85 102/184/85 68/136/85
f 126/185/86 72/186/86 102/184/86
f 98/182/87 101/187/87 73/183/87
f 124/178/88 195/188/88 253/189/88
f 80/146/89 239/190/89 116/143/89
f 127/191/90 67/141/90 101/187/90
f 98/182/91 256/192/91 203/193/91
f 100/194/92 101/195/92 128/196/92
f 128/196/93 67/144/93 82/197/93
f 122/172/94 173/198/94 87/156/94
f 78/133/95 236/199/95 113/130/95
f 85/151/96 102/200/96 129/201/96
f 129/201/97 72/202/97 97/203/97
f 112/204/98 263/205/98 130/206/98
f 99/207/99 273/208/99 136/209/99
f 128/196/100 164/210/100 259/211/100
f 77/175/101 252/212/101 123/173/101
f 134/213/102 227/214/102 109/215/102
f 116/143/103 164/210/103 82/197/103
f 125/180/104 227/214/104 256/192/104
f 122/172/105 187/216/105 249/217/105
f 120/164/106 185/218/106 245/219/106
f 112/204/107 110/220/107 76/221/107
f 135/222/108 232/223/108 272/224/108
f 100/194/109 259/211/109 214/225/109
f 110/220/110 103/226/110 74/227/110
f 123/173/111 194/228/111 95/161/111
f 111/229/112 110/230/112 131/231/112
f 110/230/113 104/232/113 131/231/113
f 134/213/114 220/233/114 269/234/114
f 78/133/115 238/235/115 144/236/115
f 75/237/116 132/238/116 108/239/116
f 107/240/117 100/194/117 132/238/117
f 100/194/118 265/241/118 132/238/118
f 80/146/119 245/219/119 157/242/119
f 97/203/120 272/224/120 202/243/120
f 127/191/121 163/244/121 81/245/121
f 115/142/122 163/244/122 238/235/122
f 132/238/123 225/246/123 108/239/123
f 104/232/124 106/247/124 133/248/124
f 133/248/125 75/237/125 108/239/125
f 95/161/126 244/249/126 119/160/126
f 98/182/127 258/250/127 127/191/127
f 114/138/128 165/251/128 84/135/128
f 121/167/129 174/252/129 247/253/129
f 131/231/130 221/254/130 264/255/130
f 103/226/131 106/256/131 74/227/131
f 119/160/132 174/252/132 88/158/132
f 117/148/133 166/257/133 240/258/133
f 134/213/134 75/179/134 106/256/134
f 126/185/135 213/259/135 99/207/135
f 133/248/136 225/246/136 267/260/136
f 114/138/137 156/261/137 237/262/137
f 121/167/138 185/218/138 92/166/138
f 111/229/139 264/255/139 232/223/139
f 96/154/140 243/263/140 195/188/140
f 129/201/141 202/243/141 260/264/141
f 79/177/142 253/189/142 156/261/142
f 117/148/143 143/265/143 77/175/143
f 97/203/144 105/266/144 135/222/144
f 135/222/145 76/267/145 111/229/145
f 126/185/146 165/251/146 257/268/146
f 99/207/147 105/269/147 72/186/147
f 133/248/148 221/254/148 104/232/148
f 113/130/149 187/216/149 93/131/149
f 136/209/150 76/221/150 105/269/150
f 130/206/151 220/233/151 103/226/151
f 136/209/152 233/270/152 112/204/152
f 118/157/153 173/198/153 243/263/153
f 129/201/154 166/257/154 85/151/154
f 184/271/155 188/272/155 179/273/155
f 137/274/156 235/275/156 184/271/156
f 138/276/157 181/277/157 235/275/157
f 188/272/158 181/277/158 153/278/158
f 236/279/159 145/280/159 182/281/159
f 187/282/160 182/281/160 158/283/160
f 156/284/161 150/285/161 237/286/161
f 237/286/162 149/287/162 165/288/162
f 163/289/163 161/290/163 238/291/163
f 238/291/164 145/280/164 144/292/164
f 139/293/165 239/294/165 157/295/165
f 138/276/166 164/296/166 239/294/166
f 152/297/167 240/298/167 166/299/167
f 151/300/168 143/301/168 240/298/168
f 146/302/169 241/303/169 196/304/169
f 190/305/170 167/306/170 241/303/170
f 241/303/171 283/307/171 281/308/171
f 196/304/172 241/303/172 169/309/172
f 182/281/173 186/310/173 158/283/173
f 182/281/174 161/290/174 242/311/174
f 242/311/175 162/312/175 183/313/175
f 186/310/176 183/313/176 171/314/176
f 243/315/177 160/316/177 190/305/177
f 195/317/178 190/305/178 146/302/178
f 189/318/179 194/319/179 140/320/179
f 155/321/180 244/322/180 189/318/180
f 181/277/181 185/323/181 153/278/181
f 139/293/182 245/324/182 181/277/182
f 177/325/183 246/326/183 193/327/183
f 192/328/184 290/329/184 292/330/184
f 176/331/185 189/318/185 246/326/185
f 246/326/186 140/320/186 193/327/186
f 154/332/187 174/333/187 155/321/187
f 154/332/188 185/323/188 247/334/188
f 160/316/189 248/335/189 167/306/189
f 158/283/190 248/335/190 159/336/190
f 248/335/191 171/314/191 172/337/191
f 248/335/192 283/307/192 167/306/192
f 187/282/193 159/336/193 249/338/193
f 173/339/194 159/336/194 160/316/194
f 286/340/195 180/341/195 250/342/195
f 179/273/196 250/342/196 180/341/196
f 250/342/197 153/278/197 154/332/197
f 250/342/198 155/321/198 176/331/198
f 178/343/199 151/300/199 152/297/199
f 178/343/200 193/327/200 251/344/200
f 193/327/201 141/345/201 251/344/201
f 251/344/202 142/346/202 151/300/202
f 142/346/203 252/347/203 143/301/203
f 140/320/204 252/347/204 141/345/204
f 253/348/205 146/302/205 147/349/205
f 253/348/206 148/350/206 156/284/206
f 148/350/207 254/351/207 150/285/207
f 147/349/208 196/304/208 254/351/208
f 196/304/209 170/352/209 254/351/209
f 150/285/210 170/352/210 149/287/210
f 228/353/211 184/271/211 179/273/211
f 228/353/212 223/354/212 255/355/212
f 223/354/213 197/356/213 255/355/213
f 255/355/214 137/274/214 184/271/214
f 227/357/215 224/358/215 256/359/215
f 256/359/216 204/360/216 203/361/216
f 149/287/217 257/362/217 165/288/217
f 208/363/218 213/364/218 257/362/218
f 204/360/219 258/365/219 203/361/219
f 218/366/220 163/289/220 258/365/220
f 198/367/221 259/368/221 197/356/221
f 197/356/222 164/296/222 137/274/222
f 152/297/223 260/369/223 209/370/223
f 209/370/224 202/371/224 201/372/224
f 205/373/225 261/374/225 230/375/225
f 234/376/226 169/309/226 261/374/226
f 261/374/227 282/377/227 219/378/227
f 230/375/228 219/378/228 217/379/228
f 226/380/229 224/358/229 215/381/229
f 226/380/230 183/313/230 262/382/230
f 262/382/231 162/312/231 218/366/231
f 224/358/232 218/366/232 204/360/232
f 233/383/233 230/375/233 263/384/233
f 263/384/234 217/379/234 220/385/234
f 232/386/235 229/387/235 199/388/235
f 264/389/236 212/390/236 229/387/236
f 225/391/237 223/354/237 210/392/237
f 265/393/238 198/367/238 223/354/238
f 177/325/239 231/394/239 266/395/239
f 199/388/240 266/395/240 231/394/240
f 229/387/241 222/396/241 266/395/241
f 192/328/242 291/397/242 175/398/242
f 221/399/243 211/400/243 212/390/243
f 211/400/244 225/391/244 210/392/244
f 217/379/245 268/401/245 216/402/245
f 282/377/246 268/401/246 219/378/246
f 268/401/247 171/314/247 226/380/247
f 268/401/248 215/381/248 216/402/248
f 220/385/249 216/402/249 269/403/249
f 216/402/250 227/357/250 269/403/250
f 175/398/251 291/397/251 287/404/251
f 212/390/252 270/405/252 222/396/252
f 270/405/253 210/392/253 228/353/253
f 270/405/254 179/273/254 180/341/254
f 209/370/255 178/343/255 152/297/255
f 201/372/256 271/406/256 209/370/256
f 200/407/257 231/394/257 271/406/257
f 178/343/258 231/394/258 177/325/258
f 201/372/259 272/408/259 200/407/259
f 272/408/260 199/388/260 200/407/260
f 207/409/261 273/410/261 213/364/261
f 273/410/262 205/373/262 233/383/262
f 207/409/263 274/411/263 206/412/263
f 208/363/264 170/352/264 274/411/264
f 170/352/265 234/376/265 274/411/265
f 206/412/266 234/376/266 205/373/266
f 168/413/267 278/414/267 276/415/267
f 169/309/268 280/416/268 261/374/268
f 277/417/269 172/337/269 278/414/269
f 169/309/270 281/308/270 279/418/270
f 250/342/271 290/329/271 286/340/271
f 288/419/272 175/398/272 287/404/272
f 177/325/273 292/330/273 246/326/273
f 289/420/274 177/325/274 266/395/274
f 276/415/275 172/337/275 268/401/275
f 283/307/276 191/421/276 281/308/276
f 280/416/277 279/418/277 191/421/277
f 282/377/278 191/421/278 168/413/278
f 276/415/279 282/377/279 168/413/279
f 283/307/280 277/417/280 168/413/280
f 279/418/281 281/308/281 191/421/281
f 180/341/282 287/404/282 270/405/282
f 175/398/283 288/419/283 286/340/283
f 286/340/284 290/329/284 175/398/284
f 291/397/285 266/395/285 222/396/285
f 291/397/286 270/405/286 287/404/286
f 292/330/287 285/422/287 192/328/287
f 285/422/288 289/420/288 192/328/288
f 290/329/289 246/326/289 292/330/289
f 70/129/290 91/132/290 113/130/290
f 91/132/291 66/140/291 78/133/291
f 86/134/292 114/138/292 84/135/292
f 65/137/293 79/177/293 114/138/293
f 83/139/294 115/142/294 78/133/294
f 67/141/295 81/245/295 115/142/295
f 116/143/296 82/197/296 67/144/296
f 80/146/297 116/143/297 83/145/297
f 117/148/298 77/175/298 65/149/298
f 85/151/299 117/148/299 86/150/299
f 94/153/300 118/157/300 96/154/300
f 94/153/301 69/171/301 87/156/301
f 88/158/302 69/169/302 94/159/302
f 95/161/303 119/160/303 94/159/303
f 80/146/304 66/147/304 91/163/304
f 120/164/305 91/163/305 70/165/305
f 121/167/306 92/166/306 70/165/306
f 88/158/307 121/167/307 90/168/307
f 90/170/308 122/172/308 87/156/308
f 70/129/309 93/131/309 122/172/309
f 123/173/310 95/161/310 71/162/310
f 77/175/311 123/173/311 89/174/311
f 89/176/312 124/178/312 79/177/312
f 71/155/313 96/154/313 124/178/313
f 75/179/314 109/215/314 125/180/314
f 107/181/315 125/180/315 98/182/315
f 84/135/316 126/185/316 102/184/316
f 126/185/317 99/207/317 72/186/317
f 98/182/318 127/191/318 101/187/318
f 124/178/319 96/154/319 195/188/319
f 80/146/320 157/242/320 239/190/320
f 127/191/321 81/245/321 67/141/321
f 98/182/322 125/180/322 256/192/322
f 100/194/323 73/423/323 101/195/323
f 128/196/324 101/195/324 67/144/324
f 122/172/325 249/217/325 173/198/325
f 78/133/326 144/236/326 236/199/326
f 85/151/327 68/152/327 102/200/327
f 129/201/328 102/200/328 72/202/328
f 112/204/329 233/270/329 263/205/329
f 99/207/330 213/259/330 273/208/330
f 128/196/331 82/197/331 164/210/331
f 77/175/332 143/265/332 252/212/332
f 134/213/333 269/234/333 227/214/333
f 116/143/334 239/190/334 164/210/334
f 125/180/335 109/215/335 227/214/335
f 122/172/336 93/131/336 187/216/336
f 120/164/337 92/166/337 185/218/337
f 112/204/338 130/206/338 110/220/338
f 135/222/339 111/229/339 232/223/339
f 100/194/340 128/196/340 259/211/340
f 110/220/341 130/206/341 103/226/341
f 123/173/342 252/212/342 194/228/342
f 111/229/343 76/267/343 110/230/343
f 110/230/344 74/424/344 104/232/344
f 134/213/345 103/226/345 220/233/345
f 78/133/346 115/142/346 238/235/346
f 75/237/347 107/240/347 132/238/347
f 107/240/348 73/423/348 100/194/348
f 100/194/349 214/225/349 265/241/349
f 80/146/350 120/164/350 245/219/350
f 97/203/351 135/222/351 272/224/351
f 127/191/352 258/250/352 163/244/352
f 115/142/353 81/245/353 163/244/353
f 132/238/354 265/241/354 225/246/354
f 104/232/355 74/424/355 106/247/355
f 133/248/356 106/247/356 75/237/356
f 95/161/357 194/228/357 244/249/357
f 98/182/358 203/193/358 258/250/358
f 114/138/359 237/262/359 165/251/359
f 121/167/360 88/158/360 174/252/360
f 131/231/361 104/232/361 221/254/361
f 103/226/362 134/213/362 106/256/362
f 119/160/363 244/249/363 174/252/363
f 117/148/364 85/151/364 166/257/364
f 134/213/365 109/215/365 75/179/365
f 126/185/366 257/268/366 213/259/366
f 133/248/367 108/239/367 225/246/367
f 114/138/368 79/177/368 156/261/368
f 121/167/369 247/253/369 185/218/369
f 111/229/370 131/231/370 264/255/370
f 96/154/371 118/157/371 243/263/371
f 129/201/372 97/203/372 202/243/372
f 79/177/373 124/178/373 253/189/373
f 117/148/374 240/258/374 143/265/374
f 97/203/375 72/202/375 105/266/375
f 135/222/376 105/266/376 76/267/376
f 126/185/377 84/135/377 165/251/377
f 99/207/378 136/209/378 105/269/378
f 133/248/379 267/260/379 221/254/379
f 113/130/380 236/199/380 187/216/380
f 136/209/381 112/204/381 76/221/381
f 130/206/382 263/205/382 220/233/382
f 136/209/383 273/208/383 233/270/383
f 118/157/384 87/156/384 173/198/384
f 129/201/385 260/264/385 166/257/385
f 184/271/386 235/275/386 188/272/386
f 137/274/387 138/276/387 235/275/387
f 138/276/388 139/293/388 181/277/388
f 188/272/389 235/275/389 181/277/389
f 236/279/390 144/292/390 145/280/390
f 187/282/391 236/279/391 182/281/391
f 156/284/392 148/350/392 150/285/392
f 237/286/393 150/285/393 149/287/393
f 163/289/394 162/312/394 161/290/394
f 238/291/395 161/290/395 145/280/395
f 139/293/396 138/276/396 239/294/396
f 138/276/397 137/274/397 164/296/397
f 152/297/398 151/300/398 240/298/398
f 151/300/399 142/346/399 143/301/399
f 146/302/400 190/305/400 241/303/400
f 190/305/401 160/316/401 167/306/401
f 241/303/402 167/306/402 283/307/402
f 182/281/403 242/311/403 186/310/403
f 182/281/404 145/280/404 161/290/404
f 242/311/405 161/290/405 162/312/405
f 186/310/406 242/311/406 183/313/406
f 243/315/407 173/339/407 160/316/407
f 195/317/408 243/315/408 190/305/408
f 189/318/409 244/322/409 194/319/409
f 155/321/410 174/333/410 244/322/410
f 181/277/411 245/324/411 185/323/411
f 139/293/412 157/295/412 245/324/412
f 192/328/413 175/398/413 290/329/413
f 176/331/414 155/321/414 189/318/414
f 246/326/415 189/318/415 140/320/415
f 154/332/416 247/334/416 174/333/416
f 154/332/417 153/278/417 185/323/417
f 160/316/418 159/336/418 248/335/418
f 158/283/419 186/310/419 248/335/419
f 248/335/420 186/310/420 171/314/420
f 248/335/421 277/417/421 283/307/421
f 187/282/422 158/283/422 159/336/422
f 173/339/423 249/338/423 159/336/423
f 286/340/424 288/419/424 180/341/424
f 179/273/425 188/272/425 250/342/425
f 250/342/426 188/272/426 153/278/426
f 250/342/427 154/332/427 155/321/427
f 178/343/428 251/344/428 151/300/428
f 178/343/429 177/325/429 193/327/429
f 193/327/430 140/320/430 141/345/430
f 251/344/431 141/345/431 142/346/431
f 142/346/432 141/345/432 252/347/432
f 140/320/433 194/319/433 252/347/433
f 253/348/434 195/317/434 146/302/434
f 253/348/435 147/349/435 148/350/435
f 148/350/436 147/349/436 254/351/436
f 147/349/437 146/302/437 196/304/437
f 196/304/438 169/309/438 170/352/438
f 150/285/439 254/351/439 170/352/439
f 228/353/440 255/355/440 184/271/440
f 228/353/441 210/392/441 223/354/441
f 223/354/442 198/367/442 197/356/442
f 255/355/443 197/356/443 137/274/443
f 227/357/444 215/381/444 224/358/444
f 256/359/445 224/358/445 204/360/445
f 149/287/446 208/363/446 257/362/446
f 208/363/447 207/409/447 213/364/447
f 204/360/448 218/366/448 258/365/448
f 218/366/449 162/312/449 163/289/449
f 198/367/450 214/425/450 259/368/450
f 197/356/451 259/368/451 164/296/451
f 152/297/452 166/299/452 260/369/452
f 209/370/453 260/369/453 202/371/453
f 205/373/454 234/376/454 261/374/454
f 261/374/455 280/416/455 282/377/455
f 230/375/456 261/374/456 219/378/456
f 226/380/457 262/382/457 224/358/457
f 226/380/458 171/314/458 183/313/458
f 262/382/459 183/313/459 162/312/459
f 224/358/460 262/382/460 218/366/460
f 233/383/461 205/373/461 230/375/461
f 263/384/462 230/375/462 217/379/462
f 232/386/463 264/389/463 229/387/463
f 264/389/464 221/399/464 212/390/464
f 225/391/465 265/393/465 223/354/465
f 265/393/466 214/425/466 198/367/466
f 199/388/467 229/387/467 266/395/467
f 229/387/468 212/390/468 222/396/468
f 192/328/469 289/420/469 291/397/469
f 221/399/470 267/426/470 211/400/470
f 211/400/471 267/426/471 225/391/471
f 217/379/472 219/378/472 268/401/472
f 282/377/473 276/415/473 268/401/473
f 268/401/474 172/337/474 171/314/474
f 268/401/475 226/380/475 215/381/475
f 220/385/476 217/379/476 216/402/476
f 216/402/477 215/381/477 227/357/477
f 212/390/478 211/400/478 270/405/478
f 270/405/479 211/400/479 210/392/479
f 270/405/480 228/353/480 179/273/480
f 209/370/481 271/406/481 178/343/481
f 201/372/482 200/407/482 271/406/482
f 200/407/483 199/388/483 231/394/483
f 178/343/484 271/406/484 231/394/484
f 201/372/485 202/371/485 272/408/485
f 272/408/486 232/386/486 199/388/486
f 207/409/487 206/412/487 273/410/487
f 273/410/488 206/412/488 205/373/488
f 207/409/489 208/363/489 274/411/489
f 208/363/490 149/287/490 170/352/490
f 170/352/491 169/309/491 234/376/491
f 206/412/492 274/411/492 234/376/492
f 168/413/493 275/427/493 278/414/493
f 169/309/494 279/418/494 280/416/494
f 277/417/495 248/335/495 172/337/495
f 169/309/496 241/303/496 281/308/496
f 168/413/497 277/417/497 278/414/497
f 250/342/498 176/331/498 290/329/498
f 288/419/493 284/428/493 175/398/493
f 177/325/499 285/422/499 292/330/499
f 289/420/500 285/422/500 177/325/500
f 276/415/501 278/414/501 172/337/501
f 283/307/502 168/413/502 191/421/502
f 282/377/503 280/416/503 191/421/503
f 180/341/504 288/419/504 287/404/504
f 291/397/505 289/420/505 266/395/505
f 291/397/506 222/396/506 270/405/506
f 290/329/507 176/331/507 246/326/507
