# Blender 5.2.2 LTS
# www.blender.org
mtllib finalBoss.mtl
o 立方体
v -3.719650 10.313529 -1.920206
v 0.422328 -1.015655 0.454359
v 4.512799 10.369237 -1.920167
v 2.261316 4.585844 1.158961
v 1.928519 4.963632 0.850033
v 0.389054 10.103987 1.155161
v 0.390273 9.436542 0.863707
v -1.128912 4.944041 0.845484
v -1.459405 4.564189 1.154932
v 0.403326 5.146918 0.663170
v 0.253903 5.284282 1.123052
v 0.794527 5.284283 0.947390
v -0.080227 5.284285 0.663170
v 0.253903 5.284282 0.203287
v 0.794527 5.284283 0.378949
v 1.185730 5.583134 0.663170
v 0.645106 5.583132 -0.080938
v 1.068881 5.655352 0.179621
v 0.943956 6.066692 -0.080943
v 1.278084 6.066692 0.378948
v 1.036304 6.550251 0.203285
v 1.225996 6.478030 0.663170
v 1.278084 6.066692 0.947392
v 1.068881 5.655352 1.146718
v 0.943956 6.066692 1.407282
v 1.036304 6.550251 1.123054
v 0.552748 6.849102 1.123052
v 0.886878 6.849100 0.663169
v 0.657540 6.478034 1.445575
v 0.161546 6.550252 1.407277
v 0.403326 6.066692 1.582944
v -0.137304 6.066692 1.407282
v 0.149111 5.655351 1.445575
v 0.645106 5.583132 1.407277
v -0.229653 5.583134 1.123054
v -0.471433 6.066692 0.947392
v -0.419345 5.655355 0.663170
v -0.471433 6.066692 0.378948
v -0.229653 5.583134 0.203285
v 0.149111 5.655351 -0.119236
v -0.137304 6.066692 -0.080943
v -0.262230 6.478033 0.179621
v 0.403326 6.066692 -0.256604
v 0.161546 6.550252 -0.080938
v 0.657540 6.478034 -0.119236
v 0.552748 6.849102 0.203286
v 0.012125 6.849102 0.378948
v 0.012125 6.849102 0.947389
v -0.379078 6.550251 0.663170
v 0.403326 6.986466 0.663169
v -0.262230 6.478033 1.146718
v 1.887129 11.825466 -1.119347
v 1.185236 10.447834 -0.614207
v 0.403326 10.467261 -0.421500
v 0.403326 10.462298 -1.890803
v 1.185231 10.449278 -1.695934
v 1.185231 10.429531 -1.175021
v 1.185236 10.429688 -1.060682
v 0.403326 14.405900 -1.118249
v 0.403326 12.106750 -2.209369
v 0.946158 12.004503 -0.465157
v 0.403326 12.948363 -0.384820
v 0.403326 10.818460 -0.350789
v 0.869810 11.933174 -0.550531
v 0.403326 12.744282 -0.481494
v -0.139507 12.004503 -0.465156
v -0.063158 11.933174 -0.550531
v 0.403326 12.635592 -0.479757
v 0.807608 11.925270 -0.550405
v -0.000957 11.925270 -0.550405
v 0.403326 12.021683 -0.691651
v 0.554016 11.755638 -0.695144
v 0.403326 11.762343 -0.549250
v 0.252636 11.755638 -0.695144
v 0.403326 11.433419 -0.631451
v 0.403326 11.049314 -0.454412
v 0.403326 10.913946 -0.452249
v -1.080477 11.825466 -1.119347
v -0.378579 10.449278 -1.695934
v -0.378585 10.447834 -0.614207
v -0.378585 10.429688 -1.060682
v -0.378579 10.429531 -1.175021
v -0.470974 17.982281 -0.289703
v 0.403326 15.141237 -0.289703
v 0.403326 17.982281 -0.713057
v 0.403326 17.982281 0.133650
v 0.403326 20.823324 -0.289704
v 1.277625 17.982281 -0.289703
v -3.043842 13.682142 0.410147
v -3.525510 15.724817 0.410147
v -3.525510 13.682142 0.188917
v -3.525510 13.682142 0.631378
v -3.525510 11.639465 0.410147
v -4.007179 13.682142 0.410147
v 5.002025 11.263678 0.008462
v 5.682474 11.263678 -0.321024
v 5.682474 13.962498 0.008462
v 5.682474 11.263678 0.337948
v 5.682474 8.564858 0.008462
v 6.362921 11.263678 0.008462
v -4.418943 11.263678 0.008462
v -4.875823 11.263678 0.229692
v -4.875823 12.257730 0.008462
v -4.875823 11.263678 -0.212768
v -4.875823 10.269627 0.008462
v -5.332704 11.263678 0.008462
v -6.147652 10.718319 1.715156
v -6.612044 11.136086 1.936387
v -5.740794 13.487403 1.715156
v -6.612044 11.136086 1.493926
v -7.483295 8.784767 1.715157
v -7.076437 11.553852 1.715156
v -7.340799 9.654137 -0.230618
v -7.929722 9.654137 -0.009388
v -7.929722 12.374052 -0.230618
v -7.929722 9.654137 -0.451848
v -7.929722 6.934220 -0.230618
v -8.518642 9.654137 -0.230618
v -7.552841 6.409013 0.509008
v -7.994153 6.358850 0.602857
v -8.378406 6.967193 0.509007
v -7.994153 6.358850 0.415159
v -7.609901 5.750508 0.509008
v -8.435465 6.308688 0.509008
v -6.372745 13.003389 0.008462
v -6.768414 13.080112 0.229693
v -6.026096 13.511935 0.008462
v -6.768414 13.080112 -0.212768
v -7.510732 12.648289 0.008462
v -7.164083 13.156836 0.008462
v -4.477371 14.117117 -0.606213
v -4.749382 14.490456 -0.384982
v -4.239061 16.591713 -0.606213
v -4.749382 14.490456 -0.827443
v -5.259703 12.389198 -0.606213
v -5.021393 14.863792 -0.606213
v -2.334157 15.619066 1.141541
v -2.775470 15.679903 1.362771
v -2.391218 16.417698 1.141541
v -2.775470 15.679903 0.920310
v -3.159722 14.942108 1.141541
v -3.216782 15.740742 1.141541
v -6.166252 4.024025 1.374180
v -6.607564 3.952580 1.595410
v -6.991817 4.819024 1.374180
v -6.607564 3.952580 1.152950
v -6.223312 3.086137 1.374180
v -7.048877 3.881135 1.374180
v -5.160139 7.272791 -0.778592
v -5.617019 7.272791 -0.557361
v -5.617019 9.768151 -0.778592
v -5.617019 7.272791 -0.999822
v -5.617019 4.777431 -0.778591
v -6.073898 7.272791 -0.778592
v 7.023026 10.794294 -1.698232
v 7.418695 11.136086 -1.919462
v 6.676378 13.059788 -1.698232
v 7.418695 11.136086 -1.477002
v 8.161013 9.212383 -1.698232
v 7.814365 11.477876 -1.698232
v 8.279492 9.654137 0.247542
v 8.736374 9.654137 0.026312
v 8.736373 10.509933 0.247542
v 8.736373 9.654137 0.468773
v 8.736373 8.798340 0.247542
v 9.193254 9.654137 0.247542
v 8.102894 6.545855 -0.492081
v 8.800804 6.358850 -0.713312
v 9.408477 8.626710 -0.492082
v 8.800804 6.358850 -0.270851
v 8.193131 4.090991 -0.492081
v 9.498713 6.171847 -0.492081
v 7.179396 12.685177 0.008462
v 7.575066 13.080112 -0.212769
v 6.832747 15.302935 0.008462
v 7.575066 13.080112 0.229692
v 8.317383 10.857292 0.008462
v 7.970735 13.475048 0.008462
v 5.160364 14.379783 0.623137
v 5.556034 14.490456 0.401906
v 4.813716 15.113350 0.623137
v 5.556034 14.490456 0.844367
v 6.298351 13.867559 0.623137
v 5.951703 14.601126 0.623137
v 3.875282 13.682142 -0.393223
v 4.332161 13.682142 -0.614454
v 4.332161 16.108891 -0.393223
v 4.332161 13.682142 -0.171993
v 4.332161 11.255393 -0.393223
v 4.789042 13.682142 -0.393223
v 1.684289 15.483541 -1.124617
v 2.417122 15.679903 -1.393536
v 1.779043 18.061249 -1.124617
v 2.417122 15.679903 -0.855697
v 3.055202 13.298557 -1.124617
v 3.149955 15.876266 -1.124617
v 6.972903 4.149890 -1.357254
v 7.414216 3.952581 -1.578485
v 7.798469 6.345428 -1.357255
v 7.414216 3.952581 -1.136024
v 7.029963 1.559735 -1.357254
v 7.855529 3.755270 -1.357254
v 5.966790 7.272791 0.795516
v 6.423670 7.272791 0.574285
v 6.423669 9.923242 0.795516
v 6.423669 7.272791 1.016746
v 6.423669 4.622340 0.795517
v 6.880550 7.272791 0.795516
v -9.339139 -10.215575 10.959152
v -6.274525 -8.650908 10.836211
v -9.278992 -10.602168 7.538319
v -10.578928 -10.002492 10.300703
v -7.413335 -8.653201 10.417289
v -8.179665 -10.801671 8.132084
v -8.047974 -10.325290 11.539559
v -7.033396 -10.909213 8.656875
v -5.114227 -8.559361 11.179294
v -6.717850 -10.330581 12.036341
v -5.361596 -10.231395 12.444701
v -5.851238 -10.923755 9.107629
v -3.943600 -8.379447 11.443233
v -2.773935 -8.112891 11.625481
v -3.263577 -8.805253 8.288407
v -4.259143 -8.958077 8.063766
v -5.245915 -9.035745 7.771818
v -6.214376 -9.037501 7.415377
v -7.155213 -8.963334 6.997878
v -10.320807 -10.312627 6.881294
v -8.059357 -8.813956 6.523339
v -8.519683 -8.566216 9.926558
v -11.755396 -9.688090 9.570556
v -11.295068 -9.935833 6.167337
v -9.582917 -8.390796 9.368746
v -12.857209 -9.275403 8.775739
v -12.192394 -9.475414 5.403323
v -8.918102 -8.590809 5.996328
v -10.592795 -8.128627 8.749226
v -13.873756 -8.768399 7.923909
v -13.004142 -8.935808 4.596610
v -9.723179 -8.296036 5.421926
v -4.644568 -10.845164 9.480015
v -2.268793 -8.578740 8.443585
v -1.616483 -7.762264 11.724292
v -3.992257 -10.028689 12.760721
v -11.617235 -6.405442 6.803792
v -8.361575 -6.015711 7.854486
v -10.544477 -6.555685 3.535491
v -12.434803 -5.725321 5.863019
v -9.236174 -5.588434 7.129984
v -7.288817 -6.165953 4.586185
v -11.162518 -5.874003 2.667027
v -7.963889 -5.737114 3.933994
v -10.030150 -5.084382 6.363223
v -13.140568 -4.968064 4.891169
v -8.563877 -5.247122 3.252156
v -10.735858 -4.508411 5.561583
v -13.727733 -4.140962 3.897603
v -9.082999 -4.700696 2.547240
v -11.346501 -3.866072 4.732787
v -14.190647 -3.251979 2.891890
v -9.516260 -4.103097 1.826034
v -11.856200 -3.163546 3.884813
v -14.524851 -2.309680 1.883714
v -9.859488 -3.460082 1.095481
v -12.260045 -2.407602 3.025832
v -14.727121 -1.323137 0.882786
v -10.109372 -2.777843 0.362619
v -12.528135 -2.606215 -0.905618
v -12.576448 -1.693379 -1.780427
v -12.360407 -3.489005 -0.014862
v -12.074875 -4.333243 0.883261
v -11.674294 -5.130804 1.780102
v -15.424456 0.692046 -2.489755
v -13.133821 0.234612 -5.019364
v -10.892452 -1.069053 -2.753994
v -15.358313 1.738235 -3.447433
v -13.364613 0.228878 -1.080542
v -13.183087 -0.611619 -0.224386
v -10.949359 -0.328392 -3.470349
v -13.431813 1.099698 -1.922889
v -15.158270 2.799256 -4.369524
v -10.908485 0.430905 -4.168041
v -13.384044 1.992450 -2.743316
v -14.826252 3.864891 -5.247149
v -10.770226 1.201524 -4.840356
v -12.634943 2.130465 -6.614676
v -12.212437 3.073966 -7.344186
v -12.943060 1.180964 -5.837239
v -13.170980 4.924876 -4.548146
v -10.485132 4.002384 -6.495040
v -9.341434 1.976048 -3.957110
v -12.585850 5.969003 -5.311989
v -11.752051 3.809239 -2.763387
v -12.027283 2.898540 -2.010216
v -9.013323 2.747013 -4.559550
v -11.366524 4.715775 -3.471869
v -11.882015 6.987215 -6.007615
v -8.594572 3.506994 -5.118166
v -10.874413 5.609420 -4.128841
v -11.066258 7.969707 -6.628325
v -8.089218 4.248673 -5.627581
v -9.110063 5.778433 -7.653912
v -8.281062 6.608962 -8.127064
v -9.847118 4.906776 -7.108152
v -10.426393 10.886453 -7.168140
v -7.648061 9.369794 -8.523050
v -7.782086 6.944345 -6.082887
v -9.411356 11.769555 -7.621862
v -9.870337 9.303257 -5.263501
v -10.560419 8.461004 -4.727974
v -7.118909 7.628242 -6.479700
v -9.090775 10.107502 -5.730259
v -8.310884 12.589946 -7.985123
v -6.386034 8.273209 -6.814197
v -8.229242 10.865993 -6.123756
v -7.135578 13.339721 -8.254418
v -5.590520 8.873037 -7.083153
v -7.294033 11.571425 -6.440203
v -5.896752 14.011664 -8.427161
v -4.740026 9.421951 -7.283987
v -6.294156 12.217008 -6.676552
v -4.606339 14.599297 -8.501687
v -3.842745 9.914661 -7.414760
v -5.239240 12.796519 -6.830525
v -3.276766 15.096972 -8.477276
v -2.907318 10.346423 -7.474211
v -4.139445 13.304385 -6.900645
v -1.920839 15.499885 -8.354167
v -1.942753 10.713082 -7.461773
v -0.944844 12.646873 -9.120962
v 0.275853 12.908583 -8.915294
v -2.154929 12.296953 -9.239896
v -3.342746 11.862189 -9.270948
v -4.496857 11.346767 -9.213818
v -5.606143 10.755653 -9.069058
v -6.659928 10.094541 -8.838059
v 1.203235 13.099387 -8.133536
v 3.250258 10.374784 -8.624866
v 0.796510 8.306329 -7.377556
v 2.572566 13.302094 -7.817523
v -0.093068 11.381558 -6.787419
v -1.250514 11.030932 -6.886228
v 1.791288 8.532844 -7.222382
v 1.076601 11.648112 -6.605168
v 3.928825 13.401278 -7.409156
v 2.786858 8.685668 -6.997736
v 2.247226 11.828029 -6.341231
v 5.258947 13.395988 -6.912378
v 3.773628 8.763332 -6.705791
v 3.407529 11.919576 -5.998147
v 6.550118 13.286272 -6.331970
v 4.742094 8.765091 -6.349349
v 4.546340 11.921867 -5.579224
v 7.789907 13.073188 -5.673520
v 5.682929 8.690924 -5.931849
v 5.652687 11.834883 -5.088493
v 8.966372 12.758789 -4.943372
v 6.587071 8.541546 -5.457309
v 6.715921 11.659462 -4.530680
v 10.068187 12.346102 -4.148554
v 7.445818 8.318397 -4.930299
v 7.725800 11.397294 -3.911163
v 11.084736 11.839100 -3.296727
v 8.250894 8.023623 -4.355899
v 8.672595 11.050904 -3.235901
v 12.006227 11.242666 -2.396089
v 8.994549 7.660068 -3.739636
v 9.547194 10.623625 -2.511400
v 12.823797 10.562544 -1.455314
v 12.946224 7.170149 -2.031358
v 9.669622 7.231228 -3.087445
v 12.328183 7.851830 -2.899823
v 11.609830 8.465427 -3.741465
v 10.798083 9.005034 -4.548173
v 9.900757 9.465452 -5.312189
v 8.926496 9.842246 -6.026146
v 7.884682 10.131788 -6.683173
v 6.785348 10.331290 -7.276938
v 5.639081 10.438832 -7.801726
v 4.456920 10.453377 -8.252483
v 16.291201 13.342664 1.366660
v 13.102813 13.656952 0.105487
v 16.219639 9.964327 0.705690
v 16.878368 12.515560 2.360226
v 13.808519 13.080978 0.907127
v 13.031250 10.278613 -0.555483
v 16.620222 9.166765 1.602532
v 14.419161 12.438641 1.735921
v 13.983632 9.134588 0.870638
v 13.550370 9.732183 0.149433
v 16.905750 8.322526 2.500653
v 14.326859 8.491570 1.601193
v 17.073481 7.439735 3.391412
v 14.928859 11.736113 2.583897
v 17.341280 11.626580 3.365936
v 17.675482 10.684277 4.374116
v 12.501120 6.885702 3.524915
v 9.956070 8.168134 1.592750
v 11.745157 3.714864 2.416093
v 12.569513 5.864416 4.508961
v 10.250173 7.366048 2.454472
v 11.673589 2.780769 3.266533
v 9.354247 4.282403 1.212044
v 9.200109 4.997296 0.483929
v 15.206620 2.524786 7.005605
v 13.134947 4.232112 4.849595
v 14.186081 -0.459022 5.623375
v 15.006577 1.463767 7.927694
v 13.202148 3.361295 5.691940
v 13.877962 -1.408520 6.400810
v 12.073534 0.489009 4.165057
v 13.154377 2.468540 6.512370
v 11.935274 -0.281613 4.837373
v 13.455454 -2.352024 7.130323
v 11.700962 -1.056133 5.477832
v 12.922633 -3.280441 7.804882
v 11.372848 -1.827100 6.080276
v 12.992098 1.562455 7.302974
v 14.674560 0.398130 8.805321
v 14.213769 -0.661852 9.630023
v 12.716867 0.651753 8.056149
v 13.628636 -1.705981 10.393869
v 12.284617 -4.184834 8.417995
v 12.331342 -0.254784 8.764631
v 10.954101 -2.587080 6.638891
v 11.547564 -5.056490 8.963756
v 11.839229 -1.148432 9.421602
v 10.448744 -3.328764 7.148306
v 10.718561 -5.887021 9.436908
v 9.861651 -4.045002 7.603611
v 11.245272 -2.020582 10.020736
v 12.109045 -3.706688 11.710204
v 11.189218 -4.644000 12.250019
v 9.805599 -6.668417 9.832896
v 12.924804 -2.724193 11.089495
v 12.114408 1.248305 3.467365
v 8.611040 -7.154204 11.164770
v 8.992046 -4.489937 9.017289
v 7.254324 -9.020268 8.608932
v 7.510564 -7.974598 11.528030
v 8.212482 -5.294183 9.484048
v 7.635330 -6.355999 6.461452
v 6.200535 -9.681382 8.839931
v 6.902453 -7.000968 6.795949
v 7.350950 -6.052675 9.877546
v 6.335258 -8.724374 11.797329
v 5.091249 -10.272496 8.984694
v 6.106940 -7.600798 7.064909
v 6.415739 -6.758107 10.193992
v 5.096430 -9.396316 11.970072
v 3.937136 -10.787917 9.041821
v 5.256445 -8.149711 7.265741
v 5.415863 -7.403689 10.430341
v 3.806020 -9.983953 12.044597
v 2.749321 -11.222680 9.010770
v 4.359164 -8.642419 7.396513
v 4.360950 -7.983201 10.584314
v 2.476450 -10.481622 12.020186
v 1.539241 -11.572604 8.891836
v 3.423740 -9.074183 7.455966
v 3.261151 -8.491065 10.654432
v 1.120519 -10.884536 11.897074
v 0.318538 -11.834311 8.686165
v 2.459172 -9.440841 7.443522
vn 0.0014 -0.2047 -0.9788
vn -0.0047 0.6315 0.7753
vn -0.0050 0.6332 0.7739
vn -0.0052 0.6343 0.7731
vn -0.8021 -0.2718 0.5317
vn 0.7594 -0.2592 0.5968
vn -0.0003 -0.1247 0.9922
vn -0.0015 -0.0036 1.0000
vn 0.5780 0.1967 0.7920
vn 0.9432 -0.3206 0.0874
vn -0.0067 0.9970 0.0769
vn -0.5815 0.1940 0.7901
vn -0.9415 -0.3275 0.0797
vn -0.0045 0.6306 0.7761
vn -0.7576 -0.2624 0.5977
vn 0.8046 -0.2685 0.5297
vn -0.2680 -0.9435 0.1947
vn 0.1024 -0.9435 0.3151
vn 0.3313 -0.9435 -0.0000
vn -0.2680 -0.9435 -0.1947
vn 0.1024 -0.9435 -0.3151
vn 0.6071 -0.7947 -0.0000
vn 0.7002 -0.6617 -0.2680
vn 0.1876 -0.7947 -0.5773
vn 0.4713 -0.6617 -0.5831
vn 0.8026 -0.1256 -0.5831
vn 0.5346 -0.3304 -0.7779
vn 0.9050 -0.3304 -0.2680
vn 0.7947 0.1876 -0.5773
vn 0.8897 0.3304 -0.3151
vn 0.9822 -0.1876 -0.0000
vn 0.9921 0.1256 -0.0000
vn 0.9050 -0.3304 0.2680
vn 0.8026 -0.1256 0.5831
vn 0.8897 0.3304 0.3151
vn 0.7947 0.1876 0.5773
vn 0.4911 0.7947 0.3568
vn 0.4089 0.6617 0.6284
vn 0.7240 0.6617 0.1947
vn 0.5746 0.3304 0.7488
vn 0.0385 0.6617 0.7488
vn -0.0247 0.3304 0.9435
vn 0.3066 0.1256 0.9435
vn -0.3035 0.1876 0.9342
vn -0.3066 -0.1256 0.9435
vn 0.3035 -0.1876 0.9342
vn 0.0247 -0.3304 0.9435
vn 0.4713 -0.6617 0.5831
vn 0.5346 -0.3304 0.7779
vn -0.0385 -0.6617 0.7488
vn 0.1876 -0.7947 0.5773
vn -0.5746 -0.3304 0.7488
vn -0.4089 -0.6617 0.6284
vn -0.4911 -0.7947 0.3568
vn -0.7240 -0.6617 0.1947
vn -0.7947 -0.1876 0.5773
vn -0.8897 -0.3304 0.3151
vn -0.9921 -0.1256 -0.0000
vn -0.8897 -0.3304 -0.3151
vn -0.7240 -0.6617 -0.1947
vn -0.4911 -0.7947 -0.3568
vn -0.4089 -0.6617 -0.6284
vn -0.5746 -0.3304 -0.7488
vn -0.7947 -0.1876 -0.5773
vn -0.8026 0.1256 -0.5831
vn -0.5346 0.3304 -0.7779
vn -0.3066 -0.1256 -0.9435
vn -0.3035 0.1876 -0.9342
vn -0.0247 0.3304 -0.9435
vn -0.4713 0.6617 -0.5831
vn 0.0385 0.6617 -0.7488
vn -0.1876 0.7947 -0.5773
vn -0.6071 0.7947 -0.0000
vn -0.3313 0.9435 -0.0000
vn -0.7002 0.6617 -0.2680
vn -0.1024 0.9435 -0.3151
vn 0.2680 0.9435 0.1947
vn 0.2680 0.9435 -0.1947
vn -0.1024 0.9435 0.3151
vn -0.9050 0.3304 0.2680
vn -0.7002 0.6617 0.2680
vn -0.9050 0.3304 -0.2680
vn -0.9822 0.1876 -0.0000
vn -0.4713 0.6617 0.5831
vn -0.5346 0.3304 0.7779
vn -0.8026 0.1256 0.5831
vn -0.1876 0.7947 0.5773
vn 0.4089 0.6617 -0.6284
vn 0.4911 0.7947 -0.3568
vn 0.5746 0.3304 -0.7488
vn 0.3066 0.1256 -0.9435
vn 0.0247 -0.3304 -0.9435
vn 0.3035 -0.1876 -0.9342
vn -0.0385 -0.6617 -0.7488
vn 0.7240 0.6617 -0.1947
vn 0.7002 -0.6617 0.2680
vn 0.8936 -0.4486 0.0182
vn 0.2384 0.2249 0.9448
vn 0.5387 -0.1668 0.8258
vn 0.5379 -0.1667 0.8263
vn 0.5410 -0.1677 0.8241
vn 0.5652 -0.1569 -0.8099
vn 0.2371 0.2701 -0.9332
vn 0.8936 -0.4486 -0.0170
vn 0.8934 -0.4492 0.0006
vn 0.5801 0.3333 0.7432
vn 0.5974 0.3438 -0.7245
vn -0.5211 -0.3654 0.7713
vn 0.6746 0.3318 0.6594
vn -0.8226 0.4141 0.3897
vn 0.5377 -0.1664 0.8265
vn 0.1731 0.0157 0.9848
vn 0.5211 -0.3654 0.7713
vn -0.1731 0.0157 0.9848
vn -0.3778 -0.3021 0.8752
vn 0.0136 -0.0913 0.9957
vn 0.3778 -0.3021 0.8752
vn -0.0136 -0.0913 0.9957
vn -0.3681 -0.2204 0.9033
vn 0.6564 0.3631 0.6613
vn -0.6564 0.3631 0.6613
vn 0.3681 -0.2204 0.9033
vn 0.6465 0.4273 0.6320
vn -0.6804 -0.1777 0.7110
vn 0.5687 0.3443 0.7470
vn -0.5687 0.3443 0.7470
vn 0.6804 -0.1777 0.7110
vn -0.6465 0.4273 0.6320
vn 0.0126 0.1146 0.9933
vn -0.0126 0.1147 0.9933
vn 0.8226 0.4141 0.3897
vn -0.5387 -0.1668 0.8259
vn -0.5410 -0.1677 0.8241
vn -0.5379 -0.1667 0.8264
vn -0.5801 0.3333 0.7432
vn -0.6746 0.3318 0.6594
vn -0.5377 -0.1664 0.8265
vn -0.8936 -0.4486 -0.0170
vn -0.2371 0.2701 -0.9332
vn -0.5652 -0.1569 -0.8099
vn -0.2384 0.2249 0.9448
vn -0.8936 -0.4486 0.0182
vn -0.5974 0.3438 -0.7245
vn -0.8934 -0.4492 0.0006
vn -0.0000 -1.0000 0.0014
vn -0.0000 -0.9993 -0.0379
vn -0.0000 -0.9992 0.0406
vn -0.0000 -0.9950 0.1003
vn -0.0000 -0.9978 -0.0667
vn -0.4319 -0.1329 0.8920
vn -0.4319 -0.1329 -0.8920
vn -0.4319 0.1329 -0.8920
vn -0.4319 0.1329 0.8920
vn 0.4319 0.1329 -0.8920
vn 0.4319 0.1329 0.8920
vn 0.4319 -0.1329 -0.8920
vn 0.4319 -0.1329 0.8920
vn 0.4154 0.0979 0.9044
vn 0.4154 0.0979 -0.9044
vn 0.4154 -0.0979 -0.9044
vn 0.4154 -0.0979 0.9044
vn -0.4154 -0.0979 0.9044
vn -0.4154 -0.0979 -0.9044
vn -0.4154 0.0979 -0.9044
vn -0.4154 0.0979 0.9044
vn -0.4332 -0.1092 -0.8947
vn -0.4332 0.1092 -0.8947
vn -0.4332 0.1092 0.8947
vn -0.4332 -0.1092 0.8947
vn 0.4332 -0.1092 0.8947
vn 0.4332 -0.1092 -0.8947
vn 0.4332 0.1092 -0.8947
vn 0.4332 0.1092 0.8947
vn 0.4273 -0.1964 0.8825
vn 0.4273 0.1964 0.8825
vn 0.4273 0.1964 -0.8825
vn 0.4273 -0.1964 -0.8825
vn -0.4273 -0.1964 -0.8825
vn -0.4273 -0.1964 0.8825
vn -0.4273 0.1964 -0.8825
vn -0.4273 0.1964 0.8825
vn 0.2767 -0.1911 0.9418
vn 0.3872 -0.0569 0.9202
vn 0.3872 -0.0569 -0.9202
vn 0.2767 -0.1911 -0.9418
vn -0.3872 0.0569 -0.9202
vn -0.3872 0.0569 0.9202
vn -0.2767 0.1911 -0.9418
vn -0.2767 0.1911 0.9418
vn 0.3506 -0.0759 0.9334
vn 0.3506 0.0759 0.9334
vn 0.3506 0.0759 -0.9334
vn 0.3506 -0.0759 -0.9334
vn -0.3506 -0.0759 -0.9334
vn -0.3506 -0.0759 0.9334
vn -0.3506 0.0759 -0.9334
vn -0.3506 0.0759 0.9334
vn 0.2100 -0.0182 0.9775
vn 0.1731 0.2561 0.9510
vn 0.1731 0.2561 -0.9510
vn 0.2100 -0.0182 -0.9775
vn -0.1731 -0.2561 -0.9510
vn -0.1731 -0.2561 0.9510
vn -0.2100 0.0182 0.9775
vn -0.2100 0.0182 -0.9775
vn 0.2254 -0.7224 0.6537
vn 0.4239 -0.2890 0.8584
vn 0.4239 -0.2890 -0.8584
vn 0.2254 -0.7224 -0.6537
vn -0.4239 0.2890 -0.8584
vn -0.4239 0.2890 0.8584
vn -0.2254 0.7224 -0.6537
vn -0.2254 0.7224 0.6537
vn 0.4394 -0.1989 0.8760
vn 0.5825 -0.0561 0.8109
vn 0.5825 -0.0561 -0.8109
vn 0.4394 -0.1989 -0.8760
vn -0.5825 0.0561 -0.8109
vn -0.5825 0.0561 0.8109
vn -0.4394 0.1989 -0.8760
vn -0.4394 0.1989 0.8760
vn 0.3554 -0.4334 0.8282
vn 0.4515 0.0323 0.8917
vn 0.4515 0.0323 -0.8917
vn 0.3554 -0.4334 -0.8281
vn -0.4515 -0.0323 -0.8917
vn -0.4515 -0.0323 0.8917
vn -0.3554 0.4334 -0.8281
vn -0.3554 0.4334 0.8282
vn 0.4515 -0.0275 0.8918
vn 0.3650 0.3790 0.8504
vn 0.3650 0.3790 -0.8504
vn 0.4515 -0.0275 -0.8918
vn -0.3650 -0.3790 -0.8504
vn -0.3650 -0.3790 0.8504
vn -0.4515 0.0275 0.8918
vn -0.4515 0.0275 -0.8918
vn 0.4344 -0.0795 0.8972
vn 0.4344 0.0795 0.8972
vn 0.4344 0.0795 -0.8972
vn 0.4344 -0.0795 -0.8972
vn -0.4344 -0.0795 -0.8972
vn -0.4344 -0.0795 0.8972
vn -0.4344 0.0795 -0.8972
vn -0.4344 0.0795 0.8972
vn -0.3174 -0.2283 -0.9204
vn -0.4418 -0.0676 -0.8946
vn -0.4418 -0.0676 0.8946
vn -0.3174 -0.2283 0.9204
vn 0.4418 0.0676 0.8946
vn 0.4418 0.0676 -0.8946
vn 0.3174 0.2283 0.9204
vn 0.3174 0.2283 -0.9204
vn -0.4245 -0.2266 -0.8766
vn -0.4245 0.2266 -0.8766
vn -0.4245 0.2266 0.8766
vn -0.4245 -0.2266 0.8766
vn 0.4245 -0.2266 0.8766
vn 0.4245 -0.2266 -0.8766
vn 0.4245 0.2266 0.8766
vn 0.4245 0.2266 -0.8766
vn -0.3049 -0.0112 -0.9523
vn -0.2584 0.1621 -0.9523
vn -0.2584 0.1621 0.9523
vn -0.3049 -0.0112 0.9523
vn 0.2584 -0.1621 0.9523
vn 0.2584 -0.1621 -0.9523
vn 0.3049 0.0112 -0.9523
vn 0.3049 0.0112 0.9523
vn -0.3195 -0.1989 -0.9265
vn -0.4420 -0.0585 -0.8951
vn -0.4420 -0.0585 0.8951
vn -0.3195 -0.1989 0.9265
vn 0.4420 0.0585 0.8951
vn 0.4420 0.0585 -0.8951
vn 0.3195 0.1989 0.9265
vn 0.3195 0.1989 -0.9265
vn -0.2640 -0.5866 -0.7657
vn -0.4334 -0.2048 -0.8776
vn -0.4334 -0.2048 0.8776
vn -0.2640 -0.5866 0.7657
vn 0.4334 0.2048 0.8776
vn 0.4334 0.2048 -0.8776
vn 0.2640 0.5866 0.7656
vn 0.2640 0.5866 -0.7656
vn -0.4344 -0.0818 -0.8970
vn -0.4344 0.0818 -0.8970
vn -0.4344 0.0818 0.8970
vn -0.4344 -0.0818 0.8970
vn 0.4344 -0.0818 0.8970
vn 0.4344 -0.0818 -0.8970
vn 0.4344 0.0818 0.8970
vn 0.4344 0.0818 -0.8970
vn -0.2945 -0.1848 -0.9376
vn -0.3475 0.0128 -0.9376
vn -0.3475 0.0128 0.9376
vn -0.2945 -0.1848 0.9376
vn 0.3475 -0.0128 0.9376
vn 0.3475 -0.0128 -0.9376
vn 0.2945 0.1848 -0.9376
vn 0.2945 0.1848 0.9376
vn -0.4517 -0.0100 -0.8921
vn -0.3901 0.1467 -0.9090
vn -0.3901 0.1467 0.9090
vn -0.4517 -0.0100 0.8921
vn 0.3901 -0.1467 0.9090
vn 0.3901 -0.1467 -0.9090
vn 0.4517 0.0100 0.8921
vn 0.4517 0.0100 -0.8921
vn -0.4346 -0.0749 -0.8975
vn -0.4346 0.0749 -0.8975
vn -0.4346 0.0749 0.8975
vn -0.4346 -0.0749 0.8975
vn 0.4346 -0.0749 0.8975
vn 0.4346 -0.0749 -0.8975
vn 0.4346 0.0749 0.8975
vn 0.4346 0.0749 -0.8975
vn -0.2769 0.6013 0.7495
vn -0.4555 0.8837 -0.1079
vn -0.2814 0.6094 0.7412
vn -0.2227 -0.9692 0.1056
vn -0.2323 -0.9669 0.1052
vn -0.2873 0.6102 0.7384
vn -0.1472 -0.9788 0.1425
vn -0.0691 -0.9822 0.1746
vn -0.1570 -0.9772 0.1427
vn -0.2698 0.6016 0.7519
vn -0.5220 0.8472 -0.0983
vn -0.2753 0.6092 0.7437
vn 0.0109 -0.9794 0.2016
vn -0.2691 0.6094 0.7458
vn -0.0789 -0.9813 0.1754
vn -0.2625 0.6024 0.7538
vn -0.5851 0.8066 -0.0835
vn -0.2553 0.6038 0.7552
vn -0.1933 0.9659 -0.1720
vn -0.1151 0.9808 -0.1572
vn -0.1153 0.9808 -0.1572
vn 0.2744 -0.6149 -0.7394
vn 0.2687 -0.6090 -0.7463
vn -0.0374 0.9899 -0.1369
vn 0.2624 -0.6097 -0.7480
vn 0.2798 -0.6151 -0.7371
vn 0.0392 0.9930 -0.1115
vn 0.2750 -0.6087 -0.7442
vn -0.0376 0.9899 -0.1369
vn 0.2850 -0.6159 -0.7345
vn 0.2811 -0.6089 -0.7417
vn 0.1141 0.9901 -0.0812
vn 0.0390 0.9930 -0.1115
vn 0.2899 -0.6170 -0.7316
vn 0.1139 0.9902 -0.0812
vn -0.3861 0.9156 -0.1122
vn 0.2871 -0.6097 -0.7389
vn 0.1864 0.9814 -0.0462
vn -0.2839 0.6016 0.7467
vn -0.2929 0.6114 0.7351
vn -0.2906 0.6024 0.7434
vn -0.3146 0.9427 -0.1112
vn 0.1862 0.9814 -0.0463
vn 0.2555 0.9668 -0.0070
vn -0.2971 0.6037 0.7398
vn -0.2416 0.9647 -0.1048
vn -0.2981 0.6131 0.7316
vn 0.2553 0.9668 -0.0070
vn -0.3030 0.6152 0.7278
vn 0.3207 0.9465 0.0362
vn -0.1679 0.9814 -0.0933
vn 0.3029 -0.6228 -0.7214
vn 0.2981 -0.6125 -0.7321
vn -0.4917 -0.8666 -0.0849
vn -0.4257 -0.9044 -0.0303
vn 0.2989 -0.6205 -0.7250
vn 0.2927 -0.6109 -0.7356
vn -0.4344 -0.9001 -0.0323
vn -0.3626 -0.9318 0.0188
vn 0.2946 -0.6185 -0.7284
vn -0.3717 -0.9282 0.0173
vn -0.2947 -0.9534 0.0642
vn -0.3041 -0.9505 0.0633
vn 0.2688 -0.6150 -0.7413
vn 0.2560 -0.6109 -0.7492
vn -0.1931 0.9660 -0.1721
vn -0.6442 0.7622 -0.0636
vn -0.6986 0.7145 -0.0389
vn -0.2709 0.9454 -0.1814
vn -0.2480 0.6057 0.7560
vn 0.0921 -0.9704 0.2232
vn -0.2628 0.6101 0.7475
vn 0.0011 -0.9792 0.2030
vn -0.3088 0.6080 0.7314
vn -0.0941 0.9926 -0.0765
vn -0.5353 -0.8334 -0.1374
vn -0.3115 0.6207 0.7195
vn 0.3812 0.9208 0.0828
vn 0.4370 0.8896 0.1326
vn -0.3140 0.6109 0.7268
vn -0.0210 0.9983 -0.0548
vn 0.4369 0.8897 0.1325
vn 0.4870 0.8536 0.1849
vn -0.3187 0.6143 0.7219
vn -0.3151 0.6240 0.7151
vn 0.0507 0.9983 -0.0283
vn 0.4868 0.8537 0.1848
vn -0.3181 0.6277 0.7105
vn 0.5309 0.8130 0.2392
vn -0.3228 0.6181 0.7168
vn 0.1204 0.9927 0.0027
vn 0.5307 0.8131 0.2391
vn 0.5682 0.7681 0.2951
vn -0.3262 0.6222 0.7116
vn -0.3205 0.6317 0.7059
vn 0.1874 0.9816 0.0379
vn 0.5681 0.7683 0.2950
vn -0.3223 0.6359 0.7012
vn 0.5986 0.7195 0.3520
vn -0.3291 0.6268 0.7063
vn 0.2510 0.9649 0.0771
vn 0.5985 0.7197 0.3519
vn 0.6219 0.6676 0.4094
vn 0.3105 0.9430 0.1197
vn -0.3236 0.6404 0.6966
vn 0.3174 -0.6473 -0.6930
vn 0.3228 -0.6354 -0.7015
vn -0.7017 -0.5120 -0.4955
vn 0.3169 -0.6432 -0.6971
vn -0.6902 -0.5802 -0.4324
vn -0.6945 -0.5722 -0.4363
vn 0.3159 -0.6391 -0.7012
vn -0.6793 -0.6301 -0.3763
vn -0.6742 -0.6377 -0.3725
vn 0.3208 -0.6311 -0.7062
vn 0.3143 -0.6353 -0.7054
vn 0.3184 -0.6271 -0.7109
vn -0.6505 -0.6923 -0.3125
vn -0.6563 -0.6851 -0.3161
vn 0.3122 -0.6318 -0.7095
vn -0.6257 -0.7368 -0.2563
vn -0.6192 -0.7434 -0.2529
vn 0.3153 -0.6235 -0.7155
vn 0.3117 -0.6201 -0.7199
vn -0.5806 -0.7906 -0.1944
vn 0.3095 -0.6285 -0.7136
vn 0.3076 -0.6172 -0.7242
vn -0.5878 -0.7845 -0.1975
vn -0.6983 -0.4588 -0.5494
vn 0.3656 0.9160 0.1654
vn -0.3242 0.6498 0.6875
vn -0.3327 0.6367 0.6956
vn 0.6376 0.6130 0.4666
vn 0.6460 0.5557 0.5233
vn -0.3335 0.6420 0.6903
vn 0.4155 0.8841 0.2138
vn 0.6459 0.5559 0.5232
vn -0.3236 0.6547 0.6831
vn 0.6466 0.4970 0.5787
vn -0.3336 0.6475 0.6852
vn 0.4599 0.8477 0.2643
vn 0.6466 0.4971 0.5786
vn 0.6396 0.4370 0.6324
vn 0.4983 0.8072 0.3166
vn -0.3224 0.6596 0.6790
vn 0.3139 -0.6647 -0.6779
vn 0.3242 -0.6543 -0.6833
vn -0.6509 -0.2600 -0.7132
vn 0.3156 -0.6604 -0.6814
vn -0.6746 -0.3326 -0.6591
vn -0.6754 -0.3235 -0.6627
vn 0.3168 -0.6560 -0.6851
vn -0.6921 -0.3870 -0.6092
vn -0.6904 -0.3960 -0.6054
vn 0.3248 -0.6493 -0.6877
vn 0.3247 -0.6445 -0.6922
vn -0.6198 -0.2066 -0.7571
vn 0.5303 0.7628 0.3701
vn -0.3181 0.6694 0.6713
vn -0.3316 0.6587 0.6754
vn 0.6250 0.3766 0.6838
vn 0.6030 0.3158 0.7326
vn -0.3295 0.6644 0.6708
vn 0.5556 0.7151 0.4242
vn 0.6030 0.3160 0.7325
vn -0.3151 0.6742 0.6680
vn 0.5737 0.2558 0.7781
vn -0.3268 0.6700 0.6666
vn 0.5740 0.6645 0.4785
vn 0.5737 0.2560 0.7780
vn 0.5375 0.1970 0.8200
vn 0.5853 0.6115 0.5325
vn -0.3116 0.6788 0.6649
vn 0.3022 -0.6814 -0.6666
vn 0.3158 -0.6739 -0.6679
vn -0.4810 -0.0192 -0.8765
vn 0.3058 -0.6774 -0.6690
vn -0.5361 -0.0855 -0.8398
vn -0.5335 -0.0763 -0.8423
vn 0.3090 -0.6733 -0.6717
vn -0.5796 -0.1358 -0.8035
vn -0.5814 -0.1451 -0.8006
vn 0.3188 -0.6691 -0.6713
vn 0.3212 -0.6642 -0.6750
vn -0.4267 0.0260 -0.9040
vn 0.5894 0.5565 0.5856
vn 0.5894 0.5566 0.5856
vn -0.3031 0.6875 0.6599
vn -0.3194 0.6808 0.6592
vn 0.4947 0.1400 0.8577
vn 0.4456 0.0849 0.8912
vn -0.3148 0.6859 0.6560
vn 0.5862 0.5003 0.6372
vn 0.4457 0.0851 0.8911
vn -0.2982 0.6914 0.6580
vn 0.3909 0.0329 0.9198
vn -0.3097 0.6908 0.6534
vn 0.5759 0.4431 0.6870
vn 0.3910 0.0330 0.9198
vn 0.3310 -0.0159 0.9435
vn -0.3042 0.6953 0.6512
vn -0.2930 0.6950 0.6566
vn 0.5584 0.3857 0.7345
vn 0.3311 -0.0158 0.9435
vn -0.2874 0.6983 0.6556
vn 0.2665 -0.0610 0.9619
vn -0.2981 0.6995 0.6494
vn 0.5339 0.3286 0.7791
vn 0.2666 -0.0608 0.9619
vn 0.1980 -0.1018 0.9749
vn -0.2918 0.7033 0.6482
vn -0.2815 0.7012 0.6550
vn 0.5028 0.2723 0.8204
vn 0.1981 -0.1016 0.9749
vn -0.2754 0.7038 0.6549
vn 0.1261 -0.1380 0.9824
vn -0.2851 0.7067 0.6475
vn 0.4652 0.2174 0.8581
vn 0.1263 -0.1379 0.9824
vn 0.0517 -0.1693 0.9842
vn 0.4216 0.1643 0.8918
vn -0.2692 0.7058 0.6552
vn 0.2621 -0.7027 -0.6614
vn 0.2760 -0.7039 -0.6544
vn 0.0983 0.2895 -0.9521
vn 0.2677 -0.7013 -0.6607
vn 0.0096 0.2626 -0.9649
vn 0.0169 0.2690 -0.9630
vn 0.2733 -0.6995 -0.6603
vn -0.0635 0.2427 -0.9680
vn -0.0705 0.2358 -0.9693
vn 0.2821 -0.7014 -0.6546
vn 0.2787 -0.6973 -0.6604
vn 0.2880 -0.6984 -0.6552
vn -0.1485 0.2034 -0.9678
vn -0.1421 0.2109 -0.9671
vn 0.2840 -0.6947 -0.6608
vn -0.2179 0.1738 -0.9604
vn -0.2239 0.1659 -0.9604
vn 0.2936 -0.6951 -0.6563
vn 0.2890 -0.6918 -0.6617
vn 0.2989 -0.6914 -0.6578
vn -0.2958 0.1235 -0.9472
vn -0.2904 0.1318 -0.9478
vn 0.2937 -0.6886 -0.6630
vn -0.3589 0.0853 -0.9295
vn -0.3637 0.0767 -0.9284
vn 0.3038 -0.6874 -0.6597
vn 0.3083 -0.6831 -0.6621
vn 0.1724 0.2988 -0.9386
vn 0.3724 0.1137 0.9211
vn -0.2566 0.7087 0.6572
vn -0.2710 0.7121 0.6477
vn -0.0246 -0.1953 0.9804
vn -0.1023 -0.2159 0.9710
vn -0.2638 0.7140 0.6486
vn 0.3180 0.0659 0.9458
vn -0.1021 -0.2158 0.9711
vn -0.2503 0.7094 0.6589
vn -0.1803 -0.2308 0.9561
vn -0.2565 0.7154 0.6500
vn 0.2590 0.0215 0.9656
vn -0.1801 -0.2307 0.9562
vn -0.2580 -0.2398 0.9359
vn -0.2493 0.7162 0.6519
vn -0.2441 0.7096 0.6610
vn 0.1959 -0.0191 0.9804
vn -0.2578 -0.2398 0.9360
vn -0.2380 0.7093 0.6635
vn -0.3347 -0.2430 0.9105
vn -0.2421 0.7165 0.6542
vn 0.1293 -0.0555 0.9900
vn -0.3345 -0.2429 0.9106
vn -0.4095 -0.2401 0.8801
vn -0.2351 0.7162 0.6571
vn -0.2321 0.7086 0.6664
vn 0.0599 -0.0874 0.9944
vn -0.4093 -0.2401 0.8802
vn -0.2265 0.7073 0.6696
vn -0.4818 -0.2314 0.8452
vn -0.2284 0.7154 0.6603
vn -0.0116 -0.1145 0.9934
vn -0.4816 -0.2313 0.8453
vn -0.5509 -0.2167 0.8059
vn -0.2219 0.7141 0.6640
vn -0.2213 0.7057 0.6731
vn -0.0845 -0.1365 0.9870
vn -0.5507 -0.2167 0.8060
vn -0.2164 0.7035 0.6769
vn -0.6161 -0.1964 0.7628
vn -0.2159 0.7122 0.6680
vn -0.1583 -0.1532 0.9754
vn -0.6160 -0.1964 0.7629
vn -0.6768 -0.1706 0.7161
vn -0.2102 0.7098 0.6723
vn -0.2119 0.7010 0.6810
vn -0.2321 -0.1645 0.9587
vn -0.6767 -0.1707 0.7162
vn -0.2079 0.6980 0.6853
vn -0.7324 -0.1396 0.6664
vn -0.3052 -0.1701 0.9370
vn 0.2101 -0.6909 -0.6918
vn 0.2118 -0.7015 -0.6805
vn 0.2132 -0.6939 -0.6878
vn 0.8056 0.1612 -0.5701
vn 0.7998 0.1618 -0.5781
vn 0.8504 0.1178 -0.5128
vn 0.2167 -0.6965 -0.6840
vn 0.2163 -0.7040 -0.6764
vn 0.7480 0.1999 -0.6329
vn 0.7543 0.1998 -0.6254
vn 0.2207 -0.6989 -0.6804
vn 0.6970 0.2334 -0.6780
vn 0.6902 0.2327 -0.6852
vn 0.2213 -0.7062 -0.6726
vn 0.2250 -0.7008 -0.6769
vn 0.2267 -0.7078 -0.6690
vn 0.6271 0.2601 -0.7342
vn 0.6343 0.2614 -0.7276
vn 0.2297 -0.7023 -0.6738
vn 0.5667 0.2838 -0.7735
vn 0.5592 0.2818 -0.7797
vn 0.2323 -0.7090 -0.6658
vn 0.2347 -0.7035 -0.6709
vn 0.2382 -0.7097 -0.6630
vn 0.4872 0.2975 -0.8210
vn 0.4949 0.3002 -0.8155
vn 0.2399 -0.7042 -0.6683
vn 0.4196 0.3105 -0.8530
vn 0.4118 0.3071 -0.8580
vn 0.2444 -0.7100 -0.6605
vn 0.2453 -0.7045 -0.6660
vn 0.2506 -0.7097 -0.6584
vn 0.3337 0.3106 -0.8901
vn 0.3416 0.3146 -0.8857
vn 0.2508 -0.7043 -0.6641
vn 0.2615 0.3124 -0.9133
vn 0.2536 0.3078 -0.9170
vn 0.2570 -0.7090 -0.6567
vn 0.2634 -0.7078 -0.6555
vn -0.2004 0.7035 0.6819
vn -0.3769 -0.1702 0.9105
vn 0.8837 0.0718 -0.4625
vn -0.2013 0.6910 0.6942
vn -0.7823 -0.1036 0.6142
vn -0.8263 -0.0629 0.5597
vn -0.1963 0.6997 0.6869
vn -0.4466 -0.1646 0.8795
vn -0.8195 -0.0416 0.5715
vn -0.8718 -0.0432 0.4879
vn 0.2054 -0.6840 -0.7000
vn 0.2010 -0.6916 -0.6938
vn 0.2041 -0.6952 -0.6892
vn 0.2038 -0.6802 -0.7042
vn -0.9029 0.0064 0.4299
vn -0.5136 -0.1534 0.8442
vn 0.1985 -0.6876 -0.6985
vn 0.2027 -0.6762 -0.7083
vn -0.5771 -0.1368 0.8051
vn -0.8562 0.0024 0.5166
vn -0.1928 0.6956 0.6921
vn -0.1971 0.6828 0.7035
vn 0.9388 -0.0339 -0.3429
vn 0.9571 -0.0946 -0.2740
vn 0.9150 0.0206 -0.4029
vn 0.9419 -0.0367 -0.3339
vn -0.1989 0.6870 0.6989
vn 0.9189 0.0183 -0.3941
vn -0.1878 0.6862 0.7028
vn -0.6367 -0.1148 0.7625
vn 0.9741 -0.1885 -0.1251
vn 0.9523 -0.1763 -0.2492
vn -0.1952 0.6737 0.7128
vn 0.2023 -0.6677 -0.7164
vn -0.6918 -0.0878 0.7168
vn -0.9428 0.1154 0.3129
vn -0.9090 0.1012 0.4044
vn 0.1953 -0.6788 -0.7078
vn -0.1855 0.6758 0.7134
vn -0.7417 -0.0559 0.6684
vn 0.9549 -0.2757 -0.1100
vn -0.1958 0.6640 0.7216
vn -0.9327 0.2110 0.2925
vn -0.1855 0.6703 0.7186
vn -0.7861 -0.0196 0.6178
vn -0.9447 0.2948 0.1437
vn -0.9333 0.2687 0.2381
vn 0.2057 -0.6546 -0.7275
vn 0.1952 -0.6644 -0.7214
vn -0.9298 0.3566 0.0911
vn -0.8244 0.0210 0.5656
vn 0.1964 -0.6595 -0.7256
vn 0.2079 -0.6502 -0.7307
vn 0.1982 -0.6545 -0.7296
vn -0.8564 0.0654 0.5121
vn -0.9073 0.4185 0.0414
vn -0.9265 0.3276 0.1853
vn -0.1861 0.6647 0.7236
vn -0.1989 0.6542 0.7297
vn -0.1875 0.6590 0.7284
vn -0.9121 0.3871 0.1348
vn -0.1895 0.6534 0.7329
vn -0.8818 0.1131 0.4579
vn -0.2013 0.6493 0.7334
vn -0.8774 0.4797 -0.0050
vn -0.8905 0.4466 0.0869
vn 0.2138 -0.6419 -0.7364
vn 0.2036 -0.6447 -0.7368
vn -0.9002 0.1637 0.4036
vn -0.8329 0.5531 -0.0210
vn -0.8692 0.4941 0.0210
vn 0.2006 -0.6496 -0.7334
vn 0.2175 -0.6379 -0.7387
vn -0.8330 0.5529 -0.0208
vn -0.9115 0.2167 0.3497
vn 0.2071 -0.6401 -0.7399
vn -0.7901 0.6102 -0.0588
vn -0.1956 0.6423 0.7411
vn -0.2118 0.6355 0.7425
vn -0.9156 0.2716 0.2966
vn 0.2215 -0.6342 -0.7408
vn 0.6852 -0.7016 0.1954
vn 0.7489 -0.6434 0.1590
vn 0.8006 -0.5861 0.1244
vn 0.7436 -0.6476 0.1662
vn -0.2078 0.6399 0.7398
vn 0.8459 -0.5265 0.0852
vn -0.2043 0.6446 0.7368
vn 0.7961 -0.5905 0.1321
vn -0.1923 0.6478 0.7372
vn 0.2107 -0.6460 -0.7337
vn 0.8422 -0.5310 0.0932
vn 0.8843 -0.4651 0.0417
vn 0.9155 -0.4024 -0.0057
vn 0.8815 -0.4695 0.0501
vn 0.9391 -0.3390 -0.0564
vn 0.9135 -0.4068 0.0030
vn -0.1970 0.6591 0.7258
vn 0.2040 -0.6590 -0.7240
vn -0.9519 0.2336 0.1985
vn 0.1946 -0.6693 -0.7170
vn 0.9380 -0.3433 -0.0475
vn -0.2042 0.6319 0.7477
vn -0.9124 0.3279 0.2449
vn 0.6282 -0.7484 0.2129
vn -0.2212 0.6273 0.7467
vn -0.7412 0.6650 -0.0921
vn -0.6863 0.7172 -0.1209
vn -0.2093 0.6270 0.7504
vn -0.9020 0.3850 0.1951
vn -0.6865 0.7171 -0.1208
vn -0.6264 0.7660 -0.1445
vn -0.2149 0.6225 0.7526
vn -0.8846 0.4424 0.1477
vn -0.2264 0.6237 0.7482
vn -0.6266 0.7659 -0.1444
vn -0.2320 0.6204 0.7492
vn -0.5619 0.8110 -0.1630
vn -0.2209 0.6183 0.7543
vn -0.8601 0.4996 0.1031
vn -0.5621 0.8109 -0.1628
vn -0.4934 0.8518 -0.1760
vn -0.2273 0.6145 0.7555
vn -0.8290 0.5559 0.0618
vn -0.2379 0.6175 0.7498
vn -0.4936 0.8517 -0.1759
vn -0.2440 0.6150 0.7499
vn -0.4216 0.8881 -0.1834
vn -0.2340 0.6111 0.7562
vn -0.7914 0.6108 0.0241
vn -0.4217 0.8880 -0.1833
vn -0.3471 0.9194 -0.1853
vn -0.2502 0.6129 0.7495
vn -0.7478 0.6638 -0.0096
vn 0.2575 -0.6166 -0.7440
vn 0.2434 -0.6147 -0.7503
vn 0.1643 -0.9563 0.2418
vn 0.2550 -0.9342 0.2494
vn 0.2519 -0.6180 -0.7447
vn 0.2373 -0.6173 -0.7501
vn 0.2458 -0.9358 0.2527
vn 0.3350 -0.9074 0.2538
vn 0.2463 -0.6198 -0.7451
vn 0.2314 -0.6203 -0.7495
vn 0.3262 -0.9095 0.2578
vn 0.4131 -0.8751 0.2523
vn 0.2409 -0.6220 -0.7450
vn 0.2258 -0.6236 -0.7484
vn 0.4047 -0.8776 0.2569
vn 0.4884 -0.8375 0.2450
vn 0.2357 -0.6246 -0.7445
vn 0.2205 -0.6273 -0.7469
vn 0.4805 -0.8405 0.2501
vn 0.5604 -0.7952 0.2318
vn 0.2307 -0.6275 -0.7437
vn 0.2156 -0.6313 -0.7450
vn 0.5531 -0.7986 0.2375
vt 0.010053 0.020160
vt 0.354922 0.711749
vt 0.015361 0.030682
vt 0.009468 0.018935
vt 0.009489 0.018957
vt -0.000140 -0.000281
vt 0.015428 0.030857
vt 0.001193 0.002384
vt 0.354918 0.709835
vt 0.000000 0.000000
vt 0.010062 0.020124
vt 0.010088 0.020151
vt 0.355806 0.710723
vt 0.909091 0.000000
vt 0.954545 0.078731
vt 0.863636 0.078731
vt 0.181819 0.000000
vt 0.227273 0.078731
vt 0.136365 0.078731
vt 0.318182 0.078731
vt 0.363637 0.000000
vt 0.409092 0.078731
vt 0.727273 0.000000
vt 0.772727 0.078731
vt 0.681818 0.078731
vt 0.545455 0.000000
vt 0.590909 0.078731
vt 0.500000 0.078731
vt 0.363637 0.157461
vt 0.454546 0.157461
vt 0.545455 0.157461
vt 0.500000 0.236191
vt 0.409092 0.236191
vt 0.454546 0.314921
vt 0.363637 0.314921
vt 0.318182 0.236191
vt 0.272728 0.157461
vt 0.227273 0.236191
vt 0.272728 0.314921
vt 0.227273 0.393651
vt 0.318182 0.393651
vt 0.181819 0.314921
vt 0.090910 0.314921
vt 0.136365 0.393651
vt 0.136365 0.236191
vt 0.045455 0.236191
vt 0.090910 0.157461
vt 0.181819 0.157461
vt 0.909091 0.157461
vt 1.000000 0.157461
vt 0.954545 0.236191
vt 0.818182 0.157461
vt 0.863636 0.236191
vt 0.772727 0.236191
vt 0.727273 0.157461
vt 0.636364 0.157461
vt 0.681818 0.236191
vt 0.727273 0.314921
vt 0.636364 0.314921
vt 0.590909 0.236191
vt 0.545455 0.314921
vt 0.681818 0.393651
vt 0.590909 0.393651
vt 0.772727 0.393651
vt 0.818182 0.314921
vt 0.863636 0.393651
vt 0.818182 0.472382
vt 0.636364 0.472382
vt 0.272728 0.472382
vt 0.409092 0.393651
vt 0.500000 0.393651
vt 0.454546 0.472382
vt 0.045455 0.393651
vt 0.090910 0.472382
vt 0.909091 0.314921
vt 0.000000 0.314921
vt 0.390759 0.300216
vt 0.477319 0.374774
vt 0.390759 0.463245
vt 0.401377 0.268595
vt 0.484759 0.369268
vt 0.460520 0.326172
vt 0.392763 0.971944
vt 0.484075 0.880313
vt 0.494419 0.889894
vt 0.389289 0.953521
vt 0.473450 0.869360
vt 0.389289 0.785199
vt 0.380321 0.473594
vt 0.463294 0.319726
vt 0.403278 0.261300
vt 0.592654 0.260195
vt 0.406753 0.990337
vt 0.493912 0.894982
vt 0.593454 0.990337
vt 0.532709 0.319190
vt 0.489805 0.364221
vt 0.475586 0.341099
vt 0.475541 0.340795
vt 0.554831 0.412414
vt 0.554963 0.343029
vt 0.488800 0.356417
vt 0.463127 0.329183
vt 0.487636 0.355395
vt 0.481053 0.350072
vt 0.487986 0.361453
vt 0.510306 0.385594
vt 0.545027 0.417996
vt 0.596835 0.482543
vt 0.505259 0.390641
vt 0.614256 0.280245
vt 0.614256 0.469521
vt 0.578521 0.764289
vt 0.500914 0.852928
vt 0.410199 0.764289
vt 0.607222 0.778042
vt 0.505567 0.860091
vt 0.515370 0.869894
vt 0.574540 0.484177
vt 0.493025 0.402663
vt 0.409763 0.483720
vt 0.615337 0.968454
vt 0.521987 0.875103
vt 0.615337 0.781753
vt 0.568708 0.494570
vt 0.399191 0.494100
vt 0.380321 0.482904
vt 0.390865 0.472448
vt 0.389377 0.775944
vt 0.473538 0.860105
vt 0.479158 0.381532
vt 0.489166 0.374052
vt 0.375000 0.750000
vt 0.500000 0.875000
vt 0.375000 1.000000
vt 0.375000 0.250000
vt 0.500000 0.375000
vt 0.375000 0.500000
vt 0.625000 0.250000
vt 0.625000 1.000000
vt 0.625000 0.500000
vt 0.625000 0.750000
vt 1.000000 0.000000
vt 0.000000 1.000000
vt 1.000000 1.000000
s 1
f 1/1/1 3/1/1 2/2/1
f 9/3/2 5/4/3 8/5/4
f 6/6/5 5/4/5 4/7/5
f 6/6/6 8/5/6 7/8/6
f 9/3/7 2/9/7 4/7/7
f 5/4/8 7/8/8 8/5/8
f 4/7/9 3/10/9 6/6/9
f 3/11/10 4/7/10 2/9/10
f 6/6/11 3/10/11 1/10/11
f 1/12/12 9/3/12 6/6/12
f 2/13/13 9/3/13 1/12/13
f 9/3/2 4/7/14 5/4/3
f 6/6/15 7/8/15 5/4/15
f 6/6/16 9/3/16 8/5/16
f 10/14/17 11/15/17 13/16/17
f 10/17/18 12/18/18 11/19/18
f 12/20/19 10/21/19 15/22/19
f 10/23/20 13/24/20 14/25/20
f 10/26/21 14/27/21 15/28/21
f 16/29/22 12/20/22 15/22/22
f 16/29/23 15/22/23 18/30/23
f 15/28/24 14/27/24 17/31/24
f 15/28/25 17/31/25 18/30/25
f 18/30/26 19/32/26 20/33/26
f 18/30/27 17/31/27 19/32/27
f 16/29/28 18/30/28 20/33/28
f 20/33/29 19/32/29 21/34/29
f 20/33/30 21/34/30 22/35/30
f 23/36/31 16/29/31 20/33/31
f 23/36/32 20/33/32 22/35/32
f 24/37/33 16/29/33 23/36/33
f 24/37/34 23/36/34 25/38/34
f 23/36/35 22/35/35 26/39/35
f 25/38/36 23/36/36 26/39/36
f 27/40/37 26/39/37 28/41/37
f 29/42/38 26/39/38 27/40/38
f 26/39/39 22/35/39 28/41/39
f 25/38/40 26/39/40 29/42/40
f 30/43/41 29/42/41 27/44/41
f 31/45/42 29/42/42 30/43/42
f 31/45/43 25/38/43 29/42/43
f 32/46/44 31/45/44 30/43/44
f 33/47/45 31/45/45 32/46/45
f 31/45/46 34/48/46 25/38/46
f 33/47/47 34/48/47 31/45/47
f 12/18/48 24/37/48 34/48/48
f 34/48/49 24/37/49 25/38/49
f 11/19/50 34/48/50 33/47/50
f 11/19/51 12/18/51 34/48/51
f 35/49/52 33/50/52 32/51/52
f 11/15/53 33/50/53 35/49/53
f 13/16/54 11/15/54 35/49/54
f 13/16/55 35/49/55 37/52/55
f 36/53/56 35/49/56 32/51/56
f 37/52/57 35/49/57 36/53/57
f 37/52/58 36/53/58 38/54/58
f 39/55/59 37/52/59 38/54/59
f 13/24/60 37/52/60 39/55/60
f 14/25/61 13/24/61 39/55/61
f 14/25/62 39/55/62 40/56/62
f 40/56/63 39/55/63 41/57/63
f 41/57/64 39/55/64 38/54/64
f 41/57/65 38/54/65 42/58/65
f 41/57/66 42/58/66 44/59/66
f 40/56/67 41/57/67 43/60/67
f 43/60/68 41/57/68 44/59/68
f 43/60/69 44/59/69 45/61/69
f 44/59/70 42/58/70 47/62/70
f 45/61/71 44/59/71 46/63/71
f 46/63/72 44/59/72 47/62/72
f 47/64/73 49/65/73 48/66/73
f 47/64/74 48/66/74 50/67/74
f 42/58/75 49/65/75 47/64/75
f 46/63/76 47/62/76 50/68/76
f 27/40/77 28/41/77 50/69/77
f 28/70/78 46/71/78 50/72/78
f 48/73/79 27/44/79 50/74/79
f 36/53/80 51/75/80 49/65/80
f 49/65/81 51/75/81 48/66/81
f 38/54/82 49/65/82 42/58/82
f 38/54/83 36/53/83 49/65/83
f 51/76/84 30/43/84 48/73/84
f 32/46/85 30/43/85 51/76/85
f 36/53/86 32/51/86 51/75/86
f 48/73/87 30/43/87 27/44/87
f 21/34/88 45/61/88 46/71/88
f 28/70/89 21/34/89 46/71/89
f 19/32/90 45/61/90 21/34/90
f 19/32/91 43/60/91 45/61/91
f 17/31/92 40/56/92 43/60/92
f 19/32/93 17/31/93 43/60/93
f 14/27/94 40/56/94 17/31/94
f 22/35/95 21/34/95 28/70/95
f 24/37/96 12/20/96 16/29/96
f 52/77/97 53/78/97 58/79/97
f 53/78/98 52/80/98 54/81/98
f 61/82/99 54/81/100 52/80/101
f 52/83/102 55/84/102 60/85/102
f 52/86/103 56/87/103 55/84/103
f 57/88/104 56/87/104 52/86/104
f 57/89/105 52/77/105 58/79/105
f 61/90/106 52/91/106 59/92/106
f 52/93/107 60/94/107 59/95/107
f 61/90/108 62/96/108 65/96/108
f 61/90/109 59/92/109 62/96/109
f 63/97/110 61/82/110 64/82/110
f 61/82/99 63/97/111 54/81/100
f 61/90/108 65/96/108 64/90/108
f 68/98/112 64/82/112 65/99/112
f 66/100/113 65/101/113 62/101/113
f 66/100/113 67/100/113 65/101/113
f 68/98/114 65/99/114 67/102/114
f 69/103/115 68/98/115 71/98/115
f 68/98/116 69/103/116 64/82/116
f 70/104/117 71/98/117 68/98/117
f 68/98/118 67/102/118 70/104/118
f 69/103/119 71/98/119 72/103/119
f 73/105/120 72/103/120 71/98/120
f 71/98/121 74/104/121 73/105/121
f 70/104/122 74/104/122 71/98/122
f 70/104/123 75/106/123 74/104/123
f 73/105/124 74/104/124 75/106/124
f 70/104/125 76/106/125 75/106/125
f 69/103/126 75/106/126 76/106/126
f 75/106/127 72/103/127 73/105/127
f 69/103/128 72/103/128 75/106/128
f 76/106/112 77/97/112 64/82/112
f 76/106/114 67/102/114 77/97/114
f 76/106/129 70/104/129 67/102/129
f 76/106/130 64/82/130 69/103/130
f 63/97/110 64/82/110 77/97/110
f 63/107/131 77/107/131 67/108/131
f 63/107/131 67/108/131 66/108/131
f 66/108/132 78/109/133 54/110/134
f 66/100/135 59/111/135 78/112/135
f 66/100/136 62/101/136 59/111/136
f 66/108/132 54/110/134 63/107/137
f 78/113/138 79/114/138 82/115/138
f 79/114/139 78/116/139 55/117/139
f 55/117/140 78/116/140 60/118/140
f 78/119/141 80/120/141 54/110/141
f 81/121/142 80/120/142 78/119/142
f 59/122/143 60/123/143 78/124/143
f 81/121/144 78/125/144 82/126/144
f 82/127/145 58/79/145 81/128/145
f 82/127/145 57/89/145 58/79/145
f 57/88/146 82/129/146 79/130/146
f 80/131/147 81/128/147 58/79/147
f 80/131/147 58/79/147 53/78/147
f 53/78/148 54/132/148 80/131/148
f 55/84/149 56/87/149 79/130/149
f 57/88/146 79/130/146 56/87/146
f 84/133/150 86/134/150 83/135/150
f 83/136/151 85/137/151 84/138/151
f 85/137/152 83/136/152 87/139/152
f 83/135/153 86/134/153 87/140/153
f 88/141/154 85/137/154 87/139/154
f 87/140/155 86/134/155 88/142/155
f 84/138/156 85/137/156 88/141/156
f 88/142/157 86/134/157 84/133/157
f 92/137/158 89/136/158 90/139/158
f 89/135/159 91/134/159 90/140/159
f 93/133/160 91/134/160 89/135/160
f 89/136/161 92/137/161 93/138/161
f 93/138/162 92/137/162 94/141/162
f 94/142/163 91/134/163 93/133/163
f 90/140/164 91/134/164 94/142/164
f 94/141/165 92/137/165 90/139/165
f 95/136/166 96/137/166 99/138/166
f 96/137/167 95/136/167 97/139/167
f 95/135/168 98/134/168 97/140/168
f 99/133/169 98/134/169 95/135/169
f 100/142/170 98/134/170 99/133/170
f 99/138/171 96/137/171 100/141/171
f 100/141/172 96/137/172 97/139/172
f 97/140/173 98/134/173 100/142/173
f 101/136/174 102/137/174 105/138/174
f 102/137/175 101/136/175 103/139/175
f 101/135/176 104/134/176 103/140/176
f 105/133/177 104/134/177 101/135/177
f 106/142/178 104/134/178 105/133/178
f 105/138/179 102/137/179 106/141/179
f 103/140/180 104/134/180 106/142/180
f 106/141/181 102/137/181 103/139/181
f 107/136/182 108/137/182 111/138/182
f 108/137/183 107/136/183 109/139/183
f 107/135/184 110/134/184 109/140/184
f 111/133/185 110/134/185 107/135/185
f 112/142/186 110/134/186 111/133/186
f 111/138/187 108/137/187 112/141/187
f 109/140/188 110/134/188 112/142/188
f 112/141/189 108/137/189 109/139/189
f 113/136/190 114/137/190 117/138/190
f 114/137/191 113/136/191 115/139/191
f 113/135/192 116/134/192 115/140/192
f 117/133/193 116/134/193 113/135/193
f 118/142/194 116/134/194 117/133/194
f 117/138/195 114/137/195 118/141/195
f 115/140/196 116/134/196 118/142/196
f 118/141/197 114/137/197 115/139/197
f 119/136/198 120/137/198 123/138/198
f 120/137/199 119/136/199 121/139/199
f 119/135/200 122/134/200 121/140/200
f 123/133/201 122/134/201 119/135/201
f 124/142/202 122/134/202 123/133/202
f 123/138/203 120/137/203 124/141/203
f 124/141/204 120/137/204 121/139/204
f 121/140/205 122/134/205 124/142/205
f 125/136/206 126/137/206 129/138/206
f 126/137/207 125/136/207 127/139/207
f 125/135/208 128/134/208 127/140/208
f 129/133/209 128/134/209 125/135/209
f 130/142/210 128/134/210 129/133/210
f 129/138/211 126/137/211 130/141/211
f 127/140/212 128/134/212 130/142/212
f 130/141/213 126/137/213 127/139/213
f 131/136/214 132/137/214 135/138/214
f 132/137/215 131/136/215 133/139/215
f 131/135/216 134/134/216 133/140/216
f 135/133/217 134/134/217 131/135/217
f 136/142/218 134/134/218 135/133/218
f 135/138/219 132/137/219 136/141/219
f 133/140/220 134/134/220 136/142/220
f 136/141/221 132/137/221 133/139/221
f 137/136/222 138/137/222 141/138/222
f 138/137/223 137/136/223 139/139/223
f 137/135/224 140/134/224 139/140/224
f 141/133/225 140/134/225 137/135/225
f 142/142/226 140/134/226 141/133/226
f 141/138/227 138/137/227 142/141/227
f 139/140/228 140/134/228 142/142/228
f 142/141/229 138/137/229 139/139/229
f 143/136/230 144/137/230 147/138/230
f 144/137/231 143/136/231 145/139/231
f 143/135/232 146/134/232 145/140/232
f 147/133/233 146/134/233 143/135/233
f 148/142/234 146/134/234 147/133/234
f 147/138/235 144/137/235 148/141/235
f 148/141/236 144/137/236 145/139/236
f 145/140/237 146/134/237 148/142/237
f 149/136/238 150/137/238 153/138/238
f 150/137/239 149/136/239 151/139/239
f 149/135/240 152/134/240 151/140/240
f 153/133/241 152/134/241 149/135/241
f 154/142/242 152/134/242 153/133/242
f 153/138/243 150/137/243 154/141/243
f 151/140/244 152/134/244 154/142/244
f 154/141/245 150/137/245 151/139/245
f 155/136/246 156/137/246 159/138/246
f 156/137/247 155/136/247 157/139/247
f 155/135/248 158/134/248 157/140/248
f 159/133/249 158/134/249 155/135/249
f 160/142/250 158/134/250 159/133/250
f 159/138/251 156/137/251 160/141/251
f 157/140/252 158/134/252 160/142/252
f 160/141/253 156/137/253 157/139/253
f 161/136/254 162/137/254 165/138/254
f 162/137/255 161/136/255 163/139/255
f 161/135/256 164/134/256 163/140/256
f 165/133/257 164/134/257 161/135/257
f 166/142/258 164/134/258 165/133/258
f 165/138/259 162/137/259 166/141/259
f 163/140/260 164/134/260 166/142/260
f 166/141/261 162/137/261 163/139/261
f 167/136/262 168/137/262 171/138/262
f 168/137/263 167/136/263 169/139/263
f 167/135/264 170/134/264 169/140/264
f 171/133/265 170/134/265 167/135/265
f 172/142/266 170/134/266 171/133/266
f 171/138/267 168/137/267 172/141/267
f 172/141/268 168/137/268 169/139/268
f 169/140/269 170/134/269 172/142/269
f 173/136/270 174/137/270 177/138/270
f 174/137/271 173/136/271 175/139/271
f 173/135/272 176/134/272 175/140/272
f 177/133/273 176/134/273 173/135/273
f 178/142/274 176/134/274 177/133/274
f 177/138/275 174/137/275 178/141/275
f 175/140/276 176/134/276 178/142/276
f 178/141/277 174/137/277 175/139/277
f 179/136/278 180/137/278 183/138/278
f 180/137/279 179/136/279 181/139/279
f 179/135/280 182/134/280 181/140/280
f 183/133/281 182/134/281 179/135/281
f 184/142/282 182/134/282 183/133/282
f 183/138/283 180/137/283 184/141/283
f 181/140/284 182/134/284 184/142/284
f 184/141/285 180/137/285 181/139/285
f 185/136/286 186/137/286 189/138/286
f 186/137/287 185/136/287 187/139/287
f 185/135/288 188/134/288 187/140/288
f 189/133/289 188/134/289 185/135/289
f 190/142/290 188/134/290 189/133/290
f 189/138/291 186/137/291 190/141/291
f 187/140/292 188/134/292 190/142/292
f 190/141/293 186/137/293 187/139/293
f 191/136/294 192/137/294 195/138/294
f 192/137/295 191/136/295 193/139/295
f 191/135/296 194/134/296 193/140/296
f 195/133/297 194/134/297 191/135/297
f 196/142/298 194/134/298 195/133/298
f 195/138/299 192/137/299 196/141/299
f 196/141/300 192/137/300 193/139/300
f 193/140/301 194/134/301 196/142/301
f 197/136/302 198/137/302 201/138/302
f 198/137/303 197/136/303 199/139/303
f 197/135/304 200/134/304 199/140/304
f 201/133/305 200/134/305 197/135/305
f 202/142/306 200/134/306 201/133/306
f 201/138/307 198/137/307 202/141/307
f 199/140/308 200/134/308 202/142/308
f 202/141/309 198/137/309 199/139/309
f 203/136/310 204/137/310 207/138/310
f 204/137/311 203/136/311 205/139/311
f 203/135/312 206/134/312 205/140/312
f 207/133/313 206/134/313 203/135/313
f 208/142/314 206/134/314 207/133/314
f 207/138/315 204/137/315 208/141/315
f 205/140/316 206/134/316 208/142/316
f 208/141/317 204/137/317 205/139/317
f 209/10/318 210/143/318 213/143/318
f 210/143/319 211/144/319 209/10/319
f 215/10/320 210/143/320 209/10/320
f 211/144/321 209/10/321 212/10/321
f 214/144/322 209/10/322 211/144/322
f 209/10/323 213/143/323 212/10/323
f 214/144/324 215/10/324 209/10/324
f 216/144/325 218/10/325 215/10/325
f 216/144/326 215/10/326 214/144/326
f 215/10/327 217/143/327 210/143/327
f 217/143/328 214/144/328 215/10/328
f 218/10/329 217/143/329 215/10/329
f 220/144/330 219/10/330 218/10/330
f 219/10/331 221/143/331 218/10/331
f 220/144/332 218/10/332 216/144/332
f 218/10/333 221/143/333 217/143/333
f 221/143/334 216/144/334 218/10/334
f 219/10/335 222/143/335 221/143/335
f 223/145/336 221/143/336 222/143/336
f 223/145/337 224/145/337 221/143/337
f 221/143/334 224/145/334 216/144/334
f 224/145/338 217/143/338 221/143/338
f 220/144/339 216/144/339 224/145/339
f 216/144/340 225/145/340 224/145/340
f 224/145/341 225/145/341 217/143/341
f 220/144/342 224/145/342 223/145/342
f 216/144/343 214/144/343 225/145/343
f 225/145/344 226/145/344 210/143/344
f 214/144/345 226/145/345 225/145/345
f 225/145/346 210/143/346 217/143/346
f 217/143/328 225/145/328 214/144/328
f 214/144/347 211/144/347 226/145/347
f 211/144/348 227/145/348 226/145/348
f 210/143/319 226/145/319 211/144/319
f 226/145/349 227/145/349 213/143/349
f 226/145/350 213/143/350 210/143/350
f 211/144/351 228/144/351 227/145/351
f 227/145/352 230/143/352 213/143/352
f 213/143/353 227/145/353 228/144/353
f 228/144/354 229/145/354 227/145/354
f 227/145/355 229/145/355 230/143/355
f 212/10/356 213/143/356 230/143/356
f 212/10/357 230/143/357 231/10/357
f 231/10/358 230/143/358 233/143/358
f 230/143/359 232/144/359 231/10/359
f 230/143/359 229/145/359 232/144/359
f 229/145/360 233/143/360 230/143/360
f 229/145/361 236/145/361 233/143/361
f 234/10/362 233/143/362 237/143/362
f 233/143/363 235/144/363 234/10/363
f 231/10/364 233/143/364 234/10/364
f 233/143/363 236/145/363 235/144/363
f 236/145/365 237/143/365 233/143/365
f 234/10/366 237/143/366 238/10/366
f 236/145/367 240/145/367 237/143/367
f 237/143/368 239/144/368 238/10/368
f 237/143/368 240/145/368 239/144/368
f 235/144/369 239/144/369 240/145/369
f 235/144/370 240/145/370 236/145/370
f 235/144/371 238/10/371 239/144/371
f 235/144/372 234/10/372 238/10/372
f 232/144/373 235/144/373 236/145/373
f 232/144/374 236/145/374 229/145/374
f 232/144/375 234/10/375 235/144/375
f 232/144/376 231/10/376 234/10/376
f 228/144/377 232/144/377 229/145/377
f 228/144/378 231/10/378 232/144/378
f 228/144/379 212/10/379 231/10/379
f 211/144/380 212/10/380 228/144/380
f 213/143/353 228/144/353 212/10/353
f 241/144/381 220/144/381 223/145/381
f 241/144/382 223/145/382 242/145/382
f 242/145/383 223/145/383 222/143/383
f 222/143/384 223/145/384 220/144/384
f 243/143/385 242/145/385 241/144/385
f 242/145/386 222/143/386 243/143/386
f 244/10/387 243/143/387 222/143/387
f 243/143/385 241/144/385 244/10/385
f 241/144/388 244/10/388 219/10/388
f 244/10/389 222/143/389 219/10/389
f 241/144/390 219/10/390 220/144/390
f 222/143/384 220/144/384 219/10/384
f 245/10/391 246/143/391 249/143/391
f 246/143/392 247/144/392 245/10/392
f 247/144/393 245/10/393 248/10/393
f 245/10/394 249/143/394 248/10/394
f 250/145/395 249/143/395 246/143/395
f 250/145/396 252/145/396 249/143/396
f 248/10/397 249/143/397 253/143/397
f 249/143/398 251/144/398 248/10/398
f 249/143/398 252/145/398 251/144/398
f 252/145/399 253/143/399 249/143/399
f 252/145/400 255/145/400 253/143/400
f 254/10/401 253/143/401 256/143/401
f 248/10/402 253/143/402 254/10/402
f 254/10/403 253/143/403 255/145/403
f 255/145/404 256/143/404 253/143/404
f 254/10/405 256/143/405 257/10/405
f 255/145/406 258/145/406 256/143/406
f 257/10/407 256/143/407 259/143/407
f 257/10/408 256/143/408 258/145/408
f 258/145/409 259/143/409 256/143/409
f 258/145/410 261/145/410 259/143/410
f 260/10/411 259/143/411 262/143/411
f 257/10/412 259/143/412 260/10/412
f 260/10/413 259/143/413 261/145/413
f 261/145/414 262/143/414 259/143/414
f 260/10/415 262/143/415 263/10/415
f 261/145/416 264/145/416 262/143/416
f 263/10/417 262/143/417 265/143/417
f 263/10/418 262/143/418 264/145/418
f 264/145/419 265/143/419 262/143/419
f 264/145/420 267/145/420 265/143/420
f 266/10/421 265/143/421 267/145/421
f 263/10/422 265/143/422 266/10/422
f 268/144/423 269/144/423 267/145/423
f 268/144/424 267/145/424 264/145/424
f 266/10/421 267/145/421 269/144/421
f 268/144/425 266/10/425 269/144/425
f 270/144/426 268/144/426 264/145/426
f 263/10/418 264/145/418 268/144/418
f 268/144/427 263/10/427 266/10/427
f 270/144/428 263/10/428 268/144/428
f 271/144/429 270/144/429 261/145/429
f 271/144/430 260/10/430 270/144/430
f 270/144/431 260/10/431 263/10/431
f 260/10/413 261/145/413 270/144/413
f 270/144/432 264/145/432 261/145/432
f 272/144/433 271/144/433 258/145/433
f 257/10/408 258/145/408 271/144/408
f 271/144/434 261/145/434 258/145/434
f 271/144/435 257/10/435 260/10/435
f 272/144/436 257/10/436 271/144/436
f 251/144/437 272/144/437 255/145/437
f 251/144/438 254/10/438 272/144/438
f 272/144/439 254/10/439 257/10/439
f 254/10/403 255/145/403 272/144/403
f 272/144/440 258/145/440 255/145/440
f 251/144/441 255/145/441 252/145/441
f 251/144/442 248/10/442 254/10/442
f 247/144/443 251/144/443 252/145/443
f 247/144/444 252/145/444 250/145/444
f 247/144/445 248/10/445 251/144/445
f 246/143/392 250/145/392 247/144/392
f 274/144/446 273/10/446 276/10/446
f 273/10/447 275/145/447 274/144/447
f 273/10/447 278/143/447 275/145/447
f 273/10/448 277/143/448 276/10/448
f 273/10/449 278/143/449 277/143/449
f 275/145/450 277/143/450 278/143/450
f 275/145/451 279/145/451 277/143/451
f 276/10/452 277/143/452 280/143/452
f 276/10/453 277/143/453 279/145/453
f 279/145/454 280/143/454 277/143/454
f 276/10/455 280/143/455 281/10/455
f 279/145/456 282/145/456 280/143/456
f 281/10/457 280/143/457 283/143/457
f 281/10/458 280/143/458 282/145/458
f 282/145/459 283/143/459 280/143/459
f 282/145/460 285/145/460 283/143/460
f 284/10/461 283/143/461 285/145/461
f 281/10/462 283/143/462 284/10/462
f 286/144/463 287/144/463 285/145/463
f 286/144/464 285/145/464 282/145/464
f 284/10/461 285/145/461 287/144/461
f 286/144/465 284/10/465 287/144/465
f 288/144/466 286/144/466 282/145/466
f 281/10/458 282/145/458 286/144/458
f 286/144/467 281/10/467 284/10/467
f 288/144/468 281/10/468 286/144/468
f 274/144/469 288/144/469 279/145/469
f 274/144/470 276/10/470 288/144/470
f 288/144/471 276/10/471 281/10/471
f 276/10/453 279/145/453 288/144/453
f 288/144/472 282/145/472 279/145/472
f 274/144/473 279/145/473 275/145/473
f 290/144/474 289/10/474 292/10/474
f 289/10/475 291/145/475 290/144/475
f 289/10/475 294/143/475 291/145/475
f 289/10/476 293/143/476 292/10/476
f 289/10/477 294/143/477 293/143/477
f 291/145/478 293/143/478 294/143/478
f 291/145/479 295/145/479 293/143/479
f 292/10/480 293/143/480 296/143/480
f 292/10/481 293/143/481 295/145/481
f 295/145/482 296/143/482 293/143/482
f 292/10/483 296/143/483 297/10/483
f 295/145/484 298/145/484 296/143/484
f 297/10/485 296/143/485 299/143/485
f 297/10/486 296/143/486 298/145/486
f 298/145/487 299/143/487 296/143/487
f 298/145/488 301/145/488 299/143/488
f 300/10/489 299/143/489 301/145/489
f 297/10/490 299/143/490 300/10/490
f 302/144/491 303/144/491 301/145/491
f 302/144/492 301/145/492 298/145/492
f 300/10/489 301/145/489 303/144/489
f 302/144/493 300/10/493 303/144/493
f 304/144/494 302/144/494 298/145/494
f 297/10/486 298/145/486 302/144/486
f 302/144/495 297/10/495 300/10/495
f 304/144/496 297/10/496 302/144/496
f 290/144/497 304/144/497 295/145/497
f 290/144/498 292/10/498 304/144/498
f 304/144/499 292/10/499 297/10/499
f 292/10/481 295/145/481 304/144/481
f 304/144/500 298/145/500 295/145/500
f 290/144/501 295/145/501 291/145/501
f 306/144/502 305/10/502 308/10/502
f 305/10/503 307/145/503 306/144/503
f 305/10/503 310/143/504 307/145/503
f 305/10/505 309/143/505 308/10/505
f 305/10/506 310/143/506 309/143/506
f 307/145/507 309/143/507 310/143/507
f 307/145/508 311/145/508 309/143/508
f 308/10/509 309/143/509 312/143/509
f 308/10/510 309/143/510 311/145/510
f 311/145/511 312/143/511 309/143/511
f 308/10/512 312/143/512 313/10/512
f 311/145/513 314/145/513 312/143/513
f 313/10/514 312/143/514 315/143/514
f 313/10/515 312/143/515 314/145/515
f 314/145/516 315/143/516 312/143/516
f 314/145/517 317/145/517 315/143/517
f 316/10/518 315/143/518 318/143/518
f 313/10/519 315/143/519 316/10/519
f 316/10/520 315/143/520 317/145/520
f 317/145/521 318/143/521 315/143/521
f 316/10/522 318/143/522 319/10/522
f 317/145/523 320/145/523 318/143/523
f 319/10/524 318/143/524 321/143/524
f 319/10/525 318/143/525 320/145/525
f 320/145/526 321/143/526 318/143/526
f 320/145/527 323/145/527 321/143/527
f 322/10/528 321/143/528 324/143/528
f 319/10/529 321/143/529 322/10/529
f 322/10/530 321/143/530 323/145/530
f 323/145/531 324/143/531 321/143/531
f 322/10/532 324/143/532 325/10/532
f 323/145/533 326/145/533 324/143/533
f 325/10/534 324/143/534 327/143/534
f 325/10/535 324/143/535 326/145/535
f 326/145/536 327/143/536 324/143/536
f 326/145/537 329/145/537 327/143/537
f 328/10/538 327/143/538 329/145/538
f 325/10/539 327/143/539 328/10/539
f 330/144/540 331/144/540 329/145/540
f 330/144/541 329/145/541 326/145/541
f 328/10/538 329/145/538 331/144/538
f 330/144/542 328/10/542 331/144/542
f 332/144/543 330/144/543 326/145/543
f 325/10/535 326/145/535 330/144/535
f 330/144/544 325/10/544 328/10/544
f 332/144/545 325/10/545 330/144/545
f 333/144/546 332/144/546 323/145/546
f 333/144/547 322/10/547 332/144/547
f 332/144/548 322/10/548 325/10/548
f 322/10/530 323/145/530 332/144/530
f 332/144/549 326/145/549 323/145/549
f 334/144/550 333/144/550 320/145/550
f 319/10/525 320/145/525 333/144/525
f 333/144/551 323/145/551 320/145/551
f 333/144/552 319/10/552 322/10/552
f 334/144/553 319/10/553 333/144/553
f 335/144/554 334/144/554 317/145/554
f 335/144/555 316/10/555 334/144/555
f 334/144/556 316/10/556 319/10/556
f 316/10/520 317/145/520 334/144/520
f 334/144/557 320/145/557 317/145/557
f 336/144/558 335/144/558 314/145/558
f 313/10/515 314/145/515 335/144/515
f 335/144/559 317/145/559 314/145/559
f 335/144/560 313/10/560 316/10/560
f 336/144/561 313/10/561 335/144/561
f 306/144/562 336/144/562 311/145/562
f 306/144/563 308/10/563 336/144/563
f 336/144/564 308/10/564 313/10/564
f 308/10/510 311/145/510 336/144/510
f 336/144/565 314/145/565 311/145/565
f 306/144/566 311/145/566 307/145/566
f 338/144/567 337/10/567 340/10/567
f 337/10/568 339/145/568 338/144/568
f 337/10/568 342/143/568 339/145/568
f 337/10/569 341/143/569 340/10/569
f 337/10/570 342/143/570 341/143/570
f 339/145/571 341/143/571 342/143/571
f 339/145/572 343/145/572 341/143/572
f 340/10/573 341/143/573 344/143/573
f 340/10/574 341/143/574 343/145/574
f 343/145/575 344/143/575 341/143/575
f 340/10/576 344/143/576 345/10/576
f 343/145/577 346/145/577 344/143/577
f 345/10/578 344/143/578 347/143/578
f 345/10/579 344/143/579 346/145/579
f 346/145/580 347/143/580 344/143/580
f 346/145/581 349/145/581 347/143/581
f 348/10/582 347/143/582 350/143/582
f 345/10/583 347/143/583 348/10/583
f 348/10/584 347/143/584 349/145/584
f 349/145/585 350/143/585 347/143/585
f 348/10/586 350/143/586 351/10/586
f 349/145/587 352/145/587 350/143/587
f 351/10/588 350/143/588 353/143/588
f 351/10/589 350/143/589 352/145/589
f 352/145/590 353/143/590 350/143/590
f 352/145/591 355/145/591 353/143/591
f 354/10/592 353/143/592 356/143/592
f 351/10/593 353/143/593 354/10/593
f 354/10/594 353/143/594 355/145/594
f 355/145/595 356/143/595 353/143/595
f 354/10/596 356/143/596 357/10/596
f 355/145/597 358/145/597 356/143/597
f 357/10/598 356/143/598 359/143/598
f 357/10/599 356/143/599 358/145/599
f 358/145/600 359/143/600 356/143/600
f 358/145/601 361/145/601 359/143/601
f 360/10/602 359/143/602 362/143/602
f 357/10/603 359/143/603 360/10/603
f 360/10/604 359/143/604 361/145/604
f 361/145/605 362/143/605 359/143/605
f 360/10/606 362/143/606 363/10/606
f 361/145/607 364/145/607 362/143/607
f 363/10/608 362/143/608 365/143/608
f 363/10/609 362/143/609 364/145/609
f 364/145/610 365/143/610 362/143/610
f 364/145/611 367/145/611 365/143/611
f 366/10/612 365/143/612 368/143/612
f 363/10/613 365/143/613 366/10/613
f 366/10/614 365/143/614 367/145/614
f 367/145/615 368/143/615 365/143/615
f 366/10/616 368/143/616 369/10/616
f 367/145/617 371/145/617 368/143/617
f 368/143/618 370/144/618 369/10/618
f 368/143/618 371/145/618 370/144/618
f 372/144/619 370/144/619 371/145/619
f 372/144/620 371/145/620 367/145/620
f 373/144/621 372/144/621 367/145/621
f 373/144/622 366/10/622 372/144/622
f 372/144/623 366/10/623 369/10/623
f 366/10/614 367/145/614 372/144/614
f 372/144/624 369/10/624 370/144/624
f 374/144/625 373/144/625 364/145/625
f 363/10/609 364/145/609 373/144/609
f 373/144/626 367/145/626 364/145/626
f 373/144/627 363/10/627 366/10/627
f 374/144/628 363/10/628 373/144/628
f 375/144/629 374/144/629 361/145/629
f 375/144/630 360/10/630 374/144/630
f 374/144/631 360/10/631 363/10/631
f 360/10/604 361/145/604 374/144/604
f 374/144/632 364/145/632 361/145/632
f 376/144/633 375/144/633 358/145/633
f 357/10/599 358/145/599 375/144/599
f 375/144/634 361/145/634 358/145/634
f 375/144/635 357/10/635 360/10/635
f 376/144/636 357/10/636 375/144/636
f 377/144/637 376/144/637 355/145/637
f 377/144/638 354/10/638 376/144/638
f 376/144/639 354/10/639 357/10/639
f 354/10/594 355/145/594 376/144/594
f 376/144/640 358/145/640 355/145/640
f 378/144/641 377/144/641 352/145/641
f 351/10/589 352/145/589 377/144/589
f 377/144/642 355/145/642 352/145/642
f 377/144/643 351/10/643 354/10/643
f 378/144/644 351/10/644 377/144/644
f 379/144/645 378/144/645 349/145/645
f 379/144/646 348/10/646 378/144/646
f 378/144/647 348/10/647 351/10/647
f 348/10/584 349/145/584 378/144/584
f 378/144/648 352/145/648 349/145/648
f 380/144/649 379/144/649 346/145/649
f 345/10/579 346/145/579 379/144/579
f 379/144/650 349/145/650 346/145/650
f 379/144/651 345/10/651 348/10/651
f 380/144/652 345/10/652 379/144/652
f 338/144/653 380/144/653 343/145/653
f 338/144/654 340/10/654 380/144/654
f 380/144/655 340/10/655 345/10/655
f 340/10/574 343/145/574 380/144/574
f 380/144/656 346/145/656 343/145/656
f 338/144/657 343/145/657 339/145/657
f 381/10/658 382/143/658 385/143/658
f 382/143/659 383/144/659 381/10/659
f 383/144/660 381/10/660 384/10/660
f 381/10/661 385/143/661 384/10/661
f 386/145/662 385/143/662 382/143/662
f 386/145/663 390/145/663 385/143/663
f 384/10/664 385/143/664 388/143/664
f 385/143/665 387/144/665 384/10/665
f 385/143/665 390/145/665 387/144/665
f 385/143/666 389/145/666 388/143/666
f 385/143/667 390/145/667 389/145/667
f 383/144/668 387/144/668 390/145/668
f 387/144/669 389/145/669 390/145/669
f 383/144/670 390/145/670 386/145/670
f 387/144/671 391/144/671 389/145/671
f 388/143/672 389/145/672 392/145/672
f 388/143/673 389/145/673 391/144/673
f 391/144/674 392/145/674 389/145/674
f 391/144/675 393/144/675 392/145/675
f 394/143/676 392/145/676 393/144/676
f 388/143/677 392/145/677 394/143/677
f 395/10/678 388/143/678 394/143/678
f 395/10/679 394/143/679 396/10/679
f 394/143/676 393/144/676 396/10/676
f 391/144/680 395/10/680 396/10/680
f 391/144/681 396/10/681 393/144/681
f 387/144/682 384/10/682 395/10/682
f 387/144/683 395/10/683 391/144/683
f 388/143/673 391/144/673 395/10/673
f 384/10/684 388/143/684 395/10/684
f 383/144/685 384/10/685 387/144/685
f 382/143/659 386/145/659 383/144/659
f 397/10/686 398/143/686 401/143/686
f 398/143/687 399/144/687 397/10/687
f 397/10/688 402/144/688 399/144/688
f 397/10/689 400/10/689 402/144/689
f 397/10/690 401/143/690 400/10/690
f 399/144/691 402/144/691 403/145/691
f 401/143/692 403/145/692 402/144/692
f 401/143/692 402/144/692 400/10/692
f 398/143/693 404/145/693 403/145/693
f 398/143/694 403/145/694 401/143/694
f 399/144/695 403/145/695 404/145/695
f 398/143/687 404/145/687 399/144/687
f 405/10/696 406/143/696 409/143/696
f 406/143/697 407/144/697 405/10/697
f 407/144/698 405/10/698 408/10/698
f 405/10/699 409/143/699 408/10/699
f 406/143/700 411/145/700 409/143/700
f 408/10/701 409/143/701 412/143/701
f 409/143/702 410/144/702 408/10/702
f 409/143/702 411/145/702 410/144/702
f 409/143/703 411/145/703 413/145/703
f 409/143/704 413/145/704 412/143/704
f 410/144/705 414/144/705 413/145/705
f 410/144/706 413/145/706 411/145/706
f 412/143/707 413/145/707 415/145/707
f 412/143/708 413/145/708 414/144/708
f 414/144/709 415/145/709 413/145/709
f 414/144/710 416/144/710 415/145/710
f 416/144/711 417/145/711 415/145/711
f 418/143/712 415/145/712 416/144/712
f 418/143/713 415/145/713 417/145/713
f 412/143/714 415/145/714 418/143/714
f 419/10/715 412/143/715 418/143/715
f 419/10/716 418/143/716 420/10/716
f 420/10/717 418/143/717 421/143/717
f 418/143/712 416/144/712 420/10/712
f 418/143/718 417/145/718 421/143/718
f 422/10/719 421/143/719 424/143/719
f 421/143/720 423/144/720 422/10/720
f 420/10/721 421/143/721 422/10/721
f 421/143/720 417/145/720 423/144/720
f 421/143/722 417/145/722 425/145/722
f 421/143/723 425/145/723 424/143/723
f 423/144/724 426/144/724 425/145/724
f 426/144/725 428/145/725 425/145/725
f 424/143/726 425/145/726 426/144/726
f 425/145/727 428/145/727 427/143/727
f 425/145/728 427/143/728 424/143/728
f 423/144/729 425/145/729 417/145/729
f 426/144/730 429/144/730 428/145/730
f 428/145/731 431/143/731 427/143/731
f 427/143/732 428/145/732 429/144/732
f 429/144/733 430/145/733 428/145/733
f 428/145/734 430/145/734 431/143/734
f 432/10/735 427/143/735 431/143/735
f 432/10/736 431/143/736 433/10/736
f 431/143/737 434/144/737 433/10/737
f 431/143/737 430/145/737 434/144/737
f 429/144/738 434/144/738 430/145/738
f 429/144/739 433/10/739 434/144/739
f 429/144/740 432/10/740 433/10/740
f 426/144/741 435/10/741 432/10/741
f 426/144/742 432/10/742 429/144/742
f 427/143/732 429/144/732 432/10/732
f 435/10/743 427/143/743 432/10/743
f 423/144/744 422/10/744 435/10/744
f 422/10/745 424/143/745 435/10/745
f 423/144/746 435/10/746 426/144/746
f 435/10/747 424/143/747 427/143/747
f 424/143/726 426/144/726 435/10/726
f 416/144/748 423/144/748 417/145/748
f 416/144/749 422/10/749 423/144/749
f 416/144/750 420/10/750 422/10/750
f 414/144/751 419/10/751 420/10/751
f 414/144/752 420/10/752 416/144/752
f 410/144/753 408/10/753 419/10/753
f 410/144/754 419/10/754 414/144/754
f 412/143/708 414/144/708 419/10/708
f 408/10/755 412/143/755 419/10/755
f 407/144/756 410/144/756 411/145/756
f 406/143/757 436/145/757 411/145/757
f 407/144/758 411/145/758 436/145/758
f 406/143/697 436/145/697 407/144/697
f 407/144/759 408/10/759 410/144/759
f 437/10/760 438/143/760 441/143/760
f 438/143/761 439/144/761 437/10/761
f 439/144/762 437/10/762 440/10/762
f 437/10/763 441/143/763 440/10/763
f 442/145/764 441/143/764 438/143/764
f 442/145/765 444/145/765 441/143/765
f 440/10/766 441/143/766 445/143/766
f 441/143/767 443/144/767 440/10/767
f 441/143/767 444/145/767 443/144/767
f 444/145/768 445/143/768 441/143/768
f 444/145/769 448/145/769 445/143/769
f 446/10/770 445/143/770 449/143/770
f 445/143/771 447/144/771 446/10/771
f 440/10/772 445/143/772 446/10/772
f 445/143/771 448/145/771 447/144/771
f 448/145/773 449/143/773 445/143/773
f 446/10/774 449/143/774 450/10/774
f 448/145/775 452/145/775 449/143/775
f 450/10/776 449/143/776 453/143/776
f 449/143/777 451/144/777 450/10/777
f 449/143/777 452/145/777 451/144/777
f 452/145/778 453/143/778 449/143/778
f 452/145/779 456/145/779 453/143/779
f 454/10/780 453/143/780 457/143/780
f 453/143/781 455/144/781 454/10/781
f 450/10/782 453/143/782 454/10/782
f 453/143/781 456/145/781 455/144/781
f 456/145/783 457/143/783 453/143/783
f 454/10/784 457/143/784 458/10/784
f 456/145/785 460/145/785 457/143/785
f 458/10/786 457/143/786 461/143/786
f 457/143/787 459/144/787 458/10/787
f 457/143/787 460/145/787 459/144/787
f 460/145/788 461/143/788 457/143/788
f 460/145/789 464/145/789 461/143/789
f 458/10/790 461/143/790 462/10/790
f 461/143/791 463/144/791 462/10/791
f 461/143/791 464/145/791 463/144/791
f 459/144/792 463/144/792 464/145/792
f 459/144/793 464/145/793 460/145/793
f 459/144/794 462/10/794 463/144/794
f 459/144/795 458/10/795 462/10/795
f 455/144/796 459/144/796 460/145/796
f 455/144/797 460/145/797 456/145/797
f 455/144/798 458/10/798 459/144/798
f 455/144/799 454/10/799 458/10/799
f 451/144/800 455/144/800 456/145/800
f 451/144/801 456/145/801 452/145/801
f 451/144/802 454/10/802 455/144/802
f 451/144/803 450/10/803 454/10/803
f 447/144/804 451/144/804 452/145/804
f 447/144/805 452/145/805 448/145/805
f 447/144/806 450/10/806 451/144/806
f 447/144/807 446/10/807 450/10/807
f 443/144/808 447/144/808 448/145/808
f 443/144/809 448/145/809 444/145/809
f 443/144/810 446/10/810 447/144/810
f 443/144/811 440/10/811 446/10/811
f 439/144/812 443/144/812 444/145/812
f 439/144/813 444/145/813 442/145/813
f 439/144/814 440/10/814 443/144/814
f 438/143/761 442/145/761 439/144/761
