# Blender 5.2.2 LTS
# www.blender.org
mtllib finalBossHand_3.mtl
o 立方体.007
v -1.472386 -13.652786 3.474739
v -1.379075 -13.610222 3.434578
v -2.515102 -10.624866 3.381120
v -1.277276 -14.320272 3.178740
v -1.514812 -14.393406 3.221365
v -1.572587 -13.688231 3.472378
v -1.332219 -14.893040 3.244082
v -1.575892 -13.530107 2.866420
v -1.700515 -13.466961 2.882195
v -1.497215 -13.376301 2.841116
v -2.611137 -10.589081 2.782377
v -2.731159 -10.608648 2.804427
v -4.463500 -8.025547 2.330102
v -2.560161 -10.438755 2.759292
v -1.466624 -13.054676 2.811220
v -4.393265 -7.905412 2.286440
v -2.577565 -10.182768 2.735698
v -1.478423 -12.642170 2.783407
v -2.645581 -9.872625 2.711572
v -4.355810 -7.722559 2.208315
v -4.323569 -7.522480 2.105583
v -4.706673 -4.591025 -0.612496
v -4.609567 -4.521654 -0.662772
v -4.822343 -0.745184 -2.120564
v -4.719043 -0.785027 -2.113553
v -4.524658 -4.423188 -0.726124
v -4.626731 -0.816784 -2.103878
v -4.453435 -4.301320 -0.795607
v -4.282649 -7.336327 1.987202
v -4.185957 -6.978881 1.602698
v -3.056977 -8.896212 2.619140
v -2.751469 -9.543575 2.687233
v -1.720653 -11.310987 2.732579
v -1.526610 -12.194698 2.762786
v -1.575997 -11.613228 2.851041
v -1.396886 -12.423416 2.923163
v -1.308847 -13.053509 3.004446
v -1.297034 -12.869457 3.134074
v -1.371112 -12.385126 3.021382
v -2.464803 -9.952433 3.058333
v -1.545150 -11.670448 2.933718
v -2.607355 -9.599300 2.948166
v -4.244504 -7.302986 2.410810
v -4.202682 -7.191216 2.216914
v -2.875673 -9.090073 2.842374
v -1.921493 -10.583916 2.843817
v -3.392458 -8.316135 2.665312
v -4.147187 -7.004828 1.954859
v -4.091647 -6.281079 1.173718
v -4.328249 -4.057995 -0.704095
v -4.372362 -4.236420 -0.529306
v -4.487430 -0.904114 -1.807988
v -4.553693 -0.906113 -1.722848
v -4.424948 -4.307148 -0.382478
v -4.634360 -0.895030 -1.633356
v -4.493436 -4.340342 -0.250555
v -4.575968 -4.343108 -0.148859
v -4.726281 -0.884429 -1.552352
v -4.295980 -7.399896 2.581050
v -2.387988 -10.242065 3.166141
v -4.367041 -7.453596 2.706640
v -2.385694 -10.431746 3.263051
v -4.669466 -4.331315 -0.083842
v -4.458821 -7.462448 2.781101
v -4.769945 -4.326797 -0.055443
v -4.560292 -7.466218 2.813086
v -2.436959 -10.545170 3.338891
v -1.306938 -13.504017 3.357488
v -1.275424 -13.261059 3.252621
v -1.267515 -13.699537 3.093788
v -4.660156 -7.508404 2.812870
v -2.599543 -10.702852 3.381480
v -1.685629 -13.660728 3.432102
v -2.703565 -10.742908 3.346554
v -4.760895 -7.550876 2.770156
v -2.844542 -10.702354 3.287150
v -1.821294 -13.503895 3.362797
v -1.716264 -13.873795 3.180396
v -1.982625 -13.211393 3.277913
v -1.931036 -13.349539 3.132920
v -2.026051 -12.939655 2.901734
v -1.855129 -13.243887 2.892091
v -2.149065 -12.849308 3.088001
v -2.203242 -12.605913 2.914734
v -2.445245 -12.215441 3.055170
v -2.162115 -12.835426 3.195039
v -2.416182 -12.264723 3.137196
v -3.256023 -10.343555 3.126618
v -3.033577 -10.558714 3.211584
v -4.977934 -7.430470 2.517793
v -4.868449 -7.533901 2.671721
v -5.074227 -4.378199 -0.191139
v -4.975895 -4.368646 -0.108051
v -4.873298 -4.344206 -0.063091
v -5.137045 -0.825089 -1.548051
v -5.035446 -0.848245 -1.490265
v -4.930385 -0.868034 -1.468943
v -4.514787 2.843085 -1.382799
v -4.594781 2.927905 -1.448727
v -4.670521 2.996165 -1.546721
v -3.645511 5.209146 -1.192150
v -3.544430 5.181052 -1.103377
v -1.377264 6.102291 -2.401017
v -1.521750 6.219422 -2.411673
v -3.473006 5.096340 -1.031766
v -3.408108 4.991694 -0.997417
v -1.309129 5.994344 -2.345511
v -4.426190 2.768685 -1.357131
v -4.327147 2.724768 -1.375944
v -3.332534 4.896671 -1.014179
v -3.268014 4.790769 -1.068575
v -1.275235 5.644216 -2.318398
v -1.256957 5.761103 -2.303226
v -1.225439 5.469378 -2.762227
v -1.015936 5.477090 -2.996213
v -1.278222 5.884267 -2.298547
v -0.841430 5.479379 -3.215098
v -1.079920 5.742131 -3.049110
v -1.496969 5.697691 -2.968421
v -1.580175 5.838390 -2.931937
v -1.349217 5.992159 -2.860858
v -1.686465 6.211188 -2.612314
v -1.742488 5.993577 -2.810202
v -3.426872 5.088620 -1.702365
v -1.948175 6.129763 -2.653677
v -3.569360 5.095747 -1.692451
v -3.723158 5.061911 -1.677477
v -4.484649 3.227250 -2.032341
v -4.372892 3.223863 -2.011764
v -4.267229 3.178430 -1.998854
v -5.044876 -0.704122 -2.123056
v -4.933473 -0.714285 -2.123863
v -4.178436 3.084257 -1.999772
v -4.923405 -4.605832 -0.589893
v -4.813592 -4.621608 -0.585510
v -4.585515 -8.037931 2.330531
v -4.739928 -7.940718 2.290192
v -2.902257 -10.519831 2.822529
v -3.099319 -10.372124 2.834986
v -4.894649 -7.756073 2.213444
v -3.306575 -10.196095 2.840982
v -2.551169 -11.933355 2.932857
v -3.718228 -9.808750 2.810283
v -5.024014 -7.508463 2.103708
v -5.154313 -6.936730 1.695204
v -5.206471 -4.356600 -0.717634
v -5.123128 -4.465856 -0.663947
v -5.241530 -0.706592 -2.110078
v -5.148725 -0.706975 -2.118129
v -5.027930 -4.550748 -0.619204
v -4.592450 3.206639 -2.051904
v -4.689015 3.176601 -2.063964
v -3.867981 5.007471 -1.660946
v -4.082908 4.891409 -1.644445
v -2.551198 6.298778 -2.247595
v -2.165879 6.228255 -2.495130
v -2.416036 6.385951 -2.200722
v -2.021792 6.332860 -2.414164
v -2.022606 6.397525 -2.283275
v -1.750941 6.327777 -2.364486
v -3.776195 5.171961 -1.284054
v -4.742323 3.036007 -1.662337
v -3.913331 5.091564 -1.369106
v -2.380902 6.417901 -2.121002
v -4.805867 3.052269 -1.774250
v -4.078860 4.948665 -1.424712
v -4.228223 4.840381 -1.491363
v -4.877242 3.029958 -1.857865
v -2.763792 6.371429 -1.978879
v -2.758751 6.358008 -2.025636
v -3.003374 6.285315 -1.916170
v -2.880798 6.273277 -2.053956
v -3.047725 6.239864 -1.946798
v -4.320962 4.752721 -1.554368
v -4.935205 3.089039 -1.922995
v -4.328993 4.721000 -1.610540
v -4.968778 3.112924 -1.984177
v -5.541749 -0.159849 -2.055042
v -4.962790 3.108950 -2.044558
v -5.538971 -0.205194 -2.099461
v -5.485053 0.014313 -2.159402
v -4.878616 3.230097 -2.041148
v -4.218187 4.831361 -1.629146
v -4.820513 3.138377 -2.075387
v -5.428794 -0.557176 -2.101153
v -5.321035 -0.689052 -2.099869
v -5.328800 -4.077831 -0.861457
v -5.266805 -5.980714 0.718672
v -5.439589 -3.422340 -1.181585
v -5.473186 -3.528669 -1.096309
v -5.476058 -3.484250 -1.065800
v -5.300253 -5.983778 0.842900
v -5.298461 -6.031080 0.819875
v -4.606592 -9.009708 2.772534
v -4.561526 -9.061390 2.723785
v -4.540834 -9.016880 2.679979
v -3.120285 -10.890570 2.951432
v -2.842623 -11.426826 3.042798
v -3.145185 -10.927446 3.035270
v -3.148343 -10.922556 2.986995
v -4.105618 -9.459661 2.875056
v -2.853197 -11.404175 3.080651
v -3.574610 -9.997261 3.041398
v -5.071773 -7.252524 2.324070
v -5.138710 -6.940715 2.044477
v -5.242156 -4.297348 -0.440077
v -5.318859 -4.131208 -0.603352
v -5.227369 -6.346661 1.305465
v -5.420574 -3.720416 -0.893607
v -5.443422 -0.687814 -1.872242
v -5.509278 -0.341053 -1.980551
v -5.381177 -0.763452 -1.806758
v -5.313480 -0.790445 -1.719391
v -5.164415 -4.356910 -0.306678
v -5.230989 -0.806575 -1.628784
v -3.278388 4.878451 -1.680280
v -3.274887 4.698695 -1.652397
v -4.107891 2.960777 -2.009240
v -3.288215 4.510071 -1.624686
v -4.051009 2.830908 -2.019009
v -3.303918 4.334422 -1.600077
v -4.004632 2.710839 -2.022923
v -3.326734 4.073563 -1.576958
v -3.937414 2.552866 -2.023479
v -4.547502 -0.827392 -2.092336
v -4.364358 -4.011197 -0.949851
v -4.437980 -0.745830 -2.090009
v -4.316933 -3.354170 -1.262543
v -4.345020 -0.273610 -2.135938
v -3.857875 2.396406 -1.982361
v -3.855523 2.546347 -1.981703
v -4.312413 -0.481026 -2.080435
v -4.270693 -3.453286 -1.187753
v -4.264556 -3.407446 -1.158508
v -4.307047 -0.441314 -2.036966
v -4.351066 -0.580369 -1.969092
v -3.855381 2.396901 -1.923610
v -3.893243 2.420731 -1.868267
v -3.964941 2.448621 -1.811908
v -3.320865 3.910892 -1.422696
v -3.333498 3.785691 -1.484465
v -2.357135 4.951458 -1.734925
v -2.395879 4.925482 -1.768968
v -3.345209 3.767022 -1.540589
v -3.319596 3.913643 -1.557729
v -2.299378 5.029819 -1.878788
v -2.199554 5.092161 -1.844827
v -2.101888 5.204956 -2.081861
v -1.867251 5.369081 -2.353215
v -1.984418 5.247915 -2.025069
v -1.721612 5.380094 -2.254673
v -1.709743 5.387441 -2.116416
v -1.958162 5.274601 -1.945162
v -3.264434 4.306424 -1.303666
v -2.200524 5.093874 -1.797578
v -3.309316 4.097893 -1.358549
v -4.007154 2.537687 -1.735450
v -4.063763 2.598558 -1.631505
v -3.241994 4.480682 -1.224259
v -4.137500 2.653717 -1.524333
v -4.227283 2.693775 -1.434453
v -3.237636 4.650918 -1.142607
v -1.364256 5.550122 -2.292810
v -1.521126 5.470524 -2.216698
v -1.482759 5.449460 -2.476858
v -1.605245 5.522585 -2.725580
v -1.732565 5.449712 -2.536198
v -1.514050 5.597051 -2.887337
v -3.323571 5.018071 -1.699526
v -4.826103 -0.877776 -1.492897
v -4.425967 -0.857538 -1.870490
v -4.288579 -3.643737 -0.990155
v -4.090477 -5.943293 0.714309
v -4.097604 -5.991066 0.691924
v -3.713638 -7.909501 2.520495
v -2.195966 -9.966400 2.783328
v -3.698368 -7.936477 2.476149
v -3.737155 -7.965723 2.449404
v -2.241423 -10.000561 2.718137
v -2.206346 -9.968668 2.736950
v -1.915986 -10.616743 2.807776
v -4.146165 -5.941144 0.599190
vn -0.4735 0.2377 -0.8481
vn -0.3350 -0.1442 -0.9311
vn 0.0217 -0.0231 -0.9995
vn 0.0271 -0.0214 -0.9994
vn 0.0307 -0.0203 -0.9993
vn -0.8206 0.0135 -0.5714
vn 0.6609 0.2088 -0.7209
vn -0.0935 0.3271 -0.9404
vn -0.5049 0.1455 0.8508
vn 0.7431 0.2988 0.5988
vn 0.3034 0.3806 0.8735
vn 0.1669 0.0869 0.9821
vn 0.1685 0.0874 0.9818
vn 0.1679 0.0872 0.9819
vn -0.2413 0.2765 0.9302
vn 0.1550 0.0827 0.9845
vn 0.1663 0.0867 0.9823
vn 0.1758 0.0909 0.9802
vn 0.1324 0.2642 0.9553
vn -0.0213 0.1588 0.9871
vn 0.2012 0.1035 0.9741
vn 0.1406 0.0784 0.9870
vn -0.1422 0.0813 0.9865
vn 0.1289 0.2713 0.9538
vn 0.2097 0.3475 0.9139
vn 0.1138 0.0701 0.9910
vn 0.2464 0.1288 0.9606
vn -0.2618 0.0177 0.9650
vn 0.2559 0.4086 0.8761
vn -0.7841 0.3788 0.4916
vn -0.7695 0.3776 0.5150
vn -0.0867 0.6614 0.7450
vn 0.2112 0.3623 0.9078
vn 0.0769 0.3628 0.9287
vn -0.2123 0.6516 0.7283
vn 0.2570 0.3563 0.8983
vn -0.5965 0.5200 0.6115
vn 0.0251 0.3574 0.9336
vn 0.2749 0.3499 0.8955
vn -0.3754 0.6148 0.6936
vn 0.4261 0.6067 0.6711
vn 0.3331 0.6473 0.6856
vn -0.6703 -0.2426 0.7013
vn 0.2914 0.4669 0.8349
vn 0.5470 0.3387 0.7656
vn 0.0234 0.0393 0.9990
vn 0.3041 0.1672 0.9378
vn -0.4235 -0.0695 0.9032
vn -0.8001 -0.1559 0.5793
vn -0.8610 -0.1470 0.4868
vn -0.8171 -0.0616 0.5731
vn 0.0640 0.0528 0.9966
vn -0.8310 -0.0446 0.5546
vn -0.9660 -0.1045 0.2364
vn -0.9560 -0.0805 0.2823
vn -0.9325 -0.1782 0.3142
vn -0.6180 -0.2666 -0.7396
vn -0.9054 -0.4051 -0.1270
vn -0.9549 -0.2064 0.2135
vn -0.4239 -0.2113 -0.8807
vn -0.2269 -0.3723 -0.8999
vn -0.6589 -0.5814 -0.4773
vn 0.5724 0.1335 -0.8091
vn -0.8881 -0.4559 0.0581
vn -0.2654 -0.1704 -0.9489
vn -0.8380 -0.5352 0.1066
vn 0.7840 0.5763 0.2309
vn -0.5909 -0.5931 -0.5470
vn -0.5004 -0.6171 -0.6073
vn -0.6748 -0.5168 -0.5268
vn -0.1815 -0.6649 -0.7245
vn -0.6871 -0.5154 -0.5121
vn -0.7600 -0.2555 -0.5975
vn -0.8873 -0.1916 -0.4195
vn -0.8892 -0.1965 -0.4131
vn -0.7094 -0.5013 -0.4955
vn -0.7310 -0.2740 -0.6250
vn -0.8381 -0.2324 -0.4936
vn -0.7058 -0.5053 -0.4965
vn -0.7021 -0.5076 -0.4994
vn -0.7084 -0.5037 -0.4945
vn -0.7875 -0.4450 -0.4264
vn -0.6460 -0.5405 -0.5390
vn -0.7418 -0.2796 -0.6096
vn -0.6490 -0.3061 -0.6965
vn -0.6996 -0.5092 -0.5014
vn -0.6478 -0.5611 -0.5153
vn -0.3463 -0.4065 -0.8454
vn -0.6177 -0.5336 -0.5777
vn -0.5882 -0.5680 -0.5757
vn -0.4033 -0.4202 -0.8129
vn -0.5243 -0.4802 -0.7033
vn -0.5058 -0.6016 -0.6183
vn -0.4595 -0.6162 -0.6397
vn -0.2306 -0.6653 -0.7101
vn -0.2010 -0.6681 -0.7164
vn -0.2711 -0.3407 -0.9002
vn -0.3702 -0.3949 -0.8408
vn -0.2007 -0.2978 -0.9333
vn -0.6045 -0.2356 -0.7610
vn -0.5482 -0.2144 -0.8084
vn -0.3481 -0.1491 -0.9255
vn -0.9820 0.0485 -0.1828
vn -0.6215 -0.2411 -0.7454
vn -0.8711 0.3232 -0.3699
vn -0.7741 0.0379 0.6319
vn -0.6441 0.1313 0.7536
vn -0.9521 -0.0267 -0.3047
vn -0.6597 0.1121 0.7431
vn -0.9945 -0.0510 0.0913
vn -0.6365 -0.2554 -0.7277
vn -0.9929 -0.0192 0.1177
vn -0.7674 -0.2990 -0.5672
vn 0.2716 -0.6392 -0.7195
vn 0.0601 -0.1372 -0.9887
vn 0.1001 -0.1130 -0.9885
vn 0.3080 0.0294 -0.9509
vn 0.0181 -0.0242 -0.9995
vn 0.3543 0.0935 -0.9305
vn 0.2918 0.0738 -0.9536
vn 0.4109 0.1012 -0.9060
vn 0.3651 0.0677 -0.9285
vn 0.4161 0.1277 -0.9003
vn 0.6128 0.1913 -0.7667
vn 0.7855 0.2719 -0.5560
vn 0.7592 0.4482 -0.4718
vn 0.9134 0.3564 -0.1968
vn 0.8836 0.4533 -0.1175
vn 0.8237 0.3759 0.4245
vn 0.9172 0.3953 -0.0502
vn 0.7898 0.4299 0.4375
vn 0.8421 0.3996 0.3623
vn 0.8351 0.4300 0.3430
vn 0.8531 0.4150 0.3162
vn 0.9035 0.4250 0.0550
vn 0.8967 0.4396 0.0523
vn 0.9134 0.3981 -0.0845
vn 0.9134 0.3982 -0.0839
vn 0.9137 0.3990 -0.0775
vn 0.9137 0.3990 -0.0766
vn 0.5146 0.2030 -0.8331
vn 0.8699 0.3356 -0.3615
vn 0.8403 0.4580 -0.2900
vn 0.3869 0.0361 -0.9214
vn 0.4375 0.1060 -0.8929
vn 0.4718 0.1653 -0.8661
vn 0.4039 -0.6001 -0.6905
vn 0.5776 -0.5275 -0.6230
vn 0.5110 -0.5574 -0.6544
vn 0.6699 0.2957 -0.6810
vn 0.4432 -0.3211 -0.8369
vn 0.4382 -0.5865 -0.6812
vn 0.6372 -0.2651 -0.7237
vn 0.4097 -0.3274 -0.8515
vn 0.1210 -0.3705 -0.9209
vn 0.1172 -0.3707 -0.9213
vn 0.1266 -0.3701 -0.9203
vn 0.1990 0.0005 -0.9800
vn 0.5957 -0.0607 -0.8009
vn 0.4857 -0.0471 -0.8728
vn 0.7558 -0.0920 -0.6483
vn 0.6960 -0.2125 -0.6859
vn 0.5465 -0.1279 -0.8276
vn 0.6223 -0.1731 -0.7634
vn -0.1240 -0.6995 -0.7038
vn -0.3071 -0.4549 -0.8359
vn 0.6011 -0.1558 -0.7838
vn 0.1559 -0.8768 -0.4549
vn -0.2464 -0.5617 -0.7898
vn 0.2899 0.0151 -0.9569
vn 0.4134 -0.0422 -0.9096
vn -0.3105 -0.4648 -0.8292
vn 0.2720 -0.0081 -0.9623
vn -0.1636 0.0530 -0.9851
vn -0.0940 0.2053 -0.9742
vn -0.0115 0.1648 -0.9863
vn -0.2962 0.2874 -0.9109
vn -0.5556 0.0863 -0.8270
vn -0.5744 0.1931 -0.7955
vn -0.4525 -0.2069 -0.8674
vn -0.5539 0.6849 -0.4734
vn -0.9685 0.1745 -0.1774
vn -0.9511 -0.1540 -0.2677
vn -0.5039 -0.0543 -0.8621
vn -0.3226 -0.4466 -0.8345
vn -0.9242 -0.3365 -0.1805
vn -0.7627 -0.6418 -0.0800
vn -0.6857 0.4863 -0.5416
vn 0.2145 -0.3751 0.9018
vn 0.2019 -0.1323 0.9704
vn 0.0949 -0.5316 0.8417
vn -0.6587 -0.7504 0.0544
vn -0.8593 -0.5069 0.0690
vn -0.6295 -0.7634 0.1444
vn -0.3418 -0.8849 0.3164
vn -0.3487 -0.8801 0.3223
vn -0.3414 -0.8850 0.3166
vn 0.0910 -0.6833 0.7244
vn 0.0975 -0.6833 0.7236
vn 0.0909 -0.6827 0.7250
vn 0.1053 -0.5432 0.8329
vn 0.0843 0.7051 0.7041
vn 0.5677 -0.0508 0.8217
vn 0.0982 -0.6833 0.7235
vn 0.5565 -0.1065 0.8240
vn -0.1049 0.7603 0.6410
vn 0.1475 -0.2465 0.9579
vn -0.1830 -0.0885 0.9791
vn 0.0585 -0.1922 0.9796
vn -0.1810 0.0031 0.9835
vn -0.1257 -0.0104 0.9920
vn -0.1563 -0.0840 0.9841
vn 0.0046 -0.0291 0.9996
vn -0.0201 -0.0287 0.9994
vn 0.0402 0.3665 0.9295
vn -0.0367 -0.0253 0.9990
vn 0.0156 0.3667 0.9302
vn 0.1277 0.3667 0.9215
vn 0.0742 0.3660 0.9277
vn -0.4918 0.5367 0.6856
vn 0.0016 0.6584 0.7526
vn -0.0628 0.6455 0.7612
vn 0.0632 0.6504 0.7570
vn 0.2146 0.6451 0.7333
vn -0.2315 0.0357 0.9722
vn 0.2850 0.3687 0.8848
vn -0.0139 0.1715 0.9851
vn 0.1192 0.0756 0.9900
vn 0.3806 0.4392 0.8138
vn 0.3040 0.1409 0.9422
vn 0.1466 0.0815 0.9858
vn 0.4259 0.4752 0.7699
vn -0.7143 -0.3457 0.6085
vn 0.0893 0.0713 0.9935
vn 0.4858 0.2250 0.8446
vn -0.6800 -0.5633 -0.4694
vn 0.6583 0.3222 0.6803
vn -0.0419 0.0346 0.9985
vn 0.3716 0.4588 0.8071
vn 0.5699 0.5630 0.5985
vn -0.6490 -0.5347 -0.5413
vn 0.6090 0.5483 0.5732
vn 0.3870 0.6273 0.6758
vn 0.0821 0.3601 0.9293
vn -0.1351 0.3520 0.9262
vn -0.1165 0.3577 0.9266
vn 0.2387 0.6486 0.7227
vn 0.1343 0.6519 0.7463
vn -0.0693 0.3630 0.9292
vn 0.0342 0.3640 0.9308
vn 0.3990 0.6165 0.6788
vn 0.0863 -0.0291 0.9958
vn -0.1802 0.0090 0.9836
vn 0.0482 -0.0299 0.9984
vn -0.1258 0.0061 0.9920
vn -0.1538 -0.1257 0.9801
vn 0.2151 -0.2891 0.9328
vn -0.0643 -0.1870 0.9803
vn -0.1976 0.7258 0.6589
vn 0.2377 -0.3093 0.9208
vn -0.2765 0.6167 0.7370
vn 0.5163 -0.1429 0.8444
vn 0.2624 -0.7400 0.6193
vn 0.2212 -0.7690 0.5998
vn 0.1552 -0.7294 0.6662
vn 0.5406 -0.1403 0.8295
vn 0.1246 -0.7376 0.6637
vn -0.0912 -0.9100 0.4044
vn 0.1186 -0.8899 0.4404
vn -0.0975 -0.8925 0.4403
vn -0.3494 -0.8796 0.3229
vn -0.3413 -0.3403 -0.8762
vn 0.3995 -0.8931 -0.2067
vn -0.3367 -0.2568 -0.9059
vn 0.5712 -0.1144 -0.8128
vn 0.7808 -0.2519 -0.5717
vn 0.5403 -0.8377 -0.0793
vn 0.5970 -0.1502 -0.7881
vn 0.8230 -0.2599 -0.5051
vn -0.4140 -0.0372 -0.9095
vn 0.6539 -0.7566 -0.0020
vn 0.2547 0.0800 -0.9637
vn 0.3746 0.0531 -0.9257
vn 0.6433 -0.7080 -0.2913
vn 0.7713 -0.1834 -0.6095
vn -0.3423 -0.0491 -0.9383
vn 0.2210 -0.9309 0.2910
vn 0.2192 -0.9341 0.2817
vn 0.2203 -0.9320 0.2877
vn 0.3904 -0.8729 0.2926
vn -0.2179 -0.1007 -0.9708
vn 0.4344 -0.7777 0.4544
vn 0.4529 -0.7581 0.4692
vn 0.7437 -0.6618 -0.0949
vn 0.7315 -0.6647 -0.1519
vn 0.7685 -0.5979 0.2278
vn 0.5849 -0.0364 -0.8103
vn 0.8280 -0.1887 -0.5280
vn 0.9186 -0.3856 0.0864
vn 0.9788 -0.1737 0.1085
vn 0.8450 -0.1367 -0.5170
vn 0.9133 -0.3904 0.1163
vn 0.9573 -0.1703 0.2337
vn 0.9567 -0.1702 0.2363
vn 0.9572 -0.1702 0.2341
vn 0.9565 -0.1702 0.2370
vn 0.0170 -0.0399 0.9991
vn 0.5681 -0.4147 0.7108
vn 0.5328 -0.4102 0.7401
vn 0.1055 -0.2884 0.9517
vn 0.3768 -0.1049 0.9204
vn -0.0171 -0.2319 0.9726
vn -0.0880 0.0051 0.9961
vn 0.2489 -0.3287 0.9110
vn -0.3819 0.0564 0.9225
vn -0.0170 -0.0042 0.9998
vn 0.3777 0.3171 0.8700
vn -0.3051 0.3275 0.8943
vn 0.1951 0.3512 0.9157
vn 0.1210 -0.0290 0.9922
vn 0.8799 0.3202 0.3510
vn -0.8730 0.2944 0.3888
vn 0.5865 0.5595 0.5856
vn -0.6777 0.2270 0.6994
vn 0.1225 0.5971 0.7928
vn 0.8165 0.1816 0.5481
vn -0.0425 0.2729 0.9611
vn 0.8984 0.1312 0.4192
vn 0.9989 0.0306 0.0362
vn 0.9984 0.0334 0.0453
vn 0.9986 0.0322 0.0416
vn 0.9977 0.0672 -0.0039
vn 0.7993 0.3995 0.4489
vn 0.9984 0.0502 -0.0255
vn 0.9789 0.1182 -0.1666
vn 0.8437 0.4173 0.3376
vn 0.3730 0.5570 0.7421
vn 0.7397 0.4809 0.4707
vn 0.3359 0.4821 0.8091
vn -0.0696 0.0911 0.9934
vn -0.8753 -0.3921 -0.2831
vn 0.4961 0.4809 0.7229
vn 0.8714 0.4732 0.1296
vn 0.7671 0.4713 0.4352
vn -0.6779 0.7257 0.1179
vn 0.4546 0.4536 0.7666
vn 0.8767 0.4792 -0.0411
vn 0.7958 0.6055 0.0093
vn 0.2499 0.0580 -0.9665
vn -0.3147 -0.1029 0.9436
vn 0.7875 0.6111 0.0802
vn 0.8536 0.5161 -0.0704
vn 0.8920 0.4516 -0.0211
vn 0.8826 0.4558 0.1151
vn 0.4961 0.2310 -0.8370
vn 0.4381 0.1867 -0.8793
vn -0.0392 -0.2726 -0.9613
vn 0.7591 0.5173 0.3952
vn -0.0332 -0.3252 -0.9450
vn 0.0738 -0.6815 -0.7281
vn -0.1758 -0.6779 -0.7139
vn 0.9447 -0.1907 -0.2667
vn 0.8653 0.4363 0.2469
vn -0.2957 -0.5129 -0.8059
vn 0.9675 0.2493 0.0431
vn 0.9476 -0.1612 -0.2758
vn -0.4890 -0.5809 -0.6508
vn 0.8366 -0.1625 -0.5232
vn -0.0540 -0.3070 -0.9502
vn 0.8834 -0.1223 -0.4524
vn -0.1632 -0.6060 -0.7785
vn 0.7716 -0.1186 -0.6250
vn 0.6941 -0.1042 -0.7123
vn 0.6940 -0.1044 -0.7124
vn 0.6940 -0.1044 -0.7123
vn 0.6753 -0.1000 -0.7308
vn 0.5651 -0.2250 -0.7937
vn 0.6623 -0.0980 -0.7428
vn 0.5128 -0.2804 -0.8114
vn 0.7688 -0.1105 -0.6299
vn 0.7699 -0.1107 -0.6285
vn 0.7693 -0.1106 -0.6293
vn 0.7377 -0.2181 -0.6390
vn 0.8014 -0.1881 -0.5678
vn 0.7703 -0.1108 -0.6280
vn 0.7271 -0.0984 -0.6795
vn 0.8557 -0.1202 -0.5033
vn 0.8105 -0.1861 -0.5554
vn 0.6965 -0.2389 -0.6766
vn 0.5940 -0.2778 -0.7549
vn 0.6409 -0.0780 -0.7637
vn 0.8269 -0.1100 -0.5515
vn 0.7492 -0.2187 -0.6251
vn 0.2613 -0.6445 -0.7186
vn 0.6346 -0.5017 -0.5878
vn 0.6183 -0.5176 -0.5914
vn 0.8535 0.5174 0.0619
vn 0.8594 0.4375 0.2646
vn 0.8597 0.4373 0.2641
vn 0.8594 0.4374 0.2646
vn 0.8924 0.4489 -0.0465
vn 0.9990 0.0294 0.0325
vn 0.5575 -0.2876 0.7788
vn -0.0286 0.3068 0.9513
vn -0.2824 0.4283 0.8584
vn 0.6939 -0.1045 -0.7124
vn 0.3834 -0.7379 0.5554
vn 0.5081 -0.1932 0.8394
vn 0.3292 -0.7892 0.5184
vn 0.2185 -0.9352 0.2785
vn 0.0975 -0.9379 0.3329
vn 0.0609 -0.0417 0.9973
vn -0.5348 0.1193 0.8365
vn -0.1149 -0.1180 0.9863
vn -0.1203 -0.1440 0.9822
vn -0.0737 -0.0157 0.9972
vn -0.6449 0.1555 0.7482
vn -0.1741 -0.1495 0.9733
vn 0.0785 -0.0405 0.9961
vn -0.7075 0.1597 0.6885
vn -0.2660 -0.1338 0.9546
vn -0.1064 -0.0063 0.9943
vn 0.0171 -0.0260 0.9995
vn -0.7067 0.1236 0.6967
vn -0.3276 -0.1427 0.9340
vn -0.0278 -0.0153 0.9995
vn -0.1438 0.0027 0.9896
vn -0.0070 -0.0191 0.9998
vn -0.0897 0.3462 0.9339
vn -0.2531 0.3138 0.9151
vn 0.4044 0.3294 0.8532
vn 0.7811 0.2214 0.5838
vn -0.6572 0.2000 0.7267
vn 0.9233 -0.1473 0.3547
vn -0.3036 0.0006 0.9528
vn -0.6890 0.0843 0.7198
vn 0.1029 0.2722 0.9567
vn -0.4524 0.0298 0.8913
vn -0.6944 0.1980 0.6918
vn -0.9884 0.0386 0.1467
vn -0.9873 0.0329 0.1556
vn -0.9875 0.0338 0.1540
vn -0.9941 0.0174 0.1068
vn -0.9874 0.1567 -0.0213
vn -0.9426 0.1538 -0.2963
vn -0.4852 -0.2547 -0.8365
vn -0.9870 0.1554 0.0406
vn -0.7851 0.1489 -0.6012
vn -0.5855 0.1163 -0.8023
vn -0.4588 0.4117 -0.7874
vn -0.5133 0.4208 -0.7480
vn -0.6417 0.4398 -0.6284
vn -0.6377 0.3916 -0.6633
vn -0.6988 0.6496 0.2996
vn -0.7771 0.6276 -0.0466
vn -0.9413 0.3259 0.0880
vn -0.9398 0.3396 0.0370
vn -0.6636 0.0071 0.7480
vn 0.1229 0.0940 0.9880
vn -0.8724 0.2043 0.4440
vn -0.6789 0.0577 0.7320
vn 0.1707 0.1251 0.9774
vn -0.4583 -0.0944 0.8837
vn -0.7396 0.6730 -0.0105
vn -0.5678 0.7969 0.2061
vn -0.6397 0.7531 0.1534
vn -0.5608 0.8131 0.1558
vn -0.6875 0.7249 -0.0434
vn 0.3377 0.0537 0.9397
vn -0.5933 0.8046 -0.0263
vn -0.4140 0.8920 0.1816
vn -0.4324 0.8703 0.2360
vn -0.2450 0.9347 0.2576
vn -0.4551 0.8904 -0.0083
vn -0.4831 0.8658 -0.1304
vn -0.6174 0.7844 -0.0591
vn 0.6365 -0.4384 0.6345
vn -0.5987 0.3219 -0.7334
vn 0.6928 -0.5862 0.4199
vn -0.6133 0.7888 -0.0412
vn -0.0893 0.2714 -0.9583
vn -0.5075 0.4101 -0.7578
vn -0.1878 0.3291 -0.9254
vn -0.5705 0.2978 -0.7654
vn -0.7846 0.1223 -0.6078
vn -0.8004 0.1241 -0.5864
vn -0.8365 0.1308 -0.5322
vn -0.6642 0.4284 -0.6126
vn -0.5620 0.4018 -0.7230
vn -0.6338 0.4176 -0.6510
vn -0.7849 0.1285 -0.6062
vn -0.7300 0.1196 -0.6729
vn -0.6494 0.1140 -0.7518
vn -0.6757 0.1182 -0.7276
vn -0.5580 0.3913 -0.7318
vn -0.5195 0.3803 -0.7652
vn -0.4370 0.3448 -0.8307
vn -0.5948 0.2714 -0.7567
vn -0.5128 0.8397 -0.1788
vn -0.6118 0.3548 -0.7070
vn -0.5022 0.8528 -0.1431
vn -0.3869 0.9128 -0.1310
vn 0.3426 0.2979 0.8910
vn -0.4090 0.9124 -0.0134
vn -0.3579 0.8968 -0.2601
vn 0.1553 0.9658 0.2075
vn -0.0738 0.9464 0.3146
vn -0.0564 0.9687 0.2417
vn 0.4587 0.0973 0.8832
vn -0.3962 0.9142 0.0854
vn -0.5196 0.8544 -0.0059
vn -0.2349 0.9414 0.2419
vn 0.1671 0.8564 0.4885
vn -0.1393 0.9270 0.3482
vn 0.4841 0.1433 0.8632
vn 0.2826 0.9165 0.2833
vn 0.3038 0.5659 0.7664
vn 0.4675 0.2674 0.8426
vn 0.3217 0.5603 0.7632
vn 0.5412 0.1036 0.8345
vn -0.3380 0.0203 0.9409
vn 0.3250 0.5079 0.7978
vn -0.1015 -0.1088 0.9889
vn -0.7302 0.6038 -0.3198
vn -0.6027 0.3793 -0.7020
vn -0.3983 0.3314 -0.8553
vn -0.4811 0.0949 -0.8715
vn -0.5044 0.0986 -0.8578
vn -0.4972 -0.3447 -0.7962
vn -0.5663 -0.3333 -0.7539
vn -0.2407 -0.3760 -0.8948
vn -0.2180 0.0618 -0.9740
vn -0.6245 0.3890 -0.6772
vn 0.5928 -0.3284 0.7354
vn -0.6810 0.7311 -0.0405
vn 0.4105 0.0904 0.9074
vn -0.9350 0.1362 -0.3274
vn -0.7501 0.1161 -0.6511
vn -0.5596 -0.2988 -0.7730
vn -0.1177 -0.3045 -0.9452
vn -0.9208 -0.1581 -0.3566
vn 0.1227 -0.5841 -0.8023
vn -0.9720 -0.1881 -0.1408
vn 0.5182 -0.5190 -0.6797
vn -0.9488 -0.1135 -0.2948
vn -0.9822 0.0638 0.1766
vn -0.9706 0.0330 0.2385
vn -0.8025 -0.4797 -0.3547
vn -0.9886 0.0396 0.1454
vn -0.9400 -0.3144 -0.1324
vn 0.5083 0.6159 0.6020
vn -0.8021 -0.5685 0.1827
vn -0.8070 -0.5854 0.0783
vn -0.7110 0.3906 0.5847
vn -0.7046 0.3957 0.5891
vn -0.7079 0.3911 0.5881
vn -0.4426 -0.2102 0.8717
vn -0.3607 -0.1466 0.9211
vn -0.8011 -0.5616 0.2068
vn -0.7029 0.7005 0.1231
vn 0.8000 0.5966 0.0647
vn -0.2239 -0.0783 0.9715
vn -0.7113 -0.2820 0.6438
vn -0.6909 -0.2671 0.6718
vn -0.9398 -0.3149 0.1327
vn -0.9392 -0.3139 0.1394
vn -0.9396 -0.3145 0.1353
vn -0.9389 -0.3135 0.1420
vn -0.9011 -0.3801 0.2085
vn -0.8907 -0.2886 0.3512
vn 0.1576 0.6833 0.7129
vn -0.7420 -0.5978 -0.3034
vn -0.7148 0.3868 0.5826
vn -0.7182 0.3818 0.5817
vn 0.6232 0.5312 0.5740
vn -0.8338 0.2852 0.4727
vn -0.0708 0.5796 0.8118
vn -0.0929 -0.1379 -0.9861
vn -0.5715 0.5151 0.6388
vn 0.4087 0.8491 0.3347
vn -0.2677 -0.3751 -0.8875
vn 0.1304 -0.3699 -0.9199
vn 0.5121 -0.5586 -0.6525
vn 0.1651 -0.6573 -0.7354
vn 0.6579 0.4285 0.6193
vn 0.2093 0.1019 0.9725
vn 0.7862 0.3452 0.5125
vn 0.7894 0.2623 -0.5551
vn 0.3873 0.6799 -0.6227
vn -0.8701 -0.3572 -0.3395
vn -0.7745 0.0205 0.6323
vt 0.000000 0.000000
s 1
f 4/1/1 1/1/1 2/1/1
f 2/1/2 1/1/2 3/1/2
f 6/1/3 3/1/4 1/1/5
f 4/1/6 7/1/6 1/1/6
f 5/1/7 1/1/7 7/1/7
f 5/1/8 6/1/8 1/1/8
f 8/1/9 7/1/9 4/1/9
f 8/1/10 5/1/10 7/1/10
f 8/1/11 9/1/11 5/1/11
f 9/1/12 8/1/13 11/1/14
f 8/1/15 4/1/15 10/1/15
f 10/1/16 11/1/16 8/1/16
f 9/1/12 11/1/14 12/1/17
f 10/1/18 14/1/18 11/1/18
f 12/1/19 11/1/19 13/1/19
f 14/1/20 13/1/20 11/1/20
f 15/1/21 17/1/21 14/1/21
f 15/1/22 14/1/22 10/1/22
f 17/1/23 16/1/23 14/1/23
f 14/1/24 16/1/24 13/1/24
f 17/1/25 20/1/25 16/1/25
f 18/1/26 17/1/26 15/1/26
f 18/1/27 19/1/27 17/1/27
f 19/1/28 20/1/28 17/1/28
f 19/1/29 21/1/29 20/1/29
f 21/1/30 23/1/30 20/1/30
f 20/1/31 22/1/31 16/1/31
f 20/1/32 23/1/32 22/1/32
f 23/1/33 24/1/33 22/1/33
f 23/1/34 25/1/34 24/1/34
f 21/1/35 26/1/35 23/1/35
f 26/1/36 25/1/36 23/1/36
f 29/1/37 26/1/37 21/1/37
f 26/1/38 27/1/38 25/1/38
f 28/1/39 27/1/39 26/1/39
f 29/1/40 28/1/40 26/1/40
f 31/1/41 30/1/41 29/1/41
f 30/1/42 28/1/42 29/1/42
f 31/1/43 29/1/43 32/1/43
f 32/1/44 29/1/44 21/1/44
f 33/1/45 31/1/45 32/1/45
f 33/1/46 32/1/46 34/1/46
f 34/1/47 32/1/47 19/1/47
f 32/1/48 21/1/48 19/1/48
f 34/1/49 35/1/49 33/1/49
f 34/1/50 36/1/50 35/1/50
f 18/1/51 36/1/51 34/1/51
f 34/1/52 19/1/52 18/1/52
f 18/1/53 37/1/53 36/1/53
f 37/1/54 38/1/54 36/1/54
f 36/1/55 38/1/55 39/1/55
f 36/1/56 39/1/56 35/1/56
f 39/1/57 38/1/57 40/1/57
f 39/1/58 40/1/58 42/1/58
f 35/1/59 39/1/59 41/1/59
f 41/1/60 39/1/60 42/1/60
f 42/1/61 40/1/61 43/1/61
f 42/1/62 43/1/62 44/1/62
f 45/1/63 42/1/63 44/1/63
f 41/1/64 42/1/64 45/1/64
f 46/1/65 41/1/65 45/1/65
f 46/1/66 45/1/66 47/1/66
f 47/1/67 45/1/67 48/1/67
f 45/1/68 44/1/68 48/1/68
f 47/1/69 48/1/69 49/1/69
f 49/1/70 48/1/70 50/1/70
f 48/1/71 51/1/71 50/1/71
f 48/1/72 44/1/72 51/1/72
f 51/1/73 53/1/73 52/1/73
f 50/1/74 51/1/74 52/1/74
f 51/1/75 54/1/75 53/1/75
f 44/1/76 54/1/76 51/1/76
f 54/1/77 55/1/77 53/1/77
f 54/1/78 56/1/78 55/1/78
f 43/1/79 56/1/80 54/1/81
f 44/1/82 43/1/82 54/1/82
f 59/1/83 57/1/83 56/1/83
f 56/1/84 57/1/84 58/1/84
f 56/1/85 58/1/85 55/1/85
f 43/1/79 59/1/86 56/1/80
f 40/1/87 59/1/87 43/1/87
f 40/1/88 60/1/88 59/1/88
f 60/1/89 61/1/89 59/1/89
f 59/1/90 61/1/90 57/1/90
f 60/1/91 62/1/91 61/1/91
f 62/1/92 64/1/92 61/1/92
f 61/1/93 63/1/93 57/1/93
f 61/1/94 64/1/94 63/1/94
f 64/1/95 65/1/95 63/1/95
f 64/1/96 66/1/96 65/1/96
f 67/1/97 66/1/97 64/1/97
f 62/1/98 67/1/98 64/1/98
f 67/1/99 3/1/99 66/1/99
f 68/1/100 67/1/100 62/1/100
f 68/1/101 2/1/101 67/1/101
f 2/1/102 3/1/102 67/1/102
f 70/1/103 68/1/103 69/1/103
f 69/1/104 68/1/104 62/1/104
f 70/1/105 2/1/105 68/1/105
f 15/1/106 70/1/106 37/1/106
f 10/1/107 70/1/107 15/1/107
f 70/1/108 4/1/108 2/1/108
f 10/1/109 4/1/109 70/1/109
f 70/1/110 69/1/110 37/1/110
f 38/1/111 69/1/111 60/1/111
f 37/1/112 69/1/112 38/1/112
f 69/1/113 62/1/113 60/1/113
f 71/1/114 65/1/114 66/1/114
f 72/1/115 71/1/115 66/1/115
f 72/1/116 66/1/116 3/1/116
f 74/1/117 71/1/117 72/1/117
f 6/1/3 72/1/118 3/1/4
f 73/1/119 72/1/119 6/1/119
f 73/1/120 74/1/120 72/1/120
f 76/1/121 75/1/121 74/1/121
f 74/1/122 75/1/122 71/1/122
f 77/1/123 76/1/123 74/1/123
f 77/1/124 74/1/124 73/1/124
f 79/1/125 76/1/125 77/1/125
f 78/1/126 77/1/126 73/1/126
f 78/1/127 80/1/127 77/1/127
f 80/1/128 79/1/128 77/1/128
f 82/1/129 80/1/129 78/1/129
f 80/1/130 83/1/130 79/1/130
f 82/1/131 81/1/131 80/1/131
f 81/1/132 83/1/132 80/1/132
f 81/1/133 84/1/133 83/1/133
f 84/1/134 85/1/134 83/1/134
f 83/1/135 85/1/135 86/1/135
f 83/1/136 86/1/136 79/1/136
f 85/1/137 87/1/138 86/1/139
f 87/1/138 88/1/140 86/1/139
f 86/1/141 88/1/141 89/1/141
f 86/1/142 89/1/142 79/1/142
f 89/1/143 90/1/143 91/1/143
f 88/1/144 90/1/144 89/1/144
f 89/1/145 91/1/145 76/1/145
f 79/1/146 89/1/146 76/1/146
f 90/1/147 92/1/147 91/1/147
f 91/1/148 92/1/148 93/1/148
f 91/1/149 93/1/149 75/1/149
f 76/1/150 91/1/150 75/1/150
f 93/1/151 96/1/151 94/1/151
f 75/1/152 93/1/152 94/1/152
f 92/1/153 95/1/153 93/1/153
f 93/1/154 95/1/154 96/1/154
f 94/1/155 96/1/156 97/1/157
f 97/1/158 96/1/158 98/1/158
f 96/1/159 99/1/159 98/1/159
f 96/1/160 95/1/160 99/1/160
f 95/1/161 100/1/161 99/1/161
f 99/1/162 100/1/162 101/1/162
f 98/1/163 99/1/163 102/1/163
f 99/1/164 101/1/164 102/1/164
f 105/1/165 102/1/165 103/1/165
f 102/1/166 104/1/166 103/1/166
f 98/1/167 102/1/167 105/1/167
f 102/1/168 101/1/168 104/1/168
f 105/1/169 103/1/169 107/1/169
f 108/1/170 98/1/170 105/1/170
f 108/1/171 105/1/171 106/1/171
f 106/1/172 105/1/172 107/1/172
f 97/1/173 98/1/173 108/1/173
f 97/1/174 108/1/174 109/1/174
f 108/1/175 110/1/175 109/1/175
f 108/1/176 106/1/176 110/1/176
f 109/1/177 110/1/177 111/1/177
f 110/1/178 112/1/178 111/1/178
f 110/1/179 113/1/179 112/1/179
f 106/1/180 113/1/180 110/1/180
f 113/1/181 115/1/181 114/1/181
f 113/1/182 114/1/182 112/1/182
f 116/1/183 115/1/183 113/1/183
f 106/1/184 116/1/184 113/1/184
f 106/1/185 107/1/185 116/1/185
f 116/1/186 107/1/186 118/1/186
f 116/1/187 118/1/187 117/1/187
f 116/1/188 117/1/188 115/1/188
f 118/1/189 119/1/189 117/1/189
f 118/1/190 120/1/190 119/1/190
f 121/1/191 120/1/191 118/1/191
f 107/1/192 121/1/192 118/1/192
f 107/1/193 103/1/193 121/1/193
f 104/1/194 121/1/194 103/1/194
f 104/1/195 122/1/196 121/1/197
f 122/1/198 123/1/199 121/1/200
f 121/1/201 123/1/201 120/1/201
f 124/1/202 123/1/202 126/1/202
f 124/1/203 120/1/203 123/1/203
f 122/1/198 125/1/204 123/1/199
f 126/1/205 123/1/205 125/1/205
f 126/1/206 125/1/206 127/1/206
f 128/1/207 126/1/207 127/1/207
f 129/1/208 126/1/208 128/1/208
f 129/1/209 124/1/209 126/1/209
f 131/1/210 129/1/210 128/1/210
f 132/1/211 130/1/211 129/1/211
f 130/1/212 124/1/212 129/1/212
f 132/1/213 129/1/213 131/1/213
f 132/1/214 133/1/214 130/1/214
f 134/1/215 132/1/215 131/1/215
f 132/1/216 24/1/216 133/1/216
f 134/1/217 135/1/217 132/1/217
f 22/1/218 132/1/218 135/1/218
f 22/1/219 24/1/219 132/1/219
f 16/1/220 135/1/220 13/1/220
f 16/1/221 22/1/221 135/1/221
f 136/1/222 13/1/222 135/1/222
f 136/1/223 135/1/223 134/1/223
f 137/1/224 136/1/224 134/1/224
f 138/1/225 136/1/225 137/1/225
f 138/1/226 12/1/226 136/1/226
f 12/1/227 13/1/227 136/1/227
f 81/1/228 138/1/228 139/1/228
f 139/1/229 138/1/229 137/1/229
f 81/1/230 82/1/230 138/1/230
f 82/1/231 12/1/231 138/1/231
f 141/1/232 139/1/232 140/1/232
f 139/1/233 137/1/233 140/1/233
f 84/1/234 139/1/234 141/1/234
f 84/1/235 81/1/235 139/1/235
f 141/1/236 140/1/236 144/1/236
f 142/1/237 84/1/237 141/1/237
f 142/1/238 141/1/238 143/1/238
f 143/1/239 141/1/239 144/1/239
f 144/1/240 140/1/240 147/1/240
f 143/1/241 144/1/241 145/1/241
f 145/1/242 144/1/242 146/1/242
f 144/1/243 147/1/243 146/1/243
f 147/1/244 149/1/244 148/1/244
f 146/1/245 147/1/245 148/1/245
f 147/1/246 150/1/246 149/1/246
f 140/1/247 150/1/247 147/1/247
f 137/1/248 134/1/248 150/1/248
f 150/1/249 134/1/249 131/1/249
f 150/1/250 131/1/250 149/1/250
f 140/1/251 137/1/251 150/1/251
f 149/1/252 151/1/252 148/1/252
f 149/1/253 128/1/253 151/1/253
f 131/1/254 128/1/254 149/1/254
f 148/1/255 151/1/255 152/1/255
f 128/1/256 127/1/256 151/1/256
f 151/1/257 127/1/257 153/1/257
f 151/1/258 153/1/258 152/1/258
f 127/1/259 156/1/259 153/1/259
f 152/1/260 153/1/260 154/1/260
f 153/1/261 155/1/261 154/1/261
f 153/1/262 156/1/262 155/1/262
f 157/1/263 155/1/263 156/1/263
f 157/1/264 156/1/264 158/1/264
f 158/1/265 156/1/265 125/1/265
f 127/1/266 125/1/266 156/1/266
f 158/1/267 125/1/267 122/1/267
f 160/1/268 158/1/268 122/1/268
f 159/1/269 157/1/269 158/1/269
f 159/1/270 158/1/270 160/1/270
f 160/1/271 122/1/196 104/1/195
f 101/1/272 160/1/272 104/1/272
f 101/1/273 161/1/273 160/1/273
f 161/1/274 159/1/274 160/1/274
f 162/1/275 163/1/275 161/1/275
f 100/1/276 162/1/276 161/1/276
f 161/1/277 163/1/277 159/1/277
f 100/1/278 161/1/278 101/1/278
f 162/1/279 165/1/279 163/1/279
f 163/1/280 164/1/280 159/1/280
f 163/1/281 166/1/281 164/1/281
f 165/1/282 166/1/282 163/1/282
f 168/1/283 167/1/283 166/1/283
f 166/1/284 167/1/284 169/1/284
f 165/1/285 168/1/285 166/1/285
f 166/1/286 169/1/286 164/1/286
f 169/1/287 170/1/288 164/1/289
f 169/1/290 171/1/290 170/1/290
f 167/1/291 171/1/291 169/1/291
f 171/1/292 172/1/292 170/1/292
f 171/1/293 173/1/293 172/1/293
f 174/1/294 173/1/294 171/1/294
f 167/1/295 174/1/295 171/1/295
f 174/1/296 176/1/296 173/1/296
f 175/1/297 174/1/297 167/1/297
f 175/1/298 177/1/298 174/1/298
f 177/1/299 176/1/299 174/1/299
f 178/1/300 179/1/300 177/1/300
f 178/1/301 177/1/301 175/1/301
f 177/1/302 179/1/302 176/1/302
f 178/1/303 180/1/304 179/1/305
f 181/1/306 179/1/305 180/1/304
f 181/1/307 182/1/307 179/1/307
f 182/1/308 176/1/308 179/1/308
f 182/1/309 183/1/309 176/1/309
f 184/1/310 183/1/310 182/1/310
f 181/1/311 184/1/311 182/1/311
f 152/1/312 154/1/312 184/1/312
f 186/1/313 152/1/313 184/1/313
f 184/1/314 154/1/314 183/1/314
f 181/1/315 185/1/315 184/1/315
f 186/1/316 184/1/316 185/1/316
f 187/1/317 186/1/317 185/1/317
f 187/1/318 146/1/318 186/1/318
f 146/1/319 148/1/319 186/1/319
f 148/1/320 152/1/320 186/1/320
f 188/1/321 187/1/321 189/1/321
f 188/1/322 145/1/322 187/1/322
f 145/1/323 146/1/323 187/1/323
f 189/1/324 187/1/324 185/1/324
f 188/1/325 189/1/325 190/1/325
f 189/1/326 180/1/326 190/1/326
f 189/1/327 181/1/327 180/1/327
f 189/1/328 185/1/328 181/1/328
f 191/1/329 190/1/330 180/1/331
f 192/1/332 190/1/332 191/1/332
f 188/1/333 190/1/333 193/1/333
f 192/1/334 193/1/334 190/1/334
f 194/1/335 193/1/335 192/1/335
f 194/1/336 195/1/336 193/1/336
f 196/1/337 193/1/337 195/1/337
f 196/1/338 188/1/338 193/1/338
f 196/1/339 143/1/339 145/1/339
f 197/1/340 143/1/340 196/1/340
f 196/1/341 145/1/341 188/1/341
f 197/1/342 196/1/342 195/1/342
f 142/1/343 197/1/343 198/1/343
f 197/1/344 199/1/344 198/1/344
f 197/1/345 200/1/345 199/1/345
f 197/1/346 195/1/346 200/1/346
f 197/1/347 142/1/347 143/1/347
f 199/1/348 200/1/348 195/1/348
f 199/1/349 194/1/349 201/1/349
f 199/1/350 201/1/350 202/1/350
f 199/1/351 195/1/351 194/1/351
f 198/1/352 199/1/352 202/1/352
f 198/1/353 202/1/353 87/1/353
f 202/1/354 203/1/354 87/1/354
f 202/1/355 201/1/355 203/1/355
f 87/1/356 203/1/356 88/1/356
f 203/1/357 204/1/357 88/1/357
f 203/1/358 205/1/358 204/1/358
f 201/1/359 205/1/359 203/1/359
f 205/1/360 207/1/360 206/1/360
f 205/1/361 206/1/361 204/1/361
f 208/1/362 207/1/362 205/1/362
f 201/1/363 208/1/363 205/1/363
f 194/1/364 208/1/364 201/1/364
f 194/1/365 192/1/365 208/1/365
f 192/1/366 209/1/366 208/1/366
f 208/1/367 209/1/367 207/1/367
f 209/1/368 210/1/368 207/1/368
f 209/1/369 211/1/369 210/1/369
f 191/1/370 211/1/370 209/1/370
f 192/1/371 191/1/371 209/1/371
f 178/1/372 175/1/372 211/1/372
f 211/1/373 175/1/374 168/1/375
f 211/1/376 168/1/376 210/1/376
f 191/1/377 178/1/377 211/1/377
f 212/1/378 210/1/378 168/1/378
f 207/1/379 210/1/379 212/1/379
f 213/1/380 212/1/381 165/1/382
f 206/1/383 212/1/383 213/1/383
f 207/1/384 212/1/384 206/1/384
f 212/1/381 168/1/385 165/1/382
f 215/1/386 213/1/386 162/1/386
f 213/1/387 165/1/387 162/1/387
f 206/1/388 213/1/388 214/1/388
f 214/1/389 213/1/389 215/1/389
f 92/1/390 215/1/390 95/1/390
f 95/1/391 215/1/391 100/1/391
f 215/1/392 162/1/392 100/1/392
f 214/1/393 215/1/393 92/1/393
f 204/1/394 214/1/394 90/1/394
f 90/1/395 214/1/395 92/1/395
f 204/1/396 206/1/396 214/1/396
f 88/1/397 204/1/397 90/1/397
f 142/1/398 198/1/399 85/1/400
f 85/1/401 198/1/401 87/1/401
f 191/1/329 180/1/331 178/1/402
f 183/1/403 172/1/403 173/1/403
f 154/1/404 172/1/404 183/1/404
f 183/1/405 173/1/405 176/1/405
f 168/1/375 175/1/374 167/1/406
f 170/1/407 172/1/407 155/1/407
f 154/1/408 155/1/408 172/1/408
f 170/1/409 155/1/409 157/1/409
f 164/1/289 170/1/288 157/1/410
f 164/1/411 157/1/411 159/1/411
f 84/1/398 142/1/398 85/1/400
f 24/1/412 218/1/412 133/1/412
f 133/1/413 217/1/413 216/1/413
f 130/1/414 133/1/414 216/1/414
f 133/1/415 218/1/415 217/1/415
f 24/1/416 25/1/416 218/1/416
f 218/1/417 219/1/417 217/1/417
f 218/1/418 220/1/418 219/1/418
f 25/1/419 220/1/419 218/1/419
f 220/1/420 221/1/420 219/1/420
f 220/1/421 222/1/421 221/1/421
f 25/1/422 27/1/422 220/1/422
f 27/1/423 222/1/423 220/1/423
f 222/1/424 223/1/424 221/1/424
f 222/1/425 224/1/425 223/1/425
f 225/1/426 224/1/426 222/1/426
f 27/1/427 225/1/427 222/1/427
f 225/1/428 227/1/428 224/1/428
f 28/1/429 225/1/429 27/1/429
f 226/1/430 227/1/430 225/1/430
f 226/1/431 225/1/431 28/1/431
f 228/1/432 227/1/432 226/1/432
f 228/1/433 229/1/433 227/1/433
f 229/1/434 224/1/434 227/1/434
f 229/1/435 230/1/435 231/1/435
f 229/1/436 232/1/436 230/1/436
f 228/1/437 232/1/437 229/1/437
f 229/1/438 231/1/438 224/1/438
f 228/1/439 233/1/439 232/1/439
f 234/1/440 232/1/441 233/1/442
f 234/1/443 235/1/443 232/1/443
f 235/1/444 230/1/444 232/1/444
f 235/1/445 236/1/445 238/1/445
f 234/1/446 236/1/446 235/1/446
f 235/1/447 237/1/447 230/1/447
f 235/1/448 238/1/448 237/1/448
f 236/1/449 239/1/449 238/1/449
f 239/1/450 240/1/450 238/1/450
f 238/1/451 240/1/451 241/1/451
f 238/1/452 241/1/452 237/1/452
f 240/1/453 242/1/453 241/1/453
f 241/1/454 242/1/454 243/1/454
f 241/1/455 243/1/455 244/1/455
f 237/1/456 241/1/456 244/1/456
f 237/1/457 244/1/457 230/1/457
f 231/1/458 230/1/458 244/1/458
f 245/1/459 244/1/459 243/1/459
f 231/1/460 244/1/460 245/1/460
f 224/1/461 245/1/461 223/1/461
f 223/1/462 245/1/462 246/1/462
f 224/1/463 231/1/463 245/1/463
f 245/1/464 243/1/464 246/1/464
f 242/1/465 247/1/465 246/1/465
f 242/1/466 246/1/466 243/1/466
f 247/1/467 248/1/467 246/1/467
f 223/1/468 246/1/468 248/1/468
f 221/1/469 223/1/469 248/1/469
f 221/1/470 248/1/470 249/1/470
f 250/1/471 249/1/471 248/1/471
f 247/1/472 250/1/472 248/1/472
f 250/1/473 251/1/473 249/1/473
f 252/1/474 251/1/474 250/1/474
f 253/1/475 252/1/475 250/1/475
f 253/1/476 250/1/476 247/1/476
f 254/1/477 252/1/477 253/1/477
f 254/1/478 253/1/478 256/1/478
f 256/1/479 253/1/479 255/1/479
f 255/1/480 253/1/480 247/1/480
f 257/1/481 254/1/481 256/1/481
f 257/1/482 256/1/482 239/1/482
f 239/1/483 256/1/483 240/1/483
f 256/1/484 255/1/484 240/1/484
f 53/1/485 257/1/485 52/1/485
f 52/1/486 257/1/486 239/1/486
f 53/1/487 258/1/487 257/1/487
f 258/1/488 254/1/488 257/1/488
f 258/1/489 259/1/489 254/1/489
f 260/1/490 259/1/490 258/1/490
f 55/1/491 260/1/491 258/1/491
f 55/1/492 258/1/492 53/1/492
f 58/1/493 260/1/493 55/1/493
f 58/1/494 261/1/494 260/1/494
f 261/1/495 262/1/495 260/1/495
f 260/1/496 262/1/496 259/1/496
f 261/1/497 111/1/497 262/1/497
f 111/1/498 263/1/498 262/1/498
f 262/1/499 263/1/499 264/1/499
f 262/1/500 264/1/500 259/1/500
f 264/1/501 263/1/501 265/1/501
f 264/1/502 265/1/502 251/1/502
f 259/1/503 264/1/503 252/1/503
f 252/1/504 264/1/504 251/1/504
f 263/1/505 114/1/505 265/1/505
f 265/1/506 114/1/506 266/1/506
f 265/1/507 266/1/507 267/1/507
f 251/1/508 265/1/508 267/1/508
f 217/1/509 219/1/509 267/1/509
f 217/1/510 267/1/510 266/1/510
f 219/1/511 249/1/511 267/1/511
f 251/1/512 267/1/512 249/1/512
f 114/1/513 268/1/513 266/1/513
f 216/1/514 266/1/514 268/1/514
f 216/1/515 217/1/515 266/1/515
f 114/1/516 115/1/516 268/1/516
f 115/1/517 119/1/517 268/1/517
f 269/1/518 216/1/518 268/1/518
f 269/1/519 268/1/519 119/1/519
f 269/1/520 119/1/520 120/1/520
f 130/1/521 216/1/521 269/1/521
f 269/1/522 120/1/522 124/1/522
f 130/1/523 269/1/523 124/1/523
f 263/1/524 112/1/524 114/1/524
f 111/1/525 112/1/525 263/1/525
f 109/1/526 111/1/526 261/1/526
f 270/1/527 109/1/527 261/1/527
f 270/1/528 261/1/528 58/1/528
f 57/1/529 270/1/529 58/1/529
f 57/1/530 63/1/530 270/1/530
f 63/1/531 97/1/531 270/1/531
f 97/1/532 109/1/532 270/1/532
f 259/1/533 252/1/533 254/1/533
f 240/1/534 255/1/534 242/1/534
f 255/1/535 247/1/535 242/1/535
f 219/1/536 221/1/536 249/1/536
f 236/1/537 271/1/537 239/1/537
f 52/1/538 239/1/538 271/1/538
f 50/1/539 52/1/539 271/1/539
f 272/1/540 271/1/540 236/1/540
f 272/1/541 50/1/541 271/1/541
f 273/1/542 272/1/542 234/1/542
f 273/1/543 49/1/543 272/1/543
f 49/1/544 50/1/544 272/1/544
f 234/1/545 272/1/545 236/1/545
f 273/1/546 233/1/546 274/1/546
f 275/1/547 273/1/547 274/1/547
f 275/1/548 49/1/548 273/1/548
f 273/1/549 234/1/440 233/1/442
f 275/1/550 274/1/550 277/1/550
f 275/1/551 47/1/551 49/1/551
f 276/1/552 47/1/552 275/1/552
f 276/1/553 275/1/553 277/1/553
f 278/1/554 277/1/555 274/1/556
f 279/1/557 277/1/557 278/1/557
f 279/1/558 280/1/558 277/1/558
f 276/1/559 277/1/559 280/1/559
f 279/1/560 276/1/560 280/1/560
f 279/1/561 278/1/561 31/1/561
f 279/1/562 31/1/562 33/1/562
f 279/1/563 281/1/563 276/1/563
f 33/1/564 281/1/564 279/1/564
f 35/1/565 41/1/566 281/1/567
f 281/1/567 41/1/566 46/1/568
f 281/1/569 46/1/569 276/1/569
f 33/1/570 35/1/570 281/1/570
f 278/1/571 282/1/571 30/1/571
f 278/1/572 30/1/572 31/1/572
f 278/1/554 274/1/556 282/1/573
f 282/1/573 274/1/556 233/1/574
f 282/1/575 226/1/575 30/1/575
f 282/1/576 228/1/576 226/1/576
f 282/1/577 233/1/577 228/1/577
f 276/1/578 46/1/578 47/1/578
f 30/1/579 226/1/579 28/1/579
f 115/1/580 117/1/580 119/1/580
f 63/1/581 65/1/581 97/1/581
f 94/1/155 97/1/157 65/1/582
f 75/1/583 94/1/583 71/1/583
f 71/1/584 94/1/584 65/1/584
f 9/1/585 82/1/585 78/1/585
f 82/1/586 9/1/586 12/1/586
f 9/1/587 78/1/587 5/1/587
f 78/1/588 6/1/588 5/1/588
f 78/1/589 73/1/589 6/1/589
f 38/1/590 60/1/590 40/1/590
f 15/1/591 37/1/591 18/1/591
