# Blender 5.2.1 LTS
# www.blender.org
mtllib blockAttach.mtl
o 立方体.004
v -0.173824 -0.318335 0.173824
v -0.173883 -0.173883 0.318568
v -0.299574 -0.169100 0.169100
v -0.166086 0.166086 0.287607
v -0.171955 0.310910 0.171955
v -0.299477 0.169076 0.169076
v -0.172372 -0.312568 -0.172372
v -0.286163 -0.165723 -0.165723
v -0.166960 -0.166960 -0.291074
v -0.171743 0.310069 -0.171743
v -0.169530 0.169530 -0.301282
v -0.269795 0.161601 -0.161601
v 0.172153 -0.311698 0.172153
v 0.286465 -0.165799 0.165799
v 0.167384 -0.167384 0.292760
v 0.166631 0.289769 0.166631
v 0.165001 0.165001 0.283297
v 0.309628 0.171632 0.171632
v 0.168498 -0.297184 -0.168498
v 0.168677 -0.168677 -0.297894
v 0.258175 -0.158675 -0.158675
v 0.169876 0.302657 -0.169876
v 0.301085 0.169480 -0.169480
v 0.158613 0.158613 -0.257928
v -0.249709 -0.249709 0.163286
v -0.168212 -0.265627 0.265627
v -0.242905 -0.161180 0.242905
v -0.261768 0.167018 0.261768
v -0.164110 0.252372 0.252372
v -0.269409 0.269409 0.169382
v -0.167881 -0.264556 -0.264556
v -0.265768 -0.265768 -0.168256
v -0.243792 -0.161455 -0.243792
v -0.268442 0.268442 -0.169083
v -0.168334 0.266019 -0.266019
v -0.245400 0.161952 -0.245400
v 0.156128 -0.226581 0.226581
v 0.277638 -0.277638 0.171929
v 0.285592 -0.174391 0.285592
v 0.260432 0.260432 0.166604
v 0.171905 0.277561 0.277561
v 0.267231 0.168709 0.267231
v 0.233549 -0.233549 -0.158285
v 0.173043 -0.281237 -0.281237
v 0.272348 -0.170292 -0.272348
v 0.166894 0.261367 -0.261367
v 0.281752 0.281752 -0.173202
v 0.237245 0.159429 -0.237245
v -0.174683 -0.331309 -0.000000
v -0.323602 -0.172564 0.000000
v -0.175270 0.000000 0.333446
v -0.336560 -0.000000 0.176126
v -0.180559 0.352691 -0.000000
v -0.315252 0.170270 -0.000000
v -0.162318 -0.000000 -0.286319
v -0.297163 -0.000000 -0.165298
v 0.000000 -0.312749 -0.169582
v -0.000000 -0.180508 -0.352503
v 0.000000 0.321071 -0.171869
v 0.000000 0.175323 -0.333637
v 0.299140 0.000000 -0.165841
v 0.167087 -0.000000 -0.303673
v 0.174808 -0.331766 0.000000
v 0.301307 -0.166437 -0.000000
v 0.166781 0.302558 0.000000
v 0.321892 0.172094 0.000000
v 0.168407 -0.000000 0.308476
v 0.323612 -0.000000 0.172567
v -0.000000 -0.281797 0.161075
v 0.000000 -0.167520 0.305247
v 0.000000 0.290365 0.163430
v -0.000000 0.163883 0.292014
v -0.255500 -0.255500 0.255500
v -0.243433 0.243433 0.243433
v -0.226686 -0.226686 -0.226686
v -0.237935 0.237935 -0.237935
v 0.250747 -0.250747 0.250747
v 0.209802 0.209802 0.209802
v 0.248283 -0.248283 -0.248283
v 0.242855 0.242855 -0.242855
v -0.281095 -0.281095 -0.000000
v -0.256816 -0.000000 0.256816
v -0.255433 0.255433 -0.000000
v -0.269220 -0.000000 -0.269220
v 0.000000 -0.293653 -0.293653
v 0.000000 0.254367 -0.254367
v 0.274409 -0.000000 -0.274409
v 0.293372 -0.293372 -0.000000
v 0.254794 0.254794 0.000000
v 0.284023 -0.000000 0.284023
v 0.000000 -0.289095 0.289095
v -0.000000 0.251838 0.251838
v -0.000000 -0.352073 -0.000000
v -0.340351 -0.000000 -0.000000
v 0.000000 -0.000000 0.352963
v 0.000000 0.351556 -0.000000
v 0.000000 -0.000000 -0.325354
v 0.292057 -0.000000 -0.000000
vn -0.4465 -0.8672 0.2207
vn -0.4930 -0.1668 0.8539
vn -0.9383 -0.1887 0.2900
vn -0.1985 0.3288 0.9233
vn -0.2669 0.8197 0.5069
vn -0.8801 0.2801 0.3833
vn -0.5186 -0.6666 -0.5355
vn -0.8016 -0.2305 -0.5516
vn -0.5720 -0.2648 -0.7763
vn -0.4148 0.7919 -0.4482
vn -0.5281 0.2291 -0.8177
vn -0.9372 0.0452 -0.3460
vn -0.0380 -0.7709 0.6358
vn 0.9566 -0.2458 0.1564
vn -0.1470 -0.5584 0.8164
vn 0.6685 0.5989 0.4409
vn 0.6013 0.4649 0.6499
vn 0.4747 0.6662 0.5752
vn 0.5564 -0.8295 0.0479
vn 0.3386 -0.2300 -0.9124
vn 0.9465 -0.2743 0.1698
vn 0.2172 0.8502 -0.4795
vn 0.7960 0.0270 -0.6047
vn 0.2383 -0.0649 -0.9690
vn -0.4359 -0.8930 -0.1119
vn -0.5455 -0.8226 0.1604
vn -0.8795 -0.4354 0.1923
vn -0.9444 -0.2828 -0.1680
vn -0.7119 -0.0923 0.6962
vn -0.4970 0.1119 0.8605
vn -0.8247 0.0823 0.5596
vn -0.7366 -0.1552 0.6583
vn -0.6268 0.7774 0.0535
vn -0.6286 0.7754 -0.0596
vn -0.9500 0.2992 -0.0893
vn -0.8998 0.4361 -0.0117
vn -0.3720 0.0434 -0.9272
vn -0.3318 -0.0802 -0.9399
vn -0.9238 -0.1304 -0.3600
vn -0.9489 0.1726 -0.2642
vn 0.0865 -0.9858 -0.1442
vn -0.1046 -0.9492 -0.2967
vn -0.2859 -0.3587 -0.8886
vn 0.2041 -0.3070 -0.9296
vn 0.0196 0.8474 -0.5306
vn 0.0209 0.8493 -0.5275
vn 0.2025 0.3691 -0.9071
vn -0.0418 0.5462 -0.8366
vn 0.8815 0.1403 -0.4508
vn 0.9906 -0.1307 -0.0402
vn 0.2512 -0.0227 -0.9677
vn 0.2481 0.2775 -0.9281
vn 0.3058 -0.9452 0.1147
vn 0.4723 -0.8167 -0.3315
vn 0.9303 -0.1507 -0.3343
vn 0.9934 -0.0673 0.0932
vn 0.3247 0.9402 0.1026
vn 0.3904 0.9206 0.0133
vn 0.8275 0.5614 0.0076
vn 0.9129 0.4056 0.0452
vn 0.1790 0.1334 0.9748
vn 0.1327 -0.0408 0.9903
vn 0.9802 -0.1051 0.1676
vn 0.9244 0.1027 0.3675
vn 0.0311 -0.9790 0.2014
vn 0.1523 -0.9042 0.3990
vn 0.2808 -0.4122 0.8667
vn -0.0436 -0.3089 0.9501
vn -0.0928 0.9643 0.2479
vn 0.0677 0.8663 0.4949
vn -0.0075 0.3973 0.9177
vn -0.0670 0.2249 0.9721
vn -0.0580 -0.9842 -0.1675
vn 0.1022 -0.9714 -0.2143
vn -0.0350 -0.9646 0.2613
vn 0.0527 -0.9691 0.2408
vn -0.9844 -0.1565 0.0809
vn -0.9819 0.1811 0.0563
vn -0.9527 0.1535 -0.2624
vn -0.9682 -0.0791 -0.2375
vn 0.1645 -0.1840 0.9691
vn 0.1517 0.2519 0.9558
vn -0.0645 0.3089 0.9489
vn -0.0142 -0.1804 0.9835
vn 0.1961 0.9769 -0.0851
vn -0.0275 0.9776 -0.2087
vn 0.0657 0.9544 0.2913
vn 0.1416 0.9659 0.2166
vn -0.2872 0.0914 -0.9535
vn -0.2086 -0.0701 -0.9755
vn 0.2900 0.1140 -0.9502
vn 0.2191 0.0606 -0.9738
vn 0.9887 -0.0989 -0.1122
vn 0.9949 -0.0930 -0.0400
vn 0.9974 -0.0461 -0.0560
vn 0.9954 -0.0826 -0.0490
vt 0.226415 0.628185
vt 0.191962 0.557533
vt 0.228243 0.551422
vt 0.274606 0.557250
vt 0.183485 0.533059
vt 0.229905 0.528357
vt 0.280329 0.517158
vt 0.215972 0.465593
vt 0.242095 0.431880
vt 0.251282 0.437912
vt 0.242353 0.458683
vt 0.265976 0.409637
vt 0.268914 0.424754
vt 0.269382 0.442004
vt 0.606070 0.353352
vt 0.507748 0.382092
vt 0.508612 0.327805
vt 0.541625 0.279244
vt 0.450704 0.374464
vt 0.474679 0.322624
vt 0.500972 0.264766
vt 0.334921 0.346335
vt 0.354180 0.329807
vt 0.356836 0.341549
vt 0.343872 0.354729
vt 0.377899 0.316580
vt 0.373015 0.337927
vt 0.357946 0.361780
vt 0.046341 0.306831
vt 0.130627 0.284421
vt 0.133825 0.328027
vt 0.104349 0.377680
vt 0.180342 0.293623
vt 0.161716 0.338380
vt 0.144093 0.384152
vt 0.255857 0.360334
vt 0.241198 0.373802
vt 0.240295 0.359498
vt 0.252332 0.346214
vt 0.223760 0.379199
vt 0.228046 0.355064
vt 0.242952 0.335426
vt 0.374958 0.046341
vt 0.420325 0.110185
vt 0.377606 0.128624
vt 0.326098 0.122980
vt 0.427139 0.146770
vt 0.374152 0.159707
vt 0.319165 0.169672
vt 0.317318 0.304948
vt 0.313924 0.290954
vt 0.326404 0.282985
vt 0.333612 0.288119
vt 0.313741 0.274002
vt 0.335592 0.265352
vt 0.349777 0.265249
vt 0.482139 0.596125
vt 0.418242 0.509949
vt 0.375226 0.462792
vt 0.132704 0.568351
vt 0.213343 0.516045
vt 0.269762 0.481840
vt 0.302037 0.377006
vt 0.309974 0.390489
vt 0.316380 0.402839
vt 0.435764 0.285143
vt 0.418002 0.328074
vt 0.395979 0.368804
vt 0.597947 0.101631
vt 0.540850 0.135969
vt 0.549264 0.113749
vt 0.325436 0.325810
vt 0.346750 0.306165
vt 0.369836 0.287195
vt 0.315687 0.229358
vt 0.354293 0.214900
vt 0.392854 0.208524
vt 0.137913 0.098974
vt 0.193881 0.177505
vt 0.239711 0.225553
vt 0.286154 0.331869
vt 0.283337 0.316664
vt 0.278256 0.301439
vt 0.188882 0.387310
vt 0.200458 0.349065
vt 0.218985 0.314108
vt 0.046341 0.516387
vt 0.116989 0.491656
vt 0.148136 0.470939
vt 0.260200 0.384237
vt 0.239115 0.405391
vt 0.214580 0.430598
vt 0.854363 0.553045
vt 0.853829 0.630222
vt 0.777364 0.630050
vt 0.776733 0.552731
vt 0.853384 0.705978
vt 0.776338 0.707397
vt 0.698753 0.708168
vt 0.700169 0.629812
vt 0.698753 0.550112
vt 0.447169 0.872567
vt 0.370112 0.875427
vt 0.370541 0.797567
vt 0.447169 0.796511
vt 0.293092 0.871707
vt 0.294479 0.796110
vt 0.297282 0.721321
vt 0.370271 0.722057
vt 0.444205 0.720867
vt 0.200409 0.722973
vt 0.199839 0.798649
vt 0.123652 0.798461
vt 0.124856 0.722409
vt 0.200409 0.873789
vt 0.126044 0.874780
vt 0.051306 0.876895
vt 0.046520 0.799404
vt 0.046341 0.720867
vt 0.701995 0.457429
vt 0.700315 0.380895
vt 0.777050 0.378740
vt 0.778041 0.455165
vt 0.698753 0.303847
vt 0.777873 0.299332
vt 0.856832 0.305378
vt 0.853636 0.382887
vt 0.852759 0.457429
vt 0.854562 0.056271
vt 0.850207 0.129455
vt 0.775522 0.128066
vt 0.776672 0.046341
vt 0.851887 0.204199
vt 0.776040 0.206650
vt 0.698753 0.199438
vt 0.700140 0.126935
vt 0.698753 0.052865
vt 0.850013 0.805901
vt 0.850886 0.878237
vt 0.776946 0.875821
vt 0.777540 0.801542
vt 0.850886 0.953055
vt 0.775469 0.953659
vt 0.699507 0.951771
vt 0.698753 0.875727
vt 0.704112 0.800851
s 0
usemtl block
f 1/1/1 26/2/1 73/3/1 25/4/1
f 2/5/2 27/6/2 73/3/2 26/2/2
f 3/7/3 25/4/3 73/3/3 27/6/3
f 4/8/4 29/9/4 74/10/4 28/11/4
f 5/12/5 30/13/5 74/10/5 29/9/5
f 6/14/6 28/11/6 74/10/6 30/13/6
f 7/15/7 32/16/7 75/17/7 31/18/7
f 8/19/8 33/20/8 75/17/8 32/16/8
f 9/21/9 31/18/9 75/17/9 33/20/9
f 10/22/10 35/23/10 76/24/10 34/25/10
f 11/26/11 36/27/11 76/24/11 35/23/11
f 12/28/12 34/25/12 76/24/12 36/27/12
f 13/29/13 38/30/13 77/31/13 37/32/13
f 14/33/14 39/34/14 77/31/14 38/30/14
f 15/35/15 37/32/15 77/31/15 39/34/15
f 16/36/16 41/37/16 78/38/16 40/39/16
f 17/40/17 42/41/17 78/38/17 41/37/17
f 18/42/18 40/39/18 78/38/18 42/41/18
f 19/43/19 44/44/19 79/45/19 43/46/19
f 20/47/20 45/48/20 79/45/20 44/44/20
f 21/49/21 43/46/21 79/45/21 45/48/21
f 22/50/22 47/51/22 80/52/22 46/53/22
f 23/54/23 48/55/23 80/52/23 47/51/23
f 24/56/24 46/53/24 80/52/24 48/55/24
f 7/15/25 49/57/25 81/58/25 32/16/25
f 49/57/26 1/1/26 25/4/26 81/58/26
f 81/58/27 25/4/27 3/7/27 50/59/27
f 32/16/28 81/58/28 50/59/28 8/19/28
f 2/5/29 51/60/29 82/61/29 27/6/29
f 51/60/30 4/8/30 28/11/30 82/61/30
f 82/61/31 28/11/31 6/14/31 52/62/31
f 27/6/32 82/61/32 52/62/32 3/7/32
f 5/12/33 53/63/33 83/64/33 30/13/33
f 53/63/34 10/22/34 34/25/34 83/64/34
f 83/64/35 34/25/35 12/28/35 54/65/35
f 30/13/36 83/64/36 54/65/36 6/14/36
f 11/26/37 55/66/37 84/67/37 36/27/37
f 55/66/38 9/21/38 33/20/38 84/67/38
f 84/67/39 33/20/39 8/19/39 56/68/39
f 36/27/40 84/67/40 56/68/40 12/28/40
f 19/43/41 57/69/41 85/70/41 44/44/41
f 57/69/42 7/15/42 31/18/42 85/70/42
f 85/70/43 31/18/43 9/21/43 58/71/43
f 44/44/44 85/70/44 58/71/44 20/47/44
f 10/22/45 59/72/45 86/73/45 35/23/45
f 59/72/46 22/50/46 46/53/46 86/73/46
f 86/73/47 46/53/47 24/56/47 60/74/47
f 35/23/48 86/73/48 60/74/48 11/26/48
f 23/54/49 61/75/49 87/76/49 48/55/49
f 61/75/50 21/49/50 45/48/50 87/76/50
f 87/76/51 45/48/51 20/47/51 62/77/51
f 48/55/52 87/76/52 62/77/52 24/56/52
f 13/29/53 63/78/53 88/79/53 38/30/53
f 63/78/54 19/43/54 43/46/54 88/79/54
f 88/79/55 43/46/55 21/49/55 64/80/55
f 38/30/56 88/79/56 64/80/56 14/33/56
f 22/50/57 65/81/57 89/82/57 47/51/57
f 65/81/58 16/36/58 40/39/58 89/82/58
f 89/82/59 40/39/59 18/42/59 66/83/59
f 47/51/60 89/82/60 66/83/60 23/54/60
f 17/40/61 67/84/61 90/85/61 42/41/61
f 67/84/62 15/35/62 39/34/62 90/85/62
f 90/85/63 39/34/63 14/33/63 68/86/63
f 42/41/64 90/85/64 68/86/64 18/42/64
f 1/1/65 69/87/65 91/88/65 26/2/65
f 69/87/66 13/29/66 37/32/66 91/88/66
f 91/88/67 37/32/67 15/35/67 70/89/67
f 26/2/68 91/88/68 70/89/68 2/5/68
f 16/36/69 71/90/69 92/91/69 41/37/69
f 71/90/70 5/12/70 29/9/70 92/91/70
f 92/91/71 29/9/71 4/8/71 72/92/71
f 41/37/72 92/91/72 72/92/72 17/40/72
f 7/93/73 57/94/73 93/95/73 49/96/73
f 57/94/74 19/97/74 63/98/74 93/95/74
f 93/95/75 63/98/75 13/99/75 69/100/75
f 49/96/76 93/95/76 69/100/76 1/101/76
f 3/102/77 52/103/77 94/104/77 50/105/77
f 52/103/78 6/106/78 54/107/78 94/104/78
f 94/104/79 54/107/79 12/108/79 56/109/79
f 50/105/80 94/104/80 56/109/80 8/110/80
f 15/111/81 67/112/81 95/113/81 70/114/81
f 67/112/82 17/115/82 72/116/82 95/113/82
f 95/113/83 72/116/83 4/117/83 51/118/83
f 70/114/84 95/113/84 51/118/84 2/119/84
f 22/120/85 59/121/85 96/122/85 65/123/85
f 59/121/86 10/124/86 53/125/86 96/122/86
f 96/122/87 53/125/87 5/126/87 71/127/87
f 65/123/88 96/122/88 71/127/88 16/128/88
f 9/129/89 55/130/89 97/131/89 58/132/89
f 55/130/90 11/133/90 60/134/90 97/131/90
f 97/131/91 60/134/91 24/135/91 62/136/91
f 58/132/92 97/131/92 62/136/92 20/137/92
f 21/138/93 61/139/93 98/140/93 64/141/93
f 61/139/94 23/142/94 66/143/94 98/140/94
f 98/140/95 66/143/95 18/144/95 68/145/95
f 64/141/96 98/140/96 68/145/96 14/146/96
