# Blender 5.2.0 LTS
# www.blender.org
mtllib itemHP.mtl
o 立方体
v 0.082001 0.106566 -0.000000
v 0.260004 1.287944 -0.000001
v -0.000001 1.137875 -0.000001
v -0.000001 -0.004787 -0.000000
v 0.623365 0.857439 -0.000001
v 0.509643 1.165672 -0.000001
v 0.376288 0.505354 -0.000000
v -0.082003 0.106566 -0.000000
v -0.260006 1.287944 -0.000001
v -0.623367 0.857439 -0.000001
v -0.509645 1.165672 -0.000001
v -0.376290 0.505354 -0.000000
v 0.084320 0.112350 -0.033148
v 0.258330 1.280255 0.072628
v 0.084320 0.112350 0.033147
v 0.258330 1.280255 -0.072629
v -0.000001 1.133822 0.098435
v -0.000001 1.133822 -0.098436
v 0.129793 1.202387 -0.000001
v -0.000001 0.004537 0.023148
v -0.000001 0.004537 -0.023149
v 0.020744 0.016295 -0.000000
v 0.610377 0.854685 0.068113
v 0.610377 0.854685 -0.068114
v 0.210306 0.288132 -0.000000
v 0.603515 1.019901 -0.000001
v 0.389338 1.270316 -0.000001
v 0.499027 1.159474 -0.076117
v 0.499027 1.159474 0.076116
v 0.533534 0.691457 -0.000000
v 0.368448 0.503715 -0.057769
v 0.368448 0.503715 0.057768
v -0.084320 0.112350 -0.033148
v -0.258332 1.280255 0.072628
v -0.084320 0.112350 0.033147
v -0.258332 1.280255 -0.072629
v -0.129795 1.202387 -0.000001
v -0.020746 0.016295 -0.000000
v -0.610379 0.854685 0.068113
v -0.610379 0.854685 -0.068114
v -0.210308 0.288132 -0.000000
v -0.603517 1.019901 -0.000001
v -0.389340 1.270316 -0.000001
v -0.499028 1.159474 -0.076117
v -0.499028 1.159474 0.076116
v -0.533536 0.691457 -0.000000
v -0.368450 0.503715 -0.057769
v -0.368450 0.503715 0.057768
v 0.381936 1.262970 0.073776
v 0.023793 0.025340 0.024068
v 0.131425 1.197762 0.083364
v 0.131425 1.197762 -0.083365
v 0.023793 0.025340 -0.024069
v 0.522419 0.689684 0.067790
v 0.522419 0.689684 -0.067791
v 0.381936 1.262970 -0.073777
v 0.590943 1.015403 -0.069110
v 0.590943 1.015403 0.069109
v 0.206765 0.287745 -0.047346
v 0.206765 0.287745 0.047345
v -0.381938 1.262970 0.073776
v -0.023795 0.025340 0.024068
v -0.131427 1.197762 0.083364
v -0.131427 1.197762 -0.083365
v -0.023795 0.025340 -0.024069
v -0.522421 0.689684 0.067790
v -0.522421 0.689684 -0.067791
v -0.381938 1.262970 -0.073777
v -0.590945 1.015403 -0.069110
v -0.590945 1.015403 0.069109
v -0.206767 0.287745 -0.047346
v -0.206767 0.287745 0.047345
v -0.000001 1.099417 -0.153822
v 0.148708 1.161730 -0.131951
v 0.250969 1.234271 -0.111206
v 0.308502 0.493653 -0.080847
v 0.173087 0.284190 -0.066512
v 0.088706 0.145897 -0.047719
v 0.077827 0.118546 -0.032180
v 0.259803 1.270877 0.069131
v 0.250969 1.234271 0.111205
v 0.308502 0.493653 0.080846
v 0.173087 0.284190 0.066511
v 0.088706 0.145897 0.047718
v -0.000001 0.076003 0.039545
v 0.041671 0.095309 0.040622
v 0.041671 0.095309 -0.040623
v -0.000001 0.076003 -0.039546
v 0.419187 1.113173 -0.126816
v 0.496444 0.984154 -0.117509
v 0.513525 0.838445 -0.117079
v 0.077827 0.118546 0.032179
v 0.259803 1.270877 -0.069132
v 0.419187 1.113173 0.126815
v 0.496444 0.984154 0.117508
v 0.513525 0.838446 0.117078
v 0.148708 1.161730 0.131950
v -0.000001 1.099417 0.153821
v -0.000001 1.124061 0.096484
v -0.000001 1.124061 -0.096485
v -0.000001 0.011697 0.021082
v -0.000001 0.011697 -0.021083
v 0.296689 0.795847 0.175725
v -0.000001 0.684928 0.225056
v -0.000001 0.429953 0.136797
v -0.000001 0.230722 0.075326
v -0.000001 0.965342 0.211275
v -0.000001 0.845864 0.203370
v 0.602702 0.857496 0.065243
v 0.602702 0.857496 -0.065244
v -0.000001 0.684928 -0.225057
v 0.296689 0.795847 -0.175726
v -0.000001 0.429953 -0.136798
v -0.000001 0.230722 -0.075327
v -0.000001 0.965342 -0.211276
v -0.000001 0.845864 -0.203371
v 0.325305 1.206438 -0.121207
v 0.325305 1.206438 0.121206
v -0.000001 1.042381 0.186878
v -0.000001 1.042381 -0.186879
v 0.492362 1.154178 -0.072338
v 0.241983 1.023742 0.159606
v 0.492362 1.154178 0.072337
v 0.241983 1.023742 -0.159607
v 0.439535 0.680461 -0.109876
v 0.439535 0.680461 0.109875
v -0.000001 0.596363 0.198366
v -0.000001 0.596363 -0.198367
v 0.178194 0.455224 -0.107050
v 0.362100 0.510168 -0.056601
v 0.362100 0.510168 0.056600
v 0.178194 0.455224 0.107049
v -0.148710 1.161730 -0.131951
v -0.250971 1.234271 -0.111206
v -0.308504 0.493653 -0.080847
v -0.173089 0.284190 -0.066512
v -0.088708 0.145897 -0.047719
v -0.077829 0.118546 -0.032180
v -0.259805 1.270877 0.069131
v -0.250971 1.234271 0.111205
v -0.308504 0.493653 0.080846
v -0.173089 0.284190 0.066511
v -0.088708 0.145897 0.047718
v -0.041673 0.095309 0.040622
v -0.041673 0.095309 -0.040623
v -0.419189 1.113173 -0.126816
v -0.496446 0.984154 -0.117509
v -0.513527 0.838445 -0.117079
v -0.077829 0.118546 0.032179
v -0.259805 1.270877 -0.069132
v -0.419189 1.113173 0.126815
v -0.496446 0.984154 0.117508
v -0.513527 0.838446 0.117078
v -0.148710 1.161730 0.131950
v -0.296691 0.795847 0.175725
v -0.602704 0.857496 0.065243
v -0.602704 0.857496 -0.065244
v -0.296691 0.795847 -0.175726
v -0.325307 1.206438 -0.121207
v -0.325307 1.206438 0.121206
v -0.492364 1.154178 -0.072338
v -0.241985 1.023742 0.159606
v -0.492364 1.154178 0.072337
v -0.241985 1.023742 -0.159607
v -0.439537 0.680461 -0.109876
v -0.439537 0.680461 0.109875
v -0.178196 0.455224 -0.107050
v -0.362102 0.510168 -0.056601
v -0.362102 0.510168 0.056600
v -0.178196 0.455224 0.107049
v 0.189139 1.106788 -0.152095
v 0.378249 1.254607 0.070062
v 0.019639 0.032015 0.022310
v 0.135345 1.189089 0.080353
v 0.135345 1.189089 -0.080355
v 0.019639 0.032015 -0.022311
v 0.253732 0.647356 0.143428
v 0.189139 1.106788 0.152094
v 0.515920 0.695616 0.066089
v 0.515920 0.695616 -0.066090
v 0.378249 1.254607 -0.070063
v 0.253732 0.647356 -0.143429
v 0.583089 1.013674 -0.065767
v 0.216161 0.912053 0.159329
v 0.583089 1.013674 0.065766
v 0.216161 0.912053 -0.159330
v 0.099409 0.250061 -0.074536
v 0.200012 0.293806 -0.046890
v 0.200012 0.293806 0.046889
v 0.099409 0.250061 0.074535
v -0.189141 1.106788 -0.152095
v -0.378251 1.254607 0.070062
v -0.019641 0.032015 0.022310
v -0.135347 1.189089 0.080353
v -0.135347 1.189089 -0.080355
v -0.019641 0.032015 -0.022311
v -0.253734 0.647356 0.143428
v -0.189141 1.106788 0.152094
v -0.515920 0.695616 0.066089
v -0.515920 0.695616 -0.066090
v -0.378251 1.254607 -0.070063
v -0.253734 0.647356 -0.143429
v -0.583091 1.013674 -0.065767
v -0.216163 0.912053 0.159329
v -0.583091 1.013674 0.065766
v -0.216163 0.912053 -0.159330
v -0.099411 0.250061 -0.074536
v -0.200014 0.293806 -0.046890
v -0.200014 0.293806 0.046889
v -0.099411 0.250061 0.074535
v -0.000001 0.738789 0.203473
v -0.141047 0.834683 0.168534
v 0.141027 0.834683 0.168534
v -0.000001 0.787264 0.182082
v -0.000001 0.453129 0.104067
v -0.111045 0.568289 0.145991
v 0.113069 0.568598 0.146088
v -0.218950 0.760553 0.162778
v 0.219210 0.760601 0.162814
v -0.000001 0.738789 -0.203474
v -0.000001 0.453129 -0.104068
v 0.141027 0.834683 -0.168545
v -0.141047 0.834683 -0.168545
v -0.000001 0.787264 -0.182095
v -0.106632 0.567862 -0.145869
v 0.218244 0.760486 -0.162738
v -0.218385 0.760486 -0.162738
v 0.105483 0.567862 -0.145869
vn 0.6526 0.7441 0.1430
vn 0.6503 0.7451 0.1480
vn 0.6487 0.7458 0.1512
vn 0.1359 0.9847 0.1088
vn 0.1350 0.9847 0.1102
vn 0.1342 0.9847 0.1115
vn 0.6609 -0.7145 0.2293
vn 0.6670 -0.7056 0.2393
vn 0.6859 -0.6750 0.2719
vn 0.8189 -0.5716 0.0514
vn 0.8223 -0.5610 0.0956
vn 0.8228 -0.5584 0.1056
vn -0.5427 0.8376 0.0624
vn -0.5455 0.8352 0.0700
vn -0.5476 0.8333 0.0756
vn -0.4373 0.8983 0.0441
vn -0.4404 0.8964 0.0504
vn -0.4443 0.8940 0.0583
vn -0.4404 0.8964 -0.0504
vn -0.4373 0.8983 -0.0441
vn -0.4443 0.8940 -0.0583
vn -0.5455 0.8352 -0.0700
vn -0.5427 0.8376 -0.0624
vn -0.5476 0.8333 -0.0756
vn 0.8223 -0.5610 -0.0956
vn 0.8189 -0.5716 -0.0514
vn 0.8228 -0.5584 -0.1056
vn 0.6670 -0.7056 -0.2393
vn 0.6609 -0.7145 -0.2293
vn 0.6859 -0.6750 -0.2719
vn 0.7642 -0.6387 0.0894
vn 0.7603 -0.6412 0.1045
vn 0.7651 -0.6381 0.0858
vn 0.8737 -0.4675 0.1346
vn 0.8710 -0.4699 0.1435
vn 0.8747 -0.4665 0.1312
vn 0.8710 -0.4699 -0.1435
vn 0.8737 -0.4675 -0.1346
vn 0.8747 -0.4665 -0.1312
vn 0.7603 -0.6412 -0.1045
vn 0.7642 -0.6387 -0.0894
vn 0.7651 -0.6381 -0.0858
vn 0.1350 0.9847 -0.1102
vn 0.1359 0.9847 -0.1088
vn 0.1342 0.9847 -0.1115
vn 0.6503 0.7451 -0.1480
vn 0.6526 0.7441 -0.1430
vn 0.6487 0.7458 -0.1512
vn 0.8288 0.5304 -0.1783
vn 0.8335 0.5271 -0.1657
vn 0.8263 0.5321 -0.1849
vn 0.9753 0.1185 -0.1866
vn 0.9749 0.1173 -0.1892
vn 0.9747 0.1167 -0.1906
vn 0.9749 0.1173 0.1892
vn 0.9753 0.1185 0.1866
vn 0.9747 0.1167 0.1906
vn 0.8335 0.5271 0.1657
vn 0.8288 0.5304 0.1783
vn 0.8263 0.5321 0.1849
vn 0.7921 -0.6042 -0.0865
vn 0.7972 -0.6007 -0.0595
vn 0.7981 -0.6001 -0.0548
vn 0.8160 -0.5763 -0.0451
vn 0.8165 -0.5748 -0.0551
vn 0.8159 -0.5766 -0.0436
vn 0.8165 -0.5748 0.0551
vn 0.8160 -0.5763 0.0451
vn 0.8159 -0.5766 0.0436
vn 0.7972 -0.6007 0.0595
vn 0.7921 -0.6042 0.0865
vn 0.7981 -0.6001 0.0548
vn -0.6503 0.7451 0.1480
vn -0.6526 0.7441 0.1430
vn -0.6487 0.7458 0.1512
vn -0.1350 0.9847 0.1102
vn -0.1359 0.9847 0.1088
vn -0.1342 0.9847 0.1115
vn -0.6670 -0.7056 0.2393
vn -0.6609 -0.7145 0.2293
vn -0.6859 -0.6750 0.2719
vn -0.8223 -0.5609 0.0956
vn -0.8189 -0.5716 0.0514
vn -0.8228 -0.5584 0.1056
vn 0.5455 0.8352 0.0700
vn 0.5427 0.8376 0.0624
vn 0.5476 0.8333 0.0756
vn -0.1279 0.0513 0.9905
vn -0.0674 0.0024 0.9977
vn -0.0661 0.0014 0.9978
vn 0.2338 -0.2264 -0.9456
vn 0.2701 -0.2960 -0.9162
vn 0.2323 -0.2236 -0.9466
vn 0.4404 0.8964 0.0504
vn 0.4373 0.8983 0.0441
vn 0.4443 0.8940 0.0583
vn 0.0598 -0.3815 0.9225
vn 0.0586 -0.3579 0.9319
vn 0.0586 -0.3568 0.9323
vn 0.5455 0.8352 -0.0700
vn 0.5427 0.8376 -0.0624
vn 0.5407 0.8393 -0.0571
vn 0.4404 0.8964 -0.0504
vn 0.4373 0.8983 -0.0441
vn 0.4337 0.9003 -0.0371
vn -0.3811 -0.0510 0.9231
vn -0.3662 -0.0500 0.9292
vn -0.3657 -0.0500 0.9294
vn -0.0598 -0.3815 0.9225
vn -0.0586 -0.3579 0.9319
vn -0.0599 -0.3830 0.9218
vn -0.6670 -0.7056 -0.2393
vn -0.6609 -0.7145 -0.2293
vn -0.6409 -0.7418 -0.1976
vn -0.8223 -0.5609 -0.0956
vn -0.8189 -0.5716 -0.0514
vn -0.8181 -0.5735 -0.0429
vn 0.1711 0.0917 0.9810
vn 0.1294 0.0538 0.9901
vn 0.1721 0.0926 0.9807
vn 0.0887 -0.0217 0.9958
vn 0.1335 0.0129 0.9910
vn 0.0875 -0.0226 0.9959
vn -0.2070 -0.1931 -0.9591
vn -0.2198 -0.2280 -0.9485
vn -0.2203 -0.2294 -0.9481
vn -0.0887 -0.0217 -0.9958
vn -0.1335 0.0129 -0.9910
vn -0.0875 -0.0226 -0.9959
vn 0.3204 -0.2496 0.9138
vn 0.3303 -0.2549 0.9088
vn 0.3201 -0.2494 0.9140
vn 0.2070 -0.1931 -0.9591
vn 0.2198 -0.2280 -0.9485
vn 0.2065 -0.1918 -0.9595
vn 0.2802 -0.2976 0.9127
vn 0.2729 -0.2880 0.9179
vn 0.2726 -0.2876 0.9181
vn -0.3204 -0.2496 0.9138
vn -0.3303 -0.2549 0.9088
vn -0.3306 -0.2551 0.9086
vn -0.2802 -0.2976 -0.9127
vn -0.2729 -0.2880 -0.9179
vn -0.2726 -0.2876 -0.9181
vn -0.7642 -0.6387 0.0894
vn -0.7603 -0.6412 0.1045
vn -0.7594 -0.6416 0.1077
vn 0.1279 0.0513 -0.9905
vn 0.0674 0.0024 -0.9977
vn 0.0661 0.0014 -0.9978
vn -0.2338 -0.2264 -0.9456
vn -0.2701 -0.2960 -0.9162
vn -0.2715 -0.2985 -0.9150
vn -0.8737 -0.4675 0.1346
vn -0.8710 -0.4699 0.1435
vn -0.8699 -0.4708 0.1468
vn -0.1279 0.0513 -0.9905
vn -0.0674 0.0024 -0.9977
vn -0.1291 0.0523 -0.9903
vn -0.7642 -0.6387 -0.0894
vn -0.7603 -0.6412 -0.1045
vn -0.7651 -0.6381 -0.0858
vn -0.8737 -0.4675 -0.1346
vn -0.8710 -0.4699 -0.1435
vn -0.8747 -0.4665 -0.1312
vn 0.3811 -0.0510 0.9231
vn 0.3662 -0.0500 0.9292
vn 0.3816 -0.0510 0.9229
vn 0.2338 -0.2264 0.9456
vn 0.2701 -0.2960 0.9162
vn 0.2715 -0.2985 0.9150
vn -0.6503 0.7451 -0.1480
vn -0.6526 0.7441 -0.1430
vn -0.6542 0.7433 -0.1397
vn -0.1350 0.9847 -0.1102
vn -0.1359 0.9847 -0.1088
vn -0.1367 0.9848 -0.1074
vn 0.0598 -0.3815 -0.9225
vn 0.0586 -0.3579 -0.9319
vn 0.0599 -0.3830 -0.9218
vn -0.0598 -0.3815 -0.9225
vn -0.0586 -0.3579 -0.9319
vn -0.0586 -0.3568 -0.9323
vn 0.0887 -0.0217 -0.9958
vn 0.1335 0.0129 -0.9910
vn 0.1347 0.0138 -0.9908
vn -0.2070 -0.1931 0.9591
vn -0.2198 -0.2280 0.9485
vn -0.2065 -0.1918 0.9595
vn 0.2070 -0.1931 0.9591
vn 0.2198 -0.2280 0.9485
vn 0.2203 -0.2294 0.9481
vn 0.2802 -0.2976 -0.9127
vn 0.2729 -0.2880 -0.9179
vn 0.2805 -0.2981 -0.9124
vn -0.9749 0.1173 -0.1892
vn -0.9753 0.1185 -0.1866
vn -0.9747 0.1167 -0.1906
vn -0.8288 0.5304 -0.1783
vn -0.8335 0.5271 -0.1657
vn -0.8358 0.5255 -0.1594
vn -0.1711 0.0917 -0.9810
vn -0.1294 0.0538 -0.9901
vn -0.1721 0.0926 -0.9807
vn -0.2338 -0.2264 0.9456
vn -0.2701 -0.2960 0.9162
vn -0.2323 -0.2236 0.9466
vn -0.2068 0.1490 0.9670
vn -0.2606 0.2503 0.9324
vn -0.2691 0.2667 0.9255
vn -0.3811 -0.0510 -0.9231
vn -0.3662 -0.0500 -0.9292
vn -0.3816 -0.0510 -0.9229
vn 0.2891 0.1597 -0.9439
vn 0.1769 0.0926 -0.9799
vn 0.1738 0.0907 -0.9806
vn -0.9749 0.1173 0.1892
vn -0.9753 0.1185 0.1866
vn -0.9754 0.1192 0.1852
vn -0.2891 0.1597 -0.9439
vn -0.1769 0.0926 -0.9799
vn -0.2929 0.1620 -0.9423
vn -0.2068 0.1490 -0.9670
vn -0.2606 0.2503 -0.9324
vn -0.1977 0.1323 -0.9713
vn -0.8288 0.5304 0.1783
vn -0.8335 0.5271 0.1657
vn -0.8263 0.5321 0.1849
vn 0.1601 -0.0043 0.9871
vn 0.2629 0.0820 0.9613
vn 0.1553 -0.0082 0.9878
vn 0.3204 -0.2496 -0.9138
vn 0.3303 -0.2549 -0.9088
vn 0.3306 -0.2551 -0.9086
vn -0.1601 -0.0043 0.9871
vn -0.2629 0.0820 0.9613
vn -0.2677 0.0861 0.9597
vn -0.3204 -0.2496 -0.9138
vn -0.3303 -0.2549 -0.9088
vn -0.3201 -0.2494 -0.9140
vn 0.1711 0.0917 -0.9810
vn 0.1294 0.0538 -0.9901
vn 0.1284 0.0530 -0.9903
vn -0.1711 0.0917 0.9810
vn -0.1294 0.0538 0.9901
vn -0.1284 0.0530 0.9903
vn 0.1601 -0.0043 -0.9871
vn 0.2629 0.0820 -0.9613
vn 0.2677 0.0861 -0.9597
vn -0.0887 -0.0217 0.9958
vn -0.1335 0.0129 0.9910
vn -0.1346 0.0138 0.9908
vn -0.1601 -0.0043 -0.9871
vn -0.2629 0.0820 -0.9613
vn -0.1552 -0.0083 -0.9878
vn -0.8160 -0.5763 -0.0451
vn -0.8164 -0.5748 -0.0551
vn -0.8165 -0.5746 -0.0564
vn -0.7972 -0.6007 -0.0595
vn -0.7921 -0.6042 -0.0865
vn -0.7981 -0.6001 -0.0548
vn 0.2068 0.1490 0.9670
vn 0.2606 0.2503 0.9324
vn 0.1977 0.1323 0.9713
vn -0.8160 -0.5763 0.0451
vn -0.8164 -0.5748 0.0551
vn -0.8159 -0.5766 0.0436
vn 0.3811 -0.0510 -0.9231
vn 0.3662 -0.0500 -0.9292
vn 0.3657 -0.0500 -0.9294
vn -0.2802 -0.2976 0.9127
vn -0.2729 -0.2880 0.9179
vn -0.2805 -0.2981 0.9124
vn -0.7972 -0.6007 0.0595
vn -0.7921 -0.6042 0.0865
vn -0.7913 -0.6047 0.0903
vn 0.2891 0.1597 0.9439
vn 0.1769 0.0926 0.9799
vn 0.2929 0.1620 0.9423
vn 0.1279 0.0513 0.9905
vn 0.0674 0.0024 0.9977
vn 0.1291 0.0523 0.9903
vn -0.2891 0.1597 0.9439
vn -0.1769 0.0926 0.9799
vn -0.1738 0.0907 0.9806
vn 0.2068 0.1490 -0.9670
vn 0.2606 0.2503 -0.9324
vn 0.2691 0.2667 -0.9255
vn 0.0998 0.2675 -0.9584
vn 0.1456 0.2099 -0.9668
vn 0.1609 0.1900 -0.9685
vn -0.0103 0.4721 -0.8815
vn -0.0064 0.3819 -0.9242
vn -0.0116 0.5014 -0.8651
vn -0.0280 0.3176 -0.9478
vn -0.0173 0.3130 -0.9496
vn -0.0116 0.3105 -0.9505
vn 0.1048 0.1585 -0.9818
vn 0.1027 0.1595 -0.9818
vn 0.1007 0.1604 -0.9819
vn 0.1358 0.7026 0.6985
vn 0.1153 0.6926 0.7120
vn 0.0875 0.6784 0.7295
vn 0.3787 0.4370 0.8158
vn 0.3736 0.4366 0.8184
vn 0.3673 0.4360 0.8216
vn 0.5039 -0.5387 0.6752
vn 0.4511 -0.4148 0.7902
vn 0.4383 -0.3872 0.8111
vn 0.1934 -0.2818 0.9398
vn 0.1415 -0.3057 0.9415
vn 0.2198 -0.2692 0.9377
vn -0.3140 0.8592 0.4039
vn -0.3210 0.8180 0.4772
vn -0.3233 0.7988 0.5073
vn -0.4277 0.7429 0.5149
vn -0.4275 0.7296 0.5337
vn -0.4274 0.7246 0.5407
vn -0.4275 0.7296 -0.5337
vn -0.4277 0.7429 -0.5149
vn -0.4274 0.7246 -0.5407
vn -0.3210 0.8180 -0.4772
vn -0.3140 0.8592 -0.4039
vn -0.3233 0.7988 -0.5073
vn 0.1415 -0.3057 -0.9415
vn 0.1934 -0.2818 -0.9398
vn 0.2198 -0.2692 -0.9377
vn 0.4511 -0.4148 -0.7902
vn 0.5039 -0.5387 -0.6752
vn 0.4383 -0.3872 -0.8111
vn 0.2494 -0.2876 0.9247
vn 0.2372 -0.2926 0.9263
vn 0.2679 -0.2799 0.9219
vn 0.2618 -0.2131 0.9413
vn 0.2482 -0.2297 0.9411
vn 0.2171 -0.2670 0.9389
vn 0.0549 -0.1522 0.9868
vn -0.0216 -0.1751 0.9843
vn 0.0966 -0.1393 0.9855
vn 0.1944 -0.2557 0.9470
vn 0.1027 0.1595 0.9818
vn 0.1048 0.1585 0.9818
vn 0.1007 0.1604 0.9819
vn -0.0173 0.3130 0.9496
vn -0.0280 0.3176 0.9478
vn -0.0116 0.3105 0.9505
vn -0.0064 0.3819 0.9242
vn -0.0103 0.4721 0.8815
vn -0.0116 0.5014 0.8651
vn 0.1456 0.2099 0.9668
vn 0.0998 0.2675 0.9584
vn 0.1609 0.1900 0.9685
vn 0.5208 -0.2793 0.8067
vn 0.5244 -0.2785 0.8046
vn 0.5186 -0.2797 0.8079
vn 0.4838 -0.4541 0.7482
vn 0.5055 -0.4585 0.7309
vn 0.4796 -0.4531 0.7515
vn 0.5055 -0.4585 -0.7309
vn 0.4838 -0.4541 -0.7482
vn 0.4796 -0.4531 -0.7515
vn 0.5244 -0.2785 -0.8046
vn 0.5208 -0.2793 -0.8067
vn 0.5186 -0.2797 -0.8079
vn 0.3736 0.4366 -0.8184
vn 0.3787 0.4370 -0.8158
vn 0.3673 0.4360 -0.8216
vn 0.1153 0.6926 -0.7120
vn 0.1358 0.7026 -0.6985
vn 0.0875 0.6784 -0.7295
vn 0.1944 -0.2557 -0.9470
vn 0.3598 -0.2783 -0.8906
vn 0.3581 -0.2799 -0.8908
vn 0.3702 -0.2680 -0.8894
vn 0.2482 -0.2297 -0.9411
vn 0.2618 -0.2131 -0.9413
vn 0.2171 -0.2670 -0.9389
vn 0.2372 -0.2926 -0.9263
vn 0.2494 -0.2876 -0.9247
vn 0.2679 -0.2799 -0.9219
vn 0.4954 0.0579 -0.8668
vn 0.4944 0.0569 -0.8674
vn 0.4929 0.0552 -0.8683
vn 0.4552 0.2388 -0.8578
vn 0.4714 0.2370 -0.8495
vn 0.4358 0.2409 -0.8672
vn 0.2012 0.0882 0.9756
vn 0.1400 0.1539 0.9781
vn 0.2560 0.0272 0.9663
vn 0.1644 0.0079 0.9864
vn 0.1601 -0.0203 0.9869
vn 0.1572 -0.0388 0.9868
vn 0.2202 -0.0562 0.9738
vn 0.2188 -0.0616 0.9738
vn 0.2181 -0.0644 0.9738
vn -0.0189 0.0226 0.9996
vn -0.0646 0.0217 0.9977
vn -0.1728 0.0192 0.9848
vn 0.4714 0.2370 0.8495
vn 0.4552 0.2388 0.8578
vn 0.4358 0.2409 0.8672
vn 0.4944 0.0569 0.8674
vn 0.4954 0.0579 0.8668
vn 0.4929 0.0552 0.8683
vn 0.2264 -0.1446 -0.9632
vn 0.2079 -0.2888 -0.9346
vn 0.2302 -0.1084 -0.9671
vn 0.2188 -0.0616 -0.9738
vn 0.2202 -0.0562 -0.9738
vn 0.2181 -0.0644 -0.9738
vn 0.1601 -0.0203 -0.9869
vn 0.1644 0.0079 -0.9864
vn 0.1572 -0.0388 -0.9868
vn 0.1400 0.1539 -0.9781
vn 0.2012 0.0882 -0.9756
vn 0.2560 0.0272 -0.9663
vn 0.0573 -0.2313 -0.9712
vn 0.0719 -0.2268 -0.9713
vn 0.0790 -0.2246 -0.9712
vn 0.1549 -0.2456 -0.9569
vn 0.1163 -0.2669 -0.9567
vn 0.0648 -0.2942 -0.9535
vn 0.2494 -0.2304 -0.9406
vn 0.2208 -0.2312 -0.9475
vn 0.2106 -0.2314 -0.9498
vn 0.2150 -0.2641 -0.9402
vn 0.1494 -0.2609 -0.9537
vn 0.1355 -0.2600 -0.9560
vn 0.7130 -0.5340 -0.4545
vn 0.6336 -0.4734 -0.6119
vn 0.7173 -0.5373 -0.4435
vn 0.4849 -0.3957 -0.7799
vn 0.6147 -0.4444 -0.6516
vn 0.6255 -0.4481 -0.6387
vn 0.6147 -0.4444 0.6516
vn 0.4849 -0.3957 0.7799
vn 0.6255 -0.4481 0.6387
vn 0.6336 -0.4734 0.6119
vn 0.7130 -0.5340 0.4545
vn 0.7173 -0.5373 0.4435
vn 0.1494 -0.2609 0.9537
vn 0.2150 -0.2641 0.9402
vn 0.1355 -0.2600 0.9560
vn 0.2208 -0.2312 0.9475
vn 0.2494 -0.2304 0.9406
vn 0.2106 -0.2314 0.9498
vn 0.1163 -0.2669 0.9567
vn 0.1549 -0.2456 0.9569
vn 0.0648 -0.2942 0.9535
vn 0.0719 -0.2268 0.9713
vn 0.0573 -0.2313 0.9712
vn 0.0790 -0.2246 0.9712
vn -0.0998 0.2675 -0.9584
vn -0.1456 0.2099 -0.9668
vn -0.0723 0.3011 -0.9508
vn -0.1048 0.1585 -0.9818
vn -0.1027 0.1595 -0.9818
vn -0.1076 0.1573 -0.9817
vn 0.0280 0.3176 -0.9478
vn 0.0173 0.3130 -0.9496
vn 0.0356 0.3208 -0.9465
vn 0.0064 0.3819 -0.9242
vn 0.0103 0.4721 -0.8815
vn 0.0116 0.5014 -0.8651
vn -0.3736 0.4366 0.8184
vn -0.3787 0.4370 0.8158
vn -0.3673 0.4360 0.8216
vn -0.1153 0.6926 0.7120
vn -0.1358 0.7026 0.6985
vn -0.0875 0.6784 0.7295
vn -0.1415 -0.3057 0.9415
vn -0.1934 -0.2818 0.9398
vn -0.2198 -0.2692 0.9377
vn -0.4511 -0.4148 0.7902
vn -0.5039 -0.5387 0.6752
vn -0.4383 -0.3872 0.8111
vn 0.4275 0.7296 0.5337
vn 0.4277 0.7429 0.5149
vn 0.4274 0.7246 0.5407
vn 0.3210 0.8180 0.4772
vn 0.3140 0.8592 0.4039
vn 0.3233 0.7988 0.5073
vn 0.4275 0.7296 -0.5337
vn 0.4277 0.7429 -0.5149
vn 0.4277 0.7481 -0.5074
vn 0.3210 0.8180 -0.4772
vn 0.3140 0.8592 -0.4039
vn 0.3107 0.8733 -0.3753
vn -0.1415 -0.3057 -0.9415
vn -0.1934 -0.2818 -0.9398
vn -0.1214 -0.3146 -0.9414
vn -0.4511 -0.4148 -0.7902
vn -0.5039 -0.5387 -0.6752
vn -0.5154 -0.5690 -0.6408
vn -0.2494 -0.2876 0.9247
vn -0.2372 -0.2926 0.9263
vn -0.2209 -0.2992 0.9283
vn -0.1944 -0.2557 0.9470
vn -0.0533 -0.1523 0.9869
vn 0.0217 -0.1749 0.9843
vn 0.0764 -0.1908 0.9787
vn -0.2618 -0.2131 0.9413
vn -0.2482 -0.2297 0.9411
vn -0.2894 -0.1784 0.9404
vn -0.1048 0.1585 0.9818
vn -0.1027 0.1595 0.9818
vn -0.1007 0.1604 0.9819
vn -0.0998 0.2675 0.9584
vn -0.1456 0.2099 0.9668
vn -0.1609 0.1900 0.9685
vn 0.0064 0.3819 0.9242
vn 0.0103 0.4721 0.8815
vn 0.0047 0.3412 0.9400
vn 0.0280 0.3176 0.9478
vn 0.0173 0.3130 0.9496
vn 0.0116 0.3105 0.9505
vn -0.4838 -0.4541 0.7481
vn -0.5055 -0.4585 0.7309
vn -0.5086 -0.4591 0.7284
vn -0.5208 -0.2793 0.8067
vn -0.5244 -0.2785 0.8046
vn -0.5264 -0.2780 0.8035
vn -0.4838 -0.4541 -0.7481
vn -0.5055 -0.4585 -0.7309
vn -0.4796 -0.4531 -0.7515
vn -0.5208 -0.2793 -0.8067
vn -0.5244 -0.2785 -0.8046
vn -0.5186 -0.2797 -0.8079
vn -0.3736 0.4366 -0.8184
vn -0.3787 0.4370 -0.8158
vn -0.3862 0.4376 -0.8120
vn -0.1153 0.6926 -0.7120
vn -0.1358 0.7026 -0.6985
vn -0.1809 0.7229 -0.6669
vn -0.1944 -0.2557 -0.9470
vn -0.2494 -0.2876 -0.9247
vn -0.2372 -0.2926 -0.9263
vn -0.2679 -0.2799 -0.9219
vn -0.2618 -0.2131 -0.9413
vn -0.2482 -0.2297 -0.9411
vn -0.2171 -0.2670 -0.9389
vn -0.3565 -0.2785 -0.8918
vn -0.3580 -0.2770 -0.8917
vn -0.3668 -0.2684 -0.8907
vn -0.4944 0.0569 -0.8674
vn -0.4954 0.0579 -0.8668
vn -0.4929 0.0552 -0.8683
vn -0.4552 0.2388 -0.8578
vn -0.4714 0.2370 -0.8495
vn -0.4926 0.2345 -0.8381
vn -0.1400 0.1539 0.9781
vn -0.2012 0.0882 0.9756
vn -0.2560 0.0272 0.9663
vn 0.0643 0.0215 0.9977
vn 0.0190 0.0224 0.9996
vn 0.1727 0.0192 0.9848
vn -0.2202 -0.0562 0.9738
vn -0.2188 -0.0616 0.9738
vn -0.2208 -0.0535 0.9738
vn -0.1644 0.0079 0.9864
vn -0.1601 -0.0203 0.9869
vn -0.1676 0.0293 0.9854
vn -0.4944 0.0569 0.8674
vn -0.4954 0.0579 0.8668
vn -0.4968 0.0595 0.8658
vn -0.4552 0.2388 0.8578
vn -0.4714 0.2370 0.8495
vn -0.4358 0.2409 0.8672
vn -0.2211 0.1551 -0.9628
vn -0.1400 0.1539 -0.9781
vn -0.2012 0.0882 -0.9756
vn -0.0934 0.2023 -0.9749
vn -0.1644 0.0079 -0.9864
vn -0.1601 -0.0203 -0.9869
vn -0.1572 -0.0388 -0.9868
vn -0.2202 -0.0562 -0.9738
vn -0.2188 -0.0616 -0.9738
vn -0.2181 -0.0644 -0.9738
vn -0.0719 -0.2268 -0.9713
vn -0.0573 -0.2313 -0.9712
vn -0.0790 -0.2246 -0.9712
vn -0.1494 -0.2609 -0.9537
vn -0.2150 -0.2641 -0.9402
vn -0.1355 -0.2600 -0.9560
vn -0.2208 -0.2312 -0.9475
vn -0.2494 -0.2304 -0.9406
vn -0.2106 -0.2314 -0.9498
vn -0.1163 -0.2669 -0.9567
vn -0.1549 -0.2456 -0.9569
vn -0.0648 -0.2942 -0.9535
vn -0.7130 -0.5340 -0.4545
vn -0.6336 -0.4734 -0.6119
vn -0.6237 -0.4659 -0.6276
vn -0.6147 -0.4444 -0.6516
vn -0.4849 -0.3957 -0.7799
vn -0.6255 -0.4481 -0.6387
vn -0.7130 -0.5340 0.4545
vn -0.6336 -0.4734 0.6119
vn -0.7173 -0.5373 0.4435
vn -0.6147 -0.4444 0.6516
vn -0.4849 -0.3957 0.7799
vn -0.4767 -0.3925 0.7866
vn -0.1494 -0.2609 0.9537
vn -0.2150 -0.2641 0.9402
vn -0.2247 -0.2645 0.9378
vn -0.0719 -0.2268 0.9713
vn -0.0573 -0.2313 0.9712
vn -0.0530 -0.2326 0.9711
vn -0.1163 -0.2669 0.9567
vn -0.1549 -0.2456 0.9569
vn -0.1914 -0.2249 0.9554
vn -0.2208 -0.2312 0.9475
vn -0.2494 -0.2304 0.9406
vn -0.2566 -0.2302 0.9387
vn 0.0416 0.3868 0.9212
vn 0.6782 0.5092 0.5299
vn -0.0371 -0.0959 0.9947
vn -0.0972 -0.1435 0.9849
vn 0.2264 -0.1448 0.9632
vn 0.2079 -0.2889 0.9345
vn 0.2009 -0.3345 0.9207
vn -0.6752 0.5153 0.5278
vn 0.0431 -0.1018 0.9939
vn -0.7235 0.5633 0.3989
vn -0.0191 0.0222 -0.9996
vn -0.0634 0.0216 -0.9978
vn 0.0976 0.0237 -0.9949
vn 0.0415 0.3867 -0.9213
vn -0.6872 0.4903 -0.5361
vn 0.0234 -0.0834 -0.9962
vn 0.0866 -0.1312 -0.9876
vn -0.0259 -0.0855 -0.9960
vn 0.6852 0.4946 -0.5347
vn -0.0884 -0.1333 -0.9871
vn -0.2264 -0.1448 0.9632
vn -0.2079 -0.2889 0.9345
vn -0.2302 -0.1085 0.9671
vn 0.3483 -0.2706 0.8974
vn 0.3484 -0.2706 0.8974
vn 0.3485 -0.2704 0.8974
vn -0.2470 -0.5328 0.8094
vn -0.3509 -0.2731 0.8957
vn -0.3514 -0.2726 0.8957
vn -0.3496 -0.2744 0.8958
vn -0.2199 0.1563 0.9629
vn 0.2192 0.1570 0.9630
vn 0.2436 -0.5333 0.8101
vn -0.2079 -0.2887 -0.9346
vn -0.2264 -0.1446 -0.9632
vn -0.2302 -0.1083 -0.9671
vn -0.0415 0.3867 -0.9213
vn 0.2213 0.1549 -0.9628
vn 0.0216 -0.1747 -0.9844
vn -0.0505 -0.1527 -0.9870
vn 0.0761 -0.1908 -0.9787
vn 0.0636 0.0215 -0.9977
vn 0.0190 0.0222 -0.9996
vn -0.0975 0.0238 -0.9949
vn 0.2581 -0.5313 -0.8069
vn -0.2555 -0.5316 -0.8075
vn -0.0214 -0.1747 -0.9844
vn 0.0499 -0.1528 -0.9870
vn 0.0911 -0.1397 -0.9860
vn 0.6542 0.7433 0.1397
vn 0.1367 0.9848 0.1074
vn 0.6409 -0.7418 0.1976
vn 0.8181 -0.5735 0.0429
vn -0.5407 0.8393 0.0571
vn -0.4337 0.9003 0.0371
vn -0.4337 0.9003 -0.0371
vn -0.5407 0.8393 -0.0571
vn 0.8181 -0.5735 -0.0429
vn 0.6409 -0.7418 -0.1976
vn 0.7594 -0.6416 0.1077
vn 0.8699 -0.4708 0.1468
vn 0.8699 -0.4708 -0.1468
vn 0.7594 -0.6416 -0.1077
vn 0.1367 0.9848 -0.1074
vn 0.6542 0.7433 -0.1397
vn 0.8358 0.5255 -0.1594
vn 0.9754 0.1192 -0.1852
vn 0.9754 0.1192 0.1852
vn 0.8358 0.5255 0.1594
vn 0.7913 -0.6047 -0.0903
vn 0.8165 -0.5746 -0.0564
vn 0.8165 -0.5746 0.0564
vn 0.7913 -0.6047 0.0903
vn -0.6542 0.7433 0.1397
vn -0.1367 0.9848 0.1074
vn -0.6409 -0.7418 0.1976
vn -0.8181 -0.5735 0.0429
vn 0.5407 0.8393 0.0571
vn -0.1291 0.0523 0.9903
vn 0.2715 -0.2985 -0.9150
vn 0.4337 0.9003 0.0371
vn 0.0599 -0.3830 0.9218
vn 0.5476 0.8333 -0.0756
vn 0.4443 0.8940 -0.0583
vn -0.3816 -0.0510 0.9229
vn -0.0586 -0.3568 0.9323
vn -0.6859 -0.6750 -0.2719
vn -0.8228 -0.5584 -0.1056
vn 0.1284 0.0530 0.9903
vn 0.1347 0.0138 0.9908
vn -0.2065 -0.1918 -0.9595
vn -0.1346 0.0138 -0.9908
vn 0.3306 -0.2551 0.9086
vn 0.2203 -0.2294 -0.9481
vn 0.2805 -0.2981 0.9124
vn -0.3201 -0.2494 0.9140
vn -0.2805 -0.2981 -0.9124
vn -0.7651 -0.6381 0.0858
vn 0.1291 0.0523 -0.9903
vn -0.2323 -0.2236 -0.9466
vn -0.8747 -0.4665 0.1312
vn -0.0661 0.0014 -0.9978
vn -0.7594 -0.6416 -0.1077
vn -0.8699 -0.4708 -0.1468
vn 0.3657 -0.0500 0.9294
vn 0.2323 -0.2236 0.9466
vn -0.6487 0.7458 -0.1512
vn -0.1342 0.9847 -0.1115
vn 0.0586 -0.3568 -0.9323
vn -0.0599 -0.3830 -0.9218
vn 0.0875 -0.0226 -0.9959
vn -0.2203 -0.2294 0.9481
vn 0.2065 -0.1918 0.9595
vn 0.2726 -0.2876 -0.9181
vn -0.9754 0.1192 -0.1852
vn -0.8263 0.5321 -0.1849
vn -0.1284 0.0530 -0.9903
vn -0.2715 -0.2985 0.9150
vn -0.1977 0.1323 0.9713
vn -0.3657 -0.0500 -0.9294
vn 0.2929 0.1620 -0.9423
vn -0.9747 0.1167 0.1906
vn -0.1738 0.0907 -0.9806
vn -0.2691 0.2667 -0.9255
vn -0.8358 0.5255 0.1594
vn 0.2677 0.0861 0.9597
vn 0.3201 -0.2494 -0.9140
vn -0.1552 -0.0083 0.9878
vn -0.3306 -0.2551 -0.9086
vn 0.1721 0.0926 -0.9807
vn -0.1721 0.0926 0.9807
vn 0.1553 -0.0082 -0.9878
vn -0.0875 -0.0226 0.9959
vn -0.2677 0.0861 -0.9597
vn -0.8159 -0.5766 -0.0436
vn -0.7913 -0.6047 -0.0903
vn 0.2691 0.2667 0.9255
vn -0.8165 -0.5746 0.0564
vn 0.3816 -0.0510 -0.9229
vn -0.2726 -0.2876 0.9181
vn -0.7981 -0.6001 0.0548
vn 0.1738 0.0907 0.9806
vn 0.0661 0.0014 0.9978
vn -0.2929 0.1620 0.9423
vn 0.1977 0.1323 -0.9713
vn 0.0723 0.3011 -0.9508
vn -0.0047 0.3412 -0.9400
vn -0.0356 0.3208 -0.9465
vn 0.1076 0.1573 -0.9817
vn 0.1809 0.7229 0.6669
vn 0.3862 0.4376 0.8120
vn 0.5154 -0.5690 0.6408
vn 0.1214 -0.3146 0.9414
vn -0.3107 0.8733 0.3753
vn -0.4277 0.7481 0.5074
vn -0.4277 0.7481 -0.5074
vn -0.3107 0.8733 -0.3753
vn 0.1214 -0.3146 -0.9414
vn 0.5154 -0.5690 -0.6408
vn 0.2209 -0.2992 0.9283
vn 0.2894 -0.1784 0.9404
vn -0.0763 -0.1908 0.9787
vn 0.1076 0.1573 0.9817
vn -0.0356 0.3208 0.9465
vn -0.0047 0.3412 0.9400
vn 0.0723 0.3011 0.9508
vn 0.5264 -0.2780 0.8035
vn 0.5086 -0.4591 0.7284
vn 0.5086 -0.4591 -0.7284
vn 0.5264 -0.2780 -0.8035
vn 0.3862 0.4376 -0.8120
vn 0.1809 0.7229 -0.6669
vn 0.3531 -0.2847 -0.8912
vn 0.2894 -0.1784 -0.9404
vn 0.2209 -0.2992 -0.9283
vn 0.4968 0.0595 -0.8658
vn 0.4926 0.2345 -0.8381
vn 0.0934 0.2023 0.9749
vn 0.1676 0.0293 0.9854
vn 0.2208 -0.0535 0.9738
vn 0.0963 0.0248 0.9950
vn 0.4926 0.2345 0.8381
vn 0.4968 0.0595 0.8658
vn 0.2009 -0.3343 -0.9208
vn 0.2208 -0.0535 -0.9738
vn 0.1676 0.0293 -0.9854
vn 0.0934 0.2023 -0.9749
vn 0.0530 -0.2326 -0.9711
vn 0.1914 -0.2249 -0.9554
vn 0.2566 -0.2302 -0.9387
vn 0.2247 -0.2645 -0.9378
vn 0.6237 -0.4659 -0.6276
vn 0.4767 -0.3925 -0.7866
vn 0.4767 -0.3925 0.7866
vn 0.6237 -0.4659 0.6276
vn 0.2247 -0.2645 0.9378
vn 0.2566 -0.2302 0.9387
vn 0.1914 -0.2249 0.9554
vn 0.0530 -0.2326 0.9711
vn -0.1609 0.1900 -0.9685
vn -0.1007 0.1604 -0.9819
vn 0.0116 0.3105 -0.9505
vn 0.0047 0.3412 -0.9400
vn -0.3862 0.4376 0.8120
vn -0.1809 0.7229 0.6669
vn -0.1214 -0.3146 0.9414
vn -0.5154 -0.5690 0.6408
vn 0.4277 0.7481 0.5074
vn 0.3107 0.8733 0.3753
vn 0.4274 0.7246 -0.5407
vn 0.3233 0.7988 -0.5073
vn -0.2198 -0.2692 -0.9377
vn -0.4383 -0.3872 -0.8111
vn -0.2679 -0.2799 0.9219
vn -0.0949 -0.1393 0.9857
vn -0.2171 -0.2670 0.9389
vn -0.1076 0.1573 0.9817
vn -0.0723 0.3011 0.9508
vn 0.0116 0.5014 0.8651
vn 0.0356 0.3208 0.9465
vn -0.4796 -0.4531 0.7515
vn -0.5186 -0.2797 0.8079
vn -0.5086 -0.4591 -0.7284
vn -0.5264 -0.2780 -0.8035
vn -0.3673 0.4360 -0.8216
vn -0.0875 0.6784 -0.7295
vn -0.2209 -0.2992 -0.9283
vn -0.2894 -0.1784 -0.9404
vn -0.3524 -0.2826 -0.8922
vn -0.4968 0.0595 -0.8658
vn -0.4358 0.2409 -0.8672
vn -0.0934 0.2023 0.9749
vn -0.0968 0.0244 0.9950
vn -0.2181 -0.0644 0.9738
vn -0.1572 -0.0388 0.9868
vn -0.4929 0.0552 0.8683
vn -0.4926 0.2345 0.8381
vn -0.2560 0.0272 -0.9663
vn -0.1676 0.0293 -0.9854
vn -0.2208 -0.0535 -0.9738
vn -0.0530 -0.2326 -0.9711
vn -0.2247 -0.2645 -0.9378
vn -0.2566 -0.2302 -0.9387
vn -0.1914 -0.2249 -0.9554
vn -0.7173 -0.5373 -0.4435
vn -0.4767 -0.3925 -0.7866
vn -0.6237 -0.4659 0.6276
vn -0.6255 -0.4481 0.6387
vn -0.1355 -0.2600 0.9560
vn -0.0790 -0.2246 0.9712
vn -0.0648 -0.2942 0.9535
vn -0.2106 -0.2314 0.9498
vn -1.0000 -0.0000 -0.0000
vn 0.7289 0.5588 0.3957
vn 0.2303 -0.1086 0.9671
vn 0.1021 -0.1492 0.9835
vn -0.0416 0.3868 0.9212
vn -0.1720 0.0198 -0.9849
vn -0.7450 0.5444 -0.3855
vn 0.7414 0.5477 -0.3878
vn -0.2009 -0.3345 0.9207
vn 0.3483 -0.2707 0.8975
vn -0.3541 -0.2698 0.8954
vn -0.2009 -0.3343 -0.9208
vn -0.0918 -0.1396 -0.9859
vn 0.1722 0.0196 -0.9849
vn -0.0760 -0.1909 -0.9787
vt 0.962500 0.838537
vt 0.957945 0.835593
vt 0.962745 0.835097
vt 0.961490 0.841405
vt 0.957770 0.837638
vt 0.939908 0.826944
vt 0.940380 0.828533
vt 0.939262 0.827413
vt 0.942012 0.826245
vt 0.940758 0.828423
vt 0.959652 0.844310
vt 0.956921 0.839239
vt 0.957531 0.846685
vt 0.954851 0.840739
vt 0.944878 0.944265
vt 0.939007 0.941751
vt 0.941398 0.939702
vt 0.946151 0.942338
vt 0.944264 0.938021
vt 0.956275 0.959534
vt 0.958431 0.958280
vt 0.957744 0.960376
vt 0.956159 0.959904
vt 0.957277 0.961023
vt 0.951569 0.825692
vt 0.954631 0.830859
vt 0.951010 0.829872
vt 0.956391 0.826579
vt 0.956835 0.831773
vt 0.953075 0.943209
vt 0.958273 0.943922
vt 0.953868 0.945522
vt 0.959028 0.948749
vt 0.954811 0.949234
vt 0.947655 0.941720
vt 0.947068 0.937215
vt 0.949547 0.941745
vt 0.950361 0.937206
vt 0.951618 0.942025
vt 0.953763 0.938221
vt 0.956628 0.940245
vt 0.960023 0.828418
vt 0.957874 0.833374
vt 0.961931 0.831488
vt 0.958979 0.954033
vt 0.955451 0.953875
vt 0.956061 0.957692
vt 0.946268 0.825692
vt 0.942613 0.828616
vt 0.946408 0.829211
vt 0.946992 0.846691
vt 0.949470 0.851222
vt 0.946177 0.851230
vt 0.948884 0.846717
vt 0.952274 0.850416
vt 0.938794 0.828060
vt 0.940263 0.828903
vt 0.938108 0.830156
vt 0.950387 0.846099
vt 0.955140 0.848735
vt 0.946361 0.829439
vt 0.946203 0.942506
vt 0.945178 0.944386
vt 0.951661 0.844172
vt 0.950336 0.845931
vt 0.939617 0.949198
vt 0.936886 0.944127
vt 0.941687 0.947698
vt 0.943912 0.946521
vt 0.956707 0.831794
vt 0.956701 0.839112
vt 0.957629 0.837653
vt 0.956631 0.961493
vt 0.955780 0.960014
vt 0.954526 0.962191
vt 0.953925 0.959821
vt 0.942670 0.842915
vt 0.942028 0.839071
vt 0.942766 0.842768
vt 0.941088 0.834562
vt 0.940665 0.830730
vt 0.941313 0.834525
vt 0.941853 0.948002
vt 0.955873 0.957707
vt 0.955225 0.953912
vt 0.945000 0.846226
vt 0.947018 0.846581
vt 0.943987 0.946554
vt 0.948887 0.846563
vt 0.957693 0.833430
vt 0.947652 0.941873
vt 0.937510 0.839688
vt 0.938265 0.844514
vt 0.945528 0.958565
vt 0.950177 0.958998
vt 0.950131 0.959225
vt 0.939837 0.949325
vt 0.943464 0.845228
vt 0.939910 0.848192
vt 0.954510 0.949366
vt 0.944970 0.962745
vt 0.941907 0.957577
vt 0.940147 0.961858
vt 0.939704 0.956663
vt 0.944921 0.846412
vt 0.943512 0.845097
vt 0.938593 0.952844
vt 0.934038 0.949899
vt 0.938768 0.950799
vt 0.935049 0.947032
vt 0.938909 0.950783
vt 0.953934 0.959632
vt 0.952626 0.841915
vt 0.951360 0.844051
vt 0.952551 0.841883
vt 0.954685 0.840435
vt 0.938695 0.952818
vt 0.936516 0.960019
vt 0.938664 0.955063
vt 0.933793 0.953339
vt 0.953772 0.945668
vt 0.940446 0.828600
vt 0.953027 0.943340
vt 0.951538 0.942211
vt 0.942059 0.957518
vt 0.942775 0.850216
vt 0.956093 0.959837
vt 0.956157 0.959503
vt 0.940477 0.830744
vt 0.940381 0.828934
vt 0.938845 0.955006
vt 0.940786 0.828552
vt 0.949521 0.941856
vt 0.945672 0.958263
vt 0.950867 0.830173
vt 0.955752 0.959885
vt 0.942605 0.828805
vt 0.950271 0.962745
vt 0.937559 0.834404
vt 0.939832 0.956643
vt 0.957844 0.835618
vt 0.941727 0.839202
vt 0.954480 0.830918
vt 0.950807 0.099233
vt 0.954917 0.099561
vt 0.954234 0.101100
vt 0.952974 0.097016
vt 0.951619 0.098402
vt 0.958677 0.098976
vt 0.958415 0.100505
vt 0.957969 0.102738
vt 0.293495 0.928586
vt 0.296136 0.924964
vt 0.296351 0.929291
vt 0.298358 0.924464
vt 0.299819 0.928927
vt 0.308424 0.906210
vt 0.307431 0.905634
vt 0.308524 0.903923
vt 0.307011 0.904763
vt 0.308405 0.903335
vt 0.289441 0.922763
vt 0.293655 0.922656
vt 0.291105 0.925986
vt 0.294614 0.925263
vt 0.959316 0.095450
vt 0.961972 0.097778
vt 0.956047 0.098080
vt 0.956054 0.093863
vt 0.938486 0.111842
vt 0.937682 0.113373
vt 0.937092 0.113268
vt 0.939366 0.112241
vt 0.939965 0.113220
vt 0.306262 0.915496
vt 0.301166 0.916849
vt 0.303523 0.913560
vt 0.304166 0.919714
vt 0.299399 0.918549
vt 0.299033 0.917441
vt 0.299977 0.914380
vt 0.300138 0.911804
vt 0.296630 0.920771
vt 0.295108 0.921491
vt 0.292519 0.919610
vt 0.293872 0.918224
vt 0.294683 0.917393
vt 0.307811 0.921553
vt 0.302762 0.922407
vt 0.308524 0.916335
vt 0.953363 0.108657
vt 0.950088 0.113089
vt 0.949198 0.110847
vt 0.956020 0.107191
vt 0.955286 0.112256
vt 0.962745 0.100616
vt 0.962464 0.104092
vt 0.945369 0.104798
vt 0.950435 0.105731
vt 0.947201 0.108152
vt 0.948655 0.101433
vt 0.947855 0.104554
vt 0.947994 0.102109
vt 0.952086 0.103926
vt 0.957654 0.105366
vt 0.959543 0.110978
vt 0.961773 0.107924
vt 0.300978 0.924086
vt 0.297626 0.919367
vt 0.295442 0.916616
vt 0.303634 0.928144
vt 0.306634 0.925841
vt 0.951089 0.101997
vt 0.950047 0.100011
vt 0.952854 0.102132
vt 0.941388 0.108873
vt 0.943016 0.110144
vt 0.944287 0.111394
vt 0.940856 0.112146
vt 0.944464 0.113104
vt 0.308412 0.910712
vt 0.306698 0.910574
vt 0.307371 0.907126
vt 0.305418 0.909333
vt 0.304110 0.907734
vt 0.950384 0.095132
vt 0.948862 0.095851
vt 0.949360 0.091658
vt 0.950882 0.091360
vt 0.951839 0.093968
vt 0.287523 0.913889
vt 0.282747 0.916014
vt 0.283026 0.912537
vt 0.287078 0.916123
vt 0.283521 0.918851
vt 0.307815 0.903230
vt 0.306130 0.904364
vt 0.305530 0.903385
vt 0.286816 0.917652
vt 0.286178 0.921178
vt 0.289446 0.918548
vt 0.954392 0.090640
vt 0.936973 0.112681
vt 0.938067 0.110971
vt 0.937075 0.110395
vt 0.938127 0.109479
vt 0.296297 0.905769
vt 0.295067 0.910896
vt 0.292131 0.907967
vt 0.298299 0.908461
vt 0.294531 0.913045
vt 0.293411 0.912704
vt 0.289473 0.909435
vt 0.291258 0.915527
vt 0.290575 0.917066
vt 0.295404 0.903527
vt 0.290204 0.904366
vt 0.285945 0.905648
vt 0.936973 0.100273
vt 0.941328 0.096896
vt 0.939234 0.101111
vt 0.937686 0.095058
vt 0.942732 0.094207
vt 0.947138 0.092155
vt 0.949149 0.087332
vt 0.952003 0.088038
vt 0.941975 0.103045
vt 0.944321 0.099756
vt 0.946087 0.098064
vt 0.945549 0.102297
vt 0.938865 0.090773
vt 0.944518 0.092531
vt 0.945680 0.087693
vt 0.287837 0.911261
vt 0.292638 0.914497
vt 0.283716 0.908703
vt 0.946458 0.099183
vt 0.948038 0.099015
vt 0.947863 0.097254
vt 0.940080 0.107274
vt 0.938801 0.106032
vt 0.937087 0.105895
vt 0.304639 0.904459
vt 0.301029 0.903504
vt 0.302480 0.906464
vt 0.301208 0.905215
vt 0.296834 0.915195
vt 0.296041 0.916003
vt 0.294401 0.914632
vt 0.297589 0.912036
vt 0.297448 0.917609
vt 0.299722 0.912230
vt 0.950957 0.103580
vt 0.949448 0.100624
vt 0.297494 0.914519
vt 0.945777 0.104380
vt 0.934607 0.956949
vt 0.941866 0.088473
vt 0.296524 0.915509
vt 0.948964 0.101118
s 1
usemtl itemHP
f 27/1/1 29/2/2 6/3/3
f 2/4/4 49/5/5 27/1/6
f 22/6/7 20/7/8 4/8/9
f 1/9/10 50/10/11 22/6/12
f 19/11/13 14/12/14 2/4/15
f 3/13/16 51/14/17 19/11/18
f 52/15/19 3/16/20 19/17/21
f 16/18/22 19/17/23 2/19/24
f 53/20/25 1/21/26 22/22/27
f 21/23/28 22/22/29 4/24/30
f 7/25/31 54/26/32 32/27/33
f 30/28/34 23/29/35 54/26/36
f 24/30/37 30/31/38 55/32/39
f 55/32/40 7/33/41 31/34/42
f 56/35/43 2/19/44 27/36/45
f 28/37/46 27/36/47 6/38/48
f 57/39/49 6/38/50 26/40/51
f 57/39/52 5/41/53 24/30/54
f 5/42/55 58/43/56 23/29/57
f 6/3/58 58/43/59 26/44/60
f 31/34/61 25/45/62 59/46/63
f 13/47/64 25/45/65 1/21/66
f 25/48/67 15/49/68 1/9/69
f 25/48/70 32/27/71 60/50/72
f 45/51/73 43/52/74 11/53/75
f 61/54/76 9/55/77 43/52/78
f 20/7/79 38/56/80 4/8/81
f 62/57/82 8/58/83 38/56/84
f 34/59/85 37/60/86 9/55/87
f 32/27/88 189/61/89 60/50/90
f 52/15/91 93/62/92 175/63/93
f 63/64/94 3/13/95 37/60/96
f 61/54/97 139/65/98 34/59/99
f 36/66/100 37/67/101 64/68/102
f 64/68/103 3/16/104 18/69/105
f 58/43/106 109/70/107 23/29/108
f 49/5/109 80/71/110 172/72/111
f 21/23/112 38/73/113 65/74/114
f 65/74/115 8/75/116 33/76/117
f 66/77/118 169/78/119 199/79/120
f 72/80/121 149/81/122 209/82/123
f 18/69/124 195/83/125 64/68/126
f 59/46/127 79/84/128 188/85/129
f 45/51/130 205/86/131 163/87/132
f 18/69/133 175/63/134 100/88/135
f 45/51/136 192/89/137 61/54/138
f 29/2/139 185/90/140 58/43/141
f 28/37/142 181/91/143 56/35/144
f 12/92/145 66/77/146 46/93/147
f 47/94/148 208/95/149 71/96/150
f 64/68/151 150/97/152 36/66/153
f 46/93/154 39/98/155 10/99/156
f 31/34/157 188/85/158 130/100/159
f 12/101/160 67/102/161 47/94/162
f 46/103/163 40/104/164 67/102/165
f 70/105/166 156/106/167 205/86/168
f 51/14/169 80/71/170 14/12/171
f 44/107/172 43/108/173 68/109/174
f 68/109/175 9/110/176 36/66/177
f 68/109/178 150/97/179 201/111/180
f 56/35/181 93/62/182 16/18/183
f 71/96/184 138/112/185 33/76/186
f 17/113/187 194/114/188 99/115/189
f 17/113/190 174/116/191 51/14/192
f 44/107/193 201/111/194 161/117/195
f 10/118/196 69/119/197 40/104/198
f 69/119/199 11/120/200 44/107/201
f 55/32/202 130/100/203 180/121/204
f 63/64/205 139/65/206 194/114/207
f 50/10/208 101/122/209 20/7/210
f 57/39/211 110/123/212 183/124/213
f 40/104/214 200/125/215 67/102/216
f 10/99/217 70/105/218 42/126/219
f 24/30/220 180/121/221 110/123/222
f 53/20/223 102/127/224 176/128/225
f 70/105/226 11/53/227 42/126/228
f 35/129/229 193/130/230 149/81/231
f 44/107/232 203/131/233 69/119/234
f 15/49/235 173/132/236 50/10/237
f 28/37/238 183/124/239 121/133/240
f 67/102/241 168/134/242 47/94/243
f 54/26/244 131/135/245 32/27/246
f 33/76/247 196/136/248 65/74/249
f 60/50/250 92/137/251 15/49/252
f 13/47/253 176/128/254 79/84/255
f 33/76/256 41/138/257 71/96/258
f 41/138/259 47/94/260 71/96/261
f 62/57/262 101/122/263 193/130/264
f 35/129/265 41/139/266 8/58/267
f 69/119/268 157/140/269 40/104/270
f 29/2/271 172/72/272 123/141/273
f 41/139/274 48/142/275 12/92/276
f 39/98/277 199/79/278 156/106/279
f 48/142/280 209/82/281 169/78/282
f 23/29/283 179/143/284 54/26/285
f 65/74/286 102/127/287 21/23/288
f 115/144/289 171/145/290 124/146/291
f 73/147/292 171/145/293 120/148/294
f 171/145/295 75/149/296 117/150/297
f 124/146/298 117/150/299 89/151/300
f 80/152/301 118/153/302 172/154/303
f 172/154/304 94/155/305 123/156/306
f 92/157/307 86/158/308 173/159/309
f 173/159/310 85/160/311 101/161/312
f 99/162/313 97/163/314 174/164/315
f 174/164/316 81/165/317 80/152/318
f 75/149/319 175/166/320 93/167/321
f 74/168/322 100/169/323 175/166/324
f 88/170/325 176/171/326 102/172/327
f 87/173/328 79/174/329 176/171/330
f 82/175/331 177/176/332 132/177/333
f 126/178/334 103/179/335 177/176/336
f 177/176/337 219/180/338 217/181/339
f 132/177/340 177/176/340 105/182/340
f 118/153/341 122/183/342 94/155/343
f 81/165/344 178/184/345 118/153/346
f 178/184/347 98/185/348 119/186/349
f 178/184/350 107/187/351 122/183/352
f 179/188/353 96/189/354 126/178/355
f 131/190/356 126/178/357 82/175/358
f 125/191/359 130/192/360 76/193/361
f 91/194/362 180/195/363 125/191/364
f 89/151/365 181/196/366 121/197/367
f 117/150/368 93/167/369 181/196/370
f 113/198/371 182/199/371 129/200/371
f 111/201/372 228/202/373 128/203/374
f 112/204/375 125/191/376 182/199/377
f 182/199/378 76/193/379 129/200/380
f 90/205/381 110/206/382 91/194/383
f 90/205/384 121/197/385 183/207/386
f 95/208/387 103/179/388 96/189/389
f 95/208/390 122/183/391 184/209/392
f 184/209/393 107/187/394 108/210/395
f 184/209/396 219/180/397 103/179/398
f 123/156/399 95/208/400 185/211/401
f 109/212/402 95/208/403 96/189/404
f 222/213/405 116/214/406 186/215/407
f 115/144/408 186/215/409 116/214/410
f 124/146/411 90/205/412 186/215/413
f 112/204/414 90/205/415 91/194/416
f 114/216/417 87/173/418 88/170/419
f 113/198/420 187/217/421 114/216/422
f 129/200/423 77/218/424 187/217/425
f 187/217/426 78/219/427 87/173/428
f 78/219/429 188/220/430 79/174/431
f 76/193/432 188/220/433 77/218/434
f 189/221/435 82/175/436 83/222/437
f 189/221/438 84/223/439 92/157/440
f 84/223/441 190/224/442 86/158/443
f 83/222/444 132/177/445 190/224/446
f 190/224/447 105/182/448 106/225/449
f 86/158/450 106/225/451 85/160/452
f 115/144/453 191/226/454 120/148/455
f 164/227/456 159/228/457 191/226/458
f 191/226/459 134/229/460 133/230/461
f 191/226/462 73/147/463 120/148/464
f 151/231/465 192/232/466 163/233/467
f 160/234/468 139/235/469 192/232/470
f 85/160/471 193/236/472 101/161/473
f 144/237/474 149/238/475 193/236/476
f 140/239/477 194/240/478 139/235/479
f 154/241/480 99/162/481 194/240/482
f 134/229/483 195/242/484 133/230/485
f 133/230/486 100/169/487 73/147/488
f 88/170/489 196/243/490 145/244/491
f 145/244/492 138/245/493 137/246/494
f 141/247/495 197/248/496 166/249/497
f 170/250/498 105/182/498 197/248/498
f 197/248/499 218/251/500 155/252/501
f 166/249/502 155/252/503 153/253/504
f 162/254/505 160/234/506 151/231/507
f 107/187/508 198/255/509 162/254/510
f 198/255/511 98/185/512 154/241/513
f 198/255/514 140/239/515 160/234/516
f 169/256/517 166/249/518 199/257/519
f 199/257/520 153/253/521 156/258/522
f 168/259/523 165/260/524 135/261/525
f 200/262/526 148/263/527 165/260/528
f 146/264/529 201/265/530 159/228/531
f 159/228/532 150/266/533 134/229/534
f 113/198/535 167/267/535 202/268/535
f 135/261/536 202/268/537 167/267/538
f 165/260/539 158/269/540 202/268/541
f 225/270/542 111/201/543 128/203/544
f 157/271/545 147/272/546 148/263/547
f 147/272/548 161/273/549 146/264/550
f 155/252/551 152/274/552 153/253/553
f 218/251/554 204/275/555 155/252/556
f 204/275/557 107/187/558 162/254/559
f 152/274/560 162/254/561 151/231/562
f 156/258/563 152/274/564 205/276/565
f 152/274/566 163/233/567 205/276/568
f 111/201/569 227/277/569 223/278/569
f 158/269/570 147/272/571 206/279/572
f 147/272/573 164/227/574 206/279/575
f 206/279/576 115/144/577 116/214/578
f 145/244/579 114/216/580 88/170/581
f 137/246/582 207/280/583 145/244/584
f 136/281/585 167/267/586 207/280/587
f 207/280/588 113/198/589 114/216/590
f 137/246/591 208/282/592 136/281/593
f 208/282/594 135/261/595 136/281/596
f 143/283/597 209/284/598 149/238/599
f 209/284/600 141/247/601 169/256/602
f 143/283/603 210/285/604 142/286/605
f 144/237/606 106/225/607 210/285/608
f 210/285/609 105/182/610 170/250/611
f 142/286/612 170/250/613 141/247/614
f 104/287/615 214/288/615 212/289/615
f 105/182/616 216/290/617 197/248/618
f 213/291/619 108/210/620 214/288/621
f 105/182/622 217/181/623 215/292/624
f 186/215/625 226/293/626 222/213/627
f 224/294/628 111/201/628 223/278/628
f 113/198/629 228/202/630 182/199/631
f 225/270/632 113/198/633 202/268/634
f 212/289/635 108/210/636 204/275/637
f 217/181/638 104/287/639 127/295/640
f 216/290/641 215/292/641 127/295/641
f 216/290/642 104/287/643 218/251/644
f 212/289/645 218/251/645 104/287/645
f 219/180/646 213/291/646 104/287/646
f 215/292/647 217/181/647 127/295/647
f 116/214/648 223/278/649 206/279/650
f 111/201/651 224/294/651 222/213/651
f 222/213/652 226/293/652 111/201/652
f 227/277/653 202/268/654 158/269/655
f 227/277/656 206/279/657 223/278/658
f 228/202/659 221/296/659 128/203/659
f 221/296/660 225/270/660 128/203/660
f 226/293/661 182/199/662 228/202/663
f 27/1/1 49/5/664 29/2/2
f 2/4/4 14/12/665 49/5/5
f 22/6/7 50/10/666 20/7/8
f 1/9/10 15/49/667 50/10/11
f 19/11/13 51/14/668 14/12/14
f 3/13/16 17/113/669 51/14/17
f 52/15/19 18/69/670 3/16/20
f 16/18/22 52/15/671 19/17/23
f 53/20/25 13/47/672 1/21/26
f 21/23/28 53/20/673 22/22/29
f 7/25/31 30/28/674 54/26/32
f 30/28/34 5/42/675 23/29/35
f 24/30/37 5/41/676 30/31/38
f 55/32/40 30/31/677 7/33/41
f 56/35/43 16/18/678 2/19/44
f 28/37/46 56/35/679 27/36/47
f 57/39/49 28/37/680 6/38/50
f 57/39/52 26/40/681 5/41/53
f 5/42/55 26/44/682 58/43/56
f 6/3/58 29/2/683 58/43/59
f 31/34/61 7/33/684 25/45/62
f 13/47/64 59/46/685 25/45/65
f 25/48/67 60/50/686 15/49/68
f 25/48/70 7/25/687 32/27/71
f 45/51/73 61/54/688 43/52/74
f 61/54/76 34/59/689 9/55/77
f 20/7/79 62/57/690 38/56/80
f 62/57/82 35/129/691 8/58/83
f 34/59/85 63/64/692 37/60/86
f 32/27/88 131/135/693 189/61/89
f 52/15/91 16/18/694 93/62/92
f 63/64/94 17/113/695 3/13/95
f 61/54/97 192/89/696 139/65/98
f 36/66/100 9/110/697 37/67/101
f 64/68/103 37/67/698 3/16/104
f 58/43/106 185/90/699 109/70/107
f 49/5/109 14/12/700 80/71/110
f 21/23/112 4/24/701 38/73/113
f 65/74/115 38/73/702 8/75/116
f 66/77/118 48/142/703 169/78/119
f 72/80/121 35/129/704 149/81/122
f 18/69/124 100/88/705 195/83/125
f 59/46/127 13/47/706 79/84/128
f 45/51/130 70/105/707 205/86/131
f 18/69/133 52/15/708 175/63/134
f 45/51/136 163/87/709 192/89/137
f 29/2/139 123/141/710 185/90/140
f 28/37/142 121/133/711 181/91/143
f 12/92/145 48/142/712 66/77/146
f 47/94/148 168/134/713 208/95/149
f 64/68/151 195/83/714 150/97/152
f 46/93/154 66/77/715 39/98/155
f 31/34/157 59/46/716 188/85/158
f 12/101/160 46/103/717 67/102/161
f 46/103/163 10/118/718 40/104/164
f 70/105/166 39/98/719 156/106/167
f 51/14/169 174/116/720 80/71/170
f 44/107/172 11/120/721 43/108/173
f 68/109/175 43/108/722 9/110/176
f 68/109/178 36/66/723 150/97/179
f 56/35/181 181/91/724 93/62/182
f 71/96/184 208/95/725 138/112/185
f 17/113/187 63/64/726 194/114/188
f 17/113/190 99/115/727 174/116/191
f 44/107/193 68/109/728 201/111/194
f 10/118/196 42/297/729 69/119/197
f 69/119/199 42/297/730 11/120/200
f 55/32/202 31/34/731 130/100/203
f 63/64/205 34/59/732 139/65/206
f 50/10/208 173/132/733 101/122/209
f 57/39/211 24/30/734 110/123/212
f 40/104/214 157/140/735 200/125/215
f 10/99/217 39/98/736 70/105/218
f 24/30/220 55/32/737 180/121/221
f 53/20/223 21/23/738 102/127/224
f 70/105/226 45/51/739 11/53/227
f 35/129/229 62/57/740 193/130/230
f 44/107/232 161/117/741 203/131/233
f 15/49/235 92/137/742 173/132/236
f 28/37/238 57/39/743 183/124/239
f 67/102/241 200/125/744 168/134/242
f 54/26/244 179/143/745 131/135/245
f 33/76/247 138/112/746 196/136/248
f 60/50/250 189/61/747 92/137/251
f 13/47/253 53/20/748 176/128/254
f 33/76/256 8/75/749 41/138/257
f 41/138/259 12/101/750 47/94/260
f 62/57/262 20/7/751 101/122/263
f 35/129/265 72/80/752 41/139/266
f 69/119/268 203/131/753 157/140/269
f 29/2/271 49/5/754 172/72/272
f 41/139/274 72/80/755 48/142/275
f 39/98/277 66/77/756 199/79/278
f 48/142/280 72/80/757 209/82/281
f 23/29/283 109/70/758 179/143/284
f 65/74/286 196/136/759 102/127/287
f 115/144/289 120/148/760 171/145/290
f 73/147/292 74/168/761 171/145/293
f 171/145/295 74/168/762 75/149/296
f 124/146/298 171/145/763 117/150/299
f 80/152/301 81/165/764 118/153/302
f 172/154/304 118/153/765 94/155/305
f 92/157/307 84/223/766 86/158/308
f 173/159/310 86/158/767 85/160/311
f 99/162/313 98/185/768 97/163/314
f 174/164/316 97/163/769 81/165/317
f 75/149/319 74/168/770 175/166/320
f 74/168/322 73/147/771 100/169/323
f 88/170/325 87/173/772 176/171/326
f 87/173/328 78/219/773 79/174/329
f 82/175/331 126/178/774 177/176/332
f 126/178/334 96/189/775 103/179/335
f 177/176/337 103/179/776 219/180/338
f 118/153/341 178/184/777 122/183/342
f 81/165/344 97/163/778 178/184/345
f 178/184/347 97/163/779 98/185/348
f 178/184/350 119/186/780 107/187/351
f 179/188/353 109/212/781 96/189/354
f 131/190/356 179/188/782 126/178/357
f 125/191/359 180/195/783 130/192/360
f 91/194/362 110/206/784 180/195/363
f 89/151/365 117/150/785 181/196/366
f 117/150/368 75/149/786 93/167/369
f 111/201/372 226/293/787 228/202/373
f 112/204/375 91/194/788 125/191/376
f 182/199/378 125/191/789 76/193/379
f 90/205/381 183/207/790 110/206/382
f 90/205/384 89/151/791 121/197/385
f 95/208/387 184/209/792 103/179/388
f 95/208/390 94/155/793 122/183/391
f 184/209/393 122/183/794 107/187/394
f 184/209/396 213/291/795 219/180/397
f 123/156/399 94/155/796 95/208/400
f 109/212/402 185/211/797 95/208/403
f 222/213/405 224/294/798 116/214/406
f 115/144/408 124/146/799 186/215/409
f 124/146/411 89/151/800 90/205/412
f 112/204/414 186/215/801 90/205/415
f 114/216/417 187/217/802 87/173/418
f 113/198/420 129/200/803 187/217/421
f 129/200/423 76/193/804 77/218/424
f 187/217/426 77/218/805 78/219/427
f 78/219/429 77/218/806 188/220/430
f 76/193/432 130/192/807 188/220/433
f 189/221/435 131/190/808 82/175/436
f 189/221/438 83/222/809 84/223/439
f 84/223/441 83/222/810 190/224/442
f 83/222/444 82/175/811 132/177/445
f 190/224/447 132/177/812 105/182/448
f 86/158/450 190/224/813 106/225/451
f 115/144/453 164/227/814 191/226/454
f 164/227/456 146/264/815 159/228/457
f 191/226/459 159/228/816 134/229/460
f 191/226/462 133/230/817 73/147/463
f 151/231/465 160/234/818 192/232/466
f 160/234/468 140/239/819 139/235/469
f 85/160/471 144/237/820 193/236/472
f 144/237/474 143/283/821 149/238/475
f 140/239/477 154/241/822 194/240/478
f 154/241/480 98/185/823 99/162/481
f 134/229/483 150/266/824 195/242/484
f 133/230/486 195/242/825 100/169/487
f 88/170/489 102/172/826 196/243/490
f 145/244/492 196/243/827 138/245/493
f 141/247/495 170/250/828 197/248/496
f 197/248/499 216/290/829 218/251/500
f 166/249/502 197/248/830 155/252/503
f 162/254/505 198/255/831 160/234/506
f 107/187/508 119/186/832 198/255/509
f 198/255/511 119/186/833 98/185/512
f 198/255/514 154/241/834 140/239/515
f 169/256/517 141/247/835 166/249/518
f 199/257/520 166/249/836 153/253/521
f 168/259/523 200/262/837 165/260/524
f 200/262/526 157/271/838 148/263/527
f 146/264/529 161/273/839 201/265/530
f 159/228/532 201/265/840 150/266/533
f 135/261/536 165/260/841 202/268/537
f 165/260/539 148/263/842 158/269/540
f 225/270/542 227/277/843 111/201/543
f 157/271/545 203/298/844 147/272/546
f 147/272/548 203/298/845 161/273/549
f 155/252/551 204/275/846 152/274/552
f 218/251/554 212/289/847 204/275/555
f 204/275/557 108/210/848 107/187/558
f 152/274/560 204/275/849 162/254/561
f 156/258/563 153/253/850 152/274/564
f 152/274/566 151/231/851 163/233/567
f 158/269/570 148/263/852 147/272/571
f 147/272/573 146/264/853 164/227/574
f 206/279/576 164/227/854 115/144/577
f 145/244/579 207/280/855 114/216/580
f 137/246/582 136/281/856 207/280/583
f 136/281/585 135/261/857 167/267/586
f 207/280/588 167/267/858 113/198/589
f 137/246/591 138/245/859 208/282/592
f 208/282/594 168/259/860 135/261/595
f 143/283/597 142/286/861 209/284/598
f 209/284/600 142/286/862 141/247/601
f 143/283/603 144/237/863 210/285/604
f 144/237/606 85/160/864 106/225/607
f 210/285/609 106/225/865 105/182/610
f 142/286/612 210/285/866 170/250/613
f 104/287/867 211/299/867 214/288/867
f 105/182/616 215/292/868 216/290/617
f 213/291/619 184/209/869 108/210/620
f 105/182/622 177/176/870 217/181/623
f 104/287/871 213/291/871 214/288/871
f 186/215/625 112/204/872 226/293/626
f 224/294/867 220/300/867 111/201/867
f 113/198/629 221/296/873 228/202/630
f 225/270/632 221/296/874 113/198/633
f 212/289/635 214/288/875 108/210/636
f 217/181/638 219/180/876 104/287/639
f 216/290/642 127/295/877 104/287/643
f 116/214/648 224/294/878 223/278/649
f 227/277/653 225/270/879 202/268/654
f 227/277/656 158/269/880 206/279/657
f 226/293/661 112/204/881 182/199/662
