# Blender 5.1.2
# www.blender.org
mtllib enemy.mtl
o Wizard_Blob.001
v 1.023181 1.312163 -0.404944
v 0.386424 1.169032 -1.047457
v 0.924321 1.233327 0.339369
v 0.334241 1.181990 0.884630
v 0.810936 1.137613 -0.775910
v 1.063278 1.238043 0.039537
v 0.713638 1.321560 0.652672
v 0.763441 1.471577 -0.305898
v 0.334482 1.385100 -0.792642
v 0.685717 1.459237 0.243505
v 0.240610 1.425093 0.698900
v 0.618411 1.396603 -0.592371
v 0.781836 1.468757 0.017402
v 0.567354 1.490251 0.462279
v 0.045903 1.792563 -0.526229
v 0.053858 1.666569 -0.601204
v 0.177753 1.691244 0.463665
v 0.157508 1.815576 0.338103
v 0.400657 1.699610 0.302243
v 0.341121 1.821684 0.200787
v 0.481404 1.704156 0.152996
v -0.944758 1.191430 -0.601311
v -0.177169 1.169684 -1.107255
v -0.994103 1.336372 0.135821
v -0.472106 1.301201 0.849308
v -0.649212 1.255684 -0.930833
v -1.067049 1.275566 -0.186493
v -0.886646 1.234448 0.455181
v 0.110451 1.226418 -1.132250
v -0.113595 1.187773 0.979378
v -0.701893 1.433080 -0.461372
v -0.180346 1.385100 -0.847266
v -0.741186 1.496439 0.092109
v -0.401549 1.474245 0.630766
v -0.499979 1.428035 -0.711033
v -0.787720 1.489668 -0.149130
v -0.671366 1.459100 0.330849
v 0.081443 1.402701 -0.861189
v -0.091454 1.427352 0.768361
v 0.405198 1.825023 0.075023
v 0.197564 1.796593 -0.489276
v 0.241792 1.670823 -0.553863
v 0.546977 1.712965 -0.001251
v 0.455317 1.831775 -0.053811
v 0.534428 1.696435 -0.221806
v 0.438818 1.817877 -0.232027
v 0.353653 1.801331 -0.384701
v 0.435488 1.676088 -0.417238
v 1.086619 1.304659 -0.423053
v 0.413688 1.151626 -1.102067
v 0.982144 1.222137 0.363545
v 0.358541 1.171435 0.939782
v 0.862317 1.123220 -0.815093
v 1.128995 1.230239 0.046680
v 0.759492 1.314590 0.694646
v -0.993118 1.181778 -0.630575
v -0.181923 1.156138 -1.165262
v -1.045267 1.330244 0.148434
v -0.493615 1.293075 0.902454
v -0.680782 1.244971 -0.978817
v -1.122357 1.263530 -0.192192
v -0.931705 1.221097 0.485937
v 0.122038 1.214043 -1.191676
v -0.114737 1.175461 1.039914
v 1.124361 1.251244 -0.435149
v 0.427984 1.092867 -1.137821
v 1.016246 1.166151 0.378855
v 0.370915 1.113897 0.975170
v 0.892244 1.064650 -0.840848
v 1.168214 1.174358 0.050950
v 0.785836 1.261521 0.721493
v -1.027838 1.124341 -0.649901
v -0.188379 1.092867 -1.203218
v -1.081803 1.277721 0.156250
v -0.510931 1.239257 0.936541
v -0.704619 1.189477 -1.010278
v -1.161579 1.209051 -0.196244
v -0.964285 1.165350 0.505512
v 0.126172 1.157471 -1.230553
v -0.118852 1.118414 1.078790
v 1.027865 1.223411 -0.404212
v 0.391453 1.082597 -1.046378
v 0.929060 1.146832 0.339698
v 0.339298 1.094369 0.884664
v 0.815736 1.050259 -0.774977
v 1.067941 1.149786 0.040029
v 0.718490 1.232804 0.652832
v -0.939009 1.102887 -0.600473
v -0.171836 1.082597 -1.106143
v -0.988327 1.247608 0.136261
v -0.466613 1.212456 0.849362
v -0.643623 1.166963 -0.929817
v -1.061234 1.188196 -0.185880
v -0.880929 1.148376 0.455448
v 0.115630 1.137713 -1.131125
v -0.108296 1.099864 0.979362
v 0.385650 1.839533 -0.209837
v 0.515714 1.672316 -0.215735
v 0.233231 1.636020 -0.536271
v 0.173300 1.812032 -0.436266
v 0.356059 1.848766 0.060426
v 0.464530 1.683257 0.146064
v 0.138043 1.836561 0.291988
v 0.171414 1.664959 0.445955
v 0.420207 1.643481 -0.404386
v 0.310689 1.818154 -0.344220
v 0.400173 1.857491 -0.052973
v 0.527828 1.695740 -0.002832
v 0.299658 1.844453 0.171123
v 0.386584 1.676817 0.290133
v -0.478601 1.672316 -0.321233
v -0.352671 1.839533 -0.288174
v -0.097535 1.812032 -0.465002
v -0.135146 1.636020 -0.575356
v -0.504477 1.683257 0.043251
v -0.380450 1.848766 -0.017718
v -0.280816 1.664959 0.397972
v -0.215879 1.836561 0.254436
v -0.251180 1.818153 -0.403835
v -0.345635 1.643481 -0.485643
v -0.535121 1.695740 -0.115612
v -0.399786 1.857491 -0.137850
v -0.458498 1.676817 0.200468
v -0.348534 1.844453 0.102349
v 0.051818 1.629992 -0.581970
v 0.039809 1.806824 -0.468792
v -0.044480 1.832377 0.325635
v -0.061744 1.659402 0.488342
v -0.049859 1.812338 0.376330
v -0.063785 1.687322 0.507576
v -0.284693 1.801331 -0.452430
v -0.357879 1.676088 -0.501415
v -0.495624 1.696435 -0.331096
v -0.399998 1.817877 -0.321026
v -0.554175 1.712965 -0.118085
v -0.453527 1.831775 -0.150241
v -0.110135 1.796593 -0.521923
v -0.139825 1.670823 -0.594353
v -0.522430 1.704156 0.046488
v -0.431559 1.825023 -0.013758
v -0.474799 1.699612 0.209356
v -0.395298 1.821684 0.122652
v -0.290730 1.691244 0.413959
v -0.244588 1.815576 0.295440
v 0.253450 2.225488 0.097473
v 0.332181 2.144452 -0.040623
v 0.129221 2.314829 0.104407
v 0.000794 2.385015 0.009418
v 0.303731 2.173634 0.044990
v 0.187274 2.282990 0.118228
v 0.072946 2.347958 0.084144
v 0.213105 2.223146 -0.295869
v 0.318328 2.143648 -0.175686
v 0.089947 2.312550 -0.278493
v -0.016608 2.384006 -0.160245
v 0.273055 2.171853 -0.254078
v 0.144024 2.280479 -0.303435
v 0.038916 2.345982 -0.247620
v 0.333193 2.135242 -0.108916
v -0.033092 2.398109 -0.072911
v 0.488308 2.384799 0.018709
v 0.504286 2.296910 -0.077632
v 0.446332 2.490921 0.018533
v 0.393474 2.582725 -0.055211
v 0.498818 2.330151 -0.016802
v 0.469901 2.448096 0.030662
v 0.424284 2.533515 0.001688
v 0.458869 2.383090 -0.268304
v 0.494178 2.296323 -0.176184
v 0.417674 2.489257 -0.260861
v 0.380776 2.581988 -0.179010
v 0.476435 2.328852 -0.235025
v 0.438342 2.446264 -0.277016
v 0.399453 2.532074 -0.240394
v 0.500727 2.287936 -0.127010
v 0.376900 2.601172 -0.116174
v 0.823015 2.416625 -0.080547
v 0.794408 2.372196 -0.130066
v 0.847032 2.474576 -0.085487
v 0.860299 2.528339 -0.130692
v 0.805809 2.389818 -0.097865
v 0.840093 2.448982 -0.076710
v 0.854405 2.499253 -0.096827
v 0.806716 2.415679 -0.239442
v 0.788812 2.371871 -0.184627
v 0.831167 2.473656 -0.240164
v 0.853269 2.527932 -0.199229
v 0.793417 2.389099 -0.218677
v 0.822622 2.447968 -0.247046
v 0.840658 2.498455 -0.230848
v 0.788890 2.368087 -0.157044
v 0.859975 2.539598 -0.165356
v 0.929321 2.278890 -0.120703
v 0.894733 2.274010 -0.149947
v 0.966949 2.287697 -0.126559
v 0.996364 2.298534 -0.156716
v 0.908590 2.276807 -0.130359
v 0.952270 2.282107 -0.119905
v 0.981225 2.292535 -0.134677
v 0.919128 2.278298 -0.220082
v 0.891202 2.273805 -0.184370
v 0.957150 2.287128 -0.222090
v 0.992062 2.298285 -0.198662
v 0.900791 2.276354 -0.206395
v 0.941433 2.281478 -0.225559
v 0.972771 2.292044 -0.217097
v 0.889861 2.273819 -0.166839
v 1.000648 2.301211 -0.178366
v 0.835154 2.135845 -0.120148
v 0.805077 2.136086 -0.143346
v 0.872015 2.136801 -0.126146
v 0.904109 2.138342 -0.151315
v 0.816950 2.136700 -0.127684
v 0.856725 2.135202 -0.120108
v 0.887150 2.137585 -0.133340
v 0.826982 2.135371 -0.199824
v 0.802240 2.135921 -0.171007
v 0.864292 2.136352 -0.201445
v 0.900825 2.138151 -0.183335
v 0.810685 2.136335 -0.188760
v 0.848097 2.134701 -0.204235
v 0.880570 2.137203 -0.197482
v 0.801153 2.136291 -0.156921
v 0.909525 2.138695 -0.168052
v 0.978252 2.020945 -0.151217
v 0.964837 2.007926 -0.164759
v 0.991063 2.037100 -0.154044
v 0.999741 2.051261 -0.167447
v 0.970134 2.013188 -0.155577
v 0.986674 2.030023 -0.150993
v 0.995428 2.043701 -0.157712
v 0.973546 2.020671 -0.197098
v 0.963175 2.007829 -0.180962
v 0.986644 2.036844 -0.197121
v 0.997845 2.051151 -0.185927
v 0.966491 2.012977 -0.191090
v 0.981736 2.029736 -0.199134
v 0.991655 2.043482 -0.194494
v 0.962713 2.006706 -0.172721
v 1.000682 2.054130 -0.176898
v 1.101346 2.044861 -0.176841
v 1.101247 2.038351 -0.183573
v 1.099874 2.052881 -0.177012
v 1.097441 2.059952 -0.182403
v 1.101326 2.040842 -0.179290
v 1.100932 2.049564 -0.176083
v 1.098919 2.056151 -0.178276
v 1.099249 2.044739 -0.197280
v 1.100527 2.038309 -0.190591
v 1.097834 2.052763 -0.196908
v 1.096537 2.059899 -0.191219
v 1.099732 2.040750 -0.194830
v 1.098685 2.049434 -0.197993
v 1.097151 2.056048 -0.195515
v 1.100872 2.037703 -0.187077
v 1.096534 2.061390 -0.186773
v 0.745484 0.863915 0.771435
v 0.770951 0.857070 0.721737
v 0.782702 0.851653 0.666985
v 0.779936 0.848033 0.610909
v 0.762843 0.846456 0.557331
v 0.732586 0.847031 0.509903
v 0.691229 0.849717 0.471856
v 0.641589 0.854332 0.445783
v 0.587049 0.860562 0.433461
v 0.654388 0.859353 0.844833
v 0.694723 0.832072 0.816981
v 0.726654 0.807843 0.777502
v 0.747888 0.788396 0.729168
v 0.756979 0.775057 0.675273
v 0.753306 0.768735 0.619490
v 0.737120 0.769860 0.565620
v 0.709524 0.778356 0.517334
v 0.672398 0.793645 0.477923
v 0.628274 0.814683 0.450074
v 0.580156 0.840038 0.435682
v 0.608054 0.888059 0.859399
v 0.640143 0.843214 0.848242
v 0.667431 0.800741 0.823409
v 0.688057 0.763535 0.786592
v 0.700617 0.734130 0.740301
v 0.704255 0.714531 0.687690
v 0.698722 0.706074 0.632345
v 0.684396 0.709335 0.578037
v 0.662253 0.724091 0.528467
v 0.633802 0.749337 0.487013
v 0.600982 0.783353 0.456501
v 0.566029 0.823820 0.439009
v 0.620932 0.833772 0.852169
v 0.630317 0.782499 0.830995
v 0.635570 0.737737 0.797320
v 0.636334 0.702535 0.753441
v 0.632556 0.679291 0.702346
v 0.624494 0.669591 0.647517
v 0.612697 0.674094 0.592692
v 0.597969 0.692495 0.541607
v 0.581315 0.723539 0.497742
v 0.563868 0.765111 0.464087
v 0.546817 0.814377 0.442937
v 0.599560 0.832542 0.856097
v 0.589031 0.780124 0.838584
v 0.577183 0.734377 0.808054
v 0.564825 0.698419 0.766586
v 0.552798 0.674701 0.717008
v 0.541923 0.664839 0.662697
v 0.532939 0.669505 0.607354
v 0.526461 0.688380 0.554752
v 0.522928 0.720179 0.508475
v 0.522582 0.762735 0.471677
v 0.525446 0.813148 0.446865
v 0.579283 0.839712 0.859430
v 0.549859 0.793975 0.845022
v 0.521786 0.753966 0.817158
v 0.496977 0.722411 0.777737
v 0.477124 0.701460 0.729445
v 0.463579 0.692542 0.675572
v 0.457265 0.696263 0.619791
v 0.458613 0.712372 0.565903
v 0.467530 0.739768 0.517580
v 0.483410 0.776587 0.478115
v 0.505169 0.820318 0.450198
v 0.563188 0.854191 0.861659
v 0.518764 0.821945 0.849328
v 0.477811 0.793522 0.823248
v 0.443119 0.770857 0.785195
v 0.417053 0.755494 0.737763
v 0.401389 0.748482 0.684184
v 0.397195 0.750298 0.628110
v 0.404755 0.760817 0.573361
v 0.423556 0.779324 0.523669
v 0.452315 0.804557 0.482421
v 0.489074 0.834796 0.452426
v 0.553723 0.873773 0.862445
v 0.500481 0.859776 0.850846
v 0.451954 0.847023 0.825395
v 0.411451 0.836382 0.787825
v 0.381732 0.828578 0.740696
v 0.364822 0.824144 0.687221
v 0.361873 0.823381 0.631043
v 0.373087 0.826342 0.575991
v 0.397699 0.832825 0.525817
v 0.434032 0.842388 0.483939
v 0.479609 0.854379 0.453213
v 0.552332 0.895479 0.861668
v 0.497792 0.901708 0.849346
v 0.448152 0.906323 0.823273
v 0.406794 0.909009 0.785226
v 0.376538 0.909584 0.737798
v 0.359444 0.908007 0.684220
v 0.356679 0.904387 0.628145
v 0.368430 0.898970 0.573392
v 0.393896 0.892126 0.523695
v 0.431343 0.884320 0.482439
v 0.478217 0.876084 0.452436
v 0.531326 0.867981 0.435731
v 0.559224 0.916003 0.859447
v 0.511107 0.941357 0.845056
v 0.466982 0.962395 0.817206
v 0.429856 0.977684 0.777795
v 0.402260 0.986180 0.729509
v 0.386074 0.987306 0.675639
v 0.382402 0.980984 0.619856
v 0.391492 0.967644 0.565961
v 0.412727 0.948198 0.517627
v 0.444658 0.923968 0.478148
v 0.485110 0.896608 0.450215
v 0.573351 0.932220 0.856120
v 0.538399 0.972688 0.838628
v 0.505579 1.006703 0.808116
v 0.477128 1.031950 0.766662
v 0.454985 1.046705 0.717092
v 0.440659 1.049966 0.662784
v 0.435126 1.041509 0.607439
v 0.438763 1.021910 0.554828
v 0.451323 0.992505 0.508537
v 0.471950 0.955299 0.471721
v 0.499237 0.912826 0.446888
v 0.592563 0.941662 0.852193
v 0.575513 0.990929 0.831042
v 0.558066 1.032501 0.797388
v 0.541411 1.063545 0.753523
v 0.526683 1.081946 0.702437
v 0.514886 1.086450 0.647612
v 0.506824 1.076749 0.592784
v 0.503047 1.053506 0.541689
v 0.503810 1.018303 0.497809
v 0.509064 0.973541 0.464135
v 0.518449 0.922268 0.442961
v 0.613934 0.942893 0.848264
v 0.616798 0.993305 0.823452
v 0.616453 1.035861 0.786654
v 0.612920 1.067661 0.740377
v 0.606441 1.086536 0.687775
v 0.597458 1.091201 0.632433
v 0.586582 1.081339 0.578122
v 0.574555 1.057621 0.528543
v 0.562197 1.021663 0.487075
v 0.550349 0.975917 0.456545
v 0.539820 0.923499 0.439032
v 0.634211 0.935722 0.844932
v 0.655971 0.979453 0.817014
v 0.671850 1.016272 0.777550
v 0.680768 1.043669 0.729226
v 0.682116 1.059777 0.675338
v 0.675802 1.063498 0.619557
v 0.662257 1.054580 0.565685
v 0.642403 1.033629 0.517392
v 0.617595 1.002074 0.477971
v 0.589521 0.962065 0.450107
v 0.560097 0.916328 0.435700
v 0.650307 0.921244 0.842703
v 0.687065 0.951483 0.812709
v 0.715825 0.976716 0.771460
v 0.734625 0.995223 0.721768
v 0.742186 1.005742 0.667020
v 0.737991 1.007558 0.610945
v 0.722327 1.000546 0.557367
v 0.696261 0.985183 0.509934
v 0.661569 0.962518 0.471882
v 0.620616 0.934095 0.445801
v 0.576192 0.901850 0.433471
v 0.659771 0.901661 0.841917
v 0.705349 0.913652 0.811190
v 0.741681 0.923215 0.769313
v 0.766293 0.929698 0.719139
v 0.777507 0.932659 0.664087
v 0.774558 0.931897 0.607908
v 0.757648 0.927463 0.554433
v 0.727929 0.919659 0.507304
v 0.687426 0.909017 0.469734
v 0.638900 0.896264 0.444283
v 0.585657 0.882267 0.432685
v 0.661163 0.879956 0.842694
v 0.708038 0.871721 0.812691
v 0.611783 0.922828 0.852339
v 0.583104 0.919809 0.857041
v 0.627010 0.922601 0.848915
v 0.598090 0.922538 0.854764
v 0.616139 0.853975 0.854859
v 0.630899 0.856133 0.851456
v 0.602732 0.853269 0.857330
v 0.587511 0.853537 0.859421
v -0.745484 0.863915 0.771435
v -0.770951 0.857070 0.721737
v -0.782702 0.851653 0.666985
v -0.779936 0.848033 0.610909
v -0.762843 0.846456 0.557331
v -0.732586 0.847031 0.509903
v -0.691229 0.849717 0.471856
v -0.641589 0.854332 0.445783
v -0.587049 0.860562 0.433461
v -0.654388 0.859353 0.844833
v -0.694723 0.832072 0.816981
v -0.726654 0.807843 0.777502
v -0.747888 0.788396 0.729168
v -0.756979 0.775057 0.675273
v -0.753306 0.768735 0.619490
v -0.737120 0.769860 0.565620
v -0.709524 0.778356 0.517334
v -0.672398 0.793645 0.477923
v -0.628274 0.814683 0.450074
v -0.580156 0.840038 0.435682
v -0.608054 0.888059 0.859399
v -0.640143 0.843214 0.848242
v -0.667431 0.800741 0.823409
v -0.688057 0.763535 0.786592
v -0.700617 0.734130 0.740301
v -0.704255 0.714531 0.687690
v -0.698722 0.706074 0.632345
v -0.684396 0.709335 0.578037
v -0.662253 0.724091 0.528467
v -0.633802 0.749337 0.487013
v -0.600982 0.783353 0.456501
v -0.566029 0.823820 0.439009
v -0.620932 0.833772 0.852169
v -0.630317 0.782499 0.830995
v -0.635570 0.737737 0.797320
v -0.636334 0.702535 0.753441
v -0.632556 0.679291 0.702346
v -0.624494 0.669591 0.647517
v -0.612697 0.674094 0.592692
v -0.597969 0.692495 0.541607
v -0.581315 0.723539 0.497742
v -0.563868 0.765111 0.464087
v -0.546817 0.814377 0.442937
v -0.599560 0.832542 0.856097
v -0.589031 0.780124 0.838584
v -0.577183 0.734377 0.808054
v -0.564825 0.698419 0.766586
v -0.552798 0.674701 0.717008
v -0.541923 0.664839 0.662697
v -0.532939 0.669505 0.607354
v -0.526461 0.688380 0.554752
v -0.522928 0.720179 0.508475
v -0.522582 0.762735 0.471677
v -0.525446 0.813148 0.446865
v -0.579283 0.839712 0.859430
v -0.549859 0.793975 0.845022
v -0.521786 0.753966 0.817158
v -0.496977 0.722411 0.777737
v -0.477124 0.701460 0.729445
v -0.463579 0.692542 0.675572
v -0.457265 0.696263 0.619791
v -0.458613 0.712372 0.565903
v -0.467530 0.739768 0.517580
v -0.483410 0.776587 0.478115
v -0.505169 0.820318 0.450198
v -0.563188 0.854191 0.861659
v -0.518764 0.821945 0.849328
v -0.477811 0.793522 0.823248
v -0.443119 0.770857 0.785195
v -0.417053 0.755494 0.737763
v -0.401389 0.748482 0.684184
v -0.397195 0.750298 0.628110
v -0.404755 0.760817 0.573361
v -0.423556 0.779324 0.523669
v -0.452315 0.804557 0.482421
v -0.489074 0.834796 0.452426
v -0.553723 0.873773 0.862445
v -0.500481 0.859776 0.850846
v -0.451954 0.847023 0.825395
v -0.411451 0.836382 0.787825
v -0.381732 0.828578 0.740696
v -0.364822 0.824144 0.687221
v -0.361873 0.823381 0.631043
v -0.373087 0.826342 0.575991
v -0.397699 0.832825 0.525817
v -0.434032 0.842388 0.483939
v -0.479609 0.854379 0.453213
v -0.552332 0.895479 0.861668
v -0.497792 0.901708 0.849346
v -0.448152 0.906323 0.823273
v -0.406794 0.909009 0.785226
v -0.376538 0.909584 0.737798
v -0.359444 0.908007 0.684220
v -0.356679 0.904387 0.628145
v -0.368430 0.898970 0.573392
v -0.393896 0.892126 0.523695
v -0.431343 0.884320 0.482439
v -0.478217 0.876084 0.452436
v -0.531326 0.867981 0.435731
v -0.559224 0.916003 0.859447
v -0.511107 0.941357 0.845056
v -0.466982 0.962395 0.817206
v -0.429856 0.977684 0.777795
v -0.402260 0.986180 0.729509
v -0.386074 0.987306 0.675639
v -0.382402 0.980984 0.619856
v -0.391492 0.967644 0.565961
v -0.412727 0.948198 0.517627
v -0.444658 0.923968 0.478148
v -0.485110 0.896608 0.450215
v -0.573351 0.932220 0.856120
v -0.538399 0.972688 0.838628
v -0.505579 1.006703 0.808116
v -0.477128 1.031950 0.766662
v -0.454985 1.046705 0.717092
v -0.440659 1.049966 0.662784
v -0.435126 1.041509 0.607439
v -0.438763 1.021910 0.554828
v -0.451323 0.992505 0.508537
v -0.471950 0.955299 0.471721
v -0.499237 0.912826 0.446888
v -0.592563 0.941662 0.852193
v -0.575513 0.990929 0.831042
v -0.558066 1.032501 0.797388
v -0.541411 1.063545 0.753523
v -0.526683 1.081946 0.702437
v -0.514886 1.086450 0.647612
v -0.506824 1.076749 0.592784
v -0.503047 1.053506 0.541689
v -0.503810 1.018303 0.497809
v -0.509064 0.973541 0.464135
v -0.518449 0.922268 0.442961
v -0.613934 0.942893 0.848264
v -0.616798 0.993305 0.823452
v -0.616453 1.035861 0.786654
v -0.612920 1.067661 0.740377
v -0.606441 1.086536 0.687775
v -0.597458 1.091201 0.632433
v -0.586582 1.081339 0.578122
v -0.574555 1.057621 0.528543
v -0.562197 1.021663 0.487075
v -0.550349 0.975917 0.456545
v -0.539820 0.923499 0.439032
v -0.634211 0.935722 0.844932
v -0.655971 0.979453 0.817014
v -0.671850 1.016272 0.777550
v -0.680768 1.043669 0.729226
v -0.682116 1.059777 0.675338
v -0.675802 1.063498 0.619557
v -0.662257 1.054580 0.565685
v -0.642403 1.033629 0.517392
v -0.617595 1.002074 0.477971
v -0.589521 0.962065 0.450107
v -0.560097 0.916328 0.435700
v -0.650307 0.921244 0.842703
v -0.687065 0.951483 0.812709
v -0.715825 0.976716 0.771460
v -0.734625 0.995223 0.721768
v -0.742186 1.005742 0.667020
v -0.737991 1.007558 0.610945
v -0.722327 1.000546 0.557367
v -0.696261 0.985183 0.509934
v -0.661569 0.962518 0.471882
v -0.620616 0.934095 0.445801
v -0.576192 0.901850 0.433471
v -0.659771 0.901661 0.841917
v -0.705349 0.913652 0.811190
v -0.741681 0.923215 0.769313
v -0.766293 0.929698 0.719139
v -0.777507 0.932659 0.664087
v -0.774558 0.931897 0.607908
v -0.757648 0.927463 0.554433
v -0.727929 0.919659 0.507304
v -0.687426 0.909017 0.469734
v -0.638900 0.896264 0.444283
v -0.585657 0.882267 0.432685
v -0.661163 0.879956 0.842694
v -0.708038 0.871721 0.812691
v -0.611783 0.922828 0.852339
v -0.583104 0.919809 0.857041
v -0.627010 0.922601 0.848915
v -0.598090 0.922538 0.854764
v -0.616139 0.853975 0.854859
v -0.630899 0.856133 0.851456
v -0.602732 0.853269 0.857330
v -0.587511 0.853537 0.859421
vn 0.2754 0.8936 -0.3546
vn 0.0372 0.9204 -0.3892
vn 0.0653 0.7867 -0.6138
vn 0.3128 0.7531 -0.5788
vn 0.2268 0.9312 0.2855
vn 0.3979 0.9108 0.1100
vn 0.6063 0.7492 0.2667
vn 0.4590 0.7757 0.4331
vn 0.2133 0.8907 -0.4015
vn 0.4111 0.7481 -0.5209
vn 0.2723 0.9405 -0.2034
vn 0.5470 0.8016 -0.2412
vn 0.0535 0.8857 0.4612
vn 0.2003 0.7165 0.6682
vn 0.0087 0.7282 0.6854
vn 0.1046 0.8954 0.4328
vn 0.3349 0.9321 0.1378
vn 0.6163 0.7744 0.1434
vn 0.4667 0.7743 0.4274
vn 0.2250 0.7559 0.6148
vn 0.4416 0.7498 -0.4928
vn 0.5875 0.7753 -0.2319
vn 0.6391 0.7581 0.1301
vn 0.6046 0.7429 0.2872
vn 0.0685 0.7604 -0.6458
vn 0.2837 0.7471 -0.6012
vn -0.0271 0.7753 0.6311
vn -0.0886 0.9100 -0.4050
vn -0.1240 0.7757 -0.6188
vn -0.2990 0.9102 0.2867
vn -0.5238 0.7662 0.3723
vn -0.5785 0.7919 0.1953
vn -0.3497 0.9254 0.1458
vn -0.1888 0.9335 -0.3048
vn -0.3296 0.7906 -0.5160
vn -0.3349 0.9167 -0.2178
vn -0.5362 0.7683 -0.3496
vn -0.1528 0.9186 0.3644
vn -0.3371 0.7728 0.5377
vn -0.5978 0.7933 -0.1156
vn -0.3426 0.9216 -0.1823
vn 0.4339 0.7690 -0.4694
vn 0.5748 0.7769 -0.2570
vn 0.7706 0.5839 -0.2554
vn 0.6161 0.5441 -0.5696
vn -0.3484 0.7656 -0.5409
vn -0.1257 0.7562 -0.6421
vn -0.6044 0.7728 0.1936
vn -0.6225 0.7797 -0.0667
vn -0.5463 0.7568 -0.3589
vn -0.5376 0.7717 0.3398
vn -0.3444 0.7875 0.5110
vn 0.5339 0.8198 0.2071
vn 0.5559 0.8135 0.1710
vn -0.4703 0.8643 0.1782
vn -0.4880 0.7785 0.3947
vn 0.3367 0.8605 0.3824
vn -0.2161 0.8492 0.4819
vn 0.1178 0.7882 0.6041
vn 0.0693 0.8259 -0.5596
vn -0.1529 0.7774 -0.6101
vn 0.3450 0.7883 -0.5094
vn 0.0703 0.7861 0.6141
vn -0.2981 0.8327 -0.4667
vn -0.5235 0.7936 -0.3101
vn 0.4479 0.8638 -0.2306
vn 0.3698 0.7583 -0.5369
vn -0.5576 0.8153 -0.1560
vn -0.1932 0.5332 -0.8236
vn -0.4558 0.5718 -0.6822
vn 0.7516 0.5544 0.3574
vn 0.7953 0.5733 0.1971
vn -0.7962 0.5839 -0.1586
vn -0.7755 0.5794 0.2510
vn 0.5465 0.5794 0.6047
vn -0.6661 0.5596 0.4932
vn 0.2277 0.5451 0.8069
vn -0.3683 0.5817 0.7252
vn 0.4179 0.5462 -0.7259
vn 0.0898 0.5609 -0.8230
vn 0.0397 0.5588 0.8284
vn 0.7356 0.5962 -0.3215
vn 0.5281 0.5492 -0.6476
vn -0.7113 0.5686 -0.4131
vn 0.2000 -0.9783 0.0540
vn 0.2977 -0.9544 0.0214
vn 0.2990 -0.9539 0.0262
vn 0.1830 -0.9825 0.0350
vn -0.1653 -0.9729 0.1617
vn -0.2136 -0.9596 0.1831
vn -0.2031 -0.9610 0.1876
vn -0.1489 -0.9751 0.1647
vn -0.1650 -0.9841 -0.0660
vn -0.1391 -0.9755 -0.1704
vn -0.1439 -0.9757 -0.1651
vn -0.1642 -0.9841 -0.0676
vn 0.2247 -0.9727 -0.0571
vn 0.2231 -0.9738 -0.0431
vn -0.2444 -0.9542 0.1724
vn -0.2441 -0.9539 0.1747
vn -0.0650 -0.9840 -0.1656
vn -0.0578 -0.9848 -0.1635
vn -0.0086 -0.9922 -0.1245
vn -0.0223 -0.9923 -0.1221
vn 0.1458 -0.9704 0.1924
vn 0.1403 -0.9692 0.2024
vn -0.2831 -0.9585 0.0348
vn -0.2872 -0.9578 0.0145
vn 0.2237 -0.9562 0.1886
vn 0.2275 -0.9560 0.1852
vn -0.2080 -0.9779 0.0206
vn -0.2006 -0.9791 0.0333
vn 0.2012 -0.9714 0.1258
vn 0.2030 -0.9712 0.1251
vn 0.0184 -0.9847 -0.1734
vn -0.4782 -0.5889 0.6515
vn -0.0858 -0.5821 0.8086
vn -0.4762 -0.5887 0.6532
vn 0.0268 0.9673 -0.2522
vn 0.0780 0.9659 -0.2469
vn 0.2332 0.7796 -0.5812
vn 0.0660 0.7805 -0.6217
vn -0.1972 -0.4913 -0.8484
vn -0.5234 -0.5435 -0.6562
vn -0.5379 -0.5465 -0.6419
vn -0.2041 -0.4918 -0.8465
vn 0.7121 -0.6891 0.1342
vn 0.7638 -0.6263 -0.1560
vn 0.7630 -0.6297 -0.1457
vn 0.7144 -0.6883 0.1259
vn -0.0757 0.7621 0.6430
vn -0.3378 0.7723 0.5381
vn -0.3309 0.8158 0.4744
vn -0.0596 0.8251 0.5618
vn -0.0816 0.7797 -0.6209
vn -0.1061 0.7796 -0.6172
vn 0.5371 0.6656 0.5182
vn 0.2336 0.7120 0.6622
vn 0.2240 0.8158 0.5333
vn 0.4570 0.7965 0.3959
vn -0.6043 0.7879 -0.1183
vn -0.4508 0.7927 -0.4104
vn -0.5081 0.7769 -0.3719
vn -0.6114 0.7880 -0.0727
vn 0.6715 0.6932 -0.2620
vn 0.7545 0.6497 0.0933
vn 0.6131 0.7880 0.0573
vn 0.0927 -0.4774 -0.8738
vn 0.3309 -0.5889 0.7373
vn 0.5958 -0.6246 0.5048
vn 0.6001 -0.6256 0.4985
vn 0.3285 -0.5887 0.7386
vn 0.6494 -0.5435 -0.5318
vn 0.6606 -0.5465 -0.5147
vn -0.6885 -0.6246 0.3685
vn -0.6913 -0.6256 0.3615
vn -0.7141 -0.6263 -0.3128
vn -0.7244 -0.6891 -0.0183
vn -0.7249 -0.6883 -0.0268
vn -0.7155 -0.6297 -0.3026
vn -0.5265 0.7789 0.3407
vn -0.5299 0.7965 0.2912
vn 0.6842 -0.6661 0.2971
vn 0.6838 -0.6688 0.2918
vn 0.7522 0.6438 0.1406
vn 0.3471 0.5170 -0.7825
vn 0.5456 0.7886 0.2835
vn 0.6759 0.6496 0.3481
vn 0.5277 0.6789 0.5105
vn 0.2481 0.7104 0.6586
vn 0.0908 0.5091 -0.8559
vn -0.0725 0.7270 0.6829
vn -0.4828 0.5441 -0.6862
vn -0.6998 0.5839 -0.4114
vn -0.3258 0.7690 -0.5500
vn -0.7649 0.6438 -0.0204
vn -0.1752 0.5170 -0.8379
vn -0.7339 0.6496 0.1985
vn -0.5930 0.7886 0.1627
vn -0.6231 0.6789 0.3884
vn -0.3808 0.7104 0.5919
vn -0.2685 0.8016 -0.5342
vn 0.3708 -0.4913 -0.7881
vn 0.3771 -0.4918 -0.7848
vn 0.1729 0.9542 -0.2441
vn -0.7313 -0.6661 0.1469
vn -0.7298 -0.6688 0.1419
vn 0.7037 0.6193 0.3482
vn -0.6297 0.7631 0.1453
vn 0.2180 0.2928 -0.9310
vn 0.2374 0.0654 -0.9692
vn 0.5410 -0.1000 -0.8351
vn 0.5047 0.2601 -0.8232
vn -0.3105 0.5648 0.7646
vn -0.5367 0.6904 0.4850
vn -0.0471 0.4215 0.9056
vn -0.6649 0.7399 0.1023
vn 0.9325 -0.2663 0.2440
vn 0.8047 -0.1363 0.5778
vn 0.2187 0.2802 0.9347
vn 0.9478 0.2302 -0.2206
vn -0.0743 0.3010 -0.9507
vn -0.6304 0.7052 -0.3244
vn -0.4778 0.5767 -0.6626
vn -0.2900 0.4371 -0.8514
vn 0.7586 0.2494 -0.6020
vn 0.8069 -0.2442 -0.5379
vn 0.6662 -0.7431 -0.0639
vn 0.4841 -0.8739 -0.0445
vn 0.4922 -0.8201 0.2920
vn -0.0553 0.3907 -0.9189
vn 0.0300 0.1630 -0.9862
vn -0.0851 0.8758 0.4751
vn -0.1809 0.9834 0.0127
vn -0.1211 0.6233 -0.7726
vn 0.5513 0.0367 0.8335
vn 0.4618 -0.5995 0.6537
vn 0.3580 -0.2486 0.9000
vn -0.1808 0.8703 -0.4582
vn 0.2294 0.1746 0.9575
vn 0.4236 -0.8240 -0.3761
vn 0.1319 0.4016 0.9063
vn 0.1681 -0.2596 -0.9510
vn 0.3202 -0.6077 -0.7267
vn 0.0375 0.6325 0.7737
vn -0.1727 -0.9025 0.3945
vn -0.0238 -0.6616 0.7495
vn -0.1746 -0.6703 -0.7212
vn -0.2481 -0.9069 -0.3406
vn 0.3158 0.0772 0.9457
vn 0.3825 0.2723 0.8829
vn 0.1950 0.2614 -0.9453
vn 0.1171 0.0657 -0.9909
vn 0.4716 0.5029 0.7243
vn 0.3141 0.4938 -0.8109
vn 0.5366 0.7361 0.4126
vn 0.4408 0.7305 -0.5215
vn 0.2622 -0.9648 -0.0211
vn 0.5237 0.8499 -0.0588
vn 0.1288 -0.3077 0.9427
vn -0.0649 -0.3189 -0.9456
vn 0.9294 0.0058 0.3691
vn 0.8575 0.5064 -0.0910
vn -0.5156 -0.1239 0.8478
vn -0.0921 -0.1112 0.9895
vn 0.8351 0.0003 -0.5501
vn -0.2909 -0.1227 -0.9488
vn -0.6768 -0.1333 -0.7240
vn 0.3292 -0.1156 0.9371
vn 0.1323 -0.1270 -0.9830
vn -0.6039 -0.6939 0.3922
vn -0.6701 -0.6977 -0.2532
vn 0.5010 -0.0736 0.8623
vn 0.3156 -0.0844 -0.9451
vn 0.7241 -0.0415 0.6885
vn 0.5693 -0.0505 -0.8206
vn -0.6793 -0.7301 0.0740
vn 0.3808 -0.0245 -0.9243
vn 0.2267 -0.0661 -0.9717
vn 0.5605 -0.0140 0.8280
vn 0.8016 -0.4554 0.3873
vn 0.7069 -0.4609 -0.5366
vn -0.7684 0.5148 0.3802
vn -0.8351 0.5438 0.0824
vn -0.7809 0.5221 0.3430
vn -0.8302 0.5112 -0.2224
vn -0.8349 0.5190 -0.1835
vn 0.8626 -0.4986 -0.0855
vn -0.6387 -0.1149 0.7609
vn -0.2427 -0.1315 0.9612
vn -0.4326 -0.1425 -0.8903
vn -0.7797 -0.1231 -0.6140
vn 0.1246 -0.1018 0.9870
vn -0.0782 -0.1136 -0.9904
vn 0.4193 -0.0550 0.9062
vn -0.6160 -0.7609 -0.2040
vn -0.2151 -0.7670 -0.6045
vn -0.2503 -0.9298 -0.2700
vn 0.2170 -0.0527 0.9747
vn 0.2662 0.2693 0.9255
vn 0.0725 0.2580 -0.9634
vn 0.0147 -0.0645 -0.9978
vn 0.3092 0.4717 0.8257
vn 0.1346 0.4616 -0.8768
vn 0.6322 0.6003 0.4898
vn 0.3342 0.7917 0.5113
vn 0.5189 0.5938 -0.6150
vn 0.2225 0.7852 -0.5779
vn -0.5608 -0.7577 0.3338
vn -0.6179 -0.7833 0.0680
vn -0.2547 -0.9665 0.0319
vn -0.1892 -0.9262 0.3261
vn 0.6761 0.7331 -0.0737
vn 0.3080 0.9507 -0.0373
vn -0.0870 -0.7596 0.6445
vn 0.0860 -0.4561 0.8858
vn -0.0950 -0.4666 -0.8793
vn 0.2681 -0.7620 0.5894
vn 0.2609 -0.4136 0.8723
vn -0.0742 0.9972 0.0017
vn -0.1022 0.8701 -0.4821
vn 0.0789 -0.4242 -0.9021
vn 0.1437 -0.7693 -0.6225
vn 0.2044 0.0505 0.9776
vn 0.0017 0.0387 -0.9992
vn 0.2452 -0.9340 0.2599
vn 0.1885 -0.9373 -0.2932
vn 0.1429 0.3564 0.9234
vn -0.0479 0.3453 -0.9373
vn 0.0856 0.5976 0.7972
vn -0.0787 0.5880 -0.8050
vn -0.0033 0.8759 0.4825
vn 0.2184 -0.9757 -0.0166
vn 0.9791 0.1761 -0.1015
vn 0.9887 -0.1227 0.0860
vn 0.9365 -0.0981 0.3367
vn 0.8290 -0.4182 0.3714
vn 0.8692 -0.4785 0.1245
vn -0.1780 -0.0466 -0.9829
vn 0.0960 -0.0829 -0.9919
vn 0.0622 -0.1837 -0.9810
vn 0.6524 -0.0312 0.7572
vn 0.4053 -0.0946 0.9093
vn 0.5891 -0.2196 0.7776
vn 0.5731 -0.1321 -0.8088
vn 0.7609 -0.1440 -0.6326
vn 0.6534 -0.4641 -0.5980
vn 0.4848 -0.3952 -0.7803
vn 0.9756 -0.1391 -0.1701
vn 0.8520 -0.5071 -0.1303
vn 0.8220 -0.0669 0.5655
vn 0.7337 -0.3300 0.5940
vn 0.3466 -0.1113 -0.9314
vn 0.2833 -0.2997 -0.9110
vn 0.8980 -0.1464 -0.4150
vn 0.7785 -0.5022 -0.3765
vn 0.4381 0.0064 0.8989
vn 0.1781 0.0465 0.9829
vn 0.3037 -0.6031 -0.7376
vn 0.1536 -0.4485 -0.8805
vn 0.5987 -0.7978 -0.0706
vn 0.5336 -0.7834 -0.3188
vn 0.5526 -0.5379 0.6366
vn 0.6086 -0.6711 0.4232
vn -0.0072 -0.2633 -0.9647
vn 0.2554 -0.0574 0.9651
vn 0.4331 -0.7171 -0.5461
vn 0.6243 -0.7596 0.1822
vn 0.3353 -0.1733 0.9260
vn 0.4595 -0.3685 0.8081
vn 0.2409 -0.2201 0.9453
vn 0.2831 -0.4552 0.8442
vn 0.1335 -0.8643 -0.4849
vn 0.0574 -0.7241 -0.6873
vn 0.2913 -0.9233 0.2503
vn 0.2543 -0.9671 -0.0002
vn 0.3063 -0.6590 0.6870
vn -0.0227 -0.5352 -0.8444
vn 0.2005 -0.9471 -0.2507
vn 0.3090 -0.8184 0.4845
vn -0.1016 -0.3097 -0.9454
vn 0.2097 -0.0800 0.9745
vn -0.2189 -0.5465 -0.8084
vn -0.2065 -0.3157 -0.9261
vn 0.1597 -0.0829 0.9837
vn 0.1359 -0.2261 0.9646
vn -0.1700 -0.9684 -0.1826
vn -0.1999 -0.8835 -0.4236
vn -0.0243 -0.8376 0.5458
vn -0.0792 -0.9446 0.3184
vn 0.0869 -0.4665 0.8803
vn -0.2166 -0.7399 -0.6369
vn -0.1288 -0.9892 0.0702
vn 0.0323 -0.6748 0.7373
vn -0.0992 -0.4006 0.9108
vn -0.2276 -0.5828 0.7801
vn -0.4765 -0.6480 -0.5942
vn -0.4050 -0.4807 -0.7778
vn -0.4924 -0.8606 0.1300
vn -0.5215 -0.8441 -0.1248
vn -0.3406 -0.7258 0.5977
vn -0.3061 -0.2805 -0.9097
vn 0.1122 -0.0662 0.9915
vn 0.0363 -0.1909 0.9809
vn -0.5161 -0.7717 -0.3716
vn -0.4307 -0.8203 0.3762
vn -0.3851 -0.2094 -0.8988
vn -0.0427 -0.1198 0.9919
vn -0.2469 -0.2677 0.9313
vn -0.7672 -0.5459 -0.3369
vn -0.6829 -0.4624 -0.5656
vn -0.7098 -0.5693 0.4148
vn -0.7809 -0.6011 0.1699
vn -0.4340 -0.3972 0.8086
vn -0.5528 -0.3478 -0.7573
vn -0.8005 -0.5931 -0.0862
vn -0.5916 -0.4999 0.6325
vn -0.5553 -0.1462 0.8187
vn -0.7392 -0.1945 0.6448
vn -0.6396 -0.1680 -0.7501
vn -0.4316 -0.1133 -0.8949
vn -0.0892 -0.0237 0.9957
vn -0.9646 -0.2536 -0.0726
vn -0.9148 -0.2405 -0.3246
vn -0.8738 -0.2299 0.4284
vn -0.3338 -0.0880 0.9385
vn -0.8042 -0.2113 -0.5556
vn -0.9506 -0.2500 0.1840
vn -0.3466 0.1113 0.9314
vn -0.5731 0.1321 0.8088
vn -0.8220 0.0669 -0.5655
vn -0.6524 0.0312 -0.7572
vn -0.9756 0.1391 0.1701
vn -0.9887 0.1227 -0.0860
vn -0.7609 0.1440 0.6326
vn -0.4384 -0.0067 -0.8987
vn -0.0960 0.0829 0.9919
vn -0.9365 0.0981 -0.3367
vn -0.8980 0.1464 0.4150
vn -0.6534 0.4641 0.5980
vn -0.7785 0.5022 0.3765
vn -0.4046 0.0941 -0.9097
vn -0.0622 0.1837 0.9810
vn -0.2833 0.2997 0.9110
vn -0.8290 0.4182 -0.3714
vn -0.7337 0.3300 -0.5940
vn -0.8520 0.5071 0.1303
vn -0.4848 0.3952 0.7803
vn -0.5891 0.2196 -0.7776
vn -0.8692 0.4785 -0.1245
vn -0.3037 0.6031 0.7376
vn -0.4331 0.7171 0.5461
vn -0.4595 0.3685 -0.8081
vn -0.3352 0.1737 -0.9260
vn 0.0983 0.1503 0.9837
vn -0.6243 0.7596 -0.1822
vn -0.6086 0.6711 -0.4232
vn -0.5336 0.7834 0.3188
vn 0.0072 0.2633 0.9647
vn -0.1536 0.4485 0.8805
vn -0.5526 0.5379 -0.6366
vn -0.5987 0.7978 0.0706
vn -0.2005 0.9471 0.2507
vn -0.2543 0.9671 0.0002
vn 0.0227 0.5352 0.8444
vn -0.0574 0.7241 0.6873
vn -0.3063 0.6590 -0.6870
vn -0.2831 0.4552 -0.8442
vn -0.2913 0.9233 -0.2503
vn -0.1335 0.8643 0.4849
vn -0.2409 0.2201 -0.9453
vn 0.1433 0.1724 0.9745
vn 0.1016 0.3097 0.9454
vn -0.3090 0.8184 -0.4845
vn 0.1999 0.8835 0.4236
vn 0.1700 0.9684 0.1826
vn -0.1359 0.2261 -0.9646
vn 0.2065 0.3157 0.9261
vn 0.2189 0.5465 0.8084
vn 0.0243 0.8376 -0.5458
vn -0.0323 0.6748 -0.7373
vn 0.1288 0.9892 -0.0702
vn 0.2166 0.7399 0.6369
vn -0.0869 0.4665 -0.8803
vn 0.0792 0.9446 -0.3184
vn 0.1933 0.1753 0.9654
vn 0.4924 0.8606 -0.1300
vn 0.4307 0.8203 -0.3762
vn 0.4765 0.6480 0.5942
vn 0.5161 0.7717 0.3716
vn 0.0992 0.4006 -0.9108
vn -0.0363 0.1909 -0.9809
vn 0.2408 0.1585 0.9576
vn 0.3061 0.2805 0.9097
vn 0.3406 0.7258 -0.5977
vn 0.5215 0.8441 0.1248
vn 0.4050 0.4807 0.7778
vn 0.2276 0.5828 -0.7801
vn 0.8005 0.5931 0.0862
vn 0.7809 0.6011 -0.1699
vn 0.5528 0.3478 0.7573
vn 0.6829 0.4624 0.5656
vn 0.4340 0.3972 -0.8086
vn 0.2469 0.2677 -0.9313
vn 0.7098 0.5693 -0.4148
vn 0.7672 0.5459 0.3369
vn 0.0427 0.1198 -0.9919
vn 0.3851 0.2094 0.8988
vn 0.5916 0.4999 -0.6325
vn 0.8738 0.2299 -0.4284
vn 0.7392 0.1945 -0.6448
vn 0.9148 0.2405 0.3246
vn 0.9646 0.2536 0.0726
vn 0.0892 0.0237 -0.9957
vn 0.6396 0.1680 0.7501
vn 0.5553 0.1462 -0.8187
vn 0.9506 0.2500 -0.1840
vn 0.8042 0.2113 0.5556
vn 0.3338 0.0880 -0.9385
vn 0.4316 0.1133 0.8949
vn -0.9887 -0.1227 0.0860
vn -0.8692 -0.4785 0.1245
vn -0.8290 -0.4182 0.3714
vn -0.9365 -0.0981 0.3367
vn 0.1780 -0.0466 -0.9829
vn -0.0622 -0.1837 -0.9810
vn -0.0960 -0.0829 -0.9919
vn -0.6524 -0.0312 0.7572
vn -0.5891 -0.2196 0.7776
vn -0.4053 -0.0946 0.9093
vn -0.5731 -0.1321 -0.8088
vn -0.4848 -0.3952 -0.7803
vn -0.6534 -0.4641 -0.5980
vn -0.7609 -0.1440 -0.6326
vn -0.9756 -0.1391 -0.1701
vn -0.8520 -0.5071 -0.1303
vn -0.8220 -0.0669 0.5655
vn -0.7337 -0.3300 0.5940
vn -0.3466 -0.1113 -0.9314
vn -0.2833 -0.2997 -0.9110
vn -0.8980 -0.1464 -0.4150
vn -0.7785 -0.5022 -0.3765
vn -0.4381 0.0064 0.8989
vn -0.1781 0.0465 0.9829
vn -0.1536 -0.4485 -0.8805
vn -0.3037 -0.6031 -0.7376
vn -0.5336 -0.7834 -0.3188
vn -0.5987 -0.7978 -0.0706
vn -0.6086 -0.6711 0.4232
vn -0.5526 -0.5379 0.6366
vn 0.0072 -0.2633 -0.9647
vn -0.2554 -0.0574 0.9651
vn -0.4331 -0.7171 -0.5461
vn -0.6243 -0.7596 0.1822
vn -0.4595 -0.3685 0.8081
vn -0.3353 -0.1733 0.9260
vn -0.2831 -0.4552 0.8442
vn -0.2409 -0.2201 0.9453
vn -0.0574 -0.7241 -0.6873
vn -0.1335 -0.8643 -0.4849
vn -0.2543 -0.9671 -0.0002
vn -0.2913 -0.9233 0.2503
vn -0.3063 -0.6590 0.6870
vn 0.0227 -0.5352 -0.8444
vn -0.2005 -0.9471 -0.2507
vn -0.3090 -0.8184 0.4845
vn 0.1016 -0.3097 -0.9454
vn -0.2097 -0.0801 0.9745
vn 0.2065 -0.3157 -0.9261
vn 0.2189 -0.5465 -0.8084
vn -0.1359 -0.2261 0.9646
vn -0.1597 -0.0829 0.9837
vn 0.1999 -0.8835 -0.4236
vn 0.1700 -0.9684 -0.1826
vn 0.0792 -0.9446 0.3184
vn 0.0243 -0.8376 0.5458
vn -0.0869 -0.4665 0.8803
vn 0.2166 -0.7399 -0.6369
vn 0.1288 -0.9892 0.0702
vn -0.0323 -0.6748 0.7373
vn 0.2276 -0.5828 0.7801
vn 0.0992 -0.4006 0.9108
vn 0.4050 -0.4807 -0.7778
vn 0.4765 -0.6480 -0.5942
vn 0.5215 -0.8441 -0.1248
vn 0.4924 -0.8606 0.1300
vn 0.3406 -0.7258 0.5977
vn 0.3061 -0.2805 -0.9097
vn -0.0363 -0.1909 0.9809
vn -0.1122 -0.0662 0.9915
vn 0.5161 -0.7717 -0.3716
vn 0.4307 -0.8203 0.3762
vn 0.3851 -0.2094 -0.8988
vn 0.2469 -0.2677 0.9313
vn 0.0427 -0.1198 0.9919
vn 0.6829 -0.4624 -0.5656
vn 0.7672 -0.5459 -0.3369
vn 0.7809 -0.6011 0.1699
vn 0.7098 -0.5693 0.4148
vn 0.4340 -0.3972 0.8086
vn 0.5528 -0.3478 -0.7573
vn 0.8005 -0.5931 -0.0862
vn 0.5916 -0.4999 0.6325
vn 0.7392 -0.1945 0.6448
vn 0.5553 -0.1462 0.8187
vn 0.4316 -0.1133 -0.8949
vn 0.6396 -0.1680 -0.7501
vn 0.0892 -0.0237 0.9957
vn 0.9148 -0.2405 -0.3246
vn 0.9646 -0.2536 -0.0726
vn 0.8738 -0.2299 0.4284
vn 0.3338 -0.0880 0.9385
vn 0.8042 -0.2113 -0.5556
vn 0.9506 -0.2500 0.1840
vn 0.5731 0.1321 0.8088
vn 0.3466 0.1113 0.9314
vn 0.6524 0.0312 -0.7572
vn 0.8220 0.0669 -0.5655
vn 0.9887 0.1227 -0.0860
vn 0.9756 0.1391 0.1701
vn 0.7609 0.1440 0.6326
vn 0.4384 -0.0067 -0.8987
vn 0.0960 0.0829 0.9919
vn 0.9365 0.0981 -0.3367
vn 0.8980 0.1464 0.4150
vn 0.7785 0.5022 0.3765
vn 0.6534 0.4641 0.5980
vn 0.4046 0.0941 -0.9097
vn 0.2833 0.2997 0.9110
vn 0.0622 0.1837 0.9810
vn 0.7337 0.3300 -0.5940
vn 0.8290 0.4182 -0.3714
vn 0.8520 0.5071 0.1303
vn 0.4848 0.3952 0.7803
vn 0.5891 0.2196 -0.7776
vn 0.8692 0.4785 -0.1245
vn 0.4331 0.7171 0.5461
vn 0.3037 0.6031 0.7376
vn 0.3352 0.1737 -0.9260
vn 0.4595 0.3685 -0.8081
vn -0.0983 0.1503 0.9837
vn 0.6086 0.6711 -0.4232
vn 0.6243 0.7596 -0.1822
vn 0.5336 0.7834 0.3188
vn 0.1536 0.4485 0.8805
vn -0.0072 0.2633 0.9647
vn 0.5526 0.5379 -0.6366
vn 0.5987 0.7978 0.0706
vn 0.2543 0.9671 0.0002
vn 0.2005 0.9471 0.2507
vn 0.0574 0.7241 0.6873
vn -0.0227 0.5352 0.8444
vn 0.2831 0.4552 -0.8442
vn 0.3063 0.6590 -0.6870
vn 0.2913 0.9233 -0.2503
vn 0.1335 0.8643 0.4849
vn 0.2409 0.2201 -0.9453
vn -0.1016 0.3097 0.9454
vn -0.1433 0.1724 0.9745
vn 0.3090 0.8184 -0.4845
vn -0.1700 0.9684 0.1826
vn -0.1999 0.8835 0.4236
vn 0.1359 0.2261 -0.9646
vn -0.2189 0.5465 0.8084
vn -0.2065 0.3157 0.9261
vn 0.0323 0.6748 -0.7373
vn -0.0243 0.8376 -0.5458
vn -0.1288 0.9892 -0.0702
vn -0.2166 0.7399 0.6369
vn 0.0869 0.4665 -0.8803
vn -0.0792 0.9446 -0.3184
vn -0.1933 0.1753 0.9654
vn -0.4307 0.8203 -0.3762
vn -0.4924 0.8606 -0.1300
vn -0.5161 0.7717 0.3716
vn -0.4765 0.6480 0.5942
vn 0.0363 0.1909 -0.9809
vn -0.0992 0.4006 -0.9108
vn -0.3061 0.2805 0.9097
vn -0.2408 0.1585 0.9576
vn -0.3406 0.7258 -0.5977
vn -0.5215 0.8441 0.1248
vn -0.4050 0.4807 0.7778
vn -0.2276 0.5828 -0.7801
vn -0.7809 0.6011 -0.1699
vn -0.8005 0.5931 0.0862
vn -0.6829 0.4624 0.5656
vn -0.5528 0.3478 0.7573
vn -0.2469 0.2677 -0.9313
vn -0.4340 0.3972 -0.8086
vn -0.7098 0.5693 -0.4148
vn -0.7672 0.5459 0.3369
vn -0.0427 0.1198 -0.9919
vn -0.3851 0.2094 0.8988
vn -0.5916 0.4999 -0.6325
vn -0.7392 0.1945 -0.6448
vn -0.8738 0.2299 -0.4284
vn -0.9646 0.2536 0.0726
vn -0.9148 0.2405 0.3246
vn -0.0892 0.0237 -0.9957
vn -0.6396 0.1680 0.7501
vn -0.5553 0.1462 -0.8187
vn -0.9506 0.2500 -0.1840
vn -0.8042 0.2113 0.5556
vn -0.3338 0.0880 -0.9385
vn -0.4316 0.1133 0.8949
vt 0.078678 0.327891
vt 0.078678 0.327892
vt 0.109561 0.327647
vt 0.109561 0.327647
vt 0.047550 0.330699
vt 0.016422 0.330455
vt 0.047550 0.330699
s 1
usemtl Atlas
f 2/1/1 29/2/2 38/1/3 9/1/4
f 7/1/5 3/1/6 10/1/7 14/2/8
f 5/1/9 2/1/1 9/1/4 12/1/10
f 1/1/11 5/1/9 12/1/10 8/1/12
f 4/1/13 11/1/14 39/2/15 30/1/16
f 7/1/5 14/1/8 11/1/14 4/1/13
f 3/1/6 6/1/17 13/1/18 10/1/7
f 6/1/17 1/1/11 8/1/12 13/1/18
f 11/1/14 14/1/8 110/1/19 104/1/20
f 8/1/12 12/1/10 105/1/21 98/1/22
f 10/1/7 13/1/18 108/1/23 102/1/24
f 14/1/8 10/1/7 102/1/24 110/1/19
f 9/1/4 38/1/3 125/1/25 99/1/26
f 12/1/10 9/1/4 99/1/26 105/1/21
f 13/1/18 8/1/12 98/1/22 108/1/23
f 39/2/15 11/1/14 104/1/20 128/2/27
f 23/1/28 32/1/29 38/1/3 29/2/2
f 28/1/30 37/1/31 33/1/32 24/1/33
f 26/1/34 35/1/35 32/1/29 23/1/28
f 22/1/36 31/1/37 35/1/35 26/1/34
f 25/2/38 30/1/16 39/2/15 34/1/39
f 28/1/30 25/2/38 34/1/39 37/1/31
f 24/1/33 33/1/32 36/1/40 27/1/41
f 27/1/41 36/1/40 31/1/37 22/1/36
f 47/3/42 46/3/43 45/3/44 48/3/45
f 35/1/35 120/1/46 114/1/47 32/1/29
f 33/1/32 115/1/48 121/1/49 36/1/40
f 36/1/40 121/1/49 111/1/50 31/1/37
f 37/1/31 123/1/51 115/1/48 33/1/32
f 32/1/29 114/1/47 125/1/25 38/1/3
f 31/1/37 111/1/50 120/1/46 35/1/35
f 39/2/15 128/2/27 117/2/52 34/1/39
f 34/1/39 117/2/52 123/1/51 37/1/31
f 6/3/17 3/3/6 51/3/53 54/3/54
f 28/3/30 24/3/33 58/3/55 62/3/56
f 3/3/6 7/3/5 55/3/57 51/3/53
f 25/4/38 28/3/30 62/3/56 59/3/58
f 7/3/5 4/3/13 52/3/59 55/3/57
f 23/3/28 29/4/2 63/3/60 57/3/61
f 29/4/2 2/3/1 50/4/62 63/3/60
f 30/3/16 25/4/38 59/3/58 64/3/63
f 4/3/13 30/3/16 64/3/63 52/3/59
f 22/3/36 26/3/34 60/3/64 56/3/65
f 5/3/9 1/3/11 49/3/66 53/3/67
f 27/3/41 22/3/36 56/3/65 61/3/68
f 1/3/11 6/3/17 54/3/54 49/3/66
f 26/3/34 23/3/28 57/3/61 60/3/64
f 2/3/1 5/3/9 53/3/67 50/4/62
f 24/3/33 27/3/41 61/3/68 58/3/55
f 60/3/64 57/3/61 73/3/69 76/3/70
f 54/3/54 51/3/53 67/3/71 70/3/72
f 58/3/55 61/3/68 77/3/73 74/3/74
f 51/3/53 55/3/57 71/3/75 67/3/71
f 62/3/56 58/3/55 74/3/74 78/3/76
f 55/3/57 52/3/59 68/3/77 71/3/75
f 59/3/58 62/3/56 78/3/76 75/3/78
f 63/3/60 50/4/62 66/3/79 79/3/80
f 57/3/61 63/3/60 79/3/80 73/3/69
f 52/3/59 64/3/63 80/3/81 68/3/77
f 53/3/67 49/3/66 65/3/82 69/3/83
f 64/3/63 59/3/58 75/3/78 80/3/81
f 56/3/65 60/3/64 76/3/70 72/3/84
f 49/3/66 54/3/54 70/3/72 65/3/82
f 61/3/68 56/3/65 72/3/84 77/3/73
f 50/4/62 53/3/67 69/3/83 66/3/79
f 69/3/85 65/3/86 81/3/87 85/3/88
f 80/3/89 75/3/90 91/3/91 96/3/92
f 72/3/93 76/3/94 92/3/95 88/3/96
f 65/3/86 70/3/97 86/3/98 81/3/87
f 77/3/99 72/3/93 88/3/96 93/3/100
f 66/3/101 69/3/85 85/3/88 82/3/102
f 76/3/94 73/3/103 89/3/104 92/3/95
f 70/3/97 67/3/105 83/3/106 86/3/98
f 74/3/107 77/3/99 93/3/100 90/3/108
f 67/3/105 71/3/109 87/3/110 83/3/106
f 78/3/111 74/3/107 90/3/108 94/3/112
f 71/3/109 68/3/113 84/3/114 87/3/110
f 75/3/90 78/3/111 94/3/112 91/3/91
f 79/3/115 66/3/101 82/3/102 95/3/115
f 73/3/103 79/3/115 95/3/115 89/3/104
f 68/3/113 80/3/89 96/3/92 84/3/114
f 117/3/116 128/3/117 130/3/117 143/3/118
f 126/3/119 100/3/120 41/3/121 15/3/122
f 114/3/123 120/3/124 132/3/125 138/3/126
f 108/3/127 98/3/128 45/3/129 43/3/130
f 127/3/131 118/3/132 144/3/133 129/4/134
f 113/3/135 126/3/119 15/3/122 137/3/136
f 109/3/137 103/3/138 18/3/139 20/3/140
f 122/3/141 112/3/142 134/3/143 136/3/144
f 97/3/145 107/3/146 44/3/147 46/3/43
f 125/3/148 114/3/123 138/3/126 16/3/148
f 104/3/149 110/3/150 19/3/151 17/3/152
f 98/3/128 105/3/153 48/3/154 45/3/129
f 123/4/155 117/3/116 143/3/118 141/3/156
f 111/3/157 121/3/158 135/3/159 133/3/160
f 118/3/132 124/3/161 142/3/162 144/3/133
f 110/3/150 102/3/163 21/3/164 19/3/151
f 46/3/43 44/3/147 43/3/165 45/3/44
f 41/3/121 47/3/42 48/3/45 42/3/166
f 44/3/147 40/3/167 21/3/168 43/3/165
f 40/3/167 20/3/140 19/3/169 21/3/168
f 17/3/170 19/3/169 20/3/140 18/3/139
f 15/3/122 41/3/121 42/3/166 16/3/171
f 130/3/172 17/3/170 18/3/139 129/4/134
f 132/3/173 133/3/174 134/3/143 131/3/175
f 133/3/174 135/3/176 136/3/144 134/3/143
f 138/3/177 132/3/173 131/3/175 137/3/136
f 135/3/176 139/3/178 140/3/179 136/3/144
f 139/3/178 141/3/180 142/3/162 140/3/179
f 144/3/133 142/3/162 141/3/180 143/3/181
f 16/3/171 138/3/177 137/3/136 15/3/122
f 129/4/134 144/3/133 143/3/181 130/3/172
f 119/3/182 113/3/135 137/3/136 131/3/175
f 99/3/183 125/3/148 16/3/148 42/3/184
f 100/3/120 106/3/185 47/3/42 41/3/121
f 121/3/158 115/3/186 139/4/187 135/3/159
f 105/3/153 99/3/183 42/3/184 48/3/154
f 128/3/117 104/3/149 17/3/152 130/3/117
f 107/3/146 101/3/188 40/3/167 44/3/147
f 116/3/189 122/3/141 136/3/144 140/3/179
f 103/3/138 127/3/131 129/4/134 18/3/139
f 115/3/186 123/4/155 141/3/156 139/4/187
f 102/3/163 108/3/127 43/3/130 21/3/164
f 120/3/124 111/3/157 133/3/160 132/3/125
f 101/3/188 109/3/137 20/3/140 40/3/167
f 124/3/161 116/3/189 140/3/179 142/3/162
f 106/3/185 97/3/145 46/3/43 47/3/42
f 112/3/142 119/3/182 131/3/175 134/3/143
f 126/1/190 152/1/191 156/1/192 100/1/193
f 118/1/132 151/1/194 148/1/195 124/1/161
f 127/1/131 147/1/196 151/1/194 118/1/132
f 124/1/161 148/1/195 160/1/197 116/1/189
f 107/1/146 146/1/198 149/1/199 101/1/188
f 103/1/138 150/1/200 147/1/196 127/1/131
f 97/1/145 159/1/201 146/1/198 107/1/146
f 113/1/135 157/1/202 152/1/191 126/1/190
f 122/1/141 155/1/203 158/1/204 112/1/142
f 119/1/182 154/1/205 157/1/202 113/1/135
f 106/1/206 153/1/207 159/1/201 97/1/145
f 116/1/189 160/1/197 155/1/203 122/1/141
f 100/1/193 156/1/192 153/1/207 106/1/206
f 112/1/142 158/1/204 154/1/205 119/1/182
f 146/1/198 159/1/208 175/1/209 162/1/210
f 157/1/202 154/1/205 170/1/211 173/1/212
f 160/1/197 148/1/195 164/1/213 176/1/214
f 154/1/205 158/1/204 174/1/215 170/1/211
f 145/1/216 149/1/199 165/1/217 161/1/218
f 158/1/204 155/1/203 171/1/219 174/1/215
f 150/1/200 145/1/216 161/1/218 166/1/220
f 159/1/208 153/1/207 169/1/221 175/1/209
f 149/1/199 146/1/198 162/1/210 165/1/217
f 155/1/203 160/1/197 176/1/214 171/1/219
f 147/1/196 150/1/200 166/1/220 163/1/222
f 156/1/192 152/1/191 168/1/223 172/1/224
f 151/1/194 147/1/196 163/1/222 167/1/225
f 152/1/191 157/1/202 173/1/212 168/1/223
f 148/1/195 151/1/194 167/1/225 164/1/213
f 153/1/207 156/1/192 172/1/224 169/1/221
f 165/1/217 162/1/210 178/1/226 181/1/227
f 169/1/221 172/1/224 188/2/228 185/1/229
f 163/1/222 166/1/220 182/1/230 179/1/231
f 173/1/212 170/1/211 186/1/232 189/1/233
f 167/1/225 163/1/222 179/1/231 183/1/234
f 170/1/211 174/1/215 190/1/235 186/1/232
f 164/1/213 167/1/225 183/1/234 180/1/236
f 174/1/215 171/1/219 187/1/237 190/1/235
f 162/1/210 175/1/209 191/1/238 178/1/226
f 175/1/209 169/1/221 185/1/229 191/1/238
f 176/1/214 164/1/213 180/1/236 192/1/239
f 161/1/218 165/1/217 181/1/227 177/1/240
f 171/1/219 176/1/214 192/1/239 187/1/237
f 172/1/224 168/1/223 184/1/241 188/2/228
f 166/1/220 161/1/218 177/1/240 182/1/230
f 168/1/223 173/1/212 189/1/233 184/1/241
f 192/1/239 180/1/236 196/1/242 208/1/243
f 177/1/240 181/1/227 197/1/244 193/1/245
f 187/1/237 192/1/239 208/1/243 203/1/246
f 188/2/228 184/1/241 200/2/247 204/1/248
f 182/1/230 177/1/240 193/1/245 198/1/249
f 184/1/241 189/1/233 205/1/250 200/2/247
f 181/1/227 178/1/226 194/1/251 197/1/244
f 185/1/229 188/1/228 204/1/248 201/1/252
f 179/1/231 182/1/230 198/1/249 195/1/253
f 189/1/233 186/2/232 202/2/254 205/1/250
f 183/1/234 179/1/231 195/1/253 199/1/255
f 186/1/232 190/1/235 206/1/256 202/1/254
f 180/1/236 183/1/234 199/1/255 196/1/242
f 190/1/235 187/1/237 203/1/246 206/1/256
f 178/1/226 191/1/257 207/1/257 194/1/251
f 191/1/257 185/1/229 201/1/252 207/1/257
f 202/2/254 206/1/256 222/1/258 218/2/259
f 196/1/242 199/1/255 215/1/260 212/1/261
f 206/1/256 203/1/246 219/2/262 222/1/258
f 194/1/263 207/1/264 223/1/264 210/1/265
f 207/1/264 201/1/266 217/1/267 223/1/264
f 208/1/268 196/1/242 212/1/261 224/1/268
f 193/1/245 197/1/244 213/1/269 209/1/270
f 203/1/246 208/1/268 224/2/268 219/2/262
f 204/1/248 200/1/247 216/1/271 220/1/272
f 198/1/249 193/1/245 209/1/270 214/1/273
f 200/2/247 205/1/250 221/1/274 216/1/271
f 197/1/244 194/1/263 210/1/265 213/1/269
f 201/1/266 204/1/248 220/1/272 217/1/267
f 195/1/253 198/1/249 214/1/273 211/1/275
f 205/1/250 202/2/254 218/2/259 221/1/274
f 199/1/255 195/1/253 211/1/275 215/1/260
f 217/1/276 220/1/272 236/1/277 233/1/278
f 211/1/275 214/1/273 230/1/279 227/1/280
f 221/1/274 218/2/259 234/1/281 237/2/282
f 215/1/260 211/1/275 227/1/280 231/1/283
f 218/1/259 222/1/258 238/1/284 234/1/281
f 212/1/285 215/1/260 231/1/283 228/1/286
f 222/1/258 219/1/287 235/1/288 238/1/284
f 210/1/289 223/1/290 239/1/291 226/1/292
f 223/1/290 217/1/276 233/1/278 239/1/291
f 224/1/293 212/1/285 228/1/286 240/1/294
f 209/1/270 213/1/269 229/1/295 225/1/296
f 219/1/287 224/1/293 240/1/294 235/1/288
f 220/1/272 216/1/271 232/2/297 236/1/277
f 214/1/273 209/1/270 225/1/296 230/1/279
f 216/1/271 221/1/274 237/2/282 232/2/297
f 213/1/269 210/1/289 226/1/292 229/1/295
f 225/1/296 229/1/295 245/1/298 241/1/299
f 235/1/288 240/1/294 256/1/300 251/1/301
f 236/1/277 232/2/297 248/1/302 252/1/303
f 230/1/279 225/1/296 241/1/299 246/1/304
f 232/2/297 237/2/282 253/1/305 248/1/302
f 229/1/295 226/1/292 242/1/306 245/1/298
f 233/1/278 236/1/277 252/1/303 249/1/307
f 227/1/280 230/1/279 246/1/304 243/1/308
f 237/1/282 234/1/281 250/1/309 253/1/305
f 231/1/283 227/1/280 243/1/308 247/1/310
f 234/1/281 238/1/284 254/1/311 250/1/309
f 228/1/286 231/1/283 247/1/310 244/1/312
f 238/1/284 235/1/288 251/1/301 254/1/311
f 226/1/292 239/1/291 255/1/313 242/1/306
f 239/2/291 233/1/278 249/1/307 255/1/313
f 240/1/294 228/1/286 244/1/312 256/1/300
f 241/1/314 245/1/314 242/1/314 255/1/314 249/1/314 252/1/314 248/1/314 253/1/314 250/1/314 254/1/314 251/1/314 256/1/314 244/1/314 247/1/314 243/1/314 246/1/314
f 109/1/137 145/1/216 150/1/200 103/1/138
f 101/1/188 149/1/199 145/1/216 109/1/137
f 259/5/315 258/5/316 269/5/317 270/5/318
f 355/5/319 265/5/320 276/5/321
f 434/5/322 266/5/323 267/5/324
f 263/5/325 262/5/326 273/5/327 274/5/328
f 260/5/329 259/5/315 270/5/318 271/5/330
f 257/5/331 434/5/322 267/5/324 268/5/332
f 264/5/333 263/5/325 274/5/328 275/5/334
f 261/5/335 260/5/329 271/5/330 272/5/336
f 258/5/316 257/5/331 268/5/332 269/5/317
f 265/5/320 264/5/333 275/5/334 276/5/321
f 433/6/337 277/6/338 266/6/323
f 262/5/326 261/5/335 272/5/336 273/5/327
f 275/5/334 274/5/328 286/5/339 287/5/340
f 272/5/336 271/5/330 283/5/341 284/5/342
f 269/5/317 268/5/332 280/5/343 281/5/344
f 276/5/321 275/5/334 287/5/340 288/5/345
f 266/6/323 277/6/338 440/6/346
f 273/5/327 272/5/336 284/5/342 285/5/347
f 270/5/318 269/5/317 281/5/344 282/5/348
f 355/5/319 276/5/321 288/5/345
f 267/5/324 266/5/323 278/5/349 279/5/350
f 274/5/328 273/5/327 285/5/347 286/5/339
f 271/5/330 270/5/318 282/5/348 283/5/341
f 268/5/332 267/5/324 279/5/350 280/5/343
f 279/5/350 278/5/349 289/5/351 290/5/352
f 286/5/339 285/5/347 296/5/353 297/5/354
f 283/5/341 282/5/348 293/5/355 294/5/356
f 280/5/343 279/5/350 290/5/352 291/5/357
f 287/5/340 286/5/339 297/5/354 298/5/358
f 284/5/342 283/5/341 294/5/356 295/5/359
f 281/5/344 280/5/343 291/5/357 292/5/360
f 288/5/345 287/5/340 298/5/358 299/5/361
f 278/5/349 440/5/346 439/5/362 289/5/351
f 285/5/347 284/5/342 295/5/359 296/5/353
f 282/5/348 281/5/344 292/5/360 293/5/355
f 355/5/319 288/5/345 299/5/361
f 299/5/361 298/5/358 309/5/363 310/5/364
f 289/5/351 439/5/362 441/5/365 300/5/366
f 296/5/353 295/5/359 306/5/367 307/5/368
f 293/5/355 292/5/360 303/5/369 304/5/370
f 355/5/319 299/5/361 310/5/364
f 290/5/352 289/5/351 300/5/366 301/5/371
f 297/5/354 296/5/353 307/5/368 308/5/372
f 294/5/356 293/5/355 304/5/370 305/5/373
f 291/5/357 290/5/352 301/5/371 302/5/374
f 298/5/358 297/5/354 308/5/372 309/5/363
f 295/5/359 294/5/356 305/5/373 306/5/367
f 292/5/360 291/5/357 302/5/374 303/5/369
f 302/5/374 301/5/371 312/5/375 313/5/376
f 309/5/363 308/5/372 319/5/377 320/5/378
f 306/5/367 305/5/373 316/5/379 317/5/380
f 303/5/369 302/5/374 313/5/376 314/5/381
f 310/5/364 309/5/363 320/5/378 321/5/382
f 300/5/366 441/5/365 442/5/383 311/5/384
f 307/5/368 306/5/367 317/5/380 318/5/385
f 304/5/370 303/5/369 314/5/381 315/5/386
f 355/5/319 310/5/364 321/5/382
f 301/5/371 300/5/366 311/5/384 312/5/375
f 308/5/372 307/5/368 318/5/385 319/5/377
f 305/5/373 304/5/370 315/5/386 316/5/379
f 355/5/319 321/5/382 332/5/387
f 312/5/375 311/5/384 322/5/388 323/5/389
f 319/5/377 318/5/385 329/5/390 330/5/391
f 316/5/379 315/5/386 326/5/392 327/5/393
f 313/5/376 312/5/375 323/5/389 324/5/394
f 320/5/378 319/5/377 330/5/391 331/5/395
f 317/5/380 316/5/379 327/5/393 328/5/396
f 314/5/381 313/5/376 324/5/394 325/5/397
f 321/5/382 320/5/378 331/5/395 332/5/387
f 311/5/384 442/5/383 322/5/388
f 318/5/385 317/5/380 328/5/396 329/5/390
f 315/5/386 314/5/381 325/5/397 326/5/392
f 325/5/397 324/5/394 335/5/398 336/5/399
f 332/5/387 331/5/395 342/5/400 343/5/401
f 322/6/388 277/6/338 333/6/402
f 329/5/390 328/5/396 339/5/403 340/5/404
f 326/5/392 325/5/397 336/5/399 337/5/405
f 355/5/319 332/5/387 343/5/401
f 323/5/389 322/5/388 334/5/406
f 330/5/391 329/5/390 340/5/404 341/5/407
f 327/5/393 326/5/392 337/5/405 338/5/408
f 324/5/394 323/5/389 334/5/406 335/5/398
f 331/5/395 330/5/391 341/5/407 342/5/400
f 328/5/396 327/5/393 338/5/408 339/5/403
f 335/5/398 334/5/406 345/5/409 346/5/410
f 342/5/400 341/5/407 352/5/411 353/5/412
f 339/5/403 338/5/408 349/5/413 350/5/414
f 336/5/399 335/5/398 346/5/410 347/5/415
f 343/5/401 342/5/400 353/5/412 354/5/416
f 333/6/402 277/6/338 344/6/417
f 340/5/404 339/5/403 350/5/414 351/5/418
f 337/5/405 336/5/399 347/5/415 348/5/419
f 355/5/319 343/5/401 354/5/416
f 334/6/406 333/6/402 344/6/417 345/6/409
f 341/5/407 340/5/404 351/5/418 352/5/411
f 338/5/408 337/5/405 348/5/419 349/5/413
f 348/5/419 347/5/415 359/5/420 360/5/421
f 355/5/319 354/5/416 366/5/422
f 345/5/409 356/5/423 357/5/424
f 352/5/411 351/5/418 363/5/425 364/5/426
f 349/5/413 348/5/419 360/5/421 361/5/427
f 346/5/410 345/5/409 357/5/424 358/5/428
f 353/5/412 352/5/411 364/5/426 365/5/429
f 350/5/414 349/5/413 361/5/427 362/5/430
f 347/5/415 346/5/410 358/5/428 359/5/420
f 354/5/416 353/5/412 365/5/429 366/5/422
f 344/6/417 277/6/338 356/6/423
f 351/5/418 350/5/414 362/5/430 363/5/425
f 359/5/420 358/5/428 369/5/431 370/5/432
f 366/5/422 365/5/429 376/5/433 377/5/434
f 356/6/423 277/6/338 436/6/435
f 363/5/425 362/5/430 373/5/436 374/5/437
f 360/5/421 359/5/420 370/5/432 371/5/438
f 355/5/319 366/5/422 377/5/434
f 357/5/424 356/5/423 367/5/439 368/5/440
f 364/5/426 363/5/425 374/5/437 375/5/441
f 361/5/427 360/5/421 371/5/438 372/5/442
f 358/5/428 357/5/424 368/5/440 369/5/431
f 365/5/429 364/5/426 375/5/441 376/5/433
f 362/5/430 361/5/427 372/5/442 373/5/436
f 372/5/442 371/5/438 382/5/443 383/5/444
f 369/5/431 368/5/440 379/5/445 380/5/446
f 376/5/433 375/5/441 386/5/447 387/5/448
f 373/5/436 372/5/442 383/5/444 384/5/449
f 370/5/432 369/5/431 380/5/446 381/5/450
f 377/5/434 376/5/433 387/5/448 388/5/451
f 367/5/439 436/5/435 438/5/452 378/5/453
f 374/5/437 373/5/436 384/5/449 385/5/454
f 371/5/438 370/5/432 381/5/450 382/5/443
f 355/5/319 377/5/434 388/5/451
f 368/5/440 367/5/439 378/5/453 379/5/445
f 375/5/441 374/5/437 385/5/454 386/5/447
f 382/5/443 381/5/450 392/5/455 393/5/456
f 355/5/319 388/5/451 399/5/457
f 379/5/445 378/5/453 389/5/458 390/5/459
f 386/5/447 385/5/454 396/5/460 397/5/461
f 383/5/444 382/5/443 393/5/456 394/5/462
f 380/5/446 379/5/445 390/5/459 391/5/463
f 387/5/448 386/5/447 397/5/461 398/5/464
f 384/5/449 383/5/444 394/5/462 395/5/465
f 381/5/450 380/5/446 391/5/463 392/5/455
f 388/5/451 387/5/448 398/5/464 399/5/457
f 378/5/453 438/5/452 435/5/466 389/5/458
f 385/5/454 384/5/449 395/5/465 396/5/460
f 395/5/465 394/5/462 405/5/467 406/5/468
f 392/5/455 391/5/463 402/5/469 403/5/470
f 399/5/457 398/5/464 409/5/471 410/5/472
f 389/5/458 435/5/466 437/5/473 400/5/474
f 396/5/460 395/5/465 406/5/468 407/5/475
f 393/5/456 392/5/455 403/5/470 404/5/476
f 355/5/319 399/5/457 410/5/472
f 390/5/459 389/5/458 400/5/474 401/5/477
f 397/5/461 396/5/460 407/5/475 408/5/478
f 394/5/462 393/5/456 404/5/476 405/5/467
f 391/5/463 390/5/459 401/5/477 402/5/469
f 398/5/464 397/5/461 408/5/478 409/5/471
f 405/5/467 404/5/476 415/5/479 416/5/480
f 402/5/469 401/5/477 412/5/481 413/5/482
f 409/5/471 408/5/478 419/5/483 420/5/484
f 406/5/468 405/5/467 416/5/480 417/5/485
f 403/5/470 402/5/469 413/5/482 414/5/486
f 410/5/472 409/5/471 420/5/484 421/5/487
f 400/5/474 437/5/473 411/5/488
f 407/5/475 406/5/468 417/5/485 418/5/489
f 404/5/476 403/5/470 414/5/486 415/5/479
f 355/5/319 410/5/472 421/5/487
f 401/5/477 400/5/474 411/5/488 412/5/481
f 408/5/478 407/5/475 418/5/489 419/5/483
f 418/5/489 417/5/485 428/5/490 429/5/491
f 415/5/479 414/5/486 425/5/492 426/5/493
f 355/5/319 421/5/487 432/5/494
f 412/5/481 411/5/488 423/5/495
f 419/5/483 418/5/489 429/5/491 430/5/496
f 416/5/480 415/5/479 426/5/493 427/5/497
f 413/5/482 412/5/481 423/5/495 424/5/498
f 420/5/484 419/5/483 430/5/496 431/5/499
f 417/5/485 416/5/480 427/5/497 428/5/490
f 414/5/486 413/5/482 424/5/498 425/5/492
f 421/5/487 420/5/484 431/5/499 432/5/494
f 428/5/490 427/5/497 260/5/329 261/5/335
f 425/5/492 424/5/498 257/5/331 258/5/316
f 432/5/494 431/5/499 264/5/333 265/5/320
f 422/6/500 277/6/338 433/6/337
f 429/5/491 428/5/490 261/5/335 262/5/326
f 426/5/493 425/5/492 258/5/316 259/5/315
f 355/5/319 432/5/494 265/5/320
f 423/6/495 422/6/500 433/6/337 434/6/322
f 430/5/496 429/5/491 262/5/326 263/5/325
f 427/5/497 426/5/493 259/5/315 260/5/329
f 424/5/498 423/5/495 434/5/322 257/5/331
f 431/5/499 430/5/496 263/5/325 264/5/333
f 435/6/466 438/6/452 277/6/338
f 356/6/423 345/6/409 344/6/417
f 438/6/452 436/6/435 277/6/338
f 411/6/488 277/6/338 422/6/500
f 437/6/473 435/6/466 277/6/338
f 423/6/495 411/6/488 422/6/500
f 436/5/435 367/5/439 356/5/423
f 411/6/488 437/6/473 277/6/338
f 440/5/346 278/5/349 266/5/323
f 266/6/323 434/6/322 433/6/337
f 441/6/365 439/6/362 277/6/338
f 334/6/406 322/6/388 333/6/402
f 322/6/388 442/6/383 277/6/338
f 439/6/362 440/6/346 277/6/338
f 442/6/383 441/6/365 277/6/338
f 445/5/501 456/5/502 455/5/503 444/5/504
f 541/5/505 462/5/506 451/5/507
f 620/5/508 453/5/509 452/5/510
f 449/5/511 460/5/512 459/5/513 448/5/514
f 446/5/515 457/5/516 456/5/502 445/5/501
f 443/5/517 454/5/518 453/5/509 620/5/508
f 450/5/519 461/5/520 460/5/512 449/5/511
f 447/5/521 458/5/522 457/5/516 446/5/515
f 444/5/504 455/5/503 454/5/518 443/5/517
f 451/5/507 462/5/506 461/5/520 450/5/519
f 619/6/523 452/6/510 463/6/524
f 448/5/514 459/5/513 458/5/522 447/5/521
f 461/5/520 473/5/525 472/5/526 460/5/512
f 458/5/522 470/5/527 469/5/528 457/5/516
f 455/5/503 467/5/529 466/5/530 454/5/518
f 462/5/506 474/5/531 473/5/525 461/5/520
f 452/6/510 626/6/532 463/6/524
f 459/5/513 471/5/533 470/5/527 458/5/522
f 456/5/502 468/5/534 467/5/529 455/5/503
f 541/5/505 474/5/531 462/5/506
f 453/5/509 465/5/535 464/5/536 452/5/510
f 460/5/512 472/5/526 471/5/533 459/5/513
f 457/5/516 469/5/528 468/5/534 456/5/502
f 454/5/518 466/5/530 465/5/535 453/5/509
f 465/5/535 476/5/537 475/5/538 464/5/536
f 472/5/526 483/5/539 482/5/540 471/5/533
f 469/5/528 480/5/541 479/5/542 468/5/534
f 466/5/530 477/5/543 476/5/537 465/5/535
f 473/5/525 484/5/544 483/5/539 472/5/526
f 470/5/527 481/5/545 480/5/541 469/5/528
f 467/5/529 478/5/546 477/5/543 466/5/530
f 474/5/531 485/5/547 484/5/544 473/5/525
f 464/5/536 475/5/538 625/5/548 626/5/532
f 471/5/533 482/5/540 481/5/545 470/5/527
f 468/5/534 479/5/542 478/5/546 467/5/529
f 541/5/505 485/5/547 474/5/531
f 485/5/547 496/5/549 495/5/550 484/5/544
f 475/5/538 486/5/551 627/5/552 625/5/548
f 482/5/540 493/5/553 492/5/554 481/5/545
f 479/5/542 490/5/555 489/5/556 478/5/546
f 541/5/505 496/5/549 485/5/547
f 476/5/537 487/5/557 486/5/551 475/5/538
f 483/5/539 494/5/558 493/5/553 482/5/540
f 480/5/541 491/5/559 490/5/555 479/5/542
f 477/5/543 488/5/560 487/5/557 476/5/537
f 484/5/544 495/5/550 494/5/558 483/5/539
f 481/5/545 492/5/554 491/5/559 480/5/541
f 478/5/546 489/5/556 488/5/560 477/5/543
f 488/5/560 499/5/561 498/5/562 487/5/557
f 495/5/550 506/5/563 505/5/564 494/5/558
f 492/5/554 503/5/565 502/5/566 491/5/559
f 489/5/556 500/5/567 499/5/561 488/5/560
f 496/5/549 507/5/568 506/5/563 495/5/550
f 486/5/551 497/5/569 628/5/570 627/5/552
f 493/5/553 504/5/571 503/5/565 492/5/554
f 490/5/555 501/5/572 500/5/567 489/5/556
f 541/5/505 507/5/568 496/5/549
f 487/5/557 498/5/562 497/5/569 486/5/551
f 494/5/558 505/5/564 504/5/571 493/5/553
f 491/5/559 502/5/566 501/5/572 490/5/555
f 541/5/505 518/5/573 507/5/568
f 498/5/562 509/5/574 508/5/575 497/5/569
f 505/5/564 516/5/576 515/5/577 504/5/571
f 502/5/566 513/5/578 512/5/579 501/5/572
f 499/5/561 510/5/580 509/5/574 498/5/562
f 506/5/563 517/5/581 516/5/576 505/5/564
f 503/5/565 514/5/582 513/5/578 502/5/566
f 500/5/567 511/5/583 510/5/580 499/5/561
f 507/5/568 518/5/573 517/5/581 506/5/563
f 497/5/569 508/5/575 628/5/570
f 504/5/571 515/5/577 514/5/582 503/5/565
f 501/5/572 512/5/579 511/5/583 500/5/567
f 511/5/583 522/5/584 521/5/585 510/5/580
f 518/5/573 529/5/586 528/5/587 517/5/581
f 508/6/575 519/6/588 463/6/524
f 515/5/577 526/5/589 525/5/590 514/5/582
f 512/5/579 523/5/591 522/5/584 511/5/583
f 541/5/505 529/5/586 518/5/573
f 509/5/574 520/5/592 508/5/575
f 516/5/576 527/5/593 526/5/589 515/5/577
f 513/5/578 524/5/594 523/5/591 512/5/579
f 510/5/580 521/5/585 520/5/592 509/5/574
f 517/5/581 528/5/587 527/5/593 516/5/576
f 514/5/582 525/5/590 524/5/594 513/5/578
f 521/5/585 532/5/595 531/5/596 520/5/592
f 528/5/587 539/5/597 538/5/598 527/5/593
f 525/5/590 536/5/599 535/5/600 524/5/594
f 522/5/584 533/5/601 532/5/595 521/5/585
f 529/5/586 540/5/602 539/5/597 528/5/587
f 519/6/588 530/6/603 463/6/524
f 526/5/589 537/5/604 536/5/599 525/5/590
f 523/5/591 534/5/605 533/5/601 522/5/584
f 541/5/505 540/5/602 529/5/586
f 520/6/592 531/6/596 530/6/603 519/6/588
f 527/5/593 538/5/598 537/5/604 526/5/589
f 524/5/594 535/5/600 534/5/605 523/5/591
f 534/5/605 546/5/606 545/5/607 533/5/601
f 541/5/505 552/5/608 540/5/602
f 531/5/596 543/5/609 542/5/610
f 538/5/598 550/5/611 549/5/612 537/5/604
f 535/5/600 547/5/613 546/5/606 534/5/605
f 532/5/595 544/5/614 543/5/609 531/5/596
f 539/5/597 551/5/615 550/5/611 538/5/598
f 536/5/599 548/5/616 547/5/613 535/5/600
f 533/5/601 545/5/607 544/5/614 532/5/595
f 540/5/602 552/5/608 551/5/615 539/5/597
f 530/6/603 542/6/610 463/6/524
f 537/5/604 549/5/612 548/5/616 536/5/599
f 545/5/607 556/5/617 555/5/618 544/5/614
f 552/5/608 563/5/619 562/5/620 551/5/615
f 542/6/610 622/6/621 463/6/524
f 549/5/612 560/5/622 559/5/623 548/5/616
f 546/5/606 557/5/624 556/5/617 545/5/607
f 541/5/505 563/5/619 552/5/608
f 543/5/609 554/5/625 553/5/626 542/5/610
f 550/5/611 561/5/627 560/5/622 549/5/612
f 547/5/613 558/5/628 557/5/624 546/5/606
f 544/5/614 555/5/618 554/5/625 543/5/609
f 551/5/615 562/5/620 561/5/627 550/5/611
f 548/5/616 559/5/623 558/5/628 547/5/613
f 558/5/628 569/5/629 568/5/630 557/5/624
f 555/5/618 566/5/631 565/5/632 554/5/625
f 562/5/620 573/5/633 572/5/634 561/5/627
f 559/5/623 570/5/635 569/5/629 558/5/628
f 556/5/617 567/5/636 566/5/631 555/5/618
f 563/5/619 574/5/637 573/5/633 562/5/620
f 553/5/626 564/5/638 624/5/639 622/5/621
f 560/5/622 571/5/640 570/5/635 559/5/623
f 557/5/624 568/5/630 567/5/636 556/5/617
f 541/5/505 574/5/637 563/5/619
f 554/5/625 565/5/632 564/5/638 553/5/626
f 561/5/627 572/5/634 571/5/640 560/5/622
f 568/5/630 579/5/641 578/5/642 567/5/636
f 541/5/505 585/5/643 574/5/637
f 565/5/632 576/5/644 575/5/645 564/5/638
f 572/5/634 583/5/646 582/5/647 571/5/640
f 569/5/629 580/5/648 579/5/641 568/5/630
f 566/5/631 577/5/649 576/5/644 565/5/632
f 573/5/633 584/5/650 583/5/646 572/5/634
f 570/5/635 581/5/651 580/5/648 569/5/629
f 567/5/636 578/5/642 577/5/649 566/5/631
f 574/5/637 585/5/643 584/5/650 573/5/633
f 564/5/638 575/5/645 621/5/652 624/5/639
f 571/5/640 582/5/647 581/5/651 570/5/635
f 581/5/651 592/5/653 591/5/654 580/5/648
f 578/5/642 589/5/655 588/5/656 577/5/649
f 585/5/643 596/5/657 595/5/658 584/5/650
f 575/5/645 586/5/659 623/5/660 621/5/652
f 582/5/647 593/5/661 592/5/653 581/5/651
f 579/5/641 590/5/662 589/5/655 578/5/642
f 541/5/505 596/5/657 585/5/643
f 576/5/644 587/5/663 586/5/659 575/5/645
f 583/5/646 594/5/664 593/5/661 582/5/647
f 580/5/648 591/5/654 590/5/662 579/5/641
f 577/5/649 588/5/656 587/5/663 576/5/644
f 584/5/650 595/5/658 594/5/664 583/5/646
f 591/5/654 602/5/665 601/5/666 590/5/662
f 588/5/656 599/5/667 598/5/668 587/5/663
f 595/5/658 606/5/669 605/5/670 594/5/664
f 592/5/653 603/7/671 602/5/665 591/5/654
f 589/5/655 600/5/672 599/5/667 588/5/656
f 596/5/657 607/5/673 606/5/669 595/5/658
f 586/5/659 597/5/674 623/5/660
f 593/5/661 604/5/675 603/5/671 592/5/653
f 590/5/662 601/5/666 600/5/672 589/5/655
f 541/5/505 607/5/673 596/5/657
f 587/5/663 598/5/668 597/5/674 586/5/659
f 594/5/664 605/5/670 604/5/675 593/5/661
f 604/5/675 615/5/676 614/5/677 603/5/671
f 601/5/666 612/7/678 611/5/679 600/5/672
f 541/5/505 618/5/680 607/5/673
f 598/5/668 609/5/681 597/5/674
f 605/5/670 616/5/682 615/5/676 604/5/675
f 602/5/665 613/5/683 612/5/678 601/5/666
f 599/5/667 610/5/684 609/5/681 598/5/668
f 606/5/669 617/5/685 616/5/682 605/5/670
f 603/5/671 614/5/677 613/5/683 602/5/665
f 600/5/672 611/5/679 610/5/684 599/5/667
f 607/5/673 618/5/680 617/5/685 606/5/669
f 614/5/677 447/5/521 446/5/515 613/5/683
f 611/5/679 444/5/504 443/5/517 610/5/684
f 618/5/680 451/5/507 450/5/519 617/5/685
f 608/6/686 619/6/523 463/6/524
f 615/5/676 448/5/514 447/5/521 614/5/677
f 612/5/678 445/5/501 444/5/504 611/5/679
f 541/5/505 451/5/507 618/5/680
f 609/6/681 620/6/508 619/6/523 608/6/686
f 616/5/682 449/5/511 448/5/514 615/5/676
f 613/5/683 446/5/515 445/5/501 612/5/678
f 610/5/684 443/5/517 620/5/508 609/5/681
f 617/5/685 450/5/519 449/5/511 616/5/682
f 621/6/652 463/6/524 624/6/639
f 542/6/610 530/6/603 531/6/596
f 624/6/639 463/6/524 622/6/621
f 597/6/674 608/6/686 463/6/524
f 623/6/660 463/6/524 621/6/652
f 609/6/681 608/6/686 597/6/674
f 622/5/621 542/5/610 553/5/626
f 597/6/674 463/6/524 623/6/660
f 626/5/532 452/5/510 464/5/536
f 452/6/510 619/6/523 620/6/508
f 627/6/552 463/6/524 625/6/548
f 520/6/592 519/6/588 508/6/575
f 508/6/575 463/6/524 628/6/570
f 625/6/548 463/6/524 626/6/532
f 628/6/570 463/6/524 627/6/552
o Wizard_Blob
v 0.594947 1.526193 -0.279942
v 0.260844 1.499700 -0.596306
v 0.782765 0.610118 -0.301394
v 0.345659 0.596668 -0.724711
v 0.304221 0.198216 -0.690921
v 0.730529 1.298729 0.203914
v 0.252562 1.538435 0.526079
v 0.343360 0.604339 0.758874
v 0.710397 0.216713 0.248977
v 0.703463 0.210134 -0.296267
v 0.304229 0.227318 0.717681
v 0.730226 1.284481 -0.299403
v 0.256859 1.256797 0.644508
v 0.328732 0.048081 -0.321515
v 0.331595 0.052669 0.287110
v 0.263101 1.702981 -0.299470
v 0.190579 1.745724 0.140374
v 0.788667 0.614459 0.265825
v 0.317800 1.235167 -0.675106
v 0.355038 0.901658 -0.736992
v 0.300177 0.892460 0.766172
v 0.817892 0.935818 -0.311018
v 0.820690 0.942279 0.259291
v 0.663140 1.422829 -0.291656
v 0.288480 1.381343 -0.640051
v 0.330976 0.418419 -0.744540
v 0.778902 0.437463 0.268840
v 0.771927 0.431899 -0.312708
v 0.329752 0.439659 0.774725
v 0.348351 0.019066 0.003834
v 0.276583 1.757501 -0.047816
v 0.302986 0.117211 -0.574971
v 0.248011 1.602744 -0.498053
v 0.592093 0.131613 0.251566
v 0.586781 0.125527 -0.295403
v 0.432347 1.632244 -0.282511
v 0.302992 0.137391 0.598399
v 0.474792 1.490979 -0.477200
v 0.648271 0.916455 -0.571652
v 0.618968 0.610462 -0.560858
v 0.556141 0.229046 -0.542771
v 0.629506 1.559945 -0.043857
v 0.870378 0.948012 -0.003103
v 0.750975 0.190985 -0.001430
v 0.836710 0.607781 0.005167
v 0.618172 0.236637 0.425592
v 0.240729 1.637947 0.418943
v 0.712500 0.929882 0.445342
v 0.647991 1.435333 0.148662
v 0.256461 1.416480 0.569654
v 0.514858 1.535428 0.298253
v 0.685140 0.617312 0.450492
v 0.328421 0.704717 0.794607
v 0.579806 1.253307 -0.529237
v 0.775688 1.306555 -0.027779
v 0.633769 1.284523 0.368284
v 0.271753 1.089656 0.694816
v 0.526385 1.389871 -0.505704
v 0.606379 0.438421 -0.578301
v 0.704221 1.449602 -0.037921
v 0.826932 0.423973 0.001713
v 0.677098 0.467849 0.458743
v 0.623182 0.099700 -0.000630
v 0.438262 1.685290 -0.047065
v 0.494136 0.158967 -0.482653
v 0.409197 1.566592 -0.426355
v 0.715964 0.758558 0.467484
v 0.573815 1.427973 0.331320
v 0.386697 1.620340 0.299653
v 0.675415 1.139886 0.402961
v 0.828318 1.127812 -0.015157
v 0.779323 1.114699 -0.304899
v 0.618693 1.091651 -0.550355
v 0.339170 1.074901 -0.706298
v 0.781098 1.133944 0.230389
v 0.870481 0.748422 0.002473
v 0.815699 0.738340 -0.313620
v 0.352081 0.711182 -0.750256
v 0.643927 0.724574 -0.581004
v 0.821897 0.739417 0.274023
v 0.592757 1.551350 0.100600
v 0.410403 1.664696 0.125409
v 0.287952 0.299055 -0.915164
v 0.826533 0.323108 0.320874
v 0.817404 0.315025 -0.392633
v 0.287581 0.335608 0.938099
v 0.620164 0.333343 -0.716741
v 0.882189 0.295897 -0.006799
v 0.726629 0.357094 0.512106
v 0.825292 0.537938 -0.345799
v 0.334460 0.522881 -0.823677
v 0.332457 0.538624 0.854209
v 0.832458 0.543438 0.296070
v 0.641199 0.541585 -0.639186
v 0.886177 0.532373 0.001169
v 0.717597 0.561167 0.505342
v -0.594947 1.526193 -0.279942
v -0.260844 1.499700 -0.596306
v -0.782765 0.610118 -0.301394
v -0.345659 0.596668 -0.724711
v -0.304221 0.198216 -0.690921
v -0.730529 1.298729 0.203914
v -0.252562 1.538435 0.526079
v -0.343360 0.604339 0.758874
v -0.710397 0.216713 0.248977
v -0.703463 0.210134 -0.296267
v -0.304229 0.227318 0.717681
v -0.730226 1.284481 -0.299403
v -0.256859 1.256797 0.644508
v -0.328732 0.048081 -0.321515
v -0.331595 0.052669 0.287110
v -0.263101 1.702981 -0.299470
v -0.190579 1.745724 0.140374
v -0.788667 0.614459 0.265825
v -0.317800 1.235167 -0.675106
v -0.355038 0.901658 -0.736992
v -0.300177 0.892460 0.766172
v -0.817892 0.935818 -0.311018
v -0.820690 0.942279 0.259291
v -0.663140 1.422829 -0.291656
v -0.288480 1.381343 -0.640051
v -0.330976 0.418419 -0.744540
v -0.778902 0.437463 0.268840
v -0.771927 0.431899 -0.312708
v -0.329752 0.439659 0.774725
v 0.000000 0.028920 -0.333946
v -0.348351 0.019066 0.003834
v 0.000000 0.043435 0.354265
v 0.000000 1.731293 -0.309221
v -0.276583 1.757501 -0.047816
v -0.302986 0.117211 -0.574971
v -0.248011 1.602744 -0.498053
v -0.592093 0.131613 0.251566
v -0.586781 0.125527 -0.295403
v -0.432347 1.632244 -0.282511
v -0.302992 0.137391 0.598399
v 0.000000 1.502589 -0.623023
v 0.000000 0.895399 -0.779334
v -0.474792 1.490979 -0.477200
v -0.648271 0.916455 -0.571652
v 0.000000 0.184937 -0.725018
v 0.000000 0.593971 -0.766496
v -0.618968 0.610462 -0.560858
v -0.556141 0.229046 -0.542771
v -0.629506 1.559945 -0.043857
v -0.870378 0.948012 -0.003103
v -0.750975 0.190985 -0.001430
v -0.836710 0.607781 0.005167
v -0.618172 0.236637 0.425592
v 0.000000 1.539293 0.564525
v 0.000000 0.879666 0.812352
v 0.000000 0.216963 0.769252
v 0.000000 0.599875 0.814740
v -0.240729 1.637947 0.418943
v -0.712500 0.929882 0.445342
v -0.647991 1.435333 0.148662
v -0.256461 1.416480 0.569654
v 0.000000 1.775988 0.050969
v -0.514858 1.535428 0.298253
v -0.685140 0.617312 0.450492
v -0.328421 0.704717 0.794607
v 0.000000 1.222642 -0.711927
v -0.579806 1.253307 -0.529237
v -0.775688 1.306555 -0.027779
v 0.000000 1.242455 0.693229
v -0.633769 1.284523 0.368284
v -0.271753 1.089656 0.694816
v -0.526385 1.389871 -0.505704
v -0.606379 0.438421 -0.578301
v -0.704221 1.449602 -0.037921
v -0.826932 0.423973 0.001713
v -0.677098 0.467849 0.458743
v -0.623182 0.099700 -0.000630
v -0.438262 1.685290 -0.047065
v -0.494136 0.158967 -0.482653
v -0.409197 1.566592 -0.426355
v -0.715964 0.758558 0.467484
v -0.573815 1.427973 0.331320
v -0.386697 1.620340 0.299653
v -0.675415 1.139886 0.402961
v 0.000000 0.695445 0.847166
v 0.000000 1.373382 -0.672976
v 0.000000 0.412483 -0.786177
v 0.000000 1.406249 0.628195
v 0.000000 0.435994 0.832380
v 0.000000 -0.000219 0.007351
v 0.000000 1.790915 -0.046408
v 0.000000 0.099334 -0.599890
v 0.000000 1.618986 -0.516845
v 0.000000 0.118702 0.639284
v 0.000000 1.650620 0.448233
v 0.000000 1.073928 0.749950
v -0.828318 1.127812 -0.015157
v -0.779323 1.114699 -0.304899
v -0.618693 1.091651 -0.550355
v -0.339170 1.074901 -0.706298
v 0.000000 1.064690 -0.746069
v -0.781098 1.133944 0.230389
v -0.870481 0.748422 0.002473
v -0.815699 0.738340 -0.313620
v 0.000000 0.708398 -0.793583
v -0.352081 0.711182 -0.750256
v -0.643927 0.724574 -0.581004
v -0.821897 0.739417 0.274023
v -0.592757 1.551350 0.100600
v -0.410403 1.664696 0.125409
v -0.287952 0.299055 -0.915164
v -0.826533 0.323108 0.320874
v -0.817404 0.315025 -0.392633
v -0.287581 0.335608 0.938099
v 0.000000 0.285743 -0.962673
v -0.620164 0.333343 -0.716741
v -0.882189 0.295897 -0.006799
v -0.726629 0.357094 0.512106
v 0.000000 0.327000 1.007377
v -0.825292 0.537938 -0.345799
v -0.334460 0.522881 -0.823677
v -0.332457 0.538624 0.854209
v -0.832458 0.543438 0.296070
v 0.000000 0.518155 -0.870326
v -0.641199 0.541585 -0.639186
v -0.886177 0.532373 0.001169
v 0.000000 0.534055 0.917626
v -0.717597 0.561167 0.505342
vn 0.6664 0.6656 -0.3361
vn 0.5276 0.5853 -0.6157
vn 0.4313 0.7530 -0.4969
vn 0.4607 0.8285 -0.3183
vn 0.4725 0.8813 -0.0075
vn 0.7108 0.7032 0.0143
vn 0.8557 0.5168 0.0269
vn 0.8005 0.4751 -0.3653
vn 0.5987 0.4095 -0.6884
vn 0.3529 0.3539 0.8661
vn 0.3714 0.3974 0.8391
vn -0.0000 0.3938 0.9192
vn -0.0000 0.3510 0.9364
vn 0.2533 0.5437 -0.8001
vn 0.2363 0.7794 -0.5802
vn 0.2792 0.3389 -0.8985
vn -0.0000 0.5292 -0.8485
vn -0.0000 0.7941 -0.6078
vn 0.9246 -0.1291 -0.3583
vn 0.9928 -0.1196 0.0058
vn 0.9833 0.1819 0.0043
vn 0.9220 0.2008 -0.3310
vn 0.9933 0.1157 0.0077
vn 0.9257 0.1041 -0.3637
vn 0.7996 -0.5038 -0.3269
vn 0.8751 -0.4840 0.0084
vn 0.9996 -0.0284 0.0052
vn 0.9482 -0.0065 -0.3176
vn 0.6095 -0.5404 -0.5801
vn 0.5878 -0.5437 -0.5990
vn 0.6874 -0.1152 -0.7170
vn 0.6818 0.1092 -0.7233
vn -0.0000 0.3058 -0.9521
vn 0.2722 -0.5947 -0.7565
vn 0.3041 -0.5894 -0.7484
vn 0.2351 -0.8509 -0.4699
vn 0.4353 -0.8078 -0.3974
vn 0.4113 -0.8225 -0.3929
vn 0.2231 -0.8770 -0.4255
vn -0.0000 -0.6148 -0.7887
vn -0.0000 -0.9046 -0.4262
vn -0.0000 -0.8752 -0.4837
vn 0.1291 0.8006 -0.5852
vn 0.2021 0.7854 -0.5851
vn 0.5710 0.6661 -0.4798
vn 0.4251 0.7266 -0.5398
vn 0.9287 0.1999 0.3123
vn 0.9335 -0.1112 0.3409
vn 0.7652 -0.0454 0.6422
vn 0.7614 0.2675 0.5905
vn 0.6969 0.3057 0.6487
vn 0.8961 0.2819 0.3428
vn 0.8451 0.4188 0.3323
vn 0.6779 0.3938 0.6208
vn 0.9214 0.3885 0.0124
vn 0.7963 0.5202 0.3086
vn 0.6771 0.4671 0.5687
vn -0.0000 0.8123 -0.5832
vn 0.3463 0.5579 0.7542
vn 0.6296 0.6148 0.4749
vn 0.4553 0.8041 0.3822
vn 0.2683 0.8278 0.4928
vn -0.0000 0.5637 0.8260
vn -0.0000 0.3227 0.9465
vn 0.3579 0.3200 0.8772
vn 0.4597 -0.2594 0.8494
vn 0.4007 -0.0553 0.9145
vn -0.0000 -0.0743 0.9972
vn -0.0000 -0.3177 0.9482
vn 0.5480 0.7003 0.4575
vn 0.3140 0.7770 0.5456
vn 0.2041 0.8074 0.5536
vn 0.1896 0.9507 0.2453
vn 0.4475 0.8624 0.2368
vn 0.6831 0.6805 0.2649
vn 0.5699 -0.7791 0.2612
vn 0.4671 -0.7921 0.3930
vn 0.4431 -0.8606 0.2510
vn 0.4493 -0.8932 0.0151
vn 0.6019 -0.7984 0.0161
vn 0.8517 0.4628 0.2459
vn 0.9089 0.4169 -0.0109
vn 0.9533 -0.0121 0.3019
vn 0.5561 -0.7978 -0.2328
vn 0.4422 -0.8654 -0.2355
vn 0.7880 0.5321 -0.3098
vn 0.3413 -0.6093 0.7157
vn -0.0000 -0.6426 0.7662
vn 0.4082 -0.5938 0.6934
vn 0.3086 -0.8078 0.5023
vn 0.2794 -0.8507 0.4452
vn 0.2131 0.7962 0.5662
vn 0.6673 0.5714 0.4777
vn 0.6761 0.5678 0.4696
vn 0.3881 0.7080 0.5900
vn -0.0000 -0.8581 0.5135
vn -0.0000 -0.8929 0.4503
vn 0.9661 0.2581 0.0042
vn 0.8642 0.3427 -0.3685
vn 0.6357 0.2995 -0.7115
vn 0.8987 0.2395 -0.3674
vn 0.3100 0.1233 -0.9427
vn 0.3153 -0.0894 -0.9448
vn -0.0000 -0.0785 -0.9969
vn -0.0000 0.1292 -0.9916
vn -0.0000 0.8524 0.5229
vn 0.1861 -0.9636 -0.1918
vn 0.1784 -0.9838 0.0169
vn -0.0000 0.8409 0.5412
vn 0.2095 -0.9532 0.2181
vn -0.0000 -0.9794 0.2020
vn -0.0000 -0.9998 0.0180
vn -0.0000 -0.9841 -0.1779
vn 0.2512 0.9071 -0.3377
vn 0.2726 0.9618 -0.0229
vn -0.0000 0.9383 -0.3459
vn -0.0000 0.9989 -0.0462
vn -0.0000 0.9804 0.1971
vn 0.3166 -0.2353 -0.9189
vn 0.6868 0.2693 -0.6751
vn 0.6563 0.2227 -0.7209
vn 0.2955 0.2059 -0.9329
vn 0.2892 0.2512 -0.9237
vn 0.7994 -0.5014 0.3310
vn 0.9282 0.1391 0.3452
vn -0.0000 0.2289 -0.9735
vn 0.3708 0.2476 0.8951
vn 0.7353 0.1955 0.6489
vn -0.0000 0.2528 0.9675
vn -0.0000 -0.2273 -0.9738
vn -0.0000 0.1980 -0.9802
vn 0.7563 0.6046 0.2500
vn 0.5566 -0.7763 0.2960
vn 0.4810 -0.7736 0.4126
vn 0.2266 -0.8689 0.4401
vn -0.0000 -0.9012 0.4334
vn 0.5227 -0.8117 -0.2606
vn 0.6181 -0.7860 0.0120
vn 0.3807 -0.8447 -0.3764
vn -0.0000 -0.9152 -0.4029
vn 0.1863 -0.8958 -0.4035
vn 0.6673 -0.5239 0.5293
vn 0.6562 -0.5255 0.5416
vn 0.8299 0.5579 -0.0070
vn -0.0000 0.8310 0.5562
vn 0.2155 0.7760 -0.5928
vn 0.1575 0.7880 -0.5952
vn -0.0000 0.8029 -0.5961
vn 0.4409 0.7261 -0.5277
vn 0.7273 0.6182 -0.2981
vn -0.6664 0.6656 -0.3361
vn -0.4607 0.8285 -0.3183
vn -0.4313 0.7530 -0.4969
vn -0.5276 0.5853 -0.6157
vn -0.7108 0.7032 0.0143
vn -0.4725 0.8813 -0.0075
vn -0.8005 0.4751 -0.3653
vn -0.8557 0.5168 0.0269
vn -0.5987 0.4095 -0.6884
vn -0.3529 0.3539 0.8661
vn -0.3714 0.3974 0.8391
vn -0.2533 0.5437 -0.8001
vn -0.2363 0.7794 -0.5802
vn -0.2792 0.3389 -0.8985
vn -0.9246 -0.1291 -0.3583
vn -0.9220 0.2008 -0.3310
vn -0.9833 0.1819 0.0043
vn -0.9928 -0.1196 0.0058
vn -0.9933 0.1157 0.0077
vn -0.9257 0.1041 -0.3637
vn -0.7996 -0.5038 -0.3269
vn -0.9482 -0.0065 -0.3176
vn -0.9996 -0.0284 0.0052
vn -0.8751 -0.4840 0.0084
vn -0.5878 -0.5437 -0.5990
vn -0.6095 -0.5404 -0.5801
vn -0.6818 0.1092 -0.7233
vn -0.6874 -0.1152 -0.7170
vn -0.2722 -0.5947 -0.7565
vn -0.3041 -0.5894 -0.7484
vn -0.2351 -0.8509 -0.4699
vn -0.2231 -0.8770 -0.4255
vn -0.4113 -0.8225 -0.3929
vn -0.4353 -0.8078 -0.3974
vn -0.1291 0.8006 -0.5852
vn -0.4251 0.7266 -0.5398
vn -0.5710 0.6661 -0.4798
vn -0.2021 0.7854 -0.5851
vn -0.9287 0.1999 0.3123
vn -0.7614 0.2675 0.5905
vn -0.7652 -0.0454 0.6422
vn -0.9335 -0.1112 0.3409
vn -0.6969 0.3057 0.6487
vn -0.6779 0.3938 0.6208
vn -0.8451 0.4188 0.3323
vn -0.8961 0.2819 0.3428
vn -0.7963 0.5202 0.3086
vn -0.9214 0.3885 0.0124
vn -0.6771 0.4671 0.5687
vn -0.3463 0.5579 0.7542
vn -0.6296 0.6148 0.4749
vn -0.2683 0.8278 0.4928
vn -0.4553 0.8041 0.3822
vn -0.3579 0.3200 0.8772
vn -0.4597 -0.2594 0.8494
vn -0.4007 -0.0553 0.9145
vn -0.5480 0.7003 0.4575
vn -0.2041 0.8074 0.5536
vn -0.3140 0.7770 0.5456
vn -0.1896 0.9507 0.2453
vn -0.4475 0.8624 0.2368
vn -0.6831 0.6805 0.2649
vn -0.5699 -0.7791 0.2612
vn -0.4431 -0.8606 0.2510
vn -0.4671 -0.7921 0.3930
vn -0.6019 -0.7984 0.0161
vn -0.4493 -0.8932 0.0151
vn -0.8517 0.4628 0.2459
vn -0.9533 -0.0121 0.3019
vn -0.9089 0.4169 -0.0109
vn -0.5561 -0.7978 -0.2328
vn -0.4422 -0.8654 -0.2355
vn -0.7880 0.5321 -0.3098
vn -0.3413 -0.6093 0.7157
vn -0.4082 -0.5938 0.6934
vn -0.3086 -0.8078 0.5023
vn -0.2794 -0.8507 0.4452
vn -0.2131 0.7962 0.5662
vn -0.3881 0.7080 0.5900
vn -0.6761 0.5678 0.4696
vn -0.6673 0.5714 0.4777
vn -0.9661 0.2581 0.0042
vn -0.8642 0.3427 -0.3685
vn -0.6357 0.2995 -0.7115
vn -0.8987 0.2395 -0.3674
vn -0.3100 0.1233 -0.9427
vn -0.3153 -0.0894 -0.9448
vn -0.1861 -0.9636 -0.1918
vn -0.1784 -0.9838 0.0169
vn -0.2095 -0.9532 0.2181
vn -0.2512 0.9071 -0.3377
vn -0.2726 0.9618 -0.0229
vn -0.3166 -0.2353 -0.9189
vn -0.6868 0.2693 -0.6751
vn -0.2892 0.2512 -0.9237
vn -0.2955 0.2059 -0.9329
vn -0.6563 0.2227 -0.7209
vn -0.7994 -0.5014 0.3310
vn -0.9282 0.1391 0.3452
vn -0.3708 0.2476 0.8951
vn -0.7353 0.1955 0.6489
vn -0.7563 0.6046 0.2500
vn -0.4810 -0.7736 0.4126
vn -0.5566 -0.7763 0.2960
vn -0.2266 -0.8689 0.4401
vn -0.6181 -0.7860 0.0120
vn -0.5227 -0.8117 -0.2606
vn -0.3807 -0.8447 -0.3764
vn -0.1863 -0.8958 -0.4035
vn -0.6673 -0.5239 0.5293
vn -0.6562 -0.5255 0.5416
vn -0.8299 0.5579 -0.0070
vn -0.2155 0.7760 -0.5928
vn -0.1575 0.7880 -0.5952
vn -0.4409 0.7261 -0.5277
vn -0.7273 0.6182 -0.2981
vt 0.078678 0.327891
vt 0.109561 0.327647
vt 0.109561 0.327647
vt 0.078678 0.327892
s 1
usemtl Atlas
f 629/8/687 666/8/688 694/8/689 664/8/690
f 629/8/687 664/8/690 692/8/691 670/8/692
f 629/8/687 670/8/692 688/8/693 652/8/694
f 629/8/687 652/8/694 686/8/695 666/8/688
f 641/8/696 678/8/697 812/8/698 793/8/699
f 630/8/700 661/8/701 694/8/689 666/8/688
f 630/8/700 666/8/688 686/8/695 653/8/702
f 630/8/700 765/8/703 817/8/704 661/8/701
f 705/8/705 704/8/706 673/8/707 631/8/708
f 671/8/709 704/8/706 705/8/705 650/8/710
f 718/9/711 723/9/712 689/9/713 656/9/714
f 718/9/711 656/9/714 687/9/715 722/9/716
f 650/8/710 705/8/705 707/8/717 667/8/718
f 630/8/700 653/8/702 810/8/719 765/8/703
f 719/9/720 722/9/716 687/9/715 654/9/721
f 633/9/722 669/9/723 693/9/724 660/9/725
f 719/10/720 654/9/721 811/9/726 848/9/726
f 633/9/722 660/9/725 816/9/727 769/9/728
f 711/9/729 654/9/730 687/9/731 715/9/732
f 646/8/733 708/8/734 695/8/735 680/8/736
f 698/8/737 703/8/738 634/8/739 684/8/740
f 634/8/739 683/8/741 688/8/693 677/8/742
f 634/8/739 677/8/742 696/8/743 684/8/740
f 711/9/729 839/9/744 811/9/744 654/9/730
f 635/8/745 678/8/697 696/8/743 679/8/746
f 635/8/745 679/8/746 697/8/747 675/8/748
f 635/8/745 778/8/749 812/8/698 678/8/697
f 641/8/696 793/8/699 820/8/750 685/8/751
f 636/8/752 681/8/753 809/8/754 781/8/755
f 724/9/756 680/9/736 636/9/757 720/9/758
f 645/8/759 675/8/748 697/8/747 710/8/760
f 709/8/761 710/8/760 697/8/747 679/8/746
f 677/8/742 709/8/761 679/8/746 696/8/743
f 709/8/761 677/8/742 688/8/693 670/8/692
f 637/9/762 674/9/763 662/9/764
f 637/9/762 662/9/764 691/9/765 672/9/766
f 712/9/767 716/9/768 689/9/713 655/9/769
f 638/9/770 672/9/766 691/9/765 663/9/771
f 638/9/770 663/9/771 693/9/724 669/9/723
f 713/9/772 715/9/732 687/9/731 656/9/714
f 713/9/772 656/9/714 689/9/713 716/9/768
f 720/9/773 851/9/774 813/9/774 657/9/775
f 639/9/776 665/9/777 674/9/763
f 714/9/778 717/9/779 690/9/780 657/9/781
f 639/9/776 780/9/782 818/9/783 665/9/777
f 703/8/738 699/8/784 683/8/741 634/8/739
f 640/8/785 682/8/786 686/8/695 652/8/694
f 640/8/785 652/8/694 688/8/693 683/8/741
f 683/8/741 699/8/784 700/8/787 640/8/785
f 641/8/696 685/8/751 698/8/737 684/8/740
f 641/8/696 684/8/740 696/8/743 678/8/697
f 648/8/788 706/8/789 829/8/790 766/8/791
f 635/8/745 675/8/748 819/8/792 778/8/749
f 642/9/793 660/9/725 693/9/724 663/9/771
f 642/9/793 663/9/771 691/9/765 658/9/794
f 714/9/778 657/9/781 813/9/795 843/9/795
f 643/9/796 658/9/794 691/9/765 662/9/764
f 643/9/796 662/9/764 674/9/763 665/9/777
f 643/9/796 756/9/797 814/9/798 658/9/794
f 642/9/793 754/9/799 816/9/727 660/9/725
f 644/8/800 659/8/801 692/8/691 664/8/690
f 644/8/800 664/8/690 694/8/689 661/8/701
f 644/8/800 757/8/802 815/8/803 659/8/801
f 644/8/800 661/8/701 817/8/704 757/8/802
f 645/8/759 659/8/801 815/8/803 786/8/804
f 645/8/759 710/8/760 692/8/691 659/8/801
f 632/8/805 706/8/789 707/8/717 668/8/806
f 682/8/786 701/8/807 702/8/808 647/8/809
f 721/9/810 655/9/769 689/9/713 723/9/712
f 645/8/759 786/8/804 819/8/792 675/8/748
f 640/8/785 700/8/787 701/8/807 682/8/786
f 647/8/809 653/8/702 686/8/695 682/8/786
f 651/8/811 708/8/734 704/8/706 671/8/709
f 647/8/809 790/8/812 810/8/719 653/8/702
f 700/8/787 699/8/784 671/8/709 650/8/710
f 702/8/808 701/8/807 667/8/718 648/8/788
f 643/9/796 665/9/777 818/9/783 756/9/797
f 649/8/813 681/8/753 695/8/735 676/8/814
f 649/8/813 676/8/814 698/8/737 685/8/751
f 649/8/813 779/8/815 809/8/754 681/8/753
f 651/8/811 703/8/738 698/8/737 676/8/814
f 701/8/807 700/8/787 650/8/710 667/8/718
f 699/8/784 703/8/738 651/8/811 671/8/709
f 707/8/717 705/8/705 631/8/708 668/8/806
f 704/8/706 708/8/734 646/8/733 673/8/707
f 632/8/805 770/8/816 829/8/790 706/8/789
f 647/8/809 702/8/808 825/8/817 790/8/812
f 695/8/735 708/8/734 651/8/811 676/8/814
f 648/8/788 766/8/791 825/8/817 702/8/808
f 707/8/717 706/8/789 648/8/788 667/8/718
f 649/8/813 685/8/751 820/8/750 779/8/815
f 724/9/756 721/9/818 646/9/733 680/9/736
f 712/9/767 655/9/769 690/9/780 717/9/779
f 709/8/761 670/8/692 692/8/691 710/8/760
f 642/9/793 658/9/794 814/9/798 754/9/799
f 637/9/762 712/9/819 717/9/820 674/9/763
f 639/9/776 714/9/821 843/9/822 780/9/782
f 639/9/776 674/9/763 717/9/820 714/9/821
f 638/9/770 713/9/823 716/9/824 672/9/766
f 638/9/770 669/9/723 715/9/825 713/9/823
f 637/9/762 672/9/766 716/9/824 712/9/819
f 633/9/722 769/9/728 839/9/826 711/9/827
f 633/9/722 711/9/827 715/9/825 669/9/723
f 680/8/736 695/8/735 681/8/753 636/8/752
f 690/9/828 655/9/769 721/9/810 724/9/829
f 646/9/733 721/9/818 723/9/830 673/9/707
f 636/9/757 781/9/831 851/9/831 720/9/758
f 690/9/828 724/9/829 720/9/773 657/9/775
f 632/9/832 719/9/833 848/9/834 770/9/834
f 632/9/832 668/9/806 722/9/835 719/9/833
f 631/9/708 718/9/836 722/9/835 668/9/806
f 631/9/708 673/9/707 723/9/830 718/9/836
f 725/8/837 763/8/838 804/8/839 767/8/840
f 725/8/837 773/8/841 802/8/842 763/8/838
f 725/8/837 748/8/843 798/8/844 773/8/841
f 725/8/837 767/8/840 796/8/845 748/8/843
f 737/8/846 793/8/699 812/8/698 785/8/847
f 726/8/848 767/8/840 804/8/839 760/8/849
f 726/8/848 749/8/850 796/8/845 767/8/840
f 726/8/848 760/8/849 817/8/704 765/8/703
f 828/8/851 727/8/852 776/8/853 827/11/854
f 774/8/855 746/8/856 828/8/851 827/11/854
f 844/9/857 752/9/858 799/10/859 850/9/860
f 844/9/857 849/9/861 797/9/862 752/9/858
f 746/8/856 768/8/863 831/8/864 828/8/851
f 726/8/848 765/8/703 810/8/719 749/8/850
f 845/9/865 750/10/866 797/9/862 849/9/861
f 729/9/867 759/9/868 803/9/869 772/9/870
f 845/9/865 848/9/726 811/9/726 750/9/866
f 729/9/867 769/9/728 816/9/727 759/9/868
f 835/9/871 840/9/872 797/9/873 750/9/874
f 742/8/875 788/8/876 805/8/877 832/8/878
f 808/8/879 794/8/880 730/8/881 826/8/882
f 730/8/881 784/8/883 798/8/844 792/8/884
f 730/8/881 794/8/880 806/8/885 784/8/883
f 835/9/871 750/9/874 811/9/744 839/9/744
f 731/8/886 787/8/887 806/8/885 785/8/847
f 731/8/886 782/8/888 807/8/889 787/8/887
f 731/8/886 785/8/847 812/8/698 778/8/749
f 737/8/846 795/8/890 820/8/750 793/8/699
f 732/8/891 781/8/755 809/8/754 789/8/892
f 852/9/893 846/9/894 732/9/895 788/9/876
f 741/8/896 834/8/897 807/8/889 782/8/888
f 833/8/898 787/8/887 807/8/889 834/8/897
f 784/8/883 806/8/885 787/8/887 833/8/898
f 833/8/898 773/8/841 798/8/844 784/8/883
f 733/9/899 761/9/900 777/9/901
f 733/9/899 775/9/902 801/9/903 761/9/900
f 836/9/904 751/9/905 799/10/859 841/9/906
f 734/9/907 762/9/908 801/9/903 775/9/902
f 734/9/907 772/9/870 803/9/869 762/9/908
f 837/10/909 752/9/858 797/9/873 840/10/872
f 837/10/909 841/9/906 799/10/859 752/9/858
f 846/9/910 753/9/911 813/9/774 851/9/774
f 735/9/912 777/9/901 764/9/913
f 838/9/914 753/9/915 800/9/916 842/9/917
f 735/9/912 764/9/913 818/9/783 780/9/782
f 826/8/882 730/8/881 792/8/884 821/8/918
f 736/8/919 748/8/843 796/8/845 791/8/920
f 736/8/919 792/8/884 798/8/844 748/8/843
f 792/8/884 736/8/919 822/8/921 821/8/918
f 737/8/846 794/8/880 808/8/879 795/8/890
f 737/8/846 785/8/847 806/8/885 794/8/880
f 744/8/922 766/8/791 829/8/790 830/8/923
f 731/8/886 778/8/749 819/8/792 782/8/888
f 738/9/924 762/9/908 803/9/869 759/9/868
f 738/9/924 755/9/925 801/9/903 762/9/908
f 838/9/914 843/9/795 813/9/795 753/9/915
f 739/9/926 761/9/900 801/9/903 755/9/925
f 739/9/926 764/9/913 777/9/901 761/9/900
f 739/9/926 755/9/925 814/9/798 756/9/797
f 738/9/924 759/9/868 816/9/727 754/9/799
f 740/8/927 763/8/838 802/8/842 758/8/928
f 740/8/927 760/8/849 804/8/839 763/8/838
f 740/8/927 758/8/928 815/8/803 757/8/802
f 740/8/927 757/8/802 817/8/704 760/8/849
f 741/8/896 786/8/804 815/8/803 758/8/928
f 741/8/896 758/8/928 802/8/842 834/8/897
f 728/11/929 771/8/930 831/8/864 830/8/923
f 791/8/920 743/8/931 824/8/932 823/8/933
f 847/9/934 850/9/860 799/9/859 751/9/905
f 741/8/896 782/8/888 819/8/792 786/8/804
f 736/8/919 791/8/920 823/8/933 822/8/921
f 743/8/931 791/8/920 796/8/845 749/8/850
f 747/8/935 774/8/855 827/8/854 832/8/878
f 743/8/931 749/8/850 810/8/719 790/8/812
f 822/8/921 746/8/856 774/8/855 821/8/918
f 824/8/932 744/8/922 768/8/863 823/8/933
f 739/9/926 756/9/797 818/9/783 764/9/913
f 745/8/936 783/8/937 805/8/877 789/8/892
f 745/8/936 795/8/890 808/8/879 783/8/937
f 745/8/936 789/8/892 809/8/754 779/8/815
f 747/8/935 783/8/937 808/8/879 826/8/882
f 823/8/933 768/8/863 746/8/856 822/8/921
f 821/8/918 774/8/855 747/8/935 826/8/882
f 831/8/864 771/8/930 727/8/852 828/8/851
f 827/8/854 776/8/853 742/8/875 832/8/878
f 728/8/929 830/8/923 829/8/790 770/8/816
f 743/8/931 790/8/812 825/8/817 824/8/932
f 805/8/877 783/8/937 747/8/935 832/8/878
f 744/8/922 824/8/932 825/8/817 766/8/791
f 831/8/864 768/8/863 744/8/922 830/8/923
f 745/8/936 779/8/815 820/8/750 795/8/890
f 852/9/893 788/9/876 742/9/875 847/9/938
f 836/9/904 842/9/917 800/9/916 751/9/905
f 833/8/898 834/8/897 802/8/842 773/8/841
f 738/9/924 754/9/799 814/9/798 755/9/925
f 733/9/899 777/9/901 842/9/939 836/9/940
f 735/9/912 780/9/782 843/9/822 838/9/941
f 735/9/912 838/9/941 842/9/939 777/9/901
f 734/9/907 775/9/902 841/9/942 837/9/943
f 734/9/907 837/9/943 840/9/944 772/9/870
f 733/9/899 836/9/940 841/9/942 775/9/902
f 729/9/867 835/9/945 839/9/826 769/9/728
f 729/9/867 772/9/870 840/9/944 835/9/945
f 788/8/876 732/8/891 789/8/892 805/8/877
f 800/9/946 852/9/947 847/9/934 751/9/905
f 742/10/875 776/9/853 850/9/948 847/9/938
f 732/9/895 846/9/894 851/9/831 781/9/831
f 800/9/946 753/9/911 846/9/910 852/9/947
f 728/9/949 770/9/834 848/9/834 845/9/950
f 728/10/949 845/9/950 849/9/951 771/9/930
f 727/9/852 771/9/930 849/9/951 844/9/952
f 727/9/852 844/9/952 850/9/948 776/9/853
