# Blender 5.2.2 LTS
# www.blender.org
mtllib finalBossHand_7.mtl
o 立方体.011
v -4.048403 -16.020203 -0.561782
v -4.096883 -16.011162 -0.453629
v -4.485239 -12.970736 -0.862112
v -3.730722 -16.558733 -0.172965
v -3.571615 -16.558733 -0.404388
v -3.964781 -16.011162 -0.645774
v -3.557863 -17.027138 -0.224527
v -3.550029 -15.740934 -0.219142
v -3.498765 -15.643278 -0.333970
v -3.638888 -15.643278 -0.130161
v -3.966256 -12.830376 -0.505305
v -3.902992 -12.757607 -0.611883
v -3.695013 -9.868223 -0.318821
v -4.043115 -12.757607 -0.408073
v -3.751455 -15.396076 -0.067936
v -3.762056 -9.815081 -0.187933
v -4.124097 -12.563042 -0.324134
v -3.872226 -15.065834 -0.026234
v -4.199263 -12.298574 -0.251077
v -3.799211 -9.678288 -0.048828
v -3.813536 -9.490192 0.088421
v -2.188100 -6.173318 0.933517
v -2.257664 -6.056515 1.086936
v -1.796689 -1.017408 1.190087
v -1.884222 -1.044672 1.319493
v -2.311172 -5.886551 1.229939
v -1.967029 -1.067431 1.431938
v -2.352702 -5.675244 1.355724
v -3.809999 -9.272102 0.217125
v -3.650978 -8.691164 0.500493
v -4.320730 -11.356876 -0.079935
v -4.262542 -11.998123 -0.187507
v -4.184212 -13.936073 0.013923
v -3.991209 -14.698715 -0.000962
v -4.251354 -14.254723 -0.013698
v -4.116664 -14.963367 -0.035823
v -4.009204 -15.502100 -0.072166
v -4.183970 -15.390957 -0.142178
v -4.224582 -14.964405 -0.079908
v -4.548699 -12.508312 -0.392933
v -4.313823 -14.325871 -0.057500
v -4.531231 -12.157681 -0.290735
v -4.244273 -9.366142 -0.091691
v -4.140010 -9.187389 0.086353
v -4.517477 -11.621376 -0.197516
v -4.440187 -13.309189 -0.046087
v -4.504373 -10.886112 -0.020053
v -4.003230 -8.851740 0.279171
v -3.531079 -7.916867 0.719697
v -2.681386 -5.347723 1.367958
v -2.766237 -5.699693 1.188887
v -2.398676 -1.254363 1.391242
v -2.435595 -1.296619 1.243390
v -2.852472 -5.867121 0.999599
v -2.468131 -1.326576 1.071791
v -2.920111 -5.966716 0.794690
v -2.950816 -6.003053 0.592856
v -2.479836 -1.355286 0.893488
v -4.322834 -9.491158 -0.275305
v -4.555286 -12.772629 -0.507361
v -4.359765 -9.547739 -0.448558
v -4.552359 -12.916035 -0.630728
v -2.934121 -5.998750 0.408237
v -4.348861 -9.549288 -0.601501
v -2.865433 -5.989230 0.251527
v -4.292088 -9.538542 -0.729319
v -4.533082 -12.966427 -0.753522
v -4.124312 -15.934969 -0.336440
v -4.150359 -15.730761 -0.228967
v -3.880383 -16.044590 -0.119251
v -4.193074 -9.549286 -0.828096
v -4.400980 -12.966427 -0.945667
v -3.865184 -15.934969 -0.713346
v -4.293230 -12.916035 -1.007634
v -4.054175 -9.547739 -0.893042
v -4.179090 -12.772627 -1.054543
v -3.774163 -15.730761 -0.776149
v -3.575051 -16.044592 -0.563360
v -3.705163 -15.390957 -0.838609
v -3.577215 -15.502100 -0.700499
v -3.485281 -15.065834 -0.589052
v -3.480973 -15.396074 -0.461355
v -3.581761 -14.963366 -0.813847
v -3.504289 -14.698713 -0.709193
v -3.609332 -14.254723 -0.947529
v -3.661565 -14.964405 -0.898825
v -3.672599 -14.325869 -0.990173
v -3.968213 -12.157682 -1.109650
v -4.069891 -12.508310 -1.089364
v -3.679616 -9.366137 -0.912991
v -3.879188 -9.491158 -0.920597
v -2.377862 -5.966716 0.005983
v -2.577309 -6.003049 0.049584
v -2.743708 -5.998750 0.131280
v -2.127967 -1.355283 0.381687
v -2.278552 -1.382156 0.462895
v -2.392485 -1.394636 0.576685
v -3.268936 2.114849 -0.190550
v -3.142505 2.153154 -0.261961
v -2.988945 2.179816 -0.302307
v -3.633105 4.331264 -0.679172
v -3.768842 4.404453 -0.647111
v -3.312401 7.701327 -0.333303
v -3.234178 7.516198 -0.404904
v -3.883973 4.415345 -0.590219
v -3.968703 4.406915 -0.506989
v -3.413015 7.769086 -0.266430
v -3.363270 2.094516 -0.090745
v -3.422681 2.114849 0.033072
v -4.016075 4.415345 -0.398074
v -4.027970 4.404454 -0.270205
v -3.571530 7.701327 0.043603
v -3.545117 7.769086 -0.074285
v -3.248005 7.802321 0.315515
v -3.062529 8.221809 0.286424
v -3.500351 7.775629 -0.184991
v -2.878574 8.595667 0.242491
v -2.903422 8.221809 0.055001
v -2.925482 7.499467 0.210241
v -2.890445 7.415611 0.084257
v -2.942674 7.802320 -0.128594
v -3.023430 7.314767 -0.319766
v -2.907923 7.206591 -0.067377
v -3.364237 4.497974 -0.241481
v -2.946791 6.937459 -0.218834
v -3.290201 4.363976 -0.330199
v -3.219416 4.198310 -0.406267
v -2.662812 2.570934 0.053684
v -2.767681 2.642466 0.144074
v -2.861717 2.671449 0.254081
v -1.606417 -1.017408 0.913335
v -1.702871 -1.004655 1.050805
v -2.930759 2.642467 0.381271
v -1.986130 -6.173318 0.639748
v -2.097234 -6.217237 0.779674
v -3.596810 -9.815081 -0.428286
v -3.480232 -9.678289 -0.512787
v -3.853615 -12.563042 -0.717552
v -3.812318 -12.298573 -0.813894
v -3.357210 -9.490192 -0.575305
v -3.775623 -11.998123 -0.895739
v -3.559499 -13.936071 -0.894729
v -3.696018 -11.356874 -0.988588
v -3.235775 -9.272102 -0.618089
v -2.914254 -8.691164 -0.571078
v -1.650857 -5.675242 0.334880
v -1.753431 -5.886551 0.418695
v -1.441597 -1.067431 0.667689
v -1.516935 -1.044672 0.785269
v -1.867792 -6.056515 0.519861
v -2.562371 2.481037 -0.022430
v -2.477585 2.390676 -0.088753
v -3.156521 4.033881 -0.470099
v -3.058126 3.779007 -0.550029
v -3.045560 6.173963 -0.541390
v -2.988594 6.657629 -0.354647
v -3.110390 6.359334 -0.604502
v -3.070559 6.864945 -0.462391
v -3.163835 6.863751 -0.556631
v -3.188235 7.216537 -0.483216
v -3.488844 4.194095 -0.689887
v -2.822216 2.183162 -0.315580
v -3.352244 4.029187 -0.686163
v -3.181597 6.402380 -0.652603
v -2.665946 2.169539 -0.313108
v -3.229648 3.805794 -0.685639
v -3.099437 3.623594 -0.694409
v -2.531128 2.113385 -0.317902
v -3.168364 5.922986 -0.741797
v -3.134818 5.929017 -0.712758
v -3.137509 5.604527 -0.774475
v -3.080737 5.755600 -0.673302
v -3.103070 5.539221 -0.744450
v -3.002573 3.501634 -0.681705
v -2.422987 2.136834 -0.357948
v -2.956389 3.478591 -0.643605
v -2.338239 2.143528 -0.362402
v -1.379841 -0.590153 0.133691
v -2.285629 2.150742 -0.318844
v -1.321292 -0.623343 0.182562
v -1.360034 -0.362629 0.231690
v -2.351464 2.311002 -0.299173
v -2.995792 3.633037 -0.614900
v -2.366168 2.271580 -0.183907
v -1.324376 -0.957486 0.402488
v -1.385685 -1.070136 0.560734
v -1.473778 -5.145877 0.243906
v -2.212451 -7.241076 -0.215619
v -1.258878 -3.939100 0.236376
v -1.279694 -4.140551 0.141642
v -1.329760 -4.081777 0.098072
v -2.296910 -7.295111 -0.346970
v -2.261288 -7.347198 -0.314994
v -3.548690 -10.261059 -1.057166
v -3.513408 -10.290783 -1.026563
v -3.509773 -10.271328 -0.968268
v -3.664636 -12.682941 -1.074739
v -3.674124 -13.331966 -1.083536
v -3.700513 -12.697235 -1.161547
v -3.662271 -12.688070 -1.128907
v -3.703104 -10.747795 -1.109437
v -3.707188 -13.309189 -1.112245
v -3.876253 -11.621376 -1.130187
v -3.476044 -9.187389 -0.879393
v -3.247034 -8.851740 -0.820725
v -1.954704 -5.699693 0.008504
v -1.757125 -5.347723 0.023608
v -2.666653 -7.916865 -0.537619
v -1.487263 -4.542288 0.067466
v -1.526869 -1.167958 0.239256
v -1.444886 -0.790133 0.162150
v -1.634155 -1.254362 0.279234
v -1.785424 -1.296618 0.297705
v -2.162321 -5.867117 -0.004235
v -1.957294 -1.326576 0.328772
v -3.504358 4.497974 -0.037672
v -3.560683 4.363976 0.063221
v -2.977604 2.570934 0.511554
v -3.606361 4.198310 0.156550
v -3.012706 2.481037 0.632589
v -3.643440 4.033881 0.238132
v -3.044273 2.390676 0.735502
v -3.682838 3.779007 0.358624
v -3.093222 2.271580 0.873603
v -2.046872 -1.070136 1.522440
v -2.374236 -5.145877 1.553636
v -2.172673 -0.957485 1.636348
v -2.304318 -3.939100 1.756983
v -2.344914 -0.362629 1.664211
v -3.190373 2.150743 0.997120
v -3.195580 2.311003 0.928605
v -2.376911 -0.623343 1.717975
v -2.400223 -4.140551 1.771468
v -2.458832 -4.081777 1.740323
v -2.443507 -0.590153 1.680809
v -2.440226 -0.790132 1.609885
v -3.249881 2.143528 0.963594
v -3.276068 2.136834 0.882870
v -3.277400 2.113385 0.767561
v -3.832436 3.623595 0.371750
v -3.785892 3.501635 0.457642
v -3.920825 5.604527 0.364872
v -3.880461 5.539220 0.386276
v -3.733780 3.478591 0.487121
v -3.721088 3.633037 0.440054
v -3.806033 5.755599 0.381652
v -3.862238 5.929018 0.345285
v -3.670273 6.173964 0.367263
v -3.475512 6.657629 0.353583
v -3.752413 6.359333 0.329329
v -3.605463 6.864945 0.315632
v -3.726852 6.863751 0.262286
v -3.822821 6.402380 0.280068
v -3.915261 4.029186 0.132753
v -3.901363 5.922985 0.324361
v -3.870873 3.805793 0.247032
v -3.321198 2.169540 0.639965
v -3.379462 2.183163 0.494942
v -3.967650 4.194094 0.006544
v -3.426770 2.179815 0.334516
v -3.444084 2.153155 0.176690
v -4.009301 4.331264 -0.131989
v -3.610374 7.516197 0.142278
v -3.667042 7.216537 0.213216
v -3.455418 7.314767 0.308567
v -3.178405 7.206592 0.326043
v -3.333736 6.937459 0.343983
v -3.030566 7.415611 0.288066
v -3.437592 4.553066 -0.141842
v -2.457934 -1.382155 0.723808
v -2.397588 -1.167958 1.505729
v -2.543806 -4.542288 1.604223
v -3.271004 -7.507441 0.851785
v -3.253197 -7.628919 0.817531
v -4.450303 -10.451275 0.151270
v -4.483831 -12.697235 -0.022201
v -4.401707 -10.486328 0.177197
v -4.335982 -10.463385 0.156585
v -4.389933 -12.682941 -0.019786
v -4.439662 -12.688070 0.001819
v -4.401544 -13.331970 -0.025493
v -3.159689 -7.538932 0.826025
vn 0.7286 0.6277 0.2741
vn 0.9047 0.1682 0.3915
vn 0.9045 0.1682 0.3918
vn 0.6895 0.1682 0.7045
vn 0.6897 0.1682 0.7042
vn 0.9020 0.3592 -0.2394
vn 0.0994 0.3592 0.9279
vn 0.5168 0.6277 0.5821
vn -0.2717 0.0057 -0.9624
vn -0.9958 0.0057 0.0909
vn -0.9375 0.1002 -0.3333
vn -0.8375 -0.1708 -0.5191
vn -0.6469 0.1002 -0.7560
vn -0.7846 -0.1708 -0.5960
vn -0.7933 -0.1675 -0.5853
vn -0.8305 -0.1675 -0.5312
vn -0.8858 0.1095 -0.4510
vn -0.7383 0.1095 -0.6655
vn -0.8670 -0.1568 -0.4730
vn -0.7308 -0.1661 -0.6621
vn -0.5679 0.1152 -0.8150
vn -0.8632 0.1192 -0.4905
vn -0.9140 0.1393 -0.3811
vn -0.6711 -0.1539 -0.7252
vn -0.8980 -0.1400 -0.4171
vn -0.4110 0.1324 -0.9020
vn -0.9304 0.1672 -0.3263
vn -0.5679 0.4565 -0.6849
vn -0.6227 0.4630 -0.6308
vn -0.6263 0.4635 -0.6268
vn -0.6287 0.4639 -0.6241
vn -0.6202 0.4626 -0.6335
vn -0.8795 0.0900 -0.4673
vn -0.8336 0.0874 -0.5454
vn -0.5211 0.4475 -0.7268
vn -0.8947 0.0870 -0.4382
vn -0.5048 0.4448 -0.7398
vn -0.8104 0.0822 -0.5801
vn -0.8970 0.0823 -0.4343
vn -0.3822 0.4160 -0.8251
vn -0.9707 0.2263 0.0808
vn -0.7055 0.4572 -0.5415
vn -0.0741 0.1584 -0.9846
vn -0.9278 0.2007 -0.3146
vn -0.9816 -0.0586 -0.1818
vn -0.4991 -0.1095 -0.8596
vn -0.9244 -0.1179 -0.3628
vn -0.2494 0.1499 -0.9567
vn 0.1447 0.0564 -0.9879
vn 0.1478 0.0583 -0.9873
vn 0.1431 0.0555 -0.9882
vn 0.1494 0.0592 -0.9870
vn 0.0775 0.0921 -0.9927
vn 0.0736 0.0829 -0.9938
vn 0.0782 0.0937 -0.9925
vn -0.5837 -0.1341 -0.8008
vn 0.0732 0.0817 -0.9940
vn 0.4478 0.1488 -0.8817
vn 0.3714 0.1686 -0.9130
vn 0.3754 0.1001 -0.9214
vn 0.9847 0.1131 -0.1324
vn 0.9151 0.0702 -0.3971
vn 0.4930 0.0992 -0.8643
vn 0.9563 0.1244 0.2647
vn 0.9657 -0.1158 0.2324
vn 0.8859 -0.0582 -0.4603
vn 0.3985 -0.1670 0.9019
vn 0.9117 0.0475 -0.4080
vn 0.7861 0.0908 0.6113
vn 0.9817 0.0280 -0.1886
vn 0.3717 -0.2241 0.9009
vn 0.8730 -0.0792 -0.4813
vn 0.7776 -0.1003 -0.6207
vn 0.7781 -0.1008 -0.6200
vn 0.7780 -0.1007 -0.6202
vn 0.7783 -0.1010 -0.6198
vn 0.7409 -0.4378 0.5094
vn 0.9345 -0.3525 -0.0493
vn 0.9723 -0.0703 -0.2227
vn 0.9443 -0.0634 -0.3229
vn 0.9286 -0.0652 -0.3654
vn 0.9356 -0.3245 -0.1392
vn 0.9818 -0.0804 -0.1721
vn 0.9573 -0.0766 -0.2788
vn 0.9338 -0.3245 -0.1505
vn 0.9239 -0.2894 -0.2505
vn 0.9343 -0.3472 -0.0814
vn 0.9343 -0.3465 -0.0842
vn 0.9342 -0.3477 -0.0795
vn 0.9868 -0.0914 -0.1337
vn 0.9943 -0.0939 -0.0502
vn 0.9312 -0.3147 -0.1841
vn 0.9311 -0.0556 -0.3605
vn 0.9890 -0.0789 0.1254
vn 0.9801 -0.0559 -0.1906
vn 0.9343 -0.3460 -0.0861
vn 0.9935 -0.0620 0.0956
vn 0.9956 -0.0608 0.0716
vn 0.9193 -0.3869 0.0728
vn 0.9196 -0.3865 0.0708
vn 0.9191 -0.3871 0.0741
vn 0.9198 -0.3863 0.0695
vn 0.8367 -0.4299 0.3392
vn 0.8376 -0.4298 0.3373
vn 0.8362 -0.4300 0.3404
vn 0.8381 -0.4297 0.3361
vn 0.9134 -0.0671 0.4015
vn 0.9127 -0.0670 0.4032
vn 0.9139 -0.0671 0.4003
vn 0.9819 -0.0609 0.1791
vn 0.9121 -0.0670 0.4045
vn 0.9845 0.1487 0.0935
vn 0.9797 0.1531 0.1297
vn 0.7032 0.3993 -0.5883
vn 0.9901 0.1382 -0.0226
vn 0.6129 0.7203 -0.3248
vn -0.0175 0.0823 -0.9965
vn -0.2531 0.1262 -0.9592
vn 0.8163 0.2898 -0.4996
vn -0.1456 0.0608 -0.9875
vn 0.5619 0.2030 -0.8019
vn 0.9864 0.1249 -0.1072
vn 0.9854 0.1238 -0.1169
vn 0.9860 0.1245 -0.1108
vn 0.4972 0.2606 -0.8276
vn 0.9850 0.1235 -0.1202
vn 0.6162 -0.4299 0.6599
vn 0.6149 -0.4298 0.6612
vn 0.6139 -0.4297 0.6621
vn 0.7020 -0.0671 0.7090
vn 0.7010 -0.0671 0.7100
vn 0.7033 -0.0670 0.7077
vn 0.7043 -0.0670 0.7068
vn 0.5189 -0.0609 0.8527
vn 0.6898 0.1682 0.7042
vn 0.4719 0.1531 0.8682
vn 0.4398 0.1487 0.8857
vn 0.4450 -0.0620 0.8934
vn 0.4233 -0.0608 0.9039
vn 0.2437 0.1238 0.9619
vn 0.2496 0.1245 0.9603
vn 0.2405 0.1235 0.9628
vn 0.3334 0.1382 0.9326
vn 0.2531 0.1249 0.9593
vn -0.2975 0.3993 0.8672
vn -0.5475 0.2030 0.8118
vn -0.5947 0.2606 0.7606
vn -0.9367 0.0823 0.3404
vn -0.6628 0.1488 0.7338
vn -0.9381 0.1142 0.3269
vn -0.8992 0.0920 0.4278
vn -0.9016 0.0828 0.4247
vn -0.9018 0.0817 0.4243
vn -0.8987 0.0937 0.4284
vn -0.8706 0.0564 0.4888
vn -0.8689 0.0583 0.4915
vn -0.8681 0.0592 0.4929
vn -0.7259 0.1001 0.6805
vn -0.7195 0.1686 0.6737
vn -0.6305 0.0992 0.7698
vn 0.5896 0.1244 0.7981
vn -0.0431 0.0702 0.9966
vn 0.2290 0.1131 0.9668
vn -0.0032 -0.0556 0.9984
vn 0.5628 -0.1158 0.8185
vn 0.4712 -0.0789 0.8785
vn 0.0823 0.0967 0.9919
vn 0.1615 -0.3147 0.9354
vn 0.2586 -0.3472 0.9014
vn 0.2603 -0.3477 0.9008
vn 0.2559 -0.3465 0.9025
vn 0.2541 -0.3460 0.9032
vn 0.1729 -0.0559 0.9833
vn 0.4359 -0.1081 0.8935
vn 0.3971 -0.3869 0.8322
vn 0.3983 -0.3871 0.8316
vn 0.3954 -0.3865 0.8332
vn 0.2285 -0.0914 0.9692
vn 0.4868 -0.1090 0.8667
vn 0.7081 -0.1213 0.6956
vn 0.6562 0.3139 0.6862
vn 0.6535 0.3138 0.6888
vn 0.6546 0.3138 0.6878
vn 0.4099 0.2783 0.8686
vn 0.4140 0.2788 0.8665
vn 0.4072 0.2779 0.8700
vn 0.4167 0.2792 0.8651
vn 0.2087 0.2345 0.9494
vn 0.2096 0.2295 0.9505
vn 0.2093 0.2319 0.9500
vn 0.2099 0.2293 0.9504
vn 0.4125 0.2639 0.8719
vn 0.3489 0.2515 0.9028
vn 0.4274 -0.1441 0.8925
vn 0.4562 -0.1467 0.8777
vn 0.4471 0.2678 0.8535
vn 0.1740 -0.1061 0.9790
vn 0.4750 -0.1504 0.8670
vn 0.6566 0.2966 0.6935
vn 0.6631 0.2967 0.6872
vn 0.6606 0.2966 0.6897
vn 0.6541 0.2965 0.6959
vn 0.6994 -0.1653 0.6953
vn 0.6572 0.3139 0.6852
vn 0.8757 0.3139 0.3669
vn 0.8751 0.3139 0.3683
vn 0.8765 0.3138 0.3649
vn 0.8826 0.2966 0.3648
vn 0.8805 0.2966 0.3698
vn 0.8791 0.2967 0.3731
vn 0.8840 0.2965 0.3615
vn 0.9570 0.2678 0.1118
vn 0.9864 -0.1441 0.0795
vn 0.9796 -0.1504 0.1330
vn 0.8996 -0.1653 0.4041
vn 0.7536 -0.3708 -0.5428
vn 0.5244 -0.7837 -0.3329
vn 0.5909 -0.7834 0.1926
vn 0.9181 -0.1622 0.3617
vn 0.6664 -0.1622 0.7277
vn 0.3915 -0.7834 0.4828
vn -0.0256 -0.4468 0.8943
vn 0.8258 -0.4468 -0.3441
vn -0.9979 0.0412 0.0500
vn -0.9673 -0.0247 -0.2525
vn -0.9742 -0.0075 0.2254
vn -0.2369 -0.3708 0.8980
vn -0.1231 -0.7837 0.6089
vn -0.3312 -0.4588 0.8245
vn -0.5434 -0.2269 0.8082
vn -0.9110 -0.0108 0.4123
vn -0.9848 -0.0401 0.1688
vn -0.6306 0.1551 -0.7605
vn -0.9770 0.1726 -0.1254
vn -0.9192 -0.0838 0.3848
vn -0.9911 0.1313 0.0209
vn -0.5919 0.1135 -0.7980
vn -0.9311 -0.3487 -0.1070
vn -0.7388 -0.3780 -0.5580
vn -0.9082 -0.3421 -0.2412
vn -0.7374 -0.3548 -0.5748
vn -0.7544 -0.3572 -0.5508
vn -0.7544 -0.3571 -0.5508
vn -0.7544 -0.3570 -0.5508
vn -0.7803 -0.3557 -0.5145
vn -0.7844 -0.3572 -0.5072
vn -0.7844 -0.3571 -0.5072
vn -0.8113 0.0904 -0.5776
vn -0.7597 -0.3557 -0.5443
vn -0.7936 0.0913 -0.6015
vn -0.8458 0.0913 -0.5256
vn -0.8298 0.0904 -0.5507
vn -0.6954 0.4684 -0.5451
vn -0.6950 0.4683 -0.5455
vn -0.6947 0.4683 -0.5460
vn -0.6957 0.4684 -0.5446
vn -0.7579 0.4684 -0.4541
vn -0.7585 0.4683 -0.4531
vn -0.7582 0.4683 -0.4536
vn -0.7576 0.4684 -0.4545
vn -0.8119 0.4630 -0.3556
vn -0.8079 0.4639 -0.3635
vn -0.8095 0.4635 -0.3603
vn -0.6831 0.1393 -0.7169
vn -0.9643 0.1152 -0.2384
vn -0.7671 0.1192 -0.6303
vn -0.7110 -0.1400 -0.6891
vn -0.9893 0.1324 -0.0607
vn -0.9174 -0.1539 -0.3669
vn -0.7521 -0.1568 -0.6402
vn -0.9826 0.1499 0.1098
vn -0.6378 0.1672 -0.7519
vn -0.6697 -0.1179 -0.7332
vn -0.9567 -0.1341 -0.2583
vn -0.6260 0.2007 -0.7536
vn -0.9813 -0.1095 -0.1582
vn -0.5212 -0.0586 -0.8514
vn -0.9458 0.1584 0.2834
vn -0.8715 0.4448 -0.2064
vn -0.2721 0.2263 -0.9353
vn -0.7582 0.4572 -0.4648
vn -0.9073 0.4160 -0.0614
vn -0.8318 0.0822 -0.5489
vn -0.7267 0.0823 -0.6820
vn -0.7295 0.0870 -0.6785
vn -0.8652 0.4475 -0.2263
vn -0.8135 0.4626 -0.3523
vn -0.7513 0.0900 -0.6538
vn -0.8078 0.0874 -0.5830
vn -0.8428 0.4565 -0.2850
vn -0.8186 -0.3475 -0.4573
vn -0.7445 -0.3509 -0.5680
vn -0.8008 -0.3519 -0.4846
vn -0.7788 -0.3475 -0.5221
vn -0.7541 -0.4042 -0.5177
vn -0.9340 -0.3573 0.0002
vn -0.7940 -0.4282 -0.4316
vn -0.6089 0.0737 -0.7898
vn -0.9270 -0.3723 0.0461
vn -0.6210 0.0061 -0.7838
vn -0.9863 0.0563 0.1550
vn -0.8359 -0.1092 0.5379
vn -0.8580 -0.0752 0.5080
vn -0.8748 -0.0994 0.4742
vn -0.9889 0.0903 0.1183
vn -0.8834 -0.0550 0.4653
vn -0.6409 -0.1702 0.7485
vn -0.7028 -0.1406 0.6974
vn -0.6963 -0.1921 0.6916
vn -0.5823 -0.2880 0.7602
vn 0.5273 -0.1382 0.8383
vn 0.0084 -0.0691 0.9976
vn 0.6338 -0.1153 0.7649
vn 0.3011 0.2700 0.9146
vn 0.0735 0.1983 0.9774
vn 0.0733 0.2053 0.9760
vn 0.0735 0.2060 0.9758
vn -0.0760 -0.0405 0.9963
vn 0.3087 0.2530 0.9169
vn 0.0017 0.1973 0.9803
vn 0.9828 -0.0731 0.1694
vn -0.0266 -0.0122 0.9996
vn 0.6859 0.3779 0.6219
vn 0.6053 0.3994 0.6885
vn 0.0999 0.0235 0.9947
vn 0.1450 0.2669 0.9528
vn 0.9662 -0.0211 0.2570
vn -0.6297 -0.1589 0.7604
vn -0.6336 -0.1395 0.7610
vn 0.8782 0.0362 0.4769
vn -0.7890 -0.1085 0.6047
vn -0.7750 -0.1238 0.6197
vn -0.6678 -0.0100 0.7442
vn -0.0819 0.0387 0.9959
vn -0.6387 -0.0078 0.7694
vn 0.3180 0.3446 0.8833
vn 0.0317 0.2434 0.9694
vn -0.6745 -0.1606 0.7206
vn -0.6291 -0.0803 0.7732
vn 0.0365 0.1908 0.9809
vn -0.6224 -0.1255 0.7726
vn -0.6704 -0.1002 0.7352
vn -0.8596 -0.2151 0.4634
vn -0.9237 -0.3654 -0.1150
vn -0.8903 -0.3938 0.2287
vn -0.8373 -0.2987 0.4579
vn -0.8390 -0.4731 -0.2688
vn -0.8926 -0.3794 -0.2436
vn -0.8073 -0.4603 -0.3692
vn -0.7949 -0.3445 -0.4995
vn -0.9119 -0.4083 0.0425
vn -0.3581 -0.2774 -0.8915
vn -0.7656 -0.3455 -0.5426
vn -0.9421 0.0462 -0.3321
vn -0.6219 0.0740 -0.7796
vn -0.8830 0.0736 -0.4635
vn -0.8357 -0.3440 -0.4282
vn -0.7828 0.1432 0.6055
vn 0.1906 0.1457 -0.9708
vn -0.9264 0.3383 0.1655
vn -0.2955 0.0467 -0.9542
vn -0.8326 0.3038 -0.4632
vn -0.9698 -0.0143 0.2435
vn -0.8443 -0.0246 -0.5353
vn -0.9935 -0.0280 0.1101
vn -0.6674 -0.0166 0.7445
vn -0.6044 0.0717 0.7934
vn -0.6051 0.0723 0.7929
vn -0.9469 0.2637 0.1838
vn -0.6136 0.0730 0.7863
vn -0.6118 0.0696 0.7880
vn -0.6175 0.0734 0.7831
vn -0.9103 0.4063 -0.0788
vn -0.9223 0.3842 0.0430
vn -0.7448 0.1155 0.6573
vn -0.2301 0.0577 -0.9715
vn -0.0560 0.2632 -0.9631
vn -0.9972 0.0622 0.0414
vn -0.8473 0.0052 0.5310
vn -0.9246 0.0084 0.3808
vn -0.1506 0.9835 -0.0997
vn -0.9967 0.0640 -0.0496
vn -0.9600 -0.0407 0.2772
vn -0.6508 0.0080 0.7592
vn -0.6503 0.0079 0.7597
vn -0.6507 0.0080 0.7593
vn -0.2454 -0.0262 0.9691
vn 0.9936 -0.0017 0.1133
vn -0.6513 0.0081 0.7588
vn -0.6262 0.0699 0.7766
vn -0.6264 0.0694 0.7764
vn -0.6254 0.0716 0.7770
vn -0.6252 0.0720 0.7772
vn 0.8523 0.0908 0.5151
vn -0.1145 -0.0009 0.9934
vn -0.0545 0.0475 0.9974
vn 0.9847 -0.1670 0.0491
vn -0.1368 -0.0792 0.9874
vn 0.9346 -0.1779 -0.3078
vn 0.7409 -0.4378 0.5093
vn 0.2886 -0.3525 0.8902
vn -0.3000 -0.1010 0.9486
vn -0.3676 -0.0530 0.9285
vn 0.8653 -0.2265 -0.4471
vn -0.3618 -0.0699 0.9296
vn -0.4609 0.0019 0.8875
vn 0.9443 -0.3104 -0.1092
vn -0.0102 -0.0510 0.9986
vn 0.7442 -0.0252 0.6675
vn -0.1237 -0.0236 0.9920
vn 0.8251 -0.3134 0.4700
vn -0.0529 0.1575 0.9861
vn 0.2854 0.2593 0.9226
vn 0.0643 0.1861 0.9804
vn 0.4097 -0.0034 0.9122
vn 0.1815 0.2183 0.9589
vn 0.3967 -0.0691 0.9153
vn 0.0667 0.1896 0.9796
vn 0.1402 -0.0703 0.9876
vn 0.0367 -0.0634 0.9973
vn 0.1196 0.2041 0.9716
vn 0.1380 0.2116 0.9676
vn -0.0005 0.1734 0.9848
vn -0.0086 -0.0652 0.9978
vn 0.1908 -0.0804 0.9783
vn 0.3092 -0.0939 0.9464
vn 0.2499 0.2423 0.9375
vn 0.0738 0.1977 0.9775
vn 0.0825 -0.0766 0.9936
vn 0.0969 -0.2893 0.9523
vn 0.1938 -0.3245 0.9258
vn 0.2050 -0.3245 0.9234
vn -0.1126 -0.0582 0.9919
vn -0.8097 0.0295 0.5861
vn -0.6126 0.0730 0.7870
vn -0.6464 -0.0171 0.7628
vn -0.9275 -0.0269 0.3728
vn -0.7723 -0.0483 -0.6334
vn -0.7843 -0.0859 -0.6144
vn 0.2653 0.3261 0.9074
vn -0.8024 -0.1171 0.5852
vn -0.9695 0.0042 0.2452
vn -0.8206 -0.0952 0.5635
vn -0.6168 -0.1589 0.7709
vn -0.6106 -0.1387 0.7797
vn -0.8714 0.0555 0.4874
vn -0.8007 -0.3548 -0.4827
vn -0.5504 -0.3421 -0.7616
vn -0.7844 -0.3570 -0.5072
vn -0.7855 -0.3780 -0.4900
vn -0.7393 -0.3519 -0.5742
vn -0.4333 -0.3487 -0.8311
vn -0.7534 -0.4042 -0.5187
vn -0.7969 -0.3509 -0.4917
vn -0.3343 -0.3573 -0.8721
vn -0.6873 -0.4282 -0.5868
vn -0.7201 -0.3475 -0.6006
vn -0.7664 -0.3475 -0.5402
vn -0.2889 -0.3723 -0.8820
vn -0.6338 -0.4603 -0.6216
vn -0.7510 -0.3445 -0.5633
vn -0.6990 -0.3440 -0.6269
vn -0.7808 -0.3455 -0.5206
vn -0.7489 0.0736 -0.6585
vn -0.6474 0.0462 -0.7607
vn -0.9506 0.0740 -0.3015
vn -0.9967 0.0467 0.0658
vn -0.2530 -0.0280 -0.9671
vn -0.9606 -0.2774 -0.0152
vn -0.4381 -0.3654 -0.8213
vn 0.1249 -0.2151 -0.9686
vn -0.8022 -0.0246 -0.5966
vn -0.5471 -0.3794 -0.7462
vn -0.1199 -0.0143 -0.9927
vn 0.4562 -0.0166 -0.8897
vn 0.4808 -0.0171 -0.8767
vn 0.4463 -0.1002 -0.8892
vn 0.9018 0.1575 -0.4025
vn 0.9984 -0.0034 0.0559
vn 0.4966 -0.0802 -0.8642
vn 0.9290 0.1908 -0.3172
vn 0.9637 0.2593 -0.0639
vn 0.9422 0.3260 -0.0772
vn 0.9386 0.3446 -0.0193
vn 0.9165 0.2434 -0.3175
vn 0.9005 0.0387 -0.4331
vn 0.4558 -0.0100 -0.8900
vn 0.4897 -0.0078 -0.8718
vn 0.4312 -0.1606 -0.8878
vn 0.4985 -0.1255 -0.8578
vn -0.1053 -0.3938 -0.9131
vn -0.8545 -0.0859 -0.5123
vn 0.1278 -0.2987 -0.9458
vn -0.2869 -0.4083 -0.8666
vn -0.8679 -0.0483 -0.4943
vn -0.5514 -0.4731 -0.6871
vn 0.0160 -0.0269 -0.9995
vn 0.2821 -0.1085 -0.9532
vn 0.3011 -0.1238 -0.9455
vn 0.2591 -0.1171 -0.9587
vn -0.1182 0.0042 -0.9930
vn -0.9542 0.0061 -0.2991
vn -0.2084 0.0563 -0.9764
vn 0.2029 -0.1092 -0.9731
vn 0.2323 -0.0952 -0.9680
vn 0.1671 -0.0752 -0.9831
vn 0.3995 -0.1406 -0.9059
vn 0.5094 -0.1387 -0.8493
vn 0.4989 -0.1589 -0.8520
vn 0.5101 -0.0731 0.8570
vn 0.9238 -0.0122 -0.3827
vn 0.5859 -0.0211 0.8101
vn 0.4845 -0.1589 -0.8602
vn 0.8262 0.3779 0.4178
vn 0.9415 0.2669 -0.2057
vn 0.8596 0.3994 0.3186
vn 0.9645 0.0235 -0.2629
vn 0.9385 0.1896 -0.2885
vn 0.9500 0.2041 -0.2363
vn 0.9194 0.1734 -0.3531
vn 0.9159 0.1973 -0.3495
vn 0.9617 0.2700 -0.0464
vn 0.9390 0.1983 -0.2811
vn 0.9374 0.2060 -0.2807
vn 0.9375 0.2054 -0.2808
vn 0.9391 0.1977 -0.2811
vn 0.9528 0.2116 -0.2176
vn 0.9648 0.2423 -0.1023
vn 0.9612 0.2345 -0.1451
vn 0.9619 0.2319 -0.1447
vn 0.9625 0.2294 -0.1444
vn 0.9626 0.2293 -0.1443
vn 0.9666 0.2530 -0.0401
vn 0.9679 0.2515 0.0025
vn 0.9764 -0.1061 -0.1881
vn 0.9716 -0.1382 0.1922
vn 0.9345 -0.0691 -0.3493
vn 0.5013 -0.2880 -0.8160
vn 0.4694 -0.1702 -0.8664
vn 0.9411 -0.1153 0.3179
vn 0.3964 -0.1921 -0.8978
vn 0.5601 -0.2269 -0.7968
vn 0.0588 -0.0108 -0.9982
vn 0.0301 -0.0838 -0.9960
vn 0.1181 -0.0550 -0.9915
vn -0.9570 0.1135 -0.2669
vn -0.3353 0.1313 -0.9329
vn -0.2437 0.0903 -0.9656
vn 0.1295 -0.0994 -0.9866
vn -0.1950 -0.0401 -0.9800
vn -0.4669 0.1726 -0.8673
vn -0.9358 0.1551 -0.3164
vn -0.1384 -0.0075 -0.9904
vn -0.5821 -0.0247 -0.8127
vn -0.8692 0.1920 -0.4556
vn -0.6820 0.2025 -0.7027
vn -0.9003 0.2025 -0.3852
vn -0.6964 -0.3455 -0.6290
vn -0.7366 0.1920 -0.6485
vn -0.8367 -0.3455 -0.4250
vn 0.6512 -0.4588 -0.6045
vn 0.9829 -0.1467 0.1117
vn 0.9618 0.2639 0.0729
vn 0.9578 0.2783 0.0717
vn 0.9582 0.2779 0.0687
vn 0.9573 0.2788 0.0763
vn 0.9569 0.2792 0.0793
vn 0.9835 -0.1090 0.1442
vn 0.9903 -0.1081 0.0870
vn 0.9031 -0.1213 0.4120
vn 0.8771 0.3138 0.3636
vn 0.9030 -0.0405 -0.4277
vn 0.7598 0.0362 0.6492
vn 0.4836 -0.1395 -0.8641
vn -0.9555 0.0737 -0.2857
vn 0.9384 0.1861 -0.2911
vn 0.9603 0.2183 -0.1739
vn 0.9967 -0.0691 0.0427
vn 0.8897 -0.0252 0.4558
vn 0.9288 -0.0510 -0.3671
vn 0.5353 -0.3287 0.7781
vn 0.1703 0.2029 -0.9643
vn 0.2362 -0.3104 0.9208
vn 0.8820 -0.0236 -0.4707
vn -0.0210 0.2685 -0.9631
vn -0.0774 0.2600 -0.9625
vn 0.3381 0.0875 -0.9370
vn 0.5365 0.0904 -0.8390
vn 0.4744 0.0066 -0.8803
vn 0.5398 -0.3658 0.7581
vn 0.9451 0.0111 -0.3265
vn 0.5027 0.0591 -0.8624
vn -0.3889 0.3475 -0.8532
vn -0.3244 0.0828 -0.9423
vn -0.4041 0.0796 -0.9112
vn 0.4668 0.0622 -0.8822
vn -0.1470 0.9836 -0.1049
vn -0.9751 0.0410 -0.2178
vn -0.0849 -0.0407 -0.9956
vn 0.0244 0.0084 -0.9997
vn 0.1924 0.0052 -0.9813
vn 0.5155 0.0730 -0.8538
vn 0.5009 0.0699 -0.8627
vn 0.5018 0.0720 -0.8620
vn 0.5016 0.0716 -0.8621
vn 0.5007 0.0694 -0.8628
vn 0.2572 0.0295 -0.9659
vn -0.8796 0.2631 0.3963
vn -0.1670 0.2496 -0.9538
vn -0.1975 0.2936 -0.9353
vn -0.2094 0.3052 -0.9290
vn 0.2011 -0.3448 0.9169
vn 0.4448 0.1237 -0.8870
vn -0.7669 0.3253 -0.5533
vn 0.5336 0.0050 0.8457
vn -0.1771 0.3383 -0.9242
vn -0.3106 0.0412 -0.9496
vn 0.9118 -0.1216 0.3923
vn 0.6927 -0.1216 0.7109
vn 0.3942 -0.3863 0.8339
vn 0.6172 -0.4300 0.6589
vn -0.9862 0.1262 0.1072
vn -0.8798 -0.1661 -0.4453
vn -0.9741 0.0608 0.2176
vn -0.1742 0.2898 0.9411
vn -0.0838 0.7203 0.6886
vn 0.9556 0.0967 -0.2784
vn -0.0307 0.1142 -0.9930
vt 0.000000 0.000000
s 1
f 4/1/1 1/1/1 2/1/1
f 2/1/2 1/1/2 3/1/3
f 6/1/4 3/1/5 1/1/4
f 4/1/6 7/1/6 1/1/6
f 5/1/7 1/1/7 7/1/7
f 5/1/8 6/1/8 1/1/8
f 8/1/9 7/1/9 4/1/9
f 8/1/10 5/1/10 7/1/10
f 8/1/11 9/1/11 5/1/11
f 9/1/12 8/1/12 11/1/12
f 8/1/13 4/1/13 10/1/13
f 10/1/14 11/1/14 8/1/14
f 9/1/15 11/1/15 12/1/15
f 10/1/16 14/1/16 11/1/16
f 12/1/17 11/1/17 13/1/17
f 14/1/18 13/1/18 11/1/18
f 15/1/19 17/1/19 14/1/19
f 15/1/20 14/1/20 10/1/20
f 17/1/21 16/1/21 14/1/21
f 14/1/22 16/1/22 13/1/22
f 17/1/23 20/1/23 16/1/23
f 18/1/24 17/1/24 15/1/24
f 18/1/25 19/1/25 17/1/25
f 19/1/26 20/1/26 17/1/26
f 19/1/27 21/1/27 20/1/27
f 21/1/28 23/1/28 20/1/28
f 20/1/29 22/1/30 16/1/31
f 20/1/29 23/1/32 22/1/30
f 23/1/33 24/1/33 22/1/33
f 23/1/34 25/1/34 24/1/34
f 21/1/35 26/1/35 23/1/35
f 26/1/36 25/1/36 23/1/36
f 29/1/37 26/1/37 21/1/37
f 26/1/38 27/1/38 25/1/38
f 28/1/39 27/1/39 26/1/39
f 29/1/40 28/1/40 26/1/40
f 31/1/41 30/1/41 29/1/41
f 30/1/42 28/1/42 29/1/42
f 31/1/43 29/1/43 32/1/43
f 32/1/44 29/1/44 21/1/44
f 33/1/45 31/1/45 32/1/45
f 33/1/46 32/1/46 34/1/46
f 34/1/47 32/1/47 19/1/47
f 32/1/48 21/1/48 19/1/48
f 34/1/49 35/1/50 33/1/51
f 34/1/49 36/1/52 35/1/50
f 18/1/53 36/1/54 34/1/55
f 34/1/56 19/1/56 18/1/56
f 18/1/53 37/1/57 36/1/54
f 37/1/58 38/1/58 36/1/58
f 36/1/59 38/1/59 39/1/59
f 36/1/60 39/1/60 35/1/60
f 39/1/61 38/1/61 40/1/61
f 39/1/62 40/1/62 42/1/62
f 35/1/63 39/1/63 41/1/63
f 41/1/64 39/1/64 42/1/64
f 42/1/65 40/1/65 43/1/65
f 42/1/66 43/1/66 44/1/66
f 45/1/67 42/1/67 44/1/67
f 41/1/68 42/1/68 45/1/68
f 46/1/69 41/1/69 45/1/69
f 46/1/70 45/1/70 47/1/70
f 47/1/71 45/1/71 48/1/71
f 45/1/72 44/1/72 48/1/72
f 47/1/73 48/1/74 49/1/75
f 49/1/75 48/1/74 50/1/76
f 48/1/77 51/1/77 50/1/77
f 48/1/78 44/1/78 51/1/78
f 51/1/79 53/1/79 52/1/79
f 50/1/80 51/1/80 52/1/80
f 51/1/81 54/1/81 53/1/81
f 44/1/82 54/1/82 51/1/82
f 54/1/83 55/1/83 53/1/83
f 54/1/84 56/1/84 55/1/84
f 43/1/85 56/1/85 54/1/85
f 44/1/86 43/1/86 54/1/86
f 59/1/87 57/1/88 56/1/89
f 56/1/90 57/1/90 58/1/90
f 56/1/91 58/1/91 55/1/91
f 43/1/92 59/1/92 56/1/92
f 40/1/93 59/1/93 43/1/93
f 40/1/94 60/1/94 59/1/94
f 60/1/95 61/1/95 59/1/95
f 59/1/87 61/1/96 57/1/88
f 60/1/97 62/1/97 61/1/97
f 62/1/98 64/1/98 61/1/98
f 61/1/99 63/1/100 57/1/101
f 61/1/99 64/1/102 63/1/100
f 64/1/103 65/1/104 63/1/105
f 64/1/103 66/1/106 65/1/104
f 67/1/107 66/1/108 64/1/109
f 62/1/110 67/1/110 64/1/110
f 67/1/107 3/1/111 66/1/108
f 68/1/112 67/1/112 62/1/112
f 68/1/113 2/1/113 67/1/113
f 2/1/2 3/1/3 67/1/3
f 70/1/114 68/1/114 69/1/114
f 69/1/115 68/1/115 62/1/115
f 70/1/116 2/1/116 68/1/116
f 15/1/117 70/1/117 37/1/117
f 10/1/118 70/1/118 15/1/118
f 70/1/119 4/1/119 2/1/119
f 10/1/120 4/1/120 70/1/120
f 70/1/121 69/1/121 37/1/121
f 38/1/122 69/1/123 60/1/124
f 37/1/125 69/1/125 38/1/125
f 69/1/123 62/1/126 60/1/124
f 71/1/127 65/1/128 66/1/129
f 72/1/130 71/1/131 66/1/132
f 72/1/130 66/1/132 3/1/133
f 74/1/134 71/1/134 72/1/134
f 6/1/4 72/1/135 3/1/5
f 73/1/136 72/1/136 6/1/136
f 73/1/137 74/1/137 72/1/137
f 76/1/138 75/1/138 74/1/138
f 74/1/139 75/1/139 71/1/139
f 77/1/140 76/1/141 74/1/142
f 77/1/143 74/1/143 73/1/143
f 79/1/144 76/1/141 77/1/140
f 78/1/145 77/1/145 73/1/145
f 78/1/146 80/1/146 77/1/146
f 80/1/147 79/1/147 77/1/147
f 82/1/148 80/1/148 78/1/148
f 80/1/149 83/1/149 79/1/149
f 82/1/150 81/1/150 80/1/150
f 81/1/151 83/1/152 80/1/153
f 81/1/151 84/1/154 83/1/152
f 84/1/155 85/1/156 83/1/157
f 83/1/158 85/1/158 86/1/158
f 83/1/159 86/1/159 79/1/159
f 85/1/160 87/1/160 86/1/160
f 87/1/161 88/1/161 86/1/161
f 86/1/162 88/1/162 89/1/162
f 86/1/163 89/1/163 79/1/163
f 89/1/164 90/1/164 91/1/164
f 88/1/165 90/1/165 89/1/165
f 89/1/166 91/1/166 76/1/166
f 79/1/167 89/1/167 76/1/167
f 90/1/168 92/1/168 91/1/168
f 91/1/169 92/1/170 93/1/171
f 91/1/169 93/1/171 75/1/172
f 76/1/173 91/1/173 75/1/173
f 93/1/174 96/1/174 94/1/174
f 75/1/175 93/1/176 94/1/177
f 92/1/178 95/1/178 93/1/178
f 93/1/179 95/1/179 96/1/179
f 94/1/180 96/1/180 97/1/180
f 97/1/181 96/1/182 98/1/183
f 96/1/184 99/1/185 98/1/186
f 96/1/184 95/1/187 99/1/185
f 95/1/188 100/1/189 99/1/190
f 99/1/190 100/1/189 101/1/191
f 98/1/192 99/1/192 102/1/192
f 99/1/193 101/1/193 102/1/193
f 105/1/194 102/1/194 103/1/194
f 102/1/195 104/1/195 103/1/195
f 98/1/196 102/1/196 105/1/196
f 102/1/197 101/1/197 104/1/197
f 105/1/198 103/1/198 107/1/198
f 108/1/199 98/1/200 105/1/201
f 108/1/199 105/1/201 106/1/202
f 106/1/203 105/1/203 107/1/203
f 97/1/181 98/1/183 108/1/204
f 97/1/205 108/1/206 109/1/207
f 108/1/208 110/1/209 109/1/210
f 108/1/208 106/1/211 110/1/209
f 109/1/212 110/1/212 111/1/212
f 110/1/213 112/1/213 111/1/213
f 110/1/214 113/1/214 112/1/214
f 106/1/215 113/1/215 110/1/215
f 113/1/216 115/1/216 114/1/216
f 113/1/217 114/1/217 112/1/217
f 116/1/218 115/1/218 113/1/218
f 106/1/219 116/1/219 113/1/219
f 106/1/220 107/1/220 116/1/220
f 116/1/221 107/1/221 118/1/221
f 116/1/222 118/1/222 117/1/222
f 116/1/223 117/1/223 115/1/223
f 118/1/224 119/1/224 117/1/224
f 118/1/225 120/1/225 119/1/225
f 121/1/226 120/1/226 118/1/226
f 107/1/227 121/1/227 118/1/227
f 107/1/228 103/1/228 121/1/228
f 104/1/229 121/1/229 103/1/229
f 104/1/230 122/1/230 121/1/230
f 122/1/231 123/1/231 121/1/231
f 121/1/232 123/1/232 120/1/232
f 124/1/233 123/1/233 126/1/233
f 124/1/234 120/1/234 123/1/234
f 122/1/235 125/1/235 123/1/235
f 126/1/236 123/1/236 125/1/236
f 126/1/237 125/1/237 127/1/237
f 128/1/238 126/1/238 127/1/238
f 129/1/239 126/1/239 128/1/239
f 129/1/240 124/1/240 126/1/240
f 131/1/241 129/1/241 128/1/241
f 132/1/242 130/1/243 129/1/243
f 130/1/243 124/1/244 129/1/243
f 132/1/245 129/1/245 131/1/245
f 132/1/246 133/1/247 130/1/247
f 134/1/248 132/1/248 131/1/248
f 132/1/249 24/1/249 133/1/249
f 134/1/250 135/1/250 132/1/250
f 22/1/251 132/1/251 135/1/251
f 22/1/252 24/1/252 132/1/252
f 16/1/253 135/1/254 13/1/255
f 16/1/253 22/1/256 135/1/254
f 136/1/257 13/1/258 135/1/259
f 136/1/257 135/1/259 134/1/260
f 137/1/261 136/1/262 134/1/263
f 138/1/264 136/1/264 137/1/264
f 138/1/265 12/1/265 136/1/265
f 12/1/266 13/1/266 136/1/266
f 81/1/267 138/1/267 139/1/267
f 139/1/268 138/1/268 137/1/268
f 81/1/269 82/1/269 138/1/269
f 82/1/270 12/1/270 138/1/270
f 141/1/271 139/1/271 140/1/271
f 139/1/272 137/1/272 140/1/272
f 84/1/273 139/1/273 141/1/273
f 84/1/274 81/1/274 139/1/274
f 141/1/275 140/1/275 144/1/275
f 142/1/276 84/1/276 141/1/276
f 142/1/277 141/1/277 143/1/277
f 143/1/278 141/1/278 144/1/278
f 144/1/279 140/1/279 147/1/279
f 143/1/280 144/1/280 145/1/280
f 145/1/281 144/1/281 146/1/281
f 144/1/282 147/1/282 146/1/282
f 147/1/283 149/1/283 148/1/283
f 146/1/284 147/1/284 148/1/284
f 147/1/285 150/1/285 149/1/285
f 140/1/286 150/1/286 147/1/286
f 137/1/261 134/1/263 150/1/287
f 150/1/288 134/1/288 131/1/288
f 150/1/289 131/1/289 149/1/289
f 140/1/290 137/1/290 150/1/290
f 149/1/291 151/1/291 148/1/291
f 149/1/292 128/1/292 151/1/292
f 131/1/293 128/1/293 149/1/293
f 148/1/294 151/1/294 152/1/294
f 128/1/295 127/1/295 151/1/295
f 151/1/296 127/1/296 153/1/296
f 151/1/297 153/1/297 152/1/297
f 127/1/298 156/1/298 153/1/298
f 152/1/299 153/1/299 154/1/299
f 153/1/300 155/1/300 154/1/300
f 153/1/301 156/1/301 155/1/301
f 157/1/302 155/1/302 156/1/302
f 157/1/303 156/1/303 158/1/303
f 158/1/304 156/1/304 125/1/304
f 127/1/305 125/1/305 156/1/305
f 158/1/306 125/1/306 122/1/306
f 160/1/307 158/1/307 122/1/307
f 159/1/308 157/1/308 158/1/308
f 159/1/309 158/1/309 160/1/309
f 160/1/310 122/1/310 104/1/310
f 101/1/311 160/1/311 104/1/311
f 101/1/312 161/1/312 160/1/312
f 161/1/313 159/1/313 160/1/313
f 162/1/314 163/1/314 161/1/314
f 100/1/315 162/1/316 161/1/317
f 161/1/318 163/1/318 159/1/318
f 100/1/319 161/1/319 101/1/319
f 162/1/320 165/1/320 163/1/320
f 163/1/321 164/1/321 159/1/321
f 163/1/322 166/1/322 164/1/322
f 165/1/323 166/1/323 163/1/323
f 168/1/324 167/1/324 166/1/324
f 166/1/325 167/1/325 169/1/325
f 165/1/326 168/1/326 166/1/326
f 166/1/327 169/1/327 164/1/327
f 169/1/328 170/1/328 164/1/328
f 169/1/329 171/1/329 170/1/329
f 167/1/330 171/1/330 169/1/330
f 171/1/331 172/1/331 170/1/331
f 171/1/332 173/1/332 172/1/332
f 174/1/333 173/1/333 171/1/333
f 167/1/334 174/1/334 171/1/334
f 174/1/335 176/1/335 173/1/335
f 175/1/336 174/1/336 167/1/336
f 175/1/337 177/1/337 174/1/337
f 177/1/338 176/1/338 174/1/338
f 178/1/339 179/1/339 177/1/339
f 178/1/340 177/1/340 175/1/340
f 177/1/341 179/1/341 176/1/341
f 178/1/342 180/1/342 179/1/342
f 181/1/343 179/1/343 180/1/343
f 181/1/344 182/1/344 179/1/344
f 182/1/345 176/1/345 179/1/345
f 182/1/346 183/1/346 176/1/346
f 184/1/347 183/1/347 182/1/347
f 181/1/348 184/1/348 182/1/348
f 152/1/349 154/1/349 184/1/349
f 186/1/350 152/1/350 184/1/350
f 184/1/351 154/1/351 183/1/351
f 181/1/352 185/1/352 184/1/352
f 186/1/353 184/1/353 185/1/353
f 187/1/354 186/1/354 185/1/354
f 187/1/355 146/1/355 186/1/355
f 146/1/356 148/1/356 186/1/356
f 148/1/357 152/1/357 186/1/357
f 188/1/358 187/1/358 189/1/358
f 188/1/359 145/1/359 187/1/359
f 145/1/360 146/1/360 187/1/360
f 189/1/361 187/1/361 185/1/361
f 188/1/362 189/1/362 190/1/362
f 189/1/363 180/1/363 190/1/363
f 189/1/364 181/1/364 180/1/364
f 189/1/365 185/1/365 181/1/365
f 191/1/366 190/1/366 180/1/366
f 192/1/367 190/1/368 191/1/368
f 188/1/369 190/1/369 193/1/369
f 192/1/367 193/1/370 190/1/368
f 194/1/371 193/1/370 192/1/367
f 194/1/371 195/1/372 193/1/370
f 196/1/373 193/1/373 195/1/373
f 196/1/374 188/1/374 193/1/374
f 196/1/375 143/1/375 145/1/375
f 197/1/376 143/1/376 196/1/376
f 196/1/377 145/1/377 188/1/377
f 197/1/378 196/1/378 195/1/378
f 142/1/379 197/1/379 198/1/379
f 197/1/380 199/1/380 198/1/380
f 197/1/381 200/1/381 199/1/381
f 197/1/382 195/1/382 200/1/382
f 197/1/383 142/1/383 143/1/383
f 199/1/384 200/1/385 195/1/386
f 199/1/387 194/1/387 201/1/387
f 199/1/388 201/1/388 202/1/388
f 199/1/384 195/1/386 194/1/389
f 198/1/390 199/1/391 202/1/392
f 198/1/390 202/1/392 87/1/393
f 202/1/394 203/1/394 87/1/394
f 202/1/395 201/1/395 203/1/395
f 87/1/396 203/1/396 88/1/396
f 203/1/397 204/1/397 88/1/397
f 203/1/398 205/1/398 204/1/398
f 201/1/399 205/1/399 203/1/399
f 205/1/400 207/1/400 206/1/400
f 205/1/401 206/1/401 204/1/401
f 208/1/402 207/1/402 205/1/402
f 201/1/403 208/1/403 205/1/403
f 194/1/404 208/1/404 201/1/404
f 194/1/405 192/1/405 208/1/405
f 192/1/406 209/1/406 208/1/406
f 208/1/407 209/1/407 207/1/407
f 209/1/408 210/1/408 207/1/408
f 209/1/409 211/1/409 210/1/409
f 191/1/410 211/1/410 209/1/410
f 192/1/411 191/1/411 209/1/411
f 178/1/412 175/1/412 211/1/412
f 211/1/413 175/1/413 168/1/413
f 211/1/414 168/1/414 210/1/414
f 191/1/415 178/1/415 211/1/415
f 212/1/416 210/1/416 168/1/416
f 207/1/417 210/1/417 212/1/417
f 213/1/418 212/1/418 165/1/418
f 206/1/419 212/1/419 213/1/419
f 207/1/420 212/1/420 206/1/420
f 212/1/421 168/1/421 165/1/421
f 215/1/422 213/1/422 162/1/422
f 213/1/423 165/1/423 162/1/423
f 206/1/424 213/1/424 214/1/424
f 214/1/425 213/1/425 215/1/425
f 92/1/426 215/1/426 95/1/426
f 95/1/427 215/1/427 100/1/427
f 215/1/428 162/1/316 100/1/315
f 214/1/429 215/1/429 92/1/429
f 204/1/430 214/1/430 90/1/430
f 90/1/431 214/1/431 92/1/431
f 204/1/432 206/1/432 214/1/432
f 88/1/433 204/1/433 90/1/433
f 142/1/434 198/1/434 85/1/434
f 85/1/435 198/1/435 87/1/435
f 191/1/436 180/1/436 178/1/436
f 183/1/437 172/1/437 173/1/437
f 154/1/438 172/1/438 183/1/438
f 183/1/439 173/1/439 176/1/439
f 168/1/440 175/1/440 167/1/440
f 170/1/441 172/1/441 155/1/441
f 154/1/442 155/1/442 172/1/442
f 170/1/443 155/1/443 157/1/443
f 164/1/444 170/1/444 157/1/444
f 164/1/445 157/1/445 159/1/445
f 84/1/155 142/1/446 85/1/156
f 24/1/447 218/1/447 133/1/447
f 133/1/448 217/1/448 216/1/448
f 130/1/247 133/1/247 216/1/449
f 133/1/450 218/1/450 217/1/450
f 24/1/451 25/1/451 218/1/451
f 218/1/452 219/1/452 217/1/452
f 218/1/453 220/1/453 219/1/453
f 25/1/454 220/1/454 218/1/454
f 220/1/455 221/1/455 219/1/455
f 220/1/456 222/1/456 221/1/456
f 25/1/457 27/1/457 220/1/457
f 27/1/458 222/1/458 220/1/458
f 222/1/459 223/1/459 221/1/459
f 222/1/460 224/1/460 223/1/460
f 225/1/461 224/1/461 222/1/461
f 27/1/462 225/1/462 222/1/462
f 225/1/463 227/1/463 224/1/463
f 28/1/464 225/1/464 27/1/464
f 226/1/465 227/1/465 225/1/465
f 226/1/466 225/1/466 28/1/466
f 228/1/467 227/1/467 226/1/467
f 228/1/468 229/1/468 227/1/468
f 229/1/469 224/1/469 227/1/469
f 229/1/470 230/1/470 231/1/470
f 229/1/471 232/1/471 230/1/471
f 228/1/472 232/1/472 229/1/472
f 229/1/473 231/1/473 224/1/473
f 228/1/474 233/1/474 232/1/474
f 234/1/475 232/1/475 233/1/475
f 234/1/476 235/1/476 232/1/476
f 235/1/477 230/1/477 232/1/477
f 235/1/478 236/1/478 238/1/478
f 234/1/479 236/1/479 235/1/479
f 235/1/480 237/1/480 230/1/480
f 235/1/481 238/1/481 237/1/481
f 236/1/482 239/1/482 238/1/482
f 239/1/483 240/1/483 238/1/483
f 238/1/484 240/1/484 241/1/484
f 238/1/485 241/1/485 237/1/485
f 240/1/486 242/1/486 241/1/486
f 241/1/487 242/1/487 243/1/487
f 241/1/488 243/1/488 244/1/488
f 237/1/489 241/1/489 244/1/489
f 237/1/490 244/1/490 230/1/490
f 231/1/491 230/1/491 244/1/491
f 245/1/492 244/1/492 243/1/492
f 231/1/493 244/1/493 245/1/493
f 224/1/494 245/1/494 223/1/494
f 223/1/495 245/1/495 246/1/495
f 224/1/496 231/1/496 245/1/496
f 245/1/497 243/1/497 246/1/497
f 242/1/498 247/1/498 246/1/498
f 242/1/499 246/1/499 243/1/499
f 247/1/500 248/1/500 246/1/500
f 223/1/501 246/1/501 248/1/501
f 221/1/502 223/1/502 248/1/502
f 221/1/503 248/1/503 249/1/503
f 250/1/504 249/1/504 248/1/504
f 247/1/505 250/1/505 248/1/505
f 250/1/506 251/1/506 249/1/506
f 252/1/507 251/1/507 250/1/507
f 253/1/508 252/1/508 250/1/508
f 253/1/509 250/1/509 247/1/509
f 254/1/510 252/1/510 253/1/510
f 254/1/511 253/1/511 256/1/511
f 256/1/512 253/1/512 255/1/512
f 255/1/513 253/1/513 247/1/513
f 257/1/514 254/1/514 256/1/514
f 257/1/515 256/1/515 239/1/515
f 239/1/516 256/1/516 240/1/516
f 256/1/517 255/1/517 240/1/517
f 53/1/518 257/1/518 52/1/518
f 52/1/519 257/1/519 239/1/519
f 53/1/520 258/1/520 257/1/520
f 258/1/521 254/1/521 257/1/521
f 258/1/522 259/1/522 254/1/522
f 260/1/523 259/1/524 258/1/525
f 55/1/526 260/1/523 258/1/525
f 55/1/527 258/1/527 53/1/527
f 58/1/528 260/1/528 55/1/528
f 58/1/529 261/1/530 260/1/531
f 261/1/530 262/1/532 260/1/531
f 260/1/533 262/1/533 259/1/533
f 261/1/534 111/1/534 262/1/534
f 111/1/535 263/1/535 262/1/535
f 262/1/536 263/1/536 264/1/536
f 262/1/537 264/1/537 259/1/537
f 264/1/538 263/1/538 265/1/538
f 264/1/539 265/1/539 251/1/539
f 259/1/540 264/1/540 252/1/540
f 252/1/541 264/1/541 251/1/541
f 263/1/542 114/1/542 265/1/542
f 265/1/543 114/1/543 266/1/543
f 265/1/544 266/1/544 267/1/544
f 251/1/545 265/1/545 267/1/545
f 217/1/546 219/1/546 267/1/546
f 217/1/547 267/1/547 266/1/547
f 219/1/548 249/1/548 267/1/548
f 251/1/549 267/1/549 249/1/549
f 114/1/550 268/1/550 266/1/550
f 216/1/551 266/1/551 268/1/551
f 216/1/552 217/1/552 266/1/552
f 114/1/553 115/1/553 268/1/553
f 115/1/554 119/1/554 268/1/554
f 269/1/555 216/1/555 268/1/555
f 269/1/556 268/1/556 119/1/556
f 269/1/557 119/1/557 120/1/557
f 130/1/558 216/1/558 269/1/558
f 269/1/559 120/1/559 124/1/559
f 130/1/560 269/1/560 124/1/560
f 263/1/561 112/1/561 114/1/561
f 111/1/562 112/1/562 263/1/562
f 109/1/563 111/1/563 261/1/563
f 270/1/564 109/1/565 261/1/566
f 270/1/564 261/1/566 58/1/567
f 57/1/568 270/1/568 58/1/568
f 57/1/569 63/1/569 270/1/569
f 63/1/570 97/1/570 270/1/570
f 97/1/205 109/1/207 270/1/571
f 259/1/572 252/1/572 254/1/572
f 240/1/573 255/1/573 242/1/573
f 255/1/574 247/1/574 242/1/574
f 219/1/575 221/1/575 249/1/575
f 236/1/576 271/1/576 239/1/576
f 52/1/577 239/1/577 271/1/577
f 50/1/578 52/1/578 271/1/578
f 272/1/579 271/1/579 236/1/579
f 272/1/580 50/1/580 271/1/580
f 273/1/581 272/1/581 234/1/581
f 273/1/582 49/1/582 272/1/582
f 49/1/583 50/1/583 272/1/583
f 234/1/584 272/1/584 236/1/584
f 273/1/585 233/1/585 274/1/585
f 275/1/586 273/1/586 274/1/586
f 275/1/587 49/1/587 273/1/587
f 273/1/588 234/1/588 233/1/588
f 275/1/589 274/1/589 277/1/589
f 275/1/590 47/1/590 49/1/590
f 276/1/591 47/1/591 275/1/591
f 276/1/592 275/1/592 277/1/592
f 278/1/593 277/1/593 274/1/593
f 279/1/594 277/1/594 278/1/594
f 279/1/595 280/1/595 277/1/595
f 276/1/596 277/1/596 280/1/596
f 279/1/597 276/1/597 280/1/597
f 279/1/598 278/1/598 31/1/598
f 279/1/599 31/1/599 33/1/599
f 279/1/600 281/1/600 276/1/600
f 33/1/601 281/1/601 279/1/601
f 35/1/602 41/1/602 281/1/602
f 281/1/603 41/1/604 46/1/605
f 281/1/603 46/1/605 276/1/606
f 33/1/607 35/1/607 281/1/607
f 278/1/608 282/1/608 30/1/608
f 278/1/609 30/1/609 31/1/609
f 278/1/610 274/1/610 282/1/610
f 282/1/611 274/1/611 233/1/611
f 282/1/612 226/1/612 30/1/612
f 282/1/613 228/1/613 226/1/613
f 282/1/614 233/1/614 228/1/614
f 276/1/615 46/1/615 47/1/615
f 30/1/616 226/1/616 28/1/616
f 115/1/617 117/1/617 119/1/617
f 63/1/618 65/1/618 97/1/618
f 94/1/619 97/1/619 65/1/619
f 75/1/175 94/1/177 71/1/620
f 71/1/127 94/1/621 65/1/128
f 9/1/622 82/1/622 78/1/622
f 82/1/623 9/1/623 12/1/623
f 9/1/624 78/1/624 5/1/624
f 78/1/625 6/1/625 5/1/625
f 78/1/626 73/1/626 6/1/626
f 38/1/627 60/1/627 40/1/627
f 15/1/628 37/1/628 18/1/628
