# Blender 5.2.2 LTS
# www.blender.org
mtllib finalBossHand_1.mtl
o 立方体.005
v 10.368423 -13.721701 -2.831229
v 10.844214 -14.172050 -2.514993
v 10.316493 -13.753580 -2.722193
v 11.002226 -14.067396 -2.741859
v 11.166664 -14.516724 -2.642006
v 10.447687 -13.666689 -2.910555
v 8.945277 -11.102720 -2.614290
v 9.026710 -11.051783 -2.693985
v 8.065101 -7.952435 -1.774083
v 8.895517 -11.138676 -2.505623
v 10.262418 -13.720449 -2.590808
v 8.019498 -8.000362 -1.668043
v 8.857709 -11.126810 -2.372718
v 10.167520 -13.571135 -2.446312
v 8.007439 -8.030041 -1.536369
v 8.804847 -11.026806 -2.221693
v 8.018617 -8.007853 -1.376636
v 8.721327 -10.814260 -2.057604
v 10.020911 -13.299677 -2.298989
v 10.224432 -13.352449 -2.238255
v 9.941982 -12.919350 -2.110611
v 9.839376 -12.948427 -2.161456
v 9.577401 -12.341867 -1.968475
v 8.619976 -10.518703 -1.889915
v 9.541734 -12.417427 -2.029138
v 9.127771 -11.572489 -1.823348
v 8.453806 -10.057703 -1.698320
v 9.083470 -11.561327 -1.842299
v 8.838480 -11.038374 -1.710782
v 8.239843 -9.286783 -1.380620
v 8.090191 -7.532415 -0.786645
v 8.205408 -6.768995 -0.243134
v 8.176353 -8.845221 -1.160235
v 8.225389 -8.861950 -1.140974
v 8.279375 -6.259438 0.104354
v 8.328380 -6.290014 0.117207
v 8.114827 -3.438133 1.582030
v 8.272964 -8.821568 -1.152271
v 8.388431 -6.179410 0.146993
v 8.138542 -3.241487 1.606232
v 8.328699 -7.347605 -0.555261
v 8.445705 -4.202664 1.216463
v 6.922338 0.297110 2.231217
v 8.628434 -4.586550 0.947029
v 7.078209 0.266115 2.105868
v 5.338690 2.337259 2.009164
v 5.349971 2.499006 1.885296
v 7.153703 0.314071 2.021233
v 5.352787 2.619241 1.793016
v 8.731229 -4.720216 0.797624
v 7.225976 0.384821 1.918589
v 5.359788 2.744451 1.681253
v 8.832390 -4.813201 0.639569
v 7.301562 0.464546 1.800243
v 5.385470 2.858769 1.556667
v 8.931801 -4.855951 0.481319
v 7.387868 0.535941 1.669964
v 9.115021 -4.734600 0.218259
v 7.484782 0.585897 1.537183
v 5.557615 2.972785 1.309507
v 9.027920 -4.832749 0.335643
v 5.448756 2.940447 1.428597
v 4.092130 4.569702 1.404918
v 4.140357 4.664027 1.312402
v 4.231287 4.661870 1.205122
v 4.348750 4.587578 1.094862
v 3.670484 7.154181 1.867372
v 3.633950 7.300764 1.994120
v 3.591759 7.333345 2.087093
v 3.519622 7.641594 1.895346
v 3.450613 7.960773 2.069056
v 3.382364 8.237312 2.239486
v 3.230874 7.490913 1.782502
v 3.173010 7.452337 1.834694
v 3.685177 4.427297 0.886167
v 3.144549 7.410969 1.906444
v 3.346642 7.864487 2.218334
v 3.320097 7.456817 2.181818
v 3.542385 7.215967 2.125587
v 3.493733 6.990495 2.121145
v 3.453700 6.717454 2.095946
v 4.080131 4.409665 1.480535
v 3.294977 6.993598 2.112380
v 3.297782 6.576812 2.058799
v 3.155282 7.141099 2.019306
v 3.183650 6.864320 2.029480
v 3.663247 4.266132 1.251933
v 3.745811 4.129347 1.370549
v 3.221898 6.547435 2.018647
v 3.848149 3.974300 1.472240
v 3.314601 6.114153 2.003196
v 3.261317 6.136427 1.972797
v 3.962386 3.767096 1.550892
v 3.338509 5.724428 1.959288
v 3.315332 5.711078 1.943186
v 4.057045 3.592164 1.647218
v 3.371778 5.436823 1.932096
v 4.140395 3.481798 1.715267
v 3.411265 5.392211 1.940160
v 3.411359 5.593660 1.965194
v 4.159663 3.624734 1.724390
v 4.149893 3.784966 1.669744
v 3.406458 5.981616 2.009659
v 4.106018 4.050589 1.594920
v 3.424696 6.441652 2.064383
v 4.089016 4.226831 1.543361
v 4.197558 3.473192 1.743937
v 5.218874 2.324150 2.070286
v 5.279033 2.159348 2.114172
v 6.570177 0.745253 2.352981
v 6.622859 0.498954 2.359083
v 8.046131 -3.403040 1.559817
v 6.550817 0.512732 2.324707
v 5.198802 2.140405 1.983079
v 6.619482 0.356362 2.220201
v 5.221436 2.138127 2.073141
v 8.113216 -3.776971 1.353849
v 5.208263 2.143897 1.853850
v 6.782613 0.067059 2.054094
v 6.811653 0.015969 1.926104
v 8.240222 -4.427813 0.995800
v 8.275436 -4.705332 0.767658
v 6.793767 -0.002316 1.770998
v 8.253854 -4.831665 0.560133
v 8.076162 -7.790590 -1.010185
v 8.044390 -7.923739 -1.195673
v 8.228420 -4.894045 0.350102
v 6.778431 0.004537 1.413354
v 8.216281 -4.893992 0.155089
v 6.776510 -0.003632 1.594830
v 5.041756 2.249394 1.389676
v 5.085395 2.233721 1.566496
v 5.146555 2.209577 1.724057
v 5.036944 2.253573 1.212948
v 5.075525 2.257865 1.051583
v 6.810951 0.023847 1.242458
v 3.623967 4.354051 1.123422
v 3.634501 4.395096 0.995928
v 3.140943 7.324070 1.976439
v 5.146225 2.288686 0.917225
v 6.879037 0.065573 1.098583
v 5.237818 2.365355 0.818569
v 3.765694 4.481988 0.807566
v 3.881312 4.524496 0.753937
v 3.310275 7.480886 1.733318
v 3.401114 7.368761 1.666349
v 3.496536 7.154079 1.580251
v 4.036853 4.513580 0.715524
v 3.577268 7.255023 1.707075
v 3.706557 6.951622 1.732903
v 3.647325 6.900517 1.556939
v 3.734143 6.502685 1.400833
v 3.589812 6.888156 1.490411
v 3.742883 6.736320 1.607542
v 4.473297 4.481350 0.991625
v 4.589584 4.370868 0.900633
v 3.814688 6.359673 1.423537
v 4.770304 4.195880 0.778981
v 3.813856 6.164639 1.276803
v 3.885318 6.032587 1.284701
v 4.879965 4.101809 0.690207
v 3.883651 5.910862 1.197167
v 3.919266 5.862663 1.210791
v 4.918318 3.997036 0.598353
v 4.969596 3.984533 0.635474
v 6.234087 2.791905 0.742940
v 6.109927 2.914318 0.790944
v 6.183771 2.775505 0.691456
v 7.575065 1.191117 0.854130
v 6.099319 2.736841 0.690149
v 4.784998 4.074306 0.602051
v 7.577935 0.991171 0.844090
v 5.996032 2.665656 0.722801
v 4.599195 4.188871 0.636584
v 7.547840 0.503567 0.869112
v 5.838243 2.667700 0.730957
v 7.621064 0.622386 0.850277
v 9.071671 -3.142163 -0.022263
v 9.078673 -3.872487 -0.208017
v 8.933361 -6.286851 -1.288301
v 9.011626 -4.217736 -0.289334
v 8.727001 -7.110639 -1.700953
v 8.967795 -8.804638 -2.425786
v 8.635303 -7.420257 -1.812978
v 9.090615 -9.635927 -2.612627
v 10.178541 -11.995649 -2.943447
v 9.179117 -10.148371 -2.692708
v 9.811422 -11.079184 -2.887465
v 9.616404 -10.523134 -2.827696
v 9.850181 -11.094017 -2.860558
v 10.156424 -11.630613 -2.770470
v 9.644382 -10.516457 -2.734893
v 10.215003 -11.919569 -2.883920
v 10.398518 -12.578094 -2.964249
v 10.458004 -12.327921 -2.715294
v 10.473202 -12.567509 -2.873317
v 10.595243 -12.672789 -2.657778
v 10.496421 -12.984734 -2.981709
v 10.653446 -13.068302 -2.854217
v 10.705976 -12.991646 -2.586765
v 10.541125 -13.323687 -2.982722
v 10.832143 -13.578327 -2.811715
v 10.519761 -13.550005 -2.960293
v 10.767964 -13.244410 -2.502391
v 10.748519 -13.373394 -2.405818
v 9.429930 -10.764263 -2.290218
v 9.390873 -10.873577 -2.198229
v 9.290772 -10.856430 -2.090422
v 8.637610 -8.098600 -1.442761
v 10.628807 -13.336576 -2.302595
v 10.437356 -13.169558 -2.201091
v 10.528913 -13.779163 -2.376350
v 10.210963 -12.927309 -2.106042
v 9.146683 -10.729774 -1.974551
v 8.494461 -8.035143 -1.185771
v 8.565647 -8.102020 -1.324843
v 8.985291 -10.536724 -1.856925
v 8.823636 -10.305576 -1.741867
v 9.974439 -12.648201 -2.021008
v 8.427549 -7.922577 -1.039468
v 8.366952 -7.780620 -0.895169
v 8.553194 -9.779505 -1.520752
v 8.924081 -10.993530 -1.700710
v 9.536014 -12.041531 -1.879708
v 8.877458 -11.019987 -1.682327
v 8.704804 -8.009853 -1.524639
v 9.415302 -10.551861 -2.360225
v 8.763080 -7.857230 -1.571444
v 9.186067 -4.578953 0.131774
v 9.369572 -10.282204 -2.408661
v 8.811831 -7.668057 -1.591203
v 9.237189 -4.385106 0.071185
v 9.307201 -9.985296 -2.436156
v 8.850519 -7.460341 -1.589455
v 9.265118 -4.164855 0.032901
v 9.173603 -9.368589 -2.411514
v 8.949111 -6.936690 -1.446023
v 9.262565 -3.661637 0.043646
v 8.993265 -8.344494 -2.186454
v 9.108733 -5.702335 -0.887190
v 9.100417 -5.778674 -0.991257
v 9.086924 -2.613349 0.244583
v 9.131327 -2.764880 0.122579
v 7.639358 1.172207 0.899632
v 9.057300 -5.744199 -1.012560
v 9.070379 -2.724656 0.089240
v 8.954277 -8.329983 -2.277149
v 8.997428 -8.350611 -2.249437
v 9.649495 -10.508648 -2.790791
v 7.518558 1.373390 0.991331
v 7.739197 0.838136 1.058401
v 6.106173 2.845583 0.907241
v 5.948170 2.895207 1.026425
v 7.714894 0.687808 1.191740
v 7.659664 0.649182 1.294793
v 7.579653 0.619070 1.410794
v 5.828164 2.934095 1.110488
v 5.692085 2.964540 1.204153
v 9.115052 -10.956364 -2.742203
v 9.178452 -10.779358 -2.758102
v 8.264782 -7.859594 -1.905854
v 8.150691 -7.913469 -1.856405
v 8.293730 -4.789229 -0.155640
v 8.405940 -4.734867 -0.262953
v 8.555111 -4.669573 -0.331391
v 6.983685 0.138254 0.994452
v 5.355293 2.464424 0.755874
v 7.117259 0.228956 0.926874
v 5.503927 2.555502 0.726108
v 7.268416 0.322170 0.888571
v 8.720325 -4.568243 -0.356158
v 8.879930 -4.416996 -0.338764
v 8.519899 -7.608794 -1.878392
v 8.392222 -7.760403 -1.913045
v 9.196836 -10.499317 -2.740323
v 7.419843 0.412352 0.872099
v 5.673627 2.623322 0.721934
v 4.221321 4.444289 0.687830
v 4.407290 4.344633 0.669447
v 3.680338 6.524476 1.371181
v 3.794324 6.154667 1.255466
v 8.233206 -4.849273 -0.014948
vn 0.7129 0.6966 -0.0805
vn 0.4455 0.7797 0.4401
vn 0.7841 0.3858 0.4862
vn 0.7839 0.3857 0.4866
vn 0.2569 0.6548 0.7108
vn -0.0242 0.2084 0.9777
vn 0.5889 0.2565 0.7664
vn 0.5892 0.2567 0.7661
vn 0.6944 0.0019 0.7195
vn 0.6966 0.0032 0.7174
vn 0.6981 0.0041 0.7160
vn 0.8872 0.1296 0.4427
vn 0.8850 0.1279 0.4476
vn 0.8859 0.1286 0.4456
vn 0.8609 0.4478 0.2414
vn 0.8675 0.4525 0.2064
vn 0.8881 0.1303 0.4408
vn 0.9474 0.1972 0.2519
vn 0.8787 0.4681 0.0934
vn 0.8815 0.4722 -0.0010
vn 0.8814 0.4724 -0.0043
vn 0.8817 0.4717 0.0051
vn 0.9639 0.2270 0.1394
vn 0.9578 0.2100 0.1962
vn 0.9505 0.1759 0.2560
vn 0.9547 0.2782 -0.1055
vn 0.8670 0.4695 -0.1669
vn 0.8818 0.4715 0.0087
vn 0.3675 0.5891 -0.7197
vn 0.3623 0.4730 -0.8031
vn 0.2803 0.4721 -0.8358
vn 0.8853 0.4647 -0.0182
vn 0.3102 0.4073 -0.8590
vn 0.4253 0.4360 -0.7931
vn 0.8487 0.3854 0.3623
vn 0.8409 0.4548 -0.2934
vn 0.4572 0.4155 -0.7863
vn 0.4442 0.4089 -0.7972
vn 0.4441 0.4114 -0.7959
vn 0.4442 0.4110 -0.7961
vn 0.7049 0.2310 0.6706
vn 0.8464 0.4336 -0.3091
vn 0.4441 0.4086 -0.7974
vn 0.4451 -0.0166 0.8953
vn 0.8415 0.3884 -0.3756
vn 0.3435 -0.2747 0.8981
vn 0.8192 0.2454 -0.5183
vn 0.3152 -0.3872 0.8665
vn 0.7858 0.3630 -0.5008
vn 0.4428 0.3418 -0.8289
vn 0.4423 0.3417 -0.8292
vn 0.4432 0.3418 -0.8287
vn 0.4483 0.3782 -0.8099
vn 0.4479 0.3784 -0.8101
vn 0.4474 0.3785 -0.8103
vn 0.4484 0.3782 -0.8099
vn 0.8607 0.1955 -0.4700
vn -0.5147 0.3933 -0.7618
vn 0.4697 0.4309 -0.7705
vn 0.4701 0.4308 -0.7703
vn 0.4707 0.4307 -0.7700
vn -0.3354 0.4104 -0.8480
vn -0.3688 0.4231 -0.8276
vn 0.3249 0.4427 -0.8357
vn -0.8644 0.1628 -0.4758
vn -0.9976 0.0103 0.0678
vn -0.9265 -0.1579 0.3415
vn -0.9356 -0.3390 0.0986
vn -0.6309 -0.0388 -0.7749
vn -0.2280 0.4843 -0.8447
vn -0.9240 -0.2206 -0.3124
vn -0.5938 -0.5271 -0.6080
vn -0.5417 -0.4869 -0.6852
vn -0.5116 -0.4672 -0.7211
vn -0.7251 -0.0680 -0.6853
vn -0.5261 -0.4805 -0.7016
vn -0.5539 -0.4987 -0.6667
vn -0.7818 -0.0952 -0.6162
vn -0.8749 -0.1634 -0.4558
vn -0.5822 -0.5231 -0.6225
vn -0.8709 -0.1543 -0.4666
vn -0.5407 -0.4960 -0.6795
vn -0.8046 -0.1048 -0.5845
vn -0.5587 -0.5134 -0.6514
vn -0.5876 -0.5322 -0.6095
vn -0.5921 -0.5293 -0.6077
vn -0.5884 -0.5317 -0.6092
vn -0.8032 -0.1005 -0.5872
vn -0.8550 -0.1381 -0.4998
vn -0.7688 -0.0771 -0.6349
vn -0.7879 -0.0904 -0.6091
vn -0.5796 -0.5272 -0.6214
vn -0.5582 -0.5154 -0.6502
vn -0.8212 -0.1118 -0.5596
vn -0.5776 -0.5283 -0.6223
vn -0.5988 -0.5076 -0.6196
vn -0.5226 -0.4457 -0.7268
vn -0.6516 -0.5311 -0.5416
vn -0.5728 -0.4904 -0.6568
vn -0.7193 -0.5877 -0.3703
vn -0.6676 0.0472 -0.7430
vn -0.9770 -0.2093 -0.0395
vn -0.7625 0.0208 -0.6467
vn -0.9154 -0.2157 -0.3398
vn -0.9177 -0.0754 -0.3900
vn -0.9517 -0.2986 0.0711
vn -0.9505 -0.2795 0.1359
vn -0.9749 -0.2203 -0.0330
vn 0.1680 -0.4868 0.8572
vn 0.7258 -0.5722 0.3817
vn -0.0833 -0.4902 0.8676
vn 0.9219 0.0351 0.3859
vn 0.7028 -0.1018 0.7040
vn 0.8857 -0.4557 0.0886
vn 0.9349 -0.0698 -0.3481
vn -0.1434 0.0976 -0.9848
vn 0.8437 -0.0069 -0.5367
vn -0.3221 0.0844 -0.9429
vn -0.5455 -0.0450 -0.8369
vn -0.1842 0.0591 -0.9811
vn -0.5082 0.1264 -0.8519
vn -0.8665 -0.0446 -0.4972
vn -0.7012 0.0620 -0.7103
vn 0.0452 0.0852 -0.9953
vn -0.3812 0.1402 -0.9138
vn -0.9163 -0.1128 -0.3842
vn 0.0459 0.1457 -0.9883
vn 0.1197 0.1274 -0.9846
vn 0.5053 0.1134 -0.8554
vn 0.5752 0.0289 -0.8175
vn 0.6128 0.0846 -0.7857
vn 0.9658 0.1077 0.2360
vn 0.9075 0.2651 -0.3260
vn 0.9207 0.0982 0.3778
vn 0.4405 0.0837 -0.8938
vn 0.8608 0.2972 -0.4131
vn 0.5639 -0.0380 0.8250
vn 0.5351 0.1442 -0.8324
vn 0.4264 0.1232 -0.8961
vn 0.8599 0.3246 -0.3939
vn 0.5403 0.0100 0.8414
vn 0.5167 0.1246 -0.8470
vn 0.5310 0.1270 -0.8378
vn 0.9025 0.3508 -0.2498
vn 0.5649 0.0831 0.8210
vn 0.5097 0.1392 -0.8490
vn 0.8308 0.3725 -0.4135
vn 0.4890 0.2837 -0.8248
vn 0.2994 0.1241 -0.9460
vn 0.3234 0.1165 -0.9390
vn -0.8002 -0.2367 -0.5510
vn 0.0051 0.1233 -0.9924
vn -0.1215 0.1115 -0.9863
vn 0.2798 0.1128 -0.9534
vn -0.9001 -0.2493 -0.3573
vn -0.2301 0.1239 -0.9652
vn 0.2219 0.1065 -0.9692
vn 0.2457 0.1234 -0.9615
vn -0.9158 -0.1916 -0.3530
vn -0.2830 0.1384 -0.9491
vn 0.1468 0.0972 -0.9844
vn 0.1748 0.1237 -0.9768
vn -0.5562 -0.5359 -0.6352
vn -0.2800 -0.3241 -0.9036
vn -0.9270 -0.1614 -0.3385
vn -0.1867 -0.2924 -0.9379
vn -0.1406 -0.2899 -0.9467
vn -0.4902 -0.5234 -0.6970
vn -0.4350 -0.5282 -0.7293
vn -0.1312 -0.3272 -0.9358
vn -0.7926 -0.2688 -0.5473
vn 0.2353 -0.0662 -0.9697
vn -0.3507 -0.4967 -0.7939
vn 0.0328 -0.2460 -0.9687
vn -0.1664 -0.3100 -0.9361
vn -0.3640 -0.4569 -0.8116
vn -0.2092 0.0999 -0.9728
vn -0.7887 -0.6144 -0.0199
vn -0.7513 -0.1765 -0.6359
vn 0.2018 0.0189 -0.9792
vn -0.1457 0.1381 -0.9796
vn 0.4392 0.3313 -0.8351
vn 0.4572 0.3355 -0.8237
vn 0.4552 0.2420 -0.8569
vn 0.7577 0.5584 -0.3378
vn 0.7749 0.6060 -0.1794
vn 0.9354 0.3351 0.1132
vn 0.4897 0.2723 -0.8283
vn 0.7892 0.5861 -0.1835
vn 0.5207 0.1943 -0.8314
vn 0.4605 0.1369 -0.8770
vn 0.7753 0.6272 0.0737
vn 0.7754 0.6271 0.0737
vn 0.7765 0.6264 0.0675
vn 0.8142 0.3853 -0.4343
vn 0.8548 0.2094 0.4748
vn 0.7864 0.5742 -0.2277
vn 0.7983 0.5995 -0.0582
vn 0.9531 0.2849 0.1025
vn 0.8621 0.3629 -0.3538
vn 0.8939 0.3468 -0.2839
vn 0.7657 -0.3477 0.5411
vn 0.7674 0.2909 -0.5713
vn 0.0877 -0.4669 0.8799
vn 0.8888 0.3445 -0.3021
vn 0.9342 0.3255 -0.1461
vn 0.9950 -0.0071 -0.0991
vn 0.9958 -0.0846 0.0352
vn 0.9781 0.0487 -0.2025
vn 0.8849 0.2931 -0.3620
vn 0.4926 -0.1766 0.8521
vn 0.8995 0.2571 -0.3534
vn 0.9889 0.0155 -0.1480
vn 0.9174 0.2946 -0.2676
vn 0.9927 0.0012 -0.1206
vn 0.9221 0.1049 0.3724
vn 0.9536 0.2951 -0.0593
vn 0.9600 0.2792 0.0227
vn 0.9975 -0.0323 -0.0631
vn 0.9974 -0.0316 -0.0644
vn 0.9975 -0.0328 -0.0621
vn 0.9218 0.3268 -0.2087
vn 0.7902 0.6117 0.0359
vn 0.7905 0.5957 -0.1423
vn 0.9460 0.3098 -0.0950
vn 0.7955 0.6003 -0.0824
vn 0.8146 0.5600 -0.1514
vn 0.8114 0.5805 0.0685
vn 0.7853 0.5802 -0.2159
vn 0.7998 0.5564 -0.2252
vn 0.7932 0.5873 -0.1607
vn 0.6561 0.5556 0.5108
vn 0.7976 0.5984 -0.0764
vn 0.7977 0.5981 -0.0766
vn 0.7976 0.5983 -0.0765
vn 0.7978 0.5980 -0.0767
vn 0.7910 0.6118 -0.0071
vn 0.8258 0.5639 -0.0092
vn 0.8202 0.5662 0.0821
vn 0.7656 0.6117 0.1993
vn 0.8075 0.5521 0.2078
vn 0.7630 0.6099 0.2141
vn 0.8200 0.5572 0.1306
vn 0.8015 0.5467 0.2422
vn 0.9846 0.1252 0.1217
vn 0.9808 0.1140 0.1585
vn 0.9658 0.2109 -0.1509
vn 0.9781 0.1045 0.1801
vn 0.7774 -0.0851 -0.6232
vn 0.8036 -0.3932 -0.4468
vn 0.7200 0.4986 0.4828
vn 0.7179 0.4969 0.4876
vn 0.7165 0.4958 0.4907
vn 0.7213 0.4997 0.4796
vn 0.9056 0.0192 0.4237
vn 0.6715 0.5627 0.4821
vn 0.6714 0.5627 0.4824
vn 0.6717 0.5629 0.4816
vn 0.4702 0.4294 0.7710
vn 0.4699 0.4292 0.7713
vn 0.4705 0.4296 0.7707
vn 0.5159 0.3635 0.7757
vn 0.5220 0.3671 0.7699
vn 0.5196 0.3657 0.7722
vn 0.5135 0.3621 0.7780
vn 0.4706 -0.1942 0.8607
vn 0.3353 0.2380 0.9116
vn 0.5005 -0.1851 0.8457
vn 0.7267 -0.0914 0.6808
vn -0.1534 -0.5953 0.7887
vn 0.3860 -0.2221 0.8954
vn 0.2225 -0.8206 0.5264
vn -0.4895 -0.5032 0.7121
vn 0.2843 -0.2454 0.9268
vn 0.2135 -0.2655 0.9402
vn -0.4634 -0.4429 0.7675
vn -0.8880 -0.3534 0.2941
vn -0.8948 -0.2961 0.3341
vn -0.8599 -0.3336 0.3863
vn -0.5841 -0.4117 0.6995
vn -0.6573 -0.3952 0.6417
vn -0.8311 -0.3507 0.4315
vn -0.6383 -0.4378 0.6332
vn -0.8427 -0.3699 0.3911
vn -0.8263 -0.3810 0.4148
vn -0.6026 0.0227 -0.7977
vn -0.6798 -0.4225 0.5995
vn -0.8022 -0.3785 0.4617
vn -0.5578 0.0009 -0.8299
vn -0.4417 -0.4297 0.7876
vn -0.7665 -0.3840 0.5148
vn -0.7897 -0.3667 0.4919
vn -0.6922 -0.1385 -0.7083
vn -0.3372 -0.4313 0.8368
vn -0.7369 -0.3880 0.5536
vn -0.7546 -0.3762 0.5376
vn -0.5810 -0.5174 0.6283
vn -0.8093 -0.5219 0.2695
vn -0.6129 -0.1027 -0.7835
vn -0.5325 -0.5032 0.6806
vn -0.6876 -0.7231 0.0656
vn -0.6696 -0.6656 0.3296
vn -0.5740 -0.5483 0.6082
vn -0.5727 -0.4313 0.6971
vn -0.0341 0.0408 0.9986
vn -0.0444 0.0633 0.9970
vn 0.1512 0.2122 0.9655
vn 0.1480 0.2091 0.9666
vn 0.1540 0.2148 0.9644
vn -0.1637 -0.0518 0.9851
vn 0.1555 0.2165 0.9638
vn 0.1554 0.2166 0.9638
vn -0.0671 0.0089 0.9977
vn 0.0527 0.1047 0.9931
vn 0.0527 0.1049 0.9931
vn 0.0527 0.1045 0.9931
vn 0.4106 0.4222 0.8082
vn 0.0675 0.1155 0.9910
vn 0.0527 0.1050 0.9931
vn 0.6766 0.0914 0.7306
vn -0.0581 -0.2466 0.9674
vn 0.3847 -0.0915 0.9185
vn 0.9362 0.0950 -0.3383
vn -0.2499 -0.3829 0.8893
vn 0.9037 -0.2563 0.3430
vn 0.0190 -0.2327 0.9724
vn -0.1670 -0.4078 0.8977
vn 0.9880 0.1521 -0.0272
vn -0.0017 -0.3398 0.9405
vn 0.4877 -0.4211 0.7647
vn -0.0549 -0.1634 0.9850
vn 0.7649 0.2707 0.5845
vn -0.0945 -0.2316 0.9682
vn 0.9771 0.1443 0.1566
vn -0.6184 -0.2947 0.7285
vn -0.6185 -0.2952 0.7282
vn -0.6183 -0.2928 0.7294
vn 0.9316 0.3056 0.1969
vn -0.6183 -0.2923 0.7296
vn -0.6064 -0.2890 0.7408
vn -0.8066 -0.3850 0.4486
vn -0.7801 -0.3592 0.5122
vn -0.8790 -0.3768 0.2921
vn -0.6334 -0.2652 0.7269
vn -0.7259 -0.2790 0.6287
vn -0.8470 -0.3329 0.4144
vn -0.8475 -0.3339 0.4127
vn -0.8461 -0.3311 0.4176
vn -0.8457 -0.3302 0.4192
vn -0.7442 -0.2065 0.6353
vn -0.8861 -0.2945 0.3579
vn -0.8863 -0.2929 0.3588
vn -0.8850 -0.3040 0.3526
vn -0.8849 -0.3051 0.3520
vn -0.6826 -0.2191 0.6971
vn -0.9290 -0.2651 0.2584
vn -0.9165 -0.2990 0.2657
vn -0.6559 -0.0887 0.7496
vn -0.5901 -0.1405 0.7950
vn -0.9735 -0.2251 0.0410
vn -0.9415 -0.3079 0.1370
vn -0.2590 0.0477 0.9647
vn -0.4164 0.1285 0.9000
vn -0.3235 0.5331 0.7818
vn -0.7216 -0.3419 -0.6020
vn -0.9122 -0.1485 -0.3820
vn -0.7620 -0.3654 -0.5347
vn -0.6829 -0.3119 -0.6606
vn -0.7166 -0.3342 -0.6122
vn -0.7339 -0.0143 -0.6791
vn -0.8663 -0.1020 -0.4890
vn -0.6737 -0.3102 -0.6707
vn -0.6270 -0.2759 -0.7285
vn -0.2984 0.2220 -0.9282
vn -0.1746 0.2001 -0.9641
vn -0.6481 0.0264 -0.7611
vn 0.5113 0.7430 -0.4319
vn 0.3010 0.9467 -0.1148
vn 0.4525 0.5500 -0.7019
vn -0.0617 0.2672 -0.9617
vn 0.6624 0.6580 -0.3582
vn -0.5777 -0.2330 -0.7823
vn -0.0858 0.2934 -0.9521
vn -0.7538 -0.3469 -0.5581
vn -0.9041 -0.0970 -0.4161
vn -0.4655 0.1430 -0.8734
vn -0.5873 0.0695 -0.8063
vn -0.7884 -0.3517 -0.5047
vn -0.8211 -0.3496 -0.4513
vn -0.3478 0.2114 -0.9134
vn -0.5062 -0.1714 -0.8452
vn -0.9294 -0.0861 -0.3588
vn -0.9391 -0.0561 -0.3391
vn -0.5791 0.4463 -0.6822
vn -0.6214 0.4334 -0.6527
vn -0.6557 0.4231 -0.6254
vn -0.4739 0.4687 -0.7454
vn -0.2380 0.2698 -0.9330
vn -0.9953 -0.0959 0.0102
vn -0.7117 0.3938 -0.5817
vn -0.9529 -0.2988 0.0523
vn -0.0802 0.1221 -0.9893
vn -0.8974 -0.3466 -0.2730
vn 0.0571 0.3729 -0.9261
vn 0.1681 0.2605 -0.9507
vn 0.2218 0.3044 -0.9264
vn -0.4385 -0.1091 -0.8921
vn 0.1029 0.2963 -0.9495
vn 0.1053 0.2991 -0.9484
vn 0.1018 0.2948 -0.9501
vn 0.0055 0.2091 -0.9779
vn -0.3358 0.1348 -0.9323
vn -0.4143 0.1017 -0.9044
vn -0.4696 0.8797 0.0749
vn 0.4436 0.3419 -0.8285
vn 0.1064 0.3005 -0.9478
vn 0.0252 0.3092 -0.9507
vn 0.0249 0.2988 -0.9540
vn 0.0253 0.3109 -0.9501
vn -0.8499 -0.0789 -0.5210
vn -0.8043 0.3555 -0.4761
vn -0.8030 0.3562 -0.4779
vn -0.8020 0.3567 -0.4791
vn -0.8053 0.3550 -0.4748
vn -0.7264 0.3949 -0.5625
vn -0.7267 0.3948 -0.5622
vn -0.7270 0.3947 -0.5619
vn -0.7261 0.3950 -0.5628
vn 0.0250 0.2976 -0.9544
vn -0.8698 0.3121 -0.3820
vn -0.8718 0.3105 -0.3789
vn -0.8710 0.3112 -0.3802
vn -0.7618 -0.0206 -0.6475
vn -0.8690 0.3128 -0.3833
vn -0.9223 0.2651 -0.2812
vn -0.9219 0.2655 -0.2820
vn -0.9221 0.2654 -0.2816
vn -0.9396 -0.1638 -0.3006
vn -0.6922 0.0434 -0.7204
vn -0.9224 0.2650 -0.2809
vn -0.9542 0.2254 -0.1968
vn -0.9702 -0.1913 -0.1488
vn -0.6601 0.0923 -0.7455
vn -0.9768 0.1829 -0.1112
vn -0.9658 0.2053 -0.1582
vn -0.9785 -0.2063 -0.0079
vn -0.6595 0.1291 -0.7406
vn -0.9921 0.1255 -0.0015
vn -0.9313 0.2483 -0.2664
vn -0.9696 -0.2147 0.1174
vn -0.3819 0.3104 -0.8705
vn -0.0572 0.4179 -0.9067
vn -0.9740 -0.0098 0.2264
vn -0.8764 -0.2454 0.4143
vn -0.3759 0.4221 -0.8249
vn -0.7139 -0.2453 0.6558
vn -0.9972 0.0069 0.0746
vn -0.9948 -0.0263 0.0988
vn -0.8224 0.1906 -0.5360
vn -0.5938 -0.2735 0.7567
vn -0.5930 -0.2738 0.7572
vn -0.5935 -0.2736 0.7569
vn -0.9184 -0.3737 0.1298
vn -0.6222 -0.3718 0.6889
vn -0.5942 -0.2734 0.7564
vn 0.3670 -0.0414 0.9293
vn -0.6068 -0.3692 0.7039
vn 0.9969 0.0233 -0.0757
vn -0.1531 -0.2554 0.9546
vn -0.6157 -0.3262 0.7173
vn -0.6157 -0.3263 0.7173
vn -0.6154 -0.3264 0.7175
vn -0.0907 -0.4346 0.8960
vn -0.4720 -0.3113 0.8248
vn -0.6163 -0.3260 0.7169
vn -0.6196 -0.3619 0.6965
vn -0.6194 -0.3619 0.6967
vn -0.6201 -0.3619 0.6961
vn -0.2115 -0.2976 0.9310
vn 0.9925 0.0615 -0.1060
vn -0.9597 -0.2785 -0.0364
vn -0.9581 -0.2585 -0.1237
vn -0.9945 0.0756 -0.0731
vn -0.6190 -0.3619 0.6971
vn -0.4727 0.8776 0.0793
vn -0.7769 -0.1934 -0.5991
vn -0.7240 -0.5943 0.3501
vn -0.5995 -0.4566 0.6574
vn -0.7219 -0.6780 -0.1384
vn -0.1218 -0.1727 -0.9774
vn -0.9255 -0.3745 0.0557
vn -0.6490 -0.6456 -0.4025
vn -0.6100 -0.5322 -0.5871
vn -0.5848 -0.6274 -0.5141
vn -0.5538 -0.5006 -0.6653
vn -0.7002 -0.7040 -0.1189
vn -0.6136 -0.6709 -0.4163
vn -0.6340 -0.5483 -0.5453
vn -0.8473 -0.1489 -0.5099
vn -0.5688 0.0147 -0.8223
vn -0.8914 -0.2114 -0.4008
vn -0.6871 -0.0390 -0.7255
vn -0.5956 -0.5264 -0.6068
vn -0.8045 -0.1103 -0.5836
vn -0.6193 -0.5422 -0.5679
vn -0.5622 -0.5098 -0.6511
vn -0.5567 -0.5362 -0.6345
vn -0.7388 -0.6581 -0.1451
vn -0.5838 -0.5854 -0.5626
vn -0.5504 -0.5076 -0.6628
vn -0.5507 -0.5069 -0.6632
vn -0.5521 -0.5027 -0.6652
vn -0.5523 -0.5019 -0.6656
vn -0.6015 -0.5362 -0.5922
vn -0.7387 -0.6279 -0.2451
vn -0.7847 -0.0917 -0.6131
vn -0.6977 -0.0396 -0.7153
vn -0.7272 -0.6784 -0.1044
vn -0.1918 0.1537 -0.9693
vn -0.2524 0.1651 -0.9534
vn -0.8922 -0.4157 0.1766
vn -0.4774 -0.0684 -0.8760
vn -0.8785 -0.4006 -0.2603
vn -0.5899 -0.1964 -0.7832
vn -0.8455 -0.3962 -0.3581
vn -0.6189 -0.2393 -0.7481
vn -0.7243 -0.0515 -0.6876
vn -0.8012 -0.3810 -0.4614
vn -0.6496 -0.2780 -0.7076
vn -0.2720 0.0983 -0.9573
vn -0.9391 -0.3436 0.0005
vn 0.2761 0.0689 0.9586
vn 0.3975 0.1409 0.9067
vn 0.3699 0.1229 0.9209
vn 0.1983 0.0196 0.9800
vn 0.2036 0.0226 0.9788
vn 0.1954 0.0181 0.9806
vn 0.4920 -0.0985 0.8650
vn 0.4416 -0.1189 0.8893
vn 0.5381 -0.0739 0.8396
vn 0.6930 0.0010 0.7210
vn 0.7295 -0.3526 0.5862
vn 0.7280 -0.3533 0.5876
vn 0.7270 -0.3537 0.5885
vn 0.7304 -0.3521 0.5853
vn 0.5222 -0.4152 0.7449
vn 0.5207 -0.4156 0.7458
vn 0.5198 -0.4158 0.7462
vn 0.6878 0.0129 0.7258
vn 0.6985 0.0193 0.7154
vn 0.5232 -0.4150 0.7444
vn 0.4500 -0.0977 0.8877
vn 0.2718 0.2846 0.9193
vn 0.2601 0.2770 0.9250
vn 0.4919 -0.0784 0.8671
vn 0.4697 0.4291 0.7715
vn 0.1366 0.1788 0.9743
vn 0.1016 0.1553 0.9826
vn 0.3244 -0.1417 0.9352
vn 0.2484 -0.1720 0.9533
vn 0.3261 -0.4403 0.8365
vn 0.1002 -0.2174 0.9709
vn 0.2965 -0.4431 0.8460
vn 0.3880 -0.4359 0.8120
vn 0.3890 -0.4358 0.8116
vn 0.3865 -0.4362 0.8126
vn 0.0621 -0.2718 0.9603
vn 0.5508 -0.0888 0.8299
vn 0.2174 -0.2102 0.9532
vn 0.3855 -0.4364 0.8130
vn -0.0524 -0.1369 0.9892
vn 0.1886 0.0032 0.9820
vn 0.0569 -0.0670 0.9961
vn 0.6611 -0.0680 0.7472
vn 0.2346 -0.4437 0.8649
vn -0.0287 -0.3119 0.9497
vn 0.2103 -0.1775 0.9614
vn 0.0027 -0.2424 0.9702
vn 0.3478 -0.4358 0.8301
vn 0.0462 0.1039 0.9935
vn -0.0142 0.0526 0.9985
vn 0.1573 -0.1891 0.9693
vn -0.0602 0.0203 0.9980
vn 0.0130 0.0291 0.9995
vn 0.1842 0.1651 0.9689
vn -0.0525 -0.0082 0.9986
vn -0.0034 0.0699 0.9975
vn -0.1153 -0.3390 0.9337
vn 0.0660 0.3257 -0.9432
vn -0.0842 -0.3305 0.9401
vn 0.4900 0.4456 0.7493
vn -0.0181 0.2935 -0.9558
vn -0.5598 -0.3806 0.7360
vn -0.5612 -0.3985 0.7255
vn -0.5750 -0.4005 0.7135
vn -0.5842 -0.3849 0.7146
vn -0.5638 -0.0091 -0.8259
vn -0.0105 -0.3042 0.9526
vn 0.0974 -0.2877 0.9527
vn 0.0280 -0.3059 0.9516
vn 0.2045 0.1585 0.9659
vn 0.1330 0.1050 0.9855
vn 0.2477 0.1781 0.9523
vn 0.3076 0.2210 0.9255
vn 0.9270 -0.2217 0.3025
vn 0.9283 -0.2204 0.2996
vn 0.9278 -0.2209 0.3008
vn 0.8853 0.1437 0.4422
vn 0.9265 -0.2222 0.3037
vn 0.9581 0.2388 0.1582
vn 0.8790 0.1388 0.4562
vn 0.9921 -0.1040 0.0702
vn 0.9924 -0.1028 0.0677
vn 0.9923 -0.1033 0.0688
vn 0.9920 -0.1045 0.0713
vn 0.2067 0.0243 0.9781
vn 0.5151 0.1645 0.8412
vn -0.2010 -0.3899 0.8987
vn -0.6140 0.0459 -0.7880
vn -0.9248 -0.3105 0.2196
vn 0.6719 0.5630 0.4812
vn 0.9519 0.2263 0.2067
vn 0.9974 -0.0311 -0.0655
vn 0.6792 0.6002 0.4225
vn 0.7759 0.6268 0.0714
vn 0.5922 0.3936 -0.7032
vn 0.3563 -0.4009 0.8440
vn 0.7773 0.6259 0.0631
vn 0.4694 0.4310 -0.7707
vn 0.4638 0.2761 -0.8418
vn -0.5928 -0.5288 -0.6074
vn -0.3897 -0.3694 -0.8436
vt 0.000000 0.000000
s 1
f 2/1/1 5/1/1 1/1/1
f 2/1/2 1/1/2 3/1/2
f 3/1/3 1/1/3 7/1/4
f 4/1/5 6/1/5 1/1/5
f 4/1/6 1/1/6 5/1/6
f 6/1/7 7/1/8 1/1/7
f 6/1/7 8/1/8 7/1/8
f 8/1/9 9/1/10 7/1/11
f 10/1/12 7/1/13 9/1/14
f 3/1/3 7/1/4 10/1/4
f 11/1/15 3/1/15 10/1/15
f 11/1/16 10/1/16 13/1/16
f 10/1/12 9/1/14 12/1/17
f 13/1/18 10/1/18 12/1/18
f 14/1/19 11/1/19 13/1/19
f 14/1/20 13/1/21 16/1/22
f 13/1/23 12/1/23 15/1/23
f 16/1/24 13/1/24 15/1/24
f 18/1/25 16/1/25 17/1/25
f 16/1/26 15/1/26 17/1/26
f 19/1/27 16/1/27 18/1/27
f 19/1/28 14/1/20 16/1/22
f 20/1/29 14/1/29 19/1/29
f 20/1/30 19/1/30 21/1/30
f 21/1/31 19/1/31 22/1/31
f 22/1/32 19/1/32 18/1/32
f 21/1/33 22/1/33 23/1/33
f 23/1/34 22/1/34 25/1/34
f 25/1/35 22/1/35 24/1/35
f 22/1/36 18/1/36 24/1/36
f 23/1/37 25/1/37 26/1/37
f 26/1/38 25/1/39 28/1/40
f 28/1/41 25/1/41 27/1/41
f 25/1/42 24/1/42 27/1/42
f 26/1/38 28/1/40 29/1/43
f 29/1/44 28/1/44 30/1/44
f 28/1/45 27/1/45 30/1/45
f 30/1/46 27/1/46 31/1/46
f 30/1/47 31/1/47 32/1/47
f 33/1/48 30/1/48 32/1/48
f 29/1/49 30/1/49 33/1/49
f 29/1/50 33/1/51 34/1/52
f 33/1/53 36/1/54 34/1/55
f 33/1/53 35/1/56 36/1/54
f 33/1/57 32/1/57 35/1/57
f 38/1/58 34/1/58 36/1/58
f 35/1/59 37/1/60 36/1/61
f 39/1/62 36/1/62 37/1/62
f 38/1/63 36/1/63 39/1/63
f 39/1/64 40/1/64 42/1/64
f 39/1/65 37/1/65 40/1/65
f 38/1/66 39/1/66 41/1/66
f 39/1/67 42/1/67 41/1/67
f 40/1/68 43/1/68 42/1/68
f 42/1/69 43/1/69 45/1/69
f 41/1/70 42/1/70 44/1/70
f 42/1/71 45/1/71 44/1/71
f 45/1/72 43/1/72 46/1/72
f 45/1/73 46/1/73 47/1/73
f 48/1/74 45/1/74 47/1/74
f 44/1/75 45/1/75 48/1/75
f 51/1/76 48/1/76 49/1/76
f 48/1/77 47/1/77 49/1/77
f 50/1/78 48/1/78 51/1/78
f 44/1/79 48/1/79 50/1/79
f 51/1/80 49/1/80 52/1/80
f 50/1/81 51/1/81 53/1/81
f 54/1/82 51/1/82 52/1/82
f 53/1/83 51/1/83 54/1/83
f 57/1/84 54/1/84 55/1/84
f 54/1/85 52/1/86 55/1/87
f 56/1/88 54/1/88 57/1/88
f 53/1/89 54/1/89 56/1/89
f 58/1/90 61/1/90 57/1/90
f 58/1/91 57/1/91 59/1/91
f 57/1/92 60/1/92 59/1/92
f 57/1/93 62/1/93 60/1/93
f 56/1/94 57/1/94 61/1/94
f 57/1/95 55/1/95 62/1/95
f 62/1/96 55/1/96 63/1/96
f 62/1/97 63/1/97 64/1/97
f 62/1/98 64/1/98 65/1/98
f 62/1/99 65/1/99 60/1/99
f 60/1/100 65/1/100 66/1/100
f 65/1/101 67/1/101 66/1/101
f 65/1/102 68/1/102 67/1/102
f 64/1/103 68/1/103 65/1/103
f 71/1/104 68/1/104 69/1/104
f 64/1/105 69/1/105 68/1/105
f 70/1/106 67/1/106 68/1/106
f 70/1/107 68/1/107 71/1/107
f 71/1/108 69/1/108 72/1/108
f 74/1/109 71/1/109 72/1/109
f 74/1/110 73/1/110 71/1/110
f 73/1/111 70/1/111 71/1/111
f 75/1/112 74/1/112 76/1/112
f 75/1/113 73/1/113 74/1/113
f 74/1/114 77/1/114 76/1/114
f 74/1/115 72/1/115 77/1/115
f 78/1/116 77/1/116 79/1/116
f 76/1/117 77/1/117 78/1/117
f 77/1/118 72/1/118 69/1/118
f 77/1/119 69/1/119 79/1/119
f 78/1/120 79/1/120 80/1/120
f 63/1/121 80/1/121 79/1/121
f 64/1/122 63/1/122 79/1/122
f 64/1/123 79/1/123 69/1/123
f 83/1/124 80/1/124 81/1/124
f 82/1/125 81/1/125 80/1/125
f 63/1/126 82/1/126 80/1/126
f 83/1/127 78/1/127 80/1/127
f 84/1/128 83/1/128 81/1/128
f 86/1/129 83/1/129 84/1/129
f 86/1/130 85/1/130 83/1/130
f 85/1/131 78/1/131 83/1/131
f 87/1/132 85/1/132 86/1/132
f 87/1/133 86/1/133 88/1/133
f 88/1/134 86/1/134 89/1/134
f 89/1/135 86/1/135 84/1/135
f 88/1/136 89/1/136 90/1/136
f 90/1/137 89/1/137 92/1/137
f 92/1/138 89/1/138 91/1/138
f 89/1/139 84/1/139 91/1/139
f 90/1/140 92/1/140 93/1/140
f 93/1/141 92/1/141 95/1/141
f 95/1/142 92/1/142 94/1/142
f 92/1/143 91/1/143 94/1/143
f 93/1/144 95/1/144 96/1/144
f 96/1/145 95/1/145 97/1/145
f 95/1/146 94/1/146 97/1/146
f 96/1/147 97/1/147 98/1/147
f 98/1/148 97/1/148 99/1/148
f 97/1/149 94/1/149 100/1/149
f 97/1/150 100/1/150 99/1/150
f 102/1/151 101/1/151 100/1/151
f 101/1/152 99/1/152 100/1/152
f 102/1/153 100/1/153 103/1/153
f 94/1/154 103/1/154 100/1/154
f 104/1/155 102/1/155 103/1/155
f 104/1/156 103/1/156 105/1/156
f 91/1/157 105/1/157 103/1/157
f 94/1/158 91/1/158 103/1/158
f 106/1/159 104/1/159 105/1/159
f 106/1/160 105/1/160 81/1/160
f 84/1/161 81/1/161 105/1/161
f 91/1/162 84/1/162 105/1/162
f 52/1/163 49/1/163 106/1/163
f 52/1/164 106/1/164 82/1/164
f 82/1/165 106/1/165 81/1/165
f 49/1/166 104/1/166 106/1/166
f 47/1/167 102/1/167 104/1/167
f 49/1/168 47/1/168 104/1/168
f 47/1/169 46/1/169 102/1/169
f 46/1/170 101/1/170 102/1/170
f 101/1/171 107/1/171 99/1/171
f 108/1/172 107/1/172 101/1/172
f 46/1/173 108/1/173 101/1/173
f 108/1/174 109/1/174 107/1/174
f 110/1/175 109/1/175 108/1/175
f 110/1/176 108/1/176 46/1/176
f 40/1/177 110/1/177 43/1/177
f 110/1/178 46/1/178 43/1/178
f 40/1/179 111/1/179 110/1/179
f 110/1/180 111/1/180 109/1/180
f 40/1/181 37/1/181 111/1/181
f 112/1/182 111/1/182 37/1/182
f 112/1/183 113/1/183 111/1/183
f 113/1/184 109/1/184 111/1/184
f 113/1/185 115/1/185 114/1/185
f 113/1/186 114/1/186 116/1/186
f 112/1/187 115/1/187 113/1/187
f 113/1/188 116/1/188 109/1/188
f 114/1/189 98/1/189 116/1/189
f 116/1/190 107/1/190 109/1/190
f 116/1/191 98/1/191 107/1/191
f 115/1/192 118/1/193 114/1/194
f 112/1/195 117/1/195 115/1/195
f 117/1/196 119/1/196 115/1/196
f 115/1/197 119/1/197 118/1/197
f 120/1/198 118/1/198 119/1/198
f 121/1/199 120/1/199 119/1/199
f 117/1/200 121/1/200 119/1/200
f 121/1/201 122/1/201 120/1/201
f 31/1/202 122/1/202 121/1/202
f 32/1/203 31/1/203 121/1/203
f 32/1/204 121/1/204 117/1/204
f 122/1/205 124/1/205 123/1/205
f 122/1/206 123/1/206 120/1/206
f 125/1/207 124/1/207 122/1/207
f 31/1/208 125/1/208 122/1/208
f 125/1/209 126/1/209 124/1/209
f 24/1/210 126/1/210 125/1/210
f 27/1/211 24/1/211 125/1/211
f 27/1/212 125/1/212 31/1/212
f 126/1/213 17/1/213 127/1/213
f 18/1/214 17/1/214 126/1/214
f 126/1/215 127/1/215 124/1/215
f 24/1/216 18/1/216 126/1/216
f 127/1/217 129/1/217 128/1/217
f 127/1/218 128/1/218 130/1/218
f 17/1/219 129/1/220 127/1/221
f 124/1/222 127/1/222 130/1/222
f 128/1/223 131/1/223 130/1/223
f 130/1/224 131/1/224 132/1/224
f 124/1/225 130/1/225 123/1/225
f 130/1/226 132/1/226 123/1/226
f 131/1/227 88/1/227 132/1/227
f 132/1/228 88/1/228 90/1/228
f 123/1/229 132/1/229 133/1/229
f 132/1/230 90/1/230 133/1/230
f 123/1/231 133/1/231 120/1/231
f 133/1/232 90/1/232 93/1/232
f 120/1/233 133/1/234 118/1/235
f 133/1/234 93/1/236 118/1/235
f 128/1/237 134/1/237 131/1/237
f 134/1/238 87/1/238 131/1/238
f 131/1/239 87/1/239 88/1/239
f 136/1/240 135/1/240 134/1/240
f 135/1/241 137/1/241 134/1/241
f 136/1/242 134/1/242 128/1/242
f 134/1/243 137/1/243 87/1/243
f 135/1/244 138/1/244 137/1/244
f 138/1/245 139/1/245 137/1/245
f 137/1/246 139/1/246 85/1/246
f 137/1/247 85/1/247 87/1/247
f 138/1/248 76/1/248 139/1/248
f 85/1/249 139/1/249 78/1/249
f 76/1/250 78/1/250 139/1/250
f 140/1/251 138/1/252 135/1/253
f 140/1/251 75/1/254 138/1/252
f 75/1/255 76/1/255 138/1/255
f 141/1/256 140/1/257 135/1/258
f 141/1/259 142/1/260 140/1/261
f 140/1/262 142/1/263 143/1/264
f 140/1/262 143/1/264 75/1/265
f 143/1/266 144/1/266 145/1/266
f 142/1/267 144/1/267 143/1/267
f 143/1/268 145/1/268 73/1/268
f 75/1/269 143/1/269 73/1/269
f 146/1/270 70/1/270 145/1/270
f 144/1/271 146/1/271 145/1/271
f 73/1/272 145/1/272 70/1/272
f 147/1/273 149/1/273 146/1/273
f 148/1/274 147/1/274 146/1/274
f 144/1/275 148/1/275 146/1/275
f 146/1/276 149/1/276 70/1/276
f 149/1/277 150/1/277 67/1/277
f 149/1/278 67/1/278 70/1/278
f 151/1/279 150/1/279 149/1/279
f 147/1/280 151/1/280 149/1/280
f 153/1/281 152/1/281 151/1/281
f 152/1/282 154/1/282 151/1/282
f 153/1/283 151/1/283 147/1/283
f 151/1/284 154/1/284 150/1/284
f 155/1/285 150/1/285 154/1/285
f 155/1/286 154/1/286 156/1/286
f 156/1/287 154/1/287 157/1/287
f 152/1/288 157/1/288 154/1/288
f 156/1/289 157/1/289 158/1/289
f 158/1/290 157/1/290 160/1/290
f 159/1/291 160/1/291 157/1/291
f 159/1/292 157/1/292 152/1/292
f 158/1/293 160/1/293 161/1/293
f 161/1/294 160/1/294 163/1/294
f 162/1/295 163/1/295 160/1/295
f 162/1/296 160/1/296 159/1/296
f 164/1/297 165/1/297 163/1/297
f 164/1/298 163/1/298 162/1/298
f 161/1/299 163/1/299 165/1/299
f 168/1/300 166/1/300 165/1/300
f 167/1/301 165/1/301 166/1/301
f 167/1/302 161/1/302 165/1/302
f 168/1/303 165/1/303 164/1/303
f 169/1/304 166/1/304 168/1/304
f 170/1/305 168/1/305 164/1/305
f 169/1/306 168/1/306 170/1/306
f 170/1/307 164/1/308 171/1/309
f 169/1/310 170/1/310 172/1/310
f 173/1/311 170/1/307 171/1/309
f 172/1/312 170/1/307 173/1/311
f 172/1/313 173/1/313 177/1/313
f 176/1/314 173/1/315 174/1/316
f 173/1/317 171/1/317 174/1/317
f 175/1/318 177/1/318 173/1/318
f 175/1/319 173/1/315 176/1/314
f 178/1/320 172/1/320 177/1/320
f 178/1/321 177/1/321 179/1/321
f 179/1/322 177/1/322 175/1/322
f 180/1/323 178/1/323 179/1/323
f 180/1/324 179/1/324 182/1/324
f 182/1/325 179/1/325 181/1/325
f 179/1/326 175/1/326 181/1/326
f 183/1/327 180/1/327 182/1/327
f 183/1/328 182/1/328 185/1/328
f 185/1/329 182/1/329 184/1/329
f 182/1/330 181/1/330 184/1/330
f 186/1/331 185/1/331 187/1/331
f 188/1/332 185/1/332 186/1/332
f 188/1/333 183/1/333 185/1/333
f 185/1/334 184/1/334 187/1/334
f 190/1/335 189/1/336 188/1/337
f 189/1/338 183/1/338 188/1/338
f 190/1/335 188/1/337 186/1/339
f 193/1/340 190/1/340 186/1/340
f 191/1/341 192/1/341 190/1/341
f 191/1/342 190/1/342 193/1/342
f 192/1/343 189/1/343 190/1/343
f 193/1/344 186/1/344 194/1/344
f 196/1/345 193/1/345 194/1/345
f 195/1/346 191/1/347 193/1/348
f 195/1/346 193/1/348 196/1/349
f 196/1/350 194/1/350 198/1/350
f 197/1/351 195/1/352 196/1/353
f 197/1/351 196/1/353 199/1/354
f 199/1/355 196/1/355 198/1/355
f 200/1/356 197/1/356 199/1/356
f 200/1/357 199/1/357 202/1/357
f 199/1/358 198/1/358 201/1/358
f 202/1/359 199/1/359 201/1/359
f 204/1/360 200/1/360 202/1/360
f 204/1/361 202/1/361 4/1/361
f 202/1/362 6/1/362 4/1/362
f 202/1/363 201/1/363 203/1/363
f 202/1/364 203/1/364 6/1/364
f 204/1/365 205/1/365 207/1/365
f 205/1/366 204/1/366 4/1/366
f 200/1/367 204/1/367 206/1/367
f 204/1/368 207/1/368 206/1/368
f 210/1/369 208/1/369 207/1/369
f 208/1/370 209/1/370 207/1/370
f 206/1/371 207/1/371 209/1/371
f 210/1/372 207/1/372 205/1/372
f 211/1/373 208/1/373 210/1/373
f 210/1/374 212/1/374 211/1/374
f 210/1/375 2/1/375 212/1/375
f 205/1/376 2/1/376 210/1/376
f 212/1/377 11/1/377 14/1/377
f 212/1/378 3/1/378 11/1/378
f 212/1/379 14/1/379 20/1/379
f 211/1/380 212/1/380 20/1/380
f 212/1/381 2/1/381 3/1/381
f 213/1/382 214/1/382 211/1/382
f 211/1/383 20/1/383 213/1/383
f 211/1/384 214/1/384 208/1/384
f 214/1/385 215/1/385 216/1/385
f 217/1/386 215/1/386 214/1/386
f 214/1/387 216/1/387 208/1/387
f 213/1/388 217/1/388 214/1/388
f 219/1/389 218/1/389 217/1/389
f 218/1/390 220/1/390 217/1/390
f 219/1/391 217/1/391 213/1/391
f 217/1/392 220/1/392 215/1/392
f 218/1/393 221/1/393 220/1/393
f 221/1/394 50/1/394 220/1/394
f 220/1/395 50/1/395 53/1/395
f 220/1/396 53/1/396 215/1/396
f 221/1/397 44/1/397 50/1/397
f 222/1/398 221/1/398 218/1/398
f 222/1/399 41/1/399 221/1/399
f 41/1/400 44/1/400 221/1/400
f 223/1/401 38/1/401 222/1/401
f 223/1/402 222/1/402 224/1/402
f 224/1/403 222/1/403 218/1/403
f 38/1/404 41/1/404 222/1/404
f 224/1/405 26/1/405 223/1/405
f 224/1/406 23/1/406 26/1/406
f 224/1/407 218/1/407 219/1/407
f 219/1/408 23/1/409 224/1/410
f 223/1/411 26/1/411 29/1/411
f 223/1/412 34/1/412 38/1/412
f 223/1/413 225/1/413 34/1/413
f 223/1/414 29/1/414 225/1/414
f 29/1/50 34/1/52 225/1/415
f 219/1/408 21/1/416 23/1/409
f 213/1/417 21/1/418 219/1/419
f 208/1/420 216/1/420 209/1/420
f 216/1/421 61/1/422 209/1/423
f 216/1/421 56/1/424 61/1/422
f 215/1/425 56/1/426 216/1/427
f 215/1/425 53/1/428 56/1/426
f 213/1/417 20/1/429 21/1/418
f 226/1/430 209/1/431 61/1/432
f 206/1/433 209/1/433 226/1/433
f 226/1/430 61/1/432 58/1/434
f 228/1/435 226/1/436 58/1/437
f 227/1/438 206/1/438 226/1/438
f 227/1/439 226/1/439 228/1/439
f 228/1/435 58/1/437 229/1/440
f 231/1/441 228/1/441 229/1/441
f 230/1/442 227/1/442 228/1/442
f 230/1/443 228/1/443 231/1/443
f 234/1/444 231/1/444 232/1/444
f 231/1/445 229/1/445 232/1/445
f 233/1/446 230/1/446 231/1/446
f 233/1/447 231/1/447 234/1/447
f 234/1/448 232/1/448 235/1/448
f 237/1/449 234/1/449 235/1/449
f 236/1/450 233/1/450 234/1/450
f 236/1/451 234/1/451 237/1/451
f 240/1/452 237/1/452 238/1/452
f 237/1/453 235/1/453 238/1/453
f 239/1/454 236/1/454 237/1/454
f 239/1/455 237/1/455 240/1/455
f 240/1/456 238/1/456 242/1/456
f 239/1/457 240/1/457 241/1/457
f 240/1/458 243/1/458 241/1/458
f 240/1/459 242/1/459 243/1/459
f 245/1/460 241/1/461 243/1/462
f 242/1/463 244/1/463 243/1/463
f 246/1/464 243/1/464 244/1/464
f 245/1/460 243/1/462 246/1/465
f 246/1/466 169/1/466 172/1/466
f 246/1/467 244/1/467 169/1/467
f 245/1/468 246/1/468 178/1/468
f 246/1/469 172/1/469 178/1/469
f 247/1/470 241/1/471 245/1/472
f 247/1/473 245/1/473 180/1/473
f 245/1/474 178/1/474 180/1/474
f 247/1/470 248/1/475 241/1/471
f 189/1/476 248/1/477 247/1/478
f 189/1/479 247/1/479 183/1/479
f 247/1/480 180/1/480 183/1/480
f 192/1/481 239/1/481 248/1/481
f 192/1/482 248/1/482 249/1/482
f 239/1/483 241/1/483 248/1/483
f 189/1/476 249/1/484 248/1/477
f 192/1/485 249/1/485 189/1/485
f 242/1/486 250/1/486 244/1/486
f 250/1/487 166/1/487 244/1/487
f 169/1/488 244/1/488 166/1/488
f 250/1/489 167/1/489 166/1/489
f 250/1/490 251/1/490 252/1/490
f 242/1/491 251/1/491 250/1/491
f 250/1/492 252/1/492 167/1/492
f 254/1/493 253/1/493 252/1/493
f 253/1/494 158/1/494 252/1/494
f 254/1/495 252/1/495 251/1/495
f 252/1/496 158/1/496 161/1/496
f 252/1/497 161/1/497 167/1/497
f 255/1/498 253/1/498 254/1/498
f 235/1/499 255/1/499 254/1/499
f 238/1/500 235/1/500 254/1/500
f 238/1/501 254/1/501 251/1/501
f 235/1/502 232/1/502 255/1/502
f 255/1/503 257/1/503 253/1/503
f 232/1/504 256/1/504 255/1/504
f 256/1/505 257/1/505 255/1/505
f 256/1/506 258/1/506 257/1/506
f 258/1/507 155/1/507 257/1/507
f 257/1/508 155/1/508 156/1/508
f 257/1/509 156/1/509 253/1/509
f 59/1/510 60/1/511 258/1/512
f 60/1/511 66/1/513 258/1/512
f 59/1/514 258/1/514 256/1/514
f 258/1/515 66/1/515 155/1/515
f 229/1/516 59/1/516 256/1/516
f 232/1/517 229/1/517 256/1/517
f 253/1/518 156/1/518 158/1/518
f 242/1/519 238/1/519 251/1/519
f 192/1/520 236/1/520 239/1/520
f 192/1/521 191/1/521 236/1/521
f 191/1/522 233/1/522 236/1/522
f 191/1/523 195/1/523 233/1/523
f 195/1/524 230/1/524 233/1/524
f 195/1/525 197/1/525 230/1/525
f 197/1/526 227/1/526 230/1/526
f 229/1/527 58/1/527 59/1/527
f 197/1/528 200/1/528 227/1/528
f 200/1/529 206/1/529 227/1/529
f 205/1/530 5/1/530 2/1/530
f 205/1/531 4/1/531 5/1/531
f 201/1/532 259/1/532 203/1/532
f 203/1/533 8/1/533 6/1/533
f 203/1/534 259/1/534 8/1/534
f 201/1/535 260/1/536 259/1/537
f 260/1/538 261/1/538 259/1/538
f 259/1/539 261/1/539 262/1/539
f 259/1/540 262/1/540 8/1/540
f 8/1/9 262/1/541 9/1/10
f 262/1/542 263/1/543 9/1/544
f 262/1/542 264/1/545 263/1/543
f 261/1/546 264/1/547 262/1/548
f 264/1/549 141/1/549 263/1/549
f 264/1/550 266/1/550 141/1/550
f 261/1/546 265/1/551 264/1/547
f 265/1/552 266/1/552 264/1/552
f 266/1/553 268/1/553 267/1/553
f 266/1/554 267/1/554 142/1/554
f 265/1/555 268/1/555 266/1/555
f 141/1/259 266/1/556 142/1/260
f 268/1/557 270/1/557 269/1/557
f 268/1/558 269/1/558 267/1/558
f 271/1/559 270/1/559 268/1/559
f 271/1/560 268/1/560 265/1/560
f 273/1/561 272/1/561 271/1/561
f 272/1/562 270/1/562 271/1/562
f 273/1/563 271/1/563 274/1/563
f 274/1/564 271/1/565 265/1/566
f 275/1/567 273/1/567 274/1/567
f 275/1/568 274/1/568 260/1/568
f 260/1/569 274/1/569 261/1/569
f 274/1/564 265/1/566 261/1/570
f 194/1/571 187/1/571 275/1/571
f 194/1/572 275/1/572 198/1/572
f 198/1/573 275/1/573 260/1/573
f 187/1/574 273/1/574 275/1/574
f 184/1/575 272/1/575 273/1/575
f 187/1/576 184/1/576 273/1/576
f 272/1/577 276/1/577 270/1/577
f 181/1/578 276/1/578 272/1/578
f 184/1/579 181/1/579 272/1/579
f 270/1/580 276/1/580 277/1/580
f 276/1/581 175/1/581 176/1/581
f 181/1/582 175/1/582 276/1/582
f 276/1/583 176/1/583 277/1/583
f 269/1/584 277/1/584 278/1/584
f 277/1/585 279/1/585 278/1/585
f 277/1/586 176/1/586 279/1/586
f 270/1/587 277/1/587 269/1/587
f 279/1/588 174/1/588 280/1/588
f 279/1/589 280/1/589 153/1/589
f 278/1/590 279/1/590 153/1/590
f 176/1/591 174/1/591 279/1/591
f 174/1/592 281/1/592 280/1/592
f 280/1/593 152/1/593 153/1/593
f 280/1/594 159/1/594 152/1/594
f 281/1/595 159/1/595 280/1/595
f 281/1/596 162/1/596 159/1/596
f 171/1/597 162/1/597 281/1/597
f 174/1/598 171/1/598 281/1/598
f 278/1/599 153/1/599 147/1/599
f 148/1/600 278/1/600 147/1/600
f 269/1/601 278/1/601 148/1/601
f 267/1/602 269/1/602 148/1/602
f 267/1/603 148/1/603 144/1/603
f 142/1/604 267/1/604 144/1/604
f 12/1/605 9/1/606 263/1/607
f 282/1/608 263/1/608 141/1/608
f 12/1/605 263/1/607 282/1/609
f 129/1/610 282/1/610 136/1/610
f 282/1/611 141/1/611 136/1/611
f 15/1/612 12/1/613 282/1/614
f 15/1/612 282/1/614 129/1/615
f 198/1/616 260/1/536 201/1/535
f 186/1/617 187/1/617 194/1/617
f 171/1/618 164/1/618 162/1/618
f 66/1/619 150/1/619 155/1/619
f 66/1/620 67/1/620 150/1/620
f 141/1/256 135/1/258 136/1/621
f 129/1/622 136/1/622 128/1/622
f 17/1/219 15/1/623 129/1/220
f 118/1/624 93/1/624 96/1/624
f 118/1/193 96/1/625 114/1/194
f 35/1/626 32/1/626 117/1/626
f 35/1/627 117/1/627 112/1/627
f 114/1/194 96/1/625 98/1/628
f 35/1/59 112/1/629 37/1/60
f 98/1/630 99/1/630 107/1/630
f 55/1/87 52/1/86 82/1/631
f 55/1/632 82/1/632 63/1/632
