# Blender 5.2.0 LTS
# www.blender.org
mtllib player_left.mtl
o ICO球.005
v 0.679623 -0.121562 -0.055657
v 0.657118 -0.116146 -0.057230
v 0.702127 -0.116146 -0.057230
v 0.679623 -0.206051 -0.014080
v 0.679623 0.047433 -0.142742
v 0.698790 -0.197585 -0.016150
v 0.660455 -0.197585 -0.016150
v 0.660346 -0.217057 0.000000
v 0.662465 -0.191338 -0.013330
v 0.662602 -0.210354 0.000000
v 0.649184 -0.150166 0.000000
v 0.662465 -0.191338 0.013330
v 0.660455 -0.197585 0.016150
v 0.679623 -0.206051 0.014080
v 0.657118 -0.116146 0.057230
v 0.679623 -0.121562 0.055657
v 0.702127 -0.116146 0.057230
v 0.679623 0.047433 0.142742
v 0.698790 -0.197585 0.016150
v 0.698899 -0.217057 0.000000
v 0.696781 -0.191338 0.013330
v 0.696644 -0.210354 0.000000
v 0.710062 -0.150166 0.000000
v 0.696781 -0.191338 -0.013330
v 0.700589 -0.110349 -0.052824
v 0.709808 -0.132096 -0.028284
v 0.713024 -0.084748 -0.060208
v 0.726721 0.012268 -0.067472
v 0.727622 -0.005443 0.000000
v 0.746566 0.181040 -0.000000
v 0.726721 0.012268 0.067472
v 0.709808 -0.132096 0.028284
v 0.713024 -0.084748 0.060208
v 0.700589 -0.110349 0.052824
v 0.703412 0.052494 0.135755
v 0.705007 0.046888 0.140339
v 0.714147 0.245701 0.250077
v 0.679623 0.247907 0.255398
v 0.712021 0.251572 0.245769
v 0.735832 0.235790 0.209391
v 0.719799 0.427103 0.350170
v 0.749563 0.411071 0.298326
v 0.768649 0.561770 0.348546
v 0.761446 0.375737 0.172216
v 0.784062 0.520895 0.201373
v 0.786293 0.496000 -0.000000
v 0.794547 0.639630 0.194587
v 0.797066 0.602735 -0.000000
v 0.814926 0.686771 -0.000000
v 0.794547 0.639630 -0.194587
v 0.812054 0.737477 -0.164242
v 0.784062 0.520895 -0.201373
v 0.812054 0.737477 0.164242
v 0.792515 0.820559 0.284515
v 0.809507 0.815358 0.128375
v 0.790804 0.907875 0.220795
v 0.781834 0.933925 0.170341
v 0.744412 0.952960 0.256730
v 0.748090 0.960786 0.259231
v 0.744605 0.858961 0.334182
v 0.743499 0.968187 0.176336
v 0.746925 0.976965 0.175336
v 0.679623 0.984162 0.176474
v 0.748090 0.899933 0.089202
v 0.679623 0.967663 0.264256
v 0.679623 0.904122 0.088095
v 0.679623 0.844200 -0.000000
v 0.611156 0.899933 0.089202
v 0.612320 0.976965 0.175336
v 0.615746 0.968187 0.176336
v 0.611156 0.960786 0.259231
v 0.614834 0.952960 0.256730
v 0.614640 0.858961 0.334182
v 0.568442 0.907875 0.220795
v 0.566731 0.820559 0.284515
v 0.577411 0.933925 0.170341
v 0.568030 0.866502 0.100933
v 0.549738 0.815358 0.128375
v 0.614491 0.891850 0.091863
v 0.614113 0.831880 -0.000000
v 0.610768 0.840895 -0.000000
v 0.611156 0.899933 -0.089202
v 0.614491 0.891850 -0.091863
v 0.568030 0.866502 -0.100933
v 0.615746 0.968187 -0.176336
v 0.577411 0.933925 -0.170340
v 0.568442 0.907875 -0.220795
v 0.549738 0.815358 -0.128375
v 0.614834 0.952960 -0.256730
v 0.611156 0.960786 -0.259231
v 0.614640 0.858961 -0.334182
v 0.612320 0.976965 -0.175336
v 0.566731 0.820559 -0.284515
v 0.581686 0.699366 -0.336952
v 0.547191 0.737477 -0.164242
v 0.564698 0.639630 -0.194587
v 0.562179 0.602735 -0.000000
v 0.575184 0.520895 -0.201373
v 0.590597 0.561770 -0.348546
v 0.628529 0.580767 -0.409072
v 0.609683 0.411071 -0.298326
v 0.639447 0.427103 -0.350170
v 0.623408 0.727431 -0.395761
v 0.619818 0.729061 -0.401091
v 0.625214 0.578179 -0.414282
v 0.679623 0.580973 -0.423097
v 0.636842 0.421651 -0.354581
v 0.679623 0.733283 -0.409625
v 0.679623 0.869720 -0.345911
v 0.739428 0.729061 -0.401091
v 0.734031 0.578179 -0.414282
v 0.722404 0.421651 -0.354581
v 0.730716 0.580767 -0.409072
v 0.735837 0.727431 -0.395761
v 0.744605 0.858961 -0.334182
v 0.777559 0.699366 -0.336952
v 0.768649 0.561770 -0.348546
v 0.749563 0.411071 -0.298326
v 0.719798 0.427103 -0.350170
v 0.712021 0.251572 -0.245769
v 0.714147 0.245701 -0.250077
v 0.679623 0.247907 -0.255398
v 0.705007 0.046888 -0.140339
v 0.679623 0.423958 -0.362125
v 0.645099 0.245701 -0.250077
v 0.654239 0.046888 -0.140339
v 0.647224 0.251572 -0.245769
v 0.623414 0.235790 -0.209391
v 0.655833 0.052494 -0.135755
v 0.638969 0.043632 -0.117480
v 0.658656 -0.110349 -0.052824
v 0.646221 -0.084748 -0.060208
v 0.649438 -0.132096 -0.028284
v 0.632525 0.012268 -0.067472
v 0.631623 -0.005443 0.000000
v 0.613984 0.201455 -0.120947
v 0.612679 0.181040 -0.000000
v 0.596133 0.354571 -0.000000
v 0.613984 0.201455 0.120947
v 0.632525 0.012268 0.067472
v 0.649438 -0.132096 0.028284
v 0.638969 0.043632 0.117480
v 0.646221 -0.084748 0.060208
v 0.658656 -0.110349 0.052824
v 0.655833 0.052494 0.135755
v 0.654239 0.046888 0.140339
v 0.647224 0.251572 0.245769
v 0.623414 0.235790 0.209391
v 0.609683 0.411071 0.298326
v 0.597799 0.375737 0.172216
v 0.575184 0.520895 0.201373
v 0.572952 0.496000 -0.000000
v 0.597799 0.375737 -0.172216
v 0.590597 0.561770 0.348546
v 0.564698 0.639630 0.194587
v 0.581686 0.699366 0.336952
v 0.547191 0.737477 0.164242
v 0.544320 0.686771 -0.000000
v 0.547039 0.757177 -0.000000
v 0.566045 0.809412 -0.000000
v 0.623408 0.727431 0.395761
v 0.619818 0.729061 0.401091
v 0.628529 0.580767 0.409072
v 0.625214 0.578179 0.414282
v 0.679623 0.580973 0.423097
v 0.636842 0.421651 0.354581
v 0.679623 0.733283 0.409625
v 0.679623 0.869720 0.345911
v 0.739428 0.729061 0.401091
v 0.734031 0.578179 0.414282
v 0.722404 0.421651 0.354581
v 0.730716 0.580767 0.409072
v 0.735837 0.727431 0.395761
v 0.777559 0.699366 0.336952
v 0.679623 0.423958 0.362126
v 0.645099 0.245701 0.250077
v 0.639447 0.427103 0.350170
v 0.748478 0.863918 0.338704
v 0.610768 0.863918 0.338704
v 0.703412 0.052494 -0.135755
v 0.720277 0.043632 -0.117480
v 0.735832 0.235790 -0.209391
v 0.745261 0.201455 -0.120947
v 0.761446 0.375737 -0.172216
v 0.763112 0.354571 -0.000000
v 0.745261 0.201455 0.120947
v 0.720277 0.043632 0.117480
v 0.792515 0.820559 -0.284515
v 0.790804 0.907875 -0.220795
v 0.744412 0.952960 -0.256730
v 0.748090 0.960786 -0.259231
v 0.743499 0.968187 -0.176336
v 0.746925 0.976965 -0.175336
v 0.781834 0.933925 -0.170340
v 0.791215 0.866502 -0.100933
v 0.744755 0.891850 -0.091863
v 0.809507 0.815358 -0.128375
v 0.812206 0.757177 -0.000000
v 0.793200 0.809412 -0.000000
v 0.745132 0.831880 -0.000000
v 0.791216 0.866502 0.100933
v 0.744755 0.891850 0.091863
v 0.748478 0.840895 -0.000000
v 0.748090 0.899933 -0.089202
v 0.679623 0.904122 -0.088095
v 0.679623 0.984162 -0.176474
v 0.679623 0.967663 -0.264256
v 0.748478 0.863918 -0.338704
v 0.610768 0.863918 -0.338704
v 0.679623 -0.225783 0.000000
vn -0.0463 -0.4514 -0.8911
vn -0.0462 -0.4519 -0.8909
vn -0.0475 -0.4574 -0.8880
vn -0.0481 -0.4575 -0.8879
vn 0.0474 -0.4573 -0.8880
vn 0.0462 -0.4519 -0.8909
vn 0.0463 -0.4514 -0.8911
vn 0.0481 -0.4575 -0.8879
vn -0.0976 -0.4394 -0.8930
vn 0.0977 -0.4394 -0.8930
vn -0.9258 0.1393 0.3513
vn -0.1947 -0.6255 -0.7555
vn -0.8865 0.2983 0.3538
vn -0.9455 0.1824 0.2699
vn -0.8865 0.2983 -0.3538
vn -0.9348 -0.2084 0.2877
vn -0.9348 -0.2084 -0.2877
vn -0.9455 0.1824 -0.2699
vn -0.1947 -0.6255 0.7555
vn -0.0976 -0.4394 0.8930
vn -0.9258 0.1393 -0.3513
vn -0.0463 -0.4514 0.8911
vn -0.0475 -0.4574 0.8880
vn -0.0462 -0.4519 0.8909
vn -0.0481 -0.4575 0.8879
vn 0.0464 -0.4514 0.8911
vn 0.0462 -0.4519 0.8909
vn 0.0474 -0.4573 0.8880
vn 0.0481 -0.4575 0.8879
vn 0.0977 -0.4394 0.8930
vn 0.8866 0.2982 -0.3536
vn 0.1947 -0.6255 0.7555
vn 0.9259 0.1392 -0.3512
vn 0.9455 0.1823 -0.2698
vn 0.8866 0.2982 0.3536
vn 0.9348 -0.2084 0.2877
vn 0.9348 -0.2084 -0.2877
vn 0.9455 0.1823 0.2698
vn 0.9259 0.1392 0.3512
vn 0.9675 0.0726 0.2422
vn 0.7660 -0.3105 -0.5629
vn 0.9526 -0.2523 -0.1698
vn 0.9891 -0.1200 -0.0856
vn 0.5966 -0.4761 -0.6461
vn 0.9817 -0.1476 -0.1200
vn 0.9906 -0.1288 -0.0470
vn 0.9940 -0.1048 0.0303
vn 0.9941 -0.1010 0.0398
vn 0.9942 -0.1010 0.0367
vn 0.9941 -0.1010 -0.0398
vn 0.9891 -0.1200 0.0856
vn 0.9906 -0.1288 0.0470
vn 0.9526 -0.2523 0.1698
vn 0.9817 -0.1476 0.1200
vn 0.5966 -0.4761 0.6461
vn 0.7660 -0.3105 0.5629
vn 0.9715 0.0939 -0.2178
vn 0.9718 0.0932 -0.2166
vn 0.9710 0.0949 -0.2195
vn 0.9675 0.0726 -0.2422
vn 0.3863 -0.4239 0.8192
vn 0.9706 0.0956 -0.2208
vn 0.0743 -0.4539 0.8879
vn 0.9689 0.0862 -0.2318
vn 0.1030 -0.4843 0.8688
vn 0.9461 0.1222 -0.2999
vn 0.9464 0.1228 -0.2987
vn 0.9480 0.1292 -0.2909
vn 0.0718 -0.4886 0.8695
vn 0.9481 0.1305 -0.2900
vn 0.6958 -0.3699 0.6157
vn 0.6971 -0.3676 0.6156
vn 0.6973 -0.3670 0.6157
vn 0.6954 -0.3704 0.6158
vn 0.7576 -0.3581 0.5457
vn 0.7923 -0.2809 0.5417
vn 0.9733 -0.1736 0.1501
vn 0.9733 -0.1800 0.1426
vn 0.9734 -0.1733 0.1501
vn 0.9806 -0.1442 0.1328
vn 0.9733 -0.1802 0.1422
vn 0.9888 -0.0801 0.1258
vn 0.9947 -0.1004 0.0234
vn 0.9864 -0.1614 0.0296
vn 0.9866 -0.1601 0.0306
vn 0.9867 -0.1599 0.0307
vn 0.9958 -0.0863 0.0292
vn 0.9749 -0.2072 0.0810
vn 0.9749 -0.2072 -0.0810
vn 0.9947 -0.1004 -0.0234
vn 0.9958 -0.0863 -0.0292
vn 0.9857 -0.1628 -0.0436
vn 0.9857 -0.1628 0.0436
vn 0.9682 -0.1025 0.2281
vn 0.9910 0.0910 0.0981
vn 0.9995 0.0321 -0.0000
vn 0.9993 0.0380 0.0042
vn 0.9993 0.0357 0.0065
vn 0.9897 0.0853 0.1149
vn 0.7558 0.6268 0.1893
vn 0.9690 0.2428 -0.0469
vn 0.7694 0.3863 0.5087
vn 0.9121 -0.4000 -0.0898
vn 0.8823 -0.2983 -0.3642
vn 0.7948 0.3869 0.4676
vn 0.6720 0.7290 0.1304
vn 0.9254 -0.3704 -0.0807
vn 0.0580 0.7439 -0.6657
vn 0.0662 0.7403 -0.6690
vn 0.0678 0.7395 -0.6697
vn 0.1079 0.9770 0.1839
vn 0.1114 0.9761 0.1864
vn 0.1076 0.9771 0.1836
vn 0.1117 0.9760 0.1867
vn 0.9007 -0.3178 0.2964
vn 0.0563 0.7446 -0.6651
vn -0.0596 0.8254 -0.5614
vn 0.0596 0.8254 -0.5614
vn -0.0580 0.7439 -0.6657
vn -0.0678 0.7395 -0.6697
vn -0.0662 0.7403 -0.6690
vn -0.0563 0.7446 -0.6651
vn -0.1079 0.9770 0.1838
vn -0.1076 0.9771 0.1836
vn -0.1115 0.9761 0.1865
vn -0.9254 -0.3704 -0.0806
vn -0.9007 -0.3178 0.2964
vn -0.9121 -0.4000 -0.0898
vn -0.1117 0.9760 0.1867
vn -0.8823 -0.2983 -0.3642
vn -0.7948 0.3869 0.4675
vn -0.6720 0.7290 0.1305
vn -0.7558 0.6268 0.1893
vn -0.7694 0.3863 0.5087
vn -0.4746 0.6626 -0.5795
vn -0.9537 0.2695 -0.1334
vn -0.9537 0.2697 -0.1331
vn -0.9537 0.2696 -0.1333
vn -0.4904 0.6502 -0.5803
vn -0.9690 0.2428 -0.0469
vn -0.9175 -0.2883 0.2742
vn -0.9261 -0.3127 0.2110
vn -0.4911 0.7303 -0.4748
vn -0.9135 -0.3389 0.2250
vn -0.0400 0.8333 0.5514
vn -0.0400 0.8333 -0.5514
vn -0.9261 -0.3127 -0.2110
vn -0.9135 -0.3389 -0.2250
vn -0.9175 -0.2883 -0.2742
vn -0.4746 0.6626 0.5795
vn -0.4911 0.7303 0.4748
vn -0.4904 0.6502 0.5803
vn -0.9537 0.2695 0.1334
vn -0.9537 0.2696 0.1333
vn -0.9537 0.2697 0.1331
vn -0.6720 0.7290 -0.1305
vn -0.7558 0.6268 -0.1893
vn -0.9690 0.2428 0.0469
vn -0.9121 -0.4000 0.0898
vn -0.8823 -0.2983 0.3642
vn -0.7694 0.3863 -0.5087
vn -0.9254 -0.3704 0.0806
vn -0.7948 0.3869 -0.4675
vn -0.7716 0.1700 -0.6129
vn -0.9879 -0.0596 -0.1432
vn -0.9879 -0.0600 -0.1431
vn -0.9887 -0.0525 -0.1402
vn -0.9910 0.0910 -0.0981
vn -0.9682 -0.1025 -0.2281
vn -0.9958 -0.0863 -0.0292
vn -0.9857 -0.1628 -0.0436
vn -0.9888 -0.0522 -0.1399
vn -0.9888 -0.0801 -0.1258
vn -0.8147 -0.0039 -0.5799
vn -0.7739 -0.2739 -0.5710
vn -0.8498 0.0181 -0.5269
vn -0.9733 -0.1799 -0.1427
vn -0.9734 -0.1733 -0.1501
vn -0.9733 -0.1736 -0.1501
vn -0.7923 -0.2809 -0.5417
vn -0.8339 -0.2786 0.4764
vn -0.8377 -0.0772 0.5406
vn -0.8409 0.1825 -0.5095
vn -0.8226 -0.0798 0.5630
vn -0.1336 -0.3610 -0.9229
vn -0.1310 -0.3618 -0.9230
vn -0.1405 -0.3590 -0.9227
vn -0.1637 0.0869 -0.9827
vn -0.8638 0.1223 0.4889
vn -0.1464 0.0810 -0.9859
vn 0.1572 0.4179 -0.8948
vn -0.1572 0.4179 -0.8948
vn 0.1637 0.0869 -0.9827
vn 0.1464 0.0810 -0.9859
vn 0.1405 -0.3591 -0.9227
vn 0.1310 -0.3618 -0.9230
vn 0.1336 -0.3610 -0.9229
vn 0.8638 0.1223 0.4889
vn 0.8376 -0.0772 0.5407
vn 0.8226 -0.0798 0.5630
vn 0.8338 -0.2787 0.4765
vn 0.8409 0.1825 -0.5095
vn 0.8147 -0.0039 -0.5799
vn 0.8498 0.0181 -0.5269
vn 0.9888 -0.0522 -0.1399
vn 0.9887 -0.0525 -0.1402
vn 0.9879 -0.0596 -0.1432
vn 0.9733 -0.1736 -0.1501
vn 0.9734 -0.1733 -0.1501
vn 0.9733 -0.1800 -0.1426
vn 0.9888 -0.0801 -0.1258
vn 0.7739 -0.2739 -0.5710
vn 0.7923 -0.2809 -0.5417
vn 0.9242 0.1620 0.3458
vn 0.9042 0.0954 0.4163
vn 0.7576 -0.3581 -0.5457
vn 0.9480 0.1291 0.2909
vn 0.9481 0.1305 0.2900
vn 0.9464 0.1228 0.2987
vn 0.1030 -0.4843 -0.8688
vn 0.0982 -0.5159 -0.8510
vn 0.1225 -0.5111 -0.8508
vn 0.9461 0.1222 0.2999
vn -0.1434 -0.3582 -0.9226
vn 0.1434 -0.3582 -0.9226
vn -0.0982 -0.5159 -0.8510
vn -0.1225 -0.5111 -0.8508
vn -0.1030 -0.4843 -0.8688
vn -0.9243 0.1619 0.3457
vn -0.9460 0.1222 0.3001
vn -0.9463 0.1231 0.2989
vn -0.9479 0.1294 0.2911
vn -0.9481 0.1304 0.2899
vn -0.6970 -0.3676 -0.6156
vn -0.6958 -0.3698 -0.6158
vn -0.6954 -0.3704 -0.6158
vn -0.6973 -0.3670 -0.6156
vn -0.7576 -0.3581 -0.5457
vn -0.9690 0.0861 0.2316
vn -0.9715 0.0939 0.2178
vn -0.9710 0.0949 0.2195
vn -0.9707 0.0955 0.2207
vn -0.5948 -0.3553 -0.7211
vn -0.5743 -0.3906 -0.7194
vn -0.3863 -0.4239 -0.8192
vn -0.9624 -0.1563 -0.2221
vn -0.9633 -0.1535 -0.2204
vn -0.9636 -0.1525 -0.2198
vn -0.5966 -0.4761 -0.6460
vn -0.9818 -0.1476 -0.1199
vn -0.9906 -0.1288 -0.0471
vn -0.9942 -0.1010 -0.0367
vn -0.9940 -0.1048 -0.0303
vn -0.9941 -0.1010 -0.0398
vn -0.9951 -0.0969 -0.0216
vn -0.9622 -0.1572 -0.2226
vn -0.9941 -0.1010 0.0398
vn -0.9951 -0.0969 0.0216
vn -0.9951 -0.0954 0.0264
vn -0.9940 -0.1053 0.0288
vn -0.9951 -0.0954 -0.0264
vn -0.9940 -0.1055 0.0285
vn -0.9906 -0.1288 0.0471
vn -0.9818 -0.1476 0.1199
vn -0.9636 -0.1525 0.2198
vn -0.9633 -0.1535 0.2204
vn -0.9624 -0.1563 0.2221
vn -0.9622 -0.1572 0.2226
vn -0.5948 -0.3553 0.7211
vn -0.3863 -0.4239 0.8192
vn -0.5966 -0.4761 0.6460
vn -0.9715 0.0939 -0.2178
vn -0.9707 0.0955 -0.2207
vn -0.9710 0.0949 -0.2195
vn -0.9690 0.0861 -0.2316
vn -0.6954 -0.3704 0.6158
vn -0.6957 -0.3698 0.6158
vn -0.6970 -0.3676 0.6156
vn -0.5743 -0.3906 0.7194
vn -0.9736 -0.1578 0.1650
vn -0.9806 -0.1442 0.1328
vn -0.6973 -0.3670 0.6156
vn -0.9779 -0.1372 0.1575
vn -0.9949 -0.0988 0.0218
vn -0.9733 -0.1736 0.1501
vn -0.9733 -0.1800 0.1426
vn -0.9733 -0.1802 0.1422
vn -0.9864 -0.1615 0.0296
vn -0.9867 -0.1599 0.0307
vn -0.9865 -0.1609 0.0300
vn -0.9864 -0.1617 0.0294
vn -0.9865 -0.1609 -0.0300
vn -0.9867 -0.1599 -0.0307
vn -0.9864 -0.1614 -0.0296
vn -0.9947 -0.1004 -0.0234
vn -0.9947 -0.1004 0.0234
vn -0.9864 -0.1617 -0.0294
vn -0.9949 -0.0988 -0.0218
vn -0.9733 -0.1802 -0.1422
vn -0.9806 -0.1442 -0.1328
vn -0.9779 -0.1372 -0.1575
vn -0.9734 -0.1733 0.1501
vn -0.9888 -0.0801 0.1258
vn -0.9958 -0.0863 0.0292
vn -0.9879 -0.0596 0.1432
vn -0.9887 -0.0525 0.1402
vn -0.9879 -0.0600 0.1431
vn -0.9888 -0.0522 0.1399
vn -0.9857 -0.1628 0.0436
vn -0.9682 -0.1025 0.2281
vn -0.9995 0.0320 -0.0000
vn -0.9993 0.0357 0.0065
vn -0.9993 0.0380 0.0042
vn -0.9749 -0.2072 0.0810
vn -0.9910 0.0910 0.0981
vn -0.9897 0.0853 0.1149
vn -0.9749 -0.2072 -0.0810
vn -0.9993 0.0386 -0.0000
vn -0.9993 0.0380 -0.0042
vn -0.9993 0.0357 -0.0065
vn -0.9313 0.3388 -0.1340
vn -0.9313 0.3388 0.1340
vn -0.3781 0.8090 0.4501
vn -0.9537 0.2694 0.1336
vn -0.3781 0.8090 -0.4501
vn -0.9537 0.2694 -0.1336
vn -0.7716 0.1700 0.6129
vn -0.8147 -0.0039 0.5799
vn -0.8409 0.1825 0.5095
vn -0.8377 -0.0772 -0.5406
vn -0.8339 -0.2786 -0.4764
vn -0.8498 0.0181 0.5269
vn -0.8226 -0.0798 -0.5630
vn -0.1637 0.0869 0.9827
vn -0.1337 -0.3610 0.9229
vn -0.1405 -0.3591 0.9227
vn -0.1310 -0.3618 0.9230
vn -0.8638 0.1223 -0.4889
vn -0.1464 0.0810 0.9859
vn -0.1572 0.4179 0.8948
vn 0.1572 0.4179 0.8948
vn 0.1637 0.0869 0.9827
vn 0.1464 0.0810 0.9859
vn 0.1337 -0.3610 0.9229
vn 0.1310 -0.3618 0.9230
vn 0.1405 -0.3591 0.9227
vn 0.8638 0.1223 -0.4889
vn 0.8376 -0.0772 -0.5407
vn 0.8226 -0.0798 -0.5630
vn 0.8338 -0.2787 -0.4765
vn 0.8498 0.0181 0.5269
vn 0.8147 -0.0039 0.5799
vn 0.8409 0.1825 0.5095
vn 0.7716 0.1700 0.6129
vn 0.9879 -0.0596 0.1432
vn 0.9879 -0.0600 0.1431
vn 0.9887 -0.0525 0.1402
vn 0.9888 -0.0522 0.1399
vn 0.7739 -0.2739 0.5710
vn 0.9043 0.0953 -0.4162
vn 0.1225 -0.5111 0.8508
vn 0.9243 0.1620 -0.3457
vn 0.1434 -0.3582 0.9226
vn -0.1434 -0.3582 0.9226
vn -0.0982 -0.5159 0.8510
vn 0.0982 -0.5159 0.8510
vn -0.1225 -0.5111 0.8508
vn -0.1030 -0.4843 0.8688
vn -0.9243 0.1619 -0.3457
vn -0.9460 0.1222 -0.3001
vn -0.9479 0.1294 -0.2911
vn -0.9463 0.1231 -0.2989
vn -0.9481 0.1304 -0.2899
vn -0.9043 0.0953 -0.4162
vn -0.7576 -0.3581 0.5457
vn -0.7739 -0.2739 0.5710
vn -0.7923 -0.2809 0.5417
vn 0.1290 0.4092 0.9033
vn 0.8561 -0.2632 -0.4447
vn 0.1332 0.6346 0.7612
vn 0.8636 -0.3177 -0.3914
vn 0.1196 0.6300 0.7673
vn -0.1332 0.6346 0.7612
vn -0.1290 0.4092 0.9033
vn -0.8562 -0.2632 -0.4446
vn -0.8637 -0.3176 -0.3914
vn -0.1196 0.6300 0.7673
vn -0.0743 -0.4539 0.8879
vn -0.9718 0.0932 -0.2166
vn -0.0718 -0.4886 0.8695
vn -0.9675 0.0726 -0.2422
vn -0.7660 -0.3105 0.5629
vn -0.9891 -0.1200 0.0856
vn -0.9526 -0.2523 0.1698
vn -0.9736 -0.1578 -0.1650
vn -0.9891 -0.1200 -0.0856
vn -0.9526 -0.2523 -0.1698
vn -0.7660 -0.3105 -0.5629
vn -0.9718 0.0932 0.2166
vn -0.9675 0.0726 0.2422
vn -0.0743 -0.4539 -0.8879
vn -0.0718 -0.4886 -0.8695
vn 0.0743 -0.4539 -0.8879
vn 0.0718 -0.4886 -0.8695
vn 0.9715 0.0939 0.2178
vn 0.9710 0.0949 0.2195
vn 0.9718 0.0932 0.2166
vn 0.9706 0.0956 0.2208
vn 0.9689 0.0862 0.2318
vn 0.6954 -0.3704 -0.6158
vn 0.6958 -0.3699 -0.6157
vn 0.6971 -0.3676 -0.6156
vn 0.5947 -0.3553 -0.7211
vn 0.5743 -0.3906 -0.7194
vn 0.3863 -0.4239 -0.8192
vn 0.9736 -0.1577 -0.1650
vn 0.9806 -0.1442 -0.1328
vn 0.6973 -0.3670 -0.6157
vn 0.9779 -0.1372 -0.1575
vn 0.9733 -0.1802 -0.1422
vn 0.9864 -0.1614 -0.0296
vn 0.9867 -0.1599 -0.0307
vn 0.9866 -0.1601 -0.0306
vn 0.9951 -0.0969 -0.0216
vn 0.9949 -0.0988 -0.0218
vn 0.9951 -0.0954 -0.0264
vn 0.9864 -0.1617 -0.0294
vn 0.9864 -0.1617 0.0294
vn 0.9951 -0.0969 0.0216
vn 0.9951 -0.0954 0.0264
vn 0.9940 -0.1053 -0.0288
vn 0.9949 -0.0988 0.0218
vn 0.9779 -0.1372 0.1575
vn 0.9736 -0.1577 0.1650
vn 0.9633 -0.1535 0.2204
vn 0.9624 -0.1564 0.2221
vn 0.9622 -0.1572 0.2226
vn 0.5743 -0.3906 0.7194
vn 0.5947 -0.3553 0.7211
vn 0.9636 -0.1525 0.2198
vn 0.9940 -0.1055 -0.0285
vn 0.9633 -0.1535 -0.2204
vn 0.9622 -0.1572 -0.2226
vn 0.9624 -0.1564 -0.2221
vn 0.9636 -0.1525 -0.2198
vn 0.7716 0.1700 -0.6129
vn 0.9879 -0.0600 -0.1431
vn 0.7694 0.3863 -0.5087
vn 0.9910 0.0910 -0.0981
vn 0.9682 -0.1025 -0.2281
vn 0.7948 0.3869 -0.4676
vn 0.8823 -0.2983 0.3642
vn 0.9121 -0.4000 0.0898
vn 0.6720 0.7290 -0.1304
vn 0.9254 -0.3704 0.0807
vn 0.7558 0.6269 -0.1893
vn 0.4904 0.6502 0.5803
vn 0.9537 0.2697 0.1331
vn 0.9537 0.2696 0.1333
vn 0.9537 0.2695 0.1334
vn 0.4746 0.6626 0.5795
vn 0.9690 0.2428 0.0469
vn 0.9897 0.0853 -0.1149
vn 0.9537 0.2694 0.1336
vn 0.9993 0.0380 -0.0042
vn 0.9993 0.0386 -0.0000
vn 0.9313 0.3388 0.1340
vn 0.9993 0.0357 -0.0065
vn 0.3781 0.8090 0.4501
vn 0.3781 0.8090 -0.4501
vn 0.9313 0.3388 -0.1340
vn 0.9537 0.2695 -0.1334
vn 0.9537 0.2694 -0.1336
vn 0.9537 0.2696 -0.1333
vn 0.9537 0.2697 -0.1331
vn 0.4746 0.6626 -0.5795
vn 0.4911 0.7303 -0.4748
vn 0.9261 -0.3127 0.2110
vn 0.9175 -0.2883 0.2742
vn 0.4904 0.6502 -0.5803
vn 0.9135 -0.3390 0.2251
vn 0.0400 0.8333 -0.5514
vn 0.0400 0.8333 0.5514
vn 0.9261 -0.3127 -0.2110
vn 0.9135 -0.3390 -0.2251
vn 0.0662 0.7403 0.6690
vn 0.0563 0.7446 0.6651
vn 0.0580 0.7439 0.6657
vn 0.0596 0.8254 0.5614
vn 0.9007 -0.3178 -0.2964
vn 0.9175 -0.2883 -0.2742
vn -0.0596 0.8254 0.5614
vn -0.0580 0.7439 0.6657
vn -0.0662 0.7403 0.6690
vn -0.0678 0.7395 0.6697
vn 0.0678 0.7395 0.6697
vn -0.0563 0.7446 0.6651
vn 0.1079 0.9770 -0.1839
vn 0.1076 0.9771 -0.1836
vn 0.1114 0.9761 -0.1864
vn -0.1115 0.9761 -0.1865
vn -0.1076 0.9771 -0.1836
vn -0.1079 0.9770 -0.1839
vn -0.1332 0.6346 -0.7612
vn 0.1332 0.6346 -0.7612
vn 0.1196 0.6300 -0.7673
vn 0.1117 0.9760 -0.1867
vn -0.1196 0.6300 -0.7673
vn -0.1117 0.9760 -0.1867
vn -0.1290 0.4092 -0.9033
vn -0.8637 -0.3176 0.3914
vn -0.8562 -0.2632 0.4446
vn 0.1290 0.4092 -0.9033
vn 0.8636 -0.3177 0.3914
vn 0.8561 -0.2632 0.4447
vn 0.4911 0.7303 0.4748
vn -0.9043 0.0953 0.4162
vn -0.9897 0.0853 -0.1149
vn -0.9007 -0.3178 -0.2964
vn 0.2543 -0.5618 0.7873
vn 0.2543 -0.5618 -0.7873
vn 0.1947 -0.6255 -0.7555
vn -0.2543 -0.5618 0.7873
vn -0.2543 -0.5618 -0.7873
vt 0.876508 0.873784
vt 0.876413 0.872152
vt 0.878080 0.872382
vt 0.878103 0.868344
vt 0.848607 0.165229
vt 0.848980 0.166884
vt 0.847320 0.166937
vt 0.852647 0.164870
vt 0.877671 0.874329
vt 0.846680 0.165798
vt 0.876411 0.873741
vt 0.876396 0.874078
vt 0.876337 0.874022
vt 0.876095 0.874196
vt 0.367084 0.952297
vt 0.365884 0.953511
vt 0.365730 0.952929
vt 0.366468 0.953659
vt 0.876044 0.874085
vt 0.876735 0.875335
vt 0.874808 0.875903
vt 0.874435 0.874249
vt 0.870767 0.876263
vt 0.846907 0.167349
vt 0.847002 0.168981
vt 0.845334 0.168751
vt 0.845311 0.172789
vt 0.845743 0.166804
vt 0.847018 0.167055
vt 0.847078 0.167111
vt 0.847003 0.167391
vt 0.418588 0.971232
vt 0.419942 0.971864
vt 0.419788 0.972446
vt 0.419205 0.972594
vt 0.847371 0.167048
vt 0.849006 0.167057
vt 0.417050 0.972610
vt 0.417749 0.971632
vt 0.416320 0.968938
vt 0.416384 0.971605
vt 0.414674 0.970137
vt 0.417537 0.967306
vt 0.413563 0.966150
vt 0.418998 0.970397
vt 0.418986 0.969032
vt 0.419983 0.969710
vt 0.847382 0.172714
vt 0.847178 0.168992
vt 0.420032 0.965488
vt 0.847679 0.172679
vt 0.848499 0.177446
vt 0.848155 0.177601
vt 0.845311 0.177993
vt 0.849373 0.181432
vt 0.419481 0.960231
vt 0.417383 0.961182
vt 0.416171 0.957052
vt 0.418620 0.955530
vt 0.414326 0.954460
vt 0.412221 0.957620
vt 0.414102 0.960040
vt 0.410585 0.956433
vt 0.409030 0.961564
vt 0.407665 0.960183
vt 0.406363 0.958866
vt 0.408721 0.955828
vt 0.403298 0.961189
vt 0.405050 0.964710
vt 0.403881 0.963060
vt 0.410058 0.953169
vt 0.408303 0.952945
vt 0.407417 0.955397
vt 0.408457 0.949561
vt 0.407100 0.952798
vt 0.858347 0.183281
vt 0.856914 0.184234
vt 0.856937 0.184134
vt 0.854921 0.184527
vt 0.411273 0.949830
vt 0.406062 0.950176
vt 0.858360 0.183125
vt 0.863398 0.185252
vt 0.860824 0.187362
vt 0.858139 0.188645
vt 0.859761 0.181352
vt 0.860248 0.863588
vt 0.856072 0.860599
vt 0.857924 0.858189
vt 0.865490 0.182943
vt 0.858662 0.865046
vt 0.854535 0.863318
vt 0.853785 0.865961
vt 0.858799 0.864987
vt 0.858188 0.866460
vt 0.858052 0.866474
vt 0.858090 0.868287
vt 0.375614 0.934234
vt 0.374399 0.930895
vt 0.377215 0.930626
vt 0.379610 0.931241
vt 0.378572 0.933863
vt 0.377369 0.934010
vt 0.381932 0.933029
vt 0.379583 0.935656
vt 0.378255 0.936462
vt 0.860489 0.863831
vt 0.862127 0.861900
vt 0.384036 0.935150
vt 0.862547 0.862316
vt 0.863653 0.859781
vt 0.863891 0.860029
vt 0.865054 0.858007
vt 0.385386 0.940599
vt 0.383581 0.939608
vt 0.386181 0.937230
vt 0.387996 0.939531
vt 0.382790 0.940945
vt 0.388638 0.941918
vt 0.385252 0.941803
vt 0.865068 0.857852
vt 0.866500 0.856899
vt 0.866477 0.856999
vt 0.868494 0.856605
vt 0.385048 0.943561
vt 0.388401 0.944738
vt 0.384958 0.945892
vt 0.381791 0.944125
vt 0.382374 0.942254
vt 0.378007 0.941248
vt 0.380622 0.945775
vt 0.383806 0.947843
vt 0.387826 0.947867
vt 0.386039 0.950360
vt 0.382786 0.952149
vt 0.381235 0.949718
vt 0.870745 0.856363
vt 0.870775 0.856568
vt 0.872581 0.857194
vt 0.872652 0.857395
vt 0.874285 0.859375
vt 0.875466 0.854321
vt 0.872270 0.852522
vt 0.869633 0.172058
vt 0.865269 0.170772
vt 0.868642 0.168795
vt 0.868624 0.851959
vt 0.864230 0.169189
vt 0.866586 0.166034
vt 0.861895 0.167826
vt 0.864036 0.169180
vt 0.865066 0.170803
vt 0.865325 0.172846
vt 0.397271 0.963672
vt 0.400714 0.964827
vt 0.397847 0.966802
vt 0.401866 0.966778
vt 0.399633 0.969295
vt 0.404437 0.968653
vt 0.402887 0.971084
vt 0.857669 0.167281
vt 0.861636 0.168112
vt 0.407578 0.971999
vt 0.857552 0.167626
vt 0.857786 0.164441
vt 0.852751 0.166934
vt 0.862756 0.164618
vt 0.877417 0.858106
vt 0.875260 0.863532
vt 0.878103 0.863139
vt 0.876033 0.868418
vt 0.874041 0.859701
vt 0.874916 0.863687
vt 0.377120 0.950977
vt 0.378094 0.953064
vt 0.372844 0.953675
vt 0.875735 0.868454
vt 0.876237 0.872140
vt 0.369289 0.952670
vt 0.372413 0.952176
vt 0.368622 0.953675
vt 0.370998 0.951202
vt 0.367923 0.952698
vt 0.369352 0.950003
vt 0.372109 0.947215
vt 0.374861 0.949368
vt 0.368135 0.948371
vt 0.369924 0.944487
vt 0.374539 0.944757
vt 0.366674 0.951463
vt 0.366686 0.950097
vt 0.367144 0.946968
vt 0.365641 0.946554
vt 0.365689 0.950775
vt 0.870663 0.874199
vt 0.870671 0.873908
vt 0.874409 0.874076
vt 0.865862 0.873506
vt 0.366192 0.941297
vt 0.368289 0.942246
vt 0.369501 0.938117
vt 0.371571 0.941105
vt 0.373451 0.938685
vt 0.376642 0.942629
vt 0.378225 0.947683
vt 0.371347 0.935525
vt 0.375087 0.937498
vt 0.373284 0.934351
vt 0.376951 0.936893
vt 0.379309 0.939932
vt 0.380166 0.939065
vt 0.381360 0.937857
vt 0.371276 0.931506
vt 0.859185 0.871943
vt 0.858146 0.870361
vt 0.858348 0.870329
vt 0.368804 0.933321
vt 0.859379 0.871953
vt 0.856828 0.875098
vt 0.854772 0.872337
vt 0.861519 0.873307
vt 0.853782 0.869074
vt 0.852670 0.184769
vt 0.854791 0.189174
vt 0.851145 0.188611
vt 0.850834 0.183938
vt 0.847949 0.186811
vt 0.849130 0.181757
vt 0.850763 0.183738
vt 0.852640 0.184565
vt 0.414396 0.950441
vt 0.416868 0.952256
vt 0.412389 0.953286
vt 0.845998 0.183026
vt 0.860659 0.876514
vt 0.865745 0.873851
vt 0.865628 0.876692
vt 0.861779 0.873021
vt 0.367053 0.936595
vt 0.854935 0.184613
vt 0.857982 0.868294
vt 0.852743 0.167225
vt 0.412828 0.972610
vt 0.408552 0.969912
vt 0.413259 0.971111
vt 0.410811 0.968303
vt 0.407448 0.966618
vt 0.411134 0.963692
vt 0.415748 0.963422
vt 0.418528 0.965902
vt 0.400624 0.962496
vt 0.397034 0.960853
vt 0.400420 0.960738
vt 0.865362 0.174659
vt 0.865227 0.174672
vt 0.864752 0.176087
vt 0.397677 0.958466
vt 0.400287 0.959533
vt 0.864616 0.176146
vt 0.399492 0.956165
vt 0.402091 0.958543
vt 0.402882 0.959880
vt 0.404312 0.956792
vt 0.405506 0.957999
vt 0.401636 0.954084
vt 0.406089 0.954591
vt 0.403740 0.951964
vt 0.861287 0.179232
vt 0.859523 0.181104
vt 0.860867 0.178817
vt 0.863167 0.177545
vt 0.862926 0.177302
vt 0.867342 0.180534
vt 0.860016 0.855881
vt 0.862590 0.853771
vt 0.868880 0.177815
vt 0.869629 0.175172
vt 0.865276 0.852488
vt 0.868480 0.856520
vt 0.865433 0.172839
vt 0.846121 0.166217
vt 0.877294 0.874916
s 1
usemtl Player.001
f 7/1/1 2/2/2 1/3/3
f 2/2/2 5/4/4 1/3/3
f 1/5/5 3/6/6 6/7/7
f 5/8/8 3/6/6 1/5/5
f 7/1/9 1/3/9 4/9/9
f 1/5/10 6/7/10 4/10/10
f 2/2/11 7/1/11 9/11/11
f 8/12/12 7/1/12 4/9/12
f 7/1/13 8/12/13 10/13/13
f 7/1/14 10/13/14 9/11/14
f 13/14/15 10/13/15 8/12/15
f 11/15/16 10/16/16 12/17/16
f 11/15/17 9/18/17 10/16/17
f 13/14/18 12/19/18 10/13/18
f 8/12/19 14/20/19 13/14/19
f 13/14/20 14/20/20 16/21/20
f 15/22/21 12/19/21 13/14/21
f 13/14/22 16/21/23 15/22/24
f 15/22/24 16/21/23 18/23/25
f 19/24/26 17/25/27 16/26/28
f 17/25/27 18/27/29 16/26/28
f 19/24/30 16/26/30 14/28/30
f 19/24/31 20/29/31 22/30/31
f 20/29/32 19/24/32 14/28/32
f 17/25/33 19/24/33 21/31/33
f 19/24/34 22/30/34 21/31/34
f 6/7/35 22/30/35 20/29/35
f 23/32/36 21/33/36 22/34/36
f 24/35/37 23/32/37 22/34/37
f 6/7/38 24/36/38 22/30/38
f 3/6/39 24/36/39 6/7/39
f 3/6/40 25/37/40 24/36/40
f 25/38/41 26/39/41 24/35/41
f 24/35/42 26/39/42 23/32/42
f 26/39/43 29/40/43 23/32/43
f 25/38/44 27/41/44 26/39/44
f 27/41/45 28/42/45 26/39/45
f 26/39/46 28/42/46 29/40/46
f 31/43/47 29/40/48 30/44/49
f 28/42/50 30/44/50 29/40/50
f 32/45/51 23/32/51 29/40/51
f 32/45/52 29/40/52 31/43/52
f 23/32/53 32/45/53 21/33/53
f 33/46/54 32/45/54 31/43/54
f 32/45/55 33/46/55 34/47/55
f 32/45/56 34/47/56 21/33/56
f 36/48/57 17/25/58 34/49/59
f 17/25/60 21/31/60 34/49/60
f 33/46/61 35/50/61 34/47/61
f 36/48/57 34/49/59 35/51/62
f 17/25/63 36/48/63 18/27/63
f 36/48/64 35/51/64 39/52/64
f 36/48/65 37/53/65 38/54/65
f 36/48/66 39/52/67 37/53/68
f 36/48/69 38/54/69 18/27/69
f 37/53/68 39/52/67 41/55/70
f 39/56/71 40/57/72 42/58/73
f 35/50/74 40/57/72 39/56/71
f 39/56/75 42/58/75 41/59/75
f 41/59/76 42/58/76 43/60/76
f 42/58/77 45/61/78 43/60/79
f 40/57/80 44/62/80 42/58/80
f 42/58/77 44/62/81 45/61/78
f 43/60/82 45/61/82 47/63/82
f 45/61/83 46/64/83 48/65/83
f 44/62/84 46/64/85 45/61/86
f 45/61/87 48/65/87 47/63/87
f 48/65/88 49/66/88 53/67/88
f 51/68/89 49/66/89 48/65/89
f 52/69/90 48/65/90 46/64/90
f 52/69/91 50/70/91 48/65/91
f 51/68/92 48/65/92 50/70/92
f 48/65/93 53/67/93 47/63/93
f 47/63/94 53/67/94 54/71/94
f 53/67/95 56/72/95 54/71/95
f 49/66/96 55/73/97 53/67/98
f 53/67/99 55/73/99 56/72/99
f 58/74/100 56/72/100 57/75/100
f 55/73/101 57/75/101 56/72/101
f 54/71/102 56/72/102 58/74/102
f 62/76/103 59/77/103 58/78/103
f 59/77/104 60/79/104 58/78/104
f 54/71/105 58/74/105 60/80/105
f 58/74/106 57/75/106 61/81/106
f 62/76/107 58/78/107 61/82/107
f 62/76/108 66/83/109 63/84/110
f 65/85/111 62/76/112 63/84/113
f 65/85/111 59/77/114 62/76/112
f 64/86/115 62/76/115 61/82/115
f 62/76/108 64/86/116 66/83/109
f 68/87/117 66/88/117 67/89/117
f 64/86/118 67/90/118 66/83/118
f 69/91/119 63/92/120 66/88/121
f 69/91/119 66/88/121 68/87/122
f 65/93/123 63/92/124 69/91/125
f 69/91/126 70/94/126 72/95/126
f 68/87/127 70/94/127 69/91/127
f 69/91/128 72/95/128 71/96/128
f 65/93/123 69/91/125 71/96/129
f 71/96/130 72/95/130 73/97/130
f 75/98/131 73/99/131 72/100/131
f 72/100/132 70/101/132 76/102/132
f 72/100/133 76/102/133 74/103/133
f 75/98/134 72/100/134 74/103/134
f 76/102/135 79/104/135 77/105/135
f 78/106/136 76/102/137 77/105/138
f 76/102/139 70/101/139 79/104/139
f 78/106/140 74/103/140 76/102/140
f 68/87/141 79/107/141 70/94/141
f 81/108/142 79/107/142 68/87/142
f 77/105/143 79/104/143 80/109/143
f 81/108/144 80/110/144 79/107/144
f 82/111/145 81/108/145 67/89/145
f 68/87/146 67/89/146 81/108/146
f 81/108/147 82/111/147 83/112/147
f 81/108/148 83/112/148 80/110/148
f 82/111/149 85/113/149 83/112/149
f 86/114/150 84/115/150 83/116/150
f 84/115/151 80/109/151 83/116/151
f 86/114/152 83/116/152 85/117/152
f 88/118/153 84/115/154 86/114/155
f 86/114/156 85/117/156 89/119/156
f 86/114/157 89/119/157 87/120/157
f 88/118/158 86/114/158 87/120/158
f 92/121/159 90/122/159 89/123/159
f 90/122/160 91/124/160 89/123/160
f 93/125/161 87/120/161 89/119/161
f 92/121/162 89/123/162 85/113/162
f 93/125/163 89/119/163 91/126/163
f 94/127/164 93/125/164 91/126/164
f 96/128/165 93/125/166 94/127/167
f 95/129/168 87/120/168 93/125/168
f 96/128/169 95/129/169 93/125/169
f 97/130/170 96/128/170 98/131/170
f 97/130/171 95/129/171 96/128/171
f 96/128/165 94/127/167 99/132/172
f 96/128/173 99/132/173 98/131/173
f 99/132/174 94/127/174 103/133/174
f 99/132/175 100/134/175 102/135/175
f 99/132/176 103/133/176 100/134/176
f 98/131/177 99/132/178 101/136/179
f 99/132/180 102/135/180 101/136/180
f 104/137/181 103/138/181 91/124/181
f 105/139/182 103/138/182 104/137/182
f 94/127/183 91/126/183 103/133/183
f 105/139/184 100/140/184 103/138/184
f 107/141/185 105/139/186 106/142/187
f 105/139/188 108/143/188 106/142/188
f 107/141/189 100/140/189 105/139/189
f 105/139/190 104/137/190 108/143/190
f 109/144/191 110/145/191 108/146/191
f 104/137/192 109/147/192 108/143/192
f 108/146/193 111/148/193 106/149/193
f 108/146/194 110/145/194 111/148/194
f 106/149/195 111/148/196 112/150/197
f 112/150/198 111/148/198 113/151/198
f 111/148/199 110/145/199 114/152/199
f 111/148/200 114/152/200 113/151/200
f 110/145/201 115/153/201 114/152/201
f 115/154/202 116/155/202 114/156/202
f 114/156/203 116/155/203 117/157/203
f 114/156/204 117/157/204 113/158/204
f 117/157/205 116/155/206 50/70/207
f 118/159/208 117/157/209 52/69/210
f 117/157/211 50/70/211 52/69/211
f 119/160/212 113/158/212 117/157/212
f 119/160/213 117/157/213 118/159/213
f 121/161/214 112/150/214 119/162/214
f 112/150/215 113/151/215 119/162/215
f 120/163/216 119/160/216 118/159/216
f 121/161/217 119/162/218 120/164/219
f 122/165/220 121/161/220 123/166/220
f 124/167/221 121/161/221 122/165/221
f 124/167/222 112/150/222 121/161/222
f 123/166/223 121/161/217 120/164/219
f 107/141/185 106/142/187 124/168/224
f 106/149/195 112/150/197 124/167/225
f 125/169/226 124/168/226 122/170/226
f 125/169/227 107/141/227 124/168/227
f 126/171/228 125/169/228 122/170/228
f 125/169/229 102/172/229 107/141/229
f 126/171/230 127/173/231 125/169/232
f 125/169/232 127/173/231 102/172/233
f 128/174/234 127/175/235 129/176/236
f 101/136/237 127/175/235 128/174/234
f 101/136/238 102/135/238 127/175/238
f 126/171/239 129/177/239 127/173/239
f 126/171/240 131/178/241 129/177/242
f 132/179/243 130/180/243 129/176/243
f 128/174/244 129/176/244 130/180/244
f 132/179/245 129/176/245 131/181/245
f 134/182/246 130/180/247 132/179/248
f 133/183/249 132/179/249 131/181/249
f 134/182/250 132/179/250 133/183/250
f 135/184/251 134/182/251 133/183/251
f 137/185/252 134/182/253 135/184/254
f 137/185/252 136/186/255 134/182/253
f 136/186/256 130/180/247 134/182/246
f 140/187/257 137/185/257 135/184/257
f 139/188/258 138/189/259 137/185/260
f 138/189/261 136/186/255 137/185/252
f 140/187/262 139/188/258 137/185/260
f 141/190/263 140/187/263 135/184/263
f 143/191/264 140/187/264 141/190/264
f 143/191/265 142/192/266 140/187/267
f 142/192/266 139/188/268 140/187/267
f 143/191/269 145/193/269 142/192/269
f 143/191/270 144/194/270 145/193/270
f 141/190/271 144/194/271 143/191/271
f 146/195/272 145/196/273 144/197/274
f 146/195/275 147/198/275 145/196/275
f 145/193/276 147/199/277 148/200/278
f 145/193/279 148/200/279 142/192/279
f 142/192/280 148/200/280 139/188/280
f 148/200/281 149/201/281 150/202/281
f 147/199/277 149/201/282 148/200/278
f 148/200/283 150/202/283 139/188/283
f 139/188/258 150/202/284 138/189/259
f 149/201/285 151/203/286 150/202/287
f 150/202/288 151/203/289 152/204/290
f 150/202/288 152/204/290 138/189/291
f 152/204/292 98/131/293 153/205/294
f 97/130/295 98/131/295 152/204/295
f 151/203/296 97/130/296 152/204/296
f 152/204/292 153/205/294 138/189/297
f 138/189/261 153/205/298 136/186/255
f 98/131/177 101/136/179 153/205/299
f 153/205/300 101/136/300 128/174/300
f 153/205/301 128/174/301 136/186/301
f 149/201/285 154/206/302 151/203/286
f 154/206/303 155/207/303 151/203/303
f 151/203/304 155/207/304 97/130/304
f 155/207/305 156/208/306 75/98/307
f 154/206/308 156/208/306 155/207/305
f 97/130/309 155/207/309 157/209/309
f 155/207/310 75/98/310 157/209/310
f 158/210/311 157/209/312 78/106/313
f 97/130/314 157/209/314 158/210/314
f 157/209/315 75/98/315 74/103/315
f 157/209/316 74/103/316 78/106/316
f 97/130/317 158/210/317 95/129/317
f 158/210/311 159/211/318 88/118/319
f 158/210/311 78/106/313 159/211/318
f 158/210/311 88/118/319 95/129/320
f 78/106/321 160/212/321 159/211/321
f 160/212/322 88/118/322 159/211/322
f 84/115/323 160/212/323 80/109/323
f 160/212/324 84/115/154 88/118/153
f 77/105/325 80/109/325 160/212/325
f 78/106/136 77/105/138 160/212/326
f 156/208/327 73/99/327 75/98/327
f 154/206/328 161/213/328 156/208/328
f 156/208/329 161/213/329 73/99/329
f 164/214/330 162/215/330 161/216/330
f 162/215/331 73/97/331 161/216/331
f 154/206/332 163/217/332 161/213/332
f 164/214/333 161/216/333 163/218/333
f 164/214/334 165/219/334 167/220/334
f 166/221/335 165/219/336 164/214/337
f 166/221/338 164/214/338 163/218/338
f 164/214/339 167/220/339 162/215/339
f 162/215/340 167/220/340 168/222/340
f 169/223/341 168/224/341 167/225/341
f 170/226/342 167/225/342 165/227/342
f 170/226/343 169/223/343 167/225/343
f 171/228/344 170/226/345 165/227/346
f 171/228/347 172/229/347 170/226/347
f 170/226/348 173/230/348 169/223/348
f 170/226/349 172/229/349 173/230/349
f 169/223/350 173/230/350 60/79/350
f 43/60/351 173/231/351 172/232/351
f 43/60/352 174/233/352 173/231/352
f 174/233/353 60/80/353 173/231/353
f 174/233/354 54/71/354 60/80/354
f 47/63/355 54/71/356 174/233/357
f 43/60/358 47/63/355 174/233/357
f 41/59/359 43/60/359 172/232/359
f 171/228/360 41/55/360 172/229/360
f 37/53/361 171/228/361 175/234/361
f 37/53/362 41/55/362 171/228/362
f 171/228/344 165/227/346 175/234/363
f 166/221/335 175/235/364 165/219/336
f 176/236/365 38/237/365 175/235/365
f 37/53/366 175/234/366 38/54/366
f 176/236/367 175/235/367 166/221/367
f 146/195/368 38/237/368 176/236/368
f 176/236/369 166/221/369 177/238/369
f 146/195/370 176/236/371 147/198/372
f 176/236/371 177/238/373 147/198/372
f 166/221/374 163/218/374 177/238/374
f 147/199/375 177/239/375 149/201/375
f 177/239/376 163/217/376 154/206/376
f 177/239/377 154/206/377 149/201/377
f 169/223/378 178/240/378 168/224/378
f 169/223/379 60/79/379 178/240/379
f 178/240/380 65/85/380 168/224/380
f 59/77/381 178/240/381 60/79/381
f 178/240/382 59/77/382 65/85/382
f 179/241/383 168/222/383 65/93/383
f 162/215/384 168/222/384 179/241/384
f 162/215/385 179/241/385 73/97/385
f 71/96/386 73/97/386 179/241/386
f 179/241/387 65/93/387 71/96/387
f 15/22/388 18/23/388 146/195/388
f 146/195/272 144/197/274 15/22/389
f 146/195/390 18/23/390 38/237/390
f 15/22/391 144/197/391 12/19/391
f 141/190/392 12/17/392 144/194/392
f 141/190/393 135/184/393 11/15/393
f 11/15/394 12/17/394 141/190/394
f 136/186/395 128/174/395 130/180/395
f 135/184/396 133/183/396 11/15/396
f 11/15/397 133/183/397 9/18/397
f 133/183/398 131/181/398 9/18/398
f 126/171/240 2/2/399 131/178/241
f 2/2/400 9/11/400 131/178/400
f 2/2/401 126/171/401 5/4/401
f 126/171/402 122/170/402 5/4/402
f 5/8/403 123/166/403 3/6/403
f 122/165/404 123/166/404 5/8/404
f 123/166/405 25/37/406 3/6/407
f 123/166/405 180/242/408 25/37/406
f 123/166/409 120/164/409 180/242/409
f 180/243/410 120/163/411 182/244/412
f 180/243/413 181/245/413 27/41/413
f 180/243/414 182/244/414 181/245/414
f 180/243/415 27/41/415 25/38/415
f 181/245/416 182/244/416 183/246/416
f 182/244/417 118/159/417 184/247/417
f 120/163/411 118/159/418 182/244/412
f 182/244/419 184/247/419 183/246/419
f 118/159/208 52/69/210 184/247/420
f 184/247/421 52/69/422 46/64/423
f 183/246/424 184/247/425 185/248/426
f 184/247/421 46/64/423 185/248/427
f 44/62/84 185/248/428 46/64/85
f 186/249/429 30/44/49 185/248/430
f 183/246/424 185/248/426 30/44/431
f 186/249/429 185/248/430 44/62/432
f 40/57/433 186/249/433 44/62/433
f 187/250/434 186/249/434 40/57/434
f 31/43/47 30/44/49 186/249/429
f 187/250/435 31/43/436 186/249/437
f 35/50/438 187/250/438 40/57/438
f 33/46/439 187/250/439 35/50/439
f 33/46/440 31/43/436 187/250/435
f 28/42/441 183/246/424 30/44/431
f 181/245/442 183/246/443 28/42/444
f 27/41/445 181/245/442 28/42/444
f 115/154/446 188/251/446 116/155/446
f 188/251/447 50/70/207 116/155/206
f 190/252/448 189/253/448 188/251/448
f 189/253/449 51/68/449 188/251/449
f 188/251/450 51/68/450 50/70/450
f 190/252/451 188/251/451 115/154/451
f 191/254/452 190/255/452 115/153/452
f 193/256/453 190/255/453 191/254/453
f 190/252/454 192/257/454 194/258/454
f 193/256/455 192/259/455 190/255/455
f 190/252/456 194/258/456 189/253/456
f 196/260/457 194/258/457 192/257/457
f 194/258/458 195/261/459 197/262/460
f 196/260/461 195/261/461 194/258/461
f 194/258/462 197/262/462 189/253/462
f 189/253/463 197/262/463 51/68/463
f 197/262/460 195/261/459 199/263/464
f 197/262/465 198/264/466 49/66/96
f 197/262/467 199/263/467 198/264/467
f 197/262/465 49/66/96 51/68/468
f 200/265/469 199/263/469 195/261/469
f 201/266/470 199/263/470 200/265/470
f 55/73/471 198/264/471 199/263/471
f 55/73/472 199/263/473 201/266/474
f 55/73/472 201/266/474 57/75/475
f 57/75/476 201/266/476 202/267/476
f 201/266/477 200/265/477 202/267/477
f 203/268/478 64/86/478 202/269/478
f 64/86/479 61/82/479 202/269/479
f 57/75/480 202/267/480 61/81/480
f 203/268/481 202/269/481 200/270/481
f 64/86/482 203/268/482 67/90/482
f 67/90/483 203/268/483 204/271/483
f 203/268/484 196/272/484 204/271/484
f 203/268/485 200/270/485 196/272/485
f 205/273/486 204/271/487 193/256/488
f 67/90/489 204/271/489 205/273/489
f 204/271/490 192/259/490 193/256/490
f 204/271/491 196/272/491 192/259/491
f 82/111/492 67/89/492 205/274/492
f 92/121/493 205/274/494 206/275/495
f 205/273/486 193/256/488 206/276/496
f 92/121/493 82/111/497 205/274/494
f 207/277/498 206/276/499 193/256/500
f 92/121/501 206/275/502 207/278/503
f 209/279/504 207/278/504 109/147/504
f 207/277/505 208/280/505 109/144/505
f 207/277/506 191/254/506 208/280/506
f 207/277/498 193/256/500 191/254/507
f 209/279/508 90/122/508 207/278/508
f 92/121/501 207/278/503 90/122/509
f 104/137/510 209/279/510 109/147/510
f 90/122/511 209/279/511 91/124/511
f 104/137/512 91/124/512 209/279/512
f 109/144/513 208/280/513 110/145/513
f 191/254/514 115/153/514 208/280/514
f 110/145/515 208/280/515 115/153/515
f 200/265/516 195/261/516 196/260/516
f 49/66/96 198/264/466 55/73/97
f 107/141/517 102/172/517 100/140/517
f 95/129/518 88/118/518 87/120/518
f 82/111/519 92/121/519 85/113/519
f 20/29/520 14/28/520 210/281/520
f 4/10/521 20/29/521 210/281/521
f 4/10/522 6/7/522 20/29/522
f 8/12/523 210/282/523 14/20/523
f 8/12/524 4/9/524 210/282/524
