# Blender 5.2.1 LTS
# www.blender.org
mtllib blockFallRight.mtl
o 立方体.001
v -0.421476 0.003520 0.437165
v -0.429920 0.070025 0.439982
v -0.421476 0.003520 -0.437165
v -0.429920 0.070025 -0.439982
v 0.378327 -0.102600 0.410926
v 0.450043 0.070025 0.439982
v 0.378327 -0.102600 -0.410926
v 0.450043 0.070025 -0.439982
v -0.463952 0.025688 0.480211
v -0.467051 0.047857 0.480211
v -0.467051 0.047857 -0.480211
v -0.463952 0.025688 -0.480211
v 0.487175 -0.014830 -0.480211
v 0.466854 -0.099685 -0.438056
v 0.487175 -0.014830 0.480211
v 0.466854 -0.099685 0.438056
vn -0.5126 0.8586 -0.0000
vn 0.0205 0.6008 -0.7991
vn 0.9161 0.4009 -0.0000
vn 0.0205 0.6008 0.7991
vn -0.1315 -0.9913 -0.0000
vn -0.0000 1.0000 -0.0000
vn -0.1064 -0.9121 0.3958
vn -0.0155 -0.3643 0.9312
vn 0.0329 -0.9995 -0.0000
vn 0.9725 -0.2329 -0.0000
vn -0.1064 -0.9121 -0.3958
vn -0.0155 -0.3643 -0.9312
vn -0.4627 -0.8865 -0.0000
vn -0.9904 -0.1384 -0.0000
vt 0.541667 0.000000
vt 0.625000 0.000000
vt 0.625000 0.250000
vt 0.541667 0.250000
vt 0.625000 0.500000
vt 0.541667 0.500000
vt 0.625000 0.750000
vt 0.541667 0.750000
vt 0.625000 1.000000
vt 0.541667 1.000000
vt 0.125000 0.500000
vt 0.375000 0.500000
vt 0.375000 0.750000
vt 0.125000 0.750000
vt 0.875000 0.500000
vt 0.875000 0.750000
vt 0.458333 0.750000
vt 0.458333 1.000000
vt 0.375000 1.000000
vt 0.458333 0.500000
vt 0.375000 0.250000
vt 0.458333 0.250000
vt 0.375000 0.000000
vt 0.458333 0.000000
s 0
usemtl block
f 10/1/1 2/2/1 4/3/1 11/4/1
f 11/4/2 4/3/2 8/5/2 13/6/2
f 13/6/3 8/5/3 6/7/3 15/8/3
f 15/8/4 6/7/4 2/9/4 10/10/4
f 3/11/5 7/12/5 5/13/5 1/14/5
f 8/5/6 4/15/6 2/16/6 6/7/6
f 5/13/7 16/17/7 9/18/7 1/19/7
f 16/17/8 15/8/8 10/10/8 9/18/8
f 7/12/9 14/20/9 16/17/9 5/13/9
f 14/20/10 13/6/10 15/8/10 16/17/10
f 3/21/11 12/22/11 14/20/11 7/12/11
f 12/22/12 11/4/12 13/6/12 14/20/12
f 1/23/13 9/24/13 12/22/13 3/21/13
f 9/24/14 10/1/14 11/4/14 12/22/14
