# Blender 5.2.0 LTS
# www.blender.org
mtllib player_right.mtl
o ICO球.006
v -0.659229 0.920690 0.051790
v -0.678075 0.923962 0.050367
v -0.662141 0.969905 0.014615
v -0.652953 0.822165 0.127000
v -0.663034 0.913364 0.048038
v -0.678075 0.821835 0.129174
v -0.667325 0.962825 0.013142
v -0.667440 0.974553 -0.000000
v -0.655800 0.926959 0.026067
v -0.655794 0.938251 -0.000000
v -0.632456 0.851345 -0.000000
v -0.655800 0.926959 -0.026067
v -0.667325 0.962825 -0.013142
v -0.663034 0.913364 -0.048038
v -0.662141 0.969905 -0.014615
v -0.659229 0.920690 -0.051791
v -0.678075 0.923962 -0.050367
v -0.652953 0.822165 -0.127000
v -0.678075 0.821835 -0.129174
v -0.678075 0.700685 -0.231123
v -0.703197 0.822165 -0.127000
v -0.712937 0.702018 -0.226308
v -0.643213 0.702018 -0.226308
v -0.696921 0.920690 -0.051791
v -0.693116 0.913364 -0.048038
v -0.694008 0.969905 -0.014615
v -0.688825 0.962825 -0.013142
v -0.700350 0.926959 -0.026067
v -0.688710 0.974553 -0.000000
v -0.700356 0.938251 -0.000000
v -0.723694 0.851345 -0.000000
v -0.700350 0.926959 0.026067
v -0.688825 0.962825 0.013142
v -0.694009 0.969905 0.014615
v -0.693116 0.913364 0.048038
v -0.696921 0.920690 0.051790
v -0.703197 0.822165 0.127000
v -0.700007 0.815895 0.121794
v -0.712937 0.702018 0.226308
v -0.709162 0.697344 0.220199
v -0.678075 0.700685 0.231123
v -0.721118 0.595688 0.320878
v -0.716728 0.592948 0.313653
v -0.747362 0.602877 0.267465
v -0.724238 0.501109 0.366877
v -0.761056 0.512520 0.312722
v -0.770152 0.430069 0.302873
v -0.775906 0.537761 0.180649
v -0.786732 0.467050 0.174970
v -0.778036 0.489523 -0.000000
v -0.786722 0.407809 0.147769
v -0.770234 0.357282 0.255804
v -0.729689 0.333776 0.299960
v -0.768846 0.303887 0.197788
v -0.729756 0.277178 0.229827
v -0.729684 0.268598 0.157330
v -0.734333 0.269878 0.234591
v -0.733376 0.260101 0.158670
v -0.678075 0.255752 0.159700
v -0.734333 0.306653 0.080724
v -0.678075 0.304121 0.079722
v -0.678075 0.340334 -0.000000
v -0.621817 0.306653 0.080724
v -0.622774 0.260101 0.158670
v -0.626466 0.268598 0.157330
v -0.621817 0.269878 0.234591
v -0.626394 0.277177 0.229827
v -0.626460 0.333776 0.299960
v -0.587304 0.303887 0.197788
v -0.585915 0.357282 0.255805
v -0.585997 0.430069 0.302873
v -0.569428 0.407809 0.147769
v -0.569417 0.467050 0.174970
v -0.580244 0.537761 0.180649
v -0.578114 0.489523 -0.000000
v -0.595094 0.512520 0.312722
v -0.608788 0.602877 0.267465
v -0.631912 0.501109 0.366877
v -0.639422 0.592948 0.313653
v -0.635032 0.595688 0.320879
v -0.646988 0.697344 0.220199
v -0.643213 0.702018 0.226308
v -0.656142 0.815895 0.121794
v -0.639620 0.821678 0.105733
v -0.652302 0.898130 0.054467
v -0.622672 0.707223 0.187872
v -0.613076 0.728048 0.108704
v -0.596593 0.624461 0.154494
v -0.594805 0.637023 -0.000000
v -0.578082 0.552855 -0.000000
v -0.580244 0.537761 -0.180650
v -0.596593 0.624461 -0.154494
v -0.608788 0.602877 -0.267465
v -0.613076 0.728048 -0.108704
v -0.622672 0.707223 -0.187872
v -0.646988 0.697344 -0.220199
v -0.639620 0.821678 -0.105733
v -0.656142 0.815895 -0.121794
v -0.652301 0.898130 -0.054467
v -0.633390 0.840757 -0.060917
v -0.611664 0.740121 -0.000000
v -0.633390 0.840757 0.060917
v -0.639422 0.592948 -0.313653
v -0.631912 0.501109 -0.366877
v -0.635032 0.595688 -0.320878
v -0.595094 0.512520 -0.312722
v -0.585997 0.430069 -0.302873
v -0.569418 0.467050 -0.174970
v -0.569428 0.407809 -0.147769
v -0.585916 0.357282 -0.255804
v -0.587304 0.303887 -0.197788
v -0.626461 0.333776 -0.299960
v -0.626394 0.277177 -0.229827
v -0.621817 0.269878 -0.234591
v -0.626466 0.268598 -0.157330
v -0.622774 0.260101 -0.158670
v -0.621817 0.306653 -0.080724
v -0.678075 0.255752 -0.159700
v -0.678075 0.304121 -0.079722
v -0.734333 0.306653 -0.080724
v -0.733376 0.260101 -0.158670
v -0.729684 0.268598 -0.157330
v -0.734333 0.269878 -0.234591
v -0.729756 0.277177 -0.229827
v -0.729689 0.333776 -0.299960
v -0.768846 0.303887 -0.197788
v -0.770234 0.357282 -0.255804
v -0.786722 0.407809 -0.147769
v -0.770152 0.430069 -0.302873
v -0.786732 0.467050 -0.174970
v -0.775906 0.537761 -0.180650
v -0.761056 0.512520 -0.312722
v -0.724238 0.501109 -0.366877
v -0.747362 0.602877 -0.267465
v -0.716728 0.592948 -0.313653
v -0.709162 0.697344 -0.220199
v -0.721118 0.595688 -0.320879
v -0.729252 0.501095 -0.374905
v -0.678075 0.594294 -0.327706
v -0.678075 0.499407 -0.382881
v -0.626898 0.501095 -0.374905
v -0.621498 0.409915 -0.362967
v -0.678075 0.407363 -0.370690
v -0.626684 0.412866 -0.355262
v -0.621498 0.328418 -0.306510
v -0.678075 0.324911 -0.313032
v -0.678075 0.265722 -0.239138
v -0.734652 0.328418 -0.306510
v -0.734652 0.409915 -0.362967
v -0.729466 0.412866 -0.355262
v -0.733478 0.707223 -0.187872
v -0.700007 0.815895 -0.121794
v -0.716530 0.821678 -0.105733
v -0.703848 0.898130 -0.054467
v -0.722760 0.840756 -0.060917
v -0.743074 0.728048 -0.108704
v -0.744486 0.740121 -0.000000
v -0.761344 0.637023 -0.000000
v -0.743074 0.728048 0.108704
v -0.722760 0.840757 0.060917
v -0.716530 0.821678 0.105733
v -0.703848 0.898130 0.054467
v -0.733478 0.707223 0.187872
v -0.759557 0.624461 0.154494
v -0.778068 0.552855 -0.000000
v -0.759557 0.624461 -0.154494
v -0.789142 0.438600 -0.000000
v -0.784507 0.358875 -0.114741
v -0.786824 0.393749 -0.000000
v -0.769585 0.328806 -0.089924
v -0.761590 0.288506 -0.152096
v -0.731521 0.314554 -0.081937
v -0.731878 0.350314 -0.000000
v -0.734652 0.342331 -0.000000
v -0.731521 0.314554 0.081937
v -0.769585 0.328806 0.089924
v -0.761590 0.288506 0.152096
v -0.784507 0.358876 0.114741
v -0.771149 0.362717 -0.000000
v -0.621498 0.342331 -0.000000
v -0.624629 0.314554 -0.081937
v -0.586565 0.328806 -0.089924
v -0.624272 0.350314 -0.000000
v -0.594560 0.288506 -0.152096
v -0.571643 0.358876 -0.114741
v -0.569326 0.393749 -0.000000
v -0.567008 0.438600 -0.000000
v -0.571643 0.358875 0.114741
v -0.586565 0.328806 0.089924
v -0.594560 0.288506 0.152096
v -0.624629 0.314554 0.081937
v -0.585001 0.362717 -0.000000
v -0.678075 0.594294 0.327706
v -0.626898 0.501095 0.374905
v -0.678075 0.499407 0.382881
v -0.621498 0.409915 0.362967
v -0.626684 0.412866 0.355262
v -0.678075 0.407363 0.370690
v -0.678075 0.324911 0.313032
v -0.734652 0.409915 0.362967
v -0.729252 0.501095 0.374905
v -0.729466 0.412866 0.355262
v -0.734652 0.328418 0.306511
v -0.678075 0.265722 0.239138
v -0.621498 0.328418 0.306510
v -0.678075 0.975021 0.012742
v -0.694099 0.981672 -0.000000
v -0.678075 0.986945 -0.000000
v -0.678075 0.975021 -0.012742
v -0.662051 0.981672 -0.000000
v -1.034492 -0.149437 -0.018209
v -1.028339 -0.164759 -0.026997
v -1.032862 -0.149512 -0.036841
v -0.719448 0.295399 0.007568
v -0.587475 -0.149437 0.294796
v -1.028119 -0.153424 -0.027311
v -0.581321 -0.164759 0.286008
v -0.713075 0.291413 -0.001534
v -0.581101 -0.153424 0.285694
v -0.570523 -0.149512 0.286892
v -0.533762 -0.166940 -0.257619
v -0.581290 -0.152954 0.285964
v -0.533731 -0.155135 -0.257663
v -1.028307 -0.152954 -0.027041
v -0.522964 -0.151693 -0.256735
v -0.538286 -0.151693 -0.267463
v -0.717818 0.295325 -0.011065
v -0.533593 -0.155602 -0.257362
v -0.713125 0.291415 -0.000963
v -1.028169 -0.153421 -0.026740
v -0.702497 0.295325 -0.000336
v -0.713594 0.291415 -0.001292
v -0.534062 -0.155602 -0.257690
v -0.581621 -0.153421 0.285937
vn 0.0451 0.6103 0.7909
vn 0.0443 0.6042 0.7956
vn 0.0447 0.6038 0.7959
vn 0.0462 0.6103 0.7908
vn 0.7089 -0.3979 -0.5823
vn 0.0605 0.6081 0.7916
vn 0.8803 -0.2511 -0.4024
vn 0.8711 -0.2304 -0.4336
vn 0.7490 0.4241 0.5090
vn 0.7689 -0.4737 -0.4294
vn 0.9206 0.2953 0.2555
vn 0.9236 0.3518 0.1526
vn 0.9206 0.2953 -0.2555
vn 0.9597 0.2577 -0.1119
vn 0.9597 0.2577 0.1119
vn 0.9236 0.3518 -0.1526
vn 0.7689 -0.4737 0.4294
vn 0.7490 0.4241 -0.5090
vn 0.8712 -0.2303 0.4336
vn 0.7089 -0.3979 0.5823
vn 0.8804 -0.2511 0.4024
vn 0.0447 0.6038 -0.7959
vn 0.0448 0.6041 -0.7957
vn 0.0462 0.6102 -0.7909
vn 0.0462 0.6103 -0.7909
vn 0.0605 0.6081 -0.7916
vn -0.0808 0.6418 -0.7626
vn 0.0808 0.6418 -0.7626
vn 0.0580 0.6388 -0.7672
vn -0.0448 0.6041 -0.7957
vn -0.0462 0.6102 -0.7909
vn -0.0462 0.6103 -0.7909
vn -0.0605 0.6081 -0.7916
vn -0.0580 0.6388 -0.7672
vn -0.8712 -0.2303 0.4336
vn -0.8804 -0.2511 0.4024
vn -0.0447 0.6038 -0.7959
vn -0.7090 -0.3979 0.5823
vn -0.7490 0.4241 -0.5090
vn -0.9236 0.3518 -0.1526
vn -0.7690 -0.4736 0.4294
vn -0.9206 0.2953 -0.2555
vn -0.9597 0.2577 -0.1119
vn -0.9597 0.2577 0.1119
vn -0.9236 0.3518 0.1526
vn -0.9206 0.2953 0.2555
vn -0.7689 -0.4737 -0.4294
vn -0.7089 -0.3979 -0.5823
vn -0.7490 0.4241 0.5090
vn -0.8711 -0.2304 -0.4336
vn -0.8803 -0.2511 -0.4024
vn -0.0605 0.6081 0.7916
vn -0.0447 0.6038 0.7959
vn -0.0443 0.6042 0.7956
vn -0.0451 0.6103 0.7909
vn -0.0462 0.6103 0.7908
vn -0.9236 -0.1969 -0.3288
vn -0.9237 -0.1964 -0.3290
vn -0.9224 -0.1898 -0.3363
vn -0.9223 -0.1896 -0.3368
vn -0.0580 0.6388 0.7672
vn -0.8976 -0.2561 -0.3587
vn -0.8971 -0.2391 -0.3715
vn -0.0808 0.6418 0.7626
vn -0.0770 0.6659 0.7421
vn -0.8617 -0.2986 -0.4103
vn -0.6472 0.5339 0.5441
vn -0.8693 -0.1927 -0.4551
vn -0.7244 0.3927 0.5666
vn -0.7215 0.3911 0.5714
vn -0.7251 0.3931 0.5654
vn -0.7209 0.3907 0.5724
vn -0.8245 0.0234 0.5654
vn -0.9840 0.0902 0.1536
vn -0.9634 0.2219 0.1504
vn -0.9635 0.2215 0.1507
vn -0.9630 0.2255 0.1475
vn -0.9808 0.1392 0.1369
vn -0.9917 -0.0691 0.1086
vn -0.9877 0.1536 -0.0294
vn -0.9987 0.0214 -0.0469
vn -0.9906 -0.0573 0.1244
vn -0.7758 -0.3420 0.5303
vn -0.7505 -0.5140 0.4155
vn -0.9878 -0.1256 0.0920
vn -0.7258 -0.5147 0.4564
vn -0.6122 -0.7853 0.0923
vn -0.9188 0.3918 -0.0473
vn -0.8844 0.3636 -0.2926
vn -0.8661 0.4943 -0.0746
vn -0.0804 -0.9888 0.1261
vn -0.0801 -0.9887 0.1263
vn -0.0828 -0.9888 0.1243
vn -0.0491 -0.8574 -0.5123
vn -0.0564 -0.8548 -0.5159
vn -0.0576 -0.8543 -0.5166
vn -0.8697 0.4190 0.2609
vn -0.0477 -0.8578 -0.5117
vn 0.0564 -0.8548 -0.5159
vn 0.0491 -0.8574 -0.5123
vn 0.0576 -0.8543 -0.5166
vn 0.0483 -0.9094 -0.4131
vn -0.0483 -0.9094 -0.4131
vn 0.0477 -0.8578 -0.5117
vn 0.9188 0.3918 -0.0473
vn 0.8697 0.4190 0.2609
vn 0.0828 -0.9888 0.1243
vn 0.0801 -0.9887 0.1263
vn 0.0804 -0.9888 0.1261
vn 0.8660 0.4944 -0.0746
vn 0.8844 0.3636 -0.2926
vn 0.7505 -0.5140 0.4155
vn 0.6122 -0.7853 0.0923
vn 0.7258 -0.5148 0.4564
vn 0.7758 -0.3420 0.5303
vn 0.9917 -0.0691 0.1086
vn 0.9878 -0.1256 0.0920
vn 0.9906 -0.0573 0.1244
vn 0.9877 0.1536 -0.0294
vn 0.9808 0.1392 0.1369
vn 0.9987 0.0213 -0.0469
vn 0.9840 0.0902 0.1536
vn 0.9630 0.2255 0.1475
vn 0.9635 0.2215 0.1507
vn 0.9634 0.2219 0.1504
vn 0.7215 0.3911 0.5713
vn 0.7244 0.3927 0.5666
vn 0.7251 0.3931 0.5654
vn 0.8245 0.0234 0.5654
vn 0.7209 0.3907 0.5724
vn 0.8694 -0.1926 -0.4551
vn 0.8617 -0.2986 -0.4103
vn 0.6472 0.5339 0.5441
vn 0.8976 -0.2561 -0.3587
vn 0.0808 0.6418 0.7626
vn 0.0770 0.6659 0.7420
vn 0.0580 0.6388 0.7672
vn 0.9237 -0.1968 -0.3287
vn 0.9221 -0.1906 -0.3368
vn 0.9233 -0.1971 -0.3297
vn 0.8971 -0.2391 -0.3715
vn 0.9223 -0.1895 -0.3367
vn 0.3822 0.5746 0.7237
vn 0.5808 0.5460 0.6038
vn 0.5815 0.5450 0.6040
vn 0.5847 0.5405 0.6050
vn 0.4805 0.5420 0.6894
vn 0.4684 0.5599 0.6835
vn 0.9437 0.2734 0.1863
vn 0.5854 0.5395 0.6052
vn 0.9587 0.2417 0.1497
vn 0.9570 0.2303 0.1766
vn 0.9863 0.1620 0.0302
vn 0.9855 0.1679 0.0251
vn 0.9855 0.1678 0.0253
vn 0.9805 0.1946 0.0273
vn 0.9807 0.1935 0.0278
vn 0.9805 0.1948 0.0272
vn 0.9807 0.1934 0.0279
vn 0.9630 0.2260 0.1471
vn 0.9805 0.1945 -0.0273
vn 0.9805 0.1948 -0.0272
vn 0.9807 0.1936 -0.0278
vn 0.9999 -0.0005 -0.0119
vn 0.9999 -0.0005 0.0119
vn 0.9807 0.1934 -0.0279
vn 0.9863 0.1620 -0.0302
vn 0.9855 0.1678 -0.0253
vn 0.9855 0.1679 -0.0251
vn 0.9630 0.2255 -0.1475
vn 0.9630 0.2260 -0.1471
vn 0.9634 0.2219 -0.1504
vn 0.9587 0.2417 -0.1497
vn 0.9570 0.2303 -0.1766
vn 0.5815 0.5450 -0.6040
vn 0.5847 0.5405 -0.6050
vn 0.5854 0.5395 -0.6052
vn 0.5808 0.5460 -0.6038
vn 0.4684 0.5599 -0.6835
vn 0.9437 0.2734 -0.1863
vn 0.9233 -0.1971 0.3297
vn 0.9223 -0.1895 0.3367
vn 0.9221 -0.1906 0.3368
vn 0.3821 0.5746 -0.7237
vn 0.9237 -0.1968 0.3287
vn 0.4805 0.5420 -0.6894
vn 0.8971 -0.2391 0.3715
vn 0.5443 0.6213 -0.5637
vn 0.9190 0.3276 -0.2193
vn 0.9063 0.3286 -0.2659
vn 0.9595 0.2747 -0.0625
vn 0.9307 0.2716 -0.2450
vn 0.9819 0.1836 -0.0470
vn 0.9810 0.1912 -0.0340
vn 0.9810 0.1912 0.0340
vn 0.9864 0.1613 0.0307
vn 0.9819 0.1836 0.0470
vn 0.9864 0.1613 -0.0307
vn 0.9063 0.3286 0.2659
vn 0.9307 0.2716 0.2450
vn 0.9595 0.2747 0.0625
vn 0.9190 0.3276 0.2194
vn 0.8976 -0.2561 0.3587
vn 0.6472 0.5339 -0.5441
vn 0.7215 0.3911 -0.5713
vn 0.7251 0.3931 -0.5654
vn 0.7244 0.3927 -0.5666
vn 0.8693 -0.1927 0.4551
vn 0.7209 0.3907 -0.5724
vn 0.8617 -0.2986 0.4103
vn 0.9635 0.2215 -0.1507
vn 0.8245 0.0234 -0.5654
vn 0.9840 0.0902 -0.1536
vn 0.9808 0.1392 -0.1369
vn 0.9906 -0.0573 -0.1244
vn 0.9987 0.0214 0.0469
vn 0.9917 -0.0691 -0.1086
vn 0.9877 0.1536 0.0294
vn 0.9878 -0.1256 -0.0920
vn 0.7758 -0.3420 -0.5303
vn 0.7258 -0.5147 -0.4564
vn 0.7505 -0.5140 -0.4155
vn 0.8844 0.3636 0.2926
vn 0.8660 0.4944 0.0746
vn 0.6122 -0.7853 -0.0923
vn 0.9188 0.3918 0.0473
vn 0.8697 0.4190 -0.2609
vn 0.0491 -0.8574 0.5123
vn 0.0477 -0.8578 0.5117
vn 0.0564 -0.8548 0.5159
vn 0.0804 -0.9888 -0.1261
vn 0.0801 -0.9887 -0.1263
vn 0.0828 -0.9888 -0.1243
vn 0.0576 -0.8543 0.5166
vn -0.0483 -0.9094 0.4131
vn -0.0491 -0.8574 0.5123
vn -0.0564 -0.8548 0.5159
vn -0.0477 -0.8578 0.5117
vn 0.0483 -0.9094 0.4131
vn -0.0576 -0.8543 0.5166
vn -0.9188 0.3918 0.0473
vn -0.8697 0.4190 -0.2609
vn -0.0804 -0.9888 -0.1261
vn -0.0828 -0.9888 -0.1243
vn -0.0801 -0.9887 -0.1263
vn -0.8660 0.4944 0.0746
vn -0.8844 0.3636 0.2926
vn -0.7505 -0.5140 -0.4155
vn -0.6122 -0.7853 -0.0923
vn -0.7258 -0.5147 -0.4564
vn -0.9878 -0.1256 -0.0920
vn -0.9906 -0.0573 -0.1244
vn -0.9917 -0.0691 -0.1086
vn -0.7758 -0.3420 -0.5303
vn -0.9987 0.0214 0.0469
vn -0.9877 0.1536 0.0294
vn -0.9808 0.1392 -0.1369
vn -0.9840 0.0902 -0.1536
vn -0.7215 0.3911 -0.5713
vn -0.7209 0.3907 -0.5724
vn -0.7244 0.3927 -0.5666
vn -0.8245 0.0234 -0.5654
vn -0.9630 0.2256 -0.1475
vn -0.9635 0.2215 -0.1507
vn -0.9634 0.2219 -0.1504
vn -0.7251 0.3931 -0.5654
vn -0.8694 -0.1926 0.4551
vn -0.6472 0.5339 -0.5441
vn -0.8976 -0.2561 0.3587
vn -0.8617 -0.2986 0.4103
vn -0.8264 -0.2240 0.5166
vn -0.1178 0.4994 -0.8583
vn -0.1192 0.4999 -0.8578
vn -0.1198 0.5001 -0.8576
vn -0.0952 0.6691 -0.7370
vn -0.0770 0.6659 -0.7420
vn 0.1178 0.4994 -0.8583
vn 0.1198 0.5001 -0.8576
vn 0.1193 0.4999 -0.8578
vn 0.0953 0.6691 -0.7370
vn -0.1173 0.4992 -0.8585
vn 0.1173 0.4992 -0.8585
vn 0.8436 0.1186 0.5236
vn 0.8422 0.1191 0.5258
vn 0.8428 0.1189 0.5250
vn 0.8264 -0.2240 0.5166
vn 0.1396 -0.1204 -0.9829
vn 0.8442 0.1184 0.5228
vn 0.1569 -0.1297 -0.9791
vn 0.8620 0.2921 0.4142
vn 0.7923 -0.3481 -0.5010
vn 0.7945 -0.0327 -0.6063
vn 0.8395 0.3094 0.4466
vn 0.8583 0.3962 0.3263
vn 0.1301 -0.5651 -0.8147
vn 0.1290 -0.5647 -0.8152
vn 0.1354 -0.5673 -0.8123
vn 0.1093 -0.7718 -0.6264
vn 0.1181 -0.7744 -0.6215
vn 0.1196 -0.7749 -0.6207
vn 0.1077 -0.7713 -0.6273
vn -0.0831 -0.9888 -0.1241
vn 0.0831 -0.9888 -0.1241
vn -0.1093 -0.7718 -0.6264
vn -0.1196 -0.7749 -0.6207
vn -0.1181 -0.7744 -0.6215
vn -0.1077 -0.7713 -0.6273
vn -0.8620 0.2921 0.4142
vn -0.8583 0.3962 0.3263
vn -0.1301 -0.5651 -0.8147
vn -0.1354 -0.5673 -0.8123
vn -0.1290 -0.5647 -0.8152
vn -0.8396 0.3094 0.4466
vn -0.7923 -0.3481 -0.5010
vn -0.8436 0.1186 0.5236
vn -0.8442 0.1184 0.5228
vn -0.8427 0.1189 0.5250
vn -0.7946 -0.0327 -0.6063
vn -0.8422 0.1191 0.5258
vn -0.1364 -0.5677 -0.8118
vn -0.1396 -0.1204 -0.9829
vn 0.1364 -0.5677 -0.8118
vn -0.1569 -0.1297 -0.9791
vn -0.5808 0.5460 -0.6038
vn -0.5815 0.5450 -0.6040
vn -0.5847 0.5405 -0.6050
vn -0.5854 0.5395 -0.6052
vn -0.8971 -0.2391 0.3715
vn -0.9235 -0.1967 0.3292
vn -0.9223 -0.1900 0.3365
vn -0.9223 -0.1896 0.3368
vn -0.9236 -0.1969 0.3288
vn -0.3822 0.5746 -0.7237
vn -0.4805 0.5420 -0.6895
vn -0.4684 0.5599 -0.6835
vn -0.5443 0.6213 -0.5637
vn -0.9063 0.3286 -0.2659
vn -0.9190 0.3276 -0.2193
vn -0.9810 0.1912 -0.0340
vn -0.9307 0.2716 -0.2450
vn -0.9595 0.2747 -0.0625
vn -0.9819 0.1836 -0.0470
vn -0.9863 0.1620 -0.0302
vn -0.9855 0.1679 -0.0255
vn -0.9864 0.1613 -0.0307
vn -0.9855 0.1679 0.0255
vn -0.9863 0.1620 0.0302
vn -0.9864 0.1613 0.0307
vn -0.9819 0.1836 0.0470
vn -0.9810 0.1912 0.0340
vn -0.9063 0.3286 0.2659
vn -0.9307 0.2716 0.2450
vn -0.9595 0.2747 0.0625
vn -0.9190 0.3276 0.2193
vn -0.5443 0.6213 0.5637
vn -0.3822 0.5746 0.7237
vn -0.4805 0.5420 0.6895
vn -0.4684 0.5599 0.6835
vn -0.9437 0.2734 0.1863
vn -0.5847 0.5405 0.6050
vn -0.5815 0.5450 0.6039
vn -0.5808 0.5460 0.6037
vn -0.5854 0.5395 0.6052
vn -0.9587 0.2417 0.1497
vn -0.9570 0.2303 0.1766
vn -0.9855 0.1679 0.0250
vn -0.9807 0.1935 0.0278
vn -0.9805 0.1945 0.0273
vn -0.9805 0.1948 0.0272
vn -0.9630 0.2260 0.1471
vn -0.9807 0.1933 0.0279
vn -0.9805 0.1946 -0.0273
vn -0.9807 0.1934 -0.0279
vn -0.9807 0.1935 -0.0278
vn -0.9999 -0.0005 -0.0119
vn -0.9999 -0.0005 0.0119
vn -0.9805 0.1948 -0.0272
vn -0.9630 0.2260 -0.1471
vn -0.9855 0.1679 -0.0250
vn -0.9570 0.2303 -0.1766
vn -0.9587 0.2417 -0.1497
vn -0.9437 0.2734 -0.1863
vn -0.9990 -0.0455 -0.0000
vn -0.9988 -0.0493 -0.0061
vn -0.9987 -0.0510 -0.0049
vn -0.9753 0.2127 -0.0603
vn -0.9871 -0.1177 -0.1082
vn -0.9209 -0.3776 0.0962
vn -0.9987 -0.0516 -0.0000
vn -0.9438 -0.3283 0.0394
vn -0.9246 -0.3628 0.1163
vn -0.4117 -0.7826 0.4670
vn -0.5420 -0.8188 -0.1895
vn -0.3944 -0.7934 0.4636
vn -0.9315 0.3000 -0.2055
vn -0.9380 0.3159 -0.1429
vn -0.9358 0.3214 -0.1447
vn -0.9393 0.3125 -0.1418
vn -0.3927 -0.8435 0.3664
vn -0.9345 0.3247 -0.1458
vn -0.0323 -0.9142 0.4039
vn -0.0323 -0.9142 -0.4039
vn -0.9380 0.3159 0.1429
vn -0.9393 0.3125 0.1418
vn -0.9358 0.3214 0.1447
vn -0.9345 0.3247 0.1458
vn -0.4117 -0.7826 -0.4670
vn -0.9315 0.3000 0.2055
vn -0.3944 -0.7934 -0.4636
vn -0.3927 -0.8435 -0.3664
vn -0.5420 -0.8188 0.1895
vn -0.9438 -0.3283 -0.0394
vn -0.9246 -0.3628 -0.1163
vn -0.9209 -0.3776 -0.0962
vn -0.9987 -0.0510 0.0049
vn -0.9871 -0.1177 0.1082
vn -0.9988 -0.0493 0.0061
vn -0.2839 -0.8988 -0.3340
vn -0.8821 -0.4456 -0.1527
vn -0.8821 -0.4456 0.1527
vn -0.2839 -0.8988 0.3340
vn -0.9753 0.2127 0.0603
vn 0.9380 0.3159 -0.1429
vn 0.9393 0.3125 -0.1418
vn 0.9358 0.3213 -0.1447
vn 0.0323 -0.9142 0.4039
vn 0.9315 0.3000 -0.2056
vn 0.4117 -0.7826 0.4670
vn 0.3944 -0.7934 0.4636
vn 0.3927 -0.8435 0.3664
vn 0.9345 0.3247 -0.1458
vn 0.5420 -0.8187 -0.1895
vn 0.9438 -0.3283 0.0394
vn 0.9246 -0.3628 0.1163
vn 0.9871 -0.1177 -0.1082
vn 0.9990 -0.0455 -0.0000
vn 0.9987 -0.0510 -0.0049
vn 0.9988 -0.0493 -0.0061
vn 0.9209 -0.3776 0.0962
vn 0.9987 -0.0516 -0.0000
vn 0.9753 0.2127 0.0603
vn 0.9987 -0.0511 0.0049
vn 0.9988 -0.0493 0.0061
vn 0.9753 0.2127 -0.0603
vn 0.9871 -0.1177 0.1082
vn 0.9246 -0.3628 -0.1163
vn 0.9209 -0.3776 -0.0962
vn 0.9438 -0.3283 -0.0394
vn 0.3944 -0.7934 -0.4636
vn 0.5420 -0.8187 0.1895
vn 0.4117 -0.7826 -0.4670
vn 0.3927 -0.8435 -0.3664
vn 0.9315 0.3000 0.2056
vn 0.9380 0.3159 0.1429
vn 0.9358 0.3213 0.1447
vn 0.9393 0.3125 0.1418
vn 0.9345 0.3247 0.1458
vn 0.2839 -0.8988 -0.3340
vn 0.8821 -0.4456 -0.1527
vn 0.2839 -0.8988 0.3340
vn 0.8821 -0.4456 0.1527
vn 0.0323 -0.9142 -0.4039
vn 0.0770 0.6659 -0.7420
vn 0.5443 0.6213 0.5637
vn 0.0952 0.6691 0.7370
vn 0.1178 0.4994 0.8583
vn 0.1193 0.4999 0.8578
vn 0.1198 0.5001 0.8576
vn 0.8264 -0.2240 -0.5166
vn 0.8436 0.1186 -0.5236
vn 0.8428 0.1189 -0.5250
vn 0.8422 0.1191 -0.5258
vn 0.1173 0.4992 0.8585
vn 0.1569 -0.1297 0.9791
vn 0.1396 -0.1204 0.9829
vn 0.8442 0.1184 -0.5228
vn 0.1354 -0.5673 0.8123
vn 0.1301 -0.5651 0.8147
vn 0.1364 -0.5677 0.8118
vn -0.1301 -0.5651 0.8147
vn -0.1354 -0.5673 0.8123
vn -0.1364 -0.5677 0.8118
vn -0.1396 -0.1204 0.9829
vn -0.1569 -0.1297 0.9791
vn -0.8436 0.1186 -0.5236
vn -0.8422 0.1191 -0.5258
vn -0.8427 0.1189 -0.5250
vn -0.8264 -0.2240 -0.5166
vn -0.1193 0.4999 0.8578
vn -0.1173 0.4992 0.8585
vn -0.1178 0.4994 0.8583
vn -0.8442 0.1184 -0.5228
vn -0.1198 0.5001 0.8576
vn -0.7946 -0.0327 0.6063
vn -0.8396 0.3094 -0.4466
vn -0.7923 -0.3481 0.5010
vn -0.8621 0.2921 -0.4142
vn -0.8583 0.3961 -0.3262
vn -0.1290 -0.5647 0.8152
vn -0.1093 -0.7718 0.6264
vn -0.1077 -0.7713 0.6273
vn -0.1181 -0.7744 0.6215
vn -0.1196 -0.7749 0.6207
vn -0.0831 -0.9888 0.1241
vn 0.0831 -0.9888 0.1241
vn 0.1181 -0.7744 0.6215
vn 0.1093 -0.7718 0.6264
vn 0.1196 -0.7749 0.6207
vn 0.1077 -0.7713 0.6273
vn 0.8621 0.2920 -0.4142
vn 0.8583 0.3961 -0.3262
vn 0.1290 -0.5647 0.8152
vn 0.8395 0.3094 -0.4466
vn 0.7945 -0.0327 0.6063
vn 0.7923 -0.3481 0.5010
vn -0.0953 0.6691 0.7370
vn -0.1735 0.7666 0.6183
vn -0.0954 0.5905 0.8014
vn -0.7185 -0.5439 -0.4335
vn -0.7185 -0.5439 0.4334
vn -0.2336 0.7099 -0.6644
vn -0.2336 0.7099 0.6644
vn -0.1735 0.7666 -0.6183
vn 0.2336 0.7099 -0.6644
vn -0.0954 0.5905 -0.8014
vn 0.0954 0.5905 -0.8014
vn 0.1735 0.7666 -0.6183
vn 0.2336 0.7099 0.6644
vn 0.7185 -0.5439 0.4335
vn 0.1735 0.7666 0.6183
vn 0.7185 -0.5439 -0.4335
vn 0.0954 0.5905 0.8014
vn -0.4698 -0.5736 0.6710
vn -0.4699 -0.5736 0.6710
vn -0.9401 -0.3311 -0.0809
vn -0.8119 0.5792 -0.0733
vn -0.8119 0.5792 -0.0734
vn 0.6126 -0.4706 0.6350
vn 0.1937 0.9412 -0.2767
vn -0.5399 0.3377 0.7710
vn -0.8063 -0.4706 -0.3584
vn -0.8062 -0.4706 -0.3584
vn 0.3975 -0.3311 0.8557
vn 0.8119 -0.5792 0.0733
vn 0.8119 -0.5792 0.0734
vn -0.9962 0.0023 -0.0872
vn 0.5736 -0.0046 -0.8191
vn 0.4226 0.0023 0.9063
vn 0.4226 0.0022 0.9063
vn -0.0026 -1.0000 0.0038
vn 0.5399 -0.3376 -0.7711
vn -0.3466 -0.5792 -0.7378
vn 0.4698 0.5736 -0.6710
vn 0.4699 0.5736 -0.6710
vn -0.8566 -0.4683 0.2167
vn 0.1434 0.9436 0.2985
vn 0.7132 -0.4752 -0.5153
vn -0.3976 0.3312 -0.8557
vn 0.0026 1.0000 -0.0037
vn 0.3466 0.5792 0.7378
vn 0.0893 -0.4683 0.8790
vn 0.2402 -0.4753 -0.8464
vn 0.2404 -0.4752 -0.8464
vn 0.9401 0.3312 0.0809
vn -0.3295 0.9436 -0.0326
vt 0.427388 0.293599
vt 0.427269 0.292626
vt 0.430323 0.292921
vt 0.420878 0.293012
vt 0.430106 0.292583
vt 0.421037 0.291735
vt 0.427146 0.292173
vt 0.569640 0.946272
vt 0.570100 0.947568
vt 0.569051 0.949305
vt 0.430841 0.292492
vt 0.570541 0.948947
vt 0.569061 0.950198
vt 0.569939 0.950357
vt 0.571828 0.949614
vt 0.574016 0.946014
vt 0.431287 0.291993
vt 0.430963 0.291770
vt 0.573028 0.950284
vt 0.431024 0.288956
vt 0.430570 0.288826
vt 0.430287 0.282695
vt 0.431993 0.289091
vt 0.431566 0.282566
vt 0.468936 0.316387
vt 0.469199 0.308325
vt 0.471025 0.308615
vt 0.429661 0.274755
vt 0.431490 0.274509
vt 0.469336 0.322796
vt 0.468361 0.322915
vt 0.470214 0.316545
vt 0.469791 0.322673
vt 0.469378 0.325636
vt 0.469039 0.325853
vt 0.535709 0.360992
vt 0.536462 0.359000
vt 0.536421 0.362232
vt 0.534993 0.359662
vt 0.469468 0.326371
vt 0.536278 0.358069
vt 0.532039 0.363308
vt 0.533544 0.359242
vt 0.535332 0.358071
vt 0.469968 0.326817
vt 0.470190 0.326493
vt 0.473006 0.326555
vt 0.532185 0.358813
vt 0.473136 0.326103
vt 0.479256 0.325805
vt 0.479382 0.327084
vt 0.472872 0.327524
vt 0.487202 0.325200
vt 0.479295 0.325353
vt 0.487134 0.324706
vt 0.494242 0.324235
vt 0.487434 0.327053
vt 0.494544 0.324748
vt 0.513586 0.364617
vt 0.511365 0.362880
vt 0.518322 0.361612
vt 0.499014 0.322728
vt 0.509148 0.366793
vt 0.506433 0.364997
vt 0.507033 0.370129
vt 0.512818 0.372831
vt 0.514849 0.369980
vt 0.506409 0.374176
vt 0.520155 0.377662
vt 0.511903 0.375867
vt 0.503312 0.373578
vt 0.503994 0.378054
vt 0.506749 0.377860
vt 0.506203 0.381017
vt 0.500378 0.308488
vt 0.501791 0.311198
vt 0.500069 0.308509
vt 0.502128 0.311143
vt 0.502209 0.315145
vt 0.502204 0.306797
vt 0.498288 0.304297
vt 0.496710 0.306511
vt 0.402443 0.269927
vt 0.400308 0.274078
vt 0.398510 0.272371
vt 0.405711 0.267692
vt 0.403990 0.272155
vt 0.495040 0.302021
vt 0.400616 0.274104
vt 0.398867 0.276760
vt 0.398531 0.276702
vt 0.398400 0.280686
vt 0.588501 0.917744
vt 0.584579 0.920218
vt 0.583952 0.917078
vt 0.591522 0.919974
vt 0.588318 0.920542
vt 0.580477 0.920880
vt 0.583262 0.926720
vt 0.586326 0.925776
vt 0.580401 0.928795
vt 0.588173 0.934085
vt 0.577108 0.923056
vt 0.574957 0.927585
vt 0.573147 0.925352
vt 0.575258 0.920311
vt 0.405843 0.290354
vt 0.401468 0.288269
vt 0.406153 0.289847
vt 0.413110 0.290932
vt 0.572018 0.932437
vt 0.413203 0.290452
vt 0.412821 0.292758
vt 0.421012 0.291281
vt 0.570722 0.940161
vt 0.570292 0.945522
vt 0.573392 0.934050
vt 0.571579 0.941006
vt 0.575289 0.937768
vt 0.577853 0.932610
vt 0.582400 0.938946
vt 0.585712 0.936157
vt 0.587869 0.944499
vt 0.592063 0.942646
vt 0.582356 0.946149
vt 0.592308 0.948204
vt 0.585694 0.948641
vt 0.587047 0.950262
vt 0.579231 0.950242
vt 0.578542 0.949256
vt 0.429834 0.282658
vt 0.573876 0.949767
vt 0.429183 0.274829
vt 0.576392 0.948028
vt 0.578375 0.942338
vt 0.572429 0.943333
vt 0.428736 0.267746
vt 0.594176 0.950357
vt 0.597137 0.946892
vt 0.429162 0.267475
vt 0.427260 0.262754
vt 0.599499 0.949207
vt 0.599886 0.943965
vt 0.594606 0.940186
vt 0.596067 0.937324
vt 0.601274 0.940027
vt 0.601603 0.936256
vt 0.604290 0.941213
vt 0.604423 0.936559
vt 0.414922 0.259358
vt 0.419331 0.259214
vt 0.414990 0.259728
vt 0.412100 0.261477
vt 0.602719 0.933163
vt 0.412146 0.261832
vt 0.410210 0.265572
vt 0.407731 0.264075
vt 0.410119 0.259581
vt 0.490579 0.299846
vt 0.493067 0.298386
vt 0.488758 0.295738
vt 0.490744 0.293887
vt 0.488714 0.296087
vt 0.485927 0.293940
vt 0.485987 0.293589
vt 0.481644 0.293321
vt 0.525994 0.390785
vt 0.527128 0.393820
vt 0.522486 0.393876
vt 0.522227 0.391063
vt 0.519134 0.392129
vt 0.523356 0.385550
vt 0.526229 0.384109
vt 0.529961 0.389442
vt 0.528712 0.381574
vt 0.532937 0.386711
vt 0.536462 0.383763
vt 0.535241 0.389118
vt 0.534305 0.381857
vt 0.471695 0.301341
vt 0.473705 0.296672
vt 0.472114 0.301625
vt 0.536420 0.376552
vt 0.471502 0.308700
vt 0.473528 0.296346
vt 0.469508 0.300639
vt 0.431365 0.266829
vt 0.427454 0.262435
vt 0.471493 0.294768
vt 0.429540 0.260911
vt 0.423896 0.260139
vt 0.424076 0.259773
vt 0.425479 0.257195
vt 0.419396 0.258665
vt 0.602677 0.945900
vt 0.419648 0.255536
vt 0.413892 0.256643
vt 0.487042 0.290949
vt 0.481586 0.292767
vt 0.481465 0.289821
vt 0.477115 0.294144
vt 0.476964 0.293779
vt 0.531867 0.392274
vt 0.475666 0.291196
vt 0.536411 0.368607
vt 0.534782 0.375175
vt 0.470668 0.316519
vt 0.535893 0.363110
vt 0.535401 0.367906
vt 0.534130 0.365716
vt 0.532256 0.371793
vt 0.528369 0.367786
vt 0.524991 0.371871
vt 0.523716 0.364756
vt 0.529270 0.361752
vt 0.526889 0.360952
vt 0.531443 0.359505
vt 0.526011 0.360112
vt 0.519959 0.362940
vt 0.518606 0.367404
vt 0.522216 0.375202
vt 0.530593 0.377361
vt 0.518431 0.379712
vt 0.520580 0.386490
vt 0.516906 0.381518
vt 0.518571 0.387121
vt 0.520044 0.390483
vt 0.516800 0.388246
vt 0.490252 0.300223
vt 0.492876 0.303982
vt 0.514284 0.384595
vt 0.492328 0.304498
vt 0.496344 0.306782
vt 0.507655 0.379880
vt 0.510326 0.382685
vt 0.511149 0.380783
vt 0.511444 0.378725
vt 0.515671 0.382973
vt 0.407850 0.269680
vt 0.410534 0.265953
vt 0.601050 0.934055
vt 0.598839 0.930758
vt 0.597685 0.932533
vt 0.595168 0.928179
vt 0.408390 0.270202
vt 0.597032 0.934547
vt 0.590231 0.932352
vt 0.592050 0.930819
vt 0.589216 0.925300
vt 0.590373 0.921453
vt 0.591301 0.924996
vt 0.593230 0.924158
vt 0.404352 0.272429
vt 0.593520 0.929577
vt 0.405144 0.292463
vt 0.401156 0.288438
vt 0.399159 0.284978
vt 0.399595 0.290331
vt 0.396374 0.286286
vt 0.398825 0.285117
vt 0.395217 0.280889
vt 0.501728 0.319590
vt 0.505404 0.315385
vt 0.504184 0.320791
vt 0.499342 0.322906
vt 0.500916 0.324841
vt 0.501389 0.319448
vt 0.495266 0.327027
vt 0.503990 0.368781
vt 0.502648 0.315192
vt 0.504596 0.310317
vt 0.396082 0.275849
vt 0.397963 0.280729
vt 0.579084 0.917799
vt 0.469241 0.326592
vt 0.469584 0.327524
vt 0.468699 0.327120
vt 0.468318 0.326224
vt 0.431062 0.292719
vt 0.431993 0.292376
vt 0.431590 0.293261
vt 0.430694 0.293642
vt 0.625475 0.852660
vt 0.648390 0.851544
vt 0.649655 0.851467
vt 0.649688 0.850218
vt 0.640752 0.842884
vt 0.640258 0.841399
vt 0.628689 0.851781
vt 0.647066 0.852692
vt 0.191455 0.935746
vt 0.253533 0.899906
vt 0.253533 0.971586
vt 0.630506 0.852117
vt 0.627550 0.849376
vt 0.646432 0.829427
vt 0.646417 0.829171
vt 0.625242 0.852692
vt 0.649902 0.851691
vt 0.142651 0.921632
vt 0.106809 0.983711
vt 0.070969 0.921632
vt 0.645199 0.830948
vt 0.648203 0.830069
vt 0.639819 0.843800
vt 0.638331 0.843297
vt 0.648566 0.831902
vt 0.650813 0.848889
vt 0.013913 0.987518
vt 0.049755 0.925440
vt 0.085595 0.987518
vt 0.641769 0.844845
vt 0.642278 0.831896
vt 0.643736 0.846828
vt 0.133408 0.980313
vt 0.169248 0.918235
vt 0.205089 0.980313
vt 0.628504 0.846445
s 1
usemtl Player.001
f 2/1/1 1/2/2 3/3/3
f 6/4/4 1/2/2 2/1/1
f 1/2/5 7/5/5 3/3/5
f 6/4/6 4/6/6 1/2/6
f 4/6/7 5/7/7 1/2/7
f 1/2/8 5/7/8 7/5/8
f 5/8/9 9/9/9 7/10/9
f 3/3/10 7/5/10 8/11/10
f 7/10/11 10/12/11 8/13/11
f 7/10/12 9/9/12 10/12/12
f 10/12/13 13/14/13 8/13/13
f 12/15/14 10/12/14 11/16/14
f 9/9/15 11/16/15 10/12/15
f 10/12/16 12/15/16 13/14/16
f 15/17/17 8/11/17 13/18/17
f 12/15/18 14/19/18 13/14/18
f 16/20/19 13/18/19 14/21/19
f 16/20/20 15/17/20 13/18/20
f 18/22/21 16/20/21 14/21/21
f 15/17/22 16/20/23 17/23/24
f 16/20/23 19/24/25 17/23/24
f 16/20/26 18/22/26 19/24/26
f 19/25/27 20/26/27 22/27/27
f 19/24/28 23/28/28 20/29/28
f 19/24/29 18/22/29 23/28/29
f 24/30/30 17/31/31 19/25/32
f 24/30/33 19/25/33 21/32/33
f 19/25/34 22/27/34 21/32/34
f 24/30/35 25/33/35 27/34/35
f 21/32/36 25/33/36 24/30/36
f 26/35/37 17/31/31 24/30/30
f 24/30/38 27/34/38 26/35/38
f 28/36/39 27/37/39 25/38/39
f 30/39/40 27/37/40 28/36/40
f 26/35/41 27/34/41 29/40/41
f 30/39/42 29/41/42 27/37/42
f 28/36/43 31/42/43 30/39/43
f 31/42/44 32/43/44 30/39/44
f 30/39/45 32/43/45 33/44/45
f 30/39/46 33/44/46 29/41/46
f 34/45/47 29/40/47 33/46/47
f 36/47/48 34/45/48 33/46/48
f 32/43/49 35/48/49 33/44/49
f 36/47/50 33/46/50 35/49/50
f 37/50/51 36/47/51 35/49/51
f 36/47/52 37/50/52 6/51/52
f 34/45/53 36/47/54 2/52/55
f 36/47/54 6/51/56 2/52/55
f 39/53/57 37/50/58 38/54/59
f 37/50/58 35/49/60 38/54/59
f 39/53/61 6/51/61 37/50/61
f 39/53/62 40/55/62 43/56/62
f 39/53/63 38/54/63 40/55/63
f 39/53/64 41/57/64 6/51/64
f 42/58/65 41/57/65 39/53/65
f 39/53/66 43/56/66 42/58/66
f 44/59/67 43/60/67 40/61/67
f 42/58/68 43/56/68 45/62/68
f 46/63/69 43/60/70 44/59/71
f 46/63/69 45/64/72 43/60/70
f 47/65/73 45/64/73 46/63/73
f 49/66/74 47/65/74 46/63/74
f 48/67/75 46/63/76 44/59/77
f 49/66/78 46/63/78 48/67/78
f 49/66/79 52/68/79 47/65/79
f 50/69/80 49/66/80 48/67/80
f 50/69/81 51/70/81 49/66/81
f 49/66/82 51/70/82 52/68/82
f 47/65/83 52/68/83 53/71/83
f 52/68/84 55/72/84 53/71/84
f 51/70/85 54/73/85 52/68/85
f 52/68/86 54/73/86 55/72/86
f 54/73/87 56/74/87 55/72/87
f 58/75/88 55/76/88 56/77/88
f 57/78/89 53/79/89 55/76/89
f 58/75/90 57/78/90 55/76/90
f 57/78/91 58/75/92 59/80/93
f 58/75/94 61/81/95 59/80/96
f 60/82/97 58/75/97 56/77/97
f 58/75/94 60/82/98 61/81/95
f 61/83/99 64/84/100 59/85/101
f 62/86/102 63/87/102 61/83/102
f 60/82/103 62/88/103 61/81/103
f 61/83/99 63/87/104 64/84/100
f 64/84/105 65/89/105 67/90/105
f 63/87/106 65/89/106 64/84/106
f 59/85/107 64/84/108 66/91/109
f 64/84/110 67/90/110 66/91/110
f 66/91/111 67/90/111 68/92/111
f 67/93/112 70/94/112 68/95/112
f 65/96/113 69/97/113 67/93/113
f 67/93/114 69/97/114 70/94/114
f 68/95/115 70/94/115 71/98/115
f 70/94/116 73/99/116 71/98/116
f 69/97/117 72/100/117 70/94/117
f 70/94/118 72/100/118 73/99/118
f 74/101/119 73/99/119 75/102/119
f 76/103/120 73/99/120 74/101/120
f 72/100/121 75/102/121 73/99/121
f 76/103/122 71/98/122 73/99/122
f 77/104/123 76/103/124 74/101/125
f 79/105/126 76/103/127 77/104/128
f 78/106/129 71/98/129 76/103/129
f 79/105/126 78/106/130 76/103/127
f 80/107/131 78/108/131 79/109/131
f 82/110/132 80/107/132 79/109/132
f 81/111/133 79/105/133 77/104/133
f 82/110/134 79/109/134 81/112/134
f 6/4/135 41/113/135 82/110/135
f 41/113/136 80/107/136 82/110/136
f 6/4/137 82/110/137 4/6/137
f 82/110/138 83/114/139 4/6/140
f 82/110/141 81/112/141 83/114/141
f 4/6/140 83/114/139 5/7/142
f 83/115/143 85/116/143 5/8/143
f 83/115/144 81/111/145 86/117/146
f 83/115/147 84/118/147 85/116/147
f 83/115/148 86/117/148 84/118/148
f 84/118/149 86/117/149 87/119/149
f 81/111/145 77/104/150 86/117/146
f 86/117/151 77/104/151 88/120/151
f 86/117/152 88/120/152 87/119/152
f 87/119/153 88/120/154 89/121/155
f 88/120/156 90/122/157 89/121/158
f 88/120/156 74/101/159 90/122/157
f 77/104/123 74/101/125 88/120/160
f 92/123/161 89/121/162 90/122/163
f 91/124/164 90/122/164 75/102/164
f 74/101/165 75/102/165 90/122/165
f 92/123/161 90/122/163 91/124/166
f 94/125/167 89/121/168 92/123/169
f 93/126/170 92/123/171 91/124/172
f 95/127/173 92/123/173 93/126/173
f 95/127/174 94/125/174 92/123/174
f 96/128/175 95/127/176 93/126/177
f 98/129/178 95/127/176 96/128/175
f 98/129/179 97/130/179 95/127/179
f 97/130/180 94/125/180 95/127/180
f 18/22/181 14/21/182 98/131/183
f 99/132/184 98/129/184 14/19/184
f 23/28/185 18/22/181 98/131/183
f 99/132/186 97/130/186 98/129/186
f 23/28/187 98/131/187 96/133/187
f 12/15/188 99/132/188 14/19/188
f 99/132/189 12/15/189 100/134/189
f 99/132/190 100/134/190 97/130/190
f 12/15/191 11/16/191 100/134/191
f 97/130/192 100/134/192 94/125/192
f 100/134/193 11/16/193 101/135/193
f 100/134/194 101/135/194 94/125/194
f 102/136/195 87/119/195 101/135/195
f 87/119/153 89/121/155 101/135/196
f 102/136/197 101/135/197 11/16/197
f 94/125/167 101/135/198 89/121/168
f 85/116/199 84/118/199 102/136/199
f 84/118/200 87/119/200 102/136/200
f 9/9/201 102/136/201 11/16/201
f 85/116/202 102/136/202 9/9/202
f 23/28/203 96/133/203 103/137/203
f 96/128/204 93/126/204 103/138/204
f 103/138/205 93/126/206 106/139/207
f 105/140/208 103/137/208 104/141/208
f 103/138/205 106/139/207 104/142/209
f 23/28/210 103/137/210 105/140/210
f 93/126/170 91/124/172 106/139/211
f 104/142/212 106/139/212 107/143/212
f 106/139/213 108/144/213 107/143/213
f 106/139/214 91/124/214 108/144/214
f 108/144/215 109/145/215 110/146/215
f 75/102/216 109/145/216 108/144/216
f 108/144/217 110/146/217 107/143/217
f 91/124/218 75/102/218 108/144/218
f 109/145/219 111/147/219 110/146/219
f 107/143/220 110/146/220 112/148/220
f 110/146/221 111/147/221 113/149/221
f 110/146/222 113/149/222 112/148/222
f 114/150/223 112/151/223 113/152/223
f 116/153/224 114/150/224 113/152/224
f 111/147/225 115/154/225 113/149/225
f 116/153/226 113/152/226 115/155/226
f 117/156/227 116/153/227 115/155/227
f 116/153/228 117/156/229 119/157/230
f 114/150/231 116/153/232 118/158/233
f 116/153/228 119/157/230 118/158/234
f 120/159/235 119/160/235 62/88/235
f 121/161/236 119/160/237 120/159/238
f 117/156/239 62/86/239 119/157/239
f 121/161/236 118/162/240 119/160/237
f 121/161/241 122/163/241 124/164/241
f 120/159/242 122/163/242 121/161/242
f 123/165/243 118/162/244 121/161/245
f 121/161/246 124/164/246 123/165/246
f 123/165/247 124/164/247 125/166/247
f 127/167/248 125/168/248 124/169/248
f 126/170/249 124/169/249 122/171/249
f 127/167/250 124/169/250 126/170/250
f 128/172/251 127/167/251 126/170/251
f 130/173/252 127/167/252 128/172/252
f 130/173/253 129/174/253 127/167/253
f 129/174/254 125/168/254 127/167/254
f 50/69/255 130/173/255 128/172/255
f 131/175/256 130/173/256 50/69/256
f 132/176/257 130/173/257 131/175/257
f 132/176/258 129/174/258 130/173/258
f 135/177/259 133/178/260 132/176/261
f 133/178/262 129/174/262 132/176/262
f 134/179/263 132/176/264 131/175/265
f 135/177/259 132/176/261 134/179/266
f 137/180/267 133/181/267 135/182/267
f 136/183/268 135/177/268 134/179/268
f 22/27/269 135/182/269 136/184/269
f 22/27/270 137/180/270 135/182/270
f 137/180/271 138/185/271 133/181/271
f 139/186/272 138/185/273 137/180/274
f 20/26/275 139/186/275 137/180/275
f 20/26/276 137/180/276 22/27/276
f 139/187/277 105/140/278 141/188/279
f 20/29/280 105/140/280 139/187/280
f 139/186/272 140/189/281 138/185/273
f 139/187/277 141/188/279 140/190/282
f 141/188/283 104/141/284 144/191/285
f 105/140/286 104/141/286 141/188/286
f 141/188/287 142/192/287 143/193/287
f 141/188/283 144/191/285 142/192/288
f 141/188/289 143/193/289 140/190/289
f 145/194/290 144/191/290 112/151/290
f 107/143/291 112/148/291 144/195/291
f 104/142/292 107/143/292 144/195/292
f 145/194/293 142/192/293 144/191/293
f 114/150/294 145/194/294 112/151/294
f 142/192/295 145/194/296 146/196/297
f 145/194/298 147/197/299 146/196/300
f 145/194/298 114/150/301 147/197/299
f 123/165/243 147/198/302 118/162/244
f 114/150/231 118/158/233 147/197/303
f 148/199/304 146/200/305 147/198/306
f 148/199/304 147/198/306 123/165/307
f 148/199/308 125/166/308 150/201/308
f 123/165/309 125/166/309 148/199/309
f 149/202/310 146/200/311 148/199/312
f 148/199/313 150/201/313 149/202/313
f 129/174/314 150/203/314 125/168/314
f 138/185/315 149/202/316 150/201/317
f 133/178/318 150/203/318 129/174/318
f 138/185/315 150/201/317 133/181/319
f 149/202/310 143/204/320 146/200/311
f 138/185/321 143/204/321 149/202/321
f 142/192/295 146/196/297 143/193/322
f 138/185/323 140/189/323 143/204/323
f 152/205/324 136/183/325 151/206/326
f 136/183/325 134/179/327 151/206/326
f 22/27/328 136/184/328 152/207/328
f 21/32/329 152/207/330 25/33/331
f 22/27/332 152/207/330 21/32/329
f 154/208/333 25/38/333 152/205/333
f 154/208/334 152/205/334 153/209/334
f 152/205/335 151/206/335 153/209/335
f 28/36/336 25/38/336 154/208/336
f 154/208/337 153/209/337 155/210/337
f 154/208/338 155/210/338 28/36/338
f 155/210/339 156/211/339 157/212/339
f 153/209/340 156/211/340 155/210/340
f 28/36/341 155/210/341 31/42/341
f 155/210/342 157/212/342 31/42/342
f 156/211/343 158/213/344 157/212/345
f 158/213/346 159/214/347 157/212/348
f 157/212/349 160/215/349 31/42/349
f 157/212/350 159/214/350 160/215/350
f 160/215/351 161/216/351 162/217/351
f 159/214/352 161/216/352 160/215/352
f 31/42/353 160/215/353 32/43/353
f 160/215/354 162/217/354 32/43/354
f 32/43/355 162/217/355 35/48/355
f 162/217/356 38/218/356 35/48/356
f 162/217/357 161/216/357 38/218/357
f 163/219/358 38/218/358 161/216/358
f 159/214/359 163/219/359 161/216/359
f 163/219/360 40/61/361 38/218/362
f 44/59/363 40/61/361 163/219/360
f 164/220/364 44/59/364 163/219/364
f 164/220/365 163/219/365 159/214/365
f 158/213/346 164/220/366 159/214/347
f 165/221/367 164/220/368 158/213/369
f 48/67/75 44/59/77 164/220/370
f 165/221/367 48/67/371 164/220/368
f 166/222/372 131/175/373 165/221/374
f 131/175/375 50/69/375 165/221/375
f 50/69/376 48/67/376 165/221/376
f 166/222/372 165/221/374 158/213/377
f 134/179/263 131/175/265 166/222/378
f 156/211/343 166/222/379 158/213/344
f 151/206/380 166/222/380 156/211/380
f 151/206/381 134/179/381 166/222/381
f 153/209/382 151/206/382 156/211/382
f 167/223/383 128/172/384 168/224/385
f 50/69/386 128/172/386 167/223/386
f 128/172/387 126/170/387 168/224/387
f 169/225/388 168/224/388 170/226/388
f 167/223/383 168/224/385 169/225/389
f 168/224/390 126/170/390 171/227/390
f 168/224/391 171/227/391 170/226/391
f 171/227/392 122/171/392 172/228/392
f 126/170/393 122/171/393 171/227/393
f 171/227/394 172/228/394 170/226/394
f 120/159/395 172/229/395 122/163/395
f 174/230/396 172/229/397 120/159/398
f 170/226/399 172/228/399 173/231/399
f 174/230/396 173/232/400 172/229/397
f 120/159/401 62/88/401 174/230/401
f 60/82/402 174/230/402 62/88/402
f 174/230/403 60/82/404 175/233/405
f 174/230/403 175/233/405 173/232/406
f 177/234/407 175/235/407 56/74/407
f 60/82/408 56/77/408 175/233/408
f 177/234/409 176/236/409 175/235/409
f 176/236/410 173/231/410 175/235/410
f 54/73/411 177/234/411 56/74/411
f 178/237/412 177/234/412 54/73/412
f 178/237/413 176/236/413 177/234/413
f 169/225/414 176/236/414 178/237/414
f 167/223/383 169/225/389 178/237/415
f 51/70/416 178/237/416 54/73/416
f 167/223/383 178/237/415 51/70/417
f 176/236/418 179/238/418 173/231/418
f 169/225/419 179/238/419 176/236/419
f 169/225/420 170/226/420 179/238/420
f 170/226/421 173/231/421 179/238/421
f 50/69/422 167/223/422 51/70/422
f 180/239/423 117/156/424 181/240/425
f 117/156/426 180/239/426 62/86/426
f 117/156/427 115/155/427 181/240/427
f 184/241/428 181/242/428 115/154/428
f 184/241/429 182/243/429 181/242/429
f 182/243/430 183/244/430 181/242/430
f 180/239/423 181/240/425 183/245/431
f 111/147/432 184/241/432 115/154/432
f 185/246/433 184/241/433 111/147/433
f 185/246/434 182/243/434 184/241/434
f 109/145/435 185/246/435 111/147/435
f 187/247/436 185/246/437 109/145/438
f 186/248/439 182/243/439 185/246/439
f 187/247/436 186/248/440 185/246/437
f 72/100/441 187/247/441 75/102/441
f 188/249/442 187/247/436 72/100/443
f 75/102/444 187/247/444 109/145/444
f 188/249/442 186/248/440 187/247/436
f 69/97/445 188/249/445 72/100/445
f 190/250/446 189/251/446 188/249/446
f 189/251/447 186/248/447 188/249/447
f 190/250/448 188/249/448 69/97/448
f 191/252/449 189/251/449 190/250/449
f 65/96/450 190/250/450 69/97/450
f 191/252/451 190/250/451 65/96/451
f 183/244/452 189/251/452 191/252/452
f 63/87/453 191/253/453 65/89/453
f 180/239/454 191/253/455 63/87/456
f 180/239/454 183/245/457 191/253/455
f 183/244/458 192/254/458 189/251/458
f 189/251/459 192/254/459 186/248/459
f 182/243/460 192/254/460 183/244/460
f 186/248/461 192/254/461 182/243/461
f 62/86/462 180/239/462 63/87/462
f 20/29/463 23/28/463 105/140/463
f 5/8/464 85/116/464 9/9/464
f 41/113/465 193/255/465 80/107/465
f 193/255/466 194/256/467 80/107/468
f 80/107/469 194/256/469 78/108/469
f 194/256/470 197/257/471 78/108/472
f 193/255/466 195/258/473 194/256/467
f 198/259/474 194/256/474 195/258/474
f 198/259/475 196/260/475 194/256/475
f 194/256/470 196/260/476 197/257/471
f 199/261/477 196/260/478 198/259/479
f 200/262/480 199/263/481 198/264/482
f 201/265/483 200/262/483 198/264/483
f 201/265/484 198/264/484 195/266/484
f 201/265/485 45/62/486 202/267/487
f 42/58/488 45/62/488 201/265/488
f 201/265/489 195/266/490 193/268/491
f 201/265/485 202/267/487 200/262/492
f 201/265/489 193/268/491 42/58/493
f 47/65/494 202/269/494 45/64/494
f 203/270/495 200/262/495 202/267/495
f 47/65/496 53/71/496 202/269/496
f 203/270/497 202/267/497 53/79/497
f 57/78/498 203/270/498 53/79/498
f 200/262/480 203/270/499 199/263/481
f 203/270/500 57/78/501 204/271/502
f 203/270/500 204/271/502 199/263/503
f 57/78/91 59/80/93 204/271/504
f 59/85/107 66/91/109 204/272/505
f 204/272/506 205/273/507 199/261/508
f 204/272/506 66/91/509 205/273/507
f 205/273/510 68/92/510 197/257/510
f 66/91/511 68/92/511 205/273/511
f 199/261/477 205/273/512 196/260/478
f 205/273/513 197/257/513 196/260/513
f 78/106/514 197/274/514 71/98/514
f 68/95/515 71/98/515 197/274/515
f 42/58/516 193/268/516 41/57/516
f 207/275/517 34/45/517 206/276/517
f 34/45/518 2/52/518 206/276/518
f 34/45/519 207/275/519 29/40/519
f 26/35/520 29/40/520 207/275/520
f 207/275/521 208/277/521 209/278/521
f 207/275/522 206/276/522 208/277/522
f 207/275/523 209/278/523 26/35/523
f 210/279/524 209/280/524 208/281/524
f 26/35/525 209/278/525 17/31/525
f 15/17/526 17/23/526 209/280/526
f 210/279/527 15/17/527 209/280/527
f 206/282/528 210/279/528 208/281/528
f 15/17/529 210/279/529 8/11/529
f 206/282/530 3/3/530 210/279/530
f 3/3/531 8/11/531 210/279/531
f 2/1/532 3/3/532 206/282/532
f 217/283/533 211/284/534 212/285/534
f 211/284/535 213/286/535 212/285/535
f 214/287/536 213/286/537 211/284/537
f 211/284/538 218/288/538 214/287/538
f 217/283/533 215/289/533 211/284/534
f 215/289/539 216/290/539 211/284/539
f 211/284/538 216/290/538 218/288/538
f 218/291/540 216/292/540 219/293/540
f 214/287/541 218/288/541 219/294/542
f 215/289/539 219/294/539 216/290/539
f 214/287/541 219/294/542 215/289/542
f 215/289/543 217/283/543 220/295/543
f 220/295/544 217/283/544 221/296/545
f 217/283/546 223/297/546 221/296/546
f 212/285/547 222/298/547 217/283/547
f 217/283/546 222/298/546 223/297/546
f 221/296/548 223/297/548 224/299/549
f 223/300/550 222/301/550 224/302/550
f 212/285/547 224/299/547 222/298/547
f 221/296/548 224/299/549 212/285/549
f 220/295/544 221/296/545 225/303/545
f 225/303/551 221/296/551 226/304/551
f 226/304/552 221/296/552 212/285/552
f 225/303/553 226/304/553 227/305/554
f 226/304/555 229/306/555 227/305/555
f 213/286/556 228/307/556 226/304/556
f 226/304/552 212/285/552 213/286/552
f 226/304/555 228/307/555 229/306/555
f 227/305/557 229/306/557 230/308/557
f 229/309/558 228/310/558 230/311/558
f 213/286/556 230/308/556 228/307/556
f 227/305/557 230/308/557 213/286/557
f 214/287/536 227/305/536 213/286/537
f 214/287/559 231/312/559 227/305/559
f 225/303/553 227/305/554 231/312/554
f 215/289/560 231/312/560 214/287/560
f 231/312/561 233/313/561 225/303/561
f 215/289/560 220/295/560 231/312/560
f 220/295/562 232/314/563 231/312/563
f 231/312/561 232/314/561 233/313/561
f 233/315/564 232/316/564 234/317/564
f 225/303/565 233/313/565 234/318/565
f 220/295/562 234/318/562 232/314/563
f 225/303/565 234/318/565 220/295/565
