# Blender 5.2.2 LTS
# www.blender.org
mtllib finalBossHand_5.mtl
o 立方体.009
v 3.125291 -9.790464 -0.717316
v 3.143946 -9.850992 -0.673771
v 3.370114 -7.881630 0.081616
v 3.246471 -10.270679 -0.912431
v 3.235218 -10.118309 -1.019141
v 3.129905 -9.733747 -0.766370
v 3.193341 -10.446894 -1.115223
v 3.466275 -9.809492 -0.784061
v 3.466704 -9.687363 -0.804032
v 3.482605 -9.813629 -0.705020
v 3.704009 -7.869778 -0.016697
v 3.691305 -7.774642 -0.058709
v 4.207027 -5.672969 0.415033
v 3.726528 -7.860955 0.056788
v 3.512079 -9.718023 -0.583549
v 4.257295 -5.658774 0.511964
v 3.757783 -7.758636 0.152330
v 3.548076 -9.556824 -0.442177
v 3.794579 -7.596232 0.255485
v 4.327880 -5.585680 0.606054
v 4.407050 -5.469437 0.692910
v 5.636395 -2.836047 0.438972
v 5.687831 -2.747237 0.546837
v 5.475054 1.422088 -0.134104
v 5.504591 1.424207 -0.007544
v 5.738777 -2.617362 0.640632
v 5.527709 1.425089 0.105360
v 5.783566 -2.454122 0.718827
v 4.488526 -5.326169 0.769620
v 3.834216 -7.396271 0.356611
v 4.728453 -4.917791 0.862416
v 3.925141 -6.931291 0.525673
v 3.661134 -8.883121 -0.030614
v 3.773864 -7.994197 0.323294
v 4.103064 -6.060385 0.704291
v 4.092318 -6.087840 0.731761
v 5.232215 -3.919392 0.940304
v 5.283812 -3.833762 0.890815
v 5.863905 -2.040709 0.811400
v 5.948943 -1.084859 0.812004
v 5.924794 -1.237885 0.882077
v 5.393180 1.814022 0.399552
v 5.877759 -1.184829 0.892126
v 5.201069 -3.874954 0.958320
v 4.071099 -6.061293 0.747313
v 4.910764 -4.338257 0.962794
v 5.788428 -1.546150 0.896182
v 5.633161 -2.174004 0.886887
v 5.362631 1.370177 0.377054
v 5.329842 1.679008 0.394985
v 4.091520 3.203964 -0.033964
v 4.145935 3.234537 0.022354
v 5.330841 1.840370 0.403974
v 4.240696 3.246607 0.028296
v 4.197396 3.247044 0.046996
v 3.801343 4.390803 0.176294
v 3.772447 4.435343 0.208883
v 3.723471 4.555776 0.232335
v 3.798390 6.475149 0.717010
v 3.798170 6.387508 0.671540
v 3.826291 6.572727 0.682658
v 3.797920 4.522114 0.176138
v 3.775311 4.612914 0.137826
v 4.207553 3.265259 -0.097950
v 4.181722 3.308468 -0.012517
v 5.325679 2.006396 0.304017
v 5.515303 1.540291 0.310033
v 5.537239 1.436780 0.199716
v 4.145329 3.287441 -0.203623
v 3.745656 4.801430 0.104623
v 4.096595 3.305117 -0.279867
v 4.041000 3.318221 -0.367794
v 3.726723 4.914260 0.072362
v 3.701461 5.017077 0.027613
v 3.978132 7.527893 0.682376
v 3.943663 7.321865 0.707468
v 3.974246 7.610742 0.870915
v 3.898326 7.169328 0.823840
v 3.879960 6.931994 0.708163
v 3.838218 6.781712 0.772273
v 3.887290 7.247149 0.880104
v 3.828825 6.793369 0.794299
v 3.661571 4.720313 0.246227
v 3.617314 4.944016 0.283734
v 4.000349 3.215245 -0.076317
v 3.900257 3.207373 -0.117056
v 5.312171 1.288173 0.322450
v 5.216302 1.237893 0.256980
v 5.373041 -2.561720 0.812334
v 5.510099 -2.441657 0.854563
v 5.107782 1.192258 0.172196
v 3.800886 3.187364 -0.172348
v 5.007364 1.142035 0.072229
v 5.233066 -2.629387 0.751277
v 3.987630 -5.439733 0.833511
v 5.109129 -2.651254 0.670881
v 4.129302 -5.370550 0.878546
v 4.279013 -5.257607 0.912915
v 3.685009 -7.508023 0.413976
v 3.595480 -7.732615 0.326318
v 3.335775 -9.704329 -0.419349
v 3.425651 -9.493631 -0.282747
v 3.513756 -7.880142 0.246239
v 3.446939 -7.933705 0.183395
v 3.870346 -5.456761 0.776887
v 3.251807 -9.839273 -0.536727
v 3.317455 -10.053802 -0.707098
v 3.397859 -9.795294 -0.505392
v 3.186120 -9.882191 -0.620375
v 3.398009 -7.921327 0.132226
v 3.735102 -5.405100 0.623483
v 3.785743 -5.434071 0.707435
v 5.014677 -2.646893 0.572932
v 4.958892 -2.644270 0.461312
v 4.888683 1.039225 -0.162527
v 4.947581 -2.661320 0.340625
v 3.718482 -5.395307 0.525410
v 3.738216 -5.379663 0.420224
v 3.382271 -7.780977 -0.029929
v 3.365241 -7.843365 0.023639
v 3.157868 -9.652828 -0.802606
v 3.287654 -9.774097 -0.918806
v 3.207460 -9.510859 -0.804088
v 3.417940 -7.661740 -0.065095
v 3.271903 -9.297865 -0.765907
v 3.343860 -9.419132 -0.814936
v 3.477892 -9.480406 -0.777637
v 3.397565 -9.068457 -0.713011
v 3.492604 -9.228924 -0.725408
v 3.687574 -7.597636 -0.072527
v 3.689920 -7.376832 -0.069827
v 3.506328 -8.960087 -0.660792
v 3.696634 -7.135845 -0.057830
v 3.537057 -8.423796 -0.517310
v 3.452801 -8.600245 -0.577021
v 3.339438 -9.034472 -0.699661
v 3.404374 -8.629223 -0.576187
v 3.506348 -7.982047 -0.396442
v 3.486673 -7.960308 -0.385648
v 3.539939 -7.544257 -0.288223
v 3.589255 -7.556545 -0.276565
v 3.567026 -7.544439 -0.293869
v 3.829978 -5.846319 0.032222
v 3.858081 -5.838314 0.051370
v 3.733200 -6.639154 -0.019385
v 4.413391 -4.749820 -0.003241
v 4.238827 -5.173328 0.102439
v 5.533799 -2.496541 -0.135164
v 5.538438 -2.643160 -0.036513
v 4.207292 -5.340772 0.165289
v 5.546782 -2.760935 0.074349
v 4.187459 -5.491418 0.238815
v 4.184795 -5.610154 0.322333
v 5.562975 -2.841634 0.194504
v 5.430381 1.366220 -0.396195
v 5.448035 1.404822 -0.267320
v 5.592265 -2.870651 0.319156
v 3.957775 3.243800 -0.688458
v 3.989820 3.318686 -0.466983
v 3.958345 3.295709 -0.576134
v 3.666353 5.072946 -0.038159
v 3.615448 5.028626 -0.135883
v 3.551192 4.851892 -0.266978
v 3.903424 7.696322 0.395512
v 3.796551 7.429953 0.280401
v 3.488674 4.584451 -0.413753
v 3.684684 7.092674 0.152921
v 3.439592 4.286773 -0.557876
v 3.980178 3.172276 -0.794416
v 5.418575 1.316573 -0.513396
v 4.011405 3.093768 -0.888704
v 5.404979 1.270864 -0.618294
v 4.040373 3.018016 -0.968206
v 3.441814 4.132232 -0.681175
v 3.465150 3.939639 -0.803543
v 3.446574 6.092829 -0.204540
v 3.583741 6.733436 0.022617
v 3.427281 6.317001 -0.119603
v 3.553572 6.973543 0.112822
v 3.596196 7.461785 0.339067
v 3.689301 7.528755 0.308675
v 3.505684 6.988846 0.143835
v 3.189118 4.345963 -0.506389
v 3.256128 4.168380 -0.657110
v 3.404096 6.388849 -0.071590
v 3.326974 4.003547 -0.754176
v 3.326006 5.731890 -0.315809
v 3.343180 5.737695 -0.322604
v 3.301831 5.295852 -0.476047
v 3.358894 5.521529 -0.403431
v 3.475610 3.841916 -0.864370
v 3.318104 5.218497 -0.506402
v 3.454256 3.775037 -0.886600
v 3.493456 3.750499 -0.898346
v 4.082025 2.797849 -1.189612
v 4.028039 2.899553 -1.151966
v 4.037161 2.789124 -1.185191
v 5.077771 1.476770 -1.073150
v 3.995605 2.800948 -1.135451
v 3.395637 3.869341 -0.835137
v 3.960133 2.819180 -1.050985
v 5.094763 1.333793 -0.988269
v 5.160330 1.067304 -0.832794
v 5.434004 -1.699522 -0.404467
v 5.507058 -1.381014 -0.502330
v 5.142464 1.467559 -1.062520
v 4.823604 -3.753016 -0.154640
v 5.554952 -1.424800 -0.500754
v 4.856301 -3.791982 -0.162375
v 4.933962 -3.719250 -0.139290
v 5.607093 -1.272128 -0.479978
v 5.551066 -2.127161 -0.290011
v 5.088816 1.680141 -1.061504
v 5.316655 1.282589 -0.859897
v 4.076628 2.913579 -1.076441
v 5.383044 1.241110 -0.711178
v 3.806595 -5.824949 0.042199
v 4.551073 -4.192275 -0.069285
v 3.711255 -6.164376 0.030609
v 3.594955 -6.818184 -0.022829
v 4.129599 -4.853944 0.062329
v 5.224151 -2.502846 -0.135184
v 5.311791 -2.261684 -0.243483
v 3.993189 -5.096484 0.135966
v 3.528539 -7.209800 -0.063149
v 3.885442 -5.229428 0.219167
v 5.128945 -2.609963 -0.028740
v 4.988242 0.987343 -0.543800
v 5.041173 -2.666906 0.090465
v 5.064933 0.991433 -0.651071
v 3.799263 2.914480 -0.887487
v 5.134752 1.013780 -0.741789
v 3.882837 2.875821 -0.975222
v 3.720978 2.953416 -0.782345
v 4.924593 0.993960 -0.422497
v 3.150477 4.567310 -0.336689
v 3.666229 2.986423 -0.667313
v 3.152099 4.800457 -0.171962
v 4.888297 1.009366 -0.292667
v 3.641887 3.015326 -0.549860
v 3.644446 3.050766 -0.436640
v 3.171819 4.956140 -0.027741
v 3.776311 8.169921 0.703592
v 3.216869 5.075804 0.097774
v 3.840224 8.336509 0.845033
v 4.037199 8.554543 0.671170
v 3.865750 8.086732 0.495754
v 3.898661 8.423417 0.953734
v 4.175012 8.681280 0.866652
v 3.963274 8.467284 1.025948
v 4.208019 8.947563 0.825438
v 3.981669 7.840351 0.494968
v 4.012767 7.833325 0.577005
v 4.005506 7.711948 0.639711
v 4.124797 8.366907 0.889725
v 4.013290 8.429840 1.058347
v 4.027011 8.271967 1.052523
v 4.045052 7.988158 0.897060
v 4.003682 8.001745 1.014400
v 3.476452 5.231659 0.317308
v 3.960497 7.674626 0.955454
v 3.553252 5.108966 0.311130
v 3.721308 3.150350 -0.244583
v 3.387071 5.261824 0.284007
v 3.669856 3.100131 -0.333562
v 3.293872 5.193700 0.206657
v 4.930652 1.087340 -0.039925
v 3.693110 7.877167 0.532272
v 4.977181 -2.678113 0.215481
v 3.795743 -5.327394 0.315902
v 3.468767 -7.464618 -0.074000
v 3.478545 -9.509167 -0.317750
v 3.571712 -9.086687 -0.084121
v 3.585129 -9.355303 -0.296728
v 3.521756 -9.115292 -0.085034
v 3.671678 -8.465654 0.188201
v 3.654314 -8.443611 0.204402
v 3.739298 -8.013248 0.359673
v 3.764854 -8.012182 0.349065
v 3.952984 -6.453475 0.684574
v 3.786140 -7.124982 0.531751
v 4.452291 -5.022596 0.952177
vn 0.9637 0.2626 -0.0478
vn 0.9333 0.0301 -0.3579
vn 0.9930 -0.1122 -0.0363
vn 0.7330 0.4065 -0.5453
vn 0.7761 -0.2661 0.5717
vn 0.9672 0.1165 0.2257
vn -0.8691 0.4628 -0.1744
vn -0.5954 -0.1546 0.7884
vn -0.9043 0.3736 0.2064
vn -0.7746 0.1047 0.6238
vn -0.9774 0.0375 0.2081
vn -0.9775 0.0377 0.2075
vn -0.9778 0.0383 0.2060
vn -0.9782 0.0391 0.2041
vn -0.9563 0.0054 0.2924
vn -0.9573 -0.0002 0.2890
vn -0.8650 0.1015 0.4914
vn -0.9485 0.1639 0.2710
vn -0.9781 0.0427 0.2037
vn -0.8883 0.1226 0.4427
vn -0.9517 0.0040 0.3070
vn -0.9725 0.2166 0.0862
vn -0.8330 0.1051 0.5432
vn -0.9802 0.0510 0.1914
vn -0.9406 -0.0026 0.3396
vn -0.9599 0.2687 -0.0806
vn -0.8042 0.1115 0.5838
vn -0.8757 0.4244 0.2303
vn -0.8513 0.4239 0.3093
vn -0.8988 0.4322 0.0728
vn -0.9092 0.0215 0.4158
vn -0.9737 -0.0125 0.2275
vn -0.9030 0.4200 -0.0910
vn -0.8906 0.0213 0.4543
vn -0.9793 -0.0246 0.2007
vn -0.8819 0.0163 0.4711
vn -0.8691 0.3864 -0.3089
vn -0.8927 0.4198 0.1640
vn -0.8102 0.3733 0.4519
vn -0.7551 0.3494 -0.5547
vn -0.7923 0.1315 0.5958
vn -0.3030 -0.0384 0.9522
vn -0.9853 0.1542 -0.0736
vn -0.7917 -0.0660 0.6073
vn -0.1856 0.2337 -0.9544
vn -0.2281 -0.1507 0.9619
vn 0.8601 -0.4336 -0.2686
vn -0.9637 0.1991 -0.1780
vn -0.8842 0.4544 0.1083
vn -0.8761 0.4726 -0.0957
vn -0.8325 0.2038 -0.5152
vn -0.3457 0.1528 0.9258
vn -0.1881 0.0174 -0.9820
vn -0.9536 0.2361 0.1869
vn -0.4284 -0.2134 -0.8780
vn -0.6526 -0.2279 -0.7226
vn -0.1848 0.0223 -0.9825
vn -0.4053 0.0849 -0.9102
vn -0.2401 0.2155 -0.9465
vn -0.6390 0.3940 -0.6606
vn 0.0454 -0.0381 -0.9982
vn 0.9272 -0.2259 0.2987
vn 0.4950 -0.1351 0.8583
vn 0.4382 -0.0951 -0.8938
vn 0.9797 0.1136 -0.1653
vn 0.3456 -0.0959 -0.9335
vn 0.6075 0.2847 -0.7415
vn 0.4312 0.0979 -0.8969
vn 0.3587 0.0497 -0.9321
vn 0.7573 0.0317 -0.6523
vn -0.2394 -0.4195 -0.8756
vn -0.1464 -0.1833 -0.9721
vn -0.3507 -0.4858 -0.8007
vn 0.4098 0.1001 -0.9067
vn 0.3671 0.2532 -0.8951
vn -0.3965 -0.0336 -0.9174
vn -0.8691 -0.2529 -0.4250
vn -0.3807 0.0252 -0.9243
vn 0.1249 0.2383 -0.9631
vn -0.9990 0.0221 -0.0378
vn -0.5873 0.1940 -0.7858
vn -0.9385 0.1608 -0.3054
vn -0.7948 0.1559 -0.5865
vn -0.9949 -0.0258 0.0977
vn -0.9280 -0.0772 0.3646
vn -0.9516 -0.2852 -0.1144
vn -0.9495 -0.2774 -0.1468
vn -0.4750 -0.0134 -0.8799
vn -0.7604 -0.6349 0.1365
vn -0.7563 -0.3610 0.5457
vn -0.7592 -0.6437 0.0960
vn -0.9061 -0.1158 0.4070
vn -0.3972 -0.5162 -0.7588
vn -0.5258 -0.2032 0.8260
vn -0.5758 -0.2443 -0.7803
vn -0.9895 -0.1095 -0.0940
vn -0.7881 -0.5193 0.3305
vn -0.6016 0.0530 0.7970
vn -0.7830 -0.5118 0.3536
vn -0.8055 -0.5727 0.1523
vn -0.9931 -0.0487 0.1063
vn -0.8109 0.0267 0.5846
vn -0.8315 -0.3130 0.4589
vn -0.9442 -0.1952 -0.2653
vn -0.7729 -0.5114 0.3755
vn -0.8391 -0.3430 0.4221
vn -0.9730 -0.1975 -0.1196
vn -0.7594 -0.5099 0.4041
vn -0.8269 -0.2949 0.4789
vn -0.8007 -0.5750 0.1684
vn -0.9753 -0.2105 0.0669
vn -0.8902 -0.0206 0.4552
vn -0.9711 0.1388 -0.1944
vn -0.9049 -0.0305 0.4245
vn -0.9842 0.1539 -0.0879
vn -0.9732 0.1823 -0.1402
vn -0.9724 0.1586 -0.1710
vn -0.9323 0.1518 -0.3282
vn -0.9614 0.1771 -0.2108
vn -0.9558 0.1603 -0.2466
vn -0.8476 0.1625 -0.5051
vn -0.8997 -0.0655 0.4315
vn -0.9452 0.1727 -0.2770
vn -0.8597 0.1971 -0.4712
vn -0.8588 0.1993 -0.4719
vn -0.8600 0.1966 -0.4708
vn -0.8762 0.1945 -0.4409
vn -0.8587 0.1999 -0.4720
vn 0.8243 -0.2059 0.5273
vn 0.3582 0.2115 -0.9094
vn 0.1626 -0.2475 0.9551
vn 0.2720 0.2112 -0.9388
vn 0.4327 0.2810 -0.8566
vn 0.6969 0.3165 -0.6435
vn 0.8602 0.0859 0.5026
vn 0.3457 0.2641 -0.9004
vn 0.3711 0.0722 -0.9258
vn 0.4971 0.1620 -0.8524
vn 0.4297 0.1070 -0.8966
vn 0.6356 -0.0859 -0.7672
vn 0.3853 -0.1179 -0.9152
vn 0.5454 0.2104 -0.8113
vn 0.5913 -0.0831 -0.8021
vn 0.4578 0.1485 -0.8765
vn 0.6083 0.2696 -0.7465
vn 0.7231 -0.0803 -0.6861
vn 0.4451 -0.1199 -0.8874
vn 0.5571 -0.2699 -0.7854
vn 0.3827 -0.1960 -0.9028
vn 0.5548 -0.1152 -0.8240
vn 0.4813 -0.2330 -0.8450
vn 0.3429 -0.1736 -0.9232
vn 0.2198 0.1747 -0.9598
vn 0.0761 0.1967 -0.9775
vn 0.6715 0.0214 -0.7407
vn 0.3475 0.2913 -0.8913
vn 0.6637 0.1865 -0.7244
vn 0.1382 0.3118 -0.9400
vn 0.6420 0.0593 -0.7644
vn 0.6537 0.0688 -0.7537
vn 0.6469 0.0713 -0.7592
vn 0.6510 0.0698 -0.7559
vn 0.5532 0.2443 -0.7964
vn 0.4147 0.1360 -0.8998
vn 0.6806 0.1916 -0.7072
vn 0.4086 0.6410 -0.6497
vn -0.0177 0.6185 -0.7856
vn -0.0432 0.6708 -0.7404
vn 0.7285 0.1756 -0.6622
vn 0.7313 0.1741 -0.6595
vn 0.7297 0.1750 -0.6610
vn 0.7297 0.6560 -0.1930
vn 0.7324 0.1735 -0.6584
vn 0.8136 0.1296 -0.5668
vn 0.8950 0.0664 -0.4412
vn 0.8689 -0.0199 -0.4945
vn 0.7274 0.0450 -0.6847
vn 0.8542 -0.0130 -0.5197
vn 0.6444 0.0723 -0.7613
vn 0.5614 -0.2850 -0.7769
vn 0.8227 -0.3830 -0.4202
vn 0.7383 -0.3607 -0.5699
vn 0.9956 0.0031 -0.0937
vn 0.8924 -0.0588 -0.4474
vn 0.9110 -0.4114 -0.0273
vn 0.8930 -0.4071 -0.1920
vn 0.9092 -0.4013 0.1109
vn 0.9723 -0.1735 0.1566
vn 0.9791 -0.1657 0.1183
vn 0.9791 -0.1656 0.1185
vn 0.9791 -0.1659 0.1181
vn 0.9787 -0.1051 -0.1763
vn 0.9892 -0.0693 -0.1289
vn 0.9455 -0.2186 0.2414
vn 0.9790 -0.1660 0.1179
vn 0.9816 -0.1106 -0.1555
vn 0.7027 0.0740 0.7076
vn 0.8416 -0.2892 0.4562
vn 0.5539 -0.1850 0.8118
vn 0.9450 -0.2083 0.2521
vn 0.7177 -0.3273 0.6146
vn 0.2809 -0.3102 0.9082
vn 0.2365 -0.2403 0.9415
vn -0.3365 -0.1726 0.9257
vn -0.3506 -0.2115 0.9124
vn -0.2678 -0.2309 0.9354
vn 0.1437 -0.2964 0.9442
vn -0.9533 -0.0070 0.3021
vn -0.9628 0.0069 0.2702
vn -0.8970 -0.0595 0.4381
vn -0.2400 -0.2153 0.9466
vn -0.7961 -0.1134 0.5944
vn -0.9648 0.0138 0.2627
vn -0.2045 -0.2507 0.9462
vn -0.1611 -0.2464 0.9557
vn -0.1133 -0.2695 0.9563
vn 0.0536 -0.2843 0.9572
vn 0.2045 -0.3151 0.9267
vn 0.1899 -0.2904 0.9379
vn 0.1908 -0.2905 0.9377
vn 0.1920 -0.2906 0.9374
vn -0.0279 -0.2659 0.9636
vn -0.0289 -0.2658 0.9636
vn -0.0296 -0.2657 0.9636
vn 0.1930 -0.2907 0.9372
vn 0.2383 -0.2502 0.9384
vn -0.2743 -0.2109 0.9382
vn -0.6306 -0.0511 0.7744
vn 0.1051 0.8732 0.4759
vn -0.5472 -0.0735 0.8338
vn -0.9881 0.1536 0.0050
vn -0.0273 -0.2659 0.9636
vn -0.9825 0.0586 0.1768
vn -0.0210 -0.0756 0.9969
vn 0.3607 -0.1378 0.9224
vn -0.9238 0.3342 -0.1867
vn -0.9513 0.2479 0.1831
vn -0.6909 0.3884 0.6097
vn -0.8242 0.4313 0.3670
vn -0.6516 0.3710 0.6616
vn -0.7629 0.4136 0.4968
vn -0.7011 0.3852 0.6001
vn -0.9559 0.2205 0.1939
vn -0.2786 -0.0400 0.9596
vn -0.9518 0.1904 0.2403
vn -0.7443 0.3953 0.5383
vn -0.8119 0.4281 0.3969
vn -0.5133 -0.0050 0.8582
vn -0.9921 -0.0138 0.1244
vn -0.9902 -0.0117 0.1391
vn -0.9736 -0.0015 0.2284
vn -0.8481 0.4361 0.3008
vn -0.9397 0.0152 0.3417
vn -0.8285 0.4221 0.3679
vn -0.7879 0.4053 0.4636
vn -0.8786 0.4344 0.1982
vn -0.7774 -0.5683 0.2695
vn -0.7777 -0.5691 0.2670
vn -0.7770 -0.5670 0.2734
vn -0.7767 -0.5662 0.2760
vn -0.7850 -0.5738 0.2336
vn -0.7657 -0.5483 0.3362
vn -0.9797 -0.0102 0.2000
vn -0.9162 -0.2462 0.3160
vn -0.7867 -0.2936 0.5430
vn -0.6243 -0.3061 0.7187
vn -0.9522 -0.2754 0.1321
vn -0.5794 -0.1161 0.8067
vn -0.9046 0.0128 0.4262
vn -0.9246 0.0071 0.3808
vn -0.4785 -0.3338 0.8121
vn -0.5083 -0.1518 0.8477
vn -0.9480 0.0021 0.3184
vn -0.3604 -0.3577 0.8615
vn -0.9418 -0.3351 0.0271
vn -0.8903 -0.4485 0.0786
vn -0.7833 -0.5793 0.2254
vn -0.7733 -0.5522 0.3118
vn -0.7869 -0.5767 0.2196
vn -0.7718 -0.5402 0.3354
vn -0.7866 -0.5641 0.2509
vn -0.6556 -0.4766 0.5856
vn -0.8502 -0.4995 0.1662
vn -0.5886 -0.4832 0.6482
vn -0.9511 0.0752 -0.2997
vn -0.4557 -0.2092 0.8652
vn -0.9876 0.0888 -0.1291
vn 0.0671 -0.3449 0.9362
vn 0.0756 -0.3476 0.9346
vn 0.0723 -0.3466 0.9352
vn 0.0638 -0.3439 0.9368
vn 0.0299 -0.3482 0.9369
vn -0.4843 -0.1749 0.8572
vn 0.5290 -0.3944 0.7514
vn 0.3979 -0.4141 0.8187
vn 0.4172 -0.3736 0.8285
vn 0.0178 -0.3365 0.9415
vn 0.9188 -0.0130 -0.3945
vn 0.7486 -0.2416 0.6175
vn 0.6732 0.1463 -0.7249
vn 0.4951 -0.3666 0.7877
vn 0.5268 -0.3482 0.7754
vn 0.6920 0.1779 -0.6997
vn 0.5307 -0.2490 0.8102
vn 0.4456 -0.3580 0.8205
vn 0.4418 -0.3309 0.8339
vn 0.1470 -0.3365 0.9301
vn 0.1439 -0.3360 0.9308
vn 0.1489 -0.3368 0.9297
vn 0.1125 -0.3427 0.9327
vn 0.1087 -0.3419 0.9334
vn 0.1148 -0.3433 0.9322
vn 0.1064 -0.3414 0.9339
vn -0.9935 -0.0396 -0.1072
vn -0.3835 -0.2506 0.8889
vn -0.2935 -0.2719 0.9165
vn 0.1420 -0.3356 0.9313
vn -0.8086 0.0597 -0.5853
vn 0.7394 -0.1054 0.6650
vn 0.1376 -0.2401 0.9609
vn 0.1365 -0.2116 0.9678
vn -0.5072 -0.5228 0.6851
vn 0.1689 -0.1929 0.9666
vn -0.1557 -0.3707 0.9156
vn 0.0701 0.1399 0.9877
vn 0.7684 0.2800 0.5754
vn 0.6869 0.5818 0.4355
vn 0.8773 0.4367 0.1990
vn 0.8690 0.4103 0.2764
vn 0.7753 0.6005 0.1960
vn 0.5422 0.4757 0.6927
vn 0.9449 0.0433 -0.3244
vn 0.6247 0.5024 0.5977
vn 0.9834 0.1634 0.0783
vn 0.3115 0.2131 0.9260
vn 0.8942 -0.3056 -0.3271
vn -0.1354 0.1745 0.9753
vn 0.1604 0.2102 0.9644
vn 0.0792 0.1222 0.9893
vn -0.4937 0.2641 0.8286
vn 0.2879 0.0517 0.9563
vn -0.9311 0.2874 0.2247
vn -0.5618 0.0798 0.8234
vn -0.9099 -0.2280 -0.3464
vn -0.3732 -0.1778 -0.9105
vn -0.3587 0.2248 0.9060
vn -0.6144 0.0473 0.7876
vn -0.9125 0.0056 0.4089
vn -0.7192 -0.5945 -0.3596
vn -0.7933 -0.5775 0.1930
vn -0.9465 -0.0861 -0.3109
vn -0.9730 -0.0037 0.2309
vn -0.7705 -0.5313 0.3522
vn -0.7863 -0.5548 0.2720
vn -0.7983 -0.5443 0.2578
vn -0.5127 -0.4926 0.7032
vn -0.6562 -0.5439 0.5231
vn -0.6560 -0.5442 0.5231
vn -0.6609 -0.5364 0.5248
vn -0.6611 -0.5362 0.5249
vn -0.1809 -0.0503 0.9822
vn -0.6676 -0.5429 0.5095
vn -0.5887 0.3358 0.7353
vn -0.3027 0.0272 -0.9527
vn -0.5514 0.3482 0.7581
vn -0.8883 0.4559 0.0547
vn -0.5930 0.3643 0.7181
vn 0.3314 -0.0765 0.9404
vn 0.2155 -0.0130 0.9764
vn 0.5937 -0.2178 0.7746
vn -0.4977 0.1688 -0.8508
vn 0.7606 -0.2343 0.6054
vn 0.2063 -0.2154 0.9545
vn 0.2013 -0.2147 0.9557
vn 0.2097 -0.2158 0.9537
vn -0.6224 -0.1020 0.7760
vn 0.9258 -0.1913 0.3260
vn -0.3732 0.1413 -0.9169
vn 0.5631 -0.1992 0.8020
vn 0.8712 -0.4261 -0.2438
vn 0.8518 -0.3650 0.3758
vn 0.7464 -0.2302 0.6244
vn 0.4071 -0.0783 0.9100
vn -0.1698 0.1294 -0.9769
vn 0.7536 -0.2239 0.6181
vn 0.7977 -0.3309 0.5042
vn 0.8456 -0.3602 0.3939
vn 0.8060 0.1147 0.5806
vn 0.7713 0.1197 0.6251
vn 0.8263 -0.3505 0.4409
vn 0.6647 0.1387 0.7341
vn 0.6877 0.5155 0.5113
vn 0.7187 0.5286 0.4517
vn 0.7706 0.1273 0.6244
vn 0.6249 0.4958 0.6031
vn 0.7539 0.5516 0.3568
vn 0.7525 0.2114 0.6237
vn 0.8768 0.4598 -0.1408
vn 0.7668 0.2632 0.5855
vn 0.5728 0.1535 0.8052
vn 0.9410 0.1000 0.3233
vn 0.6822 0.5301 0.5035
vn 0.8199 0.2074 0.5337
vn 0.7603 0.5348 0.3687
vn 0.7605 0.5349 0.3682
vn 0.7600 0.5348 0.3693
vn 0.9097 0.4081 -0.0764
vn 0.7599 0.5347 0.3696
vn 0.8097 0.5397 0.2305
vn 0.8641 0.3925 -0.3152
vn 0.9040 0.2180 0.3677
vn 0.7747 0.3613 -0.5190
vn 0.9619 0.2339 0.1418
vn 0.8460 0.5314 0.0446
vn 0.8244 0.5411 0.1663
vn 0.8501 0.5128 -0.1202
vn 0.8477 0.5004 -0.1758
vn 0.9600 0.2603 -0.1032
vn 0.8249 0.3243 -0.4629
vn 0.7609 0.3110 -0.5696
vn 0.9754 -0.2030 0.0857
vn 0.9481 -0.1104 -0.2983
vn 0.9665 -0.1347 -0.2185
vn 0.7728 -0.6286 0.0872
vn 0.8167 -0.4395 0.3740
vn 0.5708 -0.6476 0.5048
vn 0.9021 -0.0751 -0.4249
vn -0.1880 -0.1274 -0.9739
vn 0.6537 -0.7452 -0.1322
vn 0.7384 0.0220 -0.6740
vn 0.8636 -0.4581 0.2108
vn -0.9738 0.1475 0.1729
vn -0.3709 -0.1952 0.9079
vn -0.9320 0.0560 0.3581
vn -0.9331 0.0414 0.3573
vn -0.7475 -0.0512 0.6623
vn -0.6847 -0.1239 0.7182
vn -0.9838 0.1626 0.0749
vn -0.9906 0.1047 0.0880
vn -0.9827 0.1279 0.1338
vn -0.8886 0.0093 0.4586
vn -0.5684 -0.8198 -0.0699
vn -0.8420 -0.0534 -0.5369
vn -0.8859 0.1782 -0.4282
vn -0.9765 0.2043 -0.0692
vn -0.6282 0.0433 -0.7768
vn -0.9305 0.1287 -0.3430
vn -0.9174 0.1961 -0.3462
vn -0.9893 0.1460 -0.0047
vn -0.9762 0.1903 -0.1038
vn 0.2348 0.1949 -0.9523
vn 0.7280 0.0338 -0.6847
vn 0.9342 -0.0599 -0.3518
vn -0.9419 0.1759 -0.2861
vn 0.2665 0.2578 -0.9287
vn 0.1499 0.2184 -0.9643
vn 0.4255 0.2720 -0.8631
vn 0.3612 0.2710 -0.8922
vn -0.9351 0.1926 -0.2976
vn -0.8446 0.2299 -0.4836
vn 0.8140 -0.2332 0.5320
vn 0.5726 0.2758 -0.7721
vn 0.4171 0.2823 -0.8639
vn 0.3891 0.1494 -0.9090
vn 0.7605 0.2684 -0.5912
vn 0.5873 0.0807 -0.8053
vn 0.6040 0.0745 -0.7935
vn 0.4707 0.2987 -0.8302
vn 0.5748 0.3201 -0.7531
vn 0.9050 0.2511 -0.3434
vn 0.5846 0.0825 -0.8071
vn 0.8318 -0.0314 -0.5543
vn 0.7889 0.4301 -0.4389
vn 0.8004 0.4395 -0.4078
vn 0.7085 0.3548 -0.6100
vn 0.8378 -0.0631 -0.5423
vn 0.7142 -0.0977 -0.6931
vn 0.9492 -0.0300 -0.3132
vn 0.6900 0.3412 -0.6383
vn 0.5836 0.2519 -0.7720
vn -0.8844 -0.0062 0.4668
vn -0.9886 0.1291 -0.0773
vn -0.2387 -0.2631 0.9348
vn -0.3205 -0.2645 0.9096
vn -0.0333 -0.3082 0.9507
vn 0.7080 -0.4956 0.5031
vn 0.6435 -0.4184 0.6410
vn 0.9438 -0.0699 -0.3232
vn 0.5542 -0.4538 0.6978
vn 0.9163 -0.2353 0.3240
vn 0.9518 -0.1011 -0.2895
vn 0.9999 0.0150 -0.0064
vn 0.9733 0.0542 0.2229
vn 0.9632 0.0594 0.2622
vn 0.8835 0.0925 0.4592
vn 0.8832 0.0925 0.4598
vn 0.8829 0.0926 0.4603
vn 0.8429 -0.3608 0.3991
vn 0.8772 -0.3801 0.2933
vn 0.8848 -0.3860 0.2611
vn 0.8879 -0.2105 0.4090
vn 0.8168 -0.2221 0.5325
vn 0.8370 -0.3567 0.4149
vn 0.8969 -0.2088 0.3899
vn 0.8569 -0.2208 0.4658
vn 0.8956 -0.2264 0.3829
vn 0.9185 -0.2221 0.3270
vn 0.6077 -0.3367 0.7192
vn 0.8252 -0.2458 0.5085
vn 0.8838 0.0924 0.4587
vn 0.9358 -0.1893 0.2973
vn 0.5825 -0.3209 0.7468
vn 0.7007 -0.3330 -0.6310
vn 0.3779 0.1780 0.9086
vn 0.7303 -0.2687 0.6280
vn 0.2190 0.0534 0.9743
vn -0.1675 -0.0394 0.9851
vn 0.8745 0.4818 -0.0570
vn 0.4592 -0.1883 0.8682
vn 0.6735 0.2218 -0.7051
vn 0.5527 -0.2046 0.8079
vn -0.0609 -0.3352 0.9402
vn -0.9994 -0.0348 -0.0047
vn -0.9908 -0.0138 0.1344
vn -0.9941 -0.0159 0.1069
vn -0.9985 -0.0243 0.0494
vn -0.9263 -0.2415 0.2893
vn -0.7574 -0.5249 0.3883
vn -0.8553 -0.2734 0.4401
vn -0.7136 0.0396 0.6994
vn -0.9318 0.1547 0.3283
vn 0.1979 -0.2143 0.9565
vn 0.0692 -0.2600 0.9631
vn -0.9597 0.0017 0.2809
vn -0.9718 0.0226 0.2349
vn -0.5095 -0.0817 0.8566
vn 0.9363 -0.1937 0.2929
vn 0.6202 -0.3051 0.7226
vn -0.4670 -0.1811 0.8655
vn 0.6741 -0.3228 -0.6644
vn -0.6271 0.5431 -0.5584
vn -0.6909 0.5649 -0.4512
vn -0.6914 0.5587 -0.4581
vn -0.6915 0.5574 -0.4595
vn -0.6908 0.5660 -0.4500
vn -0.2349 0.5785 -0.7811
vn -0.6435 0.5222 -0.5596
vn -0.3072 0.6065 -0.7334
vn -0.3650 0.5109 -0.7783
vn -0.5769 0.4890 -0.6543
vn -0.6562 0.4479 -0.6073
vn -0.9853 0.0682 0.1566
vn -0.9864 0.0771 0.1450
vn -0.9243 -0.0097 0.3815
vn -0.4855 0.4155 -0.7692
vn -0.2253 0.4215 -0.8784
vn -0.2707 0.4990 -0.8233
vn -0.2669 0.4253 -0.8648
vn -0.3288 0.3773 -0.8658
vn -0.7352 0.3291 -0.5925
vn -0.7647 0.3252 -0.5563
vn 0.2210 0.7619 0.6089
vn -0.3806 0.2422 -0.8925
vn -0.3601 0.2402 -0.9014
vn -0.2747 0.2320 -0.9331
vn 0.9284 -0.0505 -0.3682
vn -0.1334 0.2513 -0.9587
vn 0.3581 -0.2909 0.8872
vn 0.1803 -0.2081 0.9613
vn -0.4476 0.3129 -0.8377
vn 0.1483 -0.0841 -0.9854
vn 0.8849 -0.3732 -0.2786
vn 0.5146 -0.2420 -0.8225
vn -0.0761 0.2187 -0.9728
vn 0.9669 -0.2551 -0.0008
vn -0.0176 0.2981 -0.9544
vn 0.8821 0.0286 -0.4702
vn -0.9599 0.2020 -0.1946
vn 0.8081 0.0982 -0.5808
vn -0.7845 0.5420 -0.3013
vn -0.7989 0.5514 -0.2402
vn 0.4712 0.5202 -0.7123
vn 0.4500 -0.2313 -0.8625
vn 0.4563 -0.2174 -0.8629
vn 0.4545 -0.1021 -0.8849
vn 0.7599 -0.0354 -0.6491
vn 0.5510 0.2004 -0.8101
vn -0.7937 -0.5763 0.1949
vn 0.5950 0.3082 -0.7423
vn -0.3345 0.2629 -0.9050
vn -0.7389 0.2808 -0.6125
vn -0.9085 0.3175 -0.2718
vt 0.000000 0.000000
s 1
f 4/1/1 1/1/1 2/1/1
f 2/1/2 1/1/2 3/1/2
f 6/1/3 3/1/3 1/1/3
f 4/1/4 7/1/4 1/1/4
f 5/1/5 1/1/5 7/1/5
f 5/1/6 6/1/6 1/1/6
f 8/1/7 7/1/7 4/1/7
f 8/1/8 5/1/8 7/1/8
f 8/1/9 4/1/9 10/1/9
f 8/1/10 9/1/10 5/1/10
f 9/1/11 8/1/12 11/1/13
f 10/1/14 11/1/13 8/1/12
f 10/1/15 14/1/15 11/1/15
f 9/1/16 11/1/16 12/1/16
f 12/1/17 11/1/17 13/1/17
f 14/1/18 13/1/18 11/1/18
f 15/1/19 14/1/19 10/1/19
f 14/1/20 16/1/20 13/1/20
f 15/1/21 17/1/21 14/1/21
f 17/1/22 16/1/22 14/1/22
f 17/1/23 20/1/23 16/1/23
f 18/1/24 17/1/24 15/1/24
f 18/1/25 19/1/25 17/1/25
f 19/1/26 20/1/26 17/1/26
f 19/1/27 21/1/27 20/1/27
f 21/1/28 23/1/28 20/1/28
f 20/1/29 22/1/29 16/1/29
f 20/1/30 23/1/30 22/1/30
f 23/1/31 24/1/31 22/1/31
f 23/1/32 25/1/32 24/1/32
f 21/1/33 26/1/33 23/1/33
f 26/1/34 25/1/34 23/1/34
f 26/1/35 27/1/35 25/1/35
f 28/1/36 27/1/36 26/1/36
f 29/1/37 28/1/37 26/1/37
f 29/1/38 26/1/38 21/1/38
f 31/1/39 28/1/39 29/1/39
f 32/1/40 29/1/40 30/1/40
f 30/1/41 29/1/41 21/1/41
f 32/1/42 31/1/42 29/1/42
f 34/1/43 32/1/43 33/1/43
f 33/1/44 32/1/44 30/1/44
f 35/1/45 31/1/45 32/1/45
f 34/1/46 35/1/46 32/1/46
f 35/1/47 38/1/47 31/1/47
f 34/1/48 36/1/48 35/1/48
f 35/1/49 36/1/49 37/1/49
f 35/1/50 37/1/50 38/1/50
f 38/1/51 37/1/51 41/1/51
f 38/1/52 39/1/52 31/1/52
f 38/1/53 40/1/53 39/1/53
f 38/1/54 41/1/54 40/1/54
f 43/1/55 42/1/55 41/1/55
f 40/1/56 41/1/56 42/1/56
f 44/1/57 43/1/57 41/1/57
f 44/1/58 41/1/58 37/1/58
f 45/1/59 44/1/59 37/1/59
f 45/1/60 46/1/60 44/1/60
f 44/1/61 46/1/61 47/1/61
f 44/1/62 47/1/62 43/1/62
f 46/1/63 48/1/63 47/1/63
f 47/1/64 48/1/64 49/1/64
f 47/1/65 49/1/65 50/1/65
f 43/1/66 47/1/66 50/1/66
f 50/1/67 51/1/67 52/1/67
f 50/1/68 49/1/68 51/1/68
f 53/1/69 50/1/69 52/1/69
f 43/1/70 50/1/70 53/1/70
f 53/1/71 54/1/71 42/1/71
f 43/1/72 53/1/72 42/1/72
f 53/1/73 55/1/73 54/1/73
f 53/1/74 52/1/74 55/1/74
f 52/1/75 57/1/75 55/1/75
f 55/1/76 56/1/76 54/1/76
f 55/1/77 57/1/77 56/1/77
f 52/1/78 58/1/78 57/1/78
f 58/1/79 59/1/79 57/1/79
f 57/1/80 59/1/80 60/1/80
f 57/1/81 60/1/81 56/1/81
f 59/1/82 61/1/82 60/1/82
f 62/1/83 60/1/83 61/1/83
f 62/1/84 56/1/84 60/1/84
f 63/1/85 62/1/85 61/1/85
f 64/1/86 62/1/86 63/1/86
f 64/1/87 65/1/87 62/1/87
f 65/1/88 56/1/88 62/1/88
f 66/1/89 54/1/89 65/1/89
f 65/1/90 54/1/90 56/1/90
f 66/1/91 65/1/91 64/1/91
f 40/1/92 42/1/92 66/1/92
f 66/1/93 42/1/93 54/1/93
f 66/1/94 64/1/94 67/1/94
f 40/1/95 66/1/95 67/1/95
f 39/1/96 67/1/96 68/1/96
f 68/1/97 67/1/97 64/1/97
f 40/1/98 67/1/98 39/1/98
f 68/1/99 64/1/99 69/1/99
f 27/1/100 68/1/100 69/1/100
f 28/1/101 68/1/101 27/1/101
f 39/1/102 68/1/102 28/1/102
f 71/1/103 69/1/103 70/1/103
f 69/1/104 63/1/104 70/1/104
f 27/1/105 69/1/105 71/1/105
f 69/1/106 64/1/106 63/1/106
f 71/1/107 70/1/107 73/1/107
f 25/1/108 71/1/108 72/1/108
f 72/1/109 71/1/109 73/1/109
f 25/1/110 27/1/110 71/1/110
f 72/1/111 73/1/111 74/1/111
f 74/1/112 73/1/112 75/1/112
f 73/1/113 76/1/113 75/1/113
f 73/1/114 70/1/114 76/1/114
f 77/1/115 75/1/115 76/1/115
f 78/1/116 77/1/116 76/1/116
f 78/1/117 76/1/117 79/1/117
f 70/1/118 79/1/118 76/1/118
f 80/1/119 78/1/119 79/1/119
f 80/1/120 79/1/120 61/1/120
f 63/1/121 61/1/121 79/1/121
f 70/1/122 63/1/122 79/1/122
f 59/1/123 80/1/123 61/1/123
f 82/1/124 80/1/125 59/1/126
f 81/1/127 78/1/127 80/1/127
f 82/1/124 81/1/128 80/1/125
f 83/1/129 81/1/129 82/1/129
f 83/1/130 82/1/130 58/1/130
f 58/1/131 82/1/131 59/1/131
f 84/1/132 81/1/132 83/1/132
f 85/1/133 83/1/133 51/1/133
f 51/1/134 83/1/134 58/1/134
f 85/1/135 84/1/135 83/1/135
f 86/1/136 84/1/136 85/1/136
f 88/1/137 86/1/137 85/1/137
f 88/1/138 85/1/138 87/1/138
f 87/1/139 85/1/139 51/1/139
f 89/1/140 91/1/140 88/1/140
f 90/1/141 89/1/141 88/1/141
f 91/1/142 86/1/142 88/1/142
f 90/1/143 88/1/143 87/1/143
f 91/1/144 92/1/144 86/1/144
f 93/1/145 92/1/145 91/1/145
f 94/1/146 93/1/146 91/1/146
f 89/1/147 94/1/147 91/1/147
f 95/1/148 96/1/148 94/1/148
f 97/1/149 95/1/149 94/1/149
f 94/1/150 96/1/150 93/1/150
f 97/1/151 94/1/151 89/1/151
f 98/1/152 97/1/152 89/1/152
f 100/1/153 95/1/153 97/1/153
f 99/1/154 97/1/154 98/1/154
f 99/1/155 100/1/155 97/1/155
f 101/1/156 103/1/156 100/1/156
f 102/1/157 101/1/157 100/1/157
f 102/1/158 100/1/158 99/1/158
f 100/1/159 103/1/159 95/1/159
f 103/1/160 104/1/161 105/1/162
f 106/1/163 104/1/163 103/1/163
f 103/1/164 105/1/164 95/1/164
f 101/1/165 106/1/165 103/1/165
f 107/1/166 109/1/166 106/1/166
f 107/1/167 106/1/167 108/1/167
f 108/1/168 106/1/168 101/1/168
f 106/1/169 109/1/170 104/1/171
f 107/1/172 2/1/172 109/1/172
f 109/1/170 110/1/173 104/1/171
f 109/1/174 2/1/174 110/1/174
f 2/1/175 3/1/175 110/1/175
f 110/1/176 3/1/176 111/1/176
f 104/1/177 110/1/177 112/1/177
f 110/1/178 111/1/178 112/1/178
f 104/1/161 112/1/179 105/1/162
f 105/1/180 112/1/180 113/1/180
f 112/1/181 114/1/181 113/1/181
f 112/1/182 111/1/182 114/1/182
f 116/1/183 115/1/183 114/1/183
f 113/1/184 114/1/184 115/1/184
f 117/1/185 116/1/185 114/1/185
f 117/1/186 114/1/186 111/1/186
f 118/1/187 116/1/187 117/1/187
f 119/1/188 118/1/188 117/1/188
f 119/1/189 117/1/190 120/1/191
f 120/1/192 117/1/192 111/1/192
f 6/1/193 120/1/193 3/1/193
f 121/1/194 120/1/194 6/1/194
f 121/1/195 119/1/189 120/1/191
f 120/1/196 111/1/196 3/1/196
f 122/1/197 121/1/197 6/1/197
f 123/1/198 119/1/198 121/1/198
f 122/1/199 123/1/199 121/1/199
f 123/1/200 124/1/200 119/1/200
f 125/1/201 124/1/201 123/1/201
f 122/1/202 126/1/202 123/1/202
f 126/1/203 125/1/203 123/1/203
f 127/1/204 129/1/204 126/1/204
f 127/1/205 126/1/205 122/1/205
f 129/1/206 128/1/206 126/1/206
f 126/1/207 128/1/207 125/1/207
f 129/1/208 127/1/208 130/1/208
f 129/1/209 130/1/209 131/1/209
f 132/1/210 129/1/210 131/1/210
f 129/1/211 132/1/211 128/1/211
f 134/1/212 132/1/212 133/1/212
f 132/1/213 131/1/213 133/1/213
f 132/1/214 135/1/214 128/1/214
f 132/1/215 134/1/215 135/1/215
f 134/1/216 138/1/216 135/1/216
f 128/1/217 135/1/217 136/1/217
f 135/1/218 137/1/218 136/1/218
f 135/1/219 138/1/220 137/1/221
f 134/1/222 141/1/223 138/1/224
f 138/1/220 139/1/225 137/1/221
f 138/1/226 140/1/226 139/1/226
f 141/1/227 140/1/227 138/1/227
f 141/1/228 143/1/228 142/1/228
f 141/1/229 142/1/229 140/1/229
f 141/1/230 144/1/230 143/1/230
f 141/1/231 145/1/231 144/1/231
f 141/1/223 134/1/222 145/1/232
f 134/1/233 133/1/233 145/1/233
f 145/1/234 133/1/234 147/1/234
f 144/1/235 145/1/235 146/1/235
f 145/1/236 147/1/236 146/1/236
f 133/1/237 150/1/237 147/1/237
f 147/1/238 149/1/238 148/1/238
f 146/1/239 147/1/239 148/1/239
f 147/1/240 150/1/240 149/1/240
f 150/1/241 151/1/241 149/1/241
f 150/1/242 152/1/242 151/1/242
f 131/1/243 152/1/243 150/1/243
f 133/1/244 131/1/244 150/1/244
f 130/1/245 153/1/245 152/1/245
f 152/1/246 153/1/246 154/1/246
f 152/1/247 154/1/247 151/1/247
f 131/1/248 130/1/248 152/1/248
f 151/1/249 154/1/249 155/1/249
f 154/1/250 156/1/250 155/1/250
f 154/1/251 157/1/251 156/1/251
f 153/1/252 157/1/252 154/1/252
f 22/1/253 156/1/253 157/1/253
f 16/1/254 157/1/254 13/1/254
f 153/1/255 13/1/255 157/1/255
f 16/1/256 22/1/256 157/1/256
f 156/1/257 160/1/258 158/1/259
f 156/1/257 158/1/259 155/1/260
f 156/1/261 24/1/261 159/1/261
f 156/1/262 159/1/262 160/1/262
f 22/1/263 24/1/263 156/1/263
f 160/1/264 159/1/264 161/1/264
f 160/1/265 161/1/265 162/1/265
f 160/1/266 162/1/266 163/1/266
f 160/1/267 163/1/267 158/1/267
f 163/1/268 164/1/268 165/1/268
f 162/1/269 164/1/269 163/1/269
f 163/1/270 165/1/270 166/1/270
f 158/1/271 163/1/271 166/1/271
f 166/1/272 165/1/272 167/1/272
f 166/1/273 167/1/273 168/1/273
f 169/1/274 166/1/274 168/1/274
f 158/1/275 166/1/275 169/1/275
f 169/1/276 168/1/276 171/1/276
f 155/1/277 158/1/277 169/1/277
f 155/1/278 169/1/278 170/1/278
f 170/1/279 169/1/279 171/1/279
f 170/1/280 171/1/280 172/1/280
f 172/1/281 171/1/281 173/1/281
f 171/1/282 168/1/282 174/1/282
f 171/1/283 174/1/283 173/1/283
f 173/1/284 174/1/284 175/1/284
f 174/1/285 176/1/285 175/1/285
f 174/1/286 177/1/286 176/1/286
f 168/1/287 177/1/287 174/1/287
f 178/1/288 176/1/289 177/1/290
f 178/1/288 177/1/290 179/1/291
f 179/1/292 177/1/292 167/1/292
f 168/1/293 167/1/293 177/1/293
f 180/1/294 179/1/294 181/1/294
f 182/1/295 179/1/295 180/1/295
f 182/1/296 178/1/296 179/1/296
f 179/1/297 167/1/297 181/1/297
f 183/1/298 182/1/298 180/1/298
f 183/1/299 184/1/299 182/1/299
f 184/1/300 185/1/300 182/1/300
f 185/1/301 178/1/301 182/1/301
f 185/1/302 188/1/302 178/1/302
f 186/1/303 187/1/303 185/1/303
f 184/1/304 186/1/304 185/1/304
f 187/1/305 188/1/305 185/1/305
f 187/1/306 189/1/306 188/1/306
f 189/1/307 190/1/308 188/1/309
f 188/1/310 176/1/311 178/1/312
f 188/1/310 190/1/313 176/1/311
f 175/1/314 190/1/314 191/1/314
f 175/1/315 176/1/315 190/1/315
f 191/1/316 190/1/316 192/1/316
f 189/1/307 192/1/317 190/1/308
f 191/1/318 192/1/318 194/1/318
f 193/1/319 192/1/319 189/1/319
f 193/1/320 194/1/320 192/1/320
f 197/1/321 195/1/321 194/1/321
f 196/1/322 194/1/322 195/1/322
f 197/1/323 194/1/323 193/1/323
f 196/1/324 191/1/324 194/1/324
f 198/1/325 195/1/325 197/1/325
f 199/1/326 197/1/326 193/1/326
f 198/1/327 197/1/327 199/1/327
f 199/1/328 193/1/328 200/1/328
f 201/1/329 199/1/329 200/1/329
f 202/1/330 199/1/330 201/1/330
f 198/1/331 199/1/331 202/1/331
f 204/1/332 202/1/332 203/1/332
f 202/1/333 201/1/333 203/1/333
f 205/1/334 198/1/334 202/1/334
f 205/1/335 202/1/335 204/1/335
f 207/1/336 205/1/336 204/1/336
f 205/1/337 206/1/337 198/1/337
f 205/1/338 208/1/338 206/1/338
f 207/1/339 208/1/339 205/1/339
f 210/1/340 208/1/340 209/1/340
f 207/1/341 209/1/341 208/1/341
f 210/1/342 211/1/342 208/1/342
f 211/1/343 206/1/343 208/1/343
f 211/1/344 213/1/344 206/1/344
f 211/1/345 212/1/345 214/1/345
f 210/1/346 212/1/346 211/1/346
f 211/1/347 214/1/347 213/1/347
f 212/1/348 216/1/348 214/1/348
f 213/1/349 214/1/349 215/1/349
f 216/1/350 215/1/350 214/1/350
f 212/1/351 148/1/351 216/1/351
f 148/1/352 172/1/352 216/1/352
f 172/1/353 173/1/353 216/1/353
f 216/1/354 173/1/354 215/1/354
f 173/1/355 175/1/355 215/1/355
f 215/1/356 175/1/356 191/1/356
f 215/1/357 191/1/358 196/1/359
f 213/1/360 215/1/357 196/1/359
f 213/1/361 195/1/361 206/1/361
f 213/1/362 196/1/362 195/1/362
f 146/1/363 148/1/363 212/1/363
f 210/1/364 146/1/364 212/1/364
f 144/1/365 210/1/365 209/1/365
f 144/1/366 146/1/366 210/1/366
f 144/1/367 209/1/367 143/1/367
f 217/1/368 143/1/368 209/1/368
f 217/1/369 209/1/369 207/1/369
f 217/1/370 207/1/370 218/1/370
f 217/1/371 218/1/371 219/1/371
f 140/1/372 217/1/372 219/1/372
f 140/1/373 143/1/374 217/1/375
f 140/1/376 219/1/376 139/1/376
f 139/1/377 219/1/377 220/1/377
f 219/1/378 221/1/378 220/1/378
f 219/1/379 218/1/379 221/1/379
f 221/1/380 223/1/380 222/1/380
f 221/1/381 222/1/381 224/1/381
f 220/1/382 221/1/382 224/1/382
f 218/1/383 223/1/383 221/1/383
f 220/1/384 224/1/384 225/1/384
f 225/1/385 224/1/385 226/1/385
f 224/1/386 227/1/386 226/1/386
f 224/1/387 222/1/387 227/1/387
f 227/1/388 230/1/388 228/1/388
f 227/1/389 228/1/389 229/1/389
f 226/1/390 227/1/390 229/1/390
f 222/1/391 230/1/391 227/1/391
f 228/1/392 230/1/392 231/1/392
f 230/1/393 233/1/393 231/1/393
f 222/1/394 232/1/394 230/1/394
f 230/1/395 232/1/395 233/1/395
f 232/1/396 201/1/396 233/1/396
f 231/1/397 233/1/397 184/1/397
f 233/1/398 186/1/398 184/1/398
f 233/1/399 201/1/399 186/1/399
f 223/1/400 232/1/400 222/1/400
f 223/1/401 203/1/401 232/1/401
f 232/1/402 203/1/402 201/1/402
f 234/1/403 231/1/403 183/1/403
f 228/1/404 231/1/405 234/1/406
f 231/1/407 184/1/407 183/1/407
f 235/1/408 228/1/404 234/1/406
f 235/1/409 234/1/409 237/1/409
f 234/1/410 183/1/410 236/1/410
f 237/1/411 234/1/411 236/1/411
f 237/1/412 236/1/412 238/1/412
f 240/1/413 237/1/413 238/1/413
f 239/1/414 237/1/414 240/1/414
f 239/1/415 235/1/415 237/1/415
f 115/1/416 239/1/416 240/1/416
f 115/1/417 240/1/417 241/1/417
f 241/1/418 240/1/418 242/1/418
f 240/1/419 238/1/419 242/1/419
f 241/1/420 242/1/420 244/1/420
f 242/1/421 238/1/421 243/1/421
f 242/1/422 243/1/422 245/1/422
f 244/1/423 242/1/423 245/1/423
f 248/1/424 245/1/424 246/1/424
f 245/1/425 247/1/425 246/1/425
f 245/1/426 243/1/426 247/1/426
f 244/1/427 245/1/427 248/1/427
f 248/1/428 251/1/428 249/1/428
f 248/1/429 249/1/429 250/1/429
f 244/1/430 248/1/430 250/1/430
f 248/1/431 246/1/431 251/1/431
f 249/1/432 251/1/432 252/1/432
f 246/1/433 252/1/433 251/1/433
f 249/1/434 252/1/434 253/1/434
f 162/1/435 253/1/435 252/1/435
f 162/1/436 252/1/436 164/1/436
f 246/1/437 164/1/437 252/1/437
f 255/1/438 249/1/438 253/1/438
f 161/1/439 254/1/439 253/1/439
f 255/1/440 253/1/440 254/1/440
f 162/1/441 161/1/441 253/1/441
f 250/1/442 255/1/442 256/1/442
f 257/1/443 256/1/443 255/1/443
f 257/1/444 255/1/444 258/1/444
f 258/1/445 255/1/445 254/1/445
f 250/1/446 249/1/446 255/1/446
f 259/1/447 257/1/447 258/1/447
f 259/1/448 258/1/448 77/1/448
f 258/1/449 254/1/449 75/1/449
f 77/1/450 258/1/450 75/1/450
f 260/1/451 259/1/451 262/1/451
f 260/1/452 257/1/452 259/1/452
f 262/1/453 259/1/453 261/1/453
f 261/1/454 259/1/454 77/1/454
f 86/1/455 262/1/455 84/1/455
f 262/1/456 261/1/456 84/1/456
f 92/1/457 262/1/457 86/1/457
f 92/1/458 260/1/458 262/1/458
f 261/1/459 77/1/459 78/1/459
f 81/1/460 261/1/460 78/1/460
f 84/1/461 261/1/461 81/1/461
f 263/1/462 260/1/462 92/1/462
f 263/1/463 264/1/463 260/1/463
f 264/1/464 257/1/464 260/1/464
f 265/1/465 264/1/465 263/1/465
f 264/1/466 256/1/466 257/1/466
f 266/1/467 256/1/467 264/1/467
f 265/1/468 266/1/468 264/1/468
f 241/1/469 244/1/469 266/1/469
f 241/1/470 266/1/470 265/1/470
f 266/1/471 250/1/471 256/1/471
f 244/1/472 250/1/472 266/1/472
f 115/1/473 265/1/473 267/1/473
f 115/1/474 241/1/474 265/1/474
f 267/1/475 265/1/475 263/1/475
f 96/1/476 267/1/476 93/1/476
f 96/1/477 113/1/477 267/1/477
f 113/1/478 115/1/478 267/1/478
f 267/1/479 263/1/479 93/1/479
f 93/1/480 263/1/480 92/1/480
f 161/1/481 74/1/481 254/1/481
f 74/1/482 75/1/482 254/1/482
f 247/1/483 164/1/483 246/1/483
f 247/1/484 165/1/484 164/1/484
f 181/1/485 165/1/485 247/1/485
f 268/1/486 247/1/486 243/1/486
f 268/1/487 181/1/487 247/1/487
f 236/1/488 180/1/488 268/1/488
f 180/1/489 181/1/489 268/1/489
f 238/1/490 236/1/490 268/1/490
f 238/1/491 268/1/491 243/1/491
f 116/1/492 239/1/492 115/1/492
f 269/1/493 239/1/493 116/1/493
f 269/1/494 235/1/494 239/1/494
f 229/1/495 235/1/496 269/1/497
f 270/1/498 229/1/498 269/1/498
f 270/1/499 269/1/499 118/1/499
f 118/1/500 269/1/500 116/1/500
f 271/1/501 270/1/501 124/1/501
f 271/1/502 226/1/502 270/1/502
f 226/1/503 229/1/503 270/1/503
f 124/1/504 270/1/504 118/1/504
f 225/1/505 226/1/505 271/1/505
f 136/1/506 225/1/506 271/1/506
f 125/1/507 271/1/507 124/1/507
f 136/1/508 271/1/508 125/1/508
f 236/1/509 183/1/509 180/1/509
f 229/1/495 228/1/510 235/1/496
f 137/1/511 220/1/511 225/1/511
f 137/1/512 225/1/512 136/1/512
f 218/1/513 204/1/513 223/1/513
f 204/1/514 203/1/514 223/1/514
f 139/1/515 220/1/515 137/1/515
f 207/1/516 204/1/516 218/1/516
f 198/1/517 206/1/517 195/1/517
f 201/1/518 200/1/518 186/1/518
f 200/1/519 193/1/519 189/1/519
f 200/1/520 189/1/520 187/1/520
f 186/1/521 200/1/521 187/1/521
f 181/1/522 167/1/522 165/1/522
f 148/1/523 149/1/523 172/1/523
f 149/1/524 170/1/524 172/1/524
f 151/1/525 155/1/525 170/1/525
f 149/1/526 151/1/526 170/1/526
f 159/1/527 74/1/527 161/1/527
f 24/1/528 72/1/528 159/1/528
f 159/1/529 72/1/529 74/1/529
f 130/1/530 12/1/530 153/1/530
f 12/1/531 13/1/531 153/1/531
f 140/1/373 142/1/532 143/1/374
f 128/1/533 136/1/533 125/1/533
f 127/1/534 12/1/534 130/1/534
f 127/1/535 9/1/535 12/1/535
f 9/1/536 127/1/536 122/1/536
f 124/1/537 118/1/537 119/1/537
f 122/1/538 6/1/538 5/1/538
f 9/1/539 122/1/539 5/1/539
f 105/1/540 113/1/540 96/1/540
f 18/1/541 108/1/541 272/1/541
f 15/1/542 108/1/543 18/1/544
f 15/1/542 107/1/545 108/1/543
f 108/1/546 101/1/546 272/1/546
f 18/1/547 272/1/547 274/1/547
f 272/1/548 101/1/548 102/1/548
f 272/1/549 102/1/549 273/1/549
f 274/1/550 272/1/550 273/1/550
f 274/1/551 273/1/551 33/1/551
f 274/1/552 19/1/552 18/1/552
f 33/1/553 30/1/553 274/1/553
f 274/1/554 30/1/554 19/1/554
f 33/1/555 273/1/555 276/1/555
f 273/1/556 275/1/556 276/1/556
f 273/1/557 102/1/557 275/1/557
f 276/1/558 275/1/558 277/1/558
f 276/1/559 277/1/559 278/1/559
f 33/1/560 276/1/560 34/1/560
f 34/1/561 276/1/561 278/1/561
f 34/1/562 278/1/562 279/1/562
f 278/1/563 36/1/563 279/1/563
f 278/1/564 45/1/564 36/1/564
f 278/1/565 280/1/565 45/1/565
f 278/1/566 277/1/566 280/1/566
f 277/1/567 281/1/567 280/1/567
f 280/1/568 281/1/568 282/1/568
f 45/1/569 280/1/569 46/1/569
f 280/1/570 282/1/570 46/1/570
f 46/1/571 282/1/571 48/1/571
f 282/1/572 90/1/572 48/1/572
f 282/1/573 98/1/573 90/1/573
f 281/1/574 98/1/574 282/1/574
f 281/1/575 99/1/575 98/1/575
f 275/1/576 99/1/576 281/1/576
f 277/1/577 275/1/577 281/1/577
f 34/1/578 279/1/578 36/1/578
f 275/1/579 102/1/579 99/1/579
f 10/1/580 4/1/580 107/1/580
f 10/1/581 107/1/581 15/1/581
f 107/1/582 4/1/582 2/1/582
f 95/1/583 105/1/583 96/1/583
f 98/1/584 89/1/584 90/1/584
f 48/1/585 90/1/585 87/1/585
f 48/1/586 87/1/586 49/1/586
f 87/1/587 51/1/587 49/1/587
f 24/1/588 25/1/588 72/1/588
f 51/1/589 58/1/589 52/1/589
f 45/1/590 37/1/590 36/1/590
f 31/1/591 39/1/591 28/1/591
f 30/1/592 21/1/592 19/1/592
