# Blender 5.2.0 LTS
# www.blender.org
mtllib Stage1.mtl
o ICO球.007
v -0.320343 -0.106796 -0.018209
v 0.132828 -0.122118 0.286008
v -0.314190 -0.122118 -0.026997
v -0.318713 -0.106871 -0.036841
v -0.005299 0.338040 0.007568
v 0.001074 0.334054 -0.001534
v 0.126674 -0.106796 0.294796
v -0.313970 -0.110783 -0.027311
v 0.133048 -0.110783 0.285694
v 0.143626 -0.106871 0.286892
v 0.011652 0.337966 -0.000336
v -0.003669 0.337966 -0.011065
v 0.191185 -0.109052 -0.256735
v 0.180087 -0.112961 -0.257690
v 0.000555 0.334056 -0.001292
v 0.132528 -0.110780 0.285937
v 0.180387 -0.124299 -0.257619
v 0.175863 -0.109052 -0.267463
v 0.001024 0.334056 -0.000963
v 0.180556 -0.112961 -0.257362
v -0.314020 -0.110780 -0.026740
v 0.180418 -0.112494 -0.257663
v -0.314158 -0.110313 -0.027041
v 0.132859 -0.110313 0.285964
vn -0.4698 -0.5736 0.6710
vn -0.4699 -0.5736 0.6710
vn -0.9401 -0.3311 -0.0809
vn -0.8119 0.5792 -0.0733
vn -0.8119 0.5792 -0.0734
vn 0.6126 -0.4706 0.6350
vn 0.1937 0.9412 -0.2766
vn 0.1937 0.9412 -0.2767
vn -0.5399 0.3377 0.7710
vn -0.8063 -0.4706 -0.3584
vn -0.8062 -0.4706 -0.3584
vn 0.3975 -0.3312 0.8557
vn 0.3466 0.5792 0.7378
vn 0.0026 1.0000 -0.0037
vn 0.4698 0.5736 -0.6710
vn 0.4699 0.5736 -0.6710
vn 0.0893 -0.4683 0.8790
vn 0.2402 -0.4753 -0.8464
vn 0.2404 -0.4752 -0.8464
vn 0.9401 0.3312 0.0809
vn -0.3295 0.9436 -0.0326
vn 0.8119 -0.5792 0.0733
vn 0.5399 -0.3376 -0.7711
vn -0.3466 -0.5792 -0.7378
vn -0.8566 -0.4683 0.2167
vn 0.1434 0.9436 0.2985
vn -0.3976 0.3312 -0.8557
vn 0.7132 -0.4752 -0.5153
vn -0.9962 0.0023 -0.0872
vn 0.4226 0.0023 0.9063
vn 0.4226 0.0022 0.9063
vn -0.0026 -1.0000 0.0038
vn 0.5736 -0.0046 -0.8191
vt 0.625475 0.852660
vt 0.628689 0.851781
vt 0.648390 0.851544
vt 0.649655 0.851467
vt 0.649688 0.850218
vt 0.640752 0.842884
vt 0.640258 0.841399
vt 0.647066 0.852692
vt 0.630506 0.852117
vt 0.191455 0.935746
vt 0.253533 0.899906
vt 0.253533 0.971586
vt 0.627550 0.849376
vt 0.641769 0.844845
vt 0.639819 0.843800
vt 0.645199 0.830948
vt 0.642278 0.831896
vt 0.643736 0.846828
vt 0.628504 0.846445
vt 0.133408 0.980313
vt 0.169248 0.918235
vt 0.205089 0.980313
vt 0.646432 0.829427
vt 0.648203 0.830069
vt 0.638331 0.843297
vt 0.648566 0.831902
vt 0.650813 0.848889
vt 0.013913 0.987518
vt 0.049755 0.925440
vt 0.085595 0.987518
vt 0.646417 0.829171
vt 0.649902 0.851691
vt 0.142651 0.921632
vt 0.106809 0.983711
vt 0.070969 0.921632
vt 0.625242 0.852692
s 1
usemtl Player
f 2/1/1 7/2/1 1/3/2
f 2/1/1 1/3/2 3/4/2
f 1/3/3 4/5/3 3/4/3
f 5/6/4 4/5/5 1/3/5
f 1/3/6 6/7/6 5/6/6
f 1/3/6 8/8/6 6/7/6
f 7/2/7 8/8/8 1/3/8
f 7/2/7 9/9/7 8/8/8
f 6/10/9 8/11/9 9/12/9
f 5/6/10 6/7/10 9/9/11
f 5/6/10 9/9/11 7/2/11
f 7/2/12 2/1/12 10/13/12
f 7/2/13 11/14/13 5/6/13
f 7/2/13 10/13/13 11/14/13
f 5/6/14 11/14/14 12/15/14
f 13/16/15 12/15/16 11/14/16
f 11/14/17 14/17/17 13/16/17
f 11/14/17 15/18/17 14/17/17
f 10/13/18 15/18/19 11/14/19
f 10/13/18 16/19/18 15/18/19
f 14/20/20 15/21/20 16/22/20
f 13/16/21 14/17/21 16/19/21
f 13/16/21 16/19/21 10/13/21
f 10/13/22 17/23/22 13/16/22
f 13/16/23 17/23/23 18/24/23
f 13/16/15 18/24/15 12/15/16
f 18/24/24 17/23/24 3/4/24
f 18/24/24 3/4/24 4/5/24
f 18/24/25 19/25/25 12/15/25
f 18/24/25 20/26/25 19/25/25
f 4/5/26 20/26/26 18/24/26
f 4/5/26 21/27/26 20/26/26
f 19/28/27 20/29/27 21/30/27
f 12/15/28 21/27/28 4/5/28
f 12/15/28 19/25/28 21/27/28
f 10/13/22 2/1/22 17/23/22
f 2/1/29 22/31/29 17/23/29
f 17/23/30 22/31/30 23/32/31
f 17/23/30 23/32/31 3/4/31
f 22/33/32 24/34/32 23/35/32
f 3/4/33 23/32/33 24/36/33
f 3/4/33 24/36/33 2/1/33
f 2/1/29 24/36/29 22/31/29
f 5/6/4 12/15/4 4/5/5
