# Blender 5.2.0 LTS
# www.blender.org
mtllib Stage2.mtl
o ICO球.002
v -0.202674 -0.360800 0.147252
v 0.077416 -0.360798 0.238258
v -0.202674 -0.360800 -0.147252
v -0.222981 -0.360800 0.162005
v -0.202674 -0.326481 0.147252
v 0.077416 -0.326479 0.238258
v -0.202674 -0.326481 -0.147252
v -0.202674 -0.339931 0.147252
v 0.077416 -0.339930 0.238258
v -0.202674 -0.339931 -0.147252
v 0.077416 -0.339930 -0.238258
v 0.250522 -0.339929 0.000000
v 0.077416 -0.326479 -0.238258
v 0.250522 -0.326479 0.000000
v 0.077416 -0.360798 -0.238258
v 0.250522 -0.360797 0.000000
v 0.085173 -0.360798 -0.262130
v -0.222981 -0.360800 -0.162005
v 0.275623 -0.360797 0.000000
v 0.085173 -0.360798 -0.262130
v -0.222981 -0.360800 -0.162005
v 0.275623 -0.360797 0.000000
v 0.085174 -0.360798 -0.262131
v 0.085172 -0.360798 -0.262131
v 0.137808 -0.085176 -0.424137
v -0.222982 -0.360797 -0.162009
v 0.085172 -0.360798 -0.262131
v 0.137808 -0.085176 -0.424137
v -0.222982 -0.360797 -0.162009
v 0.068334 -0.342634 -0.266209
v 0.116176 -0.092113 -0.413461
v -0.211756 -0.342634 -0.175205
v 0.077820 -0.327287 -0.237016
v 0.125661 -0.076766 -0.384268
v -0.202271 -0.327287 -0.146012
v 0.074102 -0.333302 -0.248457
v 0.121944 -0.082781 -0.395709
v -0.205989 -0.333302 -0.157453
v -0.331248 -0.082781 -0.248459
v -0.128574 0.072053 -0.395709
v -0.327531 -0.076766 -0.237017
v -0.124856 0.078068 -0.384268
v -0.337016 -0.092113 -0.266211
v -0.134342 0.062720 -0.413461
v -0.360792 -0.085176 -0.262133
v -0.137810 0.085171 -0.424137
v -0.360792 -0.085176 -0.262133
v -0.137810 0.085171 -0.424137
v -0.360796 -0.085176 -0.262127
v -0.360795 -0.085169 -0.262130
v -0.137813 0.085176 -0.424136
v -0.445967 0.085176 -0.000002
v -0.360795 -0.085169 -0.262130
v -0.137813 0.085176 -0.424136
v -0.445967 0.085176 -0.000002
v -0.351714 -0.062718 -0.255532
v -0.149038 0.092113 -0.402784
v -0.429128 0.092114 -0.017276
v -0.326880 -0.078066 -0.237490
v -0.124205 0.076766 -0.384741
v -0.404295 0.076766 0.000767
v -0.336613 -0.072051 -0.244561
v -0.133937 0.082781 -0.391812
v -0.414028 0.082781 -0.006304
v -0.259197 0.333301 -0.006303
v -0.086092 0.333302 -0.244561
v -0.249465 0.327286 0.000768
v -0.076360 0.327287 -0.237490
v -0.274298 0.342634 -0.017274
v -0.101193 0.342634 -0.255533
v -0.275623 0.360797 -0.000000
v -0.085174 0.360798 -0.262131
v -0.275623 0.360797 -0.000000
v -0.085174 0.360798 -0.262131
v -0.275623 0.360797 -0.000000
v -0.275623 0.360797 -0.000000
v -0.085173 0.360798 0.262130
v -0.085173 0.360798 -0.262130
v -0.275623 0.360797 -0.000000
v -0.085173 0.360798 0.262130
v -0.085173 0.360798 -0.262130
v -0.250522 0.360797 -0.000000
v -0.077416 0.360798 0.238258
v -0.077416 0.360798 -0.238258
v -0.250522 0.326479 -0.000000
v -0.077416 0.326479 0.238258
v -0.077416 0.326479 -0.238258
v -0.250522 0.339929 -0.000000
v -0.077416 0.339929 0.238258
v -0.077416 0.339929 -0.238258
v 0.202674 0.339931 -0.147252
v 0.202674 0.339931 0.147252
v 0.202674 0.326481 -0.147252
v 0.202674 0.326481 0.147252
v 0.202674 0.360800 -0.147252
v 0.202674 0.360800 0.147252
v 0.222981 0.360800 -0.162005
v 0.222981 0.360800 0.162005
v 0.222981 0.360800 -0.162005
v 0.222981 0.360800 0.162005
v 0.222985 0.360797 -0.162005
v 0.222982 0.360797 -0.162009
v 0.360792 0.085176 -0.262133
v -0.085172 0.360798 -0.262131
v 0.222982 0.360797 -0.162009
v 0.360792 0.085176 -0.262133
v -0.085172 0.360798 -0.262131
v 0.211757 0.342634 -0.175205
v 0.337016 0.092113 -0.266211
v -0.068334 0.342634 -0.266209
v 0.202271 0.327287 -0.146012
v 0.327531 0.076766 -0.237017
v -0.077820 0.327287 -0.237016
v 0.205989 0.333302 -0.157453
v 0.331248 0.082781 -0.248459
v -0.074102 0.333302 -0.248457
v -0.121944 0.082781 -0.395709
v 0.128574 -0.072053 -0.395709
v -0.125661 0.076766 -0.384268
v 0.124856 -0.078068 -0.384268
v -0.116176 0.092113 -0.413461
v 0.134342 -0.062720 -0.413461
v -0.137808 0.085176 -0.424137
v 0.137810 -0.085171 -0.424137
v -0.137808 0.085176 -0.424137
v 0.137810 -0.085171 -0.424137
v 0.137813 -0.085176 -0.424136
v 0.360795 0.085169 -0.262130
v 0.137813 -0.085176 -0.424136
v 0.085174 -0.360798 -0.262131
v 0.360795 0.085169 -0.262130
v 0.149038 -0.092113 -0.402784
v 0.101193 -0.342634 -0.255533
v 0.351714 0.062718 -0.255532
v 0.124205 -0.076766 -0.384741
v 0.076360 -0.327287 -0.237490
v 0.326880 0.078066 -0.237490
v 0.133937 -0.082781 -0.391812
v 0.086092 -0.333302 -0.244561
v 0.336613 0.072051 -0.244561
v 0.414028 -0.082781 -0.006304
v 0.259197 -0.333301 -0.006303
v 0.404295 -0.076766 0.000767
v 0.249465 -0.327286 0.000768
v 0.429129 -0.092114 -0.017276
v 0.274298 -0.342634 -0.017274
v 0.445967 -0.085176 -0.000002
v 0.275623 -0.360797 0.000000
v 0.445967 -0.085176 -0.000002
v 0.275623 -0.360797 0.000000
v 0.445967 -0.085176 0.000002
v 0.445967 -0.085173 0.000000
v 0.360796 0.085176 0.262127
v 0.360796 0.085176 -0.262127
v 0.445967 -0.085173 0.000000
v 0.360796 0.085176 0.262127
v 0.360796 0.085176 -0.262127
v 0.434742 -0.062722 0.000000
v 0.357328 0.092113 0.238255
v 0.357328 0.092113 -0.238255
v 0.404046 -0.078070 0.000000
v 0.326632 0.076765 0.238255
v 0.326632 0.076765 -0.238255
v 0.416076 -0.072055 0.000000
v 0.338662 0.082781 0.238255
v 0.338662 0.082780 -0.238255
v 0.213401 0.333301 -0.147251
v 0.213401 0.333301 0.147251
v 0.201370 0.327286 -0.147251
v 0.201370 0.327286 0.147251
v 0.232066 0.342634 -0.147251
v 0.232066 0.342634 0.147251
v 0.222985 0.360797 -0.162005
v 0.222985 0.360797 0.162005
v 0.222985 0.360797 0.162005
v 0.222982 0.360797 0.162009
v 0.360792 0.085176 0.262133
v -0.085172 0.360798 0.262131
v 0.222982 0.360797 0.162009
v 0.360792 0.085176 0.262133
v -0.085172 0.360798 0.262131
v 0.211757 0.342634 0.175205
v 0.337016 0.092113 0.266211
v -0.068334 0.342634 0.266209
v 0.202271 0.327287 0.146012
v 0.327531 0.076766 0.237017
v -0.077820 0.327287 0.237016
v 0.205989 0.333302 0.157453
v 0.331248 0.082781 0.248459
v -0.074102 0.333302 0.248457
v -0.121944 0.082781 0.395709
v 0.128574 -0.072053 0.395709
v -0.125661 0.076766 0.384268
v 0.124856 -0.078068 0.384268
v -0.116176 0.092113 0.413461
v 0.134342 -0.062720 0.413461
v -0.137808 0.085176 0.424137
v 0.137810 -0.085171 0.424137
v -0.137808 0.085176 0.424137
v 0.137810 -0.085171 0.424137
v -0.137810 0.085171 0.424137
v -0.137813 0.085176 0.424136
v -0.360795 -0.085169 0.262131
v -0.085174 0.360798 0.262131
v -0.137813 0.085176 0.424136
v -0.360795 -0.085169 0.262131
v -0.085174 0.360798 0.262131
v -0.149038 0.092113 0.402784
v -0.351713 -0.062718 0.255532
v -0.101193 0.342634 0.255533
v -0.124205 0.076766 0.384741
v -0.326880 -0.078066 0.237490
v -0.076360 0.327287 0.237490
v -0.133937 0.082781 0.391812
v -0.336613 -0.072051 0.244561
v -0.086092 0.333302 0.244561
v -0.259197 0.333301 0.006303
v -0.414028 0.082781 0.006304
v -0.249465 0.327286 -0.000768
v -0.404295 0.076766 -0.000767
v -0.274298 0.342634 0.017274
v -0.429128 0.092114 0.017276
v -0.275623 0.360797 -0.000000
v -0.445967 0.085176 0.000002
v -0.445967 0.085176 0.000002
v -0.445967 0.085173 -0.000000
v -0.360796 -0.085176 0.262127
v -0.445967 0.085173 -0.000000
v -0.360796 -0.085176 0.262127
v -0.360796 -0.085176 -0.262127
v -0.434742 0.062722 -0.000000
v -0.357328 -0.092113 0.238255
v -0.357328 -0.092113 -0.238255
v -0.404046 0.078070 -0.000000
v -0.326632 -0.076766 0.238255
v -0.326632 -0.076766 -0.238255
v -0.416076 0.072055 -0.000000
v -0.338662 -0.082781 0.238255
v -0.338662 -0.082781 -0.238255
v -0.213401 -0.333302 -0.147251
v -0.213401 -0.333302 0.147251
v -0.201370 -0.327286 -0.147251
v -0.201370 -0.327286 0.147251
v -0.232066 -0.342634 -0.147251
v -0.232066 -0.342634 0.147251
v -0.222985 -0.360797 -0.162005
v -0.222985 -0.360797 0.162005
v -0.222985 -0.360797 -0.162005
v -0.222985 -0.360797 0.162005
v -0.222981 -0.360800 0.162005
v -0.222982 -0.360797 0.162009
v -0.360792 -0.085176 0.262133
v 0.085172 -0.360798 0.262131
v -0.222982 -0.360797 0.162009
v -0.360792 -0.085176 0.262133
v 0.085172 -0.360798 0.262131
v -0.211756 -0.342634 0.175205
v -0.337016 -0.092113 0.266211
v 0.068334 -0.342634 0.266209
v -0.202271 -0.327287 0.146012
v -0.327531 -0.076766 0.237017
v 0.077820 -0.327287 0.237016
v -0.205989 -0.333302 0.157453
v -0.331248 -0.082781 0.248459
v 0.074102 -0.333302 0.248457
v 0.121944 -0.082781 0.395709
v -0.128574 0.072053 0.395709
v 0.125661 -0.076766 0.384268
v -0.124856 0.078068 0.384268
v 0.116176 -0.092113 0.413461
v -0.134342 0.062720 0.413461
v 0.137808 -0.085176 0.424137
v -0.137810 0.085171 0.424137
v 0.137808 -0.085176 0.424137
v 0.137813 -0.085176 0.424136
v 0.360795 0.085169 0.262131
v 0.085174 -0.360798 0.262131
v 0.137813 -0.085176 0.424136
v 0.360795 0.085169 0.262131
v 0.085174 -0.360798 0.262131
v 0.149038 -0.092114 0.402784
v 0.351714 0.062718 0.255532
v 0.101193 -0.342635 0.255533
v 0.124205 -0.076766 0.384741
v 0.326880 0.078066 0.237490
v 0.076360 -0.327287 0.237490
v 0.133937 -0.082781 0.391812
v 0.336613 0.072051 0.244561
v 0.086092 -0.333302 0.244561
v 0.259197 -0.333301 0.006303
v 0.414028 -0.082781 0.006304
v 0.249465 -0.327286 -0.000768
v 0.404295 -0.076766 -0.000767
v 0.274298 -0.342634 0.017274
v 0.429129 -0.092114 0.017276
v 0.275623 -0.360797 0.000000
v 0.445967 -0.085176 0.000002
v 0.275623 -0.360797 0.000000
v 0.085173 -0.360798 0.262130
v 0.085173 -0.360798 0.262130
vn 0.3090 -0.0000 -0.9511
vn -0.0000 -1.0000 -0.0000
vn 1.0000 -0.0000 -0.0000
vn -0.3090 -0.0000 0.9511
vn -1.0000 -0.0000 -0.0000
vn -0.3090 -0.0000 -0.9511
vn 0.8090 -0.0000 -0.5878
vn 0.3090 -0.0000 0.9511
vn -0.8090 -0.0000 0.5878
vn -0.0001 1.0000 -0.0000
vn -0.0000 -0.0000 1.0000
vn -0.0000 -0.0000 -1.0000
vn -0.1607 -0.8511 -0.4998
vn 0.3978 -0.8653 -0.3050
vn 0.1887 -0.7924 -0.5801
vn 0.1888 -0.7924 -0.5801
vn 0.0001 1.0000 -0.0000
vn 0.2603 -0.5277 -0.8086
vn -0.0000 1.0000 -0.0000
vn -0.2764 -0.4472 -0.8507
vn -0.2764 -0.4472 -0.8506
vn -0.9472 0.2764 0.1625
vn -0.1382 0.8944 -0.4253
vn 0.9472 -0.2764 -0.1624
vn 0.9472 -0.2764 -0.1625
vn 0.1382 -0.8944 0.4253
vn -0.8618 -0.2764 0.4254
vn -0.8618 -0.2764 0.4253
vn -0.6708 0.7236 -0.1625
vn -0.6708 0.7236 -0.1624
vn 0.8618 0.2764 -0.4253
vn 0.6708 -0.7236 0.1625
vn 0.6708 -0.7236 0.1624
vn -0.0001 1.0000 -0.0001
vn -0.6867 -0.5238 -0.5040
vn -0.6873 -0.5233 -0.5038
vn -0.5816 -0.0227 -0.8132
vn -0.5816 -0.0227 -0.8131
vn -0.7938 -0.1963 -0.5757
vn -0.9506 -0.0060 -0.3104
vn -0.7236 0.4472 -0.5257
vn -0.0528 0.7236 0.6882
vn 0.6382 0.7236 -0.2629
vn 0.0528 -0.7236 -0.6882
vn -0.6382 -0.7236 0.2629
vn -0.4472 0.2764 0.8507
vn -0.4472 0.2764 0.8506
vn 0.3618 0.8944 0.2629
vn 0.4472 -0.2764 -0.8507
vn 0.4472 -0.2764 -0.8506
vn -0.3618 -0.8944 -0.2629
vn -0.8507 0.5257 -0.0000
vn -0.3978 0.8653 -0.3050
vn -0.3763 0.8744 0.3063
vn 0.8090 -0.0000 0.5878
vn -0.8090 -0.0000 -0.5878
vn -0.0000 -0.0000 -0.0000
vn 0.5165 0.8563 -0.0000
vn 0.5158 0.8567 -0.0000
vn 0.1695 0.8491 -0.5003
vn 0.4806 0.8010 -0.3568
vn 0.4807 0.8010 -0.3568
vn 0.6877 0.5256 -0.5009
vn 0.6873 0.5254 -0.5016
vn 0.6859 0.5238 -0.5051
vn 0.2764 0.4472 -0.8507
vn -0.8618 -0.2764 -0.4253
vn 0.1382 -0.8944 -0.4253
vn 0.8618 0.2764 0.4254
vn 0.8618 0.2764 0.4253
vn -0.1382 0.8944 0.4253
vn -0.9472 0.2764 -0.1624
vn -0.9472 0.2764 -0.1625
vn -0.4472 -0.7236 -0.5257
vn -0.4472 -0.7236 -0.5258
vn 0.4472 0.7236 0.5257
vn 0.9472 -0.2764 0.1625
vn 0.2764 0.4472 -0.8506
vn 0.0034 -0.0085 -1.0000
vn -0.2714 0.5283 -0.8045
vn -0.2998 0.1612 -0.9403
vn -0.0000 1.0000 -0.0001
vn 0.5857 -0.0000 -0.8105
vn 0.2998 -0.1674 -0.9392
vn 0.0001 1.0000 -0.0001
vn 0.7236 -0.4472 -0.5257
vn 0.6708 0.2764 0.6882
vn 0.0528 -0.7236 0.6882
vn -0.6708 -0.2764 -0.6882
vn -0.0528 0.7236 -0.6882
vn 0.6382 0.7236 0.2629
vn 0.4472 -0.2764 0.8507
vn 0.4472 -0.2764 0.8506
vn -0.6382 -0.7236 -0.2629
vn -0.4472 0.2764 -0.8507
vn -0.4472 0.2764 -0.8506
vn 0.9530 0.0022 -0.3031
vn 0.8506 -0.5257 -0.0000
vn 0.9827 -0.1854 -0.0000
vn 0.9517 0.0009 0.3069
vn 0.9517 0.0010 0.3069
vn 0.9510 0.0020 0.3092
vn 0.8944 0.4472 -0.0000
vn -0.3618 0.7236 -0.5878
vn -0.3618 0.7236 0.5878
vn 0.3618 -0.7236 0.5878
vn 0.3618 -0.7236 -0.5878
vn -0.1382 0.2764 -0.9511
vn -0.4472 0.8944 -0.0000
vn 0.1382 -0.2764 0.9511
vn 0.4472 -0.8944 -0.0000
vn 0.6861 0.5233 0.5054
vn 0.6860 0.5222 0.5067
vn 0.4866 0.7994 0.3524
vn 0.4867 0.7993 0.3524
vn 0.1612 0.8528 0.4967
vn 0.2764 0.4472 0.8507
vn 0.8618 0.2764 -0.4254
vn -0.9472 0.2764 0.1624
vn -0.4472 -0.7236 0.5257
vn -0.4472 -0.7236 0.5258
vn 0.4472 0.7236 -0.5257
vn 0.2764 0.4472 0.8506
vn -0.2825 0.5310 0.7989
vn -0.2824 0.5310 0.7989
vn -0.2980 0.1829 0.9369
vn -0.5867 0.0013 0.8098
vn -0.7236 0.4472 0.5257
vn 0.3618 0.8944 -0.2629
vn -0.3618 -0.8944 0.2629
vn -0.9522 -0.0008 0.3054
vn -0.9522 -0.0006 0.3055
vn -0.9535 -0.0000 0.3015
vn -0.9827 0.1854 -0.0000
vn -0.8944 -0.4472 -0.0000
vn 0.1382 -0.2764 -0.9511
vn -0.1382 0.2764 0.9511
vn -0.5165 -0.8563 -0.0000
vn -0.5158 -0.8567 -0.0000
vn -0.4800 -0.8000 -0.3600
vn -0.6906 -0.5299 0.4922
vn -0.4812 -0.8021 0.3536
vn -0.1447 -0.8668 0.4772
vn -0.2764 -0.4472 0.8507
vn -0.8618 -0.2764 -0.4254
vn 0.9472 -0.2764 0.1624
vn -0.2764 -0.4472 0.8506
vn 0.2559 -0.5273 0.8102
vn 0.2974 -0.1826 0.9371
vn 0.5839 0.0153 0.8117
vn 0.7236 -0.4472 0.5257
vn 0.6708 0.2764 -0.6882
vn -0.6708 -0.2764 0.6882
vn 0.3763 -0.8744 0.3063
vn 0.2022 -0.8086 0.5525
vn 0.2023 -0.8086 0.5525
vn 0.7941 0.1843 0.5791
vn 0.6708 -0.7236 -0.1625
vn 0.6708 -0.7236 -0.1624
vn -0.6708 0.7236 0.1625
vn -0.6708 0.7236 0.1624
vn -0.7932 -0.1873 0.5795
vn -0.1846 0.8120 0.5537
vn 0.7935 0.1977 -0.5755
vn -0.1859 0.7992 -0.5715
vn -0.1859 0.7992 -0.5716
vn 0.4472 0.7236 -0.5258
vn -0.1718 -0.8482 -0.5010
vn -0.1717 -0.8482 -0.5011
vn -0.1717 -0.8482 -0.5010
vn 0.4572 -0.8682 -0.1929
vn 0.4573 -0.8682 -0.1929
vn 0.2589 -0.5249 -0.8108
vn -0.6861 -0.5243 -0.5043
vn -0.5858 -0.0039 -0.8104
vn -0.9539 -0.0022 -0.3000
vn -0.8506 0.5257 -0.0000
vn -0.4572 0.8682 -0.1929
vn -0.4573 0.8682 -0.1929
vn -0.6115 0.7645 0.2039
vn -0.6116 0.7645 0.2039
vn 0.5171 0.8559 -0.0000
vn 0.1604 0.8515 -0.4992
vn 0.6889 0.5270 -0.4976
vn -0.0034 0.0114 -0.9999
vn -0.2548 0.5271 -0.8107
vn 0.5853 0.0213 -0.8105
vn 0.9509 0.0059 -0.3094
vn 0.8507 -0.5257 -0.0000
vn 0.9525 0.0001 0.3046
vn 0.6862 0.5244 0.5042
vn 0.1411 0.8668 0.4783
vn -0.2572 0.5245 0.8116
vn -0.5871 -0.0170 0.8093
vn -0.9510 -0.0017 0.3093
vn -0.5171 -0.8559 -0.0000
vn -0.6863 -0.5213 0.5071
vn -0.1626 -0.8528 0.4963
vn 0.4472 0.7236 0.5258
vn 0.2710 -0.5303 0.8033
vn 0.5880 -0.0039 0.8089
vn 0.6115 -0.7645 0.2039
vn 0.6116 -0.7645 0.2039
vt 0.490378 0.027672
vt 0.493267 0.029536
vt 0.493413 0.029677
vt 0.493599 0.029758
vt 0.490207 0.027362
vt 0.490548 0.025231
vt 0.490554 0.027910
vt 0.490262 0.025021
vt 0.767124 0.340556
vt 0.762984 0.345918
vt 0.767048 0.340321
vt 0.767112 0.351289
vt 0.763231 0.345918
vt 0.133408 0.608817
vt 0.133408 0.656389
vt 0.088166 0.671089
vt 0.773426 0.349274
vt 0.767035 0.351524
vt 0.773433 0.342632
vt 0.773634 0.349431
vt 0.492974 0.025130
vt 0.490841 0.025421
vt 0.496349 0.028767
vt 0.492506 0.024849
vt 0.491857 0.024571
vt 0.497267 0.029482
vt 0.491177 0.024625
vt 0.497803 0.030126
vt 0.490514 0.024640
vt 0.490105 0.024911
vt 0.489987 0.024965
vt 0.490858 0.024492
vt 0.485659 0.027745
vt 0.489819 0.024625
vt 0.485306 0.028377
vt 0.489744 0.025138
vt 0.489086 0.024818
vt 0.489443 0.025245
vt 0.486699 0.026583
vt 0.486228 0.027088
vt 0.489187 0.025331
vt 0.488509 0.024999
vt 0.722091 0.389574
vt 0.717952 0.394940
vt 0.722015 0.389339
vt 0.722085 0.400306
vt 0.718199 0.394940
vt 0.070743 0.767925
vt 0.070743 0.720352
vt 0.115987 0.705655
vt 0.728604 0.398443
vt 0.722008 0.400541
vt 0.728395 0.398285
vt 0.728604 0.391502
vt 0.488225 0.025514
vt 0.487356 0.026908
vt 0.488420 0.025952
vt 0.487963 0.024960
vt 0.487150 0.027103
vt 0.487674 0.024401
vt 0.486854 0.027189
vt 0.490118 0.024781
vt 0.487763 0.023997
vt 0.487363 0.024289
vt 0.486646 0.027176
vt 0.486397 0.027036
vt 0.486658 0.024383
vt 0.484476 0.018833
vt 0.485037 0.019756
vt 0.483978 0.017289
vt 0.486116 0.024401
vt 0.485694 0.020996
vt 0.486251 0.026592
vt 0.486305 0.026811
vt 0.486204 0.022004
vt 0.485754 0.024434
vt 0.915453 0.026073
vt 0.915662 0.019284
vt 0.915654 0.025928
vt 0.922055 0.017033
vt 0.915453 0.019126
vt 0.246656 0.637142
vt 0.173452 0.660925
vt 0.218695 0.598657
vt 0.925855 0.022640
vt 0.921977 0.017269
vt 0.922036 0.028235
vt 0.926103 0.022641
vt 0.488445 0.025061
vt 0.488003 0.027196
vt 0.488457 0.024754
vt 0.488353 0.025495
vt 0.488109 0.027711
vt 0.488222 0.028306
vt 0.487933 0.025945
vt 0.488248 0.028733
vt 0.484964 0.018576
vt 0.487507 0.026171
vt 0.487785 0.026225
vt 0.488122 0.028957
vt 0.487994 0.026619
vt 0.489854 0.029240
vt 0.490232 0.029085
vt 0.489594 0.029219
vt 0.487733 0.029201
vt 0.488257 0.027217
vt 0.490429 0.029055
vt 0.490531 0.029072
vt 0.488474 0.027735
vt 0.487501 0.029700
vt 0.487565 0.029479
vt 0.076253 0.357605
vt 0.078571 0.364027
vt 0.078424 0.364229
vt 0.085249 0.364028
vt 0.085396 0.364229
vt 0.262728 0.713903
vt 0.307971 0.728603
vt 0.307971 0.776173
vt 0.087291 0.357677
vt 0.087528 0.357600
vt 0.081889 0.353767
vt 0.081889 0.353518
vt 0.488528 0.032933
vt 0.491052 0.031721
vt 0.491350 0.032011
vt 0.488572 0.032467
vt 0.488489 0.033461
vt 0.491681 0.032329
vt 0.488597 0.033738
vt 0.491961 0.032535
vt 0.488511 0.033962
vt 0.488401 0.028935
vt 0.488715 0.033770
vt 0.489051 0.033687
vt 0.486888 0.038146
vt 0.486590 0.037247
vt 0.488817 0.029119
vt 0.489085 0.033506
vt 0.486419 0.035922
vt 0.489013 0.029446
vt 0.489037 0.033315
vt 0.489131 0.029743
vt 0.680434 0.392085
vt 0.676285 0.397446
vt 0.680186 0.392085
vt 0.676301 0.386715
vt 0.676378 0.386479
vt 0.264436 0.882210
vt 0.292397 0.843723
vt 0.337640 0.858422
vt 0.669779 0.388576
vt 0.669987 0.388733
vt 0.669980 0.395371
vt 0.669779 0.395516
vt 0.484509 0.030262
vt 0.486618 0.028374
vt 0.484562 0.030857
vt 0.486639 0.027947
vt 0.486676 0.027496
vt 0.484534 0.029538
vt 0.486722 0.027272
vt 0.484942 0.028964
vt 0.486851 0.038620
vt 0.484991 0.028602
vt 0.490873 0.024562
vt 0.485044 0.028662
vt 0.487016 0.038595
vt 0.490978 0.024422
vt 0.484810 0.028716
vt 0.486873 0.038958
vt 0.491083 0.023577
vt 0.483925 0.028462
vt 0.908225 0.127149
vt 0.914607 0.129455
vt 0.908301 0.127383
vt 0.914809 0.129310
vt 0.914600 0.136100
vt 0.401511 0.525392
vt 0.417206 0.570298
vt 0.379347 0.599102
vt 0.908207 0.138351
vt 0.914809 0.136257
vt 0.904406 0.132743
vt 0.908284 0.138115
vt 0.499757 0.045383
vt 0.485967 0.039840
vt 0.498545 0.030531
vt 0.499282 0.044721
vt 0.499474 0.045043
vt 0.498083 0.030487
vt 0.499630 0.045277
vt 0.498161 0.030356
vt 0.499432 0.046287
vt 0.499149 0.044741
vt 0.496252 0.036023
vt 0.499725 0.047999
vt 0.494691 0.036012
vt 0.495297 0.035924
vt 0.487095 0.039012
vt 0.487227 0.039935
vt 0.497927 0.045865
vt 0.488093 0.040594
vt 0.496970 0.036981
vt 0.496748 0.036537
vt 0.488883 0.040983
vt 0.496445 0.044055
vt 0.575013 0.361425
vt 0.581436 0.363742
vt 0.575090 0.361661
vt 0.581638 0.370567
vt 0.581638 0.363596
vt 0.473994 0.817629
vt 0.400788 0.841415
vt 0.446031 0.779144
vt 0.575085 0.372463
vt 0.581437 0.370421
vt 0.570926 0.367061
vt 0.575008 0.372700
vt 0.488346 0.034943
vt 0.492768 0.032862
vt 0.488473 0.035551
vt 0.488283 0.034320
vt 0.492385 0.032515
vt 0.491644 0.032632
vt 0.491771 0.032536
vt 0.494409 0.035186
vt 0.491311 0.032858
vt 0.489712 0.029400
vt 0.489680 0.029763
vt 0.491167 0.032929
vt 0.489848 0.030175
vt 0.493880 0.034384
vt 0.491094 0.032933
vt 0.493424 0.033707
vt 0.902643 0.075150
vt 0.909162 0.077013
vt 0.908953 0.077171
vt 0.898510 0.080516
vt 0.902566 0.074914
vt 0.491498 0.653466
vt 0.446255 0.591195
vt 0.519458 0.614979
vt 0.902649 0.085881
vt 0.898757 0.080515
vt 0.909162 0.083953
vt 0.902573 0.086116
vt 0.491546 0.029274
vt 0.490023 0.030527
vt 0.493545 0.031089
vt 0.491320 0.028938
vt 0.491033 0.028576
vt 0.493329 0.031135
vt 0.490737 0.028416
vt 0.492893 0.031310
vt 0.490529 0.028475
vt 0.490686 0.028236
vt 0.489442 0.024542
vt 0.490740 0.027834
vt 0.488962 0.024976
vt 0.488831 0.025206
vt 0.489247 0.029011
vt 0.489619 0.024222
vt 0.490595 0.027359
vt 0.488918 0.028587
vt 0.490426 0.026947
vt 0.489706 0.024038
vt 0.488657 0.028192
vt 0.014927 0.761453
vt 0.021308 0.759146
vt 0.021233 0.759382
vt 0.014934 0.768097
vt 0.014725 0.761308
vt 0.387648 0.708606
vt 0.342404 0.693907
vt 0.342404 0.646336
vt 0.021327 0.770348
vt 0.014725 0.768255
vt 0.025128 0.764741
vt 0.021250 0.770113
vt 0.486544 0.026084
vt 0.486563 0.022045
vt 0.486363 0.025958
vt 0.485406 0.019564
vt 0.486039 0.020930
vt 0.486879 0.026227
vt 0.487789 0.025141
vt 0.484553 0.018453
vt 0.488180 0.023342
vt 0.485355 0.019923
vt 0.488389 0.022756
vt 0.486962 0.024628
vt 0.487284 0.024872
vt 0.488515 0.022364
vt 0.486022 0.021117
vt 0.908227 0.185030
vt 0.914608 0.187340
vt 0.908302 0.185265
vt 0.914809 0.194136
vt 0.914809 0.187195
vt 0.304122 0.595223
vt 0.256562 0.596274
vt 0.240867 0.551367
vt 0.908286 0.195997
vt 0.914600 0.193978
vt 0.904154 0.190627
vt 0.908209 0.196232
vt 0.490139 0.024269
vt 0.489329 0.026149
vt 0.490072 0.024061
vt 0.490204 0.024497
vt 0.489774 0.026541
vt 0.490147 0.026773
vt 0.488494 0.025135
vt 0.490430 0.026791
vt 0.490259 0.026966
vt 0.489056 0.025634
vt 0.490855 0.026626
vt 0.493901 0.029419
vt 0.493823 0.029126
vt 0.493848 0.029567
vt 0.491211 0.026636
vt 0.493505 0.028859
vt 0.489421 0.026191
vt 0.491468 0.026696
vt 0.489752 0.026655
vt 0.631688 0.892271
vt 0.635836 0.897632
vt 0.635761 0.897868
vt 0.635820 0.886901
vt 0.631935 0.892271
vt 0.157308 0.801110
vt 0.204866 0.800059
vt 0.220560 0.844969
vt 0.642342 0.888762
vt 0.635743 0.886666
vt 0.642141 0.895558
vt 0.642134 0.888920
vt 0.492018 0.030323
vt 0.493209 0.028640
vt 0.490015 0.028851
vt 0.492216 0.030710
vt 0.492455 0.031143
vt 0.490179 0.028718
vt 0.492676 0.031355
vt 0.494053 0.029548
vt 0.492629 0.031530
vt 0.494103 0.036487
vt 0.492415 0.031917
vt 0.494380 0.029650
vt 0.493922 0.036822
vt 0.492486 0.032383
vt 0.494799 0.030047
vt 0.492612 0.032785
vt 0.493872 0.036987
vt 0.495147 0.030460
vt 0.433717 0.977797
vt 0.433925 0.984587
vt 0.433717 0.984744
vt 0.440299 0.975636
vt 0.433918 0.977943
vt 0.488984 0.716844
vt 0.526844 0.688040
vt 0.565935 0.715143
vt 0.444119 0.981230
vt 0.440224 0.975871
vt 0.440318 0.986837
vt 0.444366 0.981230
vt 0.499043 0.032078
vt 0.498200 0.039442
vt 0.499009 0.032815
vt 0.498933 0.031176
vt 0.499011 0.043264
vt 0.498591 0.041159
vt 0.498320 0.030663
vt 0.440241 0.986602
vt 0.494776 0.035759
vt 0.489923 0.028932
vt 0.642342 0.895703
vt 0.488925 0.025799
vt 0.904401 0.190627
vt 0.025375 0.764740
vt 0.493673 0.031074
vt 0.908961 0.083808
vt 0.493110 0.033230
vt 0.571175 0.367061
vt 0.499757 0.030085
vt 0.904158 0.132743
vt 0.486317 0.034793
vt 0.676361 0.397681
vt 0.076489 0.357682
vt 0.921960 0.028000
vt 0.487523 0.026705
vt 0.728403 0.391648
vt 0.495558 0.028199
vt 0.773634 0.342486
vt 0.060204 0.632605
vt 0.088166 0.594120
vt 0.143948 0.744141
vt 0.115986 0.782626
vt 0.218694 0.675627
vt 0.173452 0.613354
vt 0.262732 0.790874
vt 0.234768 0.752389
vt 0.337640 0.905994
vt 0.292397 0.920695
vt 0.340251 0.571998
vt 0.353951 0.526443
vt 0.446031 0.856115
vt 0.400788 0.793843
vt 0.446255 0.638766
vt 0.491496 0.576493
vt 0.387647 0.631636
vt 0.415608 0.670123
vt 0.278728 0.522563
vt 0.317819 0.549666
vt 0.182700 0.873773
vt 0.143608 0.846666
vt 0.552239 0.760700
vt 0.504680 0.761751
s 1
usemtl Player
f 1/1/1 6/2/1 2/3/1
f 1/1/2 300/4/2 4/5/2
f 3/6/3 5/7/3 1/1/3
f 1/1/2 18/8/2 3/6/2
f 6/9/4 8/10/4 9/11/4
f 7/12/5 8/10/5 5/13/5
f 11/14/2 12/15/2 9/16/2
f 13/17/6 10/18/6 7/12/6
f 14/19/7 11/20/7 13/17/7
f 3/6/8 13/21/8 7/22/8
f 16/23/9 13/21/9 15/24/9
f 3/6/2 17/25/2 15/24/2
f 16/23/2 17/25/2 19/26/2
s 0
f 18/8/10 20/27/11 17/25/10
f 17/25/10 22/28/12 19/26/10
s 1
f 24/29/13 21/30/13 26/31/13
f 23/32/14 22/28/14 20/27/14
f 20/27/15 24/29/16 23/32/15
s 0
f 28/33/17 24/29/12 27/34/17
s 1
f 25/35/18 23/32/18 24/29/18
s 0
f 27/34/17 26/31/12 29/36/19
s 1
f 30/37/20 28/33/21 27/34/20
f 30/37/20 29/36/20 32/38/20
f 30/37/22 34/39/22 31/40/22
f 30/37/23 35/41/23 33/42/23
f 34/43/24 36/44/25 37/45/24
f 35/46/26 36/44/26 33/47/26
f 39/48/20 40/49/20 37/50/20
f 35/46/27 39/51/28 38/52/27
f 41/53/29 40/54/30 39/51/29
f 43/55/31 35/41/31 32/38/31
f 44/56/32 41/57/33 43/55/33
f 32/38/20 45/58/20 43/55/20
f 44/56/20 45/58/20 46/59/20
s 0
f 29/36/19 47/60/11 45/58/10
f 45/58/10 48/61/12 46/59/34
s 1
f 47/60/35 248/62/35 49/63/36
f 48/61/37 50/64/37 51/65/38
f 47/60/39 49/63/39 50/64/39
s 0
f 54/66/19 50/64/12 53/67/19
f 53/67/19 52/68/12 55/69/10
s 1
f 226/70/40 50/64/40 49/63/40
f 56/71/41 54/66/41 53/67/41
f 56/71/41 55/69/41 58/72/41
f 56/71/42 60/73/42 57/74/42
f 56/71/43 61/75/43 59/76/43
f 60/77/44 62/78/44 63/79/44
f 61/80/45 62/78/45 59/81/45
f 65/82/41 63/83/41 64/84/41
f 61/80/46 65/85/47 64/86/46
f 68/87/48 65/85/48 67/88/48
f 69/89/49 61/75/50 58/72/50
f 69/89/51 68/90/51 67/91/51
f 69/89/41 55/69/41 71/92/41
f 70/93/41 71/92/41 72/94/41
s 0
f 55/69/19 73/95/12 71/92/10
f 71/92/10 74/96/12 72/94/10
f 73/95/52 225/97/52 75/98/11
s 1
f 74/96/53 76/99/53 78/100/53
s 0
f 73/95/12 75/98/12 76/99/12
f 79/101/10 77/102/12 80/103/10
s 1
f 76/99/54 204/104/54 77/102/54
s 0
f 81/105/19 76/99/12 79/101/19
s 1
f 82/106/19 80/103/19 83/107/19
f 82/106/19 81/105/19 79/101/19
f 82/106/7 86/108/7 85/109/7
f 82/106/55 87/110/55 84/111/55
f 86/112/9 88/113/9 85/114/9
f 85/114/56 90/115/56 87/116/56
f 92/117/19 91/118/19 90/119/19
f 87/116/1 91/120/1 93/121/1
f 93/121/3 92/122/3 94/123/3
f 95/124/5 94/125/5 96/126/5
f 95/124/4 87/110/4 93/127/4
f 96/126/19 97/128/19 95/124/19
f 95/124/19 81/105/19 84/111/19
s 0
f 98/129/57 99/130/57 97/128/57
f 97/128/19 78/100/11 81/105/19
s 1
f 99/130/58 175/131/58 101/132/59
f 99/130/60 104/133/60 78/100/60
f 101/132/61 102/134/62 99/130/61
s 0
f 105/135/10 103/136/11 106/137/19
s 1
f 101/132/63 103/136/64 102/134/65
s 0
f 107/138/19 102/134/12 105/135/19
s 1
f 108/139/66 106/137/66 109/140/66
f 110/141/66 105/135/66 108/139/66
f 109/140/67 111/142/67 108/139/67
f 110/141/68 111/142/68 113/143/68
f 111/144/69 115/145/70 114/146/69
f 111/144/71 116/147/71 113/148/71
f 117/149/66 116/150/66 114/151/66
f 119/152/72 116/147/73 117/153/72
f 119/152/74 118/154/75 120/155/75
f 122/156/76 119/157/76 120/158/76
f 110/141/77 119/157/77 121/159/77
f 122/156/66 123/160/78 121/159/78
f 110/141/66 123/160/78 107/138/66
s 0
f 124/161/19 125/162/12 123/160/19
f 123/160/19 104/133/12 107/138/17
s 1
f 48/61/79 126/163/79 25/35/79
f 104/133/80 51/65/80 74/96/80
f 48/61/81 51/65/81 125/162/81
s 0
f 106/137/19 126/163/12 124/161/82
s 1
f 128/164/83 126/163/83 103/136/83
f 127/165/84 25/35/84 126/163/84
s 0
f 130/166/19 127/165/12 129/167/85
f 129/167/10 128/164/12 131/168/10
s 1
f 133/169/86 129/167/86 132/170/86
f 134/171/86 129/167/86 131/168/86
f 132/170/87 136/172/87 133/169/87
f 134/171/88 135/173/88 132/170/88
f 136/174/89 138/175/89 139/176/89
f 135/177/90 140/178/90 138/175/90
f 142/179/86 139/180/86 138/181/86
f 143/182/91 140/178/91 137/183/91
f 143/182/92 142/184/93 141/185/92
f 134/171/94 143/186/94 137/187/94
f 146/188/95 143/186/96 145/189/96
f 134/171/86 147/190/86 145/189/86
f 146/188/86 147/190/86 148/191/86
s 0
f 131/168/10 149/192/12 147/190/19
f 147/190/17 150/193/12 148/191/19
s 1
f 128/164/97 152/194/97 149/192/97
f 151/195/98 150/193/98 149/192/98
f 151/195/99 149/192/99 152/194/99
s 0
f 156/196/10 152/194/12 155/197/82
s 1
f 276/198/100 152/194/101 153/199/102
s 0
f 155/197/19 154/200/12 157/201/34
s 1
f 158/202/103 156/196/103 155/197/103
f 158/202/103 157/201/103 160/203/103
f 158/202/104 162/204/104 159/205/104
f 158/202/105 163/206/105 161/207/105
f 162/208/106 164/209/106 165/210/106
f 163/211/107 164/209/107 161/212/107
f 167/213/103 165/214/103 166/215/103
f 163/211/108 167/216/108 166/217/108
f 170/218/109 167/216/109 169/219/109
f 171/220/110 163/206/110 160/203/110
f 172/221/111 169/222/111 171/220/111
f 171/220/103 157/201/103 173/223/103
f 171/220/103 174/224/103 172/221/103
s 0
f 157/201/19 101/132/12 173/223/10
f 173/223/57 175/131/57 174/224/57
s 1
f 172/221/103 156/196/103 159/205/103
s 0
f 174/224/10 153/199/12 156/196/19
s 1
f 176/225/112 153/199/112 175/131/113
f 176/225/114 175/131/115 100/226/115
s 0
f 180/227/19 176/225/11 179/228/10
f 179/228/17 178/229/12 181/230/19
s 1
f 77/102/116 176/225/116 100/226/116
f 182/231/117 180/227/117 179/228/117
f 184/232/117 179/228/117 181/230/117
f 183/233/28 185/234/28 186/235/28
f 184/232/26 185/234/26 182/231/26
f 185/236/118 189/237/31 186/238/31
f 185/236/23 190/239/23 188/240/23
f 188/241/117 191/242/117 189/243/117
f 193/244/119 190/239/22 187/245/22
f 193/244/120 192/246/121 191/247/120
f 184/232/25 193/248/25 187/249/25
f 196/250/122 193/248/122 195/251/122
f 184/232/117 197/252/123 195/251/123
f 196/250/117 197/252/123 198/253/117
s 0
f 181/230/17 199/254/12 197/252/17
f 197/252/10 200/255/12 198/253/19
s 1
f 204/104/124 199/254/125 178/229/124
f 201/256/11 200/255/11 199/254/11
f 201/256/126 199/254/126 202/257/126
s 0
f 206/258/10 202/257/12 205/259/10
s 1
f 201/256/127 203/260/127 252/261/127
s 0
f 205/259/19 204/104/12 207/262/85
s 1
f 209/263/128 205/259/128 208/264/128
f 210/265/128 205/259/128 207/262/128
f 209/263/90 211/266/90 212/267/90
f 208/264/89 213/268/89 211/266/89
f 211/269/88 215/270/88 212/271/88
f 213/272/87 214/273/87 211/269/87
f 214/274/128 216/275/128 217/276/128
f 213/272/129 217/277/129 216/278/129
f 220/279/95 217/277/96 219/280/96
f 221/281/92 220/282/93 219/283/92
f 221/281/130 213/268/130 210/265/130
f 221/281/128 224/284/128 222/285/128
f 210/265/128 223/286/128 221/281/128
s 0
f 223/286/17 225/97/12 224/284/19
f 207/262/19 75/98/12 223/286/19
s 1
f 209/263/128 224/284/128 206/258/128
s 0
f 224/284/10 203/260/12 206/258/19
s 1
f 226/70/131 203/260/132 225/97/133
f 226/70/134 225/97/134 52/68/134
s 0
f 229/287/19 226/70/12 228/288/34
f 228/288/10 49/63/12 230/289/82
s 1
f 231/290/135 229/287/135 228/288/135
f 231/290/135 230/289/135 233/291/135
f 231/290/107 235/292/107 232/293/107
f 231/290/106 236/294/106 234/295/106
f 235/296/105 237/297/105 238/298/105
f 236/299/104 237/297/104 234/300/104
f 238/301/135 237/302/135 239/303/135
f 236/299/136 240/304/136 239/305/136
f 243/306/111 240/304/111 242/307/111
f 244/308/137 236/294/137 233/291/137
f 245/309/109 242/310/109 244/308/109
f 244/308/135 230/289/135 246/311/135
f 244/308/135 247/312/135 245/309/135
s 0
f 230/289/10 248/62/12 246/311/19
f 246/311/57 249/313/57 247/312/57
s 1
f 21/30/138 249/313/138 248/62/139
f 21/30/140 248/62/140 26/31/140
s 0
f 247/312/19 227/314/12 229/287/10
s 1
f 227/314/141 251/315/141 252/261/141
f 250/316/142 251/315/142 249/313/142
s 0
f 255/317/10 251/315/11 254/318/19
f 254/318/19 253/319/12 256/320/19
s 1
f 251/315/143 299/321/143 253/319/143
f 257/322/144 255/317/144 254/318/144
f 259/323/144 254/318/144 256/320/144
f 258/324/70 260/325/70 261/326/70
f 259/323/71 260/325/71 257/322/71
f 260/327/145 264/328/67 261/329/67
f 260/327/68 265/330/68 263/331/68
f 266/332/144 267/333/144 264/334/144
f 268/335/146 265/330/77 262/336/77
f 268/335/76 267/337/76 266/338/76
f 259/323/73 268/339/73 262/340/73
f 271/341/74 268/339/74 270/342/74
f 259/323/144 272/343/147 270/342/147
f 271/341/144 272/343/147 273/344/144
s 0
f 256/320/19 274/345/12 272/343/17
f 272/343/19 201/256/12 273/344/19
s 1
f 274/345/148 277/346/148 275/347/148
f 274/345/149 275/347/149 200/255/149
s 0
f 279/348/19 275/347/12 278/349/19
s 1
f 276/198/150 200/255/150 275/347/150
s 0
f 278/349/17 277/346/12 280/350/82
s 1
f 282/351/151 278/349/151 281/352/151
f 283/353/151 278/349/151 280/350/151
f 282/351/44 284/354/44 285/355/44
f 281/352/152 286/356/152 284/354/152
f 284/357/42 288/358/42 285/359/42
f 286/360/153 287/361/153 284/357/153
f 291/362/151 288/363/151 287/364/151
f 286/360/51 290/365/51 289/366/51
f 293/367/49 290/365/50 292/368/50
f 294/369/48 286/356/48 283/353/48
f 294/369/46 293/370/47 292/371/46
f 283/353/151 296/372/151 294/369/151
f 294/369/151 297/373/151 295/374/151
s 0
f 280/350/10 298/375/12 296/372/10
f 296/372/19 151/195/12 297/373/10
s 1
f 22/28/154 277/346/154 299/321/154
s 0
f 298/375/12 22/28/12 150/193/12
s 1
f 282/351/151 297/373/151 279/348/151
s 0
f 297/373/19 276/198/12 279/348/10
s 1
f 282/351/45 293/370/45 295/374/45
f 293/367/43 288/358/43 291/376/43
f 299/321/155 277/346/156 253/319/155
s 0
f 300/4/19 250/316/11 4/5/19
f 19/26/19 299/321/12 300/4/19
s 1
f 16/23/2 300/4/2 2/3/2
f 276/198/157 153/199/157 177/377/157
f 271/341/144 255/317/144 258/324/144
s 0
f 273/344/19 252/261/12 255/317/82
s 1
f 271/341/158 261/326/159 269/378/158
f 261/329/160 267/337/161 269/379/161
f 227/314/162 252/261/162 203/260/162
s 0
f 4/5/57 21/30/57 18/8/57
s 1
f 245/309/135 229/287/135 232/293/135
f 245/309/108 235/292/108 243/380/108
f 235/296/110 241/381/110 243/306/110
f 209/263/91 220/282/91 222/285/91
f 220/279/94 215/270/94 218/382/94
f 204/104/163 178/229/163 77/102/163
s 0
f 198/253/10 177/377/12 180/227/34
s 1
f 196/250/117 180/227/117 183/233/117
f 196/250/29 186/235/30 194/383/29
f 186/238/32 192/246/33 194/384/33
f 172/221/136 162/204/136 170/385/136
f 162/208/137 168/386/137 170/218/137
f 128/164/164 103/136/164 154/200/164
s 0
f 148/191/19 23/32/12 130/166/19
s 1
f 133/169/86 148/191/86 130/166/86
f 146/188/129 136/172/129 144/387/129
f 136/174/130 142/184/130 144/388/130
f 122/156/66 106/137/66 124/161/66
f 122/156/160 112/389/161 109/140/161
f 112/390/158 118/154/159 115/145/158
f 104/133/165 74/96/166 78/100/166
s 0
f 80/103/10 100/226/11 98/129/10
s 1
f 96/126/19 80/103/19 98/129/19
f 96/126/6 86/108/6 83/107/6
f 86/112/8 92/122/8 89/391/8
s 0
f 72/94/17 51/65/12 54/66/82
s 1
f 70/93/41 54/66/41 57/74/41
f 57/74/153 68/90/153 70/93/153
f 68/87/152 63/79/152 66/392/152
s 0
f 46/59/10 25/35/12 28/33/19
s 1
f 44/56/20 28/33/21 31/40/21
f 44/56/120 34/39/120 42/393/120
f 34/43/122 40/54/122 42/394/167
f 16/23/56 6/2/56 14/395/56
f 6/9/55 12/396/55 14/19/55
f 1/1/1 5/7/1 6/2/1
f 1/1/2 2/3/2 300/4/2
f 3/6/3 7/22/3 5/7/3
f 1/1/2 4/5/2 18/8/2
f 6/9/4 5/13/4 8/10/4
f 7/12/5 10/18/5 8/10/5
f 9/16/2 8/397/2 10/398/2
f 10/398/2 11/14/2 9/16/2
f 13/17/6 11/20/6 10/18/6
f 14/19/7 12/396/7 11/20/7
f 3/6/8 15/24/8 13/21/8
f 16/23/9 14/395/9 13/21/9
f 3/6/2 18/8/2 17/25/2
f 16/23/2 15/24/2 17/25/2
s 0
f 18/8/12 21/30/19 20/27/19
f 17/25/12 20/27/19 22/28/19
s 1
f 24/29/168 20/27/169 21/30/170
s 0
f 23/32/171 150/193/12 22/28/172
f 28/33/12 25/35/85 24/29/19
s 1
f 25/35/173 127/165/173 23/32/173
s 0
f 27/34/11 24/29/19 26/31/19
s 1
f 30/37/20 31/40/21 28/33/21
f 30/37/20 27/34/20 29/36/20
f 30/37/22 33/42/22 34/39/22
f 30/37/23 32/38/23 35/41/23
f 34/43/24 33/47/25 36/44/25
f 35/46/26 38/52/26 36/44/26
f 37/50/20 36/399/20 38/400/20
f 38/400/20 39/48/20 37/50/20
f 35/46/27 41/53/28 39/51/28
f 41/53/29 42/394/30 40/54/30
f 43/55/31 41/57/31 35/41/31
f 44/56/32 42/393/32 41/57/33
f 32/38/20 29/36/20 45/58/20
f 44/56/20 43/55/20 45/58/20
s 0
f 29/36/12 26/31/19 47/60/10
f 45/58/12 47/60/19 48/61/19
s 1
f 47/60/35 26/31/174 248/62/35
f 48/61/175 47/60/175 50/64/175
s 0
f 54/66/12 51/65/34 50/64/10
f 53/67/12 50/64/19 52/68/10
s 1
f 226/70/176 52/68/176 50/64/176
f 56/71/41 57/74/41 54/66/41
f 56/71/41 53/67/41 55/69/41
f 56/71/42 59/76/42 60/73/42
f 56/71/43 58/72/43 61/75/43
f 60/77/44 59/81/44 62/78/44
f 61/80/45 64/86/45 62/78/45
f 66/401/41 63/83/41 65/82/41
f 63/83/41 62/402/41 64/84/41
f 61/80/46 67/88/47 65/85/47
f 68/87/48 66/392/48 65/85/48
f 69/89/49 67/91/49 61/75/50
f 69/89/51 70/93/51 68/90/51
f 69/89/41 58/72/41 55/69/41
f 70/93/41 69/89/41 71/92/41
s 0
f 55/69/11 52/68/19 73/95/17
f 71/92/12 73/95/19 74/96/19
s 1
f 73/95/177 52/68/177 225/97/177
s 0
f 74/96/178 73/95/12 76/99/179
f 79/101/12 76/99/19 77/102/19
f 76/99/11 75/98/180 204/104/181
f 81/105/12 78/100/10 76/99/10
s 1
f 82/106/19 79/101/19 80/103/19
f 82/106/19 84/111/19 81/105/19
f 82/106/7 83/107/7 86/108/7
f 82/106/55 85/109/55 87/110/55
f 86/112/9 89/391/9 88/113/9
f 85/114/56 88/113/56 90/115/56
f 88/403/19 89/404/19 90/119/19
f 89/404/19 92/117/19 90/119/19
f 87/116/1 90/115/1 91/120/1
f 93/121/3 91/120/3 92/122/3
f 95/124/5 93/127/5 94/125/5
f 95/124/4 84/111/4 87/110/4
f 96/126/19 98/129/19 97/128/19
f 95/124/19 97/128/19 81/105/19
s 0
f 98/129/57 100/226/57 99/130/57
f 97/128/12 99/130/10 78/100/10
s 1
f 99/130/58 100/226/182 175/131/58
f 99/130/183 102/134/183 104/133/183
s 0
f 105/135/12 102/134/10 103/136/19
s 1
f 101/132/63 154/200/184 103/136/64
s 0
f 107/138/11 104/133/19 102/134/17
s 1
f 108/139/66 105/135/66 106/137/66
f 110/141/66 107/138/66 105/135/66
f 109/140/67 112/389/67 111/142/67
f 110/141/68 108/139/68 111/142/68
f 111/144/69 112/390/70 115/145/70
f 111/144/71 114/146/71 116/147/71
f 114/151/66 115/405/66 117/149/66
f 115/405/66 118/406/66 117/149/66
f 119/152/72 113/148/73 116/147/73
f 119/152/74 117/153/74 118/154/75
f 122/156/76 121/159/76 119/157/76
f 110/141/77 113/143/77 119/157/77
f 122/156/66 124/161/66 123/160/78
f 110/141/66 121/159/78 123/160/78
s 0
f 124/161/12 126/163/19 125/162/10
f 123/160/12 125/162/85 104/133/17
s 1
f 48/61/185 125/162/185 126/163/185
f 104/133/186 125/162/186 51/65/186
s 0
f 106/137/12 103/136/10 126/163/10
s 1
f 128/164/187 127/165/187 126/163/187
s 0
f 130/166/12 23/32/19 127/165/17
f 129/167/12 127/165/82 128/164/19
s 1
f 133/169/86 130/166/86 129/167/86
f 134/171/86 132/170/86 129/167/86
f 132/170/87 135/173/87 136/172/87
f 134/171/88 137/187/88 135/173/88
f 136/174/89 135/177/89 138/175/89
f 135/177/90 137/183/90 140/178/90
f 140/407/86 141/408/86 138/181/86
f 141/408/86 142/179/86 138/181/86
f 143/182/91 141/185/91 140/178/91
f 143/182/92 144/388/93 142/184/93
f 134/171/94 145/189/94 143/186/94
f 146/188/95 144/387/95 143/186/96
f 134/171/86 131/168/86 147/190/86
f 146/188/86 145/189/86 147/190/86
s 0
f 131/168/12 128/164/10 149/192/19
f 147/190/11 149/192/10 150/193/19
s 1
f 128/164/188 154/200/188 152/194/188
s 0
f 151/195/189 298/375/11 150/193/189
f 156/196/12 153/199/10 152/194/19
s 1
f 276/198/100 151/195/190 152/194/101
s 0
f 155/197/12 152/194/19 154/200/10
s 1
f 158/202/103 159/205/103 156/196/103
f 158/202/103 155/197/103 157/201/103
f 158/202/104 161/207/104 162/204/104
f 158/202/105 160/203/105 163/206/105
f 162/208/106 161/212/106 164/209/106
f 163/211/107 166/217/107 164/209/107
f 168/409/103 165/214/103 167/213/103
f 165/214/103 164/410/103 166/215/103
f 163/211/108 169/219/108 167/216/108
f 170/218/109 168/386/109 167/216/109
f 171/220/110 169/222/110 163/206/110
f 172/221/111 170/385/111 169/222/111
f 171/220/103 160/203/103 157/201/103
f 171/220/103 173/223/103 174/224/103
s 0
f 157/201/11 154/200/19 101/132/10
f 173/223/57 101/132/57 175/131/57
s 1
f 172/221/103 174/224/103 156/196/103
s 0
f 174/224/11 175/131/10 153/199/19
s 1
f 176/225/112 177/377/191 153/199/112
s 0
f 180/227/12 177/377/19 176/225/10
f 179/228/11 176/225/19 178/229/19
s 1
f 77/102/192 178/229/192 176/225/192
f 182/231/117 183/233/117 180/227/117
f 184/232/117 182/231/117 179/228/117
f 183/233/28 182/231/28 185/234/28
f 184/232/26 187/249/26 185/234/26
f 185/236/118 188/240/118 189/237/31
f 185/236/23 187/245/23 190/239/23
f 190/411/117 191/242/117 188/241/117
f 191/242/117 192/412/117 189/243/117
f 193/244/119 191/247/119 190/239/22
f 193/244/120 194/384/121 192/246/121
f 184/232/25 195/251/25 193/248/25
f 196/250/122 194/383/122 193/248/122
f 184/232/117 181/230/117 197/252/123
f 196/250/117 195/251/123 197/252/123
s 0
f 181/230/12 178/229/85 199/254/19
f 197/252/12 199/254/19 200/255/19
s 1
f 204/104/193 202/257/193 199/254/193
f 201/256/11 274/345/11 200/255/11
s 0
f 206/258/12 203/260/82 202/257/19
s 1
f 201/256/194 202/257/194 203/260/194
s 0
f 205/259/12 202/257/19 204/104/17
s 1
f 209/263/128 206/258/128 205/259/128
f 210/265/128 208/264/128 205/259/128
f 209/263/90 208/264/90 211/266/90
f 208/264/89 210/265/89 213/268/89
f 211/269/88 214/273/88 215/270/88
f 213/272/87 216/278/87 214/273/87
f 217/276/128 218/413/128 214/274/128
f 218/413/128 215/414/128 214/274/128
f 213/272/129 219/280/129 217/277/129
f 220/279/95 218/382/95 217/277/96
f 221/281/92 222/285/93 220/282/93
f 221/281/130 219/283/130 213/268/130
f 221/281/128 223/286/128 224/284/128
f 210/265/128 207/262/128 223/286/128
s 0
f 223/286/11 75/98/10 225/97/19
f 207/262/12 204/104/10 75/98/10
s 1
f 209/263/128 222/285/128 224/284/128
s 0
f 224/284/12 225/97/10 203/260/19
s 1
f 226/70/131 227/314/195 203/260/132
s 0
f 229/287/12 227/314/19 226/70/10
f 228/288/12 226/70/10 49/63/19
s 1
f 231/290/135 232/293/135 229/287/135
f 231/290/135 228/288/135 230/289/135
f 231/290/107 234/295/107 235/292/107
f 231/290/106 233/291/106 236/294/106
f 235/296/105 234/300/105 237/297/105
f 236/299/104 239/305/104 237/297/104
f 239/303/135 240/415/135 241/416/135
f 241/416/135 238/301/135 239/303/135
f 236/299/136 242/307/136 240/304/136
f 243/306/111 241/381/111 240/304/111
f 244/308/137 242/310/137 236/294/137
f 245/309/109 243/380/109 242/310/109
f 244/308/135 233/291/135 230/289/135
f 244/308/135 246/311/135 247/312/135
s 0
f 230/289/11 49/63/10 248/62/19
f 246/311/57 248/62/57 249/313/57
s 1
f 21/30/138 250/316/196 249/313/138
s 0
f 247/312/11 249/313/19 227/314/10
s 1
f 227/314/197 249/313/197 251/315/197
s 0
f 255/317/12 252/261/10 251/315/19
f 254/318/11 251/315/19 253/319/17
s 1
f 251/315/198 250/316/198 299/321/198
f 257/322/144 258/324/144 255/317/144
f 259/323/144 257/322/144 254/318/144
f 258/324/70 257/322/70 260/325/70
f 259/323/71 262/340/71 260/325/71
f 260/327/145 263/331/145 264/328/67
f 260/327/68 262/336/68 265/330/68
f 264/334/144 263/417/144 266/332/144
f 263/417/144 265/418/144 266/332/144
f 268/335/146 266/338/146 265/330/77
f 268/335/76 269/379/199 267/337/76
f 259/323/73 270/342/73 268/339/73
f 271/341/74 269/378/74 268/339/74
f 259/323/144 256/320/144 272/343/147
f 271/341/144 270/342/147 272/343/147
s 0
f 256/320/12 253/319/85 274/345/17
f 272/343/12 274/345/19 201/256/10
s 1
f 274/345/200 253/319/200 277/346/200
s 0
f 279/348/12 276/198/34 275/347/10
s 1
f 276/198/201 177/377/201 200/255/201
s 0
f 278/349/12 275/347/17 277/346/19
s 1
f 282/351/151 279/348/151 278/349/151
f 283/353/151 281/352/151 278/349/151
f 282/351/44 281/352/44 284/354/44
f 281/352/152 283/353/152 286/356/152
f 284/357/42 287/361/42 288/358/42
f 286/360/153 289/366/153 287/361/153
f 289/419/151 290/420/151 287/364/151
f 290/420/151 291/362/151 287/364/151
f 286/360/51 292/368/51 290/365/51
f 293/367/49 291/376/49 290/365/50
f 294/369/48 292/371/48 286/356/48
f 294/369/46 295/374/47 293/370/47
f 283/353/151 280/350/151 296/372/151
f 294/369/151 296/372/151 297/373/151
s 0
f 280/350/12 277/346/19 298/375/19
f 296/372/11 298/375/19 151/195/17
f 22/28/11 298/375/202 277/346/203
s 1
f 282/351/151 295/374/151 297/373/151
s 0
f 297/373/12 151/195/19 276/198/10
s 1
f 282/351/45 285/355/45 293/370/45
f 293/367/43 285/359/43 288/358/43
s 0
f 300/4/12 299/321/10 250/316/10
f 19/26/12 22/28/10 299/321/10
s 1
f 16/23/2 19/26/2 300/4/2
f 271/341/144 273/344/144 255/317/144
s 0
f 273/344/12 201/256/10 252/261/10
s 1
f 271/341/158 258/324/159 261/326/159
f 261/329/160 264/328/160 267/337/161
s 0
f 4/5/57 250/316/57 21/30/57
s 1
f 245/309/135 247/312/135 229/287/135
f 245/309/108 232/293/108 235/292/108
f 235/296/110 238/298/110 241/381/110
f 209/263/91 212/267/91 220/282/91
f 220/279/94 212/271/94 215/270/94
s 0
f 198/253/12 200/255/19 177/377/19
s 1
f 196/250/117 198/253/117 180/227/117
f 196/250/29 183/233/30 186/235/30
f 186/238/32 189/237/32 192/246/33
f 172/221/136 159/205/136 162/204/136
f 162/208/137 165/210/137 168/386/137
s 0
f 148/191/12 150/193/10 23/32/10
s 1
f 133/169/86 146/188/86 148/191/86
f 146/188/129 133/169/129 136/172/129
f 136/174/130 139/176/130 142/184/130
f 122/156/66 109/140/66 106/137/66
f 122/156/160 120/158/160 112/389/161
f 112/390/158 120/155/159 118/154/159
s 0
f 80/103/12 77/102/19 100/226/19
s 1
f 96/126/19 83/107/19 80/103/19
f 96/126/6 94/125/6 86/108/6
f 86/112/8 94/123/8 92/122/8
s 0
f 72/94/12 74/96/17 51/65/19
s 1
f 70/93/41 72/94/41 54/66/41
f 57/74/153 60/73/153 68/90/153
f 68/87/152 60/77/152 63/79/152
s 0
f 46/59/12 48/61/19 25/35/19
s 1
f 44/56/20 46/59/20 28/33/21
f 44/56/120 31/40/120 34/39/120
f 34/43/122 37/45/122 40/54/122
f 16/23/56 2/3/56 6/2/56
f 6/9/55 9/11/55 12/396/55
