# Blender 5.2.2 LTS
# www.blender.org
mtllib finalBossHand_4.mtl
o 立方体.008
v -5.707140 -8.297430 5.480097
v -5.707164 -8.394272 5.461035
v -4.256501 -7.201800 3.777978
v -6.073807 -8.144564 5.529962
v -6.059214 -7.894748 5.509310
v -5.709084 -8.200363 5.470345
v -6.283323 -7.714666 5.612630
v -5.767272 -8.263441 5.117322
v -5.727380 -8.184193 5.089675
v -5.714414 -8.365709 5.058384
v -4.597713 -7.069800 3.551430
v -4.602894 -6.953558 3.568937
v -4.408827 -5.773930 2.355605
v -4.560119 -7.111454 3.483638
v -5.587296 -8.445345 4.916564
v -4.388852 -5.844862 2.271201
v -4.498584 -7.086418 3.376590
v -5.421941 -8.451927 4.713317
v -4.428121 -7.019909 3.247859
v -4.384034 -5.861129 2.148462
v -4.392125 -5.832894 2.003552
v -5.618949 -4.175913 1.011338
v -5.624672 -4.164389 0.880675
v -6.494696 -1.270156 -0.828916
v -6.456600 -1.392893 -0.944819
v -5.640553 -4.114296 0.741818
v -6.417485 -1.499625 -1.047949
v -5.662057 -4.030730 0.600547
v -4.411377 -5.767826 1.848395
v -4.358442 -6.928521 3.108701
v -4.563123 -5.483726 1.480018
v -4.253682 -6.700016 2.819258
v -4.422416 -7.400528 3.289536
v -4.202658 -6.266452 2.315818
v -5.006376 -8.050571 4.124727
v -4.737487 -7.832481 3.825711
v -5.014997 -8.188692 4.215552
v -5.248845 -8.362841 4.477205
v -5.291569 -8.520836 4.662374
v -5.546259 -8.589846 5.016373
v -5.434265 -8.636530 4.995699
v -5.247894 -8.554230 4.686246
v -4.243264 -7.198847 3.377367
v -4.996302 -8.231100 4.255136
v -4.215077 -7.062726 3.206095
v -4.168342 -5.730908 1.823748
v -4.159377 -6.839272 2.965292
v -4.072218 -5.774347 1.973972
v -5.184636 -4.010443 0.804538
v -5.279909 -4.024500 0.693007
v -3.991227 -5.766243 2.103158
v -4.258593 -7.289920 3.531960
v -3.935901 -5.705208 2.198570
v -5.114700 -3.956394 0.904531
v -5.078076 -3.881528 0.996578
v -5.652768 -1.293179 -0.530166
v -5.701392 -1.383766 -0.683478
v -5.560081 3.444702 -2.391383
v -5.783557 -1.483707 -0.829855
v -5.486273 3.499056 -2.253091
v -5.446843 3.520952 -2.108671
v -5.345398 6.626012 -3.344322
v -5.395994 6.428899 -3.372670
v -6.089455 8.496818 -5.658210
v -6.068764 8.268837 -5.368577
v -5.453992 6.141891 -3.350782
v -5.654059 3.351575 -2.511410
v -6.029930 7.990522 -5.045730
v -5.510523 5.826104 -3.302590
v -5.941245 7.604961 -4.656583
v -5.546142 5.447467 -3.217797
v -5.747643 3.241456 -2.606763
v -5.976785 -1.649976 -1.081442
v -5.812935 3.092774 -2.673243
v -5.881745 -1.581638 -0.962364
v -5.386158 -3.989328 0.571909
v -4.288561 -5.569898 1.597356
v -5.502339 -3.832549 0.393470
v -6.034559 -1.640030 -1.214938
v -4.706320 -4.980258 1.057624
v -5.698153 -3.410067 0.047528
v -4.953483 -4.615937 0.879626
v -5.816248 -3.172293 -0.151229
v -6.101273 -1.277734 -1.525789
v -5.856443 3.052167 -2.777044
v -6.160493 -1.098736 -1.694330
v -5.968351 2.978937 -2.847305
v -5.905796 3.005331 -2.836810
v -6.228147 -1.174673 -1.676487
v -5.920758 -3.086231 -0.166451
v -5.852163 -3.222572 -0.129380
v -6.287519 -0.827363 -1.772975
v -6.323557 -1.518293 -1.343004
v -5.979646 3.208020 -2.862957
v -6.039614 3.169196 -2.767156
v -5.693227 5.055031 -3.183639
v -5.721064 5.287249 -3.206897
v -6.065396 3.374837 -2.688450
v -6.376813 -1.567697 -1.144654
v -5.735823 -3.773020 0.323564
v -4.969591 -4.661172 1.045118
v -4.970409 -4.668396 0.918298
v -4.174657 -6.303435 2.316624
v -4.144190 -6.292496 2.311548
v -4.372894 -7.445504 3.293382
v -4.116526 -6.484078 2.562345
v -4.704041 -7.824190 3.810118
v -4.399597 -7.433646 3.281193
v -5.754608 5.688092 -3.276269
v -6.080980 3.529089 -2.630774
v -5.783345 5.948309 -3.318524
v -6.092303 3.708821 -2.562390
v -6.105192 3.877295 -2.477967
v -5.814667 6.217588 -3.354277
v -5.846440 6.448994 -3.362597
v -6.457676 8.223982 -5.206842
v -6.340768 7.996312 -4.997157
v -6.135356 7.949944 -5.013789
v -6.227337 7.755092 -4.784837
v -6.260954 8.264875 -5.401198
v -6.395481 8.542606 -5.796607
v -6.077686 8.677391 -5.852512
v -6.042304 8.832162 -5.939651
v -6.535701 8.426860 -5.348251
v -6.483879 8.776417 -6.146851
v -6.575989 8.582076 -5.396708
v -6.020806 8.971096 -5.957988
v -6.563007 8.969424 -6.472256
v -6.498657 9.084007 -6.173266
v -6.437455 9.110476 -5.795345
v -6.043427 9.091759 -5.942890
v -6.563841 8.665258 -5.313084
v -5.872861 6.575809 -3.311460
v -5.888878 6.549295 -3.183290
v -6.494267 8.670496 -5.092474
v -6.304590 9.020286 -5.266003
v -6.402550 8.589561 -4.786695
v -5.896688 6.405783 -3.006649
v -5.900874 6.207935 -2.818579
v -6.211601 3.855142 -2.068637
v -6.166816 3.954830 -2.222568
v -6.128677 3.970952 -2.364356
v -6.567725 -1.080351 -0.544120
v -6.532154 -1.159071 -0.693940
v -5.661784 -4.051448 1.206927
v -5.629993 -4.139698 1.124124
v -4.444058 -5.648863 2.390301
v -4.488816 -5.491518 2.386137
v -4.582102 -6.779748 3.538692
v -4.549513 -6.577853 3.474810
v -5.490664 -8.041771 4.875619
v -5.622914 -8.120548 5.000399
v -5.824663 -8.017485 5.345474
v -5.595203 -8.047764 5.134045
v -5.393112 -7.975279 4.904882
v -5.616734 -8.085701 5.310361
v -5.496212 -8.051815 5.144155
v -4.382266 -6.648426 3.676153
v -4.363331 -6.859307 3.775426
v -5.354549 -7.976493 4.941612
v -5.170892 -7.745504 4.612490
v -5.158211 -7.780832 4.662556
v -4.390248 -6.406651 3.532700
v -4.253399 -5.130323 2.406080
v -4.375042 -5.005992 2.358242
v -4.366818 -6.086165 3.320565
v -4.699233 -6.925296 4.012077
v -4.510691 -4.806242 2.254133
v -4.368832 -5.616476 2.938741
v -4.911427 -4.317053 1.948118
v -4.606521 -6.558092 3.777575
v -4.404550 -5.417909 2.767886
v -4.433535 -5.440278 2.770689
v -5.235604 -3.991579 1.773468
v -5.206637 -3.943330 1.761698
v -5.929308 -2.742303 1.064250
v -6.067671 -2.450833 0.931243
v -6.102659 -2.505644 0.943996
v -5.300157 -3.946845 1.698338
v -6.635579 -0.165876 -0.071739
v -6.156368 -2.414033 0.833247
v -6.671607 0.095746 -0.265616
v -6.648819 -0.679518 -0.069224
v -5.932646 -3.206522 1.190217
v -4.769810 -4.790760 2.155110
v -5.813196 -3.593722 1.278123
v -6.629739 -0.906698 -0.155910
v -6.618681 -0.973825 -0.262490
v -6.278861 3.660285 -1.808811
v -6.312874 3.544807 -1.642868
v -5.911825 5.667110 -2.389245
v -5.915043 5.479840 -2.230012
v -6.296216 3.637108 -1.554667
v -5.910417 5.267944 -2.100949
v -6.306468 3.453801 -1.451838
v -6.569793 -0.091453 -0.072191
v -6.244777 3.478125 -1.428295
v -5.866074 5.335596 -2.104796
v -6.172081 3.489286 -1.456728
v -5.806864 5.544820 -2.206382
v -6.087518 3.471544 -1.516684
v -6.480338 -0.324471 -0.013745
v -6.360535 -0.784967 0.095987
v -5.698465 -3.259521 1.288486
v -6.260866 -0.898706 0.069406
v -6.121275 -0.946853 0.018772
v -5.555232 -3.491561 1.360645
v -5.987443 3.564122 -1.586980
v -5.856215 3.618189 -1.640874
v -5.737890 5.836367 -2.375643
v -5.677282 6.184961 -2.566730
v -5.594291 6.457401 -2.726570
v -6.108840 8.875513 -4.756656
v -6.063004 8.443038 -4.182106
v -6.132999 8.326479 -4.110088
v -6.033663 7.834950 -3.602385
v -6.068046 7.808324 -3.604711
v -6.198982 7.998190 -3.891061
v -6.111629 7.482163 -3.420464
v -6.028201 7.343537 -3.257694
v -6.053127 7.239766 -3.216842
v -6.317139 8.433417 -4.459661
v -5.902750 6.002748 -2.643875
v -6.250857 3.751349 -1.929687
v -6.597416 -1.025779 -0.395497
v -5.707690 -3.923500 1.257928
v -5.759948 -3.768449 1.280926
v -4.538346 -5.321640 2.358614
v -4.589722 -5.150559 2.316685
v -4.461846 -5.972756 3.157873
v -4.514044 -6.367997 3.387275
v -5.355749 -7.930959 4.735754
v -5.082116 -7.543253 4.387830
v -4.727250 -6.937688 4.007298
v -4.642421 -6.580142 3.732044
v -4.633777 -6.553996 3.758168
v -4.443895 -5.466963 2.743527
v -6.215679 8.775938 -4.726194
v -6.114183 9.105588 -5.215597
v -6.109293 9.200909 -5.603662
v -5.505082 6.683297 -2.882962
v -5.419890 6.803385 -3.006963
v -5.593699 3.637093 -1.779405
v -5.717406 3.648663 -1.705130
v -5.970122 -0.989024 -0.056620
v -5.828880 -1.045455 -0.149463
v -5.717377 -1.121502 -0.257472
v -5.294141 -3.683119 1.334754
v -5.189264 -3.732160 1.270546
v -5.115818 -3.767581 1.183420
v -4.136601 -5.243834 2.428824
v -4.037127 -5.338859 2.417345
v -4.328246 -7.013608 3.817312
v -3.963277 -5.419224 2.374382
v -4.286826 -7.120779 3.812711
v -3.920314 -5.503660 2.317736
v -5.077963 -3.812353 1.088249
v -3.911527 -5.607126 2.263777
v -5.654474 -1.207453 -0.383954
v -5.450335 3.543087 -1.975364
v -5.501265 3.590827 -1.866994
v -5.350338 6.814668 -3.095253
v -6.083667 9.179734 -5.845252
v -5.311125 6.772528 -3.174695
v -5.312583 6.724265 -3.267453
v -4.257018 -7.311250 3.648498
v -4.250723 -7.273098 3.726562
v -5.680118 -8.497810 5.392128
v -5.589993 -8.597446 5.241099
v -5.819750 -8.458557 5.323820
v -5.688178 -8.125265 5.418818
v -5.421374 -3.604780 1.365910
v -6.004271 7.519423 -4.607516
v -6.058505 7.305986 -4.436051
v -5.895816 7.100611 -4.298809
v -5.927065 6.883016 -4.167071
v -5.826071 6.754609 -4.091911
v -5.851767 6.660723 -4.045291
v -5.627512 4.893341 -3.139835
v -5.672290 4.830628 -3.127819
v -5.585499 5.118805 -3.172721
v -5.861657 7.116664 -4.299459
vn -0.0528 0.1929 -0.9798
vn -0.7920 0.1181 -0.5990
vn -0.7316 -0.0827 -0.6767
vn -0.0690 0.1558 -0.9854
vn -0.6713 -0.5510 -0.4958
vn -0.1975 -0.1019 -0.9750
vn 0.8059 0.2939 0.5140
vn -0.4469 -0.7933 0.4133
vn 0.8115 0.0863 0.5780
vn 0.7303 -0.1339 0.6699
vn 0.8593 -0.2842 0.4252
vn 0.7828 0.0470 0.6205
vn 0.8216 -0.0489 0.5679
vn 0.8404 -0.1063 0.5314
vn 0.9845 0.0176 0.1746
vn 0.9041 0.2111 0.3716
vn 0.9805 0.0496 0.1903
vn 0.8706 -0.1774 0.4590
vn 0.7667 0.0922 0.6354
vn 0.7504 0.4013 0.5252
vn 0.9978 -0.0477 0.0455
vn 0.7740 0.0902 0.6268
vn 0.8976 -0.2549 0.3596
vn 0.5810 0.5485 0.6014
vn 0.9909 -0.1106 -0.0769
vn 0.7758 0.6260 0.0787
vn 0.8196 0.5712 -0.0435
vn 0.8007 0.5987 0.0177
vn 0.9603 0.2783 -0.0175
vn 0.9567 0.2912 0.0061
vn 0.7445 0.6506 0.1496
vn 0.9591 0.2829 -0.0077
vn 0.7234 0.6641 0.1887
vn 0.9502 0.3092 0.0392
vn 0.9504 0.3086 0.0383
vn 0.9500 0.3096 0.0399
vn 0.9506 0.3082 0.0376
vn 0.6518 0.6921 0.3102
vn 0.7058 0.6711 0.2268
vn 0.2344 0.7200 0.6532
vn 0.9695 -0.1587 -0.1868
vn 0.4569 -0.6034 -0.6536
vn 0.7302 -0.6395 -0.2406
vn 0.1058 0.7482 0.6550
vn 0.9013 -0.3693 -0.2267
vn 0.6485 0.3104 0.6950
vn 0.1747 0.7141 0.6779
vn 0.4601 0.4676 0.7548
vn 0.4898 0.4575 0.7422
vn 0.7357 0.1690 0.6559
vn 0.9095 -0.3484 0.2266
vn 0.7911 0.0725 0.6073
vn 0.5428 0.5729 0.6141
vn 0.2041 0.7210 0.6623
vn 0.2017 0.7222 0.6617
vn 0.1957 0.7251 0.6602
vn 0.4130 0.7910 0.4514
vn 0.5490 0.6526 0.5222
vn 0.3784 0.8123 0.4439
vn 0.1943 0.7259 0.6598
vn -0.8628 0.1853 -0.4703
vn -0.3071 0.7690 0.5606
vn 0.2181 0.7156 0.6636
vn -0.8912 0.3942 -0.2246
vn -0.1280 -0.7121 -0.6904
vn -0.5912 0.5907 0.5491
vn -0.2665 0.7365 0.6218
vn -0.9370 -0.1816 -0.2985
vn -0.7568 -0.0449 0.6521
vn -0.8299 -0.1713 0.5310
vn -0.7406 0.5146 0.4321
vn -0.8479 -0.2385 0.4736
vn -0.9834 0.1813 0.0093
vn -0.8813 0.3962 0.2576
vn -0.8169 -0.1358 0.5606
vn -0.7920 -0.0919 0.6036
vn -0.8436 -0.1999 0.4983
vn -0.9313 0.0080 0.3641
vn -0.9491 -0.0224 0.3143
vn -0.8440 0.1289 0.5206
vn -0.8956 0.1714 0.4106
vn -0.8954 0.1718 0.4109
vn -0.8952 0.1827 0.4065
vn -0.9040 0.1659 0.3942
vn -0.8911 0.0779 0.4470
vn -0.9628 0.1204 0.2419
vn -0.9635 0.1204 0.2390
vn -0.9645 0.1183 0.2360
vn -0.9611 0.1282 0.2448
vn -0.9613 0.1284 0.2438
vn -0.9045 0.1763 0.3884
vn -0.8954 0.1828 0.4061
vn 0.3758 0.7410 0.5564
vn -0.8908 0.1679 0.4222
vn -0.8522 0.2088 0.4797
vn -0.8443 0.2087 0.4935
vn -0.8452 0.2083 0.4922
vn -0.8431 0.2094 0.4954
vn -0.8422 0.2098 0.4967
vn -0.7886 0.2283 0.5710
vn 0.6425 0.6169 0.4545
vn -0.8196 0.2270 0.5261
vn 0.9621 0.2687 0.0470
vn -0.8315 0.1947 0.5204
vn -0.8085 0.2114 0.5493
vn -0.8112 0.2203 0.5417
vn -0.8108 0.2189 0.5429
vn -0.9932 0.1049 0.0511
vn -0.8080 0.2101 0.5504
vn -0.8190 0.2054 0.5358
vn -0.8736 0.1817 0.4515
vn -0.8835 0.1982 0.4244
vn -0.8511 0.1926 0.4883
vn -0.6750 0.2926 0.6773
vn -0.8167 0.1811 0.5479
vn -0.8430 0.1436 0.5185
vn -0.8372 -0.5439 0.0577
vn -0.8424 -0.5329 0.0802
vn -0.7595 -0.0659 0.6472
vn -0.6222 0.3409 0.7047
vn -0.8310 -0.5550 0.0368
vn -0.9134 0.0722 0.4007
vn -0.3093 0.5125 0.8010
vn -0.5364 -0.6694 -0.5139
vn -0.5679 -0.6754 -0.4705
vn 0.7509 0.6203 0.2269
vn -0.9760 -0.2139 -0.0399
vn -0.2552 0.5424 0.8005
vn -0.8438 0.1925 0.5009
vn -0.9314 0.1487 0.3322
vn -0.9100 0.1604 0.3823
vn -0.7246 0.3299 0.6050
vn -0.3724 0.5135 0.7731
vn -0.0544 0.2741 0.9602
vn -0.2704 0.2737 0.9230
vn -0.8264 0.1980 0.5272
vn -0.8264 0.1990 0.5267
vn -0.8274 0.2049 0.5229
vn 0.9846 0.1737 0.0195
vn 0.7249 0.4950 0.4790
vn -0.2822 0.5447 0.7897
vn 0.0168 0.2703 0.9626
vn 0.9973 -0.0684 -0.0264
vn -0.3290 0.5112 0.7940
vn 0.8464 0.0777 0.5268
vn 0.8284 0.0863 0.5535
vn 0.8545 -0.0426 0.5176
vn 0.3660 0.1361 0.9206
vn 0.9050 -0.0483 0.4227
vn 0.9648 0.0212 0.2623
vn 0.9644 0.0216 0.2635
vn 0.9650 0.0209 0.2615
vn 0.9642 0.0219 0.2643
vn 0.9226 0.3621 0.1332
vn 0.9332 0.0523 0.3557
vn 0.8210 0.4620 0.3355
vn 0.9583 0.2854 0.0103
vn 0.5091 0.6936 0.5097
vn -0.8540 -0.4344 -0.2865
vn -0.1373 0.5505 0.8234
vn -0.6058 0.1168 0.7870
vn 0.8641 0.5022 -0.0342
vn 0.9108 0.4119 -0.0293
vn -0.8833 -0.4656 -0.0551
vn 0.8974 0.4020 -0.1819
vn -0.0931 0.6206 0.7786
vn 0.7694 0.5880 0.2497
vn -0.1135 0.6130 0.7819
vn 0.0109 0.5911 0.8065
vn -0.6651 0.5562 0.4982
vn -0.1117 0.6570 0.7456
vn -0.5702 -0.6819 -0.4580
vn 0.6788 0.6381 0.3635
vn -0.6651 -0.3314 -0.6691
vn -0.3772 0.7143 0.5895
vn -0.1690 -0.7304 -0.6618
vn 0.1778 0.7300 0.6599
vn -0.8184 -0.0392 -0.5733
vn 0.1718 0.6682 0.7238
vn 0.1029 0.7697 0.6300
vn -0.0537 0.6544 0.7542
vn 0.4455 0.5509 0.7057
vn 0.5357 0.5339 -0.6542
vn 0.7289 0.3547 0.5856
vn 0.5869 0.4590 0.6670
vn 0.9715 0.0096 0.2369
vn 0.3422 0.1880 0.9206
vn 0.9358 -0.0366 0.3507
vn 0.9466 0.0375 0.3203
vn 0.4543 0.1914 0.8700
vn 0.9622 -0.0418 0.2693
vn 0.9819 -0.0101 0.1892
vn 0.9569 0.0235 0.2896
vn 0.9831 -0.0160 0.1821
vn 0.9741 -0.0373 0.2232
vn 0.6178 0.1737 0.7669
vn 0.9715 0.1262 -0.2005
vn 0.7848 0.1295 0.6061
vn 0.0088 0.6799 0.7333
vn 0.9718 0.0838 -0.2205
vn -0.2390 0.5758 0.7819
vn 0.2246 0.7905 0.5698
vn 0.2046 0.7033 0.6808
vn 0.2132 0.7001 0.6815
vn 0.2111 0.7009 0.6813
vn 0.4034 0.7233 0.5605
vn -0.1554 0.7827 0.6027
vn -0.1211 0.7758 0.6193
vn -0.1258 0.7494 0.6500
vn 0.3003 0.8256 0.4777
vn -0.0601 0.5001 0.8639
vn -0.1909 0.7248 0.6620
vn -0.3638 0.7297 0.5789
vn 0.7469 0.5488 0.3753
vn 0.5461 0.7538 0.3654
vn 0.9334 0.3025 0.1930
vn -0.4365 0.1838 0.8807
vn 0.6502 0.7123 0.2644
vn -0.5030 0.6842 0.5281
vn 0.9521 -0.2911 -0.0934
vn -0.3779 -0.8345 0.4011
vn -0.0200 -0.9971 0.0731
vn 0.9130 -0.3898 -0.1206
vn -0.4405 -0.1923 0.8769
vn 0.9890 -0.1476 0.0031
vn 0.9674 0.0949 -0.2349
vn 0.8532 0.4793 0.2058
vn 0.9537 0.0014 -0.3008
vn 0.8269 -0.5043 -0.2488
vn 0.7736 -0.5634 -0.2902
vn 0.7267 -0.5781 -0.3710
vn 0.9566 -0.0157 -0.2911
vn 0.5330 0.6450 0.5476
vn 0.3638 0.6377 0.6790
vn 0.9685 -0.1821 -0.1700
vn 0.9635 -0.0208 0.2668
vn 0.9899 -0.1285 -0.0606
vn 0.9562 0.0212 0.2919
vn 0.9654 0.0090 0.2607
vn 0.9659 -0.0076 0.2589
vn 0.9729 -0.0004 0.2312
vn 0.9656 0.0101 0.2597
vn 0.9778 -0.0087 0.2093
vn 0.9457 0.3205 0.0546
vn 0.9454 0.3211 0.0557
vn 0.9461 0.3196 0.0528
vn 0.9503 0.3092 0.0353
vn 0.9570 0.2900 0.0006
vn 0.9540 0.2992 0.0185
vn 0.8517 0.4827 -0.2041
vn 0.8545 0.3478 -0.3859
vn 0.8453 0.4944 -0.2024
vn 0.8338 0.5442 -0.0931
vn 0.9318 0.1742 0.3184
vn 0.9930 -0.1183 0.0029
vn 0.8115 0.2165 -0.5428
vn 0.8922 0.2635 0.3667
vn 0.9677 -0.2033 -0.1489
vn 0.8128 0.0041 0.5825
vn 0.7978 0.0610 0.5998
vn -0.4145 -0.5042 -0.7576
vn -0.1582 -0.7071 -0.6892
vn 0.7238 -0.4189 0.5483
vn 0.2696 -0.8681 0.4169
vn 0.6586 -0.7097 0.2500
vn 0.5139 -0.8369 0.1885
vn -0.0075 -0.9515 -0.3076
vn -0.3388 -0.9105 -0.2373
vn -0.0183 -0.9770 -0.2124
vn 0.1852 -0.9563 -0.2261
vn 0.8310 -0.0845 0.5498
vn -0.4988 -0.4054 -0.7661
vn 0.8151 -0.1253 0.5655
vn 0.3523 -0.8471 -0.3979
vn -0.0038 -0.8175 -0.5759
vn 0.8048 0.0373 0.5924
vn -0.3725 -0.4826 -0.7927
vn -0.8646 -0.2772 -0.4190
vn -0.3323 -0.6039 -0.7245
vn -0.9060 0.2776 0.3194
vn -0.2680 -0.5181 -0.8123
vn -0.3053 0.6747 0.6720
vn -0.0216 -0.6307 -0.7757
vn -0.3795 -0.6170 -0.6894
vn -0.1440 0.6238 0.7682
vn -0.2449 -0.6504 -0.7190
vn 0.2886 0.6538 0.6995
vn -0.0529 -0.6568 -0.7522
vn -0.9695 0.2449 0.0002
vn -0.4507 -0.6573 -0.6040
vn 0.4321 -0.6396 -0.6358
vn 0.2608 -0.4452 -0.8566
vn 0.3272 -0.4047 -0.8539
vn -0.3157 -0.6114 -0.7256
vn -0.6997 -0.0061 0.7144
vn 0.2396 -0.3629 -0.9005
vn 0.2391 -0.3632 -0.9005
vn 0.2399 -0.3627 -0.9005
vn 0.7877 0.1226 -0.6038
vn 0.2124 -0.3480 -0.9131
vn 0.8813 0.4709 -0.0378
vn 0.9073 0.0244 -0.4198
vn 0.7154 -0.1517 -0.6820
vn 0.9360 0.2835 0.2086
vn 0.9647 0.2623 -0.0222
vn 0.3643 -0.2950 -0.8833
vn 0.5368 -0.1150 -0.8358
vn 0.6676 0.0371 -0.7436
vn 0.9545 0.2977 0.0144
vn 0.9621 0.1640 -0.2180
vn 0.9638 0.2591 -0.0632
vn 0.9919 -0.0317 0.1229
vn 0.9801 -0.0035 0.1985
vn 0.9773 0.0012 0.2119
vn 0.9073 -0.2814 -0.3126
vn 0.9837 -0.1522 0.0957
vn 0.9805 -0.1956 0.0196
vn 0.9905 -0.1253 -0.0559
vn 0.7249 0.1891 0.6624
vn 0.9517 -0.1890 -0.2419
vn 0.7268 -0.3665 -0.5809
vn 0.6752 -0.3729 -0.6364
vn 0.4518 -0.3525 -0.8196
vn 0.3993 -0.3581 -0.8440
vn 0.8125 -0.2707 -0.5163
vn 0.4579 -0.3864 -0.8006
vn -0.3151 -0.2674 -0.9106
vn 0.5195 -0.3839 -0.7634
vn 0.5263 -0.3880 -0.7566
vn 0.5215 -0.3851 -0.7614
vn -0.3036 -0.3141 -0.8995
vn -0.7496 -0.1051 -0.6534
vn -0.5938 -0.1805 -0.7841
vn -0.5945 -0.2421 -0.7668
vn -0.2503 -0.3248 -0.9120
vn -0.6512 -0.4101 -0.6385
vn 0.0389 -0.3995 -0.9159
vn -0.9481 -0.2818 -0.1473
vn -0.3786 -0.3066 -0.8733
vn -0.6769 -0.4586 -0.5758
vn -0.2303 -0.4718 -0.8511
vn -0.5252 -0.2718 -0.8064
vn -0.4140 -0.2943 -0.8614
vn -0.4419 -0.4934 -0.7492
vn -0.4144 -0.4936 -0.7647
vn -0.3383 -0.3092 -0.8888
vn -0.2448 -0.3187 -0.9157
vn -0.2471 -0.3143 -0.9166
vn -0.2452 -0.3180 -0.9158
vn -0.2474 -0.3135 -0.9168
vn -0.9528 -0.0007 -0.3035
vn -0.3766 -0.2666 -0.8872
vn -0.6783 -0.2070 -0.7050
vn 0.3663 -0.5514 -0.7496
vn -0.9659 -0.2381 -0.1021
vn 0.3793 -0.4946 -0.7820
vn 0.5373 -0.6527 -0.5342
vn 0.3417 -0.6339 -0.6938
vn -0.9151 -0.3004 -0.2688
vn 0.4971 -0.5861 -0.6399
vn 0.5827 -0.5288 -0.6171
vn 0.6813 -0.4269 -0.5946
vn 0.5659 -0.4615 -0.6832
vn 0.4453 -0.5108 -0.7353
vn 0.6195 -0.4119 -0.6683
vn 0.4452 -0.4186 -0.7916
vn 0.2084 -0.4743 -0.8553
vn -0.6479 -0.4422 -0.6202
vn 0.5861 0.4307 0.6862
vn 0.8446 -0.2099 -0.4926
vn 0.5280 -0.3890 -0.7549
vn 0.8646 0.3168 0.3900
vn 0.9854 0.0121 -0.1697
vn 0.5224 0.5064 0.6861
vn 0.9835 0.0350 -0.1776
vn 0.7022 -0.4874 -0.5190
vn 0.4056 0.5904 0.6978
vn 0.9398 -0.2265 -0.2559
vn 0.9833 -0.1048 0.1488
vn 0.9175 -0.2559 -0.3046
vn 0.9861 -0.0186 0.1649
vn 0.9733 0.0052 0.2294
vn 0.9707 -0.0535 0.2343
vn 0.9575 0.0229 0.2876
vn 0.9422 0.3280 0.0678
vn 0.9499 0.3106 0.0336
vn 0.9486 0.3139 0.0396
vn 0.9492 0.3126 0.0372
vn 0.9505 0.3093 0.0312
vn 0.9799 -0.0092 0.1991
vn 0.9566 0.2914 -0.0045
vn 0.7828 0.2293 -0.5785
vn 0.8282 0.3447 -0.4420
vn 0.6781 0.0236 -0.7346
vn 0.8788 0.3448 0.3299
vn 0.7712 -0.3927 -0.5010
vn 0.7152 0.5510 0.4299
vn 0.6063 -0.0529 -0.7935
vn 0.9084 -0.2822 -0.3085
vn 0.7628 0.1349 0.6325
vn -0.1633 -0.5926 -0.7888
vn 0.5711 0.3544 0.7405
vn 0.7675 -0.5968 -0.2340
vn 0.4115 -0.7522 -0.5146
vn 0.2931 -0.6259 -0.7227
vn 0.6878 -0.5961 -0.4142
vn 0.7859 -0.4833 -0.3856
vn 0.5533 0.4901 -0.6736
vn 0.9671 -0.2425 -0.0773
vn 0.9585 -0.2647 -0.1056
vn 0.3517 0.5857 0.7302
vn 0.8655 0.1503 -0.4778
vn 0.7477 -0.0348 -0.6631
vn 0.0759 -0.6335 -0.7700
vn 0.7153 0.6220 0.3185
vn 0.3721 -0.6523 -0.6603
vn 0.4341 -0.6806 -0.5902
vn 0.4053 -0.6811 -0.6098
vn 0.3751 -0.5643 -0.7354
vn -0.4123 -0.4775 -0.7759
vn 0.5784 -0.8113 -0.0848
vn 0.6965 -0.7168 -0.0340
vn 0.7491 0.1127 -0.6528
vn 0.8772 0.3145 0.3628
vn 0.8457 0.4296 -0.3166
vn 0.9464 0.3190 0.0516
vn 0.6998 -0.5561 -0.4483
vn 0.6305 -0.5843 -0.5109
vn 0.9665 -0.0083 -0.2564
vn 0.7114 -0.5888 -0.3837
vn 0.4614 -0.7772 -0.4278
vn 0.4741 -0.6798 -0.5596
vn 0.5737 -0.7295 -0.3724
vn 0.4453 -0.8708 -0.2083
vn -0.9413 -0.3250 -0.0917
vn 0.3029 -0.6204 -0.7234
vn -0.9326 -0.3269 -0.1530
vn -0.6828 -0.2312 -0.6930
vn 0.0346 -0.7297 -0.6829
vn -0.5134 -0.2791 -0.8115
vn -0.6652 -0.2293 -0.7106
vn -0.3460 -0.2984 -0.8895
vn -0.3435 -0.3065 -0.8877
vn -0.3432 -0.3077 -0.8874
vn -0.3465 -0.2974 -0.8897
vn -0.5983 -0.2392 -0.7647
vn -0.5149 -0.2586 -0.8173
vn -0.7636 -0.4342 -0.4779
vn -0.7617 -0.4351 -0.4801
vn -0.7665 -0.4328 -0.4745
vn -0.7460 -0.1852 -0.6397
vn -0.6084 -0.4792 -0.6326
vn -0.6077 -0.4795 -0.6331
vn -0.6096 -0.4790 -0.6317
vn -0.6103 -0.4788 -0.6311
vn -0.7684 -0.4318 -0.4722
vn -0.6700 -0.6849 -0.2864
vn -0.6813 -0.6807 -0.2692
vn -0.5780 -0.7103 -0.4017
vn -0.7711 -0.3241 -0.5481
vn -0.7296 -0.3595 -0.5817
vn -0.7644 -0.6305 -0.1346
vn -0.5463 -0.4898 -0.6795
vn -0.8032 -0.2880 -0.5214
vn -0.8050 -0.5918 -0.0418
vn -0.8936 -0.1783 -0.4120
vn -0.8551 -0.5072 0.1075
vn -0.8629 -0.2894 0.4144
vn -0.8781 -0.3814 0.2889
vn -0.9816 -0.1518 0.1158
vn -0.9214 -0.3247 -0.2137
vn -0.9821 -0.1671 0.0865
vn -0.9990 0.0325 -0.0312
vn -0.9990 0.0323 -0.0311
vn -0.9990 0.0326 -0.0308
vn -0.9148 -0.3326 -0.2289
vn -0.9990 0.0316 -0.0314
vn -0.9158 -0.0916 -0.3911
vn -0.9154 -0.0919 -0.3919
vn -0.9161 -0.0914 -0.3903
vn -0.9151 -0.0921 -0.3925
vn -0.9141 -0.1060 -0.3914
vn -0.9170 -0.1038 -0.3852
vn -0.9158 -0.1047 -0.3877
vn -0.7241 -0.1930 -0.6622
vn -0.7567 -0.2015 -0.6219
vn -0.7262 -0.2135 -0.6535
vn -0.9129 -0.1069 -0.3939
vn -0.4989 -0.7184 -0.4848
vn -0.9314 -0.3590 -0.0604
vn -0.8617 -0.4774 -0.1721
vn -0.9991 0.0410 -0.0056
vn -0.9747 -0.1916 0.1150
vn -0.9048 0.1903 0.3810
vn -0.9762 -0.1949 0.0950
vn -0.9990 0.0306 -0.0312
vn -0.9608 0.1290 0.2453
vn -0.9437 0.0608 0.3252
vn -0.6838 0.4704 0.5578
vn 0.2055 -0.9728 0.1071
vn 0.2309 -0.6736 0.7021
vn -0.9364 -0.3442 -0.0692
vn -0.9820 0.1885 -0.0130
vn -0.9746 0.2221 0.0302
vn -0.8239 -0.1572 0.5444
vn -0.9792 0.0221 -0.2019
vn -0.8170 0.2923 -0.4971
vn -0.9838 0.0455 -0.1736
vn -0.7727 0.5927 -0.2274
vn -0.8057 0.1677 -0.5681
vn -0.8102 0.1326 -0.5710
vn 0.4003 0.8564 -0.3261
vn 0.4849 0.5688 -0.6643
vn 0.3583 0.6974 -0.6207
vn 0.8152 0.3637 0.4507
vn 0.7386 0.5124 0.4382
vn 0.7792 0.4271 0.4586
vn 0.5476 0.8258 0.1345
vn 0.3995 0.9103 0.1085
vn -0.8278 0.1293 -0.5459
vn -0.5849 0.7964 0.1537
vn -0.9676 0.2459 0.0581
vn -0.9013 -0.1657 -0.4003
vn -0.6604 -0.2245 -0.7166
vn -0.5964 -0.3346 -0.7296
vn -0.7577 -0.0038 -0.6526
vn 0.8072 -0.4667 0.3614
vn -0.0030 -0.5652 -0.8250
vn -0.3445 -0.7858 -0.5136
vn -0.5819 -0.3336 -0.7417
vn -0.8024 -0.3117 -0.5090
vn -0.4093 -0.5648 -0.7166
vn -0.6157 -0.7043 -0.3533
vn -0.4816 -0.4945 -0.7235
vn -0.5469 -0.7153 -0.4350
vn -0.5868 -0.7117 -0.3862
vn -0.5693 -0.7139 -0.4078
vn -0.4946 -0.4930 -0.7158
vn -0.3889 -0.4959 -0.7764
vn -0.4893 -0.2728 -0.8284
vn 0.3897 -0.8867 -0.2489
vn 0.0739 -0.5137 -0.8548
vn -0.9258 -0.0004 -0.3780
vn -0.7856 -0.2352 0.5723
vn -0.8305 -0.3885 0.3993
vn 0.0206 -0.5180 -0.8551
vn -0.5340 0.1243 0.8363
vn 0.3399 -0.3059 -0.8893
vn -0.0786 -0.8486 0.5231
vn -0.6280 -0.6687 -0.3981
vn 0.9752 -0.0224 0.2201
vn 0.9277 0.0437 0.3708
vn 0.9921 -0.0566 0.1123
vn 0.9660 0.2400 -0.0962
vn 0.9693 0.2138 -0.1212
vn 0.9011 0.4205 0.1060
vn -0.2277 0.7201 0.6554
vn 0.9762 0.0748 -0.2035
vn 0.2028 0.7040 0.6806
vn 0.0332 0.6208 0.7833
vn -0.2567 0.5308 0.8077
vn 0.1018 0.6072 0.7880
vn -0.0571 0.5230 0.8504
vn -0.1610 0.4935 0.8547
vn 0.9809 0.0496 -0.1879
vn 0.0185 0.5159 0.8565
vn 0.9929 0.1172 -0.0182
vn -0.0412 0.4693 0.8821
vn -0.0741 0.4597 0.8850
vn -0.3269 0.3977 0.8573
vn -0.0350 0.4521 0.8913
vn 0.9959 0.0882 -0.0188
vn 0.0542 0.1504 0.9871
vn -0.2371 0.1825 0.9542
vn 0.3682 0.0814 0.9262
vn -0.2833 0.2065 0.9365
vn -0.8276 0.2058 0.5222
vn -0.6203 0.2252 0.7514
vn -0.7594 0.2303 0.6085
vn -0.8432 0.1709 0.5097
vn -0.9895 0.1278 0.0678
vn -0.9302 0.1829 0.3183
vn 0.1957 0.5021 0.8424
vn 0.8942 0.3500 0.2792
vn -0.2052 0.4715 0.8577
vn -0.2417 0.5469 0.8016
vn -0.1336 0.5654 0.8139
vn -0.0395 0.6794 0.7327
vn -0.3168 0.6367 0.7030
vn -0.0894 0.7490 0.6565
vn -0.1807 0.4977 0.8483
vn -0.9004 0.1660 0.4021
vn -0.3350 0.6747 0.6577
vn -0.8404 0.1979 0.5045
vn -0.7552 0.2203 0.6174
vn -0.3818 0.8124 0.4407
vn 0.0933 0.7010 0.7070
vn 0.6589 0.5452 0.5184
vn 0.4117 0.6534 0.6353
vt 0.000000 0.000000
s 1
f 4/1/1 1/1/1 2/1/1
f 2/1/2 1/1/2 3/1/2
f 6/1/3 3/1/3 1/1/3
f 4/1/4 7/1/4 1/1/4
f 5/1/5 1/1/5 7/1/5
f 5/1/6 6/1/6 1/1/6
f 8/1/7 7/1/7 4/1/7
f 8/1/8 5/1/8 7/1/8
f 8/1/9 4/1/9 10/1/9
f 8/1/10 9/1/10 5/1/10
f 9/1/11 8/1/11 11/1/11
f 10/1/12 11/1/12 8/1/12
f 9/1/13 11/1/13 12/1/13
f 10/1/14 14/1/14 11/1/14
f 12/1/15 11/1/15 13/1/15
f 14/1/16 13/1/16 11/1/16
f 14/1/17 16/1/17 13/1/17
f 15/1/18 17/1/18 14/1/18
f 15/1/19 14/1/19 10/1/19
f 17/1/20 16/1/20 14/1/20
f 17/1/21 20/1/21 16/1/21
f 18/1/22 17/1/22 15/1/22
f 18/1/23 19/1/23 17/1/23
f 19/1/24 20/1/24 17/1/24
f 19/1/25 21/1/25 20/1/25
f 21/1/26 23/1/26 20/1/26
f 20/1/27 22/1/27 16/1/27
f 20/1/28 23/1/28 22/1/28
f 23/1/29 24/1/29 22/1/29
f 23/1/30 25/1/30 24/1/30
f 21/1/31 26/1/31 23/1/31
f 26/1/32 25/1/32 23/1/32
f 29/1/33 26/1/33 21/1/33
f 26/1/34 27/1/35 25/1/36
f 28/1/37 27/1/35 26/1/34
f 29/1/38 28/1/38 26/1/38
f 31/1/39 28/1/39 29/1/39
f 32/1/40 29/1/40 30/1/40
f 30/1/41 29/1/41 21/1/41
f 32/1/42 31/1/42 29/1/42
f 35/1/43 32/1/43 30/1/43
f 34/1/44 31/1/44 32/1/44
f 33/1/45 34/1/45 32/1/45
f 33/1/46 32/1/46 35/1/46
f 35/1/47 36/1/47 33/1/47
f 35/1/48 37/1/48 36/1/48
f 38/1/49 37/1/49 35/1/49
f 35/1/50 30/1/50 38/1/50
f 38/1/51 30/1/51 19/1/51
f 38/1/52 19/1/52 18/1/52
f 18/1/53 39/1/53 38/1/53
f 38/1/54 39/1/55 37/1/56
f 40/1/57 41/1/57 39/1/57
f 18/1/58 40/1/58 39/1/58
f 39/1/59 41/1/59 42/1/59
f 39/1/55 42/1/60 37/1/56
f 42/1/61 41/1/61 43/1/61
f 42/1/62 43/1/62 45/1/62
f 37/1/63 42/1/63 44/1/63
f 44/1/64 42/1/64 45/1/64
f 47/1/65 45/1/65 46/1/65
f 45/1/66 48/1/66 46/1/66
f 44/1/67 45/1/67 47/1/67
f 45/1/68 43/1/68 48/1/68
f 48/1/69 49/1/69 50/1/69
f 48/1/70 51/1/70 49/1/70
f 43/1/71 51/1/71 48/1/71
f 46/1/72 48/1/72 50/1/72
f 43/1/73 52/1/73 51/1/73
f 52/1/74 53/1/74 51/1/74
f 51/1/75 53/1/75 54/1/75
f 51/1/76 54/1/76 49/1/76
f 53/1/77 55/1/77 54/1/77
f 54/1/78 55/1/78 56/1/78
f 54/1/79 56/1/79 57/1/79
f 49/1/80 54/1/80 57/1/80
f 57/1/81 60/1/82 58/1/83
f 57/1/84 58/1/84 59/1/84
f 49/1/85 57/1/85 59/1/85
f 56/1/86 60/1/87 57/1/88
f 61/1/89 62/1/90 60/1/87
f 56/1/86 61/1/89 60/1/87
f 60/1/91 62/1/91 63/1/91
f 60/1/82 63/1/92 58/1/83
f 63/1/93 64/1/93 65/1/93
f 62/1/94 64/1/94 63/1/94
f 63/1/95 65/1/95 66/1/95
f 58/1/96 63/1/97 66/1/98
f 58/1/96 66/1/98 67/1/99
f 67/1/100 66/1/100 69/1/100
f 66/1/101 65/1/101 68/1/101
f 66/1/102 68/1/102 69/1/102
f 69/1/103 68/1/103 70/1/103
f 69/1/104 70/1/104 71/1/104
f 67/1/105 69/1/106 72/1/107
f 72/1/108 69/1/108 71/1/108
f 75/1/109 67/1/105 72/1/107
f 75/1/110 72/1/110 73/1/110
f 73/1/111 72/1/111 74/1/111
f 72/1/112 71/1/112 74/1/112
f 59/1/113 67/1/113 75/1/113
f 76/1/114 50/1/114 75/1/114
f 76/1/115 75/1/115 73/1/115
f 50/1/116 59/1/116 75/1/116
f 77/1/117 46/1/117 76/1/117
f 77/1/118 76/1/118 78/1/118
f 46/1/119 50/1/119 76/1/119
f 78/1/120 76/1/120 73/1/120
f 80/1/121 77/1/121 78/1/121
f 78/1/122 73/1/122 79/1/122
f 81/1/123 78/1/123 79/1/123
f 80/1/124 78/1/124 81/1/124
f 82/1/125 81/1/125 83/1/125
f 82/1/126 80/1/126 81/1/126
f 81/1/127 79/1/127 84/1/127
f 83/1/128 81/1/128 84/1/128
f 86/1/129 84/1/129 85/1/129
f 84/1/130 74/1/130 85/1/130
f 84/1/131 79/1/131 74/1/131
f 83/1/132 84/1/132 86/1/132
f 83/1/133 86/1/133 89/1/133
f 86/1/134 87/1/134 89/1/134
f 86/1/135 88/1/135 87/1/135
f 86/1/136 85/1/137 88/1/138
f 90/1/139 89/1/139 92/1/139
f 90/1/140 91/1/140 89/1/140
f 83/1/141 89/1/141 91/1/141
f 92/1/142 89/1/142 87/1/142
f 92/1/143 95/1/143 93/1/143
f 90/1/144 92/1/144 93/1/144
f 92/1/145 87/1/145 94/1/145
f 92/1/146 94/1/146 95/1/146
f 95/1/147 94/1/147 96/1/147
f 95/1/148 96/1/148 97/1/148
f 98/1/149 95/1/149 97/1/149
f 99/1/150 95/1/151 98/1/152
f 99/1/150 93/1/153 95/1/151
f 28/1/154 99/1/154 27/1/154
f 27/1/155 99/1/155 98/1/155
f 100/1/156 93/1/156 99/1/156
f 100/1/157 99/1/157 28/1/157
f 31/1/158 100/1/158 28/1/158
f 90/1/159 93/1/159 100/1/159
f 101/1/160 90/1/160 100/1/160
f 101/1/161 100/1/161 31/1/161
f 101/1/162 102/1/162 91/1/162
f 34/1/163 102/1/163 101/1/163
f 34/1/164 101/1/164 31/1/164
f 101/1/165 91/1/165 90/1/165
f 104/1/166 102/1/166 103/1/166
f 34/1/167 103/1/167 102/1/167
f 104/1/168 82/1/168 102/1/168
f 82/1/169 91/1/169 102/1/169
f 105/1/170 106/1/170 104/1/170
f 105/1/171 104/1/171 103/1/171
f 104/1/172 106/1/172 80/1/172
f 104/1/173 80/1/173 82/1/173
f 105/1/174 107/1/174 106/1/174
f 107/1/175 47/1/175 106/1/175
f 106/1/176 47/1/176 77/1/176
f 106/1/177 77/1/177 80/1/177
f 107/1/178 44/1/178 47/1/178
f 36/1/179 44/1/179 107/1/179
f 36/1/180 107/1/180 105/1/180
f 105/1/181 103/1/181 108/1/181
f 33/1/182 36/1/182 105/1/182
f 33/1/183 105/1/183 108/1/183
f 33/1/184 108/1/184 103/1/184
f 33/1/185 103/1/185 34/1/185
f 27/1/186 98/1/186 110/1/186
f 98/1/187 97/1/187 109/1/187
f 110/1/188 98/1/188 109/1/188
f 25/1/189 27/1/189 110/1/189
f 110/1/190 109/1/190 111/1/190
f 112/1/191 110/1/191 111/1/191
f 25/1/192 110/1/192 112/1/192
f 24/1/193 25/1/193 112/1/193
f 24/1/194 112/1/194 113/1/194
f 113/1/195 112/1/195 114/1/195
f 112/1/196 111/1/196 114/1/196
f 115/1/197 114/1/197 116/1/197
f 113/1/198 114/1/198 115/1/198
f 114/1/199 117/1/199 116/1/199
f 114/1/200 111/1/200 117/1/200
f 111/1/201 119/1/201 117/1/201
f 118/1/202 120/1/202 117/1/202
f 118/1/203 117/1/204 119/1/205
f 120/1/206 116/1/206 117/1/206
f 64/1/207 121/1/207 120/1/207
f 65/1/208 64/1/208 120/1/208
f 65/1/209 120/1/209 118/1/209
f 120/1/210 121/1/210 116/1/210
f 123/1/211 121/1/211 122/1/211
f 64/1/212 122/1/212 121/1/212
f 123/1/213 125/1/213 121/1/213
f 121/1/214 124/1/214 116/1/214
f 121/1/215 125/1/215 124/1/215
f 125/1/216 126/1/216 124/1/216
f 127/1/217 125/1/217 123/1/217
f 125/1/218 128/1/218 126/1/218
f 127/1/219 128/1/219 125/1/219
f 129/1/220 126/1/220 128/1/220
f 127/1/221 129/1/221 128/1/221
f 131/1/222 130/1/222 129/1/222
f 130/1/223 132/1/223 129/1/223
f 127/1/224 131/1/224 129/1/224
f 129/1/225 132/1/225 126/1/225
f 133/1/226 126/1/226 132/1/226
f 133/1/227 132/1/227 134/1/227
f 134/1/228 132/1/228 135/1/228
f 130/1/229 135/1/229 132/1/229
f 136/1/230 135/1/230 130/1/230
f 136/1/231 137/1/231 135/1/231
f 138/1/232 135/1/232 137/1/232
f 134/1/233 135/1/233 138/1/233
f 138/1/234 137/1/234 139/1/234
f 140/1/235 138/1/235 139/1/235
f 141/1/236 138/1/236 140/1/236
f 141/1/237 134/1/237 138/1/237
f 143/1/238 141/1/238 140/1/238
f 144/1/239 142/1/239 141/1/239
f 142/1/240 134/1/240 141/1/240
f 144/1/241 141/1/241 143/1/241
f 144/1/242 24/1/242 113/1/242
f 144/1/243 113/1/243 142/1/243
f 145/1/244 144/1/245 143/1/246
f 145/1/247 146/1/247 144/1/247
f 22/1/248 144/1/248 146/1/248
f 22/1/249 24/1/249 144/1/249
f 16/1/250 146/1/250 13/1/250
f 147/1/251 13/1/251 146/1/251
f 147/1/252 146/1/252 145/1/252
f 16/1/253 22/1/253 146/1/253
f 12/1/254 13/1/254 147/1/254
f 149/1/255 12/1/255 147/1/255
f 148/1/256 147/1/256 145/1/256
f 149/1/257 147/1/257 148/1/257
f 150/1/258 149/1/258 148/1/258
f 152/1/259 12/1/259 149/1/259
f 151/1/260 149/1/260 150/1/260
f 151/1/261 152/1/261 149/1/261
f 152/1/262 9/1/262 12/1/262
f 9/1/263 152/1/263 153/1/263
f 152/1/264 154/1/264 153/1/264
f 152/1/265 151/1/265 154/1/265
f 151/1/266 155/1/266 154/1/266
f 154/1/267 155/1/267 157/1/267
f 153/1/268 154/1/268 156/1/268
f 154/1/269 157/1/269 156/1/269
f 155/1/270 160/1/270 157/1/270
f 160/1/271 158/1/271 157/1/271
f 157/1/272 158/1/272 159/1/272
f 157/1/273 159/1/273 156/1/273
f 155/1/274 161/1/274 160/1/274
f 161/1/275 162/1/275 160/1/275
f 162/1/276 163/1/276 160/1/276
f 160/1/277 163/1/277 158/1/277
f 163/1/278 164/1/278 158/1/278
f 163/1/279 165/1/279 164/1/279
f 166/1/280 165/1/280 163/1/280
f 162/1/281 166/1/281 163/1/281
f 167/1/282 166/1/282 162/1/282
f 167/1/283 169/1/283 166/1/283
f 166/1/284 168/1/284 165/1/284
f 169/1/285 168/1/285 166/1/285
f 169/1/286 170/1/286 168/1/286
f 172/1/287 170/1/287 169/1/287
f 171/1/288 172/1/288 169/1/288
f 171/1/289 169/1/289 167/1/289
f 172/1/290 175/1/290 170/1/290
f 171/1/291 173/1/291 172/1/291
f 172/1/292 173/1/292 174/1/292
f 172/1/293 174/1/293 175/1/293
f 175/1/294 176/1/294 170/1/294
f 175/1/295 177/1/295 176/1/295
f 175/1/296 174/1/297 178/1/298
f 175/1/296 178/1/298 177/1/298
f 179/1/299 178/1/299 174/1/299
f 177/1/300 178/1/300 180/1/300
f 179/1/301 181/1/301 178/1/301
f 181/1/302 180/1/302 178/1/302
f 181/1/303 183/1/303 182/1/303
f 181/1/304 182/1/304 180/1/304
f 181/1/305 184/1/305 183/1/305
f 179/1/306 184/1/306 181/1/306
f 179/1/307 185/1/307 184/1/307
f 185/1/308 186/1/308 184/1/308
f 184/1/309 186/1/309 187/1/309
f 184/1/310 187/1/310 183/1/310
f 186/1/311 188/1/311 187/1/311
f 188/1/312 189/1/312 187/1/312
f 187/1/313 189/1/313 190/1/313
f 187/1/314 190/1/314 183/1/314
f 190/1/315 191/1/315 192/1/315
f 189/1/316 191/1/316 190/1/316
f 190/1/317 192/1/317 193/1/317
f 182/1/318 190/1/318 193/1/318
f 182/1/319 183/1/319 190/1/319
f 182/1/320 193/1/320 195/1/320
f 193/1/321 194/1/321 195/1/321
f 193/1/322 192/1/322 194/1/322
f 196/1/323 195/1/323 197/1/323
f 196/1/324 180/1/324 195/1/324
f 182/1/325 195/1/325 180/1/325
f 197/1/326 195/1/326 194/1/326
f 199/1/327 197/1/327 198/1/327
f 197/1/328 194/1/329 198/1/330
f 196/1/331 197/1/331 199/1/331
f 199/1/332 198/1/332 200/1/332
f 201/1/333 199/1/333 200/1/333
f 202/1/334 199/1/334 201/1/334
f 196/1/335 199/1/335 202/1/335
f 177/1/336 196/1/336 202/1/336
f 177/1/337 202/1/337 176/1/337
f 176/1/338 202/1/338 203/1/338
f 202/1/339 201/1/339 203/1/339
f 204/1/340 203/1/340 205/1/340
f 176/1/341 203/1/341 204/1/341
f 205/1/342 203/1/342 201/1/342
f 206/1/343 205/1/343 208/1/343
f 207/1/344 205/1/344 206/1/344
f 204/1/345 205/1/345 207/1/345
f 205/1/346 201/1/346 208/1/346
f 206/1/347 208/1/348 209/1/349
f 209/1/349 208/1/348 211/1/350
f 208/1/351 210/1/351 211/1/351
f 208/1/352 201/1/352 210/1/352
f 209/1/353 211/1/353 212/1/353
f 212/1/354 211/1/354 213/1/354
f 211/1/355 214/1/355 213/1/355
f 211/1/356 210/1/356 214/1/356
f 214/1/357 215/1/357 213/1/357
f 214/1/358 217/1/358 215/1/358
f 210/1/359 216/1/359 214/1/359
f 216/1/360 217/1/360 214/1/360
f 217/1/361 218/1/361 215/1/361
f 217/1/362 219/1/362 218/1/362
f 220/1/363 219/1/363 217/1/363
f 216/1/364 220/1/364 217/1/364
f 220/1/365 221/1/365 219/1/365
f 198/1/366 221/1/366 220/1/366
f 200/1/367 198/1/367 220/1/367
f 200/1/368 220/1/368 216/1/368
f 192/1/369 221/1/369 194/1/369
f 192/1/370 219/1/370 221/1/370
f 198/1/330 194/1/329 221/1/371
f 191/1/372 219/1/372 192/1/372
f 191/1/373 218/1/373 219/1/373
f 223/1/374 218/1/374 191/1/374
f 223/1/375 222/1/375 218/1/375
f 215/1/376 218/1/376 222/1/376
f 139/1/377 222/1/377 223/1/377
f 224/1/378 139/1/378 223/1/378
f 224/1/379 223/1/379 189/1/379
f 189/1/380 223/1/380 191/1/380
f 225/1/381 224/1/381 188/1/381
f 188/1/382 224/1/382 189/1/382
f 140/1/383 139/1/383 224/1/383
f 225/1/384 140/1/384 224/1/384
f 226/1/385 143/1/385 225/1/385
f 227/1/386 226/1/387 225/1/388
f 227/1/386 225/1/388 188/1/389
f 143/1/390 140/1/390 225/1/390
f 186/1/391 227/1/391 188/1/391
f 229/1/392 227/1/392 186/1/392
f 228/1/393 226/1/393 227/1/393
f 229/1/394 228/1/394 227/1/394
f 231/1/395 228/1/395 229/1/395
f 230/1/396 231/1/396 229/1/396
f 230/1/397 229/1/397 185/1/397
f 185/1/398 229/1/398 186/1/398
f 231/1/399 150/1/399 228/1/399
f 232/1/400 150/1/400 231/1/400
f 233/1/401 232/1/401 231/1/401
f 233/1/402 231/1/402 230/1/402
f 233/1/403 234/1/403 161/1/403
f 232/1/404 233/1/404 161/1/404
f 233/1/405 235/1/405 234/1/405
f 235/1/406 233/1/406 230/1/406
f 235/1/407 171/1/407 234/1/407
f 235/1/408 236/1/408 171/1/408
f 235/1/409 173/1/409 236/1/409
f 235/1/410 237/1/410 173/1/410
f 235/1/411 230/1/411 237/1/411
f 237/1/412 174/1/412 173/1/412
f 237/1/413 179/1/413 174/1/413
f 237/1/414 230/1/414 185/1/414
f 237/1/415 185/1/415 179/1/415
f 171/1/416 236/1/416 173/1/416
f 161/1/417 234/1/417 162/1/417
f 234/1/418 167/1/418 162/1/418
f 234/1/419 171/1/419 167/1/419
f 232/1/420 151/1/420 150/1/420
f 151/1/421 232/1/421 155/1/421
f 232/1/422 161/1/422 155/1/422
f 228/1/423 148/1/423 226/1/423
f 150/1/424 148/1/424 228/1/424
f 148/1/425 145/1/425 226/1/425
f 226/1/426 145/1/244 143/1/246
f 238/1/427 222/1/427 137/1/427
f 215/1/428 222/1/428 238/1/428
f 139/1/429 137/1/429 222/1/429
f 238/1/430 137/1/430 136/1/430
f 239/1/431 238/1/431 136/1/431
f 213/1/432 215/1/432 238/1/432
f 213/1/433 238/1/433 239/1/433
f 239/1/434 136/1/434 240/1/434
f 241/1/435 239/1/435 240/1/435
f 241/1/436 212/1/436 239/1/436
f 212/1/437 213/1/437 239/1/437
f 243/1/438 241/1/438 242/1/438
f 242/1/439 241/1/439 240/1/439
f 243/1/440 244/1/440 241/1/440
f 244/1/441 212/1/441 241/1/441
f 244/1/442 209/1/443 212/1/444
f 245/1/445 209/1/443 244/1/442
f 246/1/446 245/1/446 244/1/446
f 246/1/447 244/1/447 243/1/447
f 249/1/448 246/1/449 247/1/450
f 247/1/451 246/1/451 243/1/451
f 248/1/452 245/1/453 246/1/454
f 248/1/452 246/1/454 249/1/455
f 249/1/448 247/1/450 250/1/456
f 252/1/457 249/1/457 250/1/457
f 251/1/458 249/1/458 252/1/458
f 251/1/459 248/1/459 249/1/459
f 159/1/460 252/1/460 253/1/460
f 253/1/461 252/1/461 254/1/461
f 252/1/462 250/1/462 254/1/462
f 159/1/463 251/1/463 252/1/463
f 253/1/464 254/1/464 255/1/464
f 254/1/465 250/1/465 257/1/465
f 255/1/466 254/1/466 256/1/466
f 254/1/467 257/1/467 256/1/467
f 258/1/468 256/1/468 257/1/468
f 258/1/469 257/1/469 55/1/469
f 55/1/470 257/1/470 259/1/470
f 250/1/471 259/1/471 257/1/471
f 55/1/472 259/1/472 56/1/472
f 259/1/473 61/1/474 56/1/475
f 250/1/476 247/1/476 259/1/476
f 259/1/473 260/1/477 61/1/474
f 259/1/478 261/1/479 260/1/480
f 259/1/478 247/1/481 261/1/479
f 260/1/482 261/1/483 262/1/484
f 247/1/485 243/1/485 261/1/485
f 261/1/486 242/1/486 262/1/486
f 261/1/487 243/1/487 242/1/487
f 260/1/482 262/1/484 264/1/488
f 262/1/489 242/1/489 263/1/489
f 262/1/490 263/1/490 131/1/490
f 264/1/491 262/1/491 131/1/491
f 260/1/492 264/1/492 265/1/492
f 264/1/493 123/1/493 265/1/493
f 264/1/494 127/1/494 123/1/494
f 264/1/495 131/1/495 127/1/495
f 260/1/477 265/1/496 61/1/474
f 61/1/89 265/1/497 62/1/90
f 265/1/498 122/1/498 62/1/498
f 265/1/499 123/1/499 122/1/499
f 240/1/500 130/1/500 263/1/500
f 131/1/501 263/1/501 130/1/501
f 242/1/502 240/1/502 263/1/502
f 266/1/503 267/1/503 258/1/503
f 266/1/504 258/1/504 53/1/504
f 53/1/505 258/1/505 55/1/505
f 267/1/506 256/1/506 258/1/506
f 2/1/507 3/1/507 267/1/507
f 267/1/508 3/1/508 256/1/508
f 268/1/509 267/1/509 266/1/509
f 268/1/510 2/1/510 267/1/510
f 269/1/511 268/1/511 266/1/511
f 270/1/512 268/1/512 269/1/512
f 270/1/513 2/1/513 268/1/513
f 270/1/514 4/1/514 2/1/514
f 10/1/515 4/1/515 270/1/515
f 15/1/516 270/1/516 40/1/516
f 10/1/517 270/1/517 15/1/517
f 270/1/518 269/1/518 40/1/518
f 40/1/519 269/1/519 41/1/519
f 41/1/520 269/1/520 52/1/520
f 269/1/521 266/1/521 52/1/521
f 52/1/522 266/1/522 53/1/522
f 255/1/523 256/1/523 3/1/523
f 271/1/524 253/1/524 255/1/524
f 271/1/525 255/1/525 6/1/525
f 6/1/526 255/1/526 3/1/526
f 156/1/527 253/1/527 271/1/527
f 153/1/528 271/1/528 6/1/528
f 153/1/529 156/1/529 271/1/529
f 156/1/530 159/1/530 253/1/530
f 158/1/531 251/1/531 159/1/531
f 158/1/532 164/1/532 251/1/532
f 164/1/533 248/1/533 251/1/533
f 272/1/534 245/1/534 248/1/534
f 164/1/535 272/1/535 248/1/535
f 165/1/536 207/1/536 272/1/536
f 165/1/537 272/1/537 164/1/537
f 272/1/538 206/1/538 245/1/538
f 207/1/539 206/1/539 272/1/539
f 245/1/540 206/1/540 209/1/540
f 240/1/541 136/1/541 130/1/541
f 210/1/542 200/1/542 216/1/542
f 201/1/543 200/1/543 210/1/543
f 168/1/544 207/1/544 165/1/544
f 168/1/545 204/1/545 207/1/545
f 170/1/546 204/1/546 168/1/546
f 170/1/547 176/1/547 204/1/547
f 177/1/548 180/1/548 196/1/548
f 9/1/549 153/1/549 5/1/549
f 153/1/550 6/1/550 5/1/550
f 142/1/551 113/1/551 115/1/551
f 142/1/552 115/1/552 133/1/552
f 142/1/553 133/1/553 134/1/553
f 133/1/554 115/1/554 124/1/554
f 133/1/555 124/1/555 126/1/555
f 115/1/556 116/1/556 124/1/556
f 62/1/557 122/1/557 64/1/557
f 111/1/558 109/1/558 119/1/558
f 273/1/559 118/1/203 119/1/205
f 273/1/560 119/1/560 274/1/560
f 109/1/561 274/1/561 119/1/561
f 275/1/562 273/1/562 274/1/562
f 275/1/563 274/1/563 276/1/563
f 97/1/564 276/1/564 274/1/564
f 109/1/565 97/1/565 274/1/565
f 277/1/566 275/1/566 276/1/566
f 97/1/567 96/1/567 276/1/567
f 96/1/568 278/1/568 276/1/568
f 277/1/569 276/1/569 278/1/569
f 279/1/570 278/1/570 280/1/570
f 279/1/571 277/1/571 278/1/571
f 96/1/572 280/1/572 278/1/572
f 88/1/573 279/1/573 280/1/573
f 88/1/574 280/1/574 87/1/574
f 94/1/575 87/1/575 280/1/575
f 94/1/576 280/1/576 96/1/576
f 85/1/137 279/1/577 88/1/138
f 85/1/578 281/1/578 279/1/578
f 281/1/579 277/1/579 279/1/579
f 71/1/580 282/1/580 281/1/580
f 74/1/581 71/1/581 281/1/581
f 74/1/582 281/1/582 85/1/582
f 281/1/583 282/1/583 277/1/583
f 71/1/584 70/1/584 282/1/584
f 282/1/585 275/1/585 277/1/585
f 282/1/586 70/1/586 275/1/586
f 70/1/587 273/1/587 275/1/587
f 68/1/588 118/1/588 273/1/588
f 70/1/589 68/1/589 273/1/589
f 68/1/590 65/1/590 118/1/590
f 82/1/591 83/1/591 91/1/591
f 73/1/592 74/1/592 79/1/592
f 47/1/593 46/1/593 77/1/593
f 59/1/594 58/1/594 67/1/594
f 50/1/595 49/1/595 59/1/595
f 41/1/596 52/1/596 43/1/596
f 37/1/597 44/1/597 36/1/597
f 15/1/598 40/1/598 18/1/598
f 30/1/599 21/1/599 19/1/599
