# Blender 5.2.1 LTS
# www.blender.org
mtllib blockLever.mtl
o 円柱
v -0.542457 0.000000 -0.033759
v 0.204991 -0.000000 -0.033759
v -0.542457 -0.010343 -0.033110
v 0.204991 -0.010343 -0.033110
v -0.542457 -0.020289 -0.031189
v 0.204991 -0.020289 -0.031189
v -0.542457 -0.029455 -0.028069
v 0.204991 -0.029455 -0.028069
v -0.542457 -0.037489 -0.023871
v 0.204991 -0.037489 -0.023871
v -0.542457 -0.044082 -0.018755
v 0.204991 -0.044082 -0.018755
v -0.542457 -0.048981 -0.012919
v 0.204991 -0.048981 -0.012919
v -0.542457 -0.051998 -0.006586
v 0.204991 -0.051998 -0.006586
v -0.542457 -0.053017 0.000000
v 0.204991 -0.053017 0.000000
v -0.542457 -0.051998 0.006586
v 0.204991 -0.051998 0.006586
v -0.542457 -0.048981 0.012919
v 0.204991 -0.048981 0.012919
v -0.542457 -0.044082 0.018755
v 0.204991 -0.044082 0.018755
v -0.542457 -0.037489 0.023871
v 0.204991 -0.037489 0.023871
v -0.542457 -0.029455 0.028069
v 0.204991 -0.029455 0.028069
v -0.542457 -0.020289 0.031189
v 0.204991 -0.020289 0.031189
v -0.542457 -0.010343 0.033110
v 0.204991 -0.010343 0.033110
v -0.542457 0.000000 0.033759
v 0.204991 -0.000000 0.033759
v -0.542457 0.010343 0.033110
v 0.204991 0.010343 0.033110
v -0.542457 0.020289 0.031189
v 0.204991 0.020289 0.031189
v -0.542457 0.029455 0.028069
v 0.204991 0.029455 0.028069
v -0.542457 0.037489 0.023871
v 0.204991 0.037489 0.023871
v -0.542457 0.044082 0.018755
v 0.204991 0.044082 0.018755
v -0.542457 0.048981 0.012919
v 0.204991 0.048981 0.012919
v -0.542457 0.051998 0.006586
v 0.204991 0.051998 0.006586
v -0.542457 0.053017 0.000000
v 0.204991 0.053017 0.000000
v -0.542457 0.051998 -0.006586
v 0.204991 0.051998 -0.006586
v -0.542457 0.048981 -0.012919
v 0.204991 0.048981 -0.012919
v -0.542457 0.044082 -0.018755
v 0.204991 0.044082 -0.018755
v -0.542457 0.037489 -0.023871
v 0.204991 0.037489 -0.023871
v -0.542457 0.029455 -0.028069
v 0.204991 0.029455 -0.028069
v -0.542457 0.020289 -0.031189
v 0.204991 0.020289 -0.031189
v -0.542457 0.010343 -0.033110
v 0.204991 0.010343 -0.033110
vn -0.0000 -0.0626 -0.9980
vn -0.0000 -0.1897 -0.9819
vn -0.0000 -0.3222 -0.9467
vn -0.0000 -0.4631 -0.8863
vn -0.0000 -0.6130 -0.7901
vn -0.0000 -0.7659 -0.6429
vn -0.0000 -0.9028 -0.4301
vn -0.0000 -0.9882 -0.1529
vn -0.0000 -0.9882 0.1529
vn -0.0000 -0.9028 0.4301
vn -0.0000 -0.7659 0.6429
vn -0.0000 -0.6130 0.7901
vn -0.0000 -0.4631 0.8863
vn -0.0000 -0.3222 0.9467
vn -0.0000 -0.1897 0.9819
vn -0.0000 -0.0626 0.9980
vn -0.0000 0.0626 0.9980
vn -0.0000 0.1897 0.9819
vn -0.0000 0.3222 0.9467
vn -0.0000 0.4631 0.8863
vn -0.0000 0.6130 0.7901
vn -0.0000 0.7659 0.6429
vn -0.0000 0.9028 0.4301
vn -0.0000 0.9882 0.1529
vn -0.0000 0.9882 -0.1529
vn -0.0000 0.9028 -0.4301
vn -0.0000 0.7659 -0.6429
vn -0.0000 0.6130 -0.7901
vn -0.0000 0.4631 -0.8863
vn -0.0000 0.3222 -0.9467
vn 1.0000 -0.0000 -0.0000
vn -0.0000 0.1897 -0.9819
vn -0.0000 0.0626 -0.9980
vn -1.0000 -0.0000 -0.0000
vt 0.323898 0.040934
vt 0.040934 0.058619
vt 0.040934 0.040934
vt 0.323898 0.058619
vt 0.040934 0.076304
vt 0.323898 0.076304
vt 0.040934 0.093990
vt 0.323898 0.093990
vt 0.040934 0.111675
vt 0.323898 0.111675
vt 0.040934 0.129360
vt 0.323898 0.129360
vt 0.040934 0.147045
vt 0.323898 0.147045
vt 0.040934 0.164731
vt 0.323898 0.164731
vt 0.040934 0.182416
vt 0.323898 0.182416
vt 0.040934 0.200101
vt 0.323898 0.200101
vt 0.040934 0.217786
vt 0.323898 0.217786
vt 0.040934 0.235471
vt 0.323898 0.235471
vt 0.040934 0.253157
vt 0.323898 0.253157
vt 0.040934 0.270842
vt 0.323898 0.270842
vt 0.040934 0.288527
vt 0.323898 0.288527
vt 0.040934 0.306212
vt 0.323898 0.306212
vt 0.040934 0.323898
vt 0.323898 0.323898
vt 0.040934 0.341583
vt 0.323898 0.341583
vt 0.040934 0.359268
vt 0.323898 0.359268
vt 0.040934 0.376953
vt 0.323898 0.376953
vt 0.040934 0.394639
vt 0.323898 0.394638
vt 0.040934 0.412324
vt 0.323898 0.412324
vt 0.040934 0.430009
vt 0.323898 0.430009
vt 0.040934 0.447694
vt 0.323898 0.447694
vt 0.040934 0.465379
vt 0.323898 0.465379
vt 0.040934 0.483065
vt 0.323898 0.483065
vt 0.040934 0.500750
vt 0.323898 0.500750
vt 0.040934 0.518435
vt 0.323898 0.518435
vt 0.040934 0.536120
vt 0.323898 0.536120
vt 0.040934 0.553806
vt 0.323898 0.553806
vt 0.040934 0.571491
vt 0.488880 0.693923
vt 0.658281 0.784470
vt 0.567734 0.953872
vt 0.323898 0.571491
vt 0.040934 0.589176
vt 0.323898 0.589176
vt 0.040934 0.606861
vt 0.311271 0.810585
vt 0.162789 0.688729
vt 0.040934 0.837211
vt 0.541620 0.959066
vt 0.514994 0.959066
vt 0.488880 0.953872
vt 0.464281 0.943682
vt 0.442142 0.928890
vt 0.423315 0.910062
vt 0.408522 0.887924
vt 0.398333 0.863325
vt 0.393139 0.837210
vt 0.393139 0.810585
vt 0.398333 0.784470
vt 0.408522 0.759871
vt 0.423315 0.737733
vt 0.442142 0.718905
vt 0.464281 0.704113
vt 0.514994 0.688729
vt 0.592333 0.704113
vt 0.541620 0.688729
vt 0.567734 0.693923
vt 0.614472 0.718905
vt 0.633299 0.737733
vt 0.648092 0.759871
vt 0.663476 0.810585
vt 0.648092 0.887924
vt 0.663476 0.837211
vt 0.658281 0.863325
vt 0.633299 0.910062
vt 0.614472 0.928890
vt 0.592333 0.943682
vt 0.323898 0.606861
vt 0.046128 0.863325
vt 0.056318 0.887924
vt 0.071110 0.910062
vt 0.089938 0.928890
vt 0.112076 0.943682
vt 0.136675 0.953872
vt 0.162789 0.959066
vt 0.189415 0.959066
vt 0.215530 0.953872
vt 0.240129 0.943682
vt 0.262267 0.928890
vt 0.281095 0.910062
vt 0.295887 0.887924
vt 0.306076 0.863325
vt 0.311271 0.837210
vt 0.306076 0.784470
vt 0.295887 0.759871
vt 0.281095 0.737733
vt 0.262267 0.718905
vt 0.240129 0.704113
vt 0.215530 0.693923
vt 0.189415 0.688729
vt 0.136675 0.693923
vt 0.112076 0.704113
vt 0.089937 0.718905
vt 0.071110 0.737733
vt 0.056318 0.759871
vt 0.046128 0.784470
vt 0.040934 0.810585
s 0
usemtl マテリアル.004
f 2/1/1 3/2/1 1/3/1
f 4/4/2 5/5/2 3/2/2
f 6/6/3 7/7/3 5/5/3
f 8/8/4 9/9/4 7/7/4
f 10/10/5 11/11/5 9/9/5
f 12/12/6 13/13/6 11/11/6
f 14/14/7 15/15/7 13/13/7
f 16/16/8 17/17/8 15/15/8
f 18/18/9 19/19/9 17/17/9
f 20/20/10 21/21/10 19/19/10
f 22/22/11 23/23/11 21/21/11
f 24/24/12 25/25/12 23/23/12
f 26/26/13 27/27/13 25/25/13
f 28/28/14 29/29/14 27/27/14
f 30/30/15 31/31/15 29/29/15
f 32/32/16 33/33/16 31/31/16
f 34/34/17 35/35/17 33/33/17
f 36/36/18 37/37/18 35/35/18
f 38/38/19 39/39/19 37/37/19
f 40/40/20 41/41/20 39/39/20
f 42/42/21 43/43/21 41/41/21
f 44/44/22 45/45/22 43/43/22
f 46/46/23 47/47/23 45/45/23
f 48/48/24 49/49/24 47/47/24
f 50/50/25 51/51/25 49/49/25
f 52/52/26 53/53/26 51/51/26
f 54/54/27 55/55/27 53/53/27
f 56/56/28 57/57/28 55/55/28
f 58/58/29 59/59/29 57/57/29
f 60/60/30 61/61/30 59/59/30
f 38/62/31 22/63/31 6/64/31
f 62/65/32 63/66/32 61/61/32
f 64/67/33 1/68/33 63/66/33
f 31/69/34 47/70/34 63/71/34
f 2/1/1 4/4/1 3/2/1
f 4/4/2 6/6/2 5/5/2
f 6/6/3 8/8/3 7/7/3
f 8/8/4 10/10/4 9/9/4
f 10/10/5 12/12/5 11/11/5
f 12/12/6 14/14/6 13/13/6
f 14/14/7 16/16/7 15/15/7
f 16/16/8 18/18/8 17/17/8
f 18/18/9 20/20/9 19/19/9
f 20/20/10 22/22/10 21/21/10
f 22/22/11 24/24/11 23/23/11
f 24/24/12 26/26/12 25/25/12
f 26/26/13 28/28/13 27/27/13
f 28/28/14 30/30/14 29/29/14
f 30/30/15 32/32/15 31/31/15
f 32/32/16 34/34/16 33/33/16
f 34/34/17 36/36/17 35/35/17
f 36/36/18 38/38/18 37/37/18
f 38/38/19 40/40/19 39/39/19
f 40/40/20 42/42/20 41/41/20
f 42/42/21 44/44/21 43/43/21
f 44/44/22 46/46/22 45/45/22
f 46/46/23 48/48/23 47/47/23
f 48/48/24 50/50/24 49/49/24
f 50/50/25 52/52/25 51/51/25
f 52/52/26 54/54/26 53/53/26
f 54/54/27 56/56/27 55/55/27
f 56/56/28 58/58/28 57/57/28
f 58/58/29 60/60/29 59/59/29
f 60/60/30 62/65/30 61/61/30
f 6/64/31 4/72/31 2/73/31
f 2/73/31 64/74/31 6/64/31
f 64/74/31 62/75/31 6/64/31
f 62/75/31 60/76/31 58/77/31
f 58/77/31 56/78/31 54/79/31
f 54/79/31 52/80/31 50/81/31
f 50/81/31 48/82/31 54/79/31
f 48/82/31 46/83/31 54/79/31
f 46/83/31 44/84/31 42/85/31
f 42/85/31 40/86/31 38/62/31
f 38/62/31 36/87/31 30/88/31
f 36/87/31 34/89/31 30/88/31
f 34/89/31 32/90/31 30/88/31
f 30/88/31 28/91/31 26/92/31
f 26/92/31 24/93/31 22/63/31
f 22/63/31 20/94/31 14/95/31
f 20/94/31 18/96/31 14/95/31
f 18/96/31 16/97/31 14/95/31
f 14/95/31 12/98/31 10/99/31
f 10/99/31 8/100/31 6/64/31
f 62/75/31 58/77/31 6/64/31
f 58/77/31 54/79/31 6/64/31
f 46/83/31 42/85/31 54/79/31
f 42/85/31 38/62/31 54/79/31
f 30/88/31 26/92/31 38/62/31
f 26/92/31 22/63/31 38/62/31
f 14/95/31 10/99/31 22/63/31
f 10/99/31 6/64/31 22/63/31
f 6/64/31 54/79/31 38/62/31
f 62/65/32 64/67/32 63/66/32
f 64/67/33 2/101/33 1/68/33
f 63/71/34 1/102/34 3/103/34
f 3/103/34 5/104/34 7/105/34
f 7/105/34 9/106/34 11/107/34
f 11/107/34 13/108/34 15/109/34
f 15/109/34 17/110/34 19/111/34
f 19/111/34 21/112/34 23/113/34
f 23/113/34 25/114/34 27/115/34
f 27/115/34 29/116/34 31/69/34
f 31/69/34 33/117/34 35/118/34
f 35/118/34 37/119/34 39/120/34
f 39/120/34 41/121/34 43/122/34
f 43/122/34 45/123/34 47/70/34
f 47/70/34 49/124/34 51/125/34
f 51/125/34 53/126/34 55/127/34
f 55/127/34 57/128/34 59/129/34
f 59/129/34 61/130/34 63/71/34
f 63/71/34 3/103/34 15/109/34
f 3/103/34 7/105/34 15/109/34
f 7/105/34 11/107/34 15/109/34
f 15/109/34 19/111/34 31/69/34
f 19/111/34 23/113/34 31/69/34
f 23/113/34 27/115/34 31/69/34
f 31/69/34 35/118/34 47/70/34
f 35/118/34 39/120/34 47/70/34
f 39/120/34 43/122/34 47/70/34
f 47/70/34 51/125/34 63/71/34
f 51/125/34 55/127/34 63/71/34
f 55/127/34 59/129/34 63/71/34
f 63/71/34 15/109/34 31/69/34
o 円柱.001
v 0.126894 0.000000 0.000000
v 0.209494 0.041299 0.080936
v 0.209494 -0.108124 0.050021
v 0.209494 -0.108124 -0.050021
v 0.209494 0.133649 0.000000
v 0.209494 0.041299 -0.080936
v 0.343144 0.108124 -0.050021
v 0.343144 -0.041299 -0.080936
v 0.343144 -0.133649 0.000000
v 0.425744 -0.000000 0.000000
v 0.343144 -0.041299 0.080936
v 0.343144 0.108124 0.050021
vn -0.7295 0.4508 0.5144
vn -0.6513 -0.1537 0.7431
vn -0.7947 -0.6071 -0.0000
vn -0.6513 -0.1537 -0.7431
vn -0.7295 0.4508 -0.5144
vn -0.1537 0.6513 -0.7431
vn -0.1242 -0.2010 -0.9717
vn 0.1242 0.2010 -0.9717
vn 0.1537 -0.6513 -0.7431
vn 0.6513 0.1537 -0.7431
vn 0.7295 -0.4508 -0.5144
vn 0.6513 0.1537 0.7431
vn 0.7295 -0.4508 0.5144
vn 0.7947 0.6071 -0.0000
vn 0.1876 0.9822 -0.0000
vn -0.1537 0.6513 0.7431
vn 0.1242 0.2010 0.9717
vn -0.1242 -0.2010 0.9717
vn 0.1537 -0.6513 0.7431
vn -0.1876 -0.9822 -0.0000
vt 0.405765 0.092382
vt 0.494877 0.040934
vt 0.494877 0.143830
vt 0.405765 0.503965
vt 0.494877 0.452517
vt 0.494877 0.555413
vt 0.405765 0.401069
vt 0.494877 0.349621
vt 0.405765 0.298173
vt 0.494877 0.246725
vt 0.405765 0.195278
vt 0.583988 0.195278
vt 0.583988 0.298173
vt 0.583988 0.401069
vt 0.673099 0.246725
vt 0.673099 0.349621
vt 0.583988 0.606861
vt 0.583988 0.503965
vt 0.673099 0.555413
vt 0.673099 0.452517
vt 0.583988 0.092382
vt 0.673099 0.143830
s 0
usemtl マテリアル.004
f 65/131/35 66/132/35 69/133/35
f 65/134/36 67/135/36 66/136/36
f 67/135/37 65/137/37 68/138/37
f 65/139/38 70/140/38 68/138/38
f 65/141/39 69/133/39 70/140/39
f 70/140/40 69/133/40 71/142/40
f 68/138/41 70/140/41 72/143/41
f 70/140/42 71/142/42 72/143/42
f 68/138/43 72/143/43 73/144/43
f 72/143/44 71/142/44 74/145/44
f 73/144/45 72/143/45 74/146/45
f 76/147/46 75/148/46 74/149/46
f 75/148/47 73/144/47 74/150/47
f 71/142/48 76/151/48 74/152/48
f 69/133/49 76/151/49 71/142/49
f 69/133/50 66/132/50 76/151/50
f 66/136/51 75/148/51 76/147/51
f 66/136/52 67/135/52 75/148/52
f 67/135/53 73/144/53 75/148/53
f 67/135/54 68/138/54 73/144/54
