# Blender 5.2.1 LTS
# www.blender.org
mtllib blockRight.mtl
o 立方体
v -0.393055 -0.443992 -0.345582
v -0.303334 -0.448659 -0.448376
v -0.302856 -0.546288 -0.349769
v -0.453850 -0.457780 0.359210
v -0.307836 -0.564097 0.354202
v -0.293063 -0.439408 0.412070
v -0.374632 0.251113 -0.341452
v -0.296307 0.383561 -0.343289
v -0.292939 0.250596 -0.411631
v -0.407977 0.258676 0.348927
v -0.297119 0.254361 0.426409
v -0.328677 0.396915 0.282189
v -0.385274 -0.522457 -0.348842
v -0.392939 -0.449427 -0.429958
v -0.302168 -0.523486 -0.424153
v -0.369254 -0.442825 0.408874
v -0.425596 -0.558773 0.359950
v -0.316036 -0.563843 0.464041
v -0.408838 0.265157 -0.444111
v -0.395097 0.342603 -0.351548
v -0.302741 0.336452 -0.425800
v -0.409918 0.355951 0.355631
v -0.383040 0.257967 0.421147
v -0.305974 0.345861 0.435100
v -0.431173 -0.437722 0.000000
v -0.284800 -0.542857 0.000000
v -0.000000 -0.441247 -0.476673
v -0.000000 -0.548655 -0.335271
v 0.000000 -0.436264 0.458751
v -0.000000 -0.554710 0.336916
v -0.447835 -0.094350 0.343461
v -0.290858 -0.094350 0.462919
v 0.000000 0.349101 0.332323
v 0.000000 0.250418 0.469017
v -0.448680 0.253354 0.000000
v -0.319647 0.406650 -0.046662
v -0.000000 0.246258 -0.454057
v -0.000000 0.412399 -0.349518
v -0.418788 -0.094350 -0.336354
v -0.287213 -0.094350 -0.451112
v -0.411286 -0.545884 -0.446291
v -0.372901 -0.511314 0.412122
v -0.384145 0.332739 -0.422130
v -0.382934 0.354255 0.461577
v -0.417306 -0.551306 0.000000
v -0.000000 -0.572673 -0.472768
v 0.000000 -0.532080 0.432647
v -0.443435 -0.094350 0.474908
v 0.000000 0.342773 0.432047
v -0.415889 0.361329 0.000000
v -0.000000 0.342405 -0.431684
v -0.392409 -0.094350 -0.429487
v -0.437274 -0.094350 0.000000
v -0.000000 -0.596270 0.000000
v -0.000000 -0.094350 -0.516709
v 0.000000 -0.094350 0.531435
v -0.000000 0.383538 0.000000
v 0.129772 -0.444270 -0.469704
v 0.175913 -0.447341 -0.462626
v 0.186814 -0.581800 -0.353502
v 0.133774 -0.565099 -0.344316
v 0.181636 -0.449469 0.471532
v 0.131873 -0.442815 0.465092
v 0.127581 -0.547016 0.339907
v 0.169947 -0.539201 0.342945
v 0.171642 0.349263 0.342507
v 0.128203 0.349181 0.337376
v 0.126407 0.251109 0.452667
v 0.166751 0.251811 0.436061
v 0.169242 0.252064 -0.437516
v 0.127322 0.249138 -0.445851
v 0.131107 0.402090 -0.351512
v 0.179549 0.391619 -0.353537
v 0.172851 -0.539628 -0.440107
v 0.128647 -0.556278 -0.456564
v 0.175796 -0.532231 0.432796
v 0.129728 -0.532155 0.432721
v 0.178434 0.349007 0.438209
v 0.130697 0.345865 0.435104
v 0.169699 0.330069 -0.419491
v 0.127490 0.336285 -0.425635
v 0.161173 -0.569691 0.000000
v 0.124359 -0.583084 0.000000
v 0.164694 -0.094350 -0.485239
v 0.125652 -0.094350 -0.501096
v 0.157982 -0.094350 0.474133
v 0.123187 -0.094350 0.503006
v 0.157243 0.363325 0.000000
v 0.122916 0.373510 0.000000
v 0.382553 -0.650583 -0.378874
v 0.358499 -0.553472 -0.468053
v 0.362320 -0.461110 -0.508494
v 0.529546 -0.459622 -0.471885
v 0.510256 -0.442118 -0.342898
v 0.549312 -0.573684 -0.366049
v 0.353553 -0.585968 0.346444
v 0.493342 -0.546534 0.343432
v 0.513235 -0.445905 0.349899
v 0.486204 -0.442049 0.440563
v 0.377610 -0.462849 0.530883
v 0.365330 -0.577548 0.462705
v 0.371558 0.433838 -0.367954
v 0.495297 0.363480 -0.347758
v 0.536668 0.266064 -0.345421
v 0.533494 0.277127 -0.478558
v 0.346362 0.263434 -0.482733
v 0.349388 0.354572 -0.458191
v 0.348354 0.250734 0.473270
v 0.495319 0.257952 0.455049
v 0.509636 0.258690 0.347347
v 0.488040 0.353959 0.342524
v 0.357483 0.403912 0.346891
v 0.371047 0.388875 0.480714
v 0.261076 -0.457462 -0.515842
v 0.562134 -0.439811 0.000645
v 0.342764 -0.610362 0.004306
v 0.253119 -0.594015 0.345941
v 0.618910 -0.094351 0.358246
v 0.339445 -0.091477 0.498350
v 0.253111 0.250931 0.490107
v 0.555126 0.253425 0.001062
v 0.336738 0.407388 0.002295
v 0.263662 0.443349 -0.371564
v 0.615537 -0.095280 -0.346743
v 0.343372 -0.092894 -0.523342
v 0.495067 -0.542064 -0.458219
v 0.527626 -0.563596 0.456972
v 0.506802 0.374502 -0.460100
v 0.503177 0.355818 0.445607
v 0.526759 -0.565676 0.003808
v 0.521686 -0.093523 0.476676
v 0.526601 0.382187 0.001763
v 0.565492 -0.094593 -0.498375
v 0.628594 -0.094549 0.000237
v 0.267346 -0.634318 -0.369501
v 0.263463 -0.461199 0.524583
v 0.252734 0.404215 0.342861
v 0.253388 0.261679 -0.490889
v 0.256364 -0.570863 -0.484709
v 0.256071 -0.579499 0.460506
v 0.260411 0.384885 0.479328
v 0.247438 0.356845 -0.439491
v 0.243333 -0.624465 0.004125
v 0.249598 -0.092235 -0.539365
v 0.245039 -0.090606 0.527994
v 0.240575 0.418138 0.002888
v -0.071855 -0.269254 -0.503480
v -0.055003 -0.250704 -0.517866
v -0.042739 -0.285560 -0.503843
v -0.012472 -0.228848 -0.521861
v -0.000201 -0.225735 -0.500077
v 0.019102 -0.270359 -0.507389
v -0.071575 -0.273543 -0.440216
v -0.041761 -0.295656 -0.438349
v -0.055496 -0.255751 -0.412123
v 0.017024 -0.226407 -0.439343
v -0.012212 -0.228982 -0.421738
v 0.010158 -0.255731 -0.440579
v -0.123259 -0.195433 -0.506636
v -0.110715 -0.160763 -0.503806
v -0.088097 -0.189913 -0.517713
v -0.028841 -0.147379 -0.504047
v -0.047040 -0.169216 -0.512640
v -0.060010 -0.130104 -0.504386
v -0.129327 -0.193262 -0.436263
v -0.090623 -0.188612 -0.418628
v -0.114863 -0.159292 -0.439706
v -0.026988 -0.140498 -0.438551
v -0.058482 -0.128248 -0.439645
v -0.046886 -0.167644 -0.427291
v -0.057589 -0.276808 -0.501632
v -0.063852 -0.255989 -0.515390
v -0.048873 -0.261202 -0.512771
v -0.002482 -0.245778 -0.520274
v -0.005556 -0.223711 -0.514138
v 0.023390 -0.247308 -0.505078
v -0.066802 -0.269918 -0.425998
v -0.059430 -0.294382 -0.438927
v -0.045572 -0.288271 -0.418218
v 0.029010 -0.250346 -0.437947
v 0.016895 -0.228272 -0.416245
v 0.008401 -0.251922 -0.423497
v -0.098622 -0.194548 -0.516833
v -0.116050 -0.175517 -0.502763
v -0.098938 -0.172839 -0.519692
v -0.043952 -0.137247 -0.502523
v -0.035050 -0.158160 -0.521122
v -0.054021 -0.153465 -0.515807
v -0.120592 -0.173323 -0.440597
v -0.116275 -0.189734 -0.419520
v -0.107230 -0.170229 -0.427896
v -0.036168 -0.149323 -0.427502
v -0.043323 -0.129558 -0.440206
v -0.056612 -0.129961 -0.418241
v -0.079770 -0.281460 -0.480774
v -0.035996 -0.310744 -0.480774
v -0.034788 -0.238671 -0.518448
v -0.015666 -0.273800 -0.503530
v 0.009610 -0.226022 -0.480774
v 0.018981 -0.268103 -0.480774
v -0.032990 -0.241970 -0.414131
v -0.005405 -0.292947 -0.435829
v -0.105471 -0.238735 -0.436844
v -0.072527 -0.220816 -0.418121
v 0.001005 -0.180710 -0.437753
v -0.028345 -0.196738 -0.412871
v -0.089128 -0.139314 -0.439642
v -0.069035 -0.175829 -0.413072
v -0.114978 -0.192548 -0.480774
v -0.125196 -0.145164 -0.480774
v -0.020018 -0.133816 -0.480774
v -0.065018 -0.111082 -0.480774
v -0.068277 -0.177218 -0.526367
v -0.089844 -0.137684 -0.505312
v -0.086682 -0.228489 -0.500231
v -0.073900 -0.221564 -0.533573
v -0.007142 -0.185143 -0.503472
v -0.030046 -0.197665 -0.522555
v -0.057160 -0.272775 -0.518143
v 0.003281 -0.236959 -0.515952
v -0.059580 -0.295919 -0.418207
v 0.023771 -0.247648 -0.420375
v -0.099051 -0.184273 -0.511035
v -0.045184 -0.150227 -0.514606
v -0.104104 -0.181812 -0.438010
v -0.042081 -0.116849 -0.414288
v -0.059152 -0.291544 -0.480774
v -0.025015 -0.256605 -0.519168
v 0.018954 -0.245169 -0.480774
v -0.017879 -0.270056 -0.420596
v -0.082556 -0.226247 -0.435019
v -0.002387 -0.182559 -0.409932
v -0.085693 -0.145619 -0.418096
v -0.123584 -0.171783 -0.480774
v -0.042124 -0.117292 -0.480774
v -0.074696 -0.165440 -0.515268
v -0.083446 -0.226766 -0.519504
v -0.018451 -0.191346 -0.519456
v -0.104600 -0.238261 -0.480774
v -0.016682 -0.272253 -0.480774
v -0.050932 -0.209047 -0.528723
v -0.001098 -0.181856 -0.480774
v -0.050932 -0.209047 -0.407004
v -0.098016 -0.123005 -0.480774
vn -0.9900 0.0448 0.1339
vn 0.0243 -0.0484 -0.9985
vn -0.0080 -1.0000 0.0048
vn -0.5755 -0.0644 0.8153
vn -0.3773 -0.8552 0.3555
vn -0.2688 0.2991 0.9156
vn -0.9909 0.0164 0.1334
vn -0.2174 0.9127 -0.3461
vn 0.1463 0.0361 -0.9886
vn -0.9575 -0.0768 0.2780
vn 0.1072 -0.2469 0.9631
vn -0.0671 0.9751 0.2116
vn -0.9800 -0.1925 -0.0496
vn -0.9886 -0.1097 -0.1034
vn -0.0715 -0.9967 -0.0377
vn 0.0116 -0.9991 -0.0397
vn -0.1340 -0.1347 -0.9818
vn -0.0846 -0.9964 0.0054
vn -0.0310 -0.3007 0.9532
vn -0.0318 0.1198 0.9923
vn 0.0742 -0.9908 0.1133
vn 0.0267 -0.9805 0.1947
vn -0.9787 0.1488 0.1415
vn -0.8875 -0.1165 0.4458
vn 0.0403 -0.1620 0.9860
vn 0.0299 0.1254 0.9917
vn -0.0138 0.9987 0.0490
vn 0.0622 0.9745 0.2157
vn -0.0630 0.1488 0.9869
vn 0.0455 0.2785 0.9593
vn -0.9891 0.0542 -0.1370
vn -0.9871 0.1462 0.0654
vn -0.4273 0.9040 0.0180
vn -0.4173 0.9046 -0.0868
vn 0.0573 0.2259 -0.9725
vn -0.0809 0.0405 -0.9959
vn -0.0590 0.8146 -0.5770
vn 0.0581 0.7529 -0.6555
vn -0.9886 -0.0333 -0.1465
vn -0.9983 0.0405 0.0428
vn 0.0514 0.0368 -0.9980
vn -0.2014 0.0016 -0.9795
vn -0.9989 -0.0012 -0.0473
vn -0.9983 0.0402 0.0431
vn -0.9898 0.0458 -0.1353
vn -0.9956 -0.0446 -0.0822
vn -0.0928 -0.9938 -0.0617
vn -0.0733 -0.9969 0.0269
vn -0.1801 0.1435 -0.9731
vn -0.5414 -0.8334 0.1109
vn -0.5348 -0.0710 -0.8420
vn -0.1561 -0.0566 -0.9861
vn -0.5274 -0.1957 -0.8267
vn -0.4557 0.6398 -0.6188
vn -0.5348 0.8445 0.0287
vn -0.5511 -0.8343 -0.0124
vn -0.1897 -0.1732 0.9664
vn -0.5040 0.8575 0.1037
vn -0.5358 -0.0381 0.8435
vn -0.1831 0.1372 0.9735
vn 0.0985 0.9928 0.0677
vn -0.5246 -0.7792 -0.3430
vn -0.5530 -0.8285 0.0887
vn -0.0099 0.9999 0.0086
vn 0.0802 0.9934 0.0823
vn 0.2432 0.9659 0.0884
vn 0.0377 0.9955 0.0871
vn 0.1253 0.9907 0.0523
vn 0.1739 0.1580 0.9720
vn 0.5145 0.0999 0.8516
vn 0.0812 -0.1567 0.9843
vn 0.2529 -0.0440 0.9665
vn 0.0864 -0.1011 -0.9911
vn 0.2571 -0.0685 -0.9640
vn 0.0905 0.1689 -0.9815
vn 0.2789 0.1393 -0.9502
vn 0.0807 -0.9903 0.1132
vn 0.2545 -0.9629 0.0894
vn -0.0159 -0.9952 -0.0963
vn -0.0379 -0.9992 -0.0103
vn -0.5023 0.0734 0.8616
vn 0.1635 0.7221 -0.6722
vn -0.5266 0.1061 0.8435
vn 0.1738 0.2215 -0.9595
vn -0.5179 -0.3622 0.7750
vn 0.1483 0.0669 0.9867
vn -0.5386 0.1209 -0.8338
vn -0.0371 0.9991 0.0202
vn -0.4499 0.3200 -0.8338
vn 0.0826 -0.9900 0.1147
vn -0.5551 0.8299 0.0556
vn -0.0891 -0.3768 0.9220
vn -0.0018 -0.9981 0.0608
vn 0.0182 -0.9681 -0.2500
vn 0.0927 -0.0700 -0.9932
vn 0.2724 -0.1709 -0.9469
vn 0.1564 -0.3232 -0.9333
vn 0.9876 0.0280 -0.1543
vn 0.2599 -0.7309 -0.6311
vn 0.9950 0.0951 -0.0292
vn 0.3480 -0.1595 0.9238
vn 0.1716 -0.9826 -0.0713
vn 0.9438 0.3247 0.0612
vn -0.0151 0.2206 -0.9753
vn 0.1874 0.9279 -0.3224
vn 0.9975 0.0706 -0.0043
vn 0.3035 0.9527 0.0162
vn 0.1862 -0.0158 0.9824
vn 0.1326 -0.3305 -0.9344
vn 0.0248 -0.7840 -0.6202
vn 0.9990 0.0175 -0.0413
vn 0.9641 -0.2370 0.1197
vn 0.2515 -0.9653 0.0700
vn 0.3235 -0.9422 0.0871
vn 0.8401 -0.2014 0.5037
vn 0.8806 0.1896 0.4343
vn 0.1189 0.0697 0.9905
vn 0.3595 -0.0033 0.9331
vn 0.9676 0.2188 0.1257
vn 0.9532 0.2940 -0.0707
vn 0.2908 0.9567 0.0117
vn 0.2288 0.9721 0.0509
vn 0.9727 0.1522 -0.1755
vn 0.9757 -0.1976 -0.0951
vn 0.1559 -0.0592 -0.9860
vn 0.0683 0.0852 -0.9940
vn -0.0072 -0.9978 0.0654
vn 0.1096 -0.9911 0.0762
vn 0.1267 0.1223 -0.9844
vn 0.1178 -0.0470 -0.9919
vn 0.9648 0.2526 0.0736
vn 0.9676 -0.2399 0.0782
vn 0.9665 -0.2404 -0.0898
vn 0.9769 0.2099 -0.0408
vn 0.1117 0.0475 0.9926
vn 0.2377 0.0832 0.9678
vn 0.0545 0.9983 0.0228
vn 0.0974 0.9923 0.0764
vn -0.0131 0.6918 -0.7219
vn -0.0490 0.3764 -0.9252
vn 0.0748 0.0040 0.9972
vn -0.0202 0.9916 0.1277
vn 0.0462 -0.9943 0.0959
vn -0.0325 -0.4913 0.8704
vn -0.6544 -0.5439 -0.5253
vn 0.1707 -0.0043 -0.9853
vn 0.1801 -0.6361 -0.7503
vn 0.4655 0.2967 -0.8338
vn 0.6562 0.6765 -0.3344
vn 0.5072 0.0194 -0.8616
vn -0.9241 -0.3543 0.1435
vn 0.1921 -0.9687 0.1573
vn -0.4139 -0.0950 0.9053
vn 0.9136 0.3907 0.1126
vn -0.1591 -0.2368 0.9584
vn 0.2296 -0.9471 0.2242
vn -0.3226 0.3537 -0.8780
vn -0.6884 -0.1217 -0.7151
vn -0.5600 -0.1162 -0.8203
vn 0.2961 0.7020 -0.6477
vn -0.2854 -0.0710 -0.9558
vn 0.1865 0.5506 -0.8136
vn -0.2866 0.7266 0.6244
vn -0.5948 0.5339 0.6010
vn -0.6363 -0.2490 0.7301
vn 0.8956 0.4195 0.1482
vn -0.3437 0.9194 -0.1911
vn 0.1832 -0.2600 0.9481
vn -0.6845 -0.7206 0.1102
vn -0.3547 -0.7587 -0.5464
vn -0.5186 -0.6623 -0.5408
vn -0.4473 -0.8891 0.0972
vn -0.0810 -0.1957 -0.9773
vn -0.0705 -0.0647 -0.9954
vn 0.0594 -0.5325 -0.8444
vn 0.0546 -0.4930 -0.8683
vn 0.7645 0.6332 -0.1211
vn 0.8873 0.4342 -0.1553
vn 0.8307 -0.5555 0.0358
vn 0.9906 -0.0967 0.0970
vn 0.2200 -0.0032 0.9755
vn 0.1697 -0.1323 0.9766
vn 0.2230 -0.6874 0.6912
vn 0.6590 -0.4111 0.6299
vn -0.2879 -0.3750 0.8812
vn -0.4058 -0.1924 0.8935
vn -0.7463 -0.1894 0.6381
vn -0.3363 -0.4357 0.8349
vn 0.9317 0.3520 0.0901
vn 0.6545 0.6479 0.3896
vn -0.2819 0.2401 0.9289
vn -0.0868 -0.2283 0.9697
vn -0.3984 0.8915 0.2156
vn -0.6445 0.5707 0.5089
vn -0.3579 0.0295 0.9333
vn 0.2521 0.0407 0.9668
vn -0.9991 -0.0363 0.0206
vn -0.9910 -0.0110 -0.1332
vn -0.9792 0.0953 0.1790
vn -0.8844 0.0680 -0.4617
vn 0.5580 0.7953 0.2371
vn 0.4497 0.6622 -0.5994
vn 0.2821 0.7374 -0.6138
vn 0.1881 0.9279 0.3220
vn 0.1343 0.3342 -0.9329
vn -0.1818 0.1958 -0.9636
vn -0.2257 0.4183 -0.8798
vn -0.1240 0.3388 -0.9327
vn -0.7882 -0.3935 -0.4732
vn -0.6011 -0.5117 -0.6138
vn -0.5860 -0.0346 -0.8096
vn -0.3909 -0.5165 -0.7619
vn 0.7263 0.3738 -0.5769
vn 0.8511 0.1722 -0.4960
vn 0.4407 0.1272 -0.8886
vn -0.2271 0.0066 -0.9739
vn -0.7905 -0.6003 0.1214
vn -0.9239 -0.3458 -0.1636
vn -0.8220 -0.5105 -0.2524
vn -0.7251 -0.3188 -0.6104
vn 0.6735 -0.6192 -0.4036
vn 0.1111 -0.9907 0.0789
vn 0.6202 -0.7788 -0.0940
vn 0.5951 -0.7987 -0.0888
vn -0.1925 0.1811 -0.9644
vn 0.2705 0.3376 -0.9016
vn 0.1182 -0.1125 -0.9866
vn 0.2438 -0.2668 -0.9324
vn 0.8798 0.4684 0.0807
vn 0.9522 0.2852 -0.1099
vn 0.9166 0.1765 -0.3586
vn 0.8257 0.3881 -0.4093
vn -0.1493 -0.0933 0.9844
vn 0.3279 -0.0599 0.9428
vn 0.2083 0.4139 0.8862
vn -0.3184 -0.0813 0.9445
vn -0.5715 0.7170 0.3991
vn -0.3102 0.8588 0.4077
vn -0.2292 0.7669 -0.5995
vn -0.5486 0.5621 -0.6190
vt 0.335507 0.196277
vt 0.335892 0.180536
vt 0.344207 0.180963
vt 0.348683 0.189919
vt 0.337840 0.165139
vt 0.350031 0.172856
vt 0.360501 0.182464
vt 0.368423 0.357538
vt 0.383883 0.354535
vt 0.385104 0.367864
vt 0.373641 0.376338
vt 0.400432 0.357933
vt 0.395544 0.372049
vt 0.383287 0.389429
vt 0.181792 0.234833
vt 0.164230 0.235214
vt 0.163985 0.223237
vt 0.172917 0.218102
vt 0.145250 0.233848
vt 0.153229 0.216383
vt 0.162211 0.201432
vt 0.217176 0.390010
vt 0.217223 0.406753
vt 0.203964 0.408661
vt 0.201782 0.395075
vt 0.214067 0.423452
vt 0.199451 0.415541
vt 0.182980 0.387323
vt 0.349786 0.278368
vt 0.375005 0.274324
vt 0.402871 0.267894
vt 0.352407 0.084949
vt 0.392282 0.107934
vt 0.426623 0.142453
vt 0.468584 0.479397
vt 0.430672 0.446722
vt 0.452302 0.410163
vt 0.498032 0.435719
vt 0.470399 0.372238
vt 0.515120 0.387291
vt 0.292025 0.370787
vt 0.297673 0.401204
vt 0.305111 0.434299
vt 0.090451 0.480138
vt 0.126013 0.447890
vt 0.157856 0.477386
vt 0.126641 0.520337
vt 0.194098 0.499753
vt 0.174958 0.544468
vt 0.200629 0.311464
vt 0.177268 0.316916
vt 0.152584 0.310451
vt 0.075256 0.109839
vt 0.112391 0.141330
vt 0.089714 0.175802
vt 0.046635 0.151916
vt 0.072942 0.215974
vt 0.028348 0.202191
vt 0.255708 0.213393
vt 0.248324 0.186546
vt 0.242007 0.156978
vt 0.274668 0.293041
vt 0.477014 0.252471
vt 0.221575 0.066396
vt 0.839924 0.785329
vt 0.844479 0.759479
vt 0.872640 0.765252
vt 0.861207 0.802005
vt 0.824951 0.514976
vt 0.719541 0.504153
vt 0.719602 0.475032
vt 0.832945 0.487284
vt 0.849837 0.524284
vt 0.867664 0.503633
vt 0.593296 0.521914
vt 0.575118 0.540201
vt 0.548603 0.529779
vt 0.576696 0.505435
vt 0.578969 0.647372
vt 0.550538 0.647741
vt 0.857464 0.655616
vt 0.863368 0.548207
vt 0.889960 0.540266
vt 0.885607 0.657875
vt 0.324113 0.522199
vt 0.580309 0.751347
vt 0.581332 0.777634
vt 0.562939 0.796017
vt 0.552874 0.753955
vt 0.710328 0.795133
vt 0.816371 0.797080
vt 0.823254 0.824409
vt 0.708025 0.824409
vt 0.073381 0.340909
vt 0.031814 0.350360
vt 0.018343 0.353641
vt 0.007622 0.195409
vt 0.076264 0.493572
vt 0.333356 0.562716
vt 0.337124 0.580588
vt 0.166435 0.563445
vt 0.487441 0.493888
vt 0.211802 0.024249
vt 0.371736 0.042121
vt 0.207835 0.007622
vt 0.381991 0.023220
vt 0.058544 0.097558
vt 0.518608 0.243866
vt 0.533358 0.241073
vt 0.533358 0.393647
vt 0.460848 0.109527
vt 0.478668 0.091571
vt 0.607674 0.779709
vt 0.602912 0.807916
vt 0.027410 0.141241
vt 0.111099 0.539688
vt 0.615339 0.515886
vt 0.608818 0.487690
vt 0.518550 0.446630
vt 0.418042 0.074969
vt 0.431747 0.057551
vt 0.637503 0.071991
vt 0.656749 0.116967
vt 0.632485 0.121938
vt 0.603457 0.094984
vt 0.664627 0.153474
vt 0.628494 0.149318
vt 0.581293 0.137435
vt 0.668795 0.350764
vt 0.668453 0.374492
vt 0.648238 0.370278
vt 0.643968 0.352517
vt 0.657344 0.405741
vt 0.631074 0.387914
vt 0.611556 0.363773
vt 0.878292 0.154530
vt 0.882609 0.118293
vt 0.904669 0.123414
vt 0.910370 0.151121
vt 0.900204 0.069086
vt 0.930617 0.092338
vt 0.951955 0.133800
vt 0.863328 0.355766
vt 0.889600 0.358969
vt 0.881620 0.380343
vt 0.861113 0.384217
vt 0.922928 0.373537
vt 0.899688 0.401824
vt 0.866300 0.420323
vt 0.623896 0.037984
vt 0.573467 0.068777
vt 0.548603 0.127826
vt 0.668907 0.252636
vt 0.630830 0.254241
vt 0.578726 0.260690
vt 0.765202 0.348570
vt 0.764432 0.385989
vt 0.761977 0.431875
vt 0.868257 0.256992
vt 0.906601 0.259992
vt 0.960798 0.266563
vt 0.769512 0.153249
vt 0.770059 0.107076
vt 0.771134 0.041031
vt 0.548603 0.265366
vt 0.586321 0.375506
vt 0.914709 0.037491
vt 0.771461 0.007622
vt 0.767752 0.252082
vt 0.646791 0.431665
vt 0.760535 0.459787
vt 0.873353 0.446800
vt 0.950248 0.386700
vt 0.991887 0.271728
vt 0.992378 0.120735
vt 0.963074 0.067283
vt 0.916442 0.424467
vt 0.610283 0.407130
vt 0.026516 0.714726
vt 0.029608 0.719788
vt 0.024498 0.721112
vt 0.021284 0.717535
vt 0.028853 0.725035
vt 0.023697 0.723519
vt 0.018541 0.722002
vt 0.027640 0.595833
vt 0.032795 0.597349
vt 0.032115 0.599802
vt 0.027512 0.601073
vt 0.037951 0.598866
vt 0.035414 0.603657
vt 0.030279 0.606257
vt 0.018058 0.699219
vt 0.012864 0.702097
vt 0.011596 0.697459
vt 0.015476 0.693879
vt 0.007622 0.701985
vt 0.009139 0.696829
vt 0.010655 0.691673
vt 0.051296 0.623331
vt 0.051265 0.632211
vt 0.046913 0.627135
vt 0.044958 0.621158
vt 0.046932 0.637008
vt 0.042889 0.629771
vt 0.039291 0.622779
vt 0.043366 0.705936
vt 0.050074 0.702119
vt 0.052923 0.706919
vt 0.048384 0.710936
vt 0.057305 0.698754
vt 0.059414 0.705738
vt 0.057362 0.713813
vt 0.092241 0.690460
vt 0.089220 0.699430
vt 0.085066 0.694828
vt 0.083415 0.688002
vt 0.083348 0.704469
vt 0.079602 0.697684
vt 0.076179 0.690223
vt 0.034570 0.689811
vt 0.033083 0.682885
vt 0.038918 0.681244
vt 0.041411 0.686237
vt 0.035525 0.673779
vt 0.043424 0.676422
vt 0.048155 0.681980
vt 0.074043 0.657098
vt 0.071321 0.665831
vt 0.066420 0.660642
vt 0.064443 0.654005
vt 0.065547 0.670730
vt 0.061097 0.663758
vt 0.057215 0.656557
vt 0.022055 0.707099
vt 0.016767 0.709983
vt 0.013082 0.711994
vt 0.007622 0.606751
vt 0.017631 0.601292
vt 0.019331 0.605039
vt 0.009442 0.610088
vt 0.022106 0.610194
vt 0.011262 0.613424
vt 0.044624 0.611099
vt 0.040385 0.612081
vt 0.034734 0.614203
vt 0.039066 0.642417
vt 0.035263 0.634475
vt 0.029459 0.646786
vt 0.025820 0.640113
vt 0.022180 0.633441
vt 0.031288 0.627029
vt 0.026019 0.694525
vt 0.023973 0.688077
vt 0.023090 0.682726
vt 0.062670 0.640215
vt 0.058209 0.642890
vt 0.052154 0.646779
vt 0.056922 0.676347
vt 0.052198 0.669684
vt 0.047591 0.662890
vt 0.038528 0.698114
vt 0.045669 0.694219
vt 0.053019 0.690209
vt 0.084972 0.672780
vt 0.077977 0.676596
vt 0.071106 0.680344
vt 0.072963 0.709406
vt 0.069821 0.701992
vt 0.066787 0.694434
vt 0.034772 0.710573
vt 0.039086 0.715784
vt 0.043107 0.719424
vt 0.097851 0.704714
vt 0.094355 0.709022
vt 0.103462 0.718969
vt 0.100126 0.720789
vt 0.096790 0.722609
vt 0.088705 0.713283
vt 0.029999 0.702766
vt 0.026526 0.618270
vt 0.016721 0.623432
vt 0.079061 0.718322
vt 0.067067 0.723670
vt 0.086781 0.728068
vt 0.076773 0.733527
vt 0.087540 0.654065
vt 0.095004 0.667309
vt 0.101036 0.651032
vt 0.106495 0.661041
vt 0.111955 0.671049
vt 0.102098 0.680754
vt 0.043218 0.652837
vt 0.032492 0.660282
vt 0.062155 0.685226
s 0
usemtl block
f 1/1/1 14/2/1 41/3/1 13/4/1
f 2/5/2 15/6/2 41/3/2 14/2/2
f 3/7/3 13/4/3 41/3/3 15/6/3
f 4/8/4 17/9/4 42/10/4 16/11/4
f 5/12/5 18/13/5 42/10/5 17/9/5
f 6/14/6 16/11/6 42/10/6 18/13/6
f 7/15/7 20/16/7 43/17/7 19/18/7
f 8/19/8 21/20/8 43/17/8 20/16/8
f 9/21/9 19/18/9 43/17/9 21/20/9
f 10/22/10 23/23/10 44/24/10 22/25/10
f 11/26/11 24/27/11 44/24/11 23/23/11
f 12/28/12 22/25/12 44/24/12 24/27/12
f 4/8/13 25/29/13 45/30/13 17/9/13
f 25/29/14 1/1/14 13/4/14 45/30/14
f 45/30/15 13/4/15 3/7/15 26/31/15
f 17/9/16 45/30/16 26/31/16 5/12/16
f 2/5/17 27/32/17 46/33/17 15/6/17
f 15/6/18 46/33/18 28/34/18 3/7/18
f 63/35/19 29/36/19 47/37/19 77/38/19
f 29/36/20 6/14/20 18/13/20 47/37/20
f 47/37/21 18/13/21 5/12/21 30/39/21
f 77/38/22 47/37/22 30/39/22 64/40/22
f 10/22/23 31/41/23 48/42/23 23/23/23
f 31/41/24 4/8/24 16/11/24 48/42/24
f 48/42/25 16/11/25 6/14/25 32/43/25
f 23/23/26 48/42/26 32/43/26 11/26/26
f 67/44/27 33/45/27 49/46/27 79/47/27
f 33/45/28 12/28/28 24/27/28 49/46/28
f 49/46/29 24/27/29 11/26/29 34/48/29
f 79/47/30 49/46/30 34/48/30 68/49/30
f 7/15/31 35/50/31 50/51/31 20/16/31
f 35/50/32 10/22/32 22/25/32 50/51/32
f 50/51/33 22/25/33 12/28/33 36/52/33
f 20/16/34 50/51/34 36/52/34 8/19/34
f 71/53/35 37/54/35 51/55/35 81/56/35
f 37/54/36 9/21/36 21/20/36 51/55/36
f 51/55/37 21/20/37 8/19/37 38/57/37
f 81/56/38 51/55/38 38/57/38 72/58/38
f 1/1/39 39/59/39 52/60/39 14/2/39
f 39/59/40 7/15/40 19/18/40 52/60/40
f 52/60/41 19/18/41 9/21/41 40/61/41
f 14/2/42 52/60/42 40/61/42 2/5/42
f 4/8/43 31/41/43 53/62/43 25/29/43
f 31/41/44 10/22/44 35/50/44 53/62/44
f 53/62/45 35/50/45 7/15/45 39/59/45
f 25/29/46 53/62/46 39/59/46 1/1/46
f 3/7/47 28/34/47 54/63/47 26/31/47
f 26/31/48 54/63/48 30/39/48 5/12/48
f 9/21/49 37/54/49 55/64/49 40/61/49
f 76/65/50 65/66/50 117/67/50 140/68/50
f 59/69/51 84/70/51 144/71/51 114/72/51
f 40/61/52 55/64/52 27/32/52 2/5/52
f 74/73/53 59/69/53 114/72/53 139/74/53
f 80/75/54 73/76/54 123/77/54 142/78/54
f 73/76/55 88/79/55 146/80/55 123/77/55
f 82/81/56 60/82/56 135/83/56 143/84/56
f 6/14/57 29/36/57 56/85/57 32/43/57
f 66/86/58 78/87/58 141/88/58 137/89/58
f 86/90/59 62/91/59 136/92/59 145/93/59
f 32/43/60 56/85/60 34/48/60 11/26/60
f 12/28/61 33/45/61 57/94/61 36/52/61
f 60/82/62 74/73/62 139/74/62 135/83/62
f 65/66/63 82/81/63 143/84/63 117/67/63
f 36/52/64 57/94/64 38/57/64 8/19/64
f 57/94/65 89/95/65 72/58/65 38/57/65
f 89/95/66 88/96/66 73/97/66 72/58/66
f 33/45/67 67/44/67 89/95/67 57/94/67
f 67/44/68 66/98/68 88/96/68 89/95/68
f 56/85/69 87/99/69 68/49/69 34/48/69
f 87/99/70 86/100/70 69/101/70 68/49/70
f 29/36/71 63/35/71 87/99/71 56/85/71
f 63/35/72 62/102/72 86/100/72 87/99/72
f 55/64/73 85/103/73 58/104/73 27/32/73
f 85/103/74 84/105/74 59/106/74 58/104/74
f 37/54/75 71/53/75 85/103/75 55/64/75
f 71/53/76 70/107/76 84/105/76 85/103/76
f 54/63/77 83/108/77 64/40/77 30/39/77
f 83/108/78 82/109/78 65/110/78 64/40/78
f 28/34/79 61/111/79 83/108/79 54/63/79
f 61/111/80 60/112/80 82/109/80 83/108/80
f 78/87/81 69/113/81 120/114/81 141/88/81
f 80/115/82 81/56/82 72/58/82 73/97/82
f 69/113/83 86/90/83 145/93/83 120/114/83
f 70/107/84 71/53/84 81/56/84 80/115/84
f 62/91/85 76/65/85 140/68/85 136/92/85
f 78/116/86 79/47/86 68/49/86 69/101/86
f 84/70/87 70/117/87 138/118/87 144/71/87
f 66/98/88 67/44/88 79/47/88 78/116/88
f 70/117/89 80/75/89 142/78/89 138/118/89
f 76/119/90 77/38/90 64/40/90 65/110/90
f 88/79/91 66/86/91 137/89/91 146/80/91
f 62/102/92 63/35/92 77/38/92 76/119/92
f 46/33/93 75/120/93 61/111/93 28/34/93
f 75/120/94 74/121/94 60/112/94 61/111/94
f 27/32/95 58/104/95 75/120/95 46/33/95
f 58/104/96 59/106/96 74/121/96 75/120/96
f 92/122/97 93/123/97 126/124/97 91/125/97
f 94/126/98 95/127/98 126/124/98 93/123/98
f 90/128/99 91/125/99 126/124/99 95/127/99
f 98/129/100 99/130/100 127/131/100 97/132/100
f 100/133/101 101/134/101 127/131/101 99/130/101
f 96/135/102 97/132/102 127/131/102 101/134/102
f 104/136/103 105/137/103 128/138/103 103/139/103
f 106/140/104 107/141/104 128/138/104 105/137/104
f 102/142/105 103/139/105 128/138/105 107/141/105
f 110/143/106 111/144/106 129/145/106 109/146/106
f 112/147/107 113/148/107 129/145/107 111/144/107
f 108/149/108 109/146/108 129/145/108 113/148/108
f 114/150/109 92/122/109 91/125/109 139/151/109
f 139/151/110 91/125/110 90/128/110 135/152/110
f 94/126/111 115/153/111 130/154/111 95/127/111
f 115/153/112 98/129/112 97/132/112 130/154/112
f 130/154/113 97/132/113 96/135/113 116/155/113
f 95/127/114 130/154/114 116/155/114 90/128/114
f 98/129/115 118/156/115 131/157/115 99/130/115
f 118/156/116 110/143/116 109/146/116 131/157/116
f 131/157/117 109/146/117 108/149/117 119/158/117
f 99/130/118 131/157/118 119/158/118 100/133/118
f 110/143/119 121/159/119 132/160/119 111/144/119
f 121/159/120 104/136/120 103/139/120 132/160/120
f 132/160/121 103/139/121 102/142/121 122/161/121
f 111/144/122 132/160/122 122/161/122 112/147/122
f 104/136/123 124/162/123 133/163/123 105/137/123
f 124/162/124 94/126/124 93/123/124 133/163/124
f 133/163/125 93/123/125 92/122/125 125/164/125
f 105/137/126 133/163/126 125/164/126 106/140/126
f 135/152/127 90/128/127 116/155/127 143/165/127
f 143/165/128 116/155/128 96/135/128 117/166/128
f 138/167/129 106/140/129 125/164/129 144/168/129
f 144/168/130 125/164/130 92/122/130 114/150/130
f 110/143/131 118/156/131 134/169/131 121/159/131
f 118/156/132 98/129/132 115/153/132 134/169/132
f 134/169/133 115/153/133 94/126/133 124/162/133
f 121/159/134 134/169/134 124/162/134 104/136/134
f 136/170/135 100/133/135 119/158/135 145/171/135
f 145/171/136 119/158/136 108/149/136 120/172/136
f 137/173/137 112/147/137 122/161/137 146/174/137
f 146/174/138 122/161/138 102/142/138 123/175/138
f 107/141/139 142/176/139 123/175/139 102/142/139
f 106/140/140 138/167/140 142/176/140 107/141/140
f 113/148/141 141/177/141 120/172/141 108/149/141
f 112/147/142 137/173/142 141/177/142 113/148/142
f 101/134/143 140/178/143 117/166/143 96/135/143
f 100/133/144 136/170/144 140/178/144 101/134/144
f 147/179/145 172/180/145 219/181/145 171/182/145
f 148/183/146 173/184/146 219/181/146 172/180/146
f 149/185/147 171/182/147 219/181/147 173/184/147
f 150/186/148 175/187/148 220/188/148 174/189/148
f 151/190/149 176/191/149 220/188/149 175/187/149
f 152/192/150 174/189/150 220/188/150 176/191/150
f 153/193/151 178/194/151 221/195/151 177/196/151
f 154/197/152 179/198/152 221/195/152 178/194/152
f 155/199/153 177/196/153 221/195/153 179/198/153
f 156/200/154 181/201/154 222/202/154 180/203/154
f 157/204/155 182/205/155 222/202/155 181/201/155
f 158/206/156 180/203/156 222/202/156 182/205/156
f 159/207/157 184/208/157 223/209/157 183/210/157
f 160/211/158 185/212/158 223/209/158 184/208/158
f 161/213/159 183/210/159 223/209/159 185/212/159
f 162/214/160 187/215/160 224/216/160 186/217/160
f 163/218/161 188/219/161 224/216/161 187/215/161
f 164/220/162 186/217/162 224/216/162 188/219/162
f 165/221/163 190/222/163 225/223/163 189/224/163
f 166/225/164 191/226/164 225/223/164 190/222/164
f 167/227/165 189/224/165 225/223/165 191/226/165
f 168/228/166 193/229/166 226/230/166 192/231/166
f 169/232/167 194/233/167 226/230/167 193/229/167
f 170/234/168 192/231/168 226/230/168 194/233/168
f 153/193/169 195/235/169 227/236/169 178/194/169
f 195/235/170 147/179/170 171/182/170 227/236/170
f 227/236/171 171/182/171 149/185/171 196/237/171
f 178/194/172 227/236/172 196/237/172 154/197/172
f 148/238/173 197/239/173 228/240/173 173/241/173
f 197/239/174 150/186/174 174/189/174 228/240/174
f 228/240/175 174/189/175 152/192/175 198/242/175
f 173/241/176 228/240/176 198/242/176 149/243/176
f 151/190/177 199/244/177 229/245/177 176/191/177
f 199/244/178 156/200/178 180/203/178 229/245/178
f 229/245/179 180/203/179 158/206/179 200/246/179
f 176/191/180 229/245/180 200/246/180 152/192/180
f 157/204/181 201/247/181 230/248/181 182/205/181
f 201/247/182 155/249/182 179/250/182 230/248/182
f 230/248/183 179/250/183 154/251/183 202/252/183
f 182/205/184 230/248/184 202/252/184 158/206/184
f 165/221/185 203/253/185 231/254/185 190/222/185
f 203/253/186 153/193/186 177/196/186 231/254/186
f 231/254/187 177/196/187 155/199/187 204/255/187
f 190/222/188 231/254/188 204/255/188 166/225/188
f 156/200/189 205/256/189 232/257/189 181/201/189
f 205/256/190 168/228/190 192/231/190 232/257/190
f 232/257/191 192/231/191 170/234/191 206/258/191
f 181/201/192 232/257/192 206/258/192 157/204/192
f 169/232/193 207/259/193 233/260/193 194/233/193
f 207/259/194 167/227/194 191/226/194 233/260/194
f 233/260/195 191/226/195 166/225/195 208/261/195
f 194/233/196 233/260/196 208/261/196 170/234/196
f 159/207/197 209/262/197 234/263/197 184/208/197
f 209/262/198 165/221/198 189/224/198 234/263/198
f 234/263/199 189/224/199 167/227/199 210/264/199
f 184/208/200 234/263/200 210/264/200 160/211/200
f 168/228/201 211/265/201 235/266/201 193/229/201
f 211/265/202 162/214/202 186/217/202 235/266/202
f 235/266/203 186/217/203 164/220/203 212/267/203
f 193/229/204 235/266/204 212/267/204 169/232/204
f 163/218/205 213/268/205 236/269/205 188/219/205
f 213/268/206 161/213/206 185/212/206 236/269/206
f 236/269/207 185/212/207 160/211/207 214/270/207
f 188/219/208 236/269/208 214/270/208 164/220/208
f 147/179/209 215/271/209 237/272/209 172/180/209
f 215/271/210 159/207/210 183/210/210 237/272/210
f 237/272/211 183/210/211 161/213/211 216/273/211
f 172/180/212 237/272/212 216/273/212 148/183/212
f 162/214/213 217/274/213 238/275/213 187/215/213
f 217/274/214 151/276/214 175/277/214 238/275/214
f 238/275/215 175/277/215 150/278/215 218/279/215
f 187/215/216 238/275/216 218/279/216 163/218/216
f 153/193/217 203/253/217 239/280/217 195/235/217
f 203/253/218 165/221/218 209/262/218 239/280/218
f 239/280/219 209/262/219 159/207/219 215/271/219
f 195/235/220 239/280/220 215/271/220 147/179/220
f 149/243/221 198/242/221 240/281/221 196/282/221
f 198/242/222 152/192/222 200/246/222 240/281/222
f 240/281/223 200/246/223 158/206/223 202/252/223
f 196/282/224 240/281/224 202/252/224 154/251/224
f 161/213/225 213/268/225 241/283/225 216/284/225
f 213/268/226 163/218/226 218/279/226 241/283/226
f 241/283/227 218/279/227 150/278/227 197/285/227
f 216/284/228 241/283/228 197/285/228 148/286/228
f 168/228/229 205/287/229 242/288/229 211/265/229
f 205/287/230 156/289/230 199/290/230 242/288/230
f 242/288/231 199/290/231 151/291/231 217/292/231
f 211/265/232 242/288/232 217/292/232 162/214/232
f 155/249/233 201/247/233 243/293/233 204/294/233
f 201/247/234 157/204/234 206/258/234 243/293/234
f 243/293/235 206/258/235 170/234/235 208/261/235
f 204/294/236 243/293/236 208/261/236 166/225/236
f 167/227/237 207/259/237 244/295/237 210/264/237
f 207/259/238 169/232/238 212/267/238 244/295/238
f 244/295/239 212/267/239 164/220/239 214/270/239
f 210/264/240 244/295/240 214/270/240 160/211/240
