# Blender 5.2.2 LTS
# www.blender.org
mtllib finalBossHand_2.mtl
o 立方体.006
v -4.277828 -15.036066 -4.097986
v -4.326269 -15.019007 -4.147030
v -3.845016 -12.988888 -3.413739
v -4.547170 -15.342812 -4.128798
v -4.457967 -15.384029 -3.994793
v -4.251328 -15.051222 -4.033187
v -4.541196 -15.584763 -4.104167
v -4.589166 -14.993496 -3.866681
v -4.540167 -14.961775 -3.792997
v -4.619938 -14.925241 -3.913004
v -4.323969 -13.033409 -3.079644
v -4.254006 -13.021711 -2.967130
v -4.460829 -11.152077 -1.817760
v -4.377835 -12.938223 -3.139409
v -4.633707 -14.780329 -3.932706
v -4.538597 -11.045141 -1.854202
v -4.415648 -12.755625 -3.146144
v -4.635034 -14.593109 -3.931446
v -4.443196 -12.525612 -3.112771
v -4.634397 -10.880108 -1.824721
v -6.001902 -8.629646 0.581237
v -6.110229 -8.549891 0.486983
v -4.737075 -10.682478 -1.749559
v -4.463928 -12.274771 -3.048242
v -6.224990 -8.418060 0.421867
v -4.832030 -10.541676 -1.668071
v -6.338466 -8.245409 0.380550
v -5.122815 -10.229645 -1.345096
v -4.504375 -11.772562 -2.831437
v -4.520916 -13.318581 -3.591544
v -4.602093 -11.002874 -2.286753
v -4.595912 -13.972664 -3.830000
v -4.522739 -13.631117 -3.774151
v -4.564067 -14.114941 -3.937146
v -4.626842 -14.387859 -3.913888
v -4.575105 -14.491833 -4.031154
v -4.569529 -14.778803 -4.087055
v -4.493023 -14.690905 -4.136033
v -4.525907 -14.471359 -4.076270
v -4.208755 -12.565290 -3.422152
v -4.525039 -14.138378 -3.976206
v -4.289763 -12.302467 -3.289025
v -4.344110 -10.449625 -1.987565
v -4.538326 -10.375435 -1.860274
v -4.350477 -11.905001 -3.065498
v -4.502329 -13.612518 -3.782927
v -4.457952 -11.283226 -2.635189
v -4.754033 -10.216183 -1.645532
v -5.360539 -9.713257 -0.979539
v -6.283494 -7.915128 0.177070
v -6.059340 -8.191811 0.116668
v -5.859470 -8.294626 0.092474
v -7.646581 -3.671790 0.373471
v -7.531180 -3.613863 0.404038
v -7.700839 -0.535851 -0.017579
v -7.592587 -0.439598 0.009757
v -7.409513 -3.530592 0.441465
v -7.476155 -0.344894 0.051037
v -7.294933 -3.431985 0.498089
v -5.665582 -8.331232 0.104071
v -4.153882 -10.514996 -2.075981
v -5.497288 -8.310087 0.158807
v -3.985480 -10.584093 -2.112523
v -5.365786 -8.255692 0.254100
v -7.201884 -3.311568 0.585917
v -7.146753 -3.186412 0.695757
v -7.282564 -0.198407 0.192894
v -7.368804 -0.265241 0.111220
v -6.944429 2.146389 0.447663
v -7.050734 1.984131 0.354802
v -7.473928 4.869276 2.042921
v -7.509955 4.536208 1.793518
v -7.159702 1.763186 0.262795
v -7.521495 4.156705 1.534167
v -7.259242 1.525249 0.181878
v -7.484783 3.678998 1.217592
v -7.338094 1.237844 0.085874
v -7.786197 -0.656712 -0.053322
v -7.423225 0.977145 -0.005195
v -7.464300 3.161569 0.907570
v -7.467150 2.814377 0.734053
v -7.496615 3.161063 0.934451
v -7.549407 3.616884 1.235116
v -7.538156 2.977864 0.892886
v -7.605346 3.426896 1.207042
v -7.497163 1.174569 0.188508
v -7.452527 1.516422 0.377407
v -7.689464 3.941002 1.618546
v -7.422591 1.739332 0.516567
v -7.742337 4.236501 1.891871
v -7.611225 4.143595 1.617481
v -7.666990 4.600923 1.986046
v -7.743926 5.077594 2.432369
v -7.788909 4.520276 2.182257
v -7.812556 4.748231 2.450231
v -7.339988 2.173795 0.838722
v -7.384656 1.970074 0.674591
v -7.747511 0.071748 0.503936
v -7.804379 -0.072933 0.386356
v -7.855670 -0.226710 0.280965
v -7.942881 -3.314579 0.718275
v -7.925857 -3.150550 0.831697
v -7.898982 -2.992051 0.958672
v -7.693989 0.182418 0.630499
v -7.652838 0.239455 0.756784
v -7.862359 -2.862066 1.093360
v -5.854777 -8.560524 0.873987
v -5.912256 -8.638083 0.711197
v -4.412356 -11.180939 -1.705082
v -4.390670 -11.145197 -1.538347
v -4.176438 -12.920357 -2.815144
v -4.100682 -12.768194 -2.642338
v -4.413648 -14.704180 -3.603454
v -4.479382 -14.853895 -3.702053
v -4.323291 -14.894205 -3.717992
v -4.386117 -15.144302 -3.859576
v -4.231039 -14.962847 -3.848099
v -4.239364 -15.037741 -3.950820
v -3.803540 -13.029539 -3.320827
v -3.787522 -13.043976 -3.198786
v -3.751951 -10.840752 -1.839523
v -3.737403 -10.756699 -1.947797
v -3.784159 -12.994375 -3.039183
v -3.814839 -10.889294 -1.680507
v -3.785236 -12.858660 -2.837015
v -4.219834 -14.821243 -3.727778
v -4.268821 -14.647861 -3.578622
v -4.203527 -14.635563 -3.599944
v -4.194539 -14.322859 -3.401465
v -4.156147 -14.343971 -3.440419
v -3.791193 -12.660774 -2.606972
v -3.781905 -12.336201 -2.299498
v -3.917155 -10.886784 -1.471659
v -4.040711 -10.837694 -1.234270
v -5.367996 -8.029760 1.088171
v -5.488784 -7.861784 1.284374
v -4.189286 -10.667242 -0.896593
v -5.651625 -7.494222 1.499249
v -4.721243 -10.008636 -0.019137
v -3.807324 -11.818787 -1.780678
v -4.078107 -13.881136 -3.183613
v -4.043903 -13.611469 -3.010776
v -3.868820 -11.553148 -1.451914
v -3.909322 -11.580940 -1.449198
v -5.154312 -9.535505 0.525538
v -5.111821 -9.465147 0.527884
v -6.241143 -6.246808 1.947183
v -5.991328 -6.648985 1.791279
v -6.208528 -6.167242 1.927722
v -7.559083 -2.061965 1.526034
v -7.628081 -1.853696 1.580628
v -7.674461 -1.904013 1.607081
v -6.374309 -6.077840 1.930040
v -7.467622 0.177120 1.266806
v -7.765908 -1.711781 1.540964
v -7.709365 -2.346902 1.529357
v -7.540284 0.191505 1.164011
v -7.473354 0.277530 1.239198
v -7.033179 1.688805 1.325088
v -7.048434 1.804755 1.328453
v -7.081605 1.892595 1.288882
v -7.056099 3.701579 2.112212
v -6.992052 3.542454 2.029478
v -6.955526 3.611894 2.043554
v -6.986841 1.724904 1.311840
v -6.945300 1.829725 1.274342
v -7.392964 0.173629 1.174959
v -7.420074 0.188023 1.244736
v -7.379077 0.126762 1.066575
v -6.910216 1.973300 1.216854
v -7.340840 0.150718 0.969445
v -7.446529 -2.470794 1.466423
v -7.387033 -2.616476 1.378217
v -7.311653 -2.711404 1.259018
v -7.238297 -2.809076 1.117534
v -7.285764 0.144005 0.850172
v -7.235023 0.113703 0.711490
v -6.824568 2.294468 1.125210
v -6.873045 2.159181 1.187053
v -7.099902 4.624354 2.514079
v -7.027314 4.258849 2.318770
v -7.093455 4.201673 2.336234
v -6.968050 3.876073 2.146828
v -7.003795 3.869503 2.164556
v -7.170337 4.013186 2.272420
v -7.118170 2.064421 1.247215
v -7.332335 4.361688 2.461465
v -7.210567 4.587746 2.548589
v -7.450147 4.552999 2.567028
v -7.151485 2.168497 1.213897
v -7.191329 2.265418 1.166265
v -7.623140 0.251794 0.872319
v -7.599115 0.239575 0.972337
v -7.575964 0.218118 1.054031
v -7.820332 -2.759958 1.222156
v -7.778218 -2.669291 1.335059
v -5.845926 -7.957315 1.390258
v -7.740327 -2.574424 1.425211
v -5.827199 -8.205307 1.226917
v -4.400120 -10.962244 -1.134839
v -5.828629 -8.410238 1.051155
v -4.388346 -11.067503 -1.342799
v -4.032545 -12.589893 -2.460774
v -4.347459 -14.535751 -3.504016
v -4.235610 -14.183979 -3.312184
v -3.950183 -12.203718 -2.090492
v -4.573019 -10.636139 -0.598909
v -4.099978 -13.604698 -3.007117
v -3.958293 -11.555611 -1.453137
v -5.276856 -9.423191 0.591384
v -5.965608 -7.363653 1.660958
v -4.101795 -13.896946 -3.179094
v -4.070578 -13.613638 -2.996255
v -7.238229 2.324775 1.095175
v -7.579001 4.728994 2.657530
v -7.701530 4.851129 2.697691
v -7.492968 5.279962 2.975909
v -7.328355 4.926162 2.746776
v -7.173121 5.138796 2.708529
v -7.138321 4.905048 2.634609
v -6.782988 2.396223 1.037339
v -6.758335 2.428224 0.919657
v -7.203124 0.050950 0.565585
v -7.142081 -3.052954 0.825509
v -7.177625 -2.922941 0.968982
v -7.198437 -0.036996 0.424055
v -7.224435 -0.126707 0.297299
v -6.757661 2.389180 0.781778
v -7.210321 5.309851 2.602633
v -7.195081 5.275753 2.696633
v -6.787675 2.316916 0.648702
v -7.244719 5.279831 2.478024
v -6.852683 2.245661 0.540979
v -7.318601 5.221493 2.367568
v -7.772913 5.487248 2.854352
v -7.406069 5.099070 2.236238
v -7.787652 4.868944 2.637304
v -7.780308 5.839377 3.265604
v -7.636917 5.579553 3.139817
v -7.289659 2.303076 0.986559
v -5.276525 -8.130413 0.887646
v -5.228560 -8.173510 0.698917
v -5.228826 -8.185909 0.529465
v -5.275412 -8.205267 0.380519
v -3.772575 -10.674879 -2.024952
v -3.856456 -10.625866 -2.086980
v -4.016366 -12.892378 -3.518580
v -3.920179 -12.952705 -3.484051
v -4.386477 -14.973642 -4.173851
v -4.559271 -15.070307 -4.122848
v -4.445027 -14.866278 -4.170773
v -4.116586 -12.770620 -3.501876
v -7.953505 -3.459903 0.615745
v -7.895357 -0.370760 0.188933
v -7.961469 -3.553483 0.527338
v -7.944162 -0.567460 0.062588
v -6.570959 -7.799313 0.377307
v -8.004706 -3.572742 0.372972
v -7.001094 -6.760930 0.479563
v -8.167985 -3.181184 0.071010
v -7.943892 -0.602311 -0.041718
v -8.076249 -3.434501 0.105676
v -7.962603 -0.771450 -0.092693
v -8.036504 -3.399475 0.059654
v -7.918386 -0.768018 -0.124481
v -7.530797 0.775076 -0.020782
v -7.489663 0.805702 -0.045970
v -7.496100 2.744347 0.732881
v -7.521922 0.961731 0.061655
v -7.859169 -0.721225 -0.106252
v -7.922555 -3.490778 0.144645
v -6.664260 -7.249162 0.303701
v -7.742817 -3.682873 0.315586
v -6.895687 -6.881633 0.355577
v -5.790009 -9.293669 -0.565165
v -6.927231 -6.946540 0.384578
v -5.905172 -9.274706 -0.426718
v -5.825908 -9.360043 -0.553928
v -4.599358 -10.989510 -2.343208
v -4.564108 -10.955681 -2.351925
v -4.498480 -13.302973 -3.642165
v -4.521733 -13.307156 -3.622729
vn -0.5655 0.4255 0.7065
vn -0.7226 -0.0768 0.6870
vn -0.9184 0.0637 0.3905
vn -0.2177 0.0935 0.9715
vn -0.8956 0.4311 -0.1097
vn -0.7462 0.5124 0.4250
vn 0.9931 0.0359 0.1113
vn 0.2569 0.3781 -0.8894
vn 0.7998 0.1274 -0.5867
vn 0.6587 0.4250 -0.6209
vn 0.9366 0.2752 -0.2167
vn 0.8766 0.0724 -0.4757
vn 0.8399 0.1030 -0.5329
vn 0.8228 0.1163 -0.5563
vn 0.7592 0.3998 -0.5136
vn 0.8939 0.2927 -0.3395
vn 0.9237 0.0359 -0.3814
vn 0.7763 0.3979 -0.4890
vn 0.7956 0.1430 -0.5887
vn 0.9670 0.1942 -0.1650
vn 0.9576 0.0087 -0.2879
vn 0.7502 0.1821 -0.6356
vn 0.9928 0.1197 -0.0056
vn 0.6562 0.4843 -0.5787
vn 0.8666 0.4983 0.0264
vn 0.7000 0.6749 -0.2334
vn 0.8995 0.4037 0.1673
vn 0.5959 0.5368 -0.5973
vn 0.3310 0.6299 -0.7027
vn 0.9867 0.0411 0.1571
vn 0.7765 0.6196 -0.1141
vn 0.8184 0.5735 -0.0372
vn 0.8358 0.5491 -0.0009
vn -0.4130 0.4403 -0.7972
vn 0.9380 -0.0709 0.3392
vn -0.0995 0.6694 -0.7362
vn -0.8135 0.2636 -0.5184
vn 0.7373 -0.3044 0.6031
vn 0.6267 -0.3955 0.6714
vn 0.1635 0.4021 -0.9009
vn 0.8663 -0.2558 0.4291
vn 0.7750 -0.2602 0.5759
vn 0.8681 -0.1596 0.4700
vn 0.9973 -0.0718 -0.0125
vn 0.8476 -0.1516 0.5084
vn 0.8862 -0.0742 0.4574
vn 0.8856 -0.0725 0.4588
vn 0.8863 -0.0745 0.4571
vn 0.9855 -0.0250 -0.1679
vn 0.6707 0.2363 -0.7030
vn 0.8855 -0.0722 0.4589
vn 0.6396 -0.1350 0.7568
vn 0.6933 -0.0908 0.7149
vn 0.7054 -0.1909 0.6826
vn 0.3043 -0.3541 0.8843
vn -0.2098 -0.2859 0.9350
vn 0.6170 -0.2280 0.7532
vn -0.4907 -0.2496 0.8348
vn -0.4947 -0.5092 0.7043
vn 0.3066 -0.5411 0.7831
vn 0.3067 -0.5409 0.7832
vn -0.9670 -0.2199 0.1284
vn 0.5197 -0.3571 0.7762
vn 0.3447 -0.5545 0.7574
vn -0.7387 -0.2042 0.6423
vn 0.6788 -0.3349 0.6535
vn -0.9070 0.1222 -0.4031
vn 0.3153 -0.5968 0.7378
vn 0.6977 -0.0983 0.7096
vn -0.7426 -0.6427 0.1883
vn 0.5253 -0.3403 0.7800
vn -0.3140 -0.7480 0.5846
vn 0.1057 -0.0284 0.9940
vn 0.3312 0.0628 0.9415
vn -0.1955 -0.1239 0.9728
vn -0.3068 0.1125 0.9451
vn -0.3340 0.1098 0.9361
vn -0.2041 -0.1374 0.9693
vn -0.3592 0.1082 0.9270
vn -0.4056 0.1028 0.9082
vn -0.5053 0.0946 0.8578
vn -0.3087 -0.1778 0.9344
vn -0.0778 -0.0980 0.9921
vn -0.2853 -0.1707 0.9431
vn -0.1792 -0.7456 0.6419
vn 0.1186 -0.6592 0.7426
vn -0.1212 -0.7421 0.6593
vn -0.1694 -0.7506 0.6387
vn -0.1607 -0.7489 0.6429
vn -0.1660 -0.7500 0.6403
vn -0.1574 -0.7483 0.6444
vn -0.5017 -0.2420 0.8305
vn -0.4862 -0.2377 0.8409
vn -0.6749 -0.2960 0.6760
vn -0.9065 0.0297 0.4212
vn -0.7138 0.0695 0.6969
vn -0.7289 0.0662 0.6814
vn -0.6966 0.0225 0.7171
vn -0.6702 0.0144 0.7420
vn -0.4726 -0.0286 0.8808
vn -0.5370 0.0899 0.8388
vn 0.0138 -0.5035 0.8639
vn -0.4692 -0.4962 0.7305
vn 0.1903 -0.4559 0.8694
vn -0.6772 0.0278 0.7353
vn 0.2895 -0.4145 0.8628
vn -0.5737 -0.4502 0.6843
vn -0.7112 0.0593 0.7005
vn -0.2964 -0.0513 0.9537
vn -0.9734 -0.1737 0.1492
vn 0.3342 -0.3798 0.8626
vn -0.2012 -0.0516 0.9782
vn -0.9534 0.1809 0.2415
vn -0.4275 0.0347 0.9034
vn -0.9807 -0.1277 0.1483
vn -0.9318 0.1981 0.3041
vn 0.1803 -0.3763 0.9088
vn 0.5995 -0.3617 0.7139
vn -0.9394 -0.1471 0.3097
vn 0.5905 -0.3974 0.7024
vn 0.5784 -0.4014 0.7101
vn 0.7434 -0.3058 0.5948
vn 0.7427 -0.3066 0.5953
vn 0.7446 -0.3045 0.5940
vn 0.7122 -0.3050 0.6323
vn 0.7122 -0.3049 0.6323
vn 0.7454 -0.3037 0.5935
vn 0.7837 -0.3029 0.5423
vn 0.7801 -0.3075 0.5449
vn 0.7782 -0.3099 0.5462
vn 0.9176 -0.1263 0.3768
vn 0.4520 0.3855 -0.8044
vn 0.9747 -0.0187 0.2226
vn 0.3894 0.4496 -0.8039
vn 0.9895 0.0526 0.1346
vn 0.8122 -0.3111 0.4934
vn 0.7855 -0.3005 0.5410
vn 0.6122 -0.4496 0.6505
vn 0.8188 -0.2963 0.4916
vn 0.6562 -0.3913 0.6452
vn 0.6433 -0.4452 0.6228
vn 0.8643 -0.2624 0.4292
vn 0.5397 -0.5274 0.6562
vn 0.8621 -0.2863 0.4180
vn 0.5573 -0.5355 0.6346
vn 0.9523 -0.1853 0.2424
vn 0.9519 -0.1851 0.2443
vn 0.9525 -0.1854 0.2417
vn 0.9550 0.2621 -0.1387
vn 0.4248 0.5097 -0.7482
vn 0.9887 0.1492 0.0128
vn 0.9510 -0.1579 -0.2657
vn 0.9821 -0.1843 -0.0386
vn 0.9748 -0.2106 0.0736
vn 0.3646 0.4846 -0.7951
vn 0.9345 -0.0868 -0.3451
vn 0.9629 -0.1890 -0.1928
vn 0.9354 -0.0753 -0.3453
vn 0.9958 -0.0504 -0.0766
vn 0.7853 0.3005 -0.5413
vn 0.9898 -0.0675 -0.1252
vn 0.7404 0.2878 -0.6075
vn 0.7816 0.2978 -0.5480
vn 0.9437 -0.0937 -0.3171
vn 0.9582 -0.0900 -0.2716
vn 0.9793 -0.0860 -0.1832
vn 0.8043 0.3030 -0.5111
vn 0.8381 0.3145 -0.4457
vn 0.7937 0.3024 -0.5278
vn 0.8199 0.5652 -0.0913
vn 0.7680 0.6168 -0.1724
vn 0.4385 0.7414 -0.5080
vn 0.5909 0.7216 -0.3607
vn 0.9543 0.2417 -0.1759
vn 0.7376 0.6342 -0.2319
vn 0.6042 0.4853 -0.6320
vn 0.9033 0.2927 -0.3136
vn 0.4652 0.5532 -0.6911
vn 0.8593 0.0958 -0.5025
vn 0.8816 0.0877 -0.4637
vn 0.5558 0.2731 -0.7852
vn 0.2738 0.5250 -0.8058
vn 0.6950 0.1924 -0.6928
vn 0.0515 0.5334 -0.8443
vn 0.0362 0.4854 -0.8735
vn -0.6042 0.7957 -0.0425
vn -0.8047 0.4558 -0.3804
vn 0.1533 0.4502 -0.8797
vn -0.6874 0.6122 -0.3907
vn -0.5500 0.5118 -0.6600
vn -0.9593 0.2594 -0.1114
vn -0.9777 0.1767 0.1131
vn -0.9751 0.1653 0.1475
vn -0.9998 0.0039 0.0199
vn -0.9944 0.0666 -0.0819
vn -0.9911 -0.0464 0.1246
vn -0.9686 0.2425 -0.0549
vn -0.9998 -0.0196 0.0079
vn -0.9317 0.1873 -0.3113
vn -0.9314 0.2999 -0.2063
vn -0.8954 0.3273 -0.3018
vn -0.4779 0.5904 -0.6504
vn -0.4329 0.5145 -0.7402
vn -0.3510 0.5517 -0.7566
vn -0.8020 0.3849 -0.4568
vn -0.3523 0.5087 -0.7855
vn -0.4809 0.4797 -0.7339
vn -0.6160 0.4528 -0.6446
vn -0.8825 0.3450 -0.3196
vn -0.8600 0.3637 -0.3580
vn -0.6551 -0.5096 0.5578
vn -0.9898 -0.1199 0.0775
vn -0.8359 0.2525 -0.4873
vn -0.8605 0.1880 -0.4735
vn -0.8899 -0.0453 -0.4538
vn -0.8064 0.1008 -0.5827
vn -0.9305 -0.1855 -0.3158
vn 0.9298 0.3551 0.0973
vn -0.4987 -0.6258 0.5997
vn -0.8572 -0.0062 -0.5150
vn -0.7432 0.2346 -0.6266
vn 0.9922 -0.0537 -0.1125
vn -0.7968 0.4079 -0.4458
vn -0.4794 -0.7243 0.4955
vn -0.7504 0.4384 -0.4946
vn -0.4336 0.5672 -0.7002
vn -0.4306 0.5680 -0.7014
vn -0.4357 0.5667 -0.6993
vn -0.3958 0.5017 -0.7692
vn -0.5645 0.3656 -0.7400
vn -0.3661 0.5162 -0.7743
vn -0.3793 0.2587 -0.8884
vn -0.6666 0.0923 -0.7397
vn -0.8083 0.0117 -0.5887
vn 0.6780 0.4666 -0.5680
vn -0.9497 -0.3130 -0.0061
vn -0.9009 -0.3246 -0.2881
vn -0.3297 -0.1830 -0.9262
vn -0.2169 -0.1472 -0.9650
vn 0.0504 -0.0614 -0.9968
vn 0.8307 0.2192 -0.5117
vn 0.2943 -0.1826 -0.9381
vn -0.3986 -0.1092 -0.9106
vn -0.4007 -0.1089 -0.9097
vn -0.3998 -0.1090 -0.9101
vn 0.5062 -0.2016 -0.8385
vn 0.4229 0.0542 -0.9046
vn 0.7206 0.0515 0.6914
vn 0.8344 -0.2006 -0.5133
vn 0.8349 -0.2021 -0.5120
vn 0.8345 -0.2009 -0.5130
vn 0.6641 -0.1627 -0.7297
vn 0.8350 -0.2024 -0.5117
vn 0.0716 0.0383 -0.9967
vn 0.6252 -0.1119 -0.7724
vn 0.9052 0.1654 -0.3915
vn -0.2404 0.3698 -0.8975
vn 0.9081 0.1310 -0.3978
vn -0.3040 0.3403 -0.8898
vn -0.3202 0.3471 -0.8815
vn -0.4827 0.3204 -0.8151
vn -0.8753 0.1874 -0.4458
vn -0.9229 0.2662 -0.2783
vn -0.8791 0.2651 -0.3962
vn -0.3753 0.1457 -0.9154
vn -0.4458 0.1621 -0.8803
vn -0.3978 -0.1093 -0.9110
vn -0.9292 0.0341 -0.3680
vn -0.9346 0.2668 -0.2351
vn -0.9877 0.0501 -0.1482
vn -0.7175 -0.0557 -0.6943
vn -0.9191 0.2576 -0.2983
vn -0.9694 0.2446 0.0192
vn -0.9264 -0.0399 -0.3745
vn -0.7024 -0.0904 -0.7060
vn -0.8668 -0.0538 -0.4958
vn -0.8644 -0.0593 -0.4994
vn -0.8950 -0.3183 -0.3125
vn -0.9327 -0.3351 -0.1335
vn -0.9386 -0.3359 -0.0784
vn -0.9041 -0.3214 -0.2815
vn -0.9120 -0.3254 -0.2496
vn -0.9124 -0.3255 -0.2484
vn -0.9116 -0.3252 -0.2514
vn -0.9078 -0.0514 -0.4163
vn -0.9011 -0.0534 -0.4303
vn -0.8935 0.2402 -0.3794
vn -0.9400 -0.0459 -0.3380
vn -0.9413 -0.0454 -0.3345
vn -0.9381 -0.0466 -0.3431
vn -0.9445 0.2323 -0.2323
vn -0.8739 0.2488 -0.4175
vn -0.0326 -0.4761 0.8788
vn -0.9025 0.1367 -0.4083
vn -0.9238 0.1268 -0.3612
vn -0.9698 0.2130 0.1189
vn -0.4972 0.3300 -0.8024
vn -0.4699 0.3004 -0.8300
vn -0.4730 0.3000 -0.8284
vn -0.4766 0.2987 -0.8268
vn -0.2736 -0.4291 0.8608
vn -0.4675 0.3018 -0.8309
vn -0.2812 0.3643 -0.8878
vn -0.2667 0.3616 -0.8934
vn -0.4675 0.3025 -0.8306
vn -0.2336 0.3959 -0.8881
vn -0.0331 0.4646 -0.8849
vn 0.9612 0.1481 -0.2327
vn -0.2096 0.3892 -0.8970
vn -0.1396 0.4118 -0.9005
vn -0.1729 0.4339 -0.8842
vn -0.1297 0.4166 -0.8998
vn 0.0277 0.4960 -0.8679
vn 0.9422 0.2210 -0.2519
vn 0.9323 0.2596 -0.2517
vn 0.7128 -0.0507 -0.6995
vn 0.9494 -0.1889 -0.2511
vn 0.6271 -0.0482 -0.7775
vn 0.9284 -0.1972 -0.3149
vn 0.9505 -0.0954 -0.2956
vn 0.9509 -0.0953 -0.2945
vn 0.9500 -0.0955 -0.2974
vn 0.9658 -0.0914 -0.2427
vn 0.9658 -0.0914 -0.2428
vn 0.9657 -0.0915 -0.2431
vn 0.9551 -0.0938 -0.2809
vn 0.8711 0.3144 -0.3774
vn 0.7535 0.2691 -0.5999
vn 0.9496 -0.0956 -0.2985
vn 0.7961 0.2909 -0.5306
vn 0.7418 0.6144 -0.2690
vn -0.3551 0.4954 -0.7928
vn -0.0597 0.6501 -0.7575
vn 0.8696 0.3180 -0.3778
vn 0.7320 0.6301 -0.2591
vn 0.9630 0.2464 -0.1094
vn 0.3326 0.6075 -0.7214
vn 0.9521 0.2912 -0.0935
vn 0.9070 0.0754 -0.4144
vn 0.0521 0.4653 -0.8836
vn 0.9800 -0.0190 -0.1982
vn 0.2384 0.6452 -0.7259
vn 0.9609 0.2062 0.1845
vn 0.0590 0.7003 -0.7114
vn -0.6239 0.4735 -0.6218
vn 0.8943 -0.3080 0.3245
vn 0.3463 0.5515 -0.7589
vn 0.4281 0.7489 -0.5059
vn 0.4090 0.7505 -0.5190
vn 0.3360 0.7518 -0.5674
vn -0.1868 0.3371 -0.9227
vn 0.8816 0.0512 0.4692
vn -0.9548 -0.2928 -0.0510
vn 0.6559 0.4559 -0.6016
vn -0.7132 0.1667 -0.6809
vn 0.8990 0.3183 -0.3007
vn 0.6897 0.2217 -0.6893
vn 0.9389 0.3232 -0.1185
vn -0.2275 0.4949 -0.8386
vn 0.0050 0.5071 -0.8619
vn 0.1354 0.9129 0.3851
vn 0.4308 0.5247 -0.7343
vn 0.4305 0.5248 -0.7344
vn 0.4304 0.5248 -0.7344
vn -0.4285 0.5685 -0.7023
vn -0.4734 0.4867 -0.7342
vn -0.4664 0.4880 -0.7378
vn -0.4692 0.4875 -0.7364
vn -0.4761 0.4862 -0.7327
vn -0.4797 0.5158 -0.7098
vn -0.1999 0.4873 -0.8500
vn 0.9173 0.3943 0.0560
vn -0.1353 0.5072 -0.8512
vn 0.3494 0.3707 -0.8605
vn -0.0583 0.5244 -0.8495
vn -0.1115 0.4952 -0.8616
vn 0.8103 0.3008 -0.5029
vn 0.8607 0.3185 -0.3972
vn 0.2156 0.7287 -0.6500
vn 0.9392 -0.0990 -0.3287
vn 0.9900 -0.0824 -0.1143
vn 0.9665 -0.0912 -0.2399
vn 0.9110 -0.2200 -0.3488
vn 0.6004 -0.0655 -0.7970
vn 0.9583 -0.1722 -0.2279
vn 0.9668 -0.0912 -0.2388
vn 0.8070 -0.0652 -0.5869
vn 0.8909 0.3295 -0.3127
vn 0.1329 0.5285 -0.8385
vn 0.2916 0.5499 -0.7826
vn 0.1854 0.4698 -0.8631
vn -0.0960 0.5092 -0.8553
vn -0.0276 0.4411 -0.8970
vn -0.4818 0.1982 -0.8536
vn -0.5498 0.2586 -0.7942
vn -0.4529 0.3279 -0.8291
vn -0.1348 0.4654 -0.8748
vn -0.9878 -0.1541 0.0223
vn -0.9354 0.0860 -0.3431
vn -0.9774 -0.1808 0.1096
vn -0.3772 0.3214 -0.8686
vn -0.9780 -0.0122 -0.2082
vn -0.9674 0.2035 -0.1508
vn -0.9680 0.2031 -0.1476
vn -0.9665 0.2040 -0.1558
vn -0.9267 0.2263 -0.3000
vn -0.9553 0.2177 -0.1999
vn -0.9659 0.2044 -0.1590
vn -0.9996 -0.0213 -0.0199
vn -0.9773 -0.0367 -0.2088
vn -0.9788 -0.0358 -0.2017
vn -0.9779 -0.0363 -0.2060
vn -0.9794 -0.0354 -0.1989
vn -0.9987 -0.0122 0.0485
vn -0.9798 0.0012 0.2001
vn -0.9825 0.1661 0.0839
vn -0.9807 0.1867 -0.0577
vn -0.9754 -0.2037 0.0842
vn -0.8395 -0.3752 0.3931
vn -0.9784 0.1553 0.1364
vn -0.9827 -0.1794 0.0460
vn -0.8836 -0.3370 0.3251
vn -0.5824 -0.4902 0.6485
vn -0.5587 -0.4956 0.6650
vn -0.8778 0.0892 0.4707
vn 0.3275 -0.6666 0.6696
vn 0.3446 -0.7901 0.5070
vn -0.3969 -0.5245 0.7533
vn -0.0098 -0.8815 0.4721
vn -0.2506 -0.5299 0.8102
vn -0.3948 -0.5204 0.7572
vn 0.4101 -0.6550 0.6347
vn 0.9517 -0.1850 0.2450
vn 0.9882 0.0292 -0.1504
vn 0.9976 -0.0430 0.0548
vn 0.1646 -0.7478 0.6432
vn -0.8744 -0.2968 -0.3838
vn 0.2382 0.5266 -0.8161
vn 0.0899 0.5109 -0.8549
vn 0.5821 0.3835 -0.7170
vn -0.7943 -0.0504 -0.6055
vn -0.2271 -0.9307 0.2869
vn 0.8380 0.4008 -0.3702
vn 0.5593 0.5226 -0.6435
vn 0.7789 0.4315 -0.4550
vn 0.9686 -0.1516 -0.1972
vn 0.9068 -0.1043 -0.4085
vn 0.5780 0.5066 -0.6398
vn -0.8962 0.0960 0.4331
vn -0.7289 0.0308 0.6839
vn -0.6752 -0.1706 -0.7176
vn -0.2816 -0.9158 -0.2865
vn -0.9875 -0.1575 0.0097
vn -0.8840 0.0382 0.4659
vn -0.9369 -0.0471 -0.3465
vn -0.9330 -0.3387 -0.1214
vn -0.9261 -0.3430 -0.1570
vn -0.9282 -0.3364 -0.1591
vn -0.9278 -0.3376 -0.1587
vn -0.9325 -0.3506 0.0867
vn -0.9090 -0.1248 -0.3976
vn -0.9256 -0.3447 -0.1565
vn -0.8581 -0.5120 0.0388
vn -0.9362 -0.3505 0.0271
vn -0.6723 -0.6775 0.2983
vn -0.8807 -0.3485 0.3208
vn -0.8583 -0.3420 0.3827
vn -0.9212 -0.2375 -0.3081
vn -0.7128 -0.3054 0.6314
vn -0.3466 -0.7616 0.5476
vn -0.3437 -0.7616 0.5495
vn -0.3510 -0.7616 0.5447
vn -0.8850 -0.4582 -0.0825
vn -0.6419 -0.6986 0.3161
vn -0.5302 -0.4257 0.7332
vn -0.3192 -0.4899 0.8112
vn -0.3540 -0.7616 0.5428
vn -0.6818 -0.3628 0.6353
vn -0.7028 -0.0883 0.7059
vn -0.5060 -0.1718 0.8453
vn -0.7246 -0.3378 0.6007
vn -0.4388 -0.1979 0.8765
vn -0.0178 0.4913 0.8708
vn 0.2308 0.0981 0.9680
vn -0.3588 -0.2217 0.9067
vn 0.5132 -0.0868 0.8539
vn 0.5509 -0.0145 0.8344
vn -0.2618 -0.2560 0.9306
vn -0.1756 -0.2743 0.9455
vn -0.4289 -0.4878 0.7604
vn 0.0847 -0.3274 0.9411
vn -0.4353 -0.4641 0.7715
vn -0.0360 -0.5344 0.8445
vn 0.9233 -0.0146 0.3838
vn 0.9728 0.1194 0.1987
vn 0.1069 -0.0170 0.9941
vn 0.9666 0.0374 0.2536
vn -0.9253 -0.1734 0.3372
vn -0.9489 -0.1424 0.2815
vn -0.9113 -0.3251 -0.2526
vn -0.9260 -0.1668 -0.3387
vn -0.8963 -0.0669 -0.4383
vn 0.9580 -0.1509 -0.2440
vn -0.3830 0.3533 -0.8535
vn -0.6668 -0.2986 0.6828
vn -0.9491 0.1145 -0.2933
vn -0.9088 -0.2935 0.2967
vn -0.9348 -0.3348 -0.1184
vn 0.9080 0.4037 -0.1120
vn 0.5692 0.3233 -0.7560
vn -0.8708 0.2391 -0.4295
vn -0.0459 0.4996 -0.8651
vn -0.9036 0.0503 0.4254
vn 0.9499 -0.1396 -0.2796
vn 0.6918 0.2717 -0.6691
vn 0.8059 0.3009 -0.5100
vn 0.9980 -0.0357 -0.0528
vn 0.6479 0.2539 -0.7182
vn 0.8598 0.3101 -0.4057
vn 0.9478 -0.0611 -0.3131
vn 0.9978 -0.0272 -0.0611
vn 0.9634 -0.0467 -0.2640
vn 0.9556 -0.0507 -0.2902
vn 0.9058 0.3070 -0.2920
vn 0.2137 0.1043 -0.9713
vn 0.8345 -0.0732 -0.5462
vn -0.7706 -0.2620 -0.5810
vn 0.9469 0.2937 -0.1312
vn -0.5304 -0.0765 0.8443
vn 0.9959 -0.0852 0.0310
vn 0.9937 -0.0893 -0.0683
vn -0.1518 0.0799 0.9852
vn 0.7502 0.0172 0.6610
vn 0.5819 0.0308 0.8127
vn 0.5822 -0.1992 0.7883
vn 0.8075 -0.2503 0.5341
vn 0.8317 -0.2569 0.4922
vn 0.6181 -0.2062 0.7586
vn 0.6495 -0.2816 0.7063
vn 0.6470 -0.2824 0.7083
vn 0.6452 -0.2830 0.7097
vn 0.8808 0.1556 -0.4472
vn 0.8274 -0.2084 0.5216
vn 0.8056 0.2313 -0.5454
vn 0.9334 -0.2576 0.2500
vn 0.9599 -0.2650 0.0910
vn 0.6513 -0.2810 0.7049
vn 0.3488 -0.3426 0.8723
vn -0.3234 0.0409 0.9454
vn -0.7946 0.1693 0.5830
vn -0.6343 0.0842 0.7685
vn -0.6366 0.0842 0.7666
vn -0.6328 0.0842 0.7697
vn -0.6515 0.1227 0.7487
vn -0.5494 0.0879 0.8309
vn -0.3512 0.0810 0.9328
vn -0.6380 0.0842 0.7654
vn -0.7917 -0.2413 0.5613
vn 0.5167 0.2081 0.8305
vn -0.6683 -0.1571 0.7271
vn -0.7001 -0.5112 0.4985
vn 0.6594 0.0154 0.7516
vn 0.4032 0.2028 0.8924
vn 0.6202 0.2659 0.7380
vn 0.9417 0.3170 0.1128
vn 0.8637 0.4548 -0.2171
vn 0.4851 -0.1157 0.8668
vn 0.8881 0.2638 0.3764
vn 0.8881 0.2594 0.3794
vn 0.8881 0.2572 0.3809
vn 0.8881 0.2664 0.3747
vn 0.8637 0.4795 0.1554
vn 0.5551 -0.3890 0.7352
vn 0.5552 -0.3892 0.7350
vn 0.5551 -0.3889 0.7353
vn 0.6757 -0.2479 0.6942
vn 0.6865 -0.3354 0.6451
vn 0.5549 -0.3887 0.7355
vn -0.5409 0.4430 -0.7150
vn -0.1833 -0.7794 0.5992
vn 0.6122 -0.3336 0.7169
vn -0.9831 -0.0656 0.1712
vn 0.9166 -0.2057 0.3428
vn 0.1154 0.9336 0.3391
vn 0.6361 -0.3565 0.6843
vn 0.9991 0.0399 -0.0116
vn 0.9987 0.0068 0.0500
vn 0.9238 0.3751 0.0766
vn 0.5597 0.7650 -0.3187
vn -0.7494 0.0224 -0.6617
vn 0.6864 -0.0155 0.7271
vn 0.5619 0.1672 0.8101
vn -0.4887 -0.1963 0.8501
vn -0.5211 0.0959 0.8481
vn -0.8537 -0.5090 0.1102
vn 0.8827 0.4607 0.0921
vn 0.9683 -0.2495 0.0144
vn 0.9452 -0.2435 0.2173
vn 0.9725 -0.2208 -0.0737
vn 0.9592 -0.2309 0.1635
vn 0.5874 -0.4152 0.6946
vn -0.5000 0.0986 0.8604
vn 0.1938 -0.5421 0.8177
vn 0.3071 -0.5402 0.7835
vn 0.5942 -0.2999 0.7463
vn 0.5761 -0.3047 0.7585
vn 0.9233 0.0040 0.3840
vt 0.000000 0.000000
s 1
f 4/1/1 1/1/1 2/1/1
f 2/1/2 1/1/2 3/1/2
f 6/1/3 3/1/3 1/1/3
f 4/1/4 7/1/4 1/1/4
f 5/1/5 1/1/5 7/1/5
f 5/1/6 6/1/6 1/1/6
f 8/1/7 7/1/7 4/1/7
f 8/1/8 5/1/8 7/1/8
f 9/1/9 8/1/9 11/1/9
f 8/1/10 9/1/10 5/1/10
f 8/1/11 4/1/11 10/1/11
f 10/1/12 11/1/12 8/1/12
f 9/1/13 11/1/13 12/1/13
f 10/1/14 14/1/14 11/1/14
f 12/1/15 11/1/15 13/1/15
f 14/1/16 13/1/16 11/1/16
f 15/1/17 14/1/17 10/1/17
f 14/1/18 16/1/18 13/1/18
f 15/1/19 17/1/19 14/1/19
f 17/1/20 16/1/20 14/1/20
f 18/1/21 17/1/21 15/1/21
f 18/1/22 19/1/22 17/1/22
f 19/1/23 20/1/23 17/1/23
f 17/1/24 20/1/24 16/1/24
f 20/1/25 21/1/25 16/1/25
f 20/1/26 22/1/26 21/1/26
f 23/1/27 22/1/27 20/1/27
f 19/1/28 23/1/28 20/1/28
f 24/1/29 26/1/29 23/1/29
f 24/1/30 23/1/30 19/1/30
f 23/1/31 25/1/31 22/1/31
f 26/1/32 25/1/32 23/1/32
f 26/1/33 27/1/33 25/1/33
f 28/1/34 27/1/34 26/1/34
f 29/1/35 26/1/35 24/1/35
f 29/1/36 28/1/36 26/1/36
f 30/1/37 31/1/37 29/1/37
f 30/1/38 29/1/38 32/1/38
f 31/1/39 28/1/39 29/1/39
f 32/1/40 29/1/40 24/1/40
f 32/1/41 33/1/41 30/1/41
f 32/1/42 34/1/42 33/1/42
f 35/1/43 34/1/43 32/1/43
f 32/1/44 24/1/44 35/1/44
f 35/1/45 36/1/45 34/1/45
f 18/1/46 36/1/47 35/1/48
f 35/1/49 19/1/49 18/1/49
f 35/1/50 24/1/50 19/1/50
f 18/1/46 37/1/51 36/1/47
f 37/1/52 38/1/52 36/1/52
f 36/1/53 38/1/53 39/1/53
f 36/1/54 39/1/54 34/1/54
f 39/1/55 40/1/55 42/1/55
f 39/1/56 38/1/56 40/1/56
f 34/1/57 39/1/57 41/1/57
f 41/1/58 39/1/58 42/1/58
f 42/1/59 40/1/59 43/1/59
f 42/1/60 43/1/61 44/1/61
f 45/1/62 42/1/62 44/1/62
f 41/1/63 42/1/63 45/1/63
f 45/1/64 44/1/64 48/1/64
f 46/1/65 41/1/65 45/1/65
f 46/1/66 45/1/66 47/1/66
f 47/1/67 45/1/67 48/1/67
f 47/1/68 48/1/68 49/1/68
f 49/1/69 48/1/69 50/1/69
f 48/1/70 51/1/70 50/1/70
f 48/1/71 44/1/71 51/1/71
f 44/1/72 52/1/72 51/1/72
f 51/1/73 52/1/73 54/1/73
f 50/1/74 51/1/74 53/1/74
f 51/1/75 54/1/75 53/1/75
f 54/1/76 55/1/76 53/1/76
f 54/1/77 56/1/77 55/1/77
f 52/1/78 57/1/78 54/1/78
f 57/1/79 56/1/79 54/1/79
f 57/1/80 58/1/80 56/1/80
f 59/1/81 58/1/81 57/1/81
f 60/1/82 59/1/82 57/1/82
f 52/1/83 60/1/83 57/1/83
f 60/1/84 62/1/84 59/1/84
f 43/1/85 60/1/85 52/1/85
f 43/1/86 61/1/86 60/1/86
f 61/1/87 62/1/87 60/1/87
f 61/1/88 63/1/89 62/1/90
f 63/1/89 64/1/91 62/1/90
f 62/1/92 64/1/92 65/1/92
f 62/1/93 65/1/93 59/1/93
f 64/1/94 66/1/94 65/1/94
f 66/1/95 67/1/95 65/1/95
f 65/1/96 67/1/96 68/1/96
f 65/1/97 68/1/97 59/1/97
f 67/1/98 69/1/98 68/1/98
f 68/1/99 69/1/99 70/1/99
f 68/1/100 70/1/100 58/1/100
f 59/1/101 68/1/101 58/1/101
f 69/1/102 71/1/102 70/1/102
f 70/1/103 71/1/103 72/1/103
f 70/1/104 72/1/104 73/1/104
f 58/1/105 70/1/105 73/1/105
f 73/1/106 74/1/106 75/1/106
f 73/1/107 72/1/107 74/1/107
f 56/1/108 73/1/108 75/1/108
f 58/1/109 73/1/109 56/1/109
f 75/1/110 74/1/110 76/1/110
f 75/1/111 76/1/111 77/1/111
f 56/1/112 75/1/112 55/1/112
f 55/1/113 75/1/113 77/1/113
f 55/1/114 77/1/114 78/1/114
f 77/1/115 76/1/115 80/1/115
f 78/1/116 77/1/116 79/1/116
f 77/1/117 80/1/117 79/1/117
f 80/1/118 82/1/118 81/1/118
f 79/1/119 80/1/119 81/1/119
f 80/1/120 76/1/120 82/1/120
f 76/1/121 83/1/121 82/1/121
f 82/1/122 83/1/123 85/1/124
f 81/1/125 82/1/126 84/1/126
f 82/1/122 85/1/124 84/1/127
f 83/1/128 88/1/129 85/1/130
f 86/1/131 84/1/131 85/1/131
f 87/1/132 86/1/132 85/1/132
f 87/1/133 85/1/133 88/1/133
f 89/1/134 87/1/134 88/1/134
f 89/1/135 88/1/135 90/1/135
f 91/1/136 90/1/136 88/1/136
f 83/1/128 91/1/137 88/1/129
f 72/1/138 92/1/138 91/1/138
f 91/1/139 92/1/139 90/1/139
f 74/1/140 91/1/140 83/1/140
f 74/1/141 72/1/141 91/1/141
f 92/1/142 93/1/142 94/1/142
f 71/1/143 93/1/143 92/1/143
f 92/1/144 94/1/144 90/1/144
f 72/1/145 71/1/145 92/1/145
f 93/1/146 95/1/147 94/1/148
f 96/1/149 94/1/149 95/1/149
f 96/1/150 97/1/150 94/1/150
f 97/1/151 90/1/151 94/1/151
f 98/1/152 99/1/152 97/1/152
f 98/1/153 97/1/153 96/1/153
f 99/1/154 89/1/154 97/1/154
f 97/1/155 89/1/155 90/1/155
f 102/1/156 99/1/156 98/1/156
f 99/1/157 100/1/157 89/1/157
f 101/1/158 100/1/158 99/1/158
f 102/1/159 101/1/159 99/1/159
f 21/1/160 102/1/160 103/1/160
f 103/1/161 102/1/161 98/1/161
f 22/1/162 102/1/162 21/1/162
f 22/1/163 101/1/163 102/1/163
f 103/1/164 98/1/164 104/1/164
f 103/1/165 104/1/165 105/1/165
f 103/1/166 105/1/166 106/1/166
f 107/1/167 103/1/167 106/1/167
f 107/1/168 108/1/168 103/1/168
f 21/1/169 103/1/169 108/1/169
f 16/1/170 108/1/170 13/1/170
f 109/1/171 13/1/171 108/1/171
f 109/1/172 108/1/172 107/1/172
f 16/1/173 21/1/173 108/1/173
f 111/1/174 109/1/174 110/1/174
f 110/1/175 109/1/175 107/1/175
f 111/1/176 12/1/176 109/1/176
f 12/1/177 13/1/177 109/1/177
f 112/1/178 111/1/178 110/1/178
f 114/1/179 12/1/179 111/1/179
f 113/1/180 111/1/180 112/1/180
f 113/1/181 114/1/181 111/1/181
f 9/1/182 114/1/182 116/1/182
f 114/1/183 9/1/183 12/1/183
f 114/1/184 113/1/184 115/1/184
f 114/1/185 115/1/185 116/1/185
f 116/1/186 118/1/186 6/1/186
f 116/1/187 6/1/187 5/1/187
f 9/1/188 116/1/188 5/1/188
f 116/1/189 117/1/189 118/1/189
f 116/1/190 115/1/190 117/1/190
f 117/1/191 120/1/191 118/1/191
f 118/1/192 119/1/192 6/1/192
f 118/1/193 120/1/193 119/1/193
f 123/1/194 121/1/194 120/1/194
f 120/1/195 121/1/195 122/1/195
f 120/1/196 122/1/196 119/1/196
f 117/1/197 123/1/197 120/1/197
f 125/1/198 124/1/198 123/1/198
f 123/1/199 124/1/199 121/1/199
f 126/1/200 125/1/200 123/1/200
f 126/1/201 123/1/201 117/1/201
f 115/1/202 126/1/202 117/1/202
f 115/1/203 127/1/203 126/1/203
f 127/1/204 128/1/204 126/1/204
f 128/1/205 125/1/205 126/1/205
f 127/1/206 129/1/206 128/1/206
f 129/1/207 130/1/207 128/1/207
f 130/1/208 131/1/208 128/1/208
f 128/1/209 131/1/209 125/1/209
f 130/1/210 132/1/210 131/1/210
f 132/1/211 134/1/211 131/1/211
f 131/1/212 133/1/212 125/1/212
f 131/1/213 134/1/213 133/1/213
f 132/1/214 137/1/214 134/1/214
f 134/1/215 135/1/215 133/1/215
f 134/1/216 136/1/216 135/1/216
f 137/1/217 136/1/217 134/1/217
f 137/1/218 138/1/218 136/1/218
f 140/1/219 137/1/219 132/1/219
f 139/1/220 138/1/220 137/1/220
f 140/1/221 139/1/221 137/1/221
f 142/1/222 140/1/222 141/1/222
f 141/1/223 140/1/223 132/1/223
f 143/1/224 139/1/224 140/1/224
f 142/1/225 143/1/225 140/1/225
f 142/1/226 144/1/227 143/1/228
f 143/1/229 144/1/229 145/1/229
f 143/1/230 145/1/230 146/1/230
f 143/1/231 146/1/231 139/1/231
f 146/1/232 145/1/232 147/1/232
f 146/1/233 147/1/233 149/1/233
f 146/1/234 148/1/234 139/1/234
f 146/1/235 149/1/235 148/1/235
f 149/1/236 151/1/236 150/1/236
f 149/1/237 150/1/237 148/1/237
f 149/1/238 152/1/238 151/1/238
f 149/1/239 147/1/239 152/1/239
f 153/1/240 152/1/240 147/1/240
f 153/1/241 155/1/241 152/1/241
f 155/1/242 154/1/242 152/1/242
f 151/1/243 152/1/244 154/1/245
f 155/1/246 158/1/246 154/1/246
f 153/1/247 156/1/247 155/1/247
f 155/1/248 156/1/248 157/1/248
f 155/1/249 157/1/250 158/1/251
f 158/1/252 159/1/252 154/1/252
f 157/1/250 160/1/253 158/1/251
f 158/1/254 160/1/254 159/1/254
f 157/1/255 161/1/255 160/1/255
f 161/1/256 162/1/256 160/1/256
f 160/1/257 162/1/257 163/1/257
f 160/1/258 163/1/258 159/1/258
f 164/1/259 163/1/259 162/1/259
f 165/1/260 163/1/260 164/1/260
f 165/1/261 159/1/261 163/1/261
f 166/1/262 165/1/262 164/1/262
f 167/1/263 165/1/263 166/1/263
f 167/1/264 168/1/264 165/1/264
f 168/1/265 159/1/265 165/1/265
f 168/1/266 154/1/266 159/1/266
f 151/1/243 154/1/245 168/1/267
f 151/1/268 168/1/268 167/1/268
f 169/1/269 167/1/269 166/1/269
f 150/1/270 167/1/270 169/1/270
f 151/1/271 167/1/271 150/1/271
f 171/1/272 169/1/272 170/1/272
f 169/1/273 166/1/273 170/1/273
f 173/1/274 169/1/274 171/1/274
f 150/1/275 169/1/275 172/1/275
f 173/1/276 172/1/276 169/1/276
f 174/1/277 173/1/277 171/1/277
f 136/1/278 173/1/278 174/1/278
f 138/1/279 173/1/279 136/1/279
f 138/1/280 172/1/280 173/1/280
f 136/1/281 174/1/281 135/1/281
f 135/1/282 174/1/283 175/1/284
f 174/1/285 171/1/285 176/1/285
f 175/1/286 174/1/286 176/1/286
f 177/1/287 176/1/287 178/1/287
f 175/1/288 176/1/289 177/1/290
f 176/1/291 179/1/291 178/1/291
f 176/1/292 171/1/292 179/1/292
f 179/1/293 181/1/293 180/1/293
f 178/1/294 179/1/294 180/1/294
f 179/1/295 170/1/295 181/1/295
f 171/1/296 170/1/296 179/1/296
f 181/1/297 182/1/297 180/1/297
f 181/1/298 184/1/299 182/1/300
f 170/1/301 183/1/301 181/1/301
f 183/1/302 184/1/299 181/1/298
f 164/1/303 162/1/303 184/1/303
f 184/1/304 162/1/304 185/1/304
f 183/1/302 164/1/305 184/1/299
f 184/1/306 185/1/306 182/1/306
f 186/1/307 187/1/307 185/1/307
f 186/1/308 185/1/308 161/1/308
f 182/1/309 185/1/309 187/1/309
f 161/1/310 185/1/310 162/1/310
f 182/1/311 187/1/311 188/1/311
f 188/1/312 187/1/312 189/1/312
f 190/1/313 189/1/313 187/1/313
f 190/1/314 187/1/314 186/1/314
f 191/1/315 189/1/315 190/1/315
f 192/1/316 191/1/316 190/1/316
f 192/1/317 190/1/317 193/1/317
f 193/1/318 190/1/318 186/1/318
f 193/1/319 186/1/319 194/1/319
f 196/1/320 193/1/321 194/1/322
f 195/1/323 192/1/324 193/1/325
f 195/1/326 193/1/326 196/1/326
f 197/1/327 199/1/327 196/1/327
f 197/1/328 196/1/328 198/1/328
f 196/1/320 194/1/322 198/1/329
f 199/1/330 195/1/330 196/1/330
f 200/1/331 202/1/331 199/1/331
f 200/1/332 199/1/332 197/1/332
f 202/1/333 201/1/333 199/1/333
f 199/1/334 201/1/334 195/1/334
f 202/1/335 110/1/335 201/1/335
f 112/1/336 110/1/336 202/1/336
f 203/1/337 112/1/337 202/1/337
f 203/1/338 202/1/338 200/1/338
f 204/1/339 112/1/339 203/1/339
f 205/1/340 204/1/340 203/1/340
f 205/1/341 203/1/341 206/1/341
f 206/1/342 203/1/342 200/1/342
f 206/1/343 200/1/343 207/1/343
f 209/1/344 206/1/344 207/1/344
f 208/1/345 205/1/345 206/1/345
f 208/1/346 206/1/346 209/1/346
f 208/1/347 209/1/347 144/1/347
f 209/1/348 145/1/348 144/1/348
f 209/1/349 210/1/349 145/1/349
f 209/1/350 207/1/350 210/1/350
f 210/1/351 147/1/351 145/1/351
f 210/1/352 207/1/352 211/1/352
f 210/1/353 211/1/353 153/1/353
f 210/1/354 153/1/354 147/1/354
f 207/1/355 197/1/355 211/1/355
f 211/1/356 197/1/356 198/1/356
f 211/1/357 198/1/357 156/1/357
f 153/1/358 211/1/358 156/1/358
f 205/1/359 208/1/359 212/1/359
f 208/1/360 142/1/360 212/1/360
f 208/1/361 213/1/361 142/1/361
f 208/1/362 144/1/363 213/1/364
f 142/1/226 213/1/365 144/1/227
f 212/1/366 141/1/367 130/1/368
f 129/1/369 212/1/366 130/1/368
f 212/1/370 142/1/370 141/1/370
f 205/1/371 212/1/371 129/1/371
f 207/1/372 200/1/372 197/1/372
f 204/1/373 205/1/373 129/1/373
f 204/1/374 113/1/374 112/1/374
f 113/1/375 204/1/375 127/1/375
f 204/1/376 129/1/376 127/1/376
f 201/1/377 106/1/377 195/1/377
f 201/1/378 107/1/378 106/1/378
f 110/1/379 107/1/379 201/1/379
f 198/1/380 194/1/380 157/1/380
f 198/1/381 157/1/381 156/1/381
f 106/1/382 192/1/324 195/1/323
f 194/1/383 161/1/383 157/1/383
f 194/1/384 186/1/384 161/1/384
f 105/1/385 191/1/385 192/1/385
f 106/1/382 105/1/386 192/1/324
f 105/1/387 214/1/387 191/1/387
f 214/1/388 215/1/388 191/1/388
f 191/1/389 215/1/389 189/1/389
f 214/1/390 216/1/390 215/1/390
f 217/1/391 215/1/391 216/1/391
f 218/1/392 215/1/392 217/1/392
f 218/1/393 189/1/393 215/1/393
f 220/1/394 218/1/394 219/1/394
f 219/1/395 218/1/395 217/1/395
f 220/1/396 188/1/396 218/1/396
f 188/1/397 189/1/397 218/1/397
f 221/1/398 220/1/398 219/1/398
f 221/1/399 178/1/399 220/1/399
f 178/1/400 180/1/400 220/1/400
f 180/1/401 188/1/401 220/1/401
f 222/1/402 221/1/402 219/1/402
f 223/1/403 221/1/404 222/1/405
f 223/1/406 177/1/406 221/1/406
f 177/1/407 178/1/407 221/1/407
f 226/1/408 223/1/403 222/1/405
f 224/1/409 223/1/409 226/1/409
f 224/1/410 225/1/411 223/1/412
f 225/1/411 177/1/413 223/1/412
f 66/1/414 224/1/414 226/1/414
f 66/1/415 226/1/415 227/1/415
f 227/1/416 226/1/416 228/1/416
f 226/1/417 222/1/417 228/1/417
f 228/1/418 230/1/418 229/1/418
f 231/1/419 228/1/419 229/1/419
f 227/1/420 228/1/420 231/1/420
f 228/1/421 222/1/421 230/1/421
f 231/1/422 229/1/422 232/1/422
f 231/1/423 232/1/423 234/1/423
f 231/1/424 234/1/424 233/1/424
f 227/1/425 231/1/425 233/1/425
f 234/1/426 235/1/426 93/1/426
f 234/1/427 93/1/427 236/1/427
f 233/1/428 234/1/428 236/1/428
f 232/1/429 235/1/429 234/1/429
f 233/1/430 236/1/430 69/1/430
f 69/1/431 236/1/431 71/1/431
f 71/1/432 236/1/432 93/1/432
f 93/1/146 235/1/433 95/1/147
f 235/1/434 237/1/434 95/1/434
f 235/1/435 238/1/435 237/1/435
f 232/1/436 238/1/436 235/1/436
f 232/1/437 239/1/437 238/1/437
f 239/1/438 237/1/438 238/1/438
f 217/1/439 216/1/439 239/1/439
f 239/1/440 216/1/440 237/1/440
f 229/1/441 217/1/441 239/1/441
f 232/1/442 229/1/442 239/1/442
f 240/1/443 95/1/443 237/1/443
f 240/1/444 237/1/444 216/1/444
f 240/1/445 216/1/445 214/1/445
f 104/1/446 96/1/446 240/1/446
f 104/1/447 240/1/447 214/1/447
f 240/1/448 96/1/448 95/1/448
f 227/1/449 233/1/449 67/1/449
f 67/1/450 233/1/450 69/1/450
f 219/1/451 217/1/451 230/1/451
f 229/1/452 230/1/452 217/1/452
f 222/1/453 219/1/453 230/1/453
f 66/1/454 227/1/454 67/1/454
f 225/1/455 175/1/288 177/1/290
f 241/1/456 175/1/456 225/1/456
f 241/1/457 225/1/458 242/1/459
f 242/1/460 225/1/460 224/1/460
f 124/1/461 242/1/461 121/1/461
f 124/1/462 241/1/457 242/1/459
f 121/1/463 242/1/463 243/1/463
f 242/1/464 224/1/464 243/1/464
f 122/1/465 243/1/465 244/1/465
f 243/1/466 66/1/466 244/1/466
f 243/1/467 224/1/467 66/1/467
f 121/1/468 243/1/468 122/1/468
f 64/1/469 244/1/469 66/1/469
f 246/1/470 244/1/471 64/1/472
f 122/1/473 244/1/473 245/1/473
f 246/1/474 245/1/474 244/1/474
f 247/1/475 248/1/475 246/1/475
f 247/1/476 246/1/476 63/1/476
f 63/1/477 246/1/470 64/1/472
f 248/1/478 245/1/478 246/1/478
f 2/1/479 3/1/479 248/1/479
f 249/1/480 2/1/480 248/1/480
f 248/1/481 3/1/481 245/1/481
f 249/1/482 248/1/482 247/1/482
f 250/1/483 2/1/483 249/1/483
f 250/1/484 249/1/484 251/1/484
f 251/1/485 249/1/485 247/1/485
f 250/1/486 251/1/486 37/1/486
f 37/1/487 251/1/487 38/1/487
f 38/1/488 251/1/488 252/1/488
f 251/1/489 247/1/489 252/1/489
f 40/1/490 252/1/490 61/1/490
f 38/1/491 252/1/491 40/1/491
f 252/1/492 247/1/492 63/1/492
f 252/1/493 63/1/493 61/1/493
f 15/1/494 250/1/494 37/1/494
f 10/1/495 250/1/495 15/1/495
f 250/1/496 4/1/496 2/1/496
f 10/1/497 4/1/497 250/1/497
f 119/1/498 245/1/498 3/1/498
f 119/1/499 122/1/499 245/1/499
f 135/1/282 175/1/284 241/1/500
f 133/1/501 135/1/501 241/1/501
f 133/1/502 241/1/502 124/1/502
f 104/1/503 214/1/503 105/1/503
f 180/1/504 182/1/504 188/1/504
f 166/1/505 164/1/505 183/1/505
f 170/1/506 166/1/506 183/1/506
f 148/1/507 150/1/507 172/1/507
f 148/1/508 172/1/508 138/1/508
f 139/1/509 148/1/509 138/1/509
f 141/1/510 132/1/510 130/1/510
f 125/1/511 133/1/511 124/1/511
f 113/1/512 127/1/512 115/1/512
f 6/1/513 119/1/513 3/1/513
f 104/1/514 98/1/514 96/1/514
f 25/1/515 101/1/515 22/1/515
f 25/1/516 253/1/516 101/1/516
f 101/1/517 253/1/517 100/1/517
f 27/1/518 253/1/518 25/1/518
f 27/1/519 255/1/519 253/1/519
f 253/1/520 254/1/520 100/1/520
f 253/1/521 255/1/521 254/1/521
f 255/1/522 258/1/522 256/1/522
f 255/1/523 256/1/523 254/1/523
f 257/1/524 258/1/524 255/1/524
f 257/1/525 255/1/525 27/1/525
f 260/1/526 256/1/526 258/1/526
f 259/1/527 258/1/527 257/1/527
f 259/1/528 260/1/528 258/1/528
f 259/1/529 262/1/529 260/1/529
f 260/1/530 261/1/530 256/1/530
f 260/1/531 263/1/531 261/1/531
f 260/1/532 262/1/532 263/1/532
f 264/1/533 263/1/533 262/1/533
f 264/1/534 265/1/534 263/1/534
f 265/1/535 266/1/535 263/1/535
f 261/1/536 263/1/536 266/1/536
f 261/1/537 266/1/537 269/1/537
f 265/1/538 267/1/538 266/1/538
f 267/1/539 268/1/540 266/1/541
f 269/1/542 266/1/542 268/1/542
f 269/1/543 268/1/543 84/1/543
f 86/1/544 269/1/544 84/1/544
f 256/1/545 269/1/545 86/1/545
f 256/1/546 261/1/546 269/1/546
f 267/1/539 81/1/547 268/1/540
f 81/1/125 84/1/126 268/1/125
f 79/1/548 81/1/548 267/1/548
f 270/1/549 267/1/549 265/1/549
f 270/1/550 79/1/550 267/1/550
f 271/1/551 78/1/552 270/1/553
f 78/1/554 79/1/554 270/1/554
f 264/1/555 271/1/555 270/1/555
f 264/1/556 270/1/556 265/1/556
f 271/1/551 273/1/557 78/1/552
f 272/1/558 273/1/558 271/1/558
f 274/1/559 272/1/559 271/1/559
f 274/1/560 271/1/560 264/1/560
f 275/1/561 272/1/561 274/1/561
f 275/1/562 274/1/562 276/1/562
f 274/1/563 262/1/563 276/1/563
f 274/1/564 264/1/564 262/1/564
f 259/1/565 276/1/565 262/1/565
f 277/1/566 276/1/566 259/1/566
f 275/1/567 276/1/567 278/1/567
f 277/1/568 278/1/569 276/1/570
f 31/1/571 278/1/569 277/1/568
f 31/1/572 279/1/572 278/1/572
f 280/1/573 278/1/574 279/1/575
f 280/1/576 275/1/576 278/1/576
f 281/1/577 47/1/577 280/1/577
f 281/1/578 280/1/573 279/1/575
f 280/1/579 47/1/579 49/1/579
f 280/1/580 49/1/580 275/1/580
f 33/1/581 46/1/581 281/1/581
f 281/1/582 46/1/582 47/1/582
f 30/1/583 33/1/583 281/1/583
f 30/1/584 281/1/584 282/1/584
f 281/1/585 279/1/585 282/1/585
f 30/1/586 282/1/586 279/1/586
f 30/1/587 279/1/587 31/1/587
f 277/1/588 259/1/588 257/1/588
f 31/1/589 277/1/589 28/1/589
f 277/1/590 257/1/590 28/1/590
f 275/1/591 49/1/591 272/1/591
f 272/1/592 50/1/592 273/1/592
f 50/1/593 53/1/593 273/1/593
f 53/1/594 78/1/594 273/1/594
f 49/1/595 50/1/595 272/1/595
f 28/1/596 257/1/596 27/1/596
f 254/1/597 256/1/597 86/1/597
f 254/1/598 86/1/598 87/1/598
f 100/1/599 254/1/599 87/1/599
f 100/1/600 87/1/600 89/1/600
f 76/1/601 74/1/601 83/1/601
f 53/1/602 55/1/602 78/1/602
f 40/1/603 61/1/603 43/1/603
f 44/1/61 43/1/61 52/1/604
f 33/1/605 41/1/605 46/1/605
f 34/1/606 41/1/606 33/1/606
f 15/1/607 37/1/607 18/1/607
