# Blender 5.2.1 LTS
# www.blender.org
mtllib blockPush.mtl
o 立方体.007
v -0.277850 -0.537716 0.277850
v -0.277944 -0.306817 0.509216
v -0.478855 -0.299172 0.270298
v -0.265481 0.236608 0.459726
v -0.274861 0.468101 0.274861
v -0.478700 0.241386 0.270259
v -0.275529 -0.528499 -0.275529
v -0.457419 -0.293773 -0.264900
v -0.266877 -0.295750 -0.465269
v -0.274523 0.466758 -0.274523
v -0.270986 0.242113 -0.481586
v -0.431255 0.229439 -0.258312
v 0.275179 -0.527108 0.275179
v 0.457901 -0.293895 0.265022
v 0.267556 -0.296429 0.467963
v 0.266352 0.434309 0.266352
v 0.263746 0.234873 0.452836
v 0.494926 0.245472 0.274345
v 0.269336 -0.503908 -0.269336
v 0.269622 -0.298495 -0.476169
v 0.412680 -0.282507 -0.253634
v 0.271539 0.454910 -0.271539
v 0.481270 0.242033 -0.270907
v 0.253535 0.224662 -0.412286
v -0.399148 -0.428021 0.261005
v -0.268879 -0.453465 0.424592
v -0.388272 -0.286512 0.388272
v -0.418423 0.238097 0.418424
v -0.262322 0.374532 0.403405
v -0.430637 0.401764 0.270750
v -0.268349 -0.451754 -0.422881
v -0.424817 -0.453690 -0.268949
v -0.389690 -0.286951 -0.389690
v -0.429091 0.400218 -0.270272
v -0.269073 0.396346 -0.425220
v -0.392261 0.230000 -0.392260
v 0.249564 -0.391053 0.362180
v 0.443792 -0.472665 0.274821
v 0.456505 -0.307629 0.456505
v 0.416288 0.387415 0.266309
v 0.274783 0.414795 0.443668
v 0.427156 0.240800 0.427156
v 0.373317 -0.402190 -0.253010
v 0.276601 -0.478417 -0.449544
v 0.435336 -0.301077 -0.435336
v 0.266772 0.388909 -0.417782
v 0.450367 0.421494 -0.276856
v 0.379226 0.225966 -0.379226
v -0.279222 -0.558455 0.000000
v -0.517262 -0.304709 0.000000
v -0.280161 -0.028873 0.532997
v -0.537975 -0.028873 0.281529
v -0.288616 0.534886 -0.000000
v -0.503916 0.243295 -0.000000
v -0.259457 -0.028873 -0.457668
v -0.475002 -0.028873 -0.264221
v 0.000000 -0.528788 -0.271068
v 0.000000 -0.317406 -0.563460
v 0.000000 0.484344 -0.274724
v 0.000000 0.251372 -0.533303
v 0.478161 -0.028873 -0.265090
v 0.267081 -0.028873 -0.485408
v 0.279423 -0.559185 0.000000
v 0.481624 -0.294915 0.000000
v 0.266592 0.454752 -0.000000
v 0.514529 0.246212 -0.000000
v 0.269191 -0.028873 0.493084
v 0.517278 -0.028873 0.275841
v 0.000000 -0.479312 0.257470
v 0.000000 -0.296646 0.487924
v 0.000000 0.435261 0.261235
v 0.000000 0.233086 0.466770
v -0.408404 -0.437277 0.408404
v -0.389117 0.360243 0.389117
v -0.362347 -0.391220 -0.362347
v -0.380328 0.351455 -0.380328
v 0.400807 -0.429681 0.400807
v 0.335359 0.306486 0.335359
v 0.396870 -0.425743 -0.396870
v 0.388192 0.359319 -0.388192
v -0.449318 -0.478191 0.000000
v -0.410508 -0.028873 0.410508
v -0.408297 0.379424 -0.000000
v -0.430335 -0.028873 -0.430335
v 0.000000 -0.498263 -0.469390
v 0.000000 0.377720 -0.406593
v 0.438629 -0.028873 -0.438629
v 0.468941 -0.497814 0.000000
v 0.407276 0.378403 -0.000000
v 0.453998 -0.028873 0.453998
v 0.000000 -0.490978 0.462104
v 0.000000 0.373678 0.402551
v 0.000000 -0.591646 0.000000
v -0.544036 -0.028873 0.000000
v 0.000000 -0.028873 0.564195
v 0.000000 0.533073 -0.000000
v 0.000000 -0.028873 -0.520063
v 0.466840 -0.028873 0.000000
vn -0.4465 -0.8672 0.2207
vn -0.4930 -0.1668 0.8539
vn -0.9383 -0.1887 0.2900
vn -0.1985 0.3288 0.9233
vn -0.2669 0.8197 0.5069
vn -0.8801 0.2801 0.3832
vn -0.5186 -0.6666 -0.5355
vn -0.8016 -0.2305 -0.5516
vn -0.5720 -0.2648 -0.7763
vn -0.4148 0.7919 -0.4482
vn -0.5281 0.2291 -0.8177
vn -0.9372 0.0452 -0.3460
vn -0.0380 -0.7709 0.6358
vn 0.9566 -0.2458 0.1564
vn -0.1470 -0.5584 0.8164
vn 0.6685 0.5989 0.4409
vn 0.6013 0.4649 0.6499
vn 0.4747 0.6662 0.5752
vn 0.5564 -0.8295 0.0479
vn 0.3386 -0.2300 -0.9124
vn 0.9465 -0.2743 0.1698
vn 0.2172 0.8502 -0.4795
vn 0.7960 0.0270 -0.6047
vn 0.2383 -0.0649 -0.9690
vn -0.4359 -0.8930 -0.1119
vn -0.5455 -0.8226 0.1604
vn -0.8795 -0.4354 0.1923
vn -0.9444 -0.2828 -0.1680
vn -0.7119 -0.0923 0.6962
vn -0.4969 0.1119 0.8605
vn -0.8247 0.0823 0.5596
vn -0.7366 -0.1552 0.6583
vn -0.6268 0.7774 0.0535
vn -0.6286 0.7754 -0.0596
vn -0.9500 0.2992 -0.0893
vn -0.8998 0.4361 -0.0117
vn -0.3720 0.0434 -0.9272
vn -0.3318 -0.0802 -0.9399
vn -0.9238 -0.1304 -0.3600
vn -0.9489 0.1726 -0.2642
vn 0.0865 -0.9858 -0.1442
vn -0.1046 -0.9492 -0.2967
vn -0.2859 -0.3587 -0.8886
vn 0.2041 -0.3070 -0.9296
vn 0.0196 0.8474 -0.5306
vn 0.0203 0.8484 -0.5290
vn 0.0209 0.8493 -0.5275
vn 0.2025 0.3691 -0.9071
vn -0.0418 0.5462 -0.8366
vn 0.8815 0.1403 -0.4508
vn 0.9906 -0.1307 -0.0402
vn 0.2512 -0.0227 -0.9677
vn 0.2481 0.2775 -0.9281
vn 0.3058 -0.9452 0.1147
vn 0.4723 -0.8167 -0.3315
vn 0.9303 -0.1507 -0.3343
vn 0.9934 -0.0673 0.0932
vn 0.3247 0.9402 0.1026
vn 0.3904 0.9206 0.0133
vn 0.8275 0.5614 0.0076
vn 0.9129 0.4056 0.0452
vn 0.1790 0.1334 0.9748
vn 0.1327 -0.0408 0.9903
vn 0.9802 -0.1051 0.1676
vn 0.9244 0.1027 0.3675
vn 0.0311 -0.9790 0.2014
vn 0.1523 -0.9042 0.3990
vn 0.2808 -0.4122 0.8667
vn -0.0436 -0.3089 0.9501
vn -0.0928 0.9643 0.2479
vn 0.0677 0.8663 0.4949
vn -0.0075 0.3973 0.9177
vn -0.0670 0.2249 0.9721
vn -0.0580 -0.9842 -0.1675
vn 0.1022 -0.9714 -0.2143
vn -0.0350 -0.9646 0.2613
vn 0.0527 -0.9691 0.2408
vn -0.9844 -0.1565 0.0809
vn -0.9819 0.1811 0.0563
vn -0.9527 0.1535 -0.2624
vn -0.9682 -0.0791 -0.2375
vn 0.1645 -0.1840 0.9691
vn 0.1517 0.2519 0.9558
vn -0.0645 0.3089 0.9489
vn -0.0142 -0.1804 0.9835
vn 0.1961 0.9769 -0.0851
vn -0.0275 0.9776 -0.2087
vn 0.0657 0.9544 0.2913
vn 0.1416 0.9659 0.2166
vn -0.2872 0.0914 -0.9535
vn -0.2086 -0.0701 -0.9755
vn 0.2900 0.1140 -0.9502
vn 0.2191 0.0606 -0.9738
vn 0.9887 -0.0989 -0.1122
vn 0.9949 -0.0930 -0.0400
vn 0.9974 -0.0461 -0.0560
vn 0.9954 -0.0826 -0.0490
vt 0.193982 0.683102
vt 0.195891 0.722078
vt 0.162207 0.713623
vt 0.154919 0.682841
vt 0.175000 0.750000
vt 0.150000 0.725000
vt 0.125000 0.700000
vt 0.575000 0.000000
vt 0.600000 0.025000
vt 0.588346 0.037023
vt 0.557755 0.029861
vt 0.625000 0.050000
vt 0.595255 0.069676
vt 0.557407 0.068519
vt 0.193981 0.566898
vt 0.154919 0.567159
vt 0.162207 0.536377
vt 0.195891 0.527923
vt 0.125000 0.550000
vt 0.150000 0.525000
vt 0.175000 0.500000
vt 0.625000 0.233333
vt 0.596846 0.284515
vt 0.587701 0.241491
vt 0.595240 0.200813
vt 0.556713 0.298573
vt 0.556163 0.244039
vt 0.557407 0.192323
vt 0.318982 0.685417
vt 0.369748 0.684505
vt 0.371080 0.721200
vt 0.332212 0.730100
vt 0.422107 0.687847
vt 0.412290 0.734831
vt 0.375000 0.775000
vt 0.650000 0.750000
vt 0.604297 0.792289
vt 0.594808 0.752626
vt 0.606771 0.708001
vt 0.554514 0.802894
vt 0.554254 0.751910
vt 0.557986 0.698032
vt 0.318982 0.564583
vt 0.332212 0.519900
vt 0.371080 0.528800
vt 0.369748 0.565495
vt 0.375000 0.475000
vt 0.412290 0.515148
vt 0.422106 0.562153
vt 0.650000 0.500000
vt 0.606771 0.541862
vt 0.594808 0.496457
vt 0.604297 0.451895
vt 0.557986 0.551968
vt 0.554254 0.497685
vt 0.554514 0.443866
vt 0.192245 0.625000
vt 0.152619 0.625000
vt 0.125000 0.625000
vt 0.425000 0.000000
vt 0.500000 0.000000
vt 0.498018 0.026997
vt 0.425000 0.025000
vt 0.497801 0.065509
vt 0.425000 0.050000
vt 0.625000 0.141667
vt 0.597425 0.133989
vt 0.558102 0.128438
vt 0.494242 0.305030
vt 0.497298 0.247182
vt 0.425000 0.300000
vt 0.425000 0.250000
vt 0.425000 0.200000
vt 0.497801 0.191662
vt 0.254745 0.564873
vt 0.263241 0.521188
vt 0.275000 0.487500
vt 0.637500 0.366667
vt 0.603308 0.368065
vt 0.556091 0.371451
vt 0.490480 0.557234
vt 0.484192 0.503872
vt 0.478986 0.450123
vt 0.315683 0.625000
vt 0.369195 0.625000
vt 0.424277 0.625000
vt 0.663715 0.625000
vt 0.611296 0.625000
vt 0.559809 0.625000
vt 0.478986 0.798691
vt 0.484192 0.745980
vt 0.490480 0.692766
vt 0.254745 0.685127
vt 0.263241 0.728812
vt 0.275000 0.762500
vt 0.637500 0.850000
vt 0.603738 0.863865
vt 0.625000 0.950000
vt 0.600000 0.950000
vt 0.575000 0.950000
vt 0.557682 0.870674
vt 0.251772 0.625000
vt 0.497888 0.126070
vt 0.425000 0.125000
vt 0.486117 0.869392
vt 0.400000 0.862500
vt 0.500000 0.950000
vt 0.425000 0.950000
vt 0.737500 0.525000
vt 0.738889 0.625000
vt 0.825000 0.550000
vt 0.825000 0.625000
vt 0.825000 0.700000
vt 0.737500 0.725000
vt 0.485397 0.378289
vt 0.400000 0.387500
vt 0.492737 0.625000
s 1
usemtl block.004
f 1/1/1 26/2/1 73/3/1 25/4/1
f 2/5/2 27/6/2 73/3/2 26/2/2
f 3/7/3 25/4/3 73/3/3 27/6/3
f 4/8/4 29/9/4 74/10/4 28/11/4
f 5/12/5 30/13/5 74/10/5 29/9/5
f 6/14/6 28/11/6 74/10/6 30/13/6
f 7/15/7 32/16/7 75/17/7 31/18/7
f 8/19/8 33/20/8 75/17/8 32/16/8
f 9/21/9 31/18/9 75/17/9 33/20/9
f 10/22/10 35/23/10 76/24/10 34/25/10
f 11/26/11 36/27/11 76/24/11 35/23/11
f 12/28/12 34/25/12 76/24/12 36/27/12
f 13/29/13 38/30/13 77/31/13 37/32/13
f 14/33/14 39/34/14 77/31/14 38/30/14
f 15/35/15 37/32/15 77/31/15 39/34/15
f 16/36/16 41/37/16 78/38/16 40/39/16
f 17/40/17 42/41/17 78/38/17 41/37/17
f 18/42/18 40/39/18 78/38/18 42/41/18
f 19/43/19 44/44/19 79/45/19 43/46/19
f 20/47/20 45/48/20 79/45/20 44/44/20
f 21/49/21 43/46/21 79/45/21 45/48/21
f 22/50/22 47/51/22 80/52/22 46/53/22
f 23/54/23 48/55/23 80/52/23 47/51/23
f 24/56/24 46/53/24 80/52/24 48/55/24
f 7/15/25 49/57/25 81/58/25 32/16/25
f 49/57/26 1/1/26 25/4/26 81/58/26
f 81/58/27 25/4/27 3/7/27 50/59/27
f 32/16/28 81/58/28 50/59/28 8/19/28
f 2/60/29 51/61/29 82/62/29 27/63/29
f 51/61/30 4/8/30 28/11/30 82/62/30
f 82/62/31 28/11/31 6/14/31 52/64/31
f 27/63/32 82/62/32 52/64/32 3/65/32
f 5/12/33 53/66/33 83/67/33 30/13/33
f 53/66/34 10/22/34 34/25/34 83/67/34
f 83/67/35 34/25/35 12/28/35 54/68/35
f 30/13/36 83/67/36 54/68/36 6/14/36
f 11/26/37 55/69/37 84/70/37 36/27/37
f 55/69/38 9/71/38 33/72/38 84/70/38
f 84/70/39 33/72/39 8/73/39 56/74/39
f 36/27/40 84/70/40 56/74/40 12/28/40
f 19/43/41 57/75/41 85/76/41 44/44/41
f 57/75/42 7/15/42 31/18/42 85/76/42
f 85/76/43 31/18/43 9/21/43 58/77/43
f 44/44/44 85/76/44 58/77/44 20/47/44
f 10/22/45 59/78/46 86/79/46 35/23/45
f 59/78/46 22/50/47 46/53/47 86/79/46
f 86/79/48 46/53/48 24/56/48 60/80/48
f 35/23/49 86/79/49 60/80/49 11/26/49
f 23/54/50 61/81/50 87/82/50 48/55/50
f 61/81/51 21/49/51 45/48/51 87/82/51
f 87/82/52 45/48/52 20/47/52 62/83/52
f 48/55/53 87/82/53 62/83/53 24/56/53
f 13/29/54 63/84/54 88/85/54 38/30/54
f 63/84/55 19/43/55 43/46/55 88/85/55
f 88/85/56 43/46/56 21/49/56 64/86/56
f 38/30/57 88/85/57 64/86/57 14/33/57
f 22/50/58 65/87/58 89/88/58 47/51/58
f 65/87/59 16/36/59 40/39/59 89/88/59
f 89/88/60 40/39/60 18/42/60 66/89/60
f 47/51/61 89/88/61 66/89/61 23/54/61
f 17/40/62 67/90/62 90/91/62 42/41/62
f 67/90/63 15/35/63 39/34/63 90/91/63
f 90/91/64 39/34/64 14/33/64 68/92/64
f 42/41/65 90/91/65 68/92/65 18/42/65
f 1/1/66 69/93/66 91/94/66 26/2/66
f 69/93/67 13/29/67 37/32/67 91/94/67
f 91/94/68 37/32/68 15/35/68 70/95/68
f 26/2/69 91/94/69 70/95/69 2/5/69
f 16/36/70 71/96/70 92/97/70 41/37/70
f 71/96/71 5/98/71 29/99/71 92/97/71
f 92/97/72 29/99/72 4/100/72 72/101/72
f 41/37/73 92/97/73 72/101/73 17/40/73
f 7/15/74 57/75/74 93/102/74 49/57/74
f 57/75/75 19/43/75 63/84/75 93/102/75
f 93/102/76 63/84/76 13/29/76 69/93/76
f 49/57/77 93/102/77 69/93/77 1/1/77
f 3/65/78 52/64/78 94/103/78 50/104/78
f 52/64/79 6/14/79 54/68/79 94/103/79
f 94/103/80 54/68/80 12/28/80 56/74/80
f 50/104/81 94/103/81 56/74/81 8/73/81
f 15/35/82 67/90/82 95/105/82 70/106/82
f 67/90/83 17/40/83 72/101/83 95/105/83
f 95/105/84 72/101/84 4/100/84 51/107/84
f 70/106/85 95/105/85 51/107/85 2/108/85
f 22/50/86 59/109/86 96/110/86 65/87/86
f 59/109/87 10/111/87 53/112/87 96/110/87
f 96/110/88 53/112/88 5/113/88 71/114/88
f 65/87/89 96/110/89 71/114/89 16/36/89
f 9/71/90 55/69/90 97/115/90 58/116/90
f 55/69/91 11/26/91 60/80/91 97/115/91
f 97/115/92 60/80/92 24/56/92 62/83/92
f 58/116/93 97/115/93 62/83/93 20/47/93
f 21/49/94 61/81/94 98/117/94 64/86/94
f 61/81/95 23/54/95 66/89/95 98/117/95
f 98/117/96 66/89/96 18/42/96 68/92/96
f 64/86/97 98/117/97 68/92/97 14/33/97
