# Blender 5.2.2 LTS
# www.blender.org
mtllib finalBossHand_6.mtl
o 立方体.010
v 9.609113 -12.610449 0.400983
v 9.630341 -12.619087 0.316331
v 7.346189 -11.723217 0.649010
v 10.051154 -12.908417 0.315226
v 9.964437 -12.985142 0.526480
v 9.570289 -12.663786 0.490574
v 10.390060 -12.771547 0.414562
v 9.192861 -13.467159 0.525258
v 9.068940 -13.461275 0.629609
v 9.141638 -13.459122 0.438443
v 6.884589 -11.896479 0.877009
v 6.874301 -11.777035 0.962559
v 6.071344 -9.743427 0.946994
v 6.837540 -11.887739 0.795842
v 8.950474 -13.438471 0.373156
v 6.010800 -9.756441 0.877921
v 6.740167 -11.765932 0.726082
v 8.679491 -13.391945 0.328073
v 6.623832 -11.574375 0.665993
v 5.927818 -9.721491 0.821539
v 4.173171 -7.000072 1.429590
v 4.077125 -6.970931 1.344043
v 5.833615 -9.654575 0.777277
v 6.524172 -11.359837 0.607923
v 3.975982 -6.895162 1.266771
v 5.735837 -9.566284 0.744517
v 3.876833 -6.779895 1.197562
v 5.470361 -9.307533 0.756641
v 6.366480 -10.955742 0.517849
v 6.787396 -12.033398 0.421728
v 6.057150 -10.261860 0.492990
v 7.684616 -12.978331 0.330604
v 7.265942 -12.525591 0.318225
v 8.055677 -13.044857 0.228371
v 8.370782 -13.307293 0.302473
v 8.711323 -13.188501 0.192572
v 9.187552 -13.161453 0.201280
v 9.151020 -12.972120 0.149995
v 8.766272 -13.066605 0.148040
v 6.952785 -11.679731 0.459350
v 8.166469 -12.992167 0.194710
v 6.746679 -11.462376 0.453580
v 6.029741 -9.533533 0.572826
v 5.883164 -9.481447 0.586434
v 6.549592 -11.095215 0.432365
v 7.275288 -12.486176 0.304070
v 6.279846 -10.547052 0.412291
v 5.701681 -9.340143 0.611576
v 5.201658 -8.850113 0.744233
v 3.908913 -6.558268 0.964723
v 4.094975 -6.773240 0.977891
v 4.261862 -6.841937 0.977977
v 3.330177 -3.729766 0.740625
v 3.437175 -3.711104 0.742543
v 3.424835 0.232317 -1.414439
v 3.545504 0.315251 -1.451858
v 3.556315 -3.672122 0.746104
v 3.677701 0.387207 -1.473899
v 3.674594 -3.623650 0.761780
v 4.424173 -6.851411 0.987699
v 6.166251 -9.551582 0.573646
v 4.565921 -6.810431 1.014645
v 6.278004 -9.531622 0.593518
v 4.678684 -6.740263 1.063932
v 3.779295 -3.567729 0.795463
v 3.857810 -3.497244 0.848619
v 3.912246 0.474560 -1.429482
v 3.804149 0.436084 -1.466648
v 4.101965 3.536855 -2.118932
v 3.976680 3.353111 -2.137121
v 3.649939 6.541562 -1.734535
v 3.607168 6.293370 -1.785645
v 3.849905 3.071859 -2.131615
v 3.583751 6.005268 -1.837155
v 3.734987 2.754048 -2.107124
v 3.594172 5.632630 -1.911767
v 3.638995 2.343372 -2.073020
v 3.327594 0.095843 -1.368113
v 3.535246 1.989747 -2.040578
v 3.583313 5.245777 -1.982803
v 3.555564 4.882870 -2.039664
v 3.559724 5.250221 -1.959211
v 3.543937 5.597663 -1.871853
v 3.524526 5.109975 -1.930785
v 3.502680 5.450714 -1.823775
v 3.497061 2.304686 -1.940387
v 3.576620 2.800900 -1.908473
v 3.471025 5.847839 -1.677469
v 3.631736 3.125503 -1.868290
v 3.450494 6.081522 -1.573403
v 3.520889 6.008999 -1.760967
v 3.495609 6.378410 -1.652653
v 3.452170 6.784369 -1.509221
v 3.435601 6.310202 -1.459309
v 3.439412 6.493680 -1.347930
v 3.772233 3.746679 -1.734886
v 3.697942 3.459308 -1.810513
v 3.459823 1.166759 -1.297512
v 3.380943 0.978049 -1.317496
v 3.309726 0.772371 -1.319916
v 3.225192 -3.393783 0.995952
v 3.282109 -3.291360 1.050280
v 3.345782 -3.193387 1.111976
v 3.537075 1.301764 -1.247497
v 3.602497 1.355794 -1.163892
v 3.411269 -3.114945 1.181193
v 4.307897 -6.874407 1.619200
v 4.253687 -6.970136 1.523018
v 6.099527 -9.673384 1.025656
v 6.100028 -9.561235 1.106469
v 6.834266 -11.558252 1.039762
v 6.811043 -11.309116 1.094937
v 8.494436 -13.314062 0.862192
v 8.820984 -13.419706 0.741226
v 8.985813 -13.177776 0.784221
v 9.487035 -13.134218 0.652200
v 9.267316 -12.897854 0.684070
v 9.473680 -12.769463 0.584249
v 7.343522 -11.688217 0.735847
v 7.305078 -11.641138 0.830834
v 6.444237 -9.381186 0.864381
v 6.444355 -9.407862 0.771860
v 7.225393 -11.537127 0.926186
v 6.408035 -9.332600 0.967105
v 7.118761 -11.345903 1.010967
v 8.931689 -12.989418 0.797273
v 8.456959 -13.080088 0.933247
v 8.502425 -12.969307 0.925599
v 7.823874 -12.699816 1.113655
v 7.925394 -12.680149 1.079355
v 7.023545 -11.093239 1.073708
v 6.921150 -10.712704 1.117480
v 6.338802 -9.254028 1.073797
v 6.248953 -9.151922 1.175515
v 4.724687 -6.414538 1.620431
v 4.640421 -6.266593 1.732641
v 6.123516 -8.964359 1.281655
v 4.533282 -5.974191 1.821258
v 5.702723 -8.422375 1.509446
v 6.722900 -10.112709 1.189694
v 7.285844 -11.940199 1.233627
v 7.069656 -11.450390 1.277985
v 6.573390 -9.791061 1.257957
v 6.546562 -9.822153 1.274247
v 5.396717 -8.075197 1.660926
v 5.416709 -8.029833 1.644314
v 4.181263 -5.005385 1.979139
v 4.332324 -5.322916 1.904382
v 4.215061 -4.949104 1.950270
v 3.815469 -2.544689 1.254048
v 3.791234 -2.347166 1.231217
v 3.751430 -2.376933 1.272699
v 4.089235 -4.878199 1.953274
v 3.900993 1.126492 -0.642186
v 3.694054 -2.200284 1.167410
v 3.658812 -2.752297 1.359863
v 3.802300 1.181415 -0.746430
v 3.882873 1.300159 -0.738386
v 4.231974 2.621160 -1.118915
v 4.207907 2.832323 -1.167192
v 4.157658 3.007011 -1.239280
v 4.213487 5.245270 -1.214497
v 4.275166 5.076509 -1.219058
v 4.304089 5.130064 -1.237156
v 4.275684 2.661526 -1.150215
v 4.303644 2.825788 -1.234223
v 3.965268 1.081527 -0.728769
v 3.947745 1.122338 -0.672455
v 3.963227 0.991166 -0.798312
v 4.317862 3.063565 -1.350542
v 3.984797 1.013774 -0.909135
v 3.836958 -2.913805 1.312852
v 3.848369 -3.034577 1.272489
v 3.877671 -3.122214 1.195387
v 3.902282 -3.210914 1.101881
v 4.022258 0.977538 -1.020253
v 4.052374 0.906407 -1.134159
v 4.367442 3.592528 -1.564767
v 4.338247 3.374434 -1.454302
v 4.128434 6.119579 -1.293435
v 4.209500 5.756866 -1.287413
v 4.159980 5.722954 -1.245428
v 4.280948 5.381172 -1.262830
v 4.252326 5.385419 -1.244331
v 4.100631 5.572005 -1.211223
v 4.098805 3.335439 -1.343648
v 3.941368 5.948141 -1.203527
v 4.038852 6.119334 -1.243449
v 3.826282 6.164091 -1.198308
v 4.050439 3.543569 -1.409890
v 3.993304 3.746762 -1.483268
v 3.655338 1.345070 -1.062119
v 3.700383 1.301117 -0.959285
v 3.741733 1.246947 -0.867786
v 3.474509 -3.053862 1.249238
v 3.533938 -2.997578 1.306926
v 4.348448 -6.336998 1.852376
v 3.588594 -2.935065 1.346946
v 4.349582 -6.545229 1.788486
v 6.050774 -9.278284 1.256097
v 4.337605 -6.727533 1.709499
v 6.081776 -9.425491 1.184393
v 6.800451 -11.066021 1.131308
v 8.143481 -13.126131 0.983617
v 7.526677 -12.558535 1.176250
v 6.732658 -10.581646 1.185157
v 5.883418 -8.938133 1.411065
v 6.999993 -11.477657 1.275723
v 6.505179 -9.831711 1.260301
v 5.313046 -8.030491 1.661690
v 4.291733 -5.865134 1.934896
v 7.269158 -11.978052 1.243763
v 7.032429 -11.456707 1.293739
v 3.926374 3.893545 -1.562467
v 3.699694 6.369890 -1.198112
v 3.576770 6.525416 -1.213018
v 3.752999 6.854150 -1.218318
v 3.917343 6.471920 -1.237823
v 4.017810 6.622111 -1.375952
v 4.073103 6.393556 -1.326419
v 4.386231 3.758058 -1.684052
v 4.385106 3.814541 -1.804069
v 4.061946 0.793600 -1.233032
v 3.900723 -3.406659 0.920497
v 3.912797 -3.306921 1.006878
v 4.043428 0.657061 -1.310869
v 3.993788 0.539355 -1.374200
v 4.358389 3.765853 -1.916111
v 3.936421 6.794729 -1.529518
v 3.973291 6.756191 -1.446098
v 4.301957 3.682178 -2.009554
v 3.886395 6.784783 -1.604857
v 4.213984 3.624189 -2.076856
v 3.806805 6.766159 -1.654657
v 3.444073 7.141000 -1.377682
v 3.719180 6.700106 -1.692065
v 3.482992 6.577764 -1.260124
v 3.450637 7.465378 -1.246785
v 3.602055 7.178937 -1.227164
v 3.850811 3.909332 -1.648235
v 4.787348 -6.517745 1.492471
v 4.815996 -6.581542 1.362127
v 4.806210 -6.623820 1.240955
v 4.759587 -6.670977 1.139069
v 6.414158 -9.436188 0.693894
v 6.359611 -9.484381 0.633891
v 7.260235 -11.819948 0.517727
v 7.323510 -11.777962 0.575419
v 9.593072 -12.693596 0.240896
v 9.646495 -13.055937 0.241783
v 9.439521 -12.825880 0.182300
v 7.137309 -11.801102 0.478772
v 3.177287 -3.483104 0.943998
v 3.252448 0.576993 -1.315783
v 3.139809 -3.545888 0.890289
v 3.178493 0.314369 -1.311444
v 3.681892 -6.441568 1.100410
v 3.083034 -3.541802 0.780044
v 3.368388 -5.568082 1.000036
v 3.025435 -3.151806 0.530049
v 3.156915 0.298332 -1.398921
v 3.034974 -3.380252 0.573482
v 3.129478 0.039652 -1.333800
v 3.069440 -3.359519 0.529801
v 3.170403 0.028533 -1.369742
v 3.423429 1.723267 -1.957502
v 3.459983 1.758667 -1.997984
v 3.530983 4.796906 -2.024615
v 3.447108 2.006191 -1.965766
v 3.237925 0.058775 -1.381509
v 3.140272 -3.479463 0.586667
v 3.610137 -6.006615 0.934596
v 3.246575 -3.710832 0.710538
v 3.438092 -5.689557 0.919698
v 4.875684 -8.502562 0.830766
v 3.410923 -5.740443 0.954939
v 4.811778 -8.470850 0.907951
v 4.860372 -8.544168 0.852517
v 6.066705 -10.282776 0.451984
v 6.089077 -10.254305 0.430100
v 6.848355 -12.039335 0.354192
v 6.807499 -12.047863 0.377930
vn -0.5657 -0.8226 -0.0579
vn -0.3647 -0.9311 0.0036
vn -0.3505 -0.7301 -0.5866
vn -0.1003 -0.4097 0.9067
vn -0.0597 -0.3674 -0.9281
vn -0.4757 -0.6497 -0.5929
vn -0.4395 0.8162 0.3750
vn -0.4925 0.7893 -0.3667
vn 0.5172 0.6305 0.5787
vn -0.4383 0.7030 -0.5601
vn -0.4521 0.8234 0.3430
vn 0.5227 0.8202 -0.2324
vn 0.3223 0.5694 -0.7563
vn 0.5268 0.8218 -0.2169
vn 0.8654 0.3389 -0.3691
vn 0.8320 0.3288 -0.4469
vn 0.3125 0.6216 -0.7183
vn 0.6908 0.2934 -0.6608
vn 0.5935 0.7010 0.3954
vn 0.7846 0.3247 -0.5282
vn 0.2231 0.4745 -0.8515
vn 0.5798 0.5427 0.6077
vn 0.8112 0.3444 -0.4726
vn 0.6174 0.2796 -0.7353
vn 0.6180 0.5285 -0.5820
vn 0.6441 0.5369 -0.5448
vn 0.6414 0.5358 -0.5491
vn 0.6459 0.5376 -0.5421
vn 0.6395 0.5351 -0.5520
vn 0.5626 0.2767 -0.7790
vn 0.5317 0.2942 -0.7942
vn 0.9117 0.3838 -0.1468
vn 0.7254 0.5595 -0.4009
vn 0.6610 0.5378 -0.5233
vn 0.7992 0.5661 -0.2022
vn 0.2889 0.3383 -0.8956
vn 0.9093 0.3882 0.1499
vn 0.1932 0.2428 -0.9506
vn 0.8513 0.3660 -0.3759
vn -0.0129 0.0838 -0.9964
vn 0.8138 0.3786 0.4409
vn 0.7040 0.4048 0.5835
vn 0.7245 0.6739 0.1449
vn 0.3034 0.3053 0.9026
vn 0.3112 0.5851 0.7488
vn 0.0612 0.2110 -0.9756
vn 0.1415 0.4226 0.8952
vn 0.0799 0.5439 0.8354
vn 0.1770 0.3698 -0.9121
vn 0.5899 0.4546 0.6673
vn -0.0437 0.5537 0.8316
vn -0.0451 0.5560 0.8300
vn -0.0469 0.5588 0.8280
vn -0.0322 0.2555 0.9663
vn -0.0980 0.3802 0.9197
vn 0.1162 0.2942 0.9487
vn -0.4986 -0.4918 -0.7138
vn 0.0373 -0.1722 0.9844
vn 0.1158 0.3503 0.9294
vn 0.0637 -0.1088 0.9920
vn -0.1505 -0.1166 0.9817
vn 0.0813 -0.0314 0.9962
vn -0.7268 -0.3562 0.5872
vn -0.4780 -0.3042 -0.8240
vn 0.0941 -0.0561 0.9940
vn 0.0994 -0.0399 0.9943
vn -0.8759 -0.4384 -0.2014
vn -0.8966 -0.4391 0.0580
vn 0.1910 -0.0702 0.9791
vn 0.3550 0.1109 0.9283
vn -0.5764 -0.4574 0.6771
vn 0.0531 -0.1084 0.9927
vn -0.0806 -0.1945 0.9776
vn 0.0340 0.0838 0.9959
vn 0.0271 0.0845 0.9961
vn -0.0301 0.0702 0.9971
vn -0.0989 0.4773 0.8732
vn -0.0575 0.4790 0.8760
vn -0.0518 0.0614 0.9968
vn -0.0545 0.0608 0.9967
vn -0.0500 0.0618 0.9968
vn -0.1810 0.4744 0.8615
vn -0.1158 0.4793 0.8700
vn -0.3008 0.4645 0.8329
vn -0.1455 0.0354 0.9887
vn -0.0562 0.0604 0.9966
vn -0.1933 0.0238 0.9808
vn -0.0699 -0.1932 0.9787
vn -0.0283 -0.1693 0.9852
vn -0.1221 -0.2267 0.9663
vn -0.1269 -0.2294 0.9650
vn -0.1188 -0.2250 0.9671
vn -0.1302 -0.2311 0.9642
vn -0.2278 -0.2873 0.9303
vn -0.3841 -0.0308 0.9228
vn -0.3020 -0.0088 0.9533
vn -0.5133 -0.0731 0.8551
vn -0.7206 0.3524 0.5971
vn -0.4289 0.4464 0.7854
vn -0.4777 0.4344 0.7636
vn -0.3875 0.2253 0.8939
vn -0.4550 0.2250 0.8616
vn -0.1440 0.2298 0.9625
vn -0.2318 0.4737 0.8496
vn 0.0345 -0.1217 0.9920
vn -0.2754 -0.1482 0.9499
vn 0.2337 -0.0864 0.9685
vn -0.4893 0.2370 0.8393
vn 0.3645 -0.0602 0.9292
vn -0.4114 -0.1279 0.9025
vn -0.5406 0.2572 0.8010
vn 0.0336 0.2358 0.9712
vn -0.9860 -0.0588 0.1561
vn 0.4707 -0.0368 0.8815
vn 0.1273 0.2481 0.9603
vn -0.8412 0.2370 0.4861
vn 0.0429 0.2936 0.9550
vn -0.9549 -0.0275 0.2958
vn -0.7870 0.2813 0.5491
vn 0.3656 -0.0219 0.9305
vn 0.6820 -0.1638 0.7128
vn -0.9139 0.0063 0.4059
vn 0.6848 -0.1502 0.7130
vn 0.6828 -0.1503 0.7150
vn 0.6791 -0.1504 0.7185
vn 0.6771 -0.1504 0.7204
vn 0.8681 -0.0836 0.4894
vn 0.8634 -0.1172 0.4907
vn 0.8488 -0.1081 0.5176
vn 0.8836 -0.0983 0.4579
vn 0.9728 -0.0103 0.2314
vn 0.1693 0.0362 -0.9849
vn 0.9881 0.0227 0.1521
vn 0.2277 0.0815 -0.9703
vn 0.9956 0.0534 0.0765
vn 0.9209 -0.0882 0.3797
vn 0.9054 -0.0625 0.4200
vn 0.7062 -0.1543 0.6910
vn 0.9297 -0.0436 0.3658
vn 0.7618 -0.1285 0.6349
vn 0.7553 -0.1743 0.6317
vn 0.9553 -0.0023 0.2957
vn 0.6174 -0.2025 0.7601
vn 0.9595 -0.0732 0.2720
vn 0.6520 -0.2591 0.7126
vn 0.9993 -0.0328 0.0199
vn 0.9451 0.1550 -0.2877
vn 0.3668 0.1469 -0.9186
vn 0.9924 0.1001 -0.0710
vn 0.7056 -0.2237 -0.6724
vn 0.9401 -0.1645 -0.2986
vn 0.9697 -0.1605 -0.1841
vn 0.2701 0.1120 -0.9563
vn 0.8211 -0.2912 -0.4909
vn 0.7363 -0.2475 -0.6298
vn 0.8319 -0.2824 -0.4777
vn 0.8677 -0.2563 -0.4259
vn 0.6334 0.0734 -0.7703
vn 0.8515 -0.2705 -0.4492
vn 0.6773 0.0880 -0.7304
vn 0.6187 0.0712 -0.7824
vn 0.8235 -0.2907 -0.4872
vn 0.8357 -0.2827 -0.4709
vn 0.8355 -0.2828 -0.4711
vn 0.8354 -0.2830 -0.4712
vn 0.8385 -0.2808 -0.4669
vn 0.6792 0.0770 -0.7299
vn 0.8030 0.1297 -0.5817
vn 0.7366 0.1043 -0.6682
vn 0.5931 0.5169 -0.6173
vn 0.5646 0.5055 -0.6524
vn 0.4855 0.4674 -0.7388
vn 0.5657 0.5073 -0.6501
vn 0.8327 0.3212 -0.4510
vn 0.5397 0.4906 -0.6841
vn 0.8225 0.3171 -0.4721
vn 0.7788 0.3033 -0.5491
vn 0.5502 0.2291 -0.8030
vn 0.1986 0.3583 -0.9123
vn 0.1362 0.2263 -0.9645
vn 0.4164 0.3071 0.8557
vn -0.3039 0.4467 -0.8415
vn 0.4310 0.4020 0.8079
vn -0.2351 0.3231 -0.9167
vn -0.2670 0.3420 -0.9009
vn -0.5844 -0.1692 -0.7936
vn -0.1557 -0.2962 -0.9424
vn -0.3658 0.5209 -0.7713
vn -0.3326 -0.1845 -0.9249
vn -0.2455 -0.0982 -0.9644
vn -0.2593 -0.2976 -0.9188
vn -0.2965 -0.4673 -0.8329
vn -0.4224 -0.8685 0.2595
vn -0.8695 -0.3257 -0.3714
vn -0.9292 -0.3554 0.1013
vn -0.9139 -0.3573 -0.1928
vn -0.4563 -0.7655 0.4537
vn -0.8687 -0.3150 -0.3822
vn -0.9257 -0.3402 -0.1654
vn -0.4153 -0.5521 0.7230
vn -0.2576 -0.2191 -0.9411
vn -0.3135 -0.0243 -0.9493
vn -0.2732 -0.0119 -0.9619
vn -0.2839 0.0504 -0.9575
vn -0.2893 -0.1973 -0.9367
vn -0.2532 0.0372 -0.9667
vn -0.3016 -0.0975 -0.9485
vn -0.3442 -0.1989 -0.9176
vn -0.3567 -0.3495 0.8664
vn -0.3609 -0.2018 0.9105
vn -0.4238 -0.2152 0.8798
vn -0.9370 -0.3489 -0.0172
vn -0.8457 -0.3148 -0.4310
vn -0.8531 -0.3531 -0.3842
vn -0.8469 -0.4183 -0.3283
vn -0.8748 -0.4841 -0.0187
vn -0.8642 -0.4320 -0.2580
vn -0.5407 -0.4192 0.7294
vn -0.2023 -0.1827 0.9621
vn -0.6803 -0.2366 -0.6937
vn -0.7510 -0.3470 -0.5617
vn -0.6367 -0.2140 -0.7408
vn -0.9444 -0.2944 -0.1464
vn -0.1577 -0.2746 0.9485
vn -0.7806 -0.2404 -0.5769
vn -0.3997 -0.1305 -0.9073
vn -0.4382 -0.0905 -0.8943
vn -0.4676 -0.1149 -0.8764
vn -0.7868 -0.4168 -0.4553
vn -0.4871 -0.1029 -0.8673
vn -0.5220 -0.1197 -0.8445
vn -0.5943 -0.1624 -0.7877
vn -0.2873 -0.2050 0.9357
vn -0.9661 -0.0906 0.2416
vn -0.9126 -0.2462 -0.3265
vn -0.5691 -0.3039 -0.7641
vn -0.2911 -0.2924 -0.9109
vn -0.1115 -0.2749 -0.9550
vn 0.8627 -0.0210 -0.5053
vn 0.1170 -0.4802 -0.8693
vn -0.5022 -0.3981 -0.7676
vn 0.0525 -0.4797 -0.8759
vn -0.2404 -0.3058 -0.9212
vn 0.9831 -0.1130 -0.1440
vn 0.6438 -0.3924 -0.6569
vn 0.5453 -0.3619 -0.7561
vn 0.5638 -0.3313 -0.7565
vn -0.1508 -0.2366 -0.9598
vn 0.2707 -0.2997 -0.9148
vn 0.8047 -0.0135 -0.5936
vn -0.1258 -0.0192 -0.9919
vn 0.8185 -0.0378 -0.5733
vn -0.3715 -0.1109 -0.9218
vn -0.4968 -0.0248 -0.8675
vn -0.5676 -0.0236 -0.8230
vn -0.9487 -0.0002 -0.3162
vn -0.9703 0.2184 0.1041
vn -0.9311 0.0885 -0.3539
vn -0.4646 -0.1707 -0.8689
vn -0.5468 -0.1421 -0.8251
vn -0.5244 -0.3913 -0.7562
vn -0.9674 -0.0869 -0.2380
vn -0.9769 0.1437 -0.1581
vn -0.9993 0.0335 -0.0142
vn -0.9235 -0.1539 -0.3513
vn -0.9785 0.1234 -0.1653
vn -0.8631 0.2626 0.4314
vn -0.9755 -0.0780 -0.2058
vn -0.9687 -0.0930 -0.2300
vn -0.9886 -0.0455 -0.1433
vn -0.9629 -0.1022 -0.2498
vn -0.9650 -0.2485 -0.0843
vn -0.9306 -0.2641 -0.2535
vn -0.9516 -0.1745 0.2530
vn -0.9071 -0.2746 -0.3192
vn -0.9678 -0.2511 -0.0165
vn -0.9520 -0.1189 -0.2822
vn -0.9790 -0.0692 -0.1920
vn -0.9540 0.0650 -0.2928
vn -0.9748 -0.0780 -0.2090
vn -0.9915 0.1296 -0.0062
vn -0.9394 0.0628 -0.3372
vn -0.4536 -0.0866 0.8870
vn -0.9360 -0.0511 -0.3483
vn -0.9583 -0.0319 -0.2839
vn -0.7486 0.2536 0.6126
vn -0.5812 -0.1432 -0.8011
vn -0.5727 -0.1593 -0.8041
vn -0.5095 -0.0406 0.8595
vn -0.5524 -0.1586 -0.8183
vn -0.3576 -0.0986 -0.9287
vn -0.3352 -0.1064 -0.9361
vn -0.5519 -0.1350 -0.8229
vn -0.3164 -0.0896 -0.9444
vn 0.0908 0.0588 -0.9941
vn 0.9021 0.0248 -0.4308
vn -0.2881 -0.1025 -0.9521
vn 0.0028 0.0110 -0.9999
vn -0.2619 -0.0752 -0.9622
vn -0.2263 -0.0972 -0.9692
vn 0.1249 0.0905 -0.9880
vn 0.9048 0.0770 -0.4188
vn 0.9088 0.1102 -0.4024
vn 0.3938 -0.2122 -0.8944
vn 0.8524 -0.2276 -0.4707
vn 0.2813 -0.2311 -0.9314
vn 0.8140 -0.2578 -0.5205
vn 0.7812 -0.3145 -0.5393
vn 0.8255 -0.2888 -0.4850
vn 0.7963 -0.3059 -0.5218
vn 0.8828 0.1422 -0.4477
vn 0.5835 0.0097 -0.8120
vn 0.7702 -0.3203 -0.5516
vn 0.7689 -0.3210 -0.5530
vn 0.7670 -0.3220 -0.5550
vn 0.6691 0.0532 -0.7412
vn 0.5137 0.4607 -0.7238
vn 0.1710 0.2899 -0.9417
vn 0.2960 0.3633 -0.8834
vn 0.8711 0.1459 -0.4689
vn 0.5236 0.4760 -0.7066
vn 0.8456 0.3467 -0.4058
vn 0.2815 0.1540 -0.9471
vn 0.8286 0.3764 -0.4145
vn 0.1256 0.1521 -0.9803
vn 0.5048 0.2703 0.8198
vn 0.3730 0.1539 -0.9150
vn 0.1452 0.1294 -0.9809
vn 0.8824 0.4654 -0.0686
vn -0.1718 0.0465 -0.9840
vn 0.6876 0.2732 0.6727
vn 0.9573 0.2880 0.0236
vn 0.3013 0.0817 -0.9500
vn 0.2256 0.3498 -0.9093
vn 0.1592 0.3139 -0.9360
vn 0.7007 0.5618 -0.4397
vn 0.0581 0.1257 -0.9904
vn 0.6730 0.2287 0.7035
vn -0.3736 -0.0594 -0.9257
vn 0.6290 0.3101 -0.7129
vn 0.0109 0.1735 -0.9848
vn 0.9396 0.1653 -0.2997
vn 0.3971 -0.0880 -0.9135
vn 0.9796 0.2008 0.0089
vn 0.4633 0.3024 -0.8330
vn 0.0062 0.0670 -0.9977
vn -0.3200 0.8519 -0.4145
vn 0.4243 0.1154 -0.8981
vn -0.3694 -0.1208 -0.9214
vn -0.3411 -0.0999 -0.9347
vn -0.3080 -0.0656 -0.9491
vn -0.3751 -0.0819 -0.9234
vn -0.1931 0.0284 -0.9808
vn 0.8063 0.5228 -0.2767
vn -0.0989 0.2218 -0.9701
vn 0.4412 0.2711 0.8555
vn -0.1900 0.2573 -0.9475
vn -0.1796 0.1613 -0.9704
vn 0.6964 0.0742 -0.7138
vn 0.8477 0.1427 -0.5109
vn 0.3977 0.4208 -0.8153
vn 0.7657 -0.3227 -0.5564
vn 0.8313 -0.2857 -0.4769
vn 0.8173 -0.2940 -0.4956
vn 0.7787 -0.3003 -0.5508
vn 0.2406 -0.2545 -0.9367
vn 0.8601 -0.2031 -0.4680
vn 0.8396 -0.2800 -0.4654
vn 0.5374 -0.1974 -0.8199
vn 0.8736 0.1482 -0.4636
vn 0.2077 0.1287 -0.9697
vn 0.3238 0.1667 -0.9313
vn 0.0599 -0.0482 -0.9970
vn -0.1692 -0.0225 -0.9853
vn -0.1400 -0.0852 -0.9865
vn -0.5820 -0.3042 -0.7541
vn -0.6428 -0.2393 -0.7277
vn -0.5525 -0.1774 -0.8144
vn -0.2194 -0.0601 -0.9738
vn -0.9326 -0.1550 0.3258
vn -0.9621 -0.0789 -0.2610
vn -0.8968 -0.1302 0.4228
vn -0.4771 -0.1994 -0.8560
vn -0.9913 -0.1223 -0.0483
vn -0.9909 0.1183 0.0649
vn -0.9796 0.0790 -0.1850
vn -0.9930 0.1176 0.0067
vn -0.9929 0.1133 0.0375
vn -0.9925 0.0838 0.0891
vn -0.9958 0.0688 0.0597
vn -0.9961 -0.0116 -0.0877
vn -0.9957 -0.0137 -0.0920
vn -0.9963 -0.0101 -0.0849
vn -0.9314 0.1998 0.3043
vn -0.9206 0.2117 0.3281
vn -0.9033 0.1685 0.3945
vn -0.9031 0.1684 0.3949
vn -0.9032 0.1684 0.3947
vn -0.9756 0.1329 0.1749
vn -0.9279 -0.1715 0.3309
vn -0.7589 -0.1854 0.6243
vn -0.9400 -0.1677 0.2970
vn -0.8081 -0.1813 0.5605
vn -0.4919 -0.1771 0.8524
vn -0.5203 -0.1796 0.8349
vn -0.6774 0.2090 0.7053
vn 0.3458 -0.3178 0.8829
vn 0.2401 -0.6996 0.6730
vn -0.2806 -0.1635 0.9458
vn -0.2415 -0.7169 0.6540
vn -0.2369 -0.1580 0.9586
vn -0.2347 -0.1578 0.9592
vn -0.2312 -0.1575 0.9601
vn -0.2290 -0.1573 0.9606
vn 0.4270 -0.4033 0.8094
vn 0.9974 -0.0039 0.0719
vn 0.9051 -0.0260 -0.4243
vn 0.9888 0.0382 -0.1443
vn 0.1694 -0.3718 0.9127
vn -0.8676 -0.4698 -0.1629
vn 0.1673 0.0209 -0.9857
vn 0.0111 -0.0221 -0.9997
vn 0.4324 -0.0362 -0.9010
vn -0.8229 -0.3936 -0.4098
vn -0.4896 -0.7610 0.4256
vn 0.7924 0.1934 -0.5785
vn 0.5243 0.1929 -0.8294
vn 0.7541 0.1839 -0.6305
vn 0.8704 -0.1754 -0.4600
vn 0.7192 -0.1893 -0.6685
vn 0.5351 0.1811 -0.8251
vn -0.6580 0.2116 0.7226
vn -0.4888 0.2203 0.8441
vn -0.7215 -0.4936 -0.4855
vn -0.5287 -0.8351 -0.1521
vn -0.9450 -0.1665 0.2814
vn -0.7026 0.3612 0.6130
vn -0.9954 -0.0152 -0.0948
vn -0.9608 -0.2410 0.1372
vn -0.9589 -0.2729 -0.0772
vn -0.9055 -0.2098 0.3688
vn -0.8677 -0.4916 -0.0733
vn -0.8603 -0.5063 0.0587
vn -0.8178 -0.5196 0.2473
vn -0.9536 -0.2520 0.1649
vn -0.6823 -0.4925 0.5402
vn -0.8533 -0.1983 0.4823
vn -0.7551 -0.1489 0.6385
vn -0.8411 -0.5200 0.1489
vn -0.6258 -0.1071 0.7726
vn -0.4258 -0.3888 0.8170
vn -0.7245 -0.5084 0.4653
vn -0.4834 -0.4135 0.7716
vn -0.5546 -0.2533 0.7926
vn -0.3501 -0.1807 0.9191
vn -0.2718 -0.3093 0.9113
vn -0.5950 -0.2694 0.7572
vn -0.2049 -0.7540 0.6241
vn -0.1591 -0.6620 0.7325
vn -0.8004 -0.3359 0.4966
vn -0.1768 -0.6934 0.6985
vn -0.8367 -0.1221 0.5339
vn -0.3220 -0.0452 0.9457
vn -0.0305 -0.3750 0.9265
vn -0.1202 0.1458 0.9820
vn -0.2162 0.2162 0.9521
vn 0.0157 -0.2451 0.9694
vn -0.2890 -0.8009 0.5244
vn -0.1813 -0.1194 0.9761
vn -0.5170 -0.8234 -0.2337
vn -0.3212 -0.1687 0.9319
vn -0.1552 -0.1084 0.9819
vn -0.2123 0.6399 0.7385
vn -0.1943 0.6157 0.7636
vn -0.1152 -0.1712 0.9785
vn -0.3714 0.7392 0.5619
vn -0.9181 -0.3766 0.1236
vn -0.8313 -0.3348 0.4436
vn -0.9322 -0.2770 -0.2330
vn -0.8716 -0.4892 -0.0322
vn -0.8620 -0.4544 -0.2247
vn 0.8288 -0.1885 -0.5268
vn -0.4820 -0.1430 -0.8645
vn -0.7379 0.0010 0.6749
vn -0.9898 -0.0104 -0.1422
vn -0.5020 0.1075 0.8582
vn -0.9322 -0.2548 -0.2571
vn -0.0016 -0.1271 0.9919
vn -0.4600 -0.2181 -0.8607
vn -0.8849 -0.3198 -0.3387
vn -0.2193 0.2512 -0.9428
vn -0.3453 -0.8741 0.3417
vn 0.7523 -0.1976 -0.6285
vn 0.6417 0.0786 -0.7629
vn 0.6574 0.0830 -0.7489
vn 0.8839 -0.2408 -0.4010
vn 0.6268 0.0733 -0.7758
vn 0.7507 0.1092 -0.6515
vn 0.8589 -0.2611 -0.4406
vn 0.9022 -0.2224 -0.3696
vn 0.8533 -0.2648 -0.4492
vn 0.8689 -0.2517 -0.4261
vn 0.8832 0.1327 -0.4499
vn 0.4829 0.0269 -0.8753
vn 0.4471 -0.4350 -0.7816
vn 0.0289 -0.1039 -0.9942
vn 0.9903 0.1381 -0.0128
vn 0.0430 -0.1849 -0.9818
vn 0.9645 -0.1556 -0.2133
vn 0.9647 -0.1555 -0.2125
vn 0.9655 -0.1541 -0.2099
vn 0.9645 -0.1560 -0.2132
vn 0.9798 0.0761 0.1850
vn 0.6417 0.3599 0.6772
vn 0.6703 0.3476 0.6557
vn 0.6751 0.1497 0.7224
vn 0.8655 0.0340 0.4997
vn 0.9592 -0.0723 0.2732
vn 0.6616 0.1556 0.7335
vn 0.7472 -0.0116 0.6645
vn -0.1497 -0.0163 -0.9886
vn 0.9874 -0.0264 0.1560
vn 0.4599 -0.0015 -0.8880
vn 0.9864 -0.1635 -0.0179
vn 0.9545 -0.2265 -0.1939
vn 0.5350 -0.0051 0.8448
vn 0.8314 -0.1437 0.5368
vn 0.5013 -0.0038 0.8653
vn 0.0118 0.3395 0.9405
vn -0.6357 0.3352 0.6954
vn -0.3166 0.4678 0.8252
vn -0.2777 0.3483 0.8953
vn 0.1155 0.4804 0.8694
vn -0.0677 0.4895 0.8694
vn 0.0195 0.4788 0.8777
vn -0.8216 -0.0750 0.5651
vn 0.2425 0.1764 0.9540
vn -0.5781 0.0449 0.8147
vn -0.8346 -0.4371 0.3353
vn 0.5506 0.2563 0.7945
vn 0.5932 0.2197 0.7745
vn 0.7106 0.2240 0.6670
vn 0.9623 0.1854 0.1989
vn 0.6363 0.3384 -0.6932
vn 0.5189 0.2382 0.8210
vn 0.8768 0.4468 0.1777
vn 0.8144 0.5780 -0.0506
vn 0.8045 0.5836 -0.1102
vn 0.5458 0.1971 0.8144
vn 0.5490 0.1936 0.8131
vn 0.5487 0.1939 0.8132
vn 0.5653 0.2091 0.7979
vn 0.0806 -0.0081 0.9967
vn 0.5455 0.1974 0.8145
vn -0.8308 -0.5475 0.1003
vn 0.0811 -0.1685 0.9824
vn 0.3568 0.2397 0.9029
vn 0.1265 0.0096 0.9919
vn 0.6553 0.5224 0.5456
vn -0.4271 0.7818 -0.4542
vn 0.4705 0.1611 0.8676
vn 0.8872 0.3603 0.2882
vn 0.9246 0.3803 0.0215
vn 0.6887 0.3218 0.6497
vn 0.4264 0.4749 -0.7698
vn -0.3478 -0.1053 -0.9316
vn 0.4266 0.1794 0.8864
vn 0.1107 0.1139 0.9873
vn -0.3375 0.0055 0.9413
vn -0.2017 0.4727 0.8578
vn -0.8689 -0.4777 -0.1294
vn 0.8495 0.5181 0.0998
vn 0.8952 -0.2581 -0.3633
vn 0.9869 -0.1554 -0.0435
vn 0.8292 -0.2536 -0.4981
vn 0.9836 -0.1558 -0.0908
vn 0.6700 -0.1277 0.7313
vn -0.2517 0.4671 0.8476
vn -0.0138 -0.0587 0.9982
vn 0.0509 -0.1159 0.9920
vn 0.2664 0.2692 0.9255
vn 0.2158 0.1615 0.9630
vn -0.0434 0.5533 0.8319
vt 0.000000 0.000000
s 1
f 4/1/1 1/1/1 2/1/1
f 2/1/2 1/1/2 3/1/2
f 6/1/3 3/1/3 1/1/3
f 4/1/4 7/1/4 1/1/4
f 5/1/5 1/1/5 7/1/5
f 5/1/6 6/1/6 1/1/6
f 8/1/7 7/1/7 4/1/7
f 8/1/8 5/1/8 7/1/8
f 9/1/9 8/1/9 11/1/9
f 8/1/10 9/1/10 5/1/10
f 8/1/11 4/1/11 10/1/11
f 10/1/12 11/1/12 8/1/12
f 9/1/13 11/1/13 12/1/13
f 10/1/14 14/1/14 11/1/14
f 12/1/15 11/1/15 13/1/15
f 14/1/16 13/1/16 11/1/16
f 15/1/17 14/1/17 10/1/17
f 14/1/18 16/1/18 13/1/18
f 15/1/19 17/1/19 14/1/19
f 17/1/20 16/1/20 14/1/20
f 18/1/21 17/1/21 15/1/21
f 18/1/22 19/1/22 17/1/22
f 19/1/23 20/1/23 17/1/23
f 17/1/24 20/1/24 16/1/24
f 20/1/25 21/1/25 16/1/25
f 20/1/26 22/1/27 21/1/28
f 23/1/29 22/1/27 20/1/26
f 19/1/30 23/1/30 20/1/30
f 24/1/31 26/1/31 23/1/31
f 24/1/32 23/1/32 19/1/32
f 23/1/33 25/1/33 22/1/33
f 26/1/34 25/1/34 23/1/34
f 26/1/35 27/1/35 25/1/35
f 28/1/36 27/1/36 26/1/36
f 29/1/37 26/1/37 24/1/37
f 29/1/38 28/1/38 26/1/38
f 30/1/39 31/1/39 29/1/39
f 30/1/40 29/1/40 32/1/40
f 31/1/41 28/1/41 29/1/41
f 32/1/42 29/1/42 24/1/42
f 32/1/43 33/1/43 30/1/43
f 32/1/44 34/1/44 33/1/44
f 35/1/45 34/1/45 32/1/45
f 32/1/46 24/1/46 35/1/46
f 35/1/47 36/1/47 34/1/47
f 18/1/48 36/1/48 35/1/48
f 35/1/49 19/1/49 18/1/49
f 35/1/50 24/1/50 19/1/50
f 18/1/51 37/1/52 36/1/53
f 37/1/54 38/1/54 36/1/54
f 36/1/55 38/1/55 39/1/55
f 36/1/56 39/1/56 34/1/56
f 39/1/57 40/1/57 42/1/57
f 39/1/58 38/1/58 40/1/58
f 34/1/59 39/1/59 41/1/59
f 41/1/60 39/1/60 42/1/60
f 42/1/61 40/1/61 43/1/61
f 42/1/62 43/1/62 44/1/62
f 45/1/63 42/1/63 44/1/63
f 41/1/64 42/1/64 45/1/64
f 45/1/65 44/1/65 48/1/65
f 46/1/66 41/1/66 45/1/66
f 46/1/67 45/1/67 47/1/67
f 47/1/68 45/1/68 48/1/68
f 47/1/69 48/1/69 49/1/69
f 49/1/70 48/1/70 50/1/70
f 48/1/71 51/1/71 50/1/71
f 48/1/72 44/1/72 51/1/72
f 44/1/73 52/1/73 51/1/73
f 51/1/74 52/1/74 54/1/74
f 50/1/75 51/1/75 53/1/75
f 51/1/76 54/1/76 53/1/76
f 54/1/77 55/1/77 53/1/77
f 54/1/78 56/1/78 55/1/78
f 52/1/79 57/1/80 54/1/81
f 57/1/82 56/1/82 54/1/82
f 57/1/83 58/1/83 56/1/83
f 59/1/84 58/1/84 57/1/84
f 60/1/85 59/1/85 57/1/85
f 52/1/79 60/1/86 57/1/80
f 60/1/87 62/1/87 59/1/87
f 43/1/88 60/1/88 52/1/88
f 43/1/89 61/1/89 60/1/89
f 61/1/90 62/1/91 60/1/92
f 61/1/90 63/1/93 62/1/91
f 63/1/94 64/1/94 62/1/94
f 62/1/95 64/1/95 65/1/95
f 62/1/96 65/1/96 59/1/96
f 64/1/97 66/1/97 65/1/97
f 66/1/98 67/1/98 65/1/98
f 65/1/99 67/1/99 68/1/99
f 65/1/100 68/1/100 59/1/100
f 67/1/101 69/1/101 68/1/101
f 68/1/102 69/1/102 70/1/102
f 68/1/103 70/1/103 58/1/103
f 59/1/104 68/1/104 58/1/104
f 69/1/105 71/1/105 70/1/105
f 70/1/106 71/1/106 72/1/106
f 70/1/107 72/1/107 73/1/107
f 58/1/108 70/1/108 73/1/108
f 73/1/109 74/1/109 75/1/109
f 73/1/110 72/1/110 74/1/110
f 56/1/111 73/1/111 75/1/111
f 58/1/112 73/1/112 56/1/112
f 75/1/113 74/1/113 76/1/113
f 75/1/114 76/1/114 77/1/114
f 56/1/115 75/1/115 55/1/115
f 55/1/116 75/1/116 77/1/116
f 55/1/117 77/1/117 78/1/117
f 77/1/118 76/1/118 80/1/118
f 78/1/119 77/1/119 79/1/119
f 77/1/120 80/1/120 79/1/120
f 80/1/121 82/1/121 81/1/121
f 79/1/122 80/1/122 81/1/122
f 80/1/123 76/1/124 82/1/125
f 76/1/124 83/1/126 82/1/125
f 82/1/127 83/1/127 85/1/127
f 81/1/128 82/1/128 84/1/128
f 82/1/129 85/1/129 84/1/129
f 83/1/130 88/1/130 85/1/130
f 86/1/131 84/1/131 85/1/131
f 87/1/132 86/1/132 85/1/132
f 87/1/133 85/1/133 88/1/133
f 89/1/134 87/1/134 88/1/134
f 89/1/135 88/1/135 90/1/135
f 91/1/136 90/1/136 88/1/136
f 83/1/137 91/1/137 88/1/137
f 72/1/138 92/1/138 91/1/138
f 91/1/139 92/1/139 90/1/139
f 74/1/140 91/1/140 83/1/140
f 74/1/141 72/1/141 91/1/141
f 92/1/142 93/1/142 94/1/142
f 71/1/143 93/1/143 92/1/143
f 92/1/144 94/1/144 90/1/144
f 72/1/145 71/1/145 92/1/145
f 93/1/146 95/1/146 94/1/146
f 96/1/147 94/1/147 95/1/147
f 96/1/148 97/1/148 94/1/148
f 97/1/149 90/1/149 94/1/149
f 98/1/150 99/1/150 97/1/150
f 98/1/151 97/1/151 96/1/151
f 99/1/152 89/1/152 97/1/152
f 97/1/153 89/1/153 90/1/153
f 102/1/154 99/1/154 98/1/154
f 99/1/155 100/1/155 89/1/155
f 101/1/156 100/1/156 99/1/156
f 102/1/157 101/1/157 99/1/157
f 21/1/158 102/1/158 103/1/158
f 103/1/159 102/1/159 98/1/159
f 22/1/160 102/1/160 21/1/160
f 22/1/161 101/1/161 102/1/161
f 103/1/162 98/1/162 104/1/162
f 103/1/163 104/1/164 105/1/165
f 103/1/163 105/1/165 106/1/166
f 107/1/167 103/1/167 106/1/167
f 107/1/168 108/1/168 103/1/168
f 21/1/169 103/1/169 108/1/169
f 16/1/170 108/1/170 13/1/170
f 109/1/171 13/1/171 108/1/171
f 109/1/172 108/1/172 107/1/172
f 16/1/173 21/1/173 108/1/173
f 111/1/174 109/1/174 110/1/174
f 110/1/175 109/1/175 107/1/175
f 111/1/176 12/1/176 109/1/176
f 12/1/177 13/1/177 109/1/177
f 112/1/178 111/1/178 110/1/178
f 114/1/179 12/1/179 111/1/179
f 113/1/180 111/1/180 112/1/180
f 113/1/181 114/1/181 111/1/181
f 9/1/182 114/1/182 116/1/182
f 114/1/183 9/1/183 12/1/183
f 114/1/184 113/1/184 115/1/184
f 114/1/185 115/1/185 116/1/185
f 116/1/186 118/1/186 6/1/186
f 116/1/187 6/1/187 5/1/187
f 9/1/188 116/1/188 5/1/188
f 116/1/189 117/1/189 118/1/189
f 116/1/190 115/1/190 117/1/190
f 117/1/191 120/1/191 118/1/191
f 118/1/192 119/1/192 6/1/192
f 118/1/193 120/1/193 119/1/193
f 123/1/194 121/1/194 120/1/194
f 120/1/195 121/1/195 122/1/195
f 120/1/196 122/1/196 119/1/196
f 117/1/197 123/1/197 120/1/197
f 125/1/198 124/1/198 123/1/198
f 123/1/199 124/1/199 121/1/199
f 126/1/200 125/1/200 123/1/200
f 126/1/201 123/1/201 117/1/201
f 115/1/202 126/1/202 117/1/202
f 115/1/203 127/1/203 126/1/203
f 127/1/204 128/1/204 126/1/204
f 128/1/205 125/1/205 126/1/205
f 127/1/206 129/1/206 128/1/206
f 129/1/207 130/1/207 128/1/207
f 130/1/208 131/1/208 128/1/208
f 128/1/209 131/1/209 125/1/209
f 130/1/210 132/1/210 131/1/210
f 132/1/211 134/1/211 131/1/211
f 131/1/212 133/1/212 125/1/212
f 131/1/213 134/1/213 133/1/213
f 132/1/214 137/1/214 134/1/214
f 134/1/215 135/1/215 133/1/215
f 134/1/216 136/1/216 135/1/216
f 137/1/217 136/1/217 134/1/217
f 137/1/218 138/1/218 136/1/218
f 140/1/219 137/1/219 132/1/219
f 139/1/220 138/1/220 137/1/220
f 140/1/221 139/1/221 137/1/221
f 142/1/222 140/1/222 141/1/222
f 141/1/223 140/1/223 132/1/223
f 143/1/224 139/1/224 140/1/224
f 142/1/225 143/1/225 140/1/225
f 142/1/226 144/1/226 143/1/226
f 143/1/227 144/1/227 145/1/227
f 143/1/228 145/1/228 146/1/228
f 143/1/229 146/1/229 139/1/229
f 146/1/230 145/1/230 147/1/230
f 146/1/231 147/1/231 149/1/231
f 146/1/232 148/1/232 139/1/232
f 146/1/233 149/1/233 148/1/233
f 149/1/234 151/1/234 150/1/234
f 149/1/235 150/1/235 148/1/235
f 149/1/236 152/1/236 151/1/236
f 149/1/237 147/1/237 152/1/237
f 153/1/238 152/1/238 147/1/238
f 153/1/239 155/1/239 152/1/239
f 155/1/240 154/1/240 152/1/240
f 151/1/241 152/1/241 154/1/241
f 155/1/242 158/1/242 154/1/242
f 153/1/243 156/1/243 155/1/243
f 155/1/244 156/1/244 157/1/244
f 155/1/245 157/1/245 158/1/245
f 158/1/246 159/1/246 154/1/246
f 157/1/247 160/1/247 158/1/247
f 158/1/248 160/1/248 159/1/248
f 157/1/249 161/1/249 160/1/249
f 161/1/250 162/1/250 160/1/250
f 160/1/251 162/1/251 163/1/251
f 160/1/252 163/1/252 159/1/252
f 164/1/253 163/1/253 162/1/253
f 165/1/254 163/1/254 164/1/254
f 165/1/255 159/1/255 163/1/255
f 166/1/256 165/1/256 164/1/256
f 167/1/257 165/1/257 166/1/257
f 167/1/258 168/1/258 165/1/258
f 168/1/259 159/1/259 165/1/259
f 168/1/260 154/1/260 159/1/260
f 151/1/261 154/1/261 168/1/261
f 151/1/262 168/1/262 167/1/262
f 169/1/263 167/1/263 166/1/263
f 150/1/264 167/1/264 169/1/264
f 151/1/265 167/1/265 150/1/265
f 171/1/266 169/1/266 170/1/266
f 169/1/267 166/1/267 170/1/267
f 173/1/268 169/1/268 171/1/268
f 150/1/269 169/1/269 172/1/269
f 173/1/270 172/1/270 169/1/270
f 174/1/271 173/1/271 171/1/271
f 136/1/272 173/1/272 174/1/272
f 138/1/273 173/1/273 136/1/273
f 138/1/274 172/1/274 173/1/274
f 136/1/275 174/1/275 135/1/275
f 135/1/276 174/1/276 175/1/276
f 174/1/277 171/1/277 176/1/277
f 175/1/278 174/1/278 176/1/278
f 177/1/279 176/1/279 178/1/279
f 175/1/280 176/1/280 177/1/280
f 176/1/281 179/1/281 178/1/281
f 176/1/282 171/1/282 179/1/282
f 179/1/283 181/1/283 180/1/283
f 178/1/284 179/1/284 180/1/284
f 179/1/285 170/1/285 181/1/285
f 171/1/286 170/1/286 179/1/286
f 181/1/287 182/1/287 180/1/287
f 181/1/288 184/1/288 182/1/288
f 170/1/289 183/1/289 181/1/289
f 183/1/290 184/1/290 181/1/290
f 164/1/291 162/1/291 184/1/291
f 184/1/292 162/1/292 185/1/292
f 183/1/293 164/1/293 184/1/293
f 184/1/294 185/1/294 182/1/294
f 186/1/295 187/1/295 185/1/295
f 186/1/296 185/1/296 161/1/296
f 182/1/297 185/1/297 187/1/297
f 161/1/298 185/1/298 162/1/298
f 182/1/299 187/1/299 188/1/299
f 188/1/300 187/1/300 189/1/300
f 190/1/301 189/1/301 187/1/301
f 190/1/302 187/1/302 186/1/302
f 191/1/303 189/1/303 190/1/303
f 192/1/304 191/1/304 190/1/304
f 192/1/305 190/1/305 193/1/305
f 193/1/306 190/1/306 186/1/306
f 193/1/307 186/1/307 194/1/307
f 196/1/308 193/1/308 194/1/308
f 195/1/309 192/1/309 193/1/309
f 195/1/310 193/1/310 196/1/310
f 197/1/311 199/1/311 196/1/311
f 197/1/312 196/1/312 198/1/312
f 196/1/313 194/1/314 198/1/315
f 199/1/316 195/1/316 196/1/316
f 200/1/317 202/1/317 199/1/317
f 200/1/318 199/1/318 197/1/318
f 202/1/319 201/1/319 199/1/319
f 199/1/320 201/1/320 195/1/320
f 202/1/321 110/1/321 201/1/321
f 112/1/322 110/1/322 202/1/322
f 203/1/323 112/1/323 202/1/323
f 203/1/324 202/1/324 200/1/324
f 204/1/325 112/1/325 203/1/325
f 205/1/326 204/1/326 203/1/326
f 205/1/327 203/1/327 206/1/327
f 206/1/328 203/1/328 200/1/328
f 206/1/329 200/1/329 207/1/329
f 209/1/330 206/1/330 207/1/330
f 208/1/331 205/1/331 206/1/331
f 208/1/332 206/1/332 209/1/332
f 208/1/333 209/1/333 144/1/333
f 209/1/334 145/1/334 144/1/334
f 209/1/335 210/1/335 145/1/335
f 209/1/336 207/1/336 210/1/336
f 210/1/337 147/1/337 145/1/337
f 210/1/338 207/1/338 211/1/338
f 210/1/339 211/1/339 153/1/339
f 210/1/340 153/1/340 147/1/340
f 207/1/341 197/1/341 211/1/341
f 211/1/342 197/1/342 198/1/342
f 211/1/343 198/1/343 156/1/343
f 153/1/344 211/1/344 156/1/344
f 205/1/345 208/1/345 212/1/345
f 208/1/346 142/1/346 212/1/346
f 208/1/347 213/1/347 142/1/347
f 208/1/348 144/1/348 213/1/348
f 142/1/349 213/1/349 144/1/349
f 212/1/350 141/1/350 130/1/350
f 129/1/351 212/1/351 130/1/351
f 212/1/352 142/1/352 141/1/352
f 205/1/353 212/1/353 129/1/353
f 207/1/354 200/1/354 197/1/354
f 204/1/355 205/1/355 129/1/355
f 204/1/356 113/1/356 112/1/356
f 113/1/357 204/1/357 127/1/357
f 204/1/358 129/1/358 127/1/358
f 201/1/359 106/1/359 195/1/359
f 201/1/360 107/1/360 106/1/360
f 110/1/361 107/1/361 201/1/361
f 198/1/315 194/1/314 157/1/362
f 198/1/363 157/1/363 156/1/363
f 106/1/364 192/1/364 195/1/364
f 194/1/365 161/1/365 157/1/365
f 194/1/366 186/1/366 161/1/366
f 105/1/367 191/1/367 192/1/367
f 106/1/166 105/1/165 192/1/368
f 105/1/369 214/1/369 191/1/369
f 214/1/370 215/1/370 191/1/370
f 191/1/371 215/1/371 189/1/371
f 214/1/372 216/1/372 215/1/372
f 217/1/373 215/1/373 216/1/373
f 218/1/374 215/1/374 217/1/374
f 218/1/375 189/1/375 215/1/375
f 220/1/376 218/1/376 219/1/376
f 219/1/377 218/1/377 217/1/377
f 220/1/378 188/1/378 218/1/378
f 188/1/379 189/1/379 218/1/379
f 221/1/380 220/1/380 219/1/380
f 221/1/381 178/1/381 220/1/381
f 178/1/382 180/1/382 220/1/382
f 180/1/383 188/1/383 220/1/383
f 222/1/384 221/1/384 219/1/384
f 223/1/385 221/1/385 222/1/385
f 223/1/386 177/1/386 221/1/386
f 177/1/387 178/1/387 221/1/387
f 226/1/388 223/1/388 222/1/388
f 224/1/389 223/1/389 226/1/389
f 224/1/390 225/1/390 223/1/390
f 225/1/391 177/1/392 223/1/393
f 66/1/394 224/1/394 226/1/394
f 66/1/395 226/1/395 227/1/395
f 227/1/396 226/1/397 228/1/398
f 226/1/399 222/1/399 228/1/399
f 228/1/400 230/1/400 229/1/400
f 231/1/401 228/1/401 229/1/401
f 227/1/396 228/1/398 231/1/398
f 228/1/402 222/1/402 230/1/402
f 231/1/403 229/1/403 232/1/403
f 231/1/404 232/1/404 234/1/404
f 231/1/405 234/1/405 233/1/405
f 227/1/406 231/1/406 233/1/406
f 234/1/407 235/1/407 93/1/407
f 234/1/408 93/1/408 236/1/408
f 233/1/409 234/1/409 236/1/409
f 232/1/410 235/1/410 234/1/410
f 233/1/411 236/1/412 69/1/413
f 69/1/413 236/1/412 71/1/414
f 71/1/415 236/1/415 93/1/415
f 93/1/416 235/1/416 95/1/416
f 235/1/417 237/1/417 95/1/417
f 235/1/418 238/1/418 237/1/418
f 232/1/419 238/1/419 235/1/419
f 232/1/420 239/1/420 238/1/420
f 239/1/421 237/1/421 238/1/421
f 217/1/422 216/1/422 239/1/422
f 239/1/423 216/1/423 237/1/423
f 229/1/424 217/1/424 239/1/424
f 232/1/425 229/1/425 239/1/425
f 240/1/426 95/1/426 237/1/426
f 240/1/427 237/1/427 216/1/427
f 240/1/428 216/1/428 214/1/428
f 104/1/429 96/1/429 240/1/429
f 104/1/430 240/1/430 214/1/430
f 240/1/431 96/1/431 95/1/431
f 227/1/432 233/1/432 67/1/432
f 67/1/433 233/1/433 69/1/433
f 219/1/434 217/1/434 230/1/434
f 229/1/435 230/1/435 217/1/435
f 222/1/436 219/1/436 230/1/436
f 66/1/437 227/1/437 67/1/437
f 225/1/391 175/1/438 177/1/392
f 241/1/439 175/1/439 225/1/439
f 241/1/440 225/1/440 242/1/440
f 242/1/441 225/1/441 224/1/441
f 124/1/442 242/1/442 121/1/442
f 124/1/443 241/1/443 242/1/443
f 121/1/444 242/1/444 243/1/444
f 242/1/445 224/1/445 243/1/445
f 122/1/446 243/1/446 244/1/446
f 243/1/447 66/1/447 244/1/447
f 243/1/448 224/1/448 66/1/448
f 121/1/449 243/1/449 122/1/449
f 64/1/450 244/1/450 66/1/450
f 246/1/451 244/1/451 64/1/451
f 122/1/452 244/1/452 245/1/452
f 246/1/453 245/1/453 244/1/453
f 247/1/454 248/1/454 246/1/454
f 247/1/455 246/1/455 63/1/455
f 63/1/456 246/1/456 64/1/456
f 248/1/457 245/1/457 246/1/457
f 2/1/458 3/1/458 248/1/458
f 249/1/459 2/1/459 248/1/459
f 248/1/460 3/1/460 245/1/460
f 249/1/461 248/1/461 247/1/461
f 250/1/462 2/1/462 249/1/462
f 250/1/463 249/1/463 251/1/463
f 251/1/464 249/1/464 247/1/464
f 250/1/465 251/1/465 37/1/465
f 37/1/466 251/1/466 38/1/466
f 38/1/467 251/1/467 252/1/467
f 251/1/468 247/1/468 252/1/468
f 40/1/469 252/1/469 61/1/469
f 38/1/470 252/1/470 40/1/470
f 252/1/471 247/1/471 63/1/471
f 252/1/472 63/1/472 61/1/472
f 15/1/473 250/1/473 37/1/473
f 10/1/474 250/1/474 15/1/474
f 250/1/475 4/1/475 2/1/475
f 10/1/476 4/1/476 250/1/476
f 119/1/477 245/1/477 3/1/477
f 119/1/478 122/1/478 245/1/478
f 135/1/479 175/1/479 241/1/479
f 133/1/480 135/1/480 241/1/480
f 133/1/481 241/1/481 124/1/481
f 104/1/482 214/1/482 105/1/482
f 180/1/483 182/1/483 188/1/483
f 166/1/484 164/1/484 183/1/484
f 170/1/485 166/1/485 183/1/485
f 148/1/486 150/1/486 172/1/486
f 148/1/487 172/1/487 138/1/487
f 139/1/488 148/1/488 138/1/488
f 141/1/489 132/1/489 130/1/489
f 125/1/490 133/1/490 124/1/490
f 113/1/491 127/1/491 115/1/491
f 6/1/492 119/1/492 3/1/492
f 104/1/493 98/1/493 96/1/493
f 25/1/494 101/1/494 22/1/494
f 25/1/495 253/1/495 101/1/495
f 101/1/496 253/1/496 100/1/496
f 27/1/497 253/1/497 25/1/497
f 27/1/498 255/1/498 253/1/498
f 253/1/499 254/1/499 100/1/499
f 253/1/500 255/1/500 254/1/500
f 255/1/501 258/1/501 256/1/501
f 255/1/502 256/1/502 254/1/502
f 257/1/503 258/1/503 255/1/503
f 257/1/504 255/1/504 27/1/504
f 260/1/505 256/1/505 258/1/505
f 259/1/506 258/1/506 257/1/506
f 259/1/507 260/1/507 258/1/507
f 259/1/508 262/1/508 260/1/508
f 260/1/509 261/1/510 256/1/511
f 260/1/509 263/1/512 261/1/510
f 260/1/513 262/1/513 263/1/513
f 264/1/514 263/1/514 262/1/514
f 264/1/515 265/1/515 263/1/515
f 265/1/516 266/1/516 263/1/516
f 261/1/517 263/1/517 266/1/517
f 261/1/518 266/1/518 269/1/518
f 265/1/519 267/1/519 266/1/519
f 267/1/520 268/1/520 266/1/520
f 269/1/521 266/1/521 268/1/521
f 269/1/522 268/1/522 84/1/522
f 86/1/523 269/1/523 84/1/523
f 256/1/524 269/1/524 86/1/524
f 256/1/525 261/1/525 269/1/525
f 267/1/526 81/1/526 268/1/526
f 81/1/527 84/1/527 268/1/527
f 79/1/528 81/1/528 267/1/528
f 270/1/529 267/1/529 265/1/529
f 270/1/530 79/1/530 267/1/530
f 271/1/531 78/1/531 270/1/531
f 78/1/532 79/1/532 270/1/532
f 264/1/533 271/1/533 270/1/533
f 264/1/534 270/1/534 265/1/534
f 271/1/535 273/1/535 78/1/535
f 272/1/536 273/1/536 271/1/536
f 274/1/537 272/1/537 271/1/537
f 274/1/538 271/1/538 264/1/538
f 275/1/539 272/1/539 274/1/539
f 275/1/540 274/1/540 276/1/540
f 274/1/541 262/1/541 276/1/541
f 274/1/542 264/1/542 262/1/542
f 259/1/543 276/1/543 262/1/543
f 277/1/544 276/1/544 259/1/544
f 275/1/545 276/1/545 278/1/545
f 277/1/546 278/1/546 276/1/546
f 31/1/547 278/1/547 277/1/547
f 31/1/548 279/1/548 278/1/548
f 280/1/549 278/1/550 279/1/551
f 280/1/552 275/1/552 278/1/552
f 281/1/553 47/1/553 280/1/553
f 281/1/554 280/1/549 279/1/551
f 280/1/555 47/1/555 49/1/555
f 280/1/556 49/1/556 275/1/556
f 33/1/557 46/1/557 281/1/557
f 281/1/558 46/1/558 47/1/558
f 30/1/559 33/1/559 281/1/559
f 30/1/560 281/1/560 282/1/560
f 281/1/561 279/1/561 282/1/561
f 30/1/562 282/1/562 279/1/562
f 30/1/563 279/1/563 31/1/563
f 277/1/564 259/1/564 257/1/564
f 31/1/565 277/1/565 28/1/565
f 277/1/566 257/1/566 28/1/566
f 275/1/567 49/1/567 272/1/567
f 272/1/568 50/1/568 273/1/568
f 50/1/569 53/1/569 273/1/569
f 53/1/570 78/1/570 273/1/570
f 49/1/571 50/1/571 272/1/571
f 28/1/572 257/1/572 27/1/572
f 254/1/573 256/1/573 86/1/573
f 254/1/574 86/1/574 87/1/574
f 100/1/575 254/1/575 87/1/575
f 100/1/576 87/1/576 89/1/576
f 76/1/577 74/1/577 83/1/577
f 53/1/578 55/1/578 78/1/578
f 40/1/579 61/1/579 43/1/579
f 44/1/580 43/1/580 52/1/580
f 33/1/581 41/1/581 46/1/581
f 34/1/582 41/1/582 33/1/582
f 15/1/583 37/1/52 18/1/51
