# Blender 5.2.1 LTS
# www.blender.org
mtllib blockSlope.mtl
o 立方体.005
v -0.526659 -0.598438 0.327060
v -0.403708 0.231784 0.327763
v -0.455044 -0.520568 -0.287355
v -0.431047 0.281212 -0.370301
v 0.397609 -0.620519 0.395728
v 0.371354 -0.607249 -0.380430
v -0.582157 -0.683847 -0.000000
v -0.515236 -0.115103 0.383444
v -0.449367 0.262208 0.000423
v -0.546633 -0.105654 -0.408213
v -0.160929 -0.753392 -0.462758
v 0.437974 -0.637271 0.000423
v -0.159071 -0.613606 0.372641
v 0.029474 -0.086522 -0.396358
v 0.029676 -0.086238 0.397423
v -0.647500 -0.072310 0.000000
v -0.173833 -0.255106 -0.512735
v -0.174402 -0.254886 0.553740
v -0.098577 -0.770261 -0.000000
v 0.094821 0.011674 0.000000
v -0.467633 -0.012159 0.354880
v -0.456042 0.118611 0.359166
v -0.506389 0.196615 -0.450291
v -0.517469 0.028042 -0.438519
v 0.190505 -0.674651 -0.423060
v 0.003573 -0.692083 -0.423981
v 0.012772 -0.602915 0.368285
v 0.208689 -0.632272 0.400517
v -0.534950 0.154575 0.000423
v -0.569653 0.025594 0.000000
v -0.062759 -0.144899 -0.505965
v -0.129304 -0.202006 -0.516100
v -0.042218 -0.144629 0.468012
v -0.109007 -0.201773 0.489531
v 0.257768 -0.700848 0.000423
v 0.065340 -0.712432 -0.000000
vn -0.9641 -0.0608 0.2584
vn -0.8178 0.5394 0.2007
vn -0.7676 0.6410 0.0038
vn -0.9241 -0.1809 -0.3367
vn -0.4798 -0.2141 -0.8508
vn -0.2646 -0.0690 -0.9619
vn 0.2225 -0.1065 -0.9691
vn 0.3376 -0.2948 0.8939
vn -0.0958 0.5590 0.8236
vn -0.3328 -0.2574 0.9072
vn -0.4151 -0.8759 -0.2462
vn 0.3513 -0.9281 -0.1233
vn 0.1999 -0.9716 0.1267
vn -0.1292 -0.9374 0.3234
vn 0.5181 0.8470 -0.1192
vn 0.4871 0.8576 0.1650
vn 0.8455 0.5080 0.1645
vn 0.8487 0.4945 -0.1875
vn 0.1912 -0.9141 0.3576
vn -0.0629 -0.9740 0.2174
vn 0.3489 -0.9330 -0.0880
vn 0.0763 -0.9949 -0.0663
vn 0.1171 0.4435 0.8886
vn -0.2025 0.1729 0.9639
vn 0.2544 0.0889 0.9630
vn -0.0171 -0.2146 0.9766
vn 0.4248 0.1568 -0.8916
vn 0.0836 -0.1377 -0.9869
vn 0.3687 0.5559 -0.7450
vn -0.1323 0.0383 -0.9905
vn -0.9020 0.3936 -0.1774
vn -0.9855 0.1485 -0.0821
vn -0.7866 0.5351 0.3080
vn -0.9519 0.1650 0.2584
vt 0.198612 0.414761
vt 0.102118 0.442931
vt 0.105829 0.292065
vt 0.228319 0.330374
vt 0.548196 0.403490
vt 0.582757 0.389680
vt 0.711026 0.438145
vt 0.699490 0.482655
vt 0.866430 0.453627
vt 0.906721 0.482655
vt 0.178967 0.144278
vt 0.257700 0.234205
vt 0.312674 0.092242
vt 0.367992 0.207194
vt 0.157864 0.108788
vt 0.325599 0.058003
vt 0.408572 0.203859
vt 0.294408 0.523334
vt 0.160947 0.577793
vt 0.161543 0.555881
vt 0.252672 0.485391
vt 0.070723 0.449179
vt 0.340263 0.364775
vt 0.944000 0.101794
vt 0.895595 0.116041
vt 0.769848 0.083882
vt 0.778527 0.029348
vt 0.642739 0.073207
vt 0.614536 0.052382
vt 0.743446 0.256837
vt 0.903817 0.273997
vt 0.588335 0.220307
vt 0.392217 0.385094
vt 0.459486 0.409538
vt 0.351491 0.576372
vt 0.476921 0.200925
vt 0.535617 0.215538
vt 0.029348 0.457332
vt 0.156717 0.608992
vt 0.970652 0.291406
vt 0.342811 0.029348
vt 0.118240 0.070563
vt 0.070491 0.284155
vt 0.029348 0.274144
s 0
usemtl block
f 1/1/1 8/2/1 16/3/1 7/4/1
f 22/5/2 2/6/2 9/7/2 29/8/2
f 29/8/3 9/7/3 4/9/3 23/10/3
f 7/4/4 16/3/4 10/11/4 3/12/4
f 3/12/5 10/11/5 17/13/5 11/14/5
f 24/15/6 32/16/6 17/13/6 10/11/6
f 26/17/7 11/14/7 17/13/7 32/16/7
f 27/18/8 34/19/8 18/20/8 13/21/8
f 21/22/9 8/2/9 18/20/9 34/19/9
f 1/1/10 13/21/10 18/20/10 8/2/10
f 3/12/11 11/14/11 19/23/11 7/4/11
f 25/24/12 6/25/12 12/26/12 35/27/12
f 35/27/13 12/26/13 5/28/13 28/29/13
f 7/4/14 19/23/14 13/21/14 1/1/14
f 4/9/15 9/7/15 20/30/15 14/31/15
f 9/7/16 2/6/16 15/32/16 20/30/16
f 20/30/17 15/32/17 5/28/17 12/26/17
f 14/31/18 20/30/18 12/26/18 6/25/18
f 19/23/19 36/33/19 27/18/19 13/21/19
f 36/33/20 35/34/20 28/35/20 27/18/20
f 11/14/21 26/17/21 36/33/21 19/23/21
f 26/17/22 25/36/22 35/34/22 36/33/22
f 2/6/23 22/5/23 33/37/23 15/32/23
f 22/38/24 21/22/24 34/19/24 33/39/24
f 5/28/25 15/32/25 33/37/25 28/29/25
f 28/35/26 33/39/26 34/19/26 27/18/26
f 6/25/27 25/24/27 31/40/27 14/31/27
f 25/36/28 26/17/28 32/16/28 31/41/28
f 4/9/29 14/31/29 31/40/29 23/10/29
f 23/42/30 31/41/30 32/16/30 24/15/30
f 16/3/31 30/43/31 24/15/31 10/11/31
f 30/43/32 29/44/32 23/42/32 24/15/32
f 8/2/33 21/22/33 30/43/33 16/3/33
f 21/22/34 22/38/34 29/44/34 30/43/34
