# Blender 5.2.0 LTS
# www.blender.org
mtllib Stage3.mtl
o ICO球.009
v 0.008217 -0.316062 0.011310
v 0.013296 -0.316062 -0.004320
v -0.008217 -0.316062 0.011310
v 0.266583 -0.151463 0.077977
v -0.008217 -0.151463 0.277635
v 0.258564 -0.144914 0.089559
v 0.261505 -0.151463 0.093607
v 0.008217 -0.151463 0.277635
v 0.005276 -0.144914 0.273587
v 0.005276 -0.309512 0.007262
v -0.013295 -0.137484 0.284625
v 0.013296 -0.137484 0.284625
v -0.000000 -0.128843 0.288945
v 0.156539 0.137483 0.238080
v -0.156539 0.137483 0.238080
v 0.156539 0.135937 0.229984
v -0.000000 -0.130389 0.280850
v -0.156539 0.135937 0.229984
v -0.156539 0.151463 0.229440
v 0.156539 0.151463 0.229440
v -0.169834 0.128843 0.233760
v -0.266583 -0.137484 0.100597
v -0.165076 0.130389 0.227211
v -0.178052 0.137483 0.222450
v -0.008537 -0.135937 0.278076
v -0.169835 0.151463 0.219780
v -0.266583 0.151463 -0.077977
v -0.261825 0.144914 -0.079523
v -0.000000 0.316061 0.013980
v -0.013295 0.316061 0.004320
v -0.165076 0.144914 0.218234
v -0.008537 0.309512 0.002774
v -0.008217 0.316061 -0.011310
v 0.008217 0.316061 -0.011310
v 0.008217 0.151463 -0.277635
v 0.005276 0.309512 -0.007262
v 0.258564 0.144914 -0.089559
v 0.261505 0.151463 -0.093607
v 0.013296 0.316061 0.004320
v 0.266584 0.151463 -0.077977
v 0.169835 0.151463 0.219780
v 0.165076 0.144914 0.218234
v 0.008537 0.309512 0.002774
v 0.261825 0.144914 -0.079523
v 0.274801 0.137483 -0.075307
v 0.178052 0.137483 0.222450
v 0.274801 -0.128843 0.089287
v 0.170352 0.135937 0.219948
v 0.169835 0.128843 0.233760
v 0.266583 -0.137484 0.100597
v 0.261825 -0.135937 0.094047
v 0.165076 0.130389 0.227211
v 0.008537 -0.135937 0.278076
v 0.267101 0.135937 -0.077809
v 0.267101 -0.130389 0.086785
v 0.274800 -0.137484 0.075307
v 0.267101 -0.135937 0.077809
v 0.274801 0.128843 -0.089287
v 0.178052 -0.137484 -0.222450
v 0.169835 -0.128843 -0.233760
v 0.267101 0.130389 -0.086785
v 0.170353 -0.135937 -0.219948
v 0.169835 -0.151463 -0.219780
v 0.266584 0.137483 -0.100597
v 0.013296 0.137483 -0.284625
v 0.008537 0.135937 -0.278076
v 0.261825 0.135937 -0.094047
v 0.165076 -0.130390 -0.227211
v -0.000000 0.128843 -0.288945
v 0.156539 -0.137484 -0.238080
v -0.008217 0.151463 -0.277635
v -0.261505 0.151463 -0.093607
v -0.005276 0.144914 -0.273587
v -0.013295 0.137483 -0.284625
v -0.258564 0.144914 -0.089559
v -0.005276 0.309512 -0.007262
v -0.169835 -0.128843 -0.233760
v -0.156539 -0.137484 -0.238080
v -0.266583 0.137483 -0.100597
v -0.261825 0.135937 -0.094047
v -0.008537 0.135937 -0.278076
v -0.165076 -0.130390 -0.227211
v -0.274800 0.128843 -0.089287
v -0.178052 -0.137484 -0.222450
v -0.274800 -0.137484 0.075307
v -0.169834 -0.151463 -0.219780
v -0.170352 -0.135937 -0.219948
v -0.267101 -0.135937 0.077809
v -0.267101 0.130389 -0.086785
v -0.156539 -0.151463 -0.229440
v -0.013295 -0.316061 -0.004320
v -0.165076 -0.144914 -0.218234
v -0.266583 -0.151463 0.077977
v -0.261505 -0.151463 0.093607
v -0.274800 -0.128843 0.089287
v -0.261825 -0.144914 0.079523
v -0.008537 -0.309512 -0.002774
v -0.267101 -0.130389 0.086785
v -0.267101 0.135937 -0.077809
v -0.274800 0.137483 -0.075307
v -0.170352 0.135937 0.219948
v -0.258564 -0.144914 0.089559
v -0.005276 -0.144914 0.273587
v -0.005276 -0.309512 0.007262
v -0.000000 -0.316061 -0.013980
v 0.156539 -0.151463 -0.229440
v 0.156539 -0.144914 -0.224437
v -0.000000 -0.309512 -0.008977
v -0.156539 -0.144914 -0.224437
v -0.156539 -0.135937 -0.229984
v -0.000000 0.130389 -0.280850
v 0.156539 -0.135937 -0.229984
v 0.165076 -0.144914 -0.218234
v 0.261825 -0.144914 0.079523
v 0.008537 -0.309512 -0.002774
v 0.005276 0.144914 -0.273587
v -0.156539 0.144914 0.224437
v 0.156539 0.144914 0.224437
v -0.000000 0.309512 0.008977
v -0.261825 -0.135938 0.094047
vn 0.5000 -0.8506 0.1625
vn 0.5000 -0.8506 0.1624
vn -0.0000 -1.0000 -0.0000
vn -0.0000 -0.8506 0.5257
vn -0.4671 0.3035 0.8305
vn -0.4671 0.3036 0.8305
vn 0.9342 0.3035 -0.1876
vn 0.3568 -0.7947 0.4911
vn -0.4671 -0.6071 -0.6429
vn 0.5000 -0.5258 0.6882
vn 0.5000 -0.5257 0.6882
vn -0.0000 -0.4472 0.8944
vn 0.3090 -0.0000 0.9511
vn -0.8660 0.4911 -0.0938
vn -0.3090 -0.0000 0.9511
vn 0.8660 0.4911 -0.0938
vn -0.0000 0.1876 0.9822
vn -0.0000 -0.9823 0.1876
vn -0.0000 0.5257 0.8507
vn -0.5257 0.4472 0.7236
vn -0.6455 -0.4911 -0.5849
vn -0.6455 -0.4911 -0.5850
vn -0.8090 -0.0000 0.5878
vn 0.7558 -0.4911 0.4331
vn -0.8090 0.5257 0.2629
vn 0.7557 0.6071 -0.2456
vn 0.7558 0.6071 -0.2456
vn -0.3090 0.8506 0.4253
vn -0.6455 -0.3035 -0.7009
vn -0.6455 -0.3036 -0.7009
vn -0.5774 0.7947 0.1876
vn -0.1103 -0.3035 0.9464
vn -0.0000 1.0000 -0.0000
vn -0.5000 0.8506 -0.1624
vn -0.5000 0.8506 -0.1625
vn 0.9342 -0.3036 0.1876
vn 0.9342 -0.3035 0.1876
vn -0.0000 0.8507 -0.5257
vn -0.4671 -0.3036 -0.8305
vn 0.5000 0.8506 -0.1625
vn 0.5000 0.8507 -0.1625
vn 0.1103 -0.3035 0.9464
vn 0.3090 0.8506 0.4253
vn 0.6455 -0.3036 -0.7009
vn 0.5774 0.7947 0.1876
vn -0.7557 0.6071 -0.2456
vn 0.8090 0.5257 0.2629
vn 0.5257 0.4472 0.7236
vn 0.8090 -0.0000 0.5878
vn 0.1784 0.4911 -0.8526
vn 0.1784 -0.9823 0.0580
vn 0.8506 -0.4472 0.2764
vn -0.7558 -0.4911 0.4331
vn -0.7557 -0.4911 0.4332
vn 0.1103 0.9822 0.1519
vn 0.5774 -0.1876 0.7946
vn 0.6454 -0.4911 -0.5850
vn 0.6455 -0.4911 -0.5850
vn 0.9342 0.1876 0.3035
vn -0.3568 0.4911 0.7947
vn 1.0000 -0.0000 -0.0000
vn 1.0000 -0.0000 -0.0001
vn -0.3568 -0.4911 -0.7947
vn -0.3566 -0.4911 -0.7948
vn -0.3569 -0.4911 -0.7946
vn 0.1785 0.9822 -0.0580
vn 0.1782 0.9823 -0.0580
vn 0.8090 -0.5257 -0.2629
vn 0.8090 -0.5258 -0.2629
vn 0.1784 -0.4911 0.8526
vn 0.8090 -0.0000 -0.5878
vn 0.5257 -0.4472 -0.7236
vn 0.5000 0.5257 -0.6882
vn 0.1102 -0.9823 -0.1517
vn 0.1103 -0.9823 -0.1517
vn 0.8507 0.4472 -0.2764
vn 0.8506 0.4472 -0.2764
vn -0.7557 0.4911 -0.4332
vn -0.7558 0.4911 -0.4332
vn 0.5774 0.1876 -0.7946
vn 0.6454 0.4911 0.5850
vn 0.6455 0.4911 0.5850
vn -0.0000 0.4472 -0.8944
vn 0.3090 -0.0000 -0.9511
vn 0.4671 0.6071 0.6428
vn 0.4671 0.6071 0.6429
vn -0.5000 0.5257 -0.6882
vn -0.9342 -0.3035 0.1876
vn -0.9342 -0.3036 0.1876
vn -0.3568 0.7947 -0.4911
vn 0.4671 -0.3036 -0.8305
vn -0.3090 -0.0000 -0.9511
vn -0.6455 0.4911 0.5849
vn -0.6454 0.4911 0.5850
vn -0.1103 -0.9823 -0.1517
vn -0.1102 -0.9823 -0.1517
vn 0.7558 0.4911 -0.4331
vn 0.7558 0.4911 -0.4332
vn -0.5774 0.1876 -0.7946
vn -0.8090 -0.0000 -0.5878
vn -0.8507 0.4472 -0.2764
vn -0.1780 0.9823 -0.0580
vn -0.1785 0.9822 -0.0580
vn -0.8090 -0.5258 -0.2629
vn -0.1785 -0.4911 0.8526
vn -0.1784 -0.4911 0.8526
vn -0.5257 -0.4472 -0.7236
vn -0.9342 -0.1876 -0.3035
vn 0.3569 -0.4911 -0.7946
vn 0.3566 -0.4911 -0.7948
vn -0.3090 -0.8507 -0.4253
vn -0.3090 -0.8506 -0.4253
vn -0.6455 0.3035 0.7009
vn 0.7558 -0.6070 0.2456
vn 0.7558 -0.6071 0.2456
vn -0.8090 -0.5257 -0.2629
vn -0.8507 -0.4472 0.2764
vn -0.5000 -0.8506 0.1624
vn -0.1103 0.3035 -0.9464
vn -0.8506 -0.4472 0.2764
vn -0.5774 -0.7947 -0.1876
vn -0.1784 0.4911 -0.8526
vn -0.1785 0.4911 -0.8526
vn 0.3569 0.4911 0.7946
vn -1.0000 -0.0000 -0.0000
vn -0.1784 -0.9823 0.0580
vn -0.9342 0.1876 0.3035
vn 0.4671 0.3035 0.8305
vn 0.4671 0.3036 0.8305
vn 0.4671 -0.6071 -0.6429
vn -0.5000 -0.5257 0.6882
vn -0.5000 -0.8506 0.1629
vn -0.3568 -0.7947 0.4911
vn -0.9342 0.3035 -0.1876
vn -0.9342 0.3036 -0.1876
vn -0.0000 -1.0000 -0.0001
vn 0.3090 -0.8506 -0.4254
vn 0.3090 -0.8506 -0.4253
vn -0.8660 0.3035 -0.3973
vn 0.8660 0.3035 -0.3973
vn -0.0000 -0.7947 -0.6071
vn -0.0000 -0.6071 0.7947
vn -0.0000 -0.5258 -0.8506
vn 0.5258 -0.4472 -0.7236
vn 0.8660 -0.4911 0.0938
vn -0.0000 0.9822 -0.1877
vn -0.0000 -0.1876 -0.9822
vn -0.8660 -0.4911 0.0938
vn -0.7557 -0.6071 0.2456
vn -0.7558 -0.6071 0.2456
vn 0.6455 0.3036 0.7009
vn 0.1103 0.3035 -0.9464
vn 0.5774 -0.7947 -0.1876
vn 0.9342 -0.1876 -0.3035
vn -0.4671 0.6071 0.6428
vn -0.4671 0.6071 0.6429
vn 0.3568 0.7947 -0.4911
vn 0.8660 -0.3035 0.3973
vn -0.8660 -0.3035 0.3973
vn -0.0000 0.7947 0.6071
vn -0.0000 0.6071 -0.7947
vn -0.0000 0.6071 -0.7946
vn -0.5774 -0.1876 0.7946
vn -0.1103 0.9823 0.1517
vn -0.1103 0.9822 0.1519
vt 0.104525 0.072656
vt 0.103420 0.070700
vt 0.172959 0.031335
vt 0.103386 0.074592
vt 0.172790 0.118047
vt 0.174063 0.033295
vt 0.173393 0.113190
vt 0.174063 0.033291
vt 0.104529 0.072656
vt 0.173389 0.113190
vt 0.177314 0.113223
vt 0.177154 0.119970
vt 0.178967 0.117001
vt 0.249627 0.077767
vt 0.249627 0.077771
vt 0.248952 0.157669
vt 0.178971 0.117001
vt 0.253553 0.077801
vt 0.246958 0.161059
vt 0.252878 0.157703
vt 0.177154 0.119966
vt 0.249349 0.164416
vt 0.176581 0.200901
vt 0.246958 0.161051
vt 0.253114 0.162923
vt 0.252140 0.245385
vt 0.252140 0.245381
vt 0.253114 0.162927
vt 0.322973 0.118346
vt 0.324082 0.120294
vt 0.322239 0.206020
vt 0.327038 0.118127
vt 0.327034 0.118625
vt 0.323340 0.207972
vt 0.251335 0.340838
vt 0.320755 0.381371
vt 0.321898 0.379432
vt 0.321156 0.467114
vt 0.250922 0.423296
vt 0.250917 0.423296
vt 0.320017 0.469053
vt 0.324116 0.116407
vt 0.250597 0.428508
vt 0.250597 0.428512
vt 0.253578 0.075136
vt 0.250483 0.508423
vt 0.250483 0.508419
vt 0.246667 0.428478
vt 0.250011 0.073036
vt 0.245992 0.508381
vt 0.177985 0.033321
vt 0.178014 0.030656
vt 0.247688 0.074356
vt 0.247688 0.074347
vt 0.177989 0.033325
vt 0.177133 0.467843
vt 0.175910 0.029665
vt 0.174919 0.463939
vt 0.244732 0.425058
vt 0.175033 0.384040
vt 0.170429 0.463901
vt 0.244732 0.425063
vt 0.247177 0.421736
vt 0.176749 0.380283
vt 0.171108 0.384002
vt 0.175033 0.384032
vt 0.247405 0.340809
vt 0.247409 0.340796
vt 0.251664 0.335610
vt 0.174982 0.377290
vt 0.245474 0.337381
vt 0.252380 0.250605
vt 0.252376 0.250605
vt 0.247919 0.334062
vt 0.251659 0.335614
vt 0.321497 0.293698
vt 0.321898 0.379436
vt 0.175678 0.295317
vt 0.177491 0.292361
vt 0.177491 0.292357
vt 0.248611 0.252094
vt 0.248611 0.252098
vt 0.175834 0.288583
vt 0.246220 0.248729
vt 0.176416 0.207643
vt 0.175838 0.288579
vt 0.171913 0.288549
vt 0.171306 0.293403
vt 0.103049 0.248012
vt 0.171913 0.288541
vt 0.172052 0.205733
vt 0.172655 0.200872
vt 0.178229 0.204679
vt 0.102653 0.162265
vt 0.172048 0.205725
vt 0.248210 0.245347
vt 0.249349 0.164412
vt 0.103787 0.160334
vt 0.172651 0.200872
vt 0.100464 0.072871
vt 0.100469 0.072374
vt 0.101911 0.249943
vt 0.100464 0.421415
vt 0.101573 0.423363
vt 0.170585 0.379141
vt 0.170585 0.379137
vt 0.100464 0.421411
vt 0.101911 0.249947
vt 0.102311 0.335690
vt 0.175674 0.295321
vt 0.174987 0.377286
vt 0.245470 0.337381
vt 0.171103 0.383998
vt 0.251339 0.340834
vt 0.322977 0.118338
vt 0.253553 0.077805
s 1
usemtl Player
f 1/1/1 2/2/1 4/3/2
f 2/2/3 1/1/3 3/4/3
f 5/5/4 3/4/4 1/1/4
f 1/1/1 4/3/2 7/6/2
f 5/5/4 1/1/4 8/7/4
f 1/1/5 6/8/6 10/9/5
f 1/1/5 7/6/6 6/8/6
f 1/1/7 9/10/7 8/7/7
f 1/1/7 10/9/7 9/10/7
f 10/9/8 6/8/8 9/10/8
f 8/7/9 9/10/9 6/8/9
f 12/11/10 8/7/10 7/6/11
f 8/7/9 6/8/9 7/6/9
f 11/12/12 5/5/12 8/7/12
f 8/7/12 13/13/12 11/12/12
f 8/7/12 12/11/12 13/13/12
f 14/14/13 13/13/13 12/11/13
f 13/13/14 14/14/14 16/15/14
f 15/16/15 11/12/15 13/13/15
f 15/16/16 13/13/16 17/17/16
f 13/13/14 16/15/14 17/17/14
f 15/16/16 17/17/16 18/16/16
f 17/17/17 16/15/17 18/16/17
f 15/16/18 18/16/18 16/15/18
f 15/16/18 16/15/18 14/14/18
f 20/18/19 15/16/19 14/14/19
f 15/16/15 21/19/15 11/12/15
f 20/18/19 19/20/19 15/16/19
f 21/19/20 15/16/20 19/20/20
f 21/19/21 25/21/22 11/12/22
f 24/22/23 22/23/23 21/19/23
f 22/23/24 23/24/24 21/19/24
f 21/19/21 23/24/21 25/21/22
f 26/25/20 24/22/20 21/19/20
f 21/19/20 19/20/20 26/25/20
f 27/26/25 24/22/25 26/25/25
f 26/25/26 28/27/27 27/26/27
f 26/25/26 31/28/26 28/27/27
f 26/25/28 29/29/28 30/30/28
f 26/25/28 19/20/28 29/29/28
f 30/30/29 31/28/30 26/25/30
f 30/30/29 32/30/29 31/28/30
f 28/27/31 31/28/31 32/31/31
f 30/31/32 28/27/32 32/31/32
f 30/31/32 27/26/32 28/27/32
f 34/32/33 33/33/33 30/30/33
f 33/34/34 27/26/35 30/31/34
f 34/32/33 30/30/33 29/29/33
f 35/35/36 34/36/37 36/36/37
f 33/37/38 34/36/38 35/35/38
f 34/38/39 37/39/39 36/38/39
f 34/38/39 38/40/39 37/39/39
f 39/41/40 38/40/40 34/38/40
f 29/29/33 39/42/33 34/32/33
f 39/41/40 40/43/41 38/40/40
f 39/41/42 44/44/42 40/43/42
f 20/18/43 41/45/43 39/42/43
f 39/42/44 41/45/44 42/45/44
f 39/42/44 42/45/44 43/42/44
f 20/18/43 39/42/43 29/29/43
f 39/41/42 43/41/42 44/44/42
f 42/46/45 44/44/45 43/41/45
f 40/43/46 44/44/46 42/46/46
f 40/43/46 42/46/46 41/47/46
f 41/47/47 45/48/47 40/43/47
f 20/18/48 14/14/48 41/45/48
f 41/45/48 14/14/48 46/49/48
f 41/47/47 46/50/47 45/48/47
f 46/49/49 50/51/49 47/52/49
f 47/52/50 48/49/50 46/49/50
f 45/48/51 46/50/51 48/50/51
f 14/14/48 49/53/48 46/49/48
f 46/49/49 49/53/49 50/51/49
f 50/51/52 7/6/52 47/52/52
f 12/11/10 7/6/11 50/51/11
f 50/51/53 49/53/54 52/54/54
f 12/11/55 50/51/55 51/55/55
f 50/51/53 52/54/54 51/55/53
f 53/11/56 51/55/56 52/54/56
f 12/11/57 52/54/58 49/53/58
f 12/11/57 53/11/57 52/54/58
f 12/11/55 51/55/55 53/11/55
f 14/14/13 12/11/13 49/53/13
f 55/56/59 54/48/59 48/50/59
f 45/48/51 48/50/51 54/48/51
f 47/52/50 55/52/50 48/49/50
f 45/48/60 54/48/60 55/56/60
f 45/48/60 55/56/60 47/56/60
f 47/52/52 7/6/52 56/57/52
f 45/48/61 47/56/62 56/58/61
f 7/6/52 4/3/52 56/57/52
f 58/59/63 56/58/64 57/58/65
f 59/60/66 57/58/67 56/58/66
f 45/48/61 56/58/61 58/59/61
f 59/60/68 56/58/69 4/61/69
f 59/60/70 58/59/70 61/62/70
f 64/63/71 58/59/71 59/60/71
f 60/64/72 59/60/72 63/65/72
f 64/63/71 59/60/71 60/64/71
f 59/60/68 4/61/69 63/65/68
f 59/60/70 61/62/70 62/66/70
f 59/60/66 62/66/66 57/58/67
f 35/35/73 38/40/73 64/63/73
f 35/35/73 64/63/73 65/67/73
f 64/63/74 66/68/75 65/67/75
f 58/59/76 64/63/76 38/40/77
f 64/63/74 67/63/74 66/68/75
f 64/63/78 68/64/79 67/63/78
f 64/63/78 60/64/79 68/64/79
f 68/64/80 66/68/80 67/63/80
f 60/64/81 66/68/82 68/64/81
f 60/64/81 65/67/82 66/68/82
f 35/35/83 65/67/83 71/69/83
f 65/67/84 60/64/84 70/70/84
f 65/67/84 70/70/84 69/71/84
f 65/67/83 69/71/83 71/69/83
f 71/69/85 72/72/86 75/73/86
f 72/72/87 71/69/87 74/74/87
f 33/37/38 35/35/38 71/69/38
f 33/37/88 71/69/89 73/75/89
f 71/69/85 75/73/86 73/75/85
f 69/71/83 74/74/83 71/69/83
f 73/75/90 75/73/90 76/76/90
f 33/34/91 75/73/91 72/72/91
f 33/34/91 76/34/91 75/73/91
f 33/37/88 73/75/89 76/77/88
f 74/74/92 78/78/92 77/79/92
f 74/74/93 77/79/94 82/80/94
f 74/74/92 69/71/92 78/78/92
f 74/74/95 80/81/96 79/82/96
f 72/72/87 74/74/87 79/82/87
f 74/74/95 81/74/95 80/81/96
f 74/74/93 82/80/94 81/74/93
f 79/82/97 82/80/98 77/79/98
f 79/82/97 80/81/97 82/80/98
f 82/80/99 80/81/99 81/74/99
f 79/82/100 77/79/100 84/83/100
f 72/72/101 79/82/101 83/84/101
f 79/82/100 84/83/100 83/84/100
f 85/85/102 87/86/103 84/83/103
f 85/85/104 84/83/104 86/87/104
f 83/84/105 84/83/106 87/86/106
f 84/83/107 78/78/107 86/87/107
f 77/79/107 78/78/107 84/83/107
f 85/85/102 88/85/103 87/86/103
f 83/84/105 87/86/106 89/84/105
f 87/86/108 88/85/108 89/84/108
f 85/85/109 89/84/109 88/85/110
f 85/85/109 83/84/109 89/84/109
f 78/78/107 90/88/107 86/87/107
f 91/89/111 86/87/112 90/88/112
f 91/89/113 92/90/113 86/87/113
f 93/91/114 86/87/115 92/90/115
f 85/85/104 86/87/104 93/91/116
f 93/91/117 94/92/117 95/93/117
f 91/94/118 94/92/118 93/91/118
f 91/94/119 93/91/119 96/95/119
f 85/85/120 93/91/117 95/93/117
f 93/91/114 92/90/115 96/95/114
f 97/89/121 96/95/121 92/90/121
f 91/94/119 96/95/119 97/94/119
f 91/89/113 97/89/113 92/90/113
f 94/92/117 22/23/117 95/93/117
f 24/22/23 95/93/23 22/23/23
f 24/22/122 98/93/123 95/93/123
f 95/93/124 98/93/124 99/96/124
f 95/93/124 99/96/124 100/96/124
f 100/96/125 85/85/125 95/93/125
f 27/26/25 100/96/25 24/22/25
f 24/22/126 100/96/126 99/96/126
f 100/96/101 27/26/101 72/72/101
f 83/84/101 100/96/101 72/72/101
f 100/96/125 83/84/125 85/85/125
f 98/93/127 101/97/127 99/96/127
f 24/22/126 99/96/126 101/97/126
f 24/22/122 101/97/122 98/93/123
f 3/98/128 102/99/129 94/92/129
f 5/5/130 94/92/130 102/99/130
f 22/23/131 94/92/131 5/5/131
f 91/94/118 3/98/132 94/92/118
f 3/98/128 104/98/128 102/99/129
f 104/98/133 103/5/133 102/99/133
f 5/5/130 102/99/130 103/5/130
f 5/5/134 104/4/134 3/4/134
f 5/5/134 103/5/135 104/4/134
f 3/4/3 91/100/136 105/101/136
f 91/89/111 90/88/112 105/102/111
f 3/4/3 105/101/136 2/2/3
f 105/103/137 63/65/138 2/104/137
f 105/103/137 106/105/138 63/65/138
f 105/103/139 107/106/139 106/105/139
f 105/103/139 108/107/139 107/106/139
f 105/102/140 109/88/140 108/108/140
f 105/102/140 90/88/140 109/88/140
f 107/106/141 108/109/141 109/88/141
f 106/105/142 109/88/142 90/88/142
f 106/105/142 107/106/142 109/88/142
f 63/65/72 106/105/72 60/64/72
f 70/70/143 106/105/143 90/88/143
f 106/105/72 70/70/144 60/64/72
f 70/70/143 90/88/143 78/78/143
f 69/71/145 110/110/145 78/78/145
f 70/70/146 78/78/146 110/110/146
f 70/70/146 110/110/146 112/111/146
f 112/111/147 110/110/147 111/112/147
f 69/71/145 111/112/145 110/110/145
f 70/70/148 112/111/148 111/112/148
f 70/70/148 111/112/148 69/71/148
f 33/34/34 72/72/35 27/26/35
f 63/65/149 114/61/150 113/113/149
f 2/104/151 63/65/151 113/113/151
f 63/65/149 4/61/150 114/61/150
f 2/2/152 114/3/152 4/3/152
f 115/104/153 113/113/153 114/61/153
f 2/2/152 115/2/152 114/3/152
f 2/104/151 113/113/151 115/104/151
f 57/58/154 62/66/154 61/62/154
f 58/59/63 57/58/65 61/62/63
f 40/43/77 45/48/76 58/59/76
f 58/59/76 38/40/77 40/43/77
f 35/35/155 37/39/156 38/40/156
f 37/39/157 116/114/157 36/36/157
f 35/35/155 116/114/155 37/39/156
f 35/35/36 36/36/37 116/114/36
f 29/29/158 19/20/158 117/20/158
f 29/29/158 117/20/158 119/115/158
f 29/29/159 118/116/159 20/18/159
f 29/29/159 119/115/159 118/116/159
f 117/20/160 118/116/160 119/115/160
f 19/20/161 118/116/162 117/20/161
f 19/20/161 20/18/162 118/116/162
f 120/23/163 25/21/163 23/24/163
f 22/23/164 25/21/165 120/23/164
f 22/23/164 11/12/165 25/21/165
f 22/23/24 120/23/24 23/24/24
f 22/23/131 5/5/131 11/12/131
