# Blender 5.2.0 LTS
# www.blender.org
mtllib skydome.mtl
o 球
v 0.000000 1.000000 0.000000
v 0.000000 0.831470 -0.555570
v 0.000000 0.555570 -0.831470
v 0.000000 0.195090 -0.980785
v 0.000000 0.000000 -1.000000
v 0.000000 -0.195090 -0.980785
v 0.000000 -0.555570 -0.831470
v 0.000000 -1.000000 0.000000
v -0.038060 0.980785 -0.191342
v -0.074658 0.923880 -0.375330
v -0.108386 0.831470 -0.544895
v -0.137950 0.707107 -0.693520
v -0.162212 0.555570 -0.815493
v -0.180240 0.382683 -0.906127
v -0.191342 0.195090 -0.961940
v -0.195090 0.000000 -0.980785
v -0.191342 -0.195090 -0.961940
v -0.180240 -0.382683 -0.906127
v -0.162212 -0.555570 -0.815493
v -0.137950 -0.707107 -0.693520
v -0.108386 -0.831470 -0.544895
v -0.074658 -0.923880 -0.375330
v -0.038060 -0.980785 -0.191342
v -0.074658 0.980785 -0.180240
v -0.146447 0.923880 -0.353553
v -0.212608 0.831470 -0.513280
v -0.270598 0.707107 -0.653281
v -0.318190 0.555570 -0.768178
v -0.353553 0.382683 -0.853553
v -0.375330 0.195090 -0.906127
v -0.382683 0.000000 -0.923879
v -0.375330 -0.195090 -0.906127
v -0.353553 -0.382683 -0.853553
v -0.318190 -0.555570 -0.768178
v -0.270598 -0.707107 -0.653281
v -0.212608 -0.831470 -0.513280
v -0.146447 -0.923880 -0.353553
v -0.074658 -0.980785 -0.180240
v -0.108386 0.980785 -0.162212
v -0.212608 0.923880 -0.318190
v -0.308658 0.831470 -0.461940
v -0.392847 0.707107 -0.587938
v -0.461940 0.555570 -0.691342
v -0.513280 0.382683 -0.768178
v -0.544895 0.195090 -0.815493
v -0.555570 0.000000 -0.831469
v -0.544895 -0.195090 -0.815493
v -0.513280 -0.382683 -0.768178
v -0.461940 -0.555570 -0.691342
v -0.392847 -0.707107 -0.587938
v -0.308658 -0.831470 -0.461940
v -0.212608 -0.923880 -0.318190
v -0.108386 -0.980785 -0.162212
v -0.137950 0.980785 -0.137950
v -0.270598 0.923880 -0.270598
v -0.392847 0.831470 -0.392847
v -0.500000 0.707107 -0.500000
v -0.587938 0.555570 -0.587938
v -0.653281 0.382683 -0.653281
v -0.693520 0.195090 -0.693520
v -0.707107 0.000000 -0.707107
v -0.693520 -0.195090 -0.693520
v -0.653281 -0.382683 -0.653281
v -0.587938 -0.555570 -0.587938
v -0.500000 -0.707107 -0.500000
v -0.392847 -0.831470 -0.392847
v -0.270598 -0.923880 -0.270598
v -0.137950 -0.980785 -0.137950
v -0.162212 0.980785 -0.108386
v -0.318190 0.923880 -0.212608
v -0.461940 0.831470 -0.308658
v -0.587938 0.707107 -0.392847
v -0.691342 0.555570 -0.461940
v -0.768178 0.382683 -0.513280
v -0.815493 0.195090 -0.544895
v -0.831470 0.000000 -0.555570
v -0.815493 -0.195090 -0.544895
v -0.768178 -0.382683 -0.513280
v -0.691342 -0.555570 -0.461940
v -0.587938 -0.707107 -0.392847
v -0.461940 -0.831470 -0.308658
v -0.318190 -0.923880 -0.212608
v -0.162212 -0.980785 -0.108386
v -0.180240 0.980785 -0.074658
v -0.353553 0.923880 -0.146447
v -0.513280 0.831470 -0.212607
v -0.653281 0.707107 -0.270598
v -0.768178 0.555570 -0.318190
v -0.853553 0.382683 -0.353553
v -0.906127 0.195090 -0.375330
v -0.923879 0.000000 -0.382683
v -0.906127 -0.195090 -0.375330
v -0.853553 -0.382683 -0.353553
v -0.768178 -0.555570 -0.318190
v -0.653281 -0.707107 -0.270598
v -0.513280 -0.831470 -0.212607
v -0.353553 -0.923880 -0.146447
v -0.180240 -0.980785 -0.074658
v -0.191342 0.980785 -0.038060
v -0.375330 0.923880 -0.074658
v -0.544895 0.831470 -0.108386
v -0.693520 0.707107 -0.137950
v -0.815493 0.555570 -0.162212
v -0.906127 0.382683 -0.180240
v -0.961940 0.195090 -0.191342
v -0.980785 0.000000 -0.195090
v -0.961940 -0.195090 -0.191342
v -0.906127 -0.382683 -0.180240
v -0.815493 -0.555570 -0.162212
v -0.693520 -0.707107 -0.137950
v -0.544895 -0.831470 -0.108386
v -0.375330 -0.923880 -0.074658
v -0.191342 -0.980785 -0.038060
v -0.195090 0.980785 0.000000
v -0.382683 0.923880 0.000000
v -0.555570 0.831470 0.000000
v -0.707107 0.707107 -0.000000
v -0.831469 0.555570 0.000000
v -0.923879 0.382683 -0.000000
v -0.980785 0.195090 0.000000
v -1.000000 0.000000 0.000000
v -0.980785 -0.195090 0.000000
v -0.923879 -0.382683 -0.000000
v -0.831469 -0.555570 0.000000
v -0.707107 -0.707107 -0.000000
v -0.555570 -0.831470 0.000000
v -0.382683 -0.923880 0.000000
v -0.195090 -0.980785 0.000000
v -0.191342 0.980785 0.038060
v -0.375330 0.923880 0.074658
v -0.544895 0.831470 0.108386
v -0.693520 0.707107 0.137950
v -0.815493 0.555570 0.162212
v -0.906127 0.382683 0.180240
v -0.961940 0.195090 0.191342
v -0.980785 0.000000 0.195090
v -0.961940 -0.195090 0.191342
v -0.906127 -0.382683 0.180240
v -0.815493 -0.555570 0.162212
v -0.693520 -0.707107 0.137950
v -0.544895 -0.831470 0.108386
v -0.375330 -0.923880 0.074658
v -0.191342 -0.980785 0.038060
v -0.180240 0.980785 0.074658
v -0.353553 0.923880 0.146447
v -0.513280 0.831470 0.212608
v -0.653281 0.707107 0.270598
v -0.768178 0.555570 0.318190
v -0.853553 0.382683 0.353553
v -0.906127 0.195090 0.375330
v -0.923879 0.000000 0.382683
v -0.906127 -0.195090 0.375330
v -0.853553 -0.382683 0.353553
v -0.768178 -0.555570 0.318190
v -0.653281 -0.707107 0.270598
v -0.513280 -0.831470 0.212608
v -0.353553 -0.923880 0.146447
v -0.180240 -0.980785 0.074658
v -0.162212 0.980785 0.108386
v -0.318190 0.923880 0.212608
v -0.461940 0.831470 0.308658
v -0.587938 0.707107 0.392847
v -0.691341 0.555570 0.461940
v -0.768178 0.382683 0.513280
v -0.815493 0.195090 0.544895
v -0.831469 0.000000 0.555570
v -0.815493 -0.195090 0.544895
v -0.768178 -0.382683 0.513280
v -0.691341 -0.555570 0.461940
v -0.587938 -0.707107 0.392847
v -0.461940 -0.831470 0.308658
v -0.318190 -0.923880 0.212608
v -0.162212 -0.980785 0.108386
v -0.137950 0.980785 0.137950
v -0.270598 0.923880 0.270598
v -0.392847 0.831470 0.392847
v -0.500000 0.707107 0.500000
v -0.587938 0.555570 0.587938
v -0.653281 0.382683 0.653281
v -0.693520 0.195090 0.693520
v -0.707106 0.000000 0.707107
v -0.693520 -0.195090 0.693520
v -0.653281 -0.382683 0.653281
v -0.587938 -0.555570 0.587938
v -0.500000 -0.707107 0.500000
v -0.392847 -0.831470 0.392847
v -0.270598 -0.923880 0.270598
v -0.137950 -0.980785 0.137950
v -0.108386 0.980785 0.162212
v -0.212607 0.923880 0.318190
v -0.308658 0.831470 0.461940
v -0.392847 0.707107 0.587938
v -0.461940 0.555570 0.691342
v -0.513280 0.382683 0.768178
v -0.544895 0.195090 0.815493
v -0.555570 0.000000 0.831469
v -0.544895 -0.195090 0.815493
v -0.513280 -0.382683 0.768178
v -0.461940 -0.555570 0.691342
v -0.392847 -0.707107 0.587938
v -0.308658 -0.831470 0.461940
v -0.212607 -0.923880 0.318190
v -0.108386 -0.980785 0.162212
v -0.074658 0.980785 0.180240
v -0.146447 0.923880 0.353553
v -0.212607 0.831470 0.513280
v -0.270598 0.707107 0.653281
v -0.318189 0.555570 0.768178
v -0.353553 0.382683 0.853553
v -0.375330 0.195090 0.906127
v -0.382683 0.000000 0.923879
v -0.375330 -0.195090 0.906127
v -0.353553 -0.382683 0.853553
v -0.318189 -0.555570 0.768178
v -0.270598 -0.707107 0.653281
v -0.212607 -0.831470 0.513280
v -0.146447 -0.923880 0.353553
v -0.074658 -0.980785 0.180240
v -0.038060 0.980785 0.191342
v -0.074658 0.923880 0.375330
v -0.108386 0.831470 0.544895
v -0.137950 0.707107 0.693520
v -0.162212 0.555570 0.815493
v -0.180240 0.382683 0.906127
v -0.191342 0.195090 0.961939
v -0.195090 0.000000 0.980785
v -0.191342 -0.195090 0.961939
v -0.180240 -0.382683 0.906127
v -0.162212 -0.555570 0.815493
v -0.137950 -0.707107 0.693520
v -0.108386 -0.831470 0.544895
v -0.074658 -0.923880 0.375330
v -0.038060 -0.980785 0.191342
v 0.000000 0.980785 0.195090
v 0.000000 0.923880 0.382683
v 0.000000 0.831470 0.555570
v 0.000000 0.707107 0.707107
v 0.000000 0.555570 0.831469
v -0.000000 0.382683 0.923879
v 0.000000 0.195090 0.980785
v 0.000000 0.000000 0.999999
v 0.000000 -0.195090 0.980785
v -0.000000 -0.382683 0.923879
v 0.000000 -0.555570 0.831469
v 0.000000 -0.707107 0.707107
v 0.000000 -0.831470 0.555570
v 0.000000 -0.923880 0.382683
v 0.000000 -0.980785 0.195090
v 0.038060 0.980785 0.191342
v 0.074658 0.923880 0.375330
v 0.108386 0.831470 0.544895
v 0.137950 0.707107 0.693520
v 0.162212 0.555570 0.815493
v 0.180240 0.382683 0.906127
v 0.191342 0.195090 0.961939
v 0.195091 0.000000 0.980785
v 0.191342 -0.195090 0.961939
v 0.180240 -0.382683 0.906127
v 0.162212 -0.555570 0.815493
v 0.137950 -0.707107 0.693520
v 0.108386 -0.831470 0.544895
v 0.074658 -0.923880 0.375330
v 0.038060 -0.980785 0.191342
v 0.074658 0.980785 0.180240
v 0.146447 0.923880 0.353553
v 0.212608 0.831470 0.513280
v 0.270598 0.707107 0.653281
v 0.318190 0.555570 0.768177
v 0.353553 0.382683 0.853553
v 0.375330 0.195090 0.906127
v 0.382683 0.000000 0.923879
v 0.375330 -0.195090 0.906127
v 0.353553 -0.382683 0.853553
v 0.318190 -0.555570 0.768177
v 0.270598 -0.707107 0.653281
v 0.212608 -0.831470 0.513280
v 0.146447 -0.923880 0.353553
v 0.074658 -0.980785 0.180240
v 0.108386 0.980785 0.162212
v 0.212608 0.923880 0.318190
v 0.308658 0.831470 0.461939
v 0.392847 0.707107 0.587938
v 0.461940 0.555570 0.691341
v 0.513280 0.382683 0.768178
v 0.544895 0.195090 0.815493
v 0.555570 0.000000 0.831469
v 0.544895 -0.195090 0.815493
v 0.513280 -0.382683 0.768178
v 0.461940 -0.555570 0.691341
v 0.392847 -0.707107 0.587938
v 0.308658 -0.831470 0.461939
v 0.212608 -0.923880 0.318190
v 0.108386 -0.980785 0.162212
v 0.137950 0.980785 0.137950
v 0.270598 0.923880 0.270598
v 0.392847 0.831470 0.392847
v 0.500000 0.707107 0.500000
v 0.587938 0.555570 0.587937
v 0.653281 0.382683 0.653281
v 0.693520 0.195090 0.693520
v 0.707106 0.000000 0.707106
v 0.693520 -0.195090 0.693520
v 0.653281 -0.382683 0.653281
v 0.587938 -0.555570 0.587937
v 0.500000 -0.707107 0.500000
v 0.392847 -0.831470 0.392847
v 0.270598 -0.923880 0.270598
v 0.137950 -0.980785 0.137950
v 0.162212 0.980785 0.108386
v 0.318190 0.923880 0.212607
v 0.461940 0.831470 0.308658
v 0.587938 0.707107 0.392847
v 0.691341 0.555570 0.461939
v 0.768177 0.382683 0.513280
v 0.815493 0.195090 0.544895
v 0.831469 0.000000 0.555569
v 0.815493 -0.195090 0.544895
v 0.768177 -0.382683 0.513280
v 0.691341 -0.555570 0.461939
v 0.587938 -0.707107 0.392847
v 0.461940 -0.831470 0.308658
v 0.318190 -0.923880 0.212607
v 0.162212 -0.980785 0.108386
v 0.180240 0.980785 0.074658
v 0.353553 0.923880 0.146447
v 0.513280 0.831470 0.212607
v 0.653281 0.707107 0.270598
v 0.768177 0.555570 0.318189
v 0.853553 0.382683 0.353553
v 0.906127 0.195090 0.375330
v 0.923879 0.000000 0.382683
v 0.906127 -0.195090 0.375330
v 0.853553 -0.382683 0.353553
v 0.768177 -0.555570 0.318189
v 0.653281 -0.707107 0.270598
v 0.513280 -0.831470 0.212607
v 0.353553 -0.923880 0.146447
v 0.180240 -0.980785 0.074658
v 0.191342 0.980785 0.038060
v 0.375330 0.923880 0.074658
v 0.544895 0.831470 0.108386
v 0.693520 0.707107 0.137950
v 0.815493 0.555570 0.162211
v 0.906127 0.382683 0.180240
v 0.961939 0.195090 0.191341
v 0.980784 0.000000 0.195090
v 0.961939 -0.195090 0.191341
v 0.906127 -0.382683 0.180240
v 0.815493 -0.555570 0.162211
v 0.693520 -0.707107 0.137950
v 0.544895 -0.831470 0.108386
v 0.375330 -0.923880 0.074658
v 0.191342 -0.980785 0.038060
v 0.195090 0.980785 -0.000000
v 0.382683 0.923880 -0.000000
v 0.555570 0.831470 -0.000000
v 0.707107 0.707107 -0.000000
v 0.831469 0.555570 -0.000000
v 0.923879 0.382683 -0.000000
v 0.980785 0.195090 -0.000000
v 0.999999 0.000000 -0.000000
v 0.980785 -0.195090 -0.000000
v 0.923879 -0.382683 -0.000000
v 0.831469 -0.555570 -0.000000
v 0.707107 -0.707107 -0.000000
v 0.555570 -0.831470 -0.000000
v 0.382683 -0.923880 -0.000000
v 0.195090 -0.980785 -0.000000
v 0.191342 0.980785 -0.038060
v 0.375330 0.923880 -0.074658
v 0.544895 0.831470 -0.108386
v 0.693520 0.707107 -0.137950
v 0.815493 0.555570 -0.162212
v 0.906127 0.382683 -0.180240
v 0.961939 0.195090 -0.191342
v 0.980784 0.000000 -0.195091
v 0.961939 -0.195090 -0.191342
v 0.906127 -0.382683 -0.180240
v 0.815493 -0.555570 -0.162212
v 0.693520 -0.707107 -0.137950
v 0.544895 -0.831470 -0.108386
v 0.375330 -0.923880 -0.074658
v 0.191342 -0.980785 -0.038060
v 0.180240 0.980785 -0.074658
v 0.353553 0.923880 -0.146447
v 0.513279 0.831470 -0.212607
v 0.653281 0.707107 -0.270598
v 0.768177 0.555570 -0.318190
v 0.853553 0.382683 -0.353553
v 0.906127 0.195090 -0.375330
v 0.923878 0.000000 -0.382683
v 0.906127 -0.195090 -0.375330
v 0.853553 -0.382683 -0.353553
v 0.768177 -0.555570 -0.318190
v 0.653281 -0.707107 -0.270598
v 0.513279 -0.831470 -0.212607
v 0.353553 -0.923880 -0.146447
v 0.180240 -0.980785 -0.074658
v 0.162212 0.980785 -0.108386
v 0.318189 0.923880 -0.212607
v 0.461939 0.831470 -0.308658
v 0.587938 0.707107 -0.392847
v 0.691341 0.555570 -0.461940
v 0.768177 0.382683 -0.513280
v 0.815493 0.195090 -0.544895
v 0.831468 0.000000 -0.555570
v 0.815493 -0.195090 -0.544895
v 0.768177 -0.382683 -0.513280
v 0.691341 -0.555570 -0.461940
v 0.587938 -0.707107 -0.392847
v 0.461939 -0.831470 -0.308658
v 0.318189 -0.923880 -0.212607
v 0.162212 -0.980785 -0.108386
v 0.137950 0.980785 -0.137950
v 0.270598 0.923880 -0.270598
v 0.392847 0.831470 -0.392847
v 0.500000 0.707107 -0.500000
v 0.587937 0.555570 -0.587938
v 0.653281 0.382683 -0.653281
v 0.693519 0.195090 -0.693520
v 0.707106 0.000000 -0.707106
v 0.693519 -0.195090 -0.693520
v 0.653281 -0.382683 -0.653281
v 0.587937 -0.555570 -0.587938
v 0.500000 -0.707107 -0.500000
v 0.392847 -0.831470 -0.392847
v 0.270598 -0.923880 -0.270598
v 0.137950 -0.980785 -0.137950
v 0.108386 0.980785 -0.162212
v 0.212607 0.923880 -0.318190
v 0.308658 0.831470 -0.461939
v 0.392847 0.707107 -0.587938
v 0.461939 0.555570 -0.691341
v 0.513280 0.382683 -0.768177
v 0.544895 0.195090 -0.815493
v 0.555569 0.000000 -0.831469
v 0.544895 -0.195090 -0.815493
v 0.513280 -0.382683 -0.768177
v 0.461939 -0.555570 -0.691341
v 0.392847 -0.707107 -0.587938
v 0.308658 -0.831470 -0.461939
v 0.212607 -0.923880 -0.318190
v 0.108386 -0.980785 -0.162212
v 0.074658 0.980785 -0.180240
v 0.146446 0.923880 -0.353553
v 0.212607 0.831470 -0.513279
v 0.270598 0.707107 -0.653281
v 0.318189 0.555570 -0.768177
v 0.353553 0.382683 -0.853553
v 0.375330 0.195090 -0.906127
v 0.382683 0.000000 -0.923879
v 0.375330 -0.195090 -0.906127
v 0.353553 -0.382683 -0.853553
v 0.318189 -0.555570 -0.768177
v 0.270598 -0.707107 -0.653281
v 0.212607 -0.831470 -0.513279
v 0.146446 -0.923880 -0.353553
v 0.074658 -0.980785 -0.180240
v 0.038060 0.980785 -0.191342
v 0.074658 0.923880 -0.375330
v 0.108386 0.831470 -0.544895
v 0.137950 0.707107 -0.693520
v 0.162211 0.555570 -0.815493
v 0.180240 0.382683 -0.906127
v 0.191341 0.195090 -0.961939
v 0.195090 0.000000 -0.980784
v 0.191341 -0.195090 -0.961939
v 0.180240 -0.382683 -0.906127
v 0.162211 -0.555570 -0.815493
v 0.137950 -0.707107 -0.693520
v 0.108386 -0.831470 -0.544895
v 0.074658 -0.923880 -0.375330
v 0.038060 -0.980785 -0.191342
v -0.000000 0.980785 -0.195090
v -0.000000 0.923880 -0.382683
v -0.000000 0.707107 -0.707107
v -0.000000 0.382683 -0.923879
v -0.000000 -0.382683 -0.923879
v -0.000000 -0.707107 -0.707107
v -0.000000 -0.831470 -0.555570
v -0.000000 -0.923880 -0.382683
v -0.000000 -0.980785 -0.195090
vn 0.0759 0.6326 0.7708
vn 0.0759 -0.6326 0.7708
vn 0.0624 0.7715 0.6332
vn 0.0865 -0.4696 0.8786
vn 0.0464 0.8810 0.4709
vn 0.0938 -0.2890 0.9527
vn 0.0286 0.9565 0.2902
vn 0.0975 -0.0975 0.9904
vn 0.0097 -0.9951 0.0980
vn 0.0097 0.9951 0.0980
vn 0.0975 0.0975 0.9904
vn 0.0286 -0.9565 0.2902
vn 0.0938 0.2890 0.9527
vn 0.0464 -0.8810 0.4709
vn 0.0865 0.4696 0.8786
vn 0.0624 -0.7715 0.6332
vn 0.2563 0.4696 0.8448
vn 0.1847 -0.7715 0.6088
vn 0.2248 0.6326 0.7412
vn 0.2248 -0.6326 0.7412
vn 0.1847 0.7715 0.6088
vn 0.2563 -0.4696 0.8448
vn 0.1374 0.8810 0.4528
vn 0.2779 -0.2890 0.9161
vn 0.0846 0.9565 0.2790
vn 0.2889 -0.0976 0.9524
vn 0.0286 -0.9951 0.0942
vn 0.0286 0.9951 0.0942
vn 0.2889 0.0976 0.9524
vn 0.0846 -0.9565 0.2790
vn 0.2779 0.2890 0.9161
vn 0.1374 -0.8810 0.4528
vn 0.1374 0.9565 0.2571
vn 0.4691 -0.0975 0.8777
vn 0.0464 -0.9951 0.0869
vn 0.0464 0.9951 0.0869
vn 0.4691 0.0975 0.8777
vn 0.1374 -0.9565 0.2571
vn 0.4513 0.2890 0.8443
vn 0.2230 -0.8810 0.4173
vn 0.4162 0.4696 0.7786
vn 0.2999 -0.7715 0.5611
vn 0.3651 0.6326 0.6831
vn 0.3651 -0.6326 0.6831
vn 0.2999 0.7715 0.5611
vn 0.4162 -0.4696 0.7786
vn 0.2230 0.8810 0.4173
vn 0.4513 -0.2890 0.8443
vn 0.4036 -0.7715 0.4918
vn 0.4913 0.6326 0.5987
vn 0.4913 -0.6326 0.5987
vn 0.4036 0.7715 0.4918
vn 0.5601 -0.4696 0.6825
vn 0.3002 0.8810 0.3658
vn 0.6073 -0.2890 0.7400
vn 0.1850 0.9565 0.2254
vn 0.6314 -0.0975 0.7693
vn 0.0625 -0.9951 0.0761
vn 0.0625 0.9951 0.0761
vn 0.6314 0.0975 0.7693
vn 0.1850 -0.9565 0.2254
vn 0.6073 0.2890 0.7400
vn 0.3002 -0.8810 0.3658
vn 0.5601 0.4696 0.6825
vn 0.7693 -0.0975 0.6314
vn 0.0761 -0.9951 0.0625
vn 0.0761 0.9951 0.0625
vn 0.7693 0.0975 0.6314
vn 0.2254 -0.9565 0.1850
vn 0.7400 0.2890 0.6073
vn 0.3658 -0.8810 0.3002
vn 0.6825 0.4696 0.5601
vn 0.4918 -0.7715 0.4036
vn 0.5987 0.6326 0.4913
vn 0.5987 -0.6326 0.4913
vn 0.4918 0.7715 0.4036
vn 0.6825 -0.4696 0.5601
vn 0.3658 0.8810 0.3002
vn 0.7400 -0.2890 0.6073
vn 0.2254 0.9565 0.1850
vn 0.6831 0.6326 0.3651
vn 0.6831 -0.6326 0.3651
vn 0.5611 0.7715 0.2999
vn 0.7786 -0.4696 0.4162
vn 0.4173 0.8810 0.2230
vn 0.8443 -0.2890 0.4513
vn 0.2571 0.9565 0.1374
vn 0.8777 -0.0975 0.4691
vn 0.0869 -0.9951 0.0464
vn 0.0869 0.9951 0.0464
vn 0.8777 0.0975 0.4691
vn 0.2571 -0.9565 0.1374
vn 0.8443 0.2890 0.4513
vn 0.4173 -0.8810 0.2230
vn 0.7786 0.4696 0.4162
vn 0.5611 -0.7715 0.2999
vn 0.0942 0.9951 0.0286
vn 0.9524 0.0975 0.2889
vn 0.2790 -0.9565 0.0846
vn 0.9161 0.2890 0.2779
vn 0.4528 -0.8810 0.1374
vn 0.8448 0.4696 0.2563
vn 0.6088 -0.7715 0.1847
vn 0.7412 0.6326 0.2248
vn 0.7412 -0.6326 0.2248
vn 0.6088 0.7715 0.1847
vn 0.8448 -0.4696 0.2563
vn 0.4528 0.8810 0.1374
vn 0.9161 -0.2890 0.2779
vn 0.2790 0.9565 0.0846
vn 0.9524 -0.0975 0.2889
vn 0.0942 -0.9951 0.0286
vn 0.6332 0.7715 0.0624
vn 0.8786 -0.4696 0.0865
vn 0.4709 0.8810 0.0464
vn 0.9527 -0.2890 0.0938
vn 0.2902 0.9565 0.0286
vn 0.9904 -0.0975 0.0975
vn 0.0980 -0.9951 0.0097
vn 0.0980 0.9951 0.0097
vn 0.9904 0.0975 0.0975
vn 0.2902 -0.9565 0.0286
vn 0.9527 0.2890 0.0938
vn 0.4709 -0.8810 0.0464
vn 0.8786 0.4696 0.0865
vn 0.6332 -0.7715 0.0624
vn 0.7708 0.6326 0.0759
vn 0.7708 -0.6326 0.0759
vn 0.2902 -0.9565 -0.0286
vn 0.9527 0.2890 -0.0938
vn 0.4709 -0.8810 -0.0464
vn 0.8786 0.4696 -0.0865
vn 0.6332 -0.7715 -0.0624
vn 0.7708 0.6326 -0.0759
vn 0.7708 -0.6326 -0.0759
vn 0.6332 0.7715 -0.0624
vn 0.8786 -0.4696 -0.0865
vn 0.4709 0.8810 -0.0464
vn 0.9527 -0.2890 -0.0938
vn 0.2902 0.9565 -0.0286
vn 0.9904 -0.0975 -0.0976
vn 0.0980 -0.9951 -0.0097
vn 0.0980 0.9951 -0.0097
vn 0.9904 0.0975 -0.0976
vn 0.8448 -0.4696 -0.2563
vn 0.4528 0.8810 -0.1374
vn 0.9161 -0.2890 -0.2779
vn 0.2790 0.9565 -0.0846
vn 0.9524 -0.0975 -0.2889
vn 0.0942 -0.9951 -0.0286
vn 0.0942 0.9951 -0.0286
vn 0.9524 0.0975 -0.2889
vn 0.2790 -0.9565 -0.0846
vn 0.9161 0.2890 -0.2779
vn 0.4528 -0.8810 -0.1374
vn 0.8448 0.4696 -0.2563
vn 0.6088 -0.7715 -0.1847
vn 0.7412 0.6326 -0.2248
vn 0.7412 -0.6326 -0.2248
vn 0.6088 0.7715 -0.1847
vn 0.8443 0.2890 -0.4513
vn 0.4173 -0.8810 -0.2230
vn 0.7786 0.4696 -0.4162
vn 0.5611 -0.7715 -0.2999
vn 0.6831 0.6326 -0.3651
vn 0.6831 -0.6326 -0.3651
vn 0.5611 0.7715 -0.2999
vn 0.7786 -0.4696 -0.4162
vn 0.4173 0.8810 -0.2230
vn 0.8443 -0.2890 -0.4513
vn 0.2571 0.9565 -0.1374
vn 0.8777 -0.0975 -0.4691
vn 0.0869 -0.9951 -0.0464
vn 0.0869 0.9951 -0.0464
vn 0.8777 0.0975 -0.4691
vn 0.2571 -0.9565 -0.1374
vn 0.3658 0.8810 -0.3002
vn 0.7400 -0.2890 -0.6073
vn 0.2254 0.9565 -0.1850
vn 0.7693 -0.0975 -0.6314
vn 0.0761 -0.9951 -0.0625
vn 0.0761 0.9951 -0.0625
vn 0.7693 0.0975 -0.6314
vn 0.2254 -0.9565 -0.1850
vn 0.7400 0.2890 -0.6073
vn 0.3658 -0.8810 -0.3002
vn 0.6825 0.4696 -0.5601
vn 0.4918 -0.7715 -0.4036
vn 0.5987 0.6326 -0.4913
vn 0.5987 -0.6326 -0.4913
vn 0.4918 0.7715 -0.4036
vn 0.6825 -0.4696 -0.5601
vn 0.3002 -0.8810 -0.3658
vn 0.5601 0.4696 -0.6825
vn 0.4036 -0.7715 -0.4918
vn 0.4913 0.6326 -0.5987
vn 0.4913 -0.6326 -0.5987
vn 0.4036 0.7715 -0.4918
vn 0.5601 -0.4696 -0.6825
vn 0.3002 0.8810 -0.3658
vn 0.6073 -0.2890 -0.7400
vn 0.1850 0.9565 -0.2254
vn 0.6314 -0.0975 -0.7693
vn 0.0625 -0.9951 -0.0761
vn 0.0625 0.9951 -0.0761
vn 0.6314 0.0975 -0.7693
vn 0.1850 -0.9565 -0.2254
vn 0.6073 0.2890 -0.7400
vn 0.4513 -0.2890 -0.8443
vn 0.1374 0.9565 -0.2571
vn 0.4691 -0.0975 -0.8777
vn 0.0464 -0.9951 -0.0869
vn 0.0464 0.9951 -0.0869
vn 0.4691 0.0975 -0.8777
vn 0.1374 -0.9565 -0.2571
vn 0.4513 0.2890 -0.8443
vn 0.2230 -0.8810 -0.4173
vn 0.4162 0.4696 -0.7786
vn 0.2999 -0.7715 -0.5611
vn 0.3651 0.6326 -0.6831
vn 0.3651 -0.6326 -0.6831
vn 0.2999 0.7715 -0.5611
vn 0.4162 -0.4696 -0.7786
vn 0.2230 0.8810 -0.4173
vn 0.2563 0.4696 -0.8448
vn 0.1847 -0.7715 -0.6088
vn 0.2248 0.6326 -0.7412
vn 0.2248 -0.6326 -0.7412
vn 0.1847 0.7715 -0.6088
vn 0.2563 -0.4696 -0.8448
vn 0.1374 0.8810 -0.4528
vn 0.2779 -0.2890 -0.9161
vn 0.0846 0.9565 -0.2790
vn 0.2889 -0.0975 -0.9524
vn 0.0286 -0.9951 -0.0942
vn 0.0286 0.9951 -0.0942
vn 0.2889 0.0975 -0.9524
vn 0.0846 -0.9565 -0.2790
vn 0.2779 0.2890 -0.9161
vn 0.1374 -0.8810 -0.4528
vn 0.0286 0.9565 -0.2902
vn 0.0975 -0.0975 -0.9904
vn 0.0097 -0.9951 -0.0980
vn 0.0097 0.9951 -0.0980
vn 0.0975 0.0975 -0.9904
vn 0.0286 -0.9565 -0.2902
vn 0.0938 0.2890 -0.9527
vn 0.0464 -0.8810 -0.4709
vn 0.0865 0.4696 -0.8786
vn 0.0624 -0.7715 -0.6332
vn 0.0759 0.6326 -0.7708
vn 0.0759 -0.6326 -0.7708
vn 0.0624 0.7715 -0.6332
vn 0.0865 -0.4696 -0.8786
vn 0.0464 0.8810 -0.4709
vn 0.0938 -0.2890 -0.9527
vn -0.0759 0.6326 -0.7708
vn -0.0759 -0.6326 -0.7708
vn -0.0624 0.7715 -0.6332
vn -0.0865 -0.4696 -0.8786
vn -0.0464 0.8810 -0.4709
vn -0.0938 -0.2890 -0.9527
vn -0.0286 0.9565 -0.2902
vn -0.0976 -0.0975 -0.9904
vn -0.0097 -0.9951 -0.0980
vn -0.0097 0.9951 -0.0980
vn -0.0976 0.0975 -0.9904
vn -0.0286 -0.9565 -0.2902
vn -0.0938 0.2890 -0.9527
vn -0.0464 -0.8810 -0.4709
vn -0.0865 0.4696 -0.8786
vn -0.0624 -0.7715 -0.6332
vn -0.0286 -0.9951 -0.0942
vn -0.0286 0.9951 -0.0942
vn -0.2889 0.0975 -0.9524
vn -0.0846 -0.9565 -0.2790
vn -0.2779 0.2890 -0.9161
vn -0.1374 -0.8810 -0.4528
vn -0.2563 0.4696 -0.8448
vn -0.1847 -0.7715 -0.6088
vn -0.2248 0.6326 -0.7412
vn -0.2248 -0.6326 -0.7412
vn -0.1847 0.7715 -0.6088
vn -0.2563 -0.4696 -0.8448
vn -0.1374 0.8810 -0.4528
vn -0.2779 -0.2890 -0.9161
vn -0.0846 0.9565 -0.2790
vn -0.2889 -0.0975 -0.9524
vn -0.3651 -0.6326 -0.6831
vn -0.2999 0.7715 -0.5611
vn -0.4162 -0.4696 -0.7786
vn -0.2230 0.8810 -0.4173
vn -0.4513 -0.2890 -0.8443
vn -0.1374 0.9565 -0.2571
vn -0.4691 -0.0975 -0.8777
vn -0.0464 -0.9951 -0.0869
vn -0.0464 0.9951 -0.0869
vn -0.4691 0.0975 -0.8777
vn -0.1374 -0.9565 -0.2571
vn -0.4513 0.2890 -0.8443
vn -0.2231 -0.8810 -0.4173
vn -0.4162 0.4696 -0.7786
vn -0.2999 -0.7715 -0.5611
vn -0.3651 0.6326 -0.6831
vn -0.6314 0.0975 -0.7693
vn -0.1850 -0.9565 -0.2254
vn -0.6073 0.2890 -0.7400
vn -0.3002 -0.8810 -0.3658
vn -0.5601 0.4696 -0.6825
vn -0.4036 -0.7715 -0.4918
vn -0.4913 0.6326 -0.5987
vn -0.4913 -0.6326 -0.5987
vn -0.4036 0.7715 -0.4918
vn -0.5601 -0.4696 -0.6825
vn -0.3002 0.8810 -0.3658
vn -0.6073 -0.2890 -0.7400
vn -0.1850 0.9565 -0.2254
vn -0.6314 -0.0975 -0.7693
vn -0.0625 -0.9951 -0.0761
vn -0.0625 0.9951 -0.0761
vn -0.4918 0.7715 -0.4036
vn -0.6825 -0.4696 -0.5601
vn -0.3658 0.8810 -0.3002
vn -0.7400 -0.2890 -0.6073
vn -0.2254 0.9565 -0.1850
vn -0.7693 -0.0975 -0.6314
vn -0.0761 -0.9951 -0.0625
vn -0.0761 0.9951 -0.0625
vn -0.7693 0.0975 -0.6314
vn -0.2254 -0.9565 -0.1850
vn -0.7400 0.2890 -0.6073
vn -0.3658 -0.8810 -0.3002
vn -0.6825 0.4696 -0.5601
vn -0.4918 -0.7715 -0.4036
vn -0.5987 0.6326 -0.4913
vn -0.5987 -0.6326 -0.4913
vn -0.2571 -0.9565 -0.1374
vn -0.8443 0.2890 -0.4513
vn -0.4173 -0.8810 -0.2230
vn -0.7786 0.4696 -0.4162
vn -0.5611 -0.7715 -0.2999
vn -0.6831 0.6326 -0.3651
vn -0.6831 -0.6326 -0.3651
vn -0.5611 0.7715 -0.2999
vn -0.7786 -0.4696 -0.4162
vn -0.4173 0.8810 -0.2230
vn -0.8443 -0.2890 -0.4513
vn -0.2571 0.9565 -0.1374
vn -0.8777 -0.0975 -0.4691
vn -0.0869 -0.9951 -0.0464
vn -0.0869 0.9951 -0.0464
vn -0.8777 0.0975 -0.4691
vn -0.8448 -0.4696 -0.2563
vn -0.4528 0.8810 -0.1374
vn -0.9161 -0.2890 -0.2779
vn -0.2790 0.9565 -0.0846
vn -0.9524 -0.0975 -0.2889
vn -0.0942 -0.9951 -0.0286
vn -0.0942 0.9951 -0.0286
vn -0.9524 0.0975 -0.2889
vn -0.2790 -0.9565 -0.0846
vn -0.9161 0.2890 -0.2779
vn -0.4528 -0.8810 -0.1374
vn -0.8448 0.4696 -0.2563
vn -0.6088 -0.7715 -0.1847
vn -0.7412 0.6326 -0.2248
vn -0.7412 -0.6326 -0.2248
vn -0.6088 0.7715 -0.1847
vn -0.9527 0.2890 -0.0938
vn -0.4709 -0.8810 -0.0464
vn -0.8786 0.4696 -0.0865
vn -0.6332 -0.7715 -0.0624
vn -0.7708 0.6326 -0.0759
vn -0.7708 -0.6326 -0.0759
vn -0.6332 0.7715 -0.0624
vn -0.8786 -0.4696 -0.0865
vn -0.4709 0.8810 -0.0464
vn -0.9527 -0.2890 -0.0938
vn -0.2902 0.9565 -0.0286
vn -0.9904 -0.0975 -0.0975
vn -0.0980 -0.9951 -0.0097
vn -0.0980 0.9951 -0.0097
vn -0.9904 0.0975 -0.0975
vn -0.2902 -0.9565 -0.0286
vn -0.4709 0.8810 0.0464
vn -0.9527 -0.2890 0.0938
vn -0.2902 0.9565 0.0286
vn -0.9904 -0.0975 0.0976
vn -0.0980 -0.9951 0.0097
vn -0.0980 0.9951 0.0097
vn -0.9904 0.0975 0.0976
vn -0.2902 -0.9565 0.0286
vn -0.9527 0.2890 0.0938
vn -0.4709 -0.8810 0.0464
vn -0.8786 0.4696 0.0865
vn -0.6332 -0.7715 0.0624
vn -0.7708 0.6326 0.0759
vn -0.7708 -0.6326 0.0759
vn -0.6332 0.7715 0.0624
vn -0.8786 -0.4696 0.0865
vn -0.8448 0.4696 0.2563
vn -0.6088 -0.7715 0.1847
vn -0.7412 0.6326 0.2248
vn -0.7412 -0.6326 0.2248
vn -0.6088 0.7715 0.1847
vn -0.8448 -0.4696 0.2563
vn -0.4528 0.8810 0.1374
vn -0.9161 -0.2890 0.2779
vn -0.2790 0.9565 0.0846
vn -0.9524 -0.0975 0.2889
vn -0.0942 -0.9951 0.0286
vn -0.0942 0.9951 0.0286
vn -0.9524 0.0975 0.2889
vn -0.2790 -0.9565 0.0846
vn -0.9161 0.2890 0.2779
vn -0.4528 -0.8810 0.1374
vn -0.2571 0.9565 0.1374
vn -0.8777 -0.0975 0.4691
vn -0.0869 -0.9951 0.0464
vn -0.0869 0.9951 0.0464
vn -0.8777 0.0975 0.4691
vn -0.2571 -0.9565 0.1374
vn -0.8443 0.2890 0.4513
vn -0.4173 -0.8810 0.2231
vn -0.7786 0.4696 0.4162
vn -0.5611 -0.7715 0.2999
vn -0.6831 0.6326 0.3651
vn -0.6831 -0.6326 0.3651
vn -0.5611 0.7715 0.2999
vn -0.7786 -0.4696 0.4162
vn -0.4173 0.8810 0.2231
vn -0.8443 -0.2890 0.4513
vn -0.4918 -0.7715 0.4036
vn -0.5987 0.6326 0.4913
vn -0.5987 -0.6326 0.4913
vn -0.4918 0.7715 0.4036
vn -0.6825 -0.4696 0.5601
vn -0.3658 0.8810 0.3002
vn -0.7400 -0.2890 0.6073
vn -0.2254 0.9565 0.1850
vn -0.7693 -0.0975 0.6314
vn -0.0761 -0.9951 0.0625
vn -0.0761 0.9951 0.0625
vn -0.7693 0.0975 0.6314
vn -0.2254 -0.9565 0.1850
vn -0.7400 0.2890 0.6073
vn -0.3658 -0.8810 0.3002
vn -0.6825 0.4696 0.5601
vn -0.6314 -0.0975 0.7693
vn -0.0625 -0.9951 0.0761
vn -0.0625 0.9951 0.0761
vn -0.6314 0.0975 0.7693
vn -0.1850 -0.9565 0.2254
vn -0.6073 0.2890 0.7400
vn -0.3002 -0.8810 0.3658
vn -0.5601 0.4696 0.6825
vn -0.4036 -0.7715 0.4918
vn -0.4913 0.6326 0.5987
vn -0.4913 -0.6326 0.5987
vn -0.4036 0.7715 0.4918
vn -0.5601 -0.4696 0.6825
vn -0.3002 0.8810 0.3658
vn -0.6073 -0.2890 0.7400
vn -0.1850 0.9565 0.2254
vn -0.3651 0.6326 0.6831
vn -0.3651 -0.6326 0.6831
vn -0.2999 0.7715 0.5611
vn -0.4162 -0.4696 0.7786
vn -0.2230 0.8810 0.4173
vn -0.4513 -0.2890 0.8443
vn -0.1374 0.9565 0.2571
vn -0.4691 -0.0975 0.8777
vn -0.0464 -0.9951 0.0869
vn -0.0464 0.9951 0.0869
vn -0.4691 0.0975 0.8777
vn -0.1374 -0.9565 0.2571
vn -0.4513 0.2890 0.8443
vn -0.2230 -0.8810 0.4173
vn -0.4162 0.4696 0.7786
vn -0.2999 -0.7715 0.5611
vn -0.0286 -0.9951 0.0942
vn -0.0286 0.9951 0.0942
vn -0.2889 0.0975 0.9524
vn -0.0846 -0.9565 0.2790
vn -0.2779 0.2890 0.9161
vn -0.1374 -0.8810 0.4528
vn -0.2563 0.4696 0.8448
vn -0.1847 -0.7715 0.6088
vn -0.2248 0.6326 0.7412
vn -0.2248 -0.6326 0.7412
vn -0.1847 0.7715 0.6088
vn -0.2563 -0.4696 0.8448
vn -0.1374 0.8810 0.4528
vn -0.2779 -0.2890 0.9161
vn -0.0846 0.9565 0.2790
vn -0.2889 -0.0975 0.9524
vn -0.0759 -0.6326 0.7708
vn -0.0624 0.7715 0.6332
vn -0.0865 -0.4696 0.8786
vn -0.0464 0.8810 0.4709
vn -0.0938 -0.2890 0.9527
vn -0.0286 0.9565 0.2902
vn -0.0976 -0.0975 0.9904
vn -0.0097 -0.9951 0.0980
vn -0.0097 0.9951 0.0980
vn -0.0976 0.0975 0.9904
vn -0.0286 -0.9565 0.2902
vn -0.0938 0.2890 0.9527
vn -0.0464 -0.8810 0.4709
vn -0.0865 0.4696 0.8786
vn -0.0624 -0.7715 0.6332
vn -0.0759 0.6326 0.7708
vt 0.750000 0.250000
vt 0.718750 0.250000
vt 0.718750 0.312500
vt 0.750000 0.312500
vt 0.750000 0.687500
vt 0.718750 0.687500
vt 0.718750 0.750000
vt 0.750000 0.750000
vt 0.750000 0.187500
vt 0.718750 0.187500
vt 0.750000 0.625000
vt 0.718750 0.625000
vt 0.750000 0.125000
vt 0.718750 0.125000
vt 0.750000 0.562500
vt 0.718750 0.562500
vt 0.750000 0.062500
vt 0.718750 0.062500
vt 0.750000 0.500000
vt 0.718750 0.500000
vt 0.750000 0.937500
vt 0.718750 0.937500
vt 0.734375 1.000000
vt 0.734375 0.000000
vt 0.750000 0.437500
vt 0.718750 0.437500
vt 0.750000 0.875000
vt 0.718750 0.875000
vt 0.750000 0.375000
vt 0.718750 0.375000
vt 0.750000 0.812500
vt 0.718750 0.812500
vt 0.687500 0.312500
vt 0.687500 0.375000
vt 0.687500 0.750000
vt 0.687500 0.812500
vt 0.687500 0.250000
vt 0.687500 0.687500
vt 0.687500 0.187500
vt 0.687500 0.625000
vt 0.687500 0.125000
vt 0.687500 0.562500
vt 0.687500 0.062500
vt 0.687500 0.500000
vt 0.687500 0.937500
vt 0.703125 1.000000
vt 0.703125 0.000000
vt 0.687500 0.437500
vt 0.687500 0.875000
vt 0.656250 0.062500
vt 0.656250 0.125000
vt 0.656250 0.500000
vt 0.656250 0.562500
vt 0.656250 0.937500
vt 0.671875 1.000000
vt 0.671875 0.000000
vt 0.656250 0.437500
vt 0.656250 0.875000
vt 0.656250 0.375000
vt 0.656250 0.812500
vt 0.656250 0.312500
vt 0.656250 0.750000
vt 0.656250 0.250000
vt 0.656250 0.687500
vt 0.656250 0.187500
vt 0.656250 0.625000
vt 0.625000 0.750000
vt 0.625000 0.812500
vt 0.625000 0.250000
vt 0.625000 0.312500
vt 0.625000 0.687500
vt 0.625000 0.187500
vt 0.625000 0.625000
vt 0.625000 0.125000
vt 0.625000 0.562500
vt 0.625000 0.062500
vt 0.625000 0.500000
vt 0.625000 0.937500
vt 0.640625 1.000000
vt 0.640625 0.000000
vt 0.625000 0.437500
vt 0.625000 0.875000
vt 0.625000 0.375000
vt 0.593750 0.500000
vt 0.593750 0.562500
vt 0.593750 0.937500
vt 0.609375 1.000000
vt 0.609375 0.000000
vt 0.593750 0.062500
vt 0.593750 0.437500
vt 0.593750 0.875000
vt 0.593750 0.375000
vt 0.593750 0.812500
vt 0.593750 0.312500
vt 0.593750 0.750000
vt 0.593750 0.250000
vt 0.593750 0.687500
vt 0.593750 0.187500
vt 0.593750 0.625000
vt 0.593750 0.125000
vt 0.562500 0.250000
vt 0.562500 0.312500
vt 0.562500 0.687500
vt 0.562500 0.750000
vt 0.562500 0.187500
vt 0.562500 0.625000
vt 0.562500 0.125000
vt 0.562500 0.562500
vt 0.562500 0.062500
vt 0.562500 0.500000
vt 0.562500 0.937500
vt 0.578125 1.000000
vt 0.578125 0.000000
vt 0.562500 0.437500
vt 0.562500 0.875000
vt 0.562500 0.375000
vt 0.562500 0.812500
vt 0.546875 0.000000
vt 0.531250 0.062500
vt 0.531250 0.437500
vt 0.531250 0.500000
vt 0.531250 0.875000
vt 0.531250 0.937500
vt 0.531250 0.375000
vt 0.531250 0.812500
vt 0.531250 0.312500
vt 0.531250 0.750000
vt 0.531250 0.250000
vt 0.531250 0.687500
vt 0.531250 0.187500
vt 0.531250 0.625000
vt 0.531250 0.125000
vt 0.531250 0.562500
vt 0.546875 1.000000
vt 0.500000 0.187500
vt 0.500000 0.250000
vt 0.500000 0.625000
vt 0.500000 0.687500
vt 0.500000 0.125000
vt 0.500000 0.562500
vt 0.500000 0.062500
vt 0.500000 0.500000
vt 0.500000 0.937500
vt 0.515625 1.000000
vt 0.515625 0.000000
vt 0.500000 0.437500
vt 0.500000 0.875000
vt 0.500000 0.375000
vt 0.500000 0.812500
vt 0.500000 0.312500
vt 0.500000 0.750000
vt 0.468750 0.875000
vt 0.468750 0.937500
vt 0.468750 0.375000
vt 0.468750 0.437500
vt 0.468750 0.812500
vt 0.468750 0.312500
vt 0.468750 0.750000
vt 0.468750 0.250000
vt 0.468750 0.687500
vt 0.468750 0.187500
vt 0.468750 0.625000
vt 0.468750 0.125000
vt 0.468750 0.562500
vt 0.468750 0.062500
vt 0.468750 0.500000
vt 0.484375 1.000000
vt 0.484375 0.000000
vt 0.437500 0.625000
vt 0.437500 0.687500
vt 0.437500 0.125000
vt 0.437500 0.187500
vt 0.437500 0.562500
vt 0.437500 0.062500
vt 0.437500 0.500000
vt 0.437500 0.937500
vt 0.453125 1.000000
vt 0.453125 0.000000
vt 0.437500 0.437500
vt 0.437500 0.875000
vt 0.437500 0.375000
vt 0.437500 0.812500
vt 0.437500 0.312500
vt 0.437500 0.750000
vt 0.437500 0.250000
vt 0.406250 0.375000
vt 0.406250 0.437500
vt 0.406250 0.812500
vt 0.406250 0.875000
vt 0.406250 0.312500
vt 0.406250 0.750000
vt 0.406250 0.250000
vt 0.406250 0.687500
vt 0.406250 0.187500
vt 0.406250 0.625000
vt 0.406250 0.125000
vt 0.406250 0.562500
vt 0.406250 0.062500
vt 0.406250 0.500000
vt 0.406250 0.937500
vt 0.421875 1.000000
vt 0.421875 0.000000
vt 0.375000 0.125000
vt 0.375000 0.187500
vt 0.375000 0.562500
vt 0.375000 0.625000
vt 0.375000 0.062500
vt 0.375000 0.500000
vt 0.375000 0.937500
vt 0.390625 1.000000
vt 0.390625 0.000000
vt 0.375000 0.437500
vt 0.375000 0.875000
vt 0.375000 0.375000
vt 0.375000 0.812500
vt 0.375000 0.312500
vt 0.375000 0.750000
vt 0.375000 0.250000
vt 0.375000 0.687500
vt 0.343750 0.812500
vt 0.343750 0.875000
vt 0.343750 0.312500
vt 0.343750 0.375000
vt 0.343750 0.750000
vt 0.343750 0.250000
vt 0.343750 0.687500
vt 0.343750 0.187500
vt 0.343750 0.625000
vt 0.343750 0.125000
vt 0.343750 0.562500
vt 0.343750 0.062500
vt 0.343750 0.500000
vt 0.343750 0.937500
vt 0.359375 1.000000
vt 0.359375 0.000000
vt 0.343750 0.437500
vt 0.312500 0.562500
vt 0.312500 0.625000
vt 0.312500 0.062500
vt 0.312500 0.125000
vt 0.312500 0.500000
vt 0.312500 0.937500
vt 0.328125 1.000000
vt 0.328125 0.000000
vt 0.312500 0.437500
vt 0.312500 0.875000
vt 0.312500 0.375000
vt 0.312500 0.812500
vt 0.312500 0.312500
vt 0.312500 0.750000
vt 0.312500 0.250000
vt 0.312500 0.687500
vt 0.312500 0.187500
vt 0.281250 0.312500
vt 0.281250 0.375000
vt 0.281250 0.750000
vt 0.281250 0.812500
vt 0.281250 0.250000
vt 0.281250 0.687500
vt 0.281250 0.187500
vt 0.281250 0.625000
vt 0.281250 0.125000
vt 0.281250 0.562500
vt 0.281250 0.062500
vt 0.281250 0.500000
vt 0.281250 0.937500
vt 0.296875 1.000000
vt 0.296875 0.000000
vt 0.281250 0.437500
vt 0.281250 0.875000
vt 0.250000 0.062500
vt 0.250000 0.125000
vt 0.250000 0.500000
vt 0.250000 0.562500
vt 0.250000 0.937500
vt 0.265625 1.000000
vt 0.265625 0.000000
vt 0.250000 0.437500
vt 0.250000 0.875000
vt 0.250000 0.375000
vt 0.250000 0.812500
vt 0.250000 0.312500
vt 0.250000 0.750000
vt 0.250000 0.250000
vt 0.250000 0.687500
vt 0.250000 0.187500
vt 0.250000 0.625000
vt 0.218750 0.250000
vt 0.218750 0.312500
vt 0.218750 0.687500
vt 0.218750 0.750000
vt 0.218750 0.187500
vt 0.218750 0.625000
vt 0.218750 0.125000
vt 0.218750 0.562500
vt 0.218750 0.062500
vt 0.218750 0.500000
vt 0.218750 0.937500
vt 0.234375 1.000000
vt 0.234375 0.000000
vt 0.218750 0.437500
vt 0.218750 0.875000
vt 0.218750 0.375000
vt 0.218750 0.812500
vt 0.187500 0.937500
vt 0.203125 1.000000
vt 0.203125 0.000000
vt 0.187500 0.062500
vt 0.187500 0.437500
vt 0.187500 0.500000
vt 0.187500 0.875000
vt 0.187500 0.375000
vt 0.187500 0.812500
vt 0.187500 0.312500
vt 0.187500 0.750000
vt 0.187500 0.250000
vt 0.187500 0.687500
vt 0.187500 0.187500
vt 0.187500 0.625000
vt 0.187500 0.125000
vt 0.187500 0.562500
vt 0.156250 0.687500
vt 0.156250 0.750000
vt 0.156250 0.187500
vt 0.156250 0.250000
vt 0.156250 0.625000
vt 0.156250 0.125000
vt 0.156250 0.562500
vt 0.156250 0.062500
vt 0.156250 0.500000
vt 0.156250 0.937500
vt 0.171875 1.000000
vt 0.171875 0.000000
vt 0.156250 0.437500
vt 0.156250 0.875000
vt 0.156250 0.375000
vt 0.156250 0.812500
vt 0.156250 0.312500
vt 0.125000 0.437500
vt 0.125000 0.500000
vt 0.125000 0.875000
vt 0.125000 0.937500
vt 0.125000 0.375000
vt 0.125000 0.812500
vt 0.125000 0.312500
vt 0.125000 0.750000
vt 0.125000 0.250000
vt 0.125000 0.687500
vt 0.125000 0.187500
vt 0.125000 0.625000
vt 0.125000 0.125000
vt 0.125000 0.562500
vt 0.125000 0.062500
vt 0.140625 1.000000
vt 0.140625 0.000000
vt 0.093750 0.187500
vt 0.093750 0.250000
vt 0.093750 0.625000
vt 0.093750 0.687500
vt 0.093750 0.125000
vt 0.093750 0.562500
vt 0.093750 0.062500
vt 0.093750 0.500000
vt 0.093750 0.937500
vt 0.109375 1.000000
vt 0.109375 0.000000
vt 0.093750 0.437500
vt 0.093750 0.875000
vt 0.093750 0.375000
vt 0.093750 0.812500
vt 0.093750 0.312500
vt 0.093750 0.750000
vt 0.062500 0.875000
vt 0.062500 0.937500
vt 0.062500 0.375000
vt 0.062500 0.437500
vt 0.062500 0.812500
vt 0.062500 0.312500
vt 0.062500 0.750000
vt 0.062500 0.250000
vt 0.062500 0.687500
vt 0.062500 0.187500
vt 0.062500 0.625000
vt 0.062500 0.125000
vt 0.062500 0.562500
vt 0.062500 0.062500
vt 0.062500 0.500000
vt 0.078125 1.000000
vt 0.078125 0.000000
vt 0.031250 0.625000
vt 0.031250 0.687500
vt 0.031250 0.125000
vt 0.031250 0.187500
vt 0.031250 0.562500
vt 0.031250 0.062500
vt 0.031250 0.500000
vt 0.031250 0.937500
vt 0.046875 1.000000
vt 0.046875 0.000000
vt 0.031250 0.437500
vt 0.031250 0.875000
vt 0.031250 0.375000
vt 0.031250 0.812500
vt 0.031250 0.312500
vt 0.031250 0.750000
vt 0.031250 0.250000
vt 0.000000 0.375000
vt 0.000000 0.437500
vt 0.000000 0.812500
vt 0.000000 0.875000
vt 0.000000 0.312500
vt 0.000000 0.750000
vt 0.000000 0.250000
vt 0.000000 0.687500
vt 0.000000 0.187500
vt 0.000000 0.625000
vt 0.000000 0.125000
vt 0.000000 0.562500
vt 0.000000 0.062500
vt 0.000000 0.500000
vt 0.000000 0.937500
vt 0.015625 1.000000
vt 0.015625 0.000000
vt 1.000000 0.125000
vt 0.968750 0.125000
vt 0.968750 0.187500
vt 1.000000 0.187500
vt 1.000000 0.562500
vt 0.968750 0.562500
vt 0.968750 0.625000
vt 1.000000 0.625000
vt 1.000000 0.062500
vt 0.968750 0.062500
vt 1.000000 0.500000
vt 0.968750 0.500000
vt 1.000000 0.937500
vt 0.968750 0.937500
vt 0.984375 1.000000
vt 0.984375 0.000000
vt 1.000000 0.437500
vt 0.968750 0.437500
vt 1.000000 0.875000
vt 0.968750 0.875000
vt 1.000000 0.375000
vt 0.968750 0.375000
vt 1.000000 0.812500
vt 0.968750 0.812500
vt 1.000000 0.312500
vt 0.968750 0.312500
vt 1.000000 0.750000
vt 0.968750 0.750000
vt 1.000000 0.250000
vt 0.968750 0.250000
vt 1.000000 0.687500
vt 0.968750 0.687500
vt 0.937500 0.312500
vt 0.937500 0.375000
vt 0.937500 0.750000
vt 0.937500 0.812500
vt 0.937500 0.250000
vt 0.937500 0.687500
vt 0.937500 0.187500
vt 0.937500 0.625000
vt 0.937500 0.125000
vt 0.937500 0.562500
vt 0.937500 0.062500
vt 0.937500 0.500000
vt 0.937500 0.937500
vt 0.953125 1.000000
vt 0.953125 0.000000
vt 0.937500 0.437500
vt 0.937500 0.875000
vt 0.906250 0.062500
vt 0.906250 0.125000
vt 0.906250 0.500000
vt 0.906250 0.562500
vt 0.906250 0.937500
vt 0.921875 1.000000
vt 0.921875 0.000000
vt 0.906250 0.437500
vt 0.906250 0.875000
vt 0.906250 0.375000
vt 0.906250 0.812500
vt 0.906250 0.312500
vt 0.906250 0.750000
vt 0.906250 0.250000
vt 0.906250 0.687500
vt 0.906250 0.187500
vt 0.906250 0.625000
vt 0.875000 0.750000
vt 0.875000 0.812500
vt 0.875000 0.250000
vt 0.875000 0.312500
vt 0.875000 0.687500
vt 0.875000 0.187500
vt 0.875000 0.625000
vt 0.875000 0.125000
vt 0.875000 0.562500
vt 0.875000 0.062500
vt 0.875000 0.500000
vt 0.875000 0.937500
vt 0.890625 1.000000
vt 0.890625 0.000000
vt 0.875000 0.437500
vt 0.875000 0.875000
vt 0.875000 0.375000
vt 0.843750 0.500000
vt 0.843750 0.562500
vt 0.843750 0.937500
vt 0.859375 1.000000
vt 0.859375 0.000000
vt 0.843750 0.062500
vt 0.843750 0.437500
vt 0.843750 0.875000
vt 0.843750 0.375000
vt 0.843750 0.812500
vt 0.843750 0.312500
vt 0.843750 0.750000
vt 0.843750 0.250000
vt 0.843750 0.687500
vt 0.843750 0.187500
vt 0.843750 0.625000
vt 0.843750 0.125000
vt 0.812500 0.250000
vt 0.812500 0.312500
vt 0.812500 0.687500
vt 0.812500 0.750000
vt 0.812500 0.187500
vt 0.812500 0.625000
vt 0.812500 0.125000
vt 0.812500 0.562500
vt 0.812500 0.062500
vt 0.812500 0.500000
vt 0.812500 0.937500
vt 0.828125 1.000000
vt 0.828125 0.000000
vt 0.812500 0.437500
vt 0.812500 0.875000
vt 0.812500 0.375000
vt 0.812500 0.812500
vt 0.781250 0.937500
vt 0.796875 1.000000
vt 0.796875 0.000000
vt 0.781250 0.062500
vt 0.781250 0.437500
vt 0.781250 0.500000
vt 0.781250 0.875000
vt 0.781250 0.375000
vt 0.781250 0.812500
vt 0.781250 0.312500
vt 0.781250 0.750000
vt 0.781250 0.250000
vt 0.781250 0.687500
vt 0.781250 0.187500
vt 0.781250 0.625000
vt 0.781250 0.125000
vt 0.781250 0.562500
vt 0.765625 1.000000
vt 0.765625 0.000000
s 0
usemtl マテリアル
f 479/1/1 7/4/1 19/3/1 20/2/1
f 3/5/2 476/8/2 12/7/2 13/6/2
f 480/9/3 479/1/3 20/2/3 21/10/3
f 477/11/4 3/5/4 13/6/4 14/12/4
f 481/13/5 480/9/5 21/10/5 22/14/5
f 4/15/6 477/11/6 14/12/6 15/16/6
f 482/17/7 481/13/7 22/14/7 23/18/7
f 5/19/8 4/15/8 15/16/8 16/20/8
f 474/21/9 1/23/9 9/22/9
f 8/24/10 482/17/10 23/18/10
f 6/25/11 5/19/11 16/20/11 17/26/11
f 475/27/12 474/21/12 9/22/12 10/28/12
f 478/29/13 6/25/13 17/26/13 18/30/13
f 2/31/14 475/27/14 10/28/14 11/32/14
f 7/4/15 478/29/15 18/30/15 19/3/15
f 476/8/16 2/31/16 11/32/16 12/7/16
f 19/3/17 18/30/17 33/34/17 34/33/17
f 12/7/18 11/32/18 26/36/18 27/35/18
f 20/2/19 19/3/19 34/33/19 35/37/19
f 13/6/20 12/7/20 27/35/20 28/38/20
f 21/10/21 20/2/21 35/37/21 36/39/21
f 14/12/22 13/6/22 28/38/22 29/40/22
f 22/14/23 21/10/23 36/39/23 37/41/23
f 15/16/24 14/12/24 29/40/24 30/42/24
f 23/18/25 22/14/25 37/41/25 38/43/25
f 16/20/26 15/16/26 30/42/26 31/44/26
f 9/22/27 1/46/27 24/45/27
f 8/47/28 23/18/28 38/43/28
f 17/26/29 16/20/29 31/44/29 32/48/29
f 10/28/30 9/22/30 24/45/30 25/49/30
f 18/30/31 17/26/31 32/48/31 33/34/31
f 11/32/32 10/28/32 25/49/32 26/36/32
f 38/43/33 37/41/33 52/51/33 53/50/33
f 31/44/34 30/42/34 45/53/34 46/52/34
f 24/45/35 1/55/35 39/54/35
f 8/56/36 38/43/36 53/50/36
f 32/48/37 31/44/37 46/52/37 47/57/37
f 25/49/38 24/45/38 39/54/38 40/58/38
f 33/34/39 32/48/39 47/57/39 48/59/39
f 26/36/40 25/49/40 40/58/40 41/60/40
f 34/33/41 33/34/41 48/59/41 49/61/41
f 27/35/42 26/36/42 41/60/42 42/62/42
f 35/37/43 34/33/43 49/61/43 50/63/43
f 28/38/44 27/35/44 42/62/44 43/64/44
f 36/39/45 35/37/45 50/63/45 51/65/45
f 29/40/46 28/38/46 43/64/46 44/66/46
f 37/41/47 36/39/47 51/65/47 52/51/47
f 30/42/48 29/40/48 44/66/48 45/53/48
f 42/62/49 41/60/49 56/68/49 57/67/49
f 50/63/50 49/61/50 64/70/50 65/69/50
f 43/64/51 42/62/51 57/67/51 58/71/51
f 51/65/52 50/63/52 65/69/52 66/72/52
f 44/66/53 43/64/53 58/71/53 59/73/53
f 52/51/54 51/65/54 66/72/54 67/74/54
f 45/53/55 44/66/55 59/73/55 60/75/55
f 53/50/56 52/51/56 67/74/56 68/76/56
f 46/52/57 45/53/57 60/75/57 61/77/57
f 39/54/58 1/79/58 54/78/58
f 8/80/59 53/50/59 68/76/59
f 47/57/60 46/52/60 61/77/60 62/81/60
f 40/58/61 39/54/61 54/78/61 55/82/61
f 48/59/62 47/57/62 62/81/62 63/83/62
f 41/60/63 40/58/63 55/82/63 56/68/63
f 49/61/64 48/59/64 63/83/64 64/70/64
f 61/77/65 60/75/65 75/85/65 76/84/65
f 54/78/66 1/87/66 69/86/66
f 8/88/67 68/76/67 83/89/67
f 62/81/68 61/77/68 76/84/68 77/90/68
f 55/82/69 54/78/69 69/86/69 70/91/69
f 63/83/70 62/81/70 77/90/70 78/92/70
f 56/68/71 55/82/71 70/91/71 71/93/71
f 64/70/72 63/83/72 78/92/72 79/94/72
f 57/67/73 56/68/73 71/93/73 72/95/73
f 65/69/74 64/70/74 79/94/74 80/96/74
f 58/71/75 57/67/75 72/95/75 73/97/75
f 66/72/76 65/69/76 80/96/76 81/98/76
f 59/73/77 58/71/77 73/97/77 74/99/77
f 67/74/78 66/72/78 81/98/78 82/100/78
f 60/75/79 59/73/79 74/99/79 75/85/79
f 68/76/80 67/74/80 82/100/80 83/89/80
f 80/96/81 79/94/81 94/102/81 95/101/81
f 73/97/82 72/95/82 87/104/82 88/103/82
f 81/98/83 80/96/83 95/101/83 96/105/83
f 74/99/84 73/97/84 88/103/84 89/106/84
f 82/100/85 81/98/85 96/105/85 97/107/85
f 75/85/86 74/99/86 89/106/86 90/108/86
f 83/89/87 82/100/87 97/107/87 98/109/87
f 76/84/88 75/85/88 90/108/88 91/110/88
f 69/86/89 1/112/89 84/111/89
f 8/113/90 83/89/90 98/109/90
f 77/90/91 76/84/91 91/110/91 92/114/91
f 70/91/92 69/86/92 84/111/92 85/115/92
f 78/92/93 77/90/93 92/114/93 93/116/93
f 71/93/94 70/91/94 85/115/94 86/117/94
f 79/94/95 78/92/95 93/116/95 94/102/95
f 72/95/96 71/93/96 86/117/96 87/104/96
f 8/118/97 98/109/97 113/119/97
f 92/114/98 91/110/98 106/121/98 107/120/98
f 85/115/99 84/111/99 99/123/99 100/122/99
f 93/116/100 92/114/100 107/120/100 108/124/100
f 86/117/101 85/115/101 100/122/101 101/125/101
f 94/102/102 93/116/102 108/124/102 109/126/102
f 87/104/103 86/117/103 101/125/103 102/127/103
f 95/101/104 94/102/104 109/126/104 110/128/104
f 88/103/105 87/104/105 102/127/105 103/129/105
f 96/105/106 95/101/106 110/128/106 111/130/106
f 89/106/107 88/103/107 103/129/107 104/131/107
f 97/107/108 96/105/108 111/130/108 112/132/108
f 90/108/109 89/106/109 104/131/109 105/133/109
f 98/109/110 97/107/110 112/132/110 113/119/110
f 91/110/111 90/108/111 105/133/111 106/121/111
f 84/111/112 1/134/112 99/123/112
f 111/130/113 110/128/113 125/136/113 126/135/113
f 104/131/114 103/129/114 118/138/114 119/137/114
f 112/132/115 111/130/115 126/135/115 127/139/115
f 105/133/116 104/131/116 119/137/116 120/140/116
f 113/119/117 112/132/117 127/139/117 128/141/117
f 106/121/118 105/133/118 120/140/118 121/142/118
f 99/123/119 1/144/119 114/143/119
f 8/145/120 113/119/120 128/141/120
f 107/120/121 106/121/121 121/142/121 122/146/121
f 100/122/122 99/123/122 114/143/122 115/147/122
f 108/124/123 107/120/123 122/146/123 123/148/123
f 101/125/124 100/122/124 115/147/124 116/149/124
f 109/126/125 108/124/125 123/148/125 124/150/125
f 102/127/126 101/125/126 116/149/126 117/151/126
f 110/128/127 109/126/127 124/150/127 125/136/127
f 103/129/128 102/127/128 117/151/128 118/138/128
f 115/147/129 114/143/129 129/153/129 130/152/129
f 123/148/130 122/146/130 137/155/130 138/154/130
f 116/149/131 115/147/131 130/152/131 131/156/131
f 124/150/132 123/148/132 138/154/132 139/157/132
f 117/151/133 116/149/133 131/156/133 132/158/133
f 125/136/134 124/150/134 139/157/134 140/159/134
f 118/138/135 117/151/135 132/158/135 133/160/135
f 126/135/136 125/136/136 140/159/136 141/161/136
f 119/137/137 118/138/137 133/160/137 134/162/137
f 127/139/138 126/135/138 141/161/138 142/163/138
f 120/140/139 119/137/139 134/162/139 135/164/139
f 128/141/140 127/139/140 142/163/140 143/165/140
f 121/142/141 120/140/141 135/164/141 136/166/141
f 114/143/142 1/167/142 129/153/142
f 8/168/143 128/141/143 143/165/143
f 122/146/144 121/142/144 136/166/144 137/155/144
f 134/162/145 133/160/145 148/170/145 149/169/145
f 142/163/146 141/161/146 156/172/146 157/171/146
f 135/164/147 134/162/147 149/169/147 150/173/147
f 143/165/148 142/163/148 157/171/148 158/174/148
f 136/166/149 135/164/149 150/173/149 151/175/149
f 129/153/150 1/177/150 144/176/150
f 8/178/151 143/165/151 158/174/151
f 137/155/152 136/166/152 151/175/152 152/179/152
f 130/152/153 129/153/153 144/176/153 145/180/153
f 138/154/154 137/155/154 152/179/154 153/181/154
f 131/156/155 130/152/155 145/180/155 146/182/155
f 139/157/156 138/154/156 153/181/156 154/183/156
f 132/158/157 131/156/157 146/182/157 147/184/157
f 140/159/158 139/157/158 154/183/158 155/185/158
f 133/160/159 132/158/159 147/184/159 148/170/159
f 141/161/160 140/159/160 155/185/160 156/172/160
f 153/181/161 152/179/161 167/187/161 168/186/161
f 146/182/162 145/180/162 160/189/162 161/188/162
f 154/183/163 153/181/163 168/186/163 169/190/163
f 147/184/164 146/182/164 161/188/164 162/191/164
f 155/185/165 154/183/165 169/190/165 170/192/165
f 148/170/166 147/184/166 162/191/166 163/193/166
f 156/172/167 155/185/167 170/192/167 171/194/167
f 149/169/168 148/170/168 163/193/168 164/195/168
f 157/171/169 156/172/169 171/194/169 172/196/169
f 150/173/170 149/169/170 164/195/170 165/197/170
f 158/174/171 157/171/171 172/196/171 173/198/171
f 151/175/172 150/173/172 165/197/172 166/199/172
f 144/176/173 1/201/173 159/200/173
f 8/202/174 158/174/174 173/198/174
f 152/179/175 151/175/175 166/199/175 167/187/175
f 145/180/176 144/176/176 159/200/176 160/189/176
f 172/196/177 171/194/177 186/204/177 187/203/177
f 165/197/178 164/195/178 179/206/178 180/205/178
f 173/198/179 172/196/179 187/203/179 188/207/179
f 166/199/180 165/197/180 180/205/180 181/208/180
f 159/200/181 1/210/181 174/209/181
f 8/211/182 173/198/182 188/207/182
f 167/187/183 166/199/183 181/208/183 182/212/183
f 160/189/184 159/200/184 174/209/184 175/213/184
f 168/186/185 167/187/185 182/212/185 183/214/185
f 161/188/186 160/189/186 175/213/186 176/215/186
f 169/190/187 168/186/187 183/214/187 184/216/187
f 162/191/188 161/188/188 176/215/188 177/217/188
f 170/192/189 169/190/189 184/216/189 185/218/189
f 163/193/190 162/191/190 177/217/190 178/219/190
f 171/194/191 170/192/191 185/218/191 186/204/191
f 164/195/192 163/193/192 178/219/192 179/206/192
f 176/215/193 175/213/193 190/221/193 191/220/193
f 184/216/194 183/214/194 198/223/194 199/222/194
f 177/217/195 176/215/195 191/220/195 192/224/195
f 185/218/196 184/216/196 199/222/196 200/225/196
f 178/219/197 177/217/197 192/224/197 193/226/197
f 186/204/198 185/218/198 200/225/198 201/227/198
f 179/206/199 178/219/199 193/226/199 194/228/199
f 187/203/200 186/204/200 201/227/200 202/229/200
f 180/205/201 179/206/201 194/228/201 195/230/201
f 188/207/202 187/203/202 202/229/202 203/231/202
f 181/208/203 180/205/203 195/230/203 196/232/203
f 174/209/204 1/234/204 189/233/204
f 8/235/205 188/207/205 203/231/205
f 182/212/206 181/208/206 196/232/206 197/236/206
f 175/213/207 174/209/207 189/233/207 190/221/207
f 183/214/208 182/212/208 197/236/208 198/223/208
f 195/230/209 194/228/209 209/238/209 210/237/209
f 203/231/210 202/229/210 217/240/210 218/239/210
f 196/232/211 195/230/211 210/237/211 211/241/211
f 189/233/212 1/243/212 204/242/212
f 8/244/213 203/231/213 218/239/213
f 197/236/214 196/232/214 211/241/214 212/245/214
f 190/221/215 189/233/215 204/242/215 205/246/215
f 198/223/216 197/236/216 212/245/216 213/247/216
f 191/220/217 190/221/217 205/246/217 206/248/217
f 199/222/218 198/223/218 213/247/218 214/249/218
f 192/224/219 191/220/219 206/248/219 207/250/219
f 200/225/220 199/222/220 214/249/220 215/251/220
f 193/226/221 192/224/221 207/250/221 208/252/221
f 201/227/222 200/225/222 215/251/222 216/253/222
f 194/228/223 193/226/223 208/252/223 209/238/223
f 202/229/224 201/227/224 216/253/224 217/240/224
f 214/249/225 213/247/225 228/255/225 229/254/225
f 207/250/226 206/248/226 221/257/226 222/256/226
f 215/251/227 214/249/227 229/254/227 230/258/227
f 208/252/228 207/250/228 222/256/228 223/259/228
f 216/253/229 215/251/229 230/258/229 231/260/229
f 209/238/230 208/252/230 223/259/230 224/261/230
f 217/240/231 216/253/231 231/260/231 232/262/231
f 210/237/232 209/238/232 224/261/232 225/263/232
f 218/239/233 217/240/233 232/262/233 233/264/233
f 211/241/234 210/237/234 225/263/234 226/265/234
f 204/242/235 1/267/235 219/266/235
f 8/268/236 218/239/236 233/264/236
f 212/245/237 211/241/237 226/265/237 227/269/237
f 205/246/238 204/242/238 219/266/238 220/270/238
f 213/247/239 212/245/239 227/269/239 228/255/239
f 206/248/240 205/246/240 220/270/240 221/257/240
f 233/264/241 232/262/241 247/272/241 248/271/241
f 226/265/242 225/263/242 240/274/242 241/273/242
f 219/266/243 1/276/243 234/275/243
f 8/277/244 233/264/244 248/271/244
f 227/269/245 226/265/245 241/273/245 242/278/245
f 220/270/246 219/266/246 234/275/246 235/279/246
f 228/255/247 227/269/247 242/278/247 243/280/247
f 221/257/248 220/270/248 235/279/248 236/281/248
f 229/254/249 228/255/249 243/280/249 244/282/249
f 222/256/250 221/257/250 236/281/250 237/283/250
f 230/258/251 229/254/251 244/282/251 245/284/251
f 223/259/252 222/256/252 237/283/252 238/285/252
f 231/260/253 230/258/253 245/284/253 246/286/253
f 224/261/254 223/259/254 238/285/254 239/287/254
f 232/262/255 231/260/255 246/286/255 247/272/255
f 225/263/256 224/261/256 239/287/256 240/274/256
f 245/284/257 244/282/257 259/289/257 260/288/257
f 238/285/258 237/283/258 252/291/258 253/290/258
f 246/286/259 245/284/259 260/288/259 261/292/259
f 239/287/260 238/285/260 253/290/260 254/293/260
f 247/272/261 246/286/261 261/292/261 262/294/261
f 240/274/262 239/287/262 254/293/262 255/295/262
f 248/271/263 247/272/263 262/294/263 263/296/263
f 241/273/264 240/274/264 255/295/264 256/297/264
f 234/275/265 1/299/265 249/298/265
f 8/300/266 248/271/266 263/296/266
f 242/278/267 241/273/267 256/297/267 257/301/267
f 235/279/268 234/275/268 249/298/268 250/302/268
f 243/280/269 242/278/269 257/301/269 258/303/269
f 236/281/270 235/279/270 250/302/270 251/304/270
f 244/282/271 243/280/271 258/303/271 259/289/271
f 237/283/272 236/281/272 251/304/272 252/291/272
f 249/298/273 1/306/273 264/305/273
f 8/307/274 263/296/274 278/308/274
f 257/301/275 256/297/275 271/310/275 272/309/275
f 250/302/276 249/298/276 264/305/276 265/311/276
f 258/303/277 257/301/277 272/309/277 273/312/277
f 251/304/278 250/302/278 265/311/278 266/313/278
f 259/289/279 258/303/279 273/312/279 274/314/279
f 252/291/280 251/304/280 266/313/280 267/315/280
f 260/288/281 259/289/281 274/314/281 275/316/281
f 253/290/282 252/291/282 267/315/282 268/317/282
f 261/292/283 260/288/283 275/316/283 276/318/283
f 254/293/284 253/290/284 268/317/284 269/319/284
f 262/294/285 261/292/285 276/318/285 277/320/285
f 255/295/286 254/293/286 269/319/286 270/321/286
f 263/296/287 262/294/287 277/320/287 278/308/287
f 256/297/288 255/295/288 270/321/288 271/310/288
f 268/317/289 267/315/289 282/323/289 283/322/289
f 276/318/290 275/316/290 290/325/290 291/324/290
f 269/319/291 268/317/291 283/322/291 284/326/291
f 277/320/292 276/318/292 291/324/292 292/327/292
f 270/321/293 269/319/293 284/326/293 285/328/293
f 278/308/294 277/320/294 292/327/294 293/329/294
f 271/310/295 270/321/295 285/328/295 286/330/295
f 264/305/296 1/332/296 279/331/296
f 8/333/297 278/308/297 293/329/297
f 272/309/298 271/310/298 286/330/298 287/334/298
f 265/311/299 264/305/299 279/331/299 280/335/299
f 273/312/300 272/309/300 287/334/300 288/336/300
f 266/313/301 265/311/301 280/335/301 281/337/301
f 274/314/302 273/312/302 288/336/302 289/338/302
f 267/315/303 266/313/303 281/337/303 282/323/303
f 275/316/304 274/314/304 289/338/304 290/325/304
f 287/334/305 286/330/305 301/340/305 302/339/305
f 280/335/306 279/331/306 294/342/306 295/341/306
f 288/336/307 287/334/307 302/339/307 303/343/307
f 281/337/308 280/335/308 295/341/308 296/344/308
f 289/338/309 288/336/309 303/343/309 304/345/309
f 282/323/310 281/337/310 296/344/310 297/346/310
f 290/325/311 289/338/311 304/345/311 305/347/311
f 283/322/312 282/323/312 297/346/312 298/348/312
f 291/324/313 290/325/313 305/347/313 306/349/313
f 284/326/314 283/322/314 298/348/314 299/350/314
f 292/327/315 291/324/315 306/349/315 307/351/315
f 285/328/316 284/326/316 299/350/316 300/352/316
f 293/329/317 292/327/317 307/351/317 308/353/317
f 286/330/318 285/328/318 300/352/318 301/340/318
f 279/331/319 1/354/319 294/342/319
f 8/355/320 293/329/320 308/353/320
f 306/349/321 305/347/321 320/357/321 321/356/321
f 299/350/322 298/348/322 313/359/322 314/358/322
f 307/351/323 306/349/323 321/356/323 322/360/323
f 300/352/324 299/350/324 314/358/324 315/361/324
f 308/353/325 307/351/325 322/360/325 323/362/325
f 301/340/326 300/352/326 315/361/326 316/363/326
f 294/342/327 1/365/327 309/364/327
f 8/366/328 308/353/328 323/362/328
f 302/339/329 301/340/329 316/363/329 317/367/329
f 295/341/330 294/342/330 309/364/330 310/368/330
f 303/343/331 302/339/331 317/367/331 318/369/331
f 296/344/332 295/341/332 310/368/332 311/370/332
f 304/345/333 303/343/333 318/369/333 319/371/333
f 297/346/334 296/344/334 311/370/334 312/372/334
f 305/347/335 304/345/335 319/371/335 320/357/335
f 298/348/336 297/346/336 312/372/336 313/359/336
f 310/368/337 309/364/337 324/374/337 325/373/337
f 318/369/338 317/367/338 332/376/338 333/375/338
f 311/370/339 310/368/339 325/373/339 326/377/339
f 319/371/340 318/369/340 333/375/340 334/378/340
f 312/372/341 311/370/341 326/377/341 327/379/341
f 320/357/342 319/371/342 334/378/342 335/380/342
f 313/359/343 312/372/343 327/379/343 328/381/343
f 321/356/344 320/357/344 335/380/344 336/382/344
f 314/358/345 313/359/345 328/381/345 329/383/345
f 322/360/346 321/356/346 336/382/346 337/384/346
f 315/361/347 314/358/347 329/383/347 330/385/347
f 323/362/348 322/360/348 337/384/348 338/386/348
f 316/363/349 315/361/349 330/385/349 331/387/349
f 309/364/350 1/388/350 324/374/350
f 8/389/351 323/362/351 338/386/351
f 317/367/352 316/363/352 331/387/352 332/376/352
f 329/383/353 328/381/353 343/391/353 344/390/353
f 337/384/354 336/382/354 351/393/354 352/392/354
f 330/385/355 329/383/355 344/390/355 345/394/355
f 338/386/356 337/384/356 352/392/356 353/395/356
f 331/387/357 330/385/357 345/394/357 346/396/357
f 324/374/358 1/398/358 339/397/358
f 8/399/359 338/386/359 353/395/359
f 332/376/360 331/387/360 346/396/360 347/400/360
f 325/373/361 324/374/361 339/397/361 340/401/361
f 333/375/362 332/376/362 347/400/362 348/402/362
f 326/377/363 325/373/363 340/401/363 341/403/363
f 334/378/364 333/375/364 348/402/364 349/404/364
f 327/379/365 326/377/365 341/403/365 342/405/365
f 335/380/366 334/378/366 349/404/366 350/406/366
f 328/381/367 327/379/367 342/405/367 343/391/367
f 336/382/368 335/380/368 350/406/368 351/393/368
f 348/402/369 347/400/369 362/408/369 363/407/369
f 341/403/370 340/401/370 355/410/370 356/409/370
f 349/404/371 348/402/371 363/407/371 364/411/371
f 342/405/372 341/403/372 356/409/372 357/412/372
f 350/406/373 349/404/373 364/411/373 365/413/373
f 343/391/374 342/405/374 357/412/374 358/414/374
f 351/393/375 350/406/375 365/413/375 366/415/375
f 344/390/376 343/391/376 358/414/376 359/416/376
f 352/392/377 351/393/377 366/415/377 367/417/377
f 345/394/378 344/390/378 359/416/378 360/418/378
f 353/395/379 352/392/379 367/417/379 368/419/379
f 346/396/380 345/394/380 360/418/380 361/420/380
f 339/397/381 1/422/381 354/421/381
f 8/423/382 353/395/382 368/419/382
f 347/400/383 346/396/383 361/420/383 362/408/383
f 340/401/384 339/397/384 354/421/384 355/410/384
f 367/424/385 366/427/385 381/426/385 382/425/385
f 360/428/386 359/431/386 374/430/386 375/429/386
f 368/432/387 367/424/387 382/425/387 383/433/387
f 361/434/388 360/428/388 375/429/388 376/435/388
f 354/436/389 1/438/389 369/437/389
f 8/439/390 368/432/390 383/433/390
f 362/440/391 361/434/391 376/435/391 377/441/391
f 355/442/392 354/436/392 369/437/392 370/443/392
f 363/444/393 362/440/393 377/441/393 378/445/393
f 356/446/394 355/442/394 370/443/394 371/447/394
f 364/448/395 363/444/395 378/445/395 379/449/395
f 357/450/396 356/446/396 371/447/396 372/451/396
f 365/452/397 364/448/397 379/449/397 380/453/397
f 358/454/398 357/450/398 372/451/398 373/455/398
f 366/427/399 365/452/399 380/453/399 381/426/399
f 359/431/400 358/454/400 373/455/400 374/430/400
f 379/449/401 378/445/401 393/457/401 394/456/401
f 372/451/402 371/447/402 386/459/402 387/458/402
f 380/453/403 379/449/403 394/456/403 395/460/403
f 373/455/404 372/451/404 387/458/404 388/461/404
f 381/426/405 380/453/405 395/460/405 396/462/405
f 374/430/406 373/455/406 388/461/406 389/463/406
f 382/425/407 381/426/407 396/462/407 397/464/407
f 375/429/408 374/430/408 389/463/408 390/465/408
f 383/433/409 382/425/409 397/464/409 398/466/409
f 376/435/410 375/429/410 390/465/410 391/467/410
f 369/437/411 1/469/411 384/468/411
f 8/470/412 383/433/412 398/466/412
f 377/441/413 376/435/413 391/467/413 392/471/413
f 370/443/414 369/437/414 384/468/414 385/472/414
f 378/445/415 377/441/415 392/471/415 393/457/415
f 371/447/416 370/443/416 385/472/416 386/459/416
f 398/466/417 397/464/417 412/474/417 413/473/417
f 391/467/418 390/465/418 405/476/418 406/475/418
f 384/468/419 1/478/419 399/477/419
f 8/479/420 398/466/420 413/473/420
f 392/471/421 391/467/421 406/475/421 407/480/421
f 385/472/422 384/468/422 399/477/422 400/481/422
f 393/457/423 392/471/423 407/480/423 408/482/423
f 386/459/424 385/472/424 400/481/424 401/483/424
f 394/456/425 393/457/425 408/482/425 409/484/425
f 387/458/426 386/459/426 401/483/426 402/485/426
f 395/460/427 394/456/427 409/484/427 410/486/427
f 388/461/428 387/458/428 402/485/428 403/487/428
f 396/462/429 395/460/429 410/486/429 411/488/429
f 389/463/430 388/461/430 403/487/430 404/489/430
f 397/464/431 396/462/431 411/488/431 412/474/431
f 390/465/432 389/463/432 404/489/432 405/476/432
f 402/485/433 401/483/433 416/491/433 417/490/433
f 410/486/434 409/484/434 424/493/434 425/492/434
f 403/487/435 402/485/435 417/490/435 418/494/435
f 411/488/436 410/486/436 425/492/436 426/495/436
f 404/489/437 403/487/437 418/494/437 419/496/437
f 412/474/438 411/488/438 426/495/438 427/497/438
f 405/476/439 404/489/439 419/496/439 420/498/439
f 413/473/440 412/474/440 427/497/440 428/499/440
f 406/475/441 405/476/441 420/498/441 421/500/441
f 399/477/442 1/502/442 414/501/442
f 8/503/443 413/473/443 428/499/443
f 407/480/444 406/475/444 421/500/444 422/504/444
f 400/481/445 399/477/445 414/501/445 415/505/445
f 408/482/446 407/480/446 422/504/446 423/506/446
f 401/483/447 400/481/447 415/505/447 416/491/447
f 409/484/448 408/482/448 423/506/448 424/493/448
f 421/500/449 420/498/449 435/508/449 436/507/449
f 414/501/450 1/510/450 429/509/450
f 8/511/451 428/499/451 443/512/451
f 422/504/452 421/500/452 436/507/452 437/513/452
f 415/505/453 414/501/453 429/509/453 430/514/453
f 423/506/454 422/504/454 437/513/454 438/515/454
f 416/491/455 415/505/455 430/514/455 431/516/455
f 424/493/456 423/506/456 438/515/456 439/517/456
f 417/490/457 416/491/457 431/516/457 432/518/457
f 425/492/458 424/493/458 439/517/458 440/519/458
f 418/494/459 417/490/459 432/518/459 433/520/459
f 426/495/460 425/492/460 440/519/460 441/521/460
f 419/496/461 418/494/461 433/520/461 434/522/461
f 427/497/462 426/495/462 441/521/462 442/523/462
f 420/498/463 419/496/463 434/522/463 435/508/463
f 428/499/464 427/497/464 442/523/464 443/512/464
f 440/519/465 439/517/465 454/525/465 455/524/465
f 433/520/466 432/518/466 447/527/466 448/526/466
f 441/521/467 440/519/467 455/524/467 456/528/467
f 434/522/468 433/520/468 448/526/468 449/529/468
f 442/523/469 441/521/469 456/528/469 457/530/469
f 435/508/470 434/522/470 449/529/470 450/531/470
f 443/512/471 442/523/471 457/530/471 458/532/471
f 436/507/472 435/508/472 450/531/472 451/533/472
f 429/509/473 1/535/473 444/534/473
f 8/536/474 443/512/474 458/532/474
f 437/513/475 436/507/475 451/533/475 452/537/475
f 430/514/476 429/509/476 444/534/476 445/538/476
f 438/515/477 437/513/477 452/537/477 453/539/477
f 431/516/478 430/514/478 445/538/478 446/540/478
f 439/517/479 438/515/479 453/539/479 454/525/479
f 432/518/480 431/516/480 446/540/480 447/527/480
f 444/534/481 1/542/481 459/541/481
f 8/543/482 458/532/482 473/544/482
f 452/537/483 451/533/483 466/546/483 467/545/483
f 445/538/484 444/534/484 459/541/484 460/547/484
f 453/539/485 452/537/485 467/545/485 468/548/485
f 446/540/486 445/538/486 460/547/486 461/549/486
f 454/525/487 453/539/487 468/548/487 469/550/487
f 447/527/488 446/540/488 461/549/488 462/551/488
f 455/524/489 454/525/489 469/550/489 470/552/489
f 448/526/490 447/527/490 462/551/490 463/553/490
f 456/528/491 455/524/491 470/552/491 471/554/491
f 449/529/492 448/526/492 463/553/492 464/555/492
f 457/530/493 456/528/493 471/554/493 472/556/493
f 450/531/494 449/529/494 464/555/494 465/557/494
f 458/532/495 457/530/495 472/556/495 473/544/495
f 451/533/496 450/531/496 465/557/496 466/546/496
f 463/553/497 462/551/497 476/8/497 3/5/497
f 471/554/498 470/552/498 479/1/498 480/9/498
f 464/555/499 463/553/499 3/5/499 477/11/499
f 472/556/500 471/554/500 480/9/500 481/13/500
f 465/557/501 464/555/501 477/11/501 4/15/501
f 473/544/502 472/556/502 481/13/502 482/17/502
f 466/546/503 465/557/503 4/15/503 5/19/503
f 459/541/504 1/558/504 474/21/504
f 8/559/505 473/544/505 482/17/505
f 467/545/506 466/546/506 5/19/506 6/25/506
f 460/547/507 459/541/507 474/21/507 475/27/507
f 468/548/508 467/545/508 6/25/508 478/29/508
f 461/549/509 460/547/509 475/27/509 2/31/509
f 469/550/510 468/548/510 478/29/510 7/4/510
f 462/551/511 461/549/511 2/31/511 476/8/511
f 470/552/512 469/550/512 7/4/512 479/1/512
